<?xml version="1.0" encoding="UTF-8" standalone="no"?>
<svg
	xmlns="http://www.w3.org/2000/svg"
	x="0px"
	y="0px"
	viewBox="0 0 37 37"
	width="37"
	height="37">
<g id="g10"
	transform="translate(-29.318266,-29.318266)">
	<path id="path2"
		d="M 66.070698,66.070698 H 29.565834 V 29.565834 h 36.504864 z"
		style="fill:#98fb98;fill-opacity:1;stroke:#504416;stroke-width:0.5;stroke-miterlimit:4;stroke-dasharray:none;stroke-opacity:1"/>
	<g id="g875" style="fill:#504416"
		transform="matrix(0.13520321,0,0,0.13520321,25.509738,25.509738)">
		<path id="path4"
			d="m 90.001,109.999 h 150 c 8.284,0 15,-6.716 15,-15 0,-8.284 -6.716,-15 -15,-15 h -150 c -8.284,0 -15,6.716 -15,15 0,8.284 6.716,15 15,15 z"/>
		<path id="path6"
			d="m 90.001,179.999 h 150 c 8.284,0 15,-6.716 15,-15 0,-8.284 -6.716,-15 -15,-15 h -150 c -8.284,0 -15,6.716 -15,15 0,8.284 6.716,15 15,15 z"/>
		<path id="path8"
			d="m 90.001,249.999 h 150 c 8.284,0 15,-6.716 15,-15 0,-8.284 -6.716,-15 -15,-15 h -150 c -8.284,0 -15,6.716 -15,15 0,8.284 6.716,15 15,15 z"/>
	</g>
</g>
</svg>
