<?xml version="1.0" encoding="UTF-8" standalone="no"?>
<svg
	xmlns="http://www.w3.org/2000/svg"
	xmlns:xlink="http://www.w3.org/1999/xlink"
	width="100"
	height="100"
	viewBox="0 0 20 20">
<defs id="defs45">
	<linearGradient id="linearGradient892">
		<stop id="stop888" style="stop-color:#000000;stop-opacity:1" offset="0"/>
		<stop id="stop898" style="stop-color:#ffffff;stop-opacity:1" offset="0.93268299" />
		<stop id="stop890" style="stop-color:#b3b3b3;stop-opacity:1" offset="1" />
	</linearGradient>
	<radialGradient
		xlink:href="#linearGradient892"
		id="radialGradient848"
		cx="150"
		cy="150"
		fx="150"
		fy="150"
		r="153.09822"
		gradientUnits="userSpaceOnUse"/>
</defs>
<g id="g907"
	transform="matrix(0.06531755,0,0,0.06531755,0.20236813,0.20236813)">
	<path id="path2"
		style="fill:#0044aa;fill-opacity:1;stroke:url(#radialGradient848);stroke-width:15;stroke-miterlimit:4;stroke-dasharray:none;stroke-opacity:1"
		d="m 149.99912,4.4017801 c -80.408759,0 -145.5973399,65.1832989 -145.5973399,145.6008599 0,80.40817 65.1879939,145.59558 145.5967499,145.59558 80.41287,0 145.59969,-65.18741 145.59969,-145.59558 C 295.59881,69.585079 230.4114,4.4017801 149.99912,4.4017801 Z" />
	<g id="g10" style="fill:#ffffff"
		transform="matrix(0.47703497,0,0,0.61239284,31.03995,-4.1037471)">
		<path id="path4"
			d="m 248.079,97.743 c 0,0 -151.866,126.003 -151.866,138.848 v 120.816 c 0,12.845 10.412,23.265 23.262,23.265 h 81.613 v -72.129 c 0,-16.777 13.599,-30.372 30.374,-30.372 h 34.167 c 16.771,0 30.374,13.595 30.374,30.372 v 72.129 h 83.215 c 12.845,0 23.259,-10.42 23.259,-23.265 V 236.592 C 402.476,223.746 248.079,97.743 248.079,97.743 Z" />
		<path id="path6"
			d="M 436.402,229.347 259.496,76.509 c -6.683,-5.772 -16.773,-5.038 -22.544,1.641 -5.771,6.687 -5.034,16.778 1.648,22.546 l 176.905,152.837 c 6.682,5.769 16.772,5.03 22.541,-1.648 5.772,-6.683 5.036,-16.77 -1.644,-22.538 z" />
		<path id="path8"
			d="M 261.795,78.149 C 256.026,71.47 245.938,70.736 239.257,76.508 L 62.346,229.347 c -6.68,5.769 -7.416,15.856 -1.646,22.539 5.769,6.679 15.859,7.417 22.54,1.648 L 260.149,100.697 c 6.682,-5.77 7.419,-15.86 1.646,-22.548 z" />
	</g>
</g>
</svg>
