<?xml version="1.0" encoding="UTF-8" standalone="no"?>
<svg
   xmlns:dc="http://purl.org/dc/elements/1.1/"
   xmlns:cc="http://creativecommons.org/ns#"
   xmlns:rdf="http://www.w3.org/1999/02/22-rdf-syntax-ns#"
   xmlns:svg="http://www.w3.org/2000/svg"
   xmlns="http://www.w3.org/2000/svg"
   xmlns:xlink="http://www.w3.org/1999/xlink"
   xmlns:sodipodi="http://sodipodi.sourceforge.net/DTD/sodipodi-0.dtd"
   xmlns:inkscape="http://www.inkscape.org/namespaces/inkscape"
   version="1.1"
   preserveAspectRatio="xMidYMid meet"
   viewBox="0 0 20 20"
   width="20"
   height="20"
   id="svg125"
   sodipodi:docname="DigiTV_SK.svg"
   inkscape:version="1.0.2 (e86c870879, 2021-01-15, custom)">
  <metadata
     id="metadata129">
    <rdf:RDF>
      <cc:Work
         rdf:about="">
        <dc:format>image/svg+xml</dc:format>
        <dc:type
           rdf:resource="http://purl.org/dc/dcmitype/StillImage" />
        <dc:title></dc:title>
      </cc:Work>
    </rdf:RDF>
  </metadata>
  <sodipodi:namedview
     pagecolor="#ffffff"
     bordercolor="#666666"
     borderopacity="1"
     objecttolerance="10"
     gridtolerance="10"
     guidetolerance="10"
     inkscape:pageopacity="0"
     inkscape:pageshadow="2"
     inkscape:window-width="1920"
     inkscape:window-height="1001"
     id="namedview127"
     showgrid="false"
     inkscape:zoom="7.7687465"
     inkscape:cx="-18.402779"
     inkscape:cy="37.183518"
     inkscape:window-x="-9"
     inkscape:window-y="-9"
     inkscape:window-maximized="1"
     inkscape:current-layer="svg125"
     inkscape:document-rotation="0" />
  <defs
     id="defs15">
    <path
       d="M 2.15,4.43 C 2.08,4.54 2,10.62 2,17.92 c 0,12.14 0.02,13.32 0.32,13.55 0.25,0.23 3.71,0.26 20.84,0.26 23.07,0 21.64,0.08 24.69,-1.43 3.59,-1.77 6.17,-4.89 7.25,-8.77 0.52,-1.86 0.56,-4.98 0.09,-6.92 C 53.98,9.64 49.94,5.65 44.88,4.45 43.86,4.2 40.66,4.14 23.27,4.07 12.03,4.01 2.72,4.03 2.57,4.11 2.42,4.16 2.23,4.31 2.15,4.43 Z m 39.26,10.76 c 0.34,1.32 0.4,3.9 0.1,5.16 -0.34,1.52 -1.47,3.52 -2.69,4.78 -1.42,1.45 -2.6,2.22 -4.22,2.78 -1.24,0.44 -1.37,0.44 -10.01,0.44 -0.59,0 -3.5,0 -8.75,0 -0.04,-6.16 -0.06,-9.58 -0.06,-10.26 -0.02,-5.65 0,-10.37 0.06,-10.5 0.13,-0.36 15.9,-0.32 17.65,0.05 3.73,0.8 7,3.9 7.92,7.55 z"
       id="d1Zr2uzxj6" />
    <path
       d="m 142.66,41.76 c -0.07,0.21 -0.42,1.22 -1.04,3.05 0.37,0 0.58,0 0.62,0 0.57,0 0.64,-0.07 0.89,-0.9 0.02,-0.06 0.11,-0.35 0.28,-0.88 h 1.2 1.21 c 0.17,0.54 0.26,0.84 0.28,0.9 0.25,0.83 0.32,0.88 0.9,0.88 0.34,0 0.63,-0.05 0.63,-0.13 0,-0.09 -0.47,-1.56 -1.06,-3.29 -0.07,-0.21 -0.42,-1.27 -1.05,-3.16 -0.5,0 -0.77,0 -0.83,0 -0.51,0 -0.88,0.09 -0.92,0.22 -0.06,0.13 -0.55,1.62 -1.11,3.31 z m 2.01,0.34 c -0.62,0.02 -0.81,-0.05 -0.81,-0.26 0,-0.49 0.6,-2.48 0.75,-2.48 0.08,0 0.29,0.52 0.48,1.16 0.47,1.6 0.47,1.56 -0.42,1.58 z"
       id="b3Eo9d8Tyw" />
    <path
       d="m 59.32,4.43 c -0.08,0.11 -0.15,6.13 -0.15,13.4 0,11.08 0.04,13.23 0.26,13.55 0.27,0.33 0.55,0.35 6.68,0.35 5.01,0 6.46,-0.05 6.65,-0.24 0.19,-0.21 0.22,-2.82 0.19,-13.65 C 72.89,9.73 72.8,4.37 72.7,4.26 72.49,4.05 60.22,3.92 59.73,4.11 59.58,4.16 59.4,4.31 59.32,4.43 Z"
       id="e2ffIpn0W" />
    <path
       d="m 124.85,44.81 h 0.66 0.66 v -3.29 -3.29 h -0.66 -0.66 v 3.29 z"
       id="f3r55qCO02" />
    <path
       d="m 78.01,11.78 c -1.09,2.26 -1.39,3.62 -1.39,6.03 0,2.26 0.18,3.29 0.94,5.17 1.62,4.09 5.08,7.15 9.35,8.26 1.47,0.4 1.85,0.4 22.45,0.4 20.65,0 20.93,0 21.14,-0.38 0.13,-0.24 0.19,-2.76 0.19,-7.3 -0.02,-5.87 -0.06,-7 -0.3,-7.34 -0.29,-0.41 -0.34,-0.41 -6.67,-0.41 -0.42,0 -2.56,0 -6.39,0 -0.16,0.25 -0.25,0.38 -0.27,0.41 -0.21,0.36 -0.24,1.49 -0.22,5.87 0.03,4.54 0,5.48 -0.23,5.71 -0.24,0.22 -1.54,0.26 -8.86,0.2 -9.51,-0.09 -9.36,-0.07 -11.88,-1.39 -1.66,-0.87 -2.82,-1.92 -3.82,-3.43 -1.19,-1.76 -1.49,-2.78 -1.6,-5.13 -0.09,-2.41 0.15,-3.69 1.02,-5.44 1.2,-2.39 3.03,-3.95 5.87,-5.06 0.08,-0.04 0.5,-0.2 1.26,-0.49 l 9.2,-0.1 9.22,-0.09 c 0.38,-0.62 0.58,-0.97 0.62,-1.04 0.72,-1.18 0.8,-1.78 0.27,-2.07 -0.45,-0.22 -27.8,-0.22 -29.47,0.02 -4.62,0.68 -8.47,3.48 -10.43,7.6 z"
       id="a4wSZX0gyK" />
    <path
       d="m 105.81,41.46 c 0.02,0.08 0.52,0.89 1.11,1.75 1.01,1.55 1.07,1.6 1.79,1.6 0.04,0 0.29,0 0.73,0 -0.68,-0.98 -1.05,-1.53 -1.13,-1.63 -0.64,-0.89 -1.15,-1.72 -1.15,-1.81 0,-0.1 0.43,-0.74 0.98,-1.43 0.53,-0.68 1.05,-1.36 1.15,-1.49 0.13,-0.17 0.02,-0.22 -0.49,-0.22 -0.62,0 -0.77,0.11 -1.86,1.52 -0.66,0.85 -1.17,1.62 -1.13,1.71 z"
       id="d2o352OByM" />
    <path
       d="m 134.45,31.53 c 0.34,0.34 12.84,0.28 13.23,-0.06 0.3,-0.23 0.32,-1.41 0.32,-13.42 0,-8.71 -0.05,-13.28 -0.19,-13.53 -0.18,-0.34 -0.47,-0.36 -6.77,-0.36 -0.44,0 -2.63,0 -6.57,0 l -0.23,0.42 c -0.06,17.76 0.01,26.75 0.21,26.95 z"
       id="b1rvFPf1" />
    <path
       d="m 104.34,44.81 h 0.56 0.57 v -3.29 -3.29 h -0.57 -0.56 v 3.29 z"
       id="aNH9MAGq2" />
    <path
       d="m 2.75,39.22 c -0.42,0.87 -0.04,1.6 1.37,2.58 1,0.7 1.22,0.94 1.22,1.38 0,0.62 -0.52,0.88 -1.8,0.88 -0.72,0 -0.85,0.06 -0.79,0.32 0.05,0.28 0.3,0.36 1.39,0.4 1.22,0.05 1.39,0 1.94,-0.44 0.47,-0.39 0.58,-0.64 0.58,-1.22 0,-0.85 -0.34,-1.3 -1.58,-2.13 -1.15,-0.75 -1.41,-1.11 -1.07,-1.52 0.17,-0.21 0.56,-0.3 1.26,-0.3 0.86,0 1.01,-0.06 1.01,-0.36 0,-0.19 -0.13,-0.41 -0.3,-0.47 C 5.47,38.15 3.95,38.23 3.46,38.47 3.2,38.6 2.88,38.94 2.75,39.22 Z"
       id="ahYWXZuw1" />
    <path
       d="m 83.75,41.76 c -0.07,0.21 -0.41,1.22 -1.04,3.05 0.39,0 0.6,0 0.64,0 0.61,0 0.66,-0.05 0.89,-0.9 0.02,-0.06 0.1,-0.35 0.26,-0.88 h 1.21 1.2 c 0.17,0.54 0.26,0.84 0.28,0.9 0.27,0.83 0.32,0.88 0.91,0.88 0.58,0 0.64,-0.03 0.5,-0.43 -0.07,-0.23 -0.54,-1.71 -1.05,-3.29 -0.06,-0.19 -0.37,-1.15 -0.92,-2.86 -0.51,0 -0.79,0 -0.85,0 -0.51,0 -0.88,0.09 -0.92,0.22 -0.06,0.13 -0.55,1.62 -1.11,3.31 z m 2.77,0.27 c -0.04,0.09 -0.42,0.15 -0.83,0.15 -0.62,0 -0.74,-0.06 -0.74,-0.4 0,-0.56 0.57,-2.42 0.74,-2.42 0.09,0 0.32,0.56 0.52,1.26 0.21,0.71 0.36,1.33 0.31,1.41 z"
       id="b18v3T2z3F" />
    <path
       d="m 22.47,44.81 c 1.19,0 1.84,0 1.98,0 1.84,0 1.97,-0.02 1.97,-0.37 0,-0.32 -0.15,-0.36 -1.26,-0.42 -0.08,0 -0.51,-0.02 -1.28,-0.05 l -0.06,-2.88 -0.05,-2.86 h -0.64 -0.66 v 3.29 z"
       id="c72b0DF8KN" />
    <path
       d="m 63.46,41.65 c 0.07,0.21 0.43,1.27 1.07,3.16 h 0.76 0.75 c 0.61,-1.83 0.95,-2.84 1.02,-3.05 0.56,-1.69 1.05,-3.18 1.11,-3.31 0.05,-0.19 -0.08,-0.24 -0.55,-0.19 -0.7,0.06 -0.64,-0.05 -1.88,4.11 -0.03,0.09 -0.17,0.56 -0.42,1.41 -0.31,-1.02 -0.49,-1.58 -0.52,-1.7 -0.29,-0.94 -0.66,-2.18 -0.83,-2.78 -0.3,-1.04 -0.34,-1.07 -0.96,-1.07 -0.36,0 -0.64,0.05 -0.64,0.13 0,0.07 0.49,1.56 1.09,3.29 z"
       id="e9LqHeiSPU" />
    <path
       d="m 41.65,42.57 c 0.13,0.57 0.37,1.21 0.54,1.45 0.68,0.89 2.6,1.13 3.81,0.51 0.77,-0.39 1.2,-1.47 1.2,-3.01 0,-1.39 -0.28,-2.15 -1.02,-2.82 -0.45,-0.4 -2.42,-0.61 -3.1,-0.3 -1.19,0.52 -1.81,2.35 -1.43,4.17 z m 3.76,1.13 c -0.49,0.49 -1.56,0.47 -2.03,-0.04 -0.75,-0.82 -0.75,-3.44 0.02,-4.25 0.56,-0.6 1.5,-0.58 1.99,0.04 0.74,0.94 0.76,3.52 0.02,4.25 z"
       id="b2g580pa22" />
  </defs>
  <use
     xlink:href="#d1Zr2uzxj6"
     opacity="1"
     fill="#009eff"
     fill-opacity="1"
     id="use17"
     x="0"
     y="0"
     width="100%"
     height="100%"
     transform="matrix(0.3737071,0,0,0.3737071,-0.74741433,3.3170244)" />
</svg>
