<?xml version="1.0" encoding="UTF-8" standalone="no"?>
<svg
	xmlns="http://www.w3.org/2000/svg"
	viewBox="0 0 20 20"
	width="20"
	height="20">
<g
	transform="matrix(0.33751169,0,0,0.33751169,-25.958696,1.1605337)">
	<path
		style="display:inline;fill:#f8af00;fill-opacity:1"
		d="m 120.93945,4.78125 c -1.9898,0.025293 -5.06179,0.8008594 -4.02929,4.3183594 2.27,7.6899996 -5.43946,16.9101566 -5.43946,16.9101566 l -0.0215,0.0098 c -2.86,3.66 1.62109,1.640391 6.62109,-1.099609 3.71,-2.03 6.48961,-4.72 8.09961,-7.5 7.27,-12.6100001 -1.94898,-12.3693751 -4.45898,-12.6093751 -0.225,-0.02125 -0.48723,-0.03291 -0.77149,-0.029297 z m 14.56836,16.242188 c -0.58115,-0.0034 -1.55508,0.832031 -3.01758,2.207031 -9.36,8.88 -17.41,7.909062 -20.25,7.289062 -2.83,-0.63 2.51954,3.881016 10.26954,4.541016 6.72,0.58 14.08062,-9.690547 13.64062,-13.060547 -0.0862,-0.67125 -0.29389,-0.974512 -0.64258,-0.976562 z m -26.60937,11.208984 c -0.23535,0.04639 -0.45899,0.417969 -0.45899,0.417969 -3.53,9.19 -7.8989,11.929843 -9.878903,12.839843 -1.97,0.9 -2.33086,1.850079 1.119141,2.080078 3.440002,0.22 14.819922,-2.520703 12.419922,-3.970703 -2.4,-1.46 -2.53055,-9.999218 -2.81055,-10.949218 -0.105,-0.35625 -0.24941,-0.445801 -0.39062,-0.417969 z" />
	<path
		style="display:inline;fill:#009ee2;fill-opacity:1"
		d="m 111.60938,5.6269531 c -1.5625,-0.0725 -3.22454,0.4333594 -4.26954,0.6933594 -2.09,0.52 -5.95046,3.2391406 -2.98046,5.6191405 6.35,5.06 4.23046,14.121094 4.23046,14.121094 h 0.0195 c -0.28001,2.48 1.94109,0.518672 3.87109,-3.611328 1.84,-3.93 4.41883,-8.868828 2.79883,-14.0488284 -0.645,-2.05 -2.10742,-2.7009375 -3.66992,-2.7734375 z m 20.37695,3.3125 c -0.95336,0.032373 -1.3786,1.7374999 -1.9961,3.8906249 -2.5,8.61 -8.81093,12.839688 -17.71093,15.929688 -3.17,1.1 7.04164,2.270312 14.68164,-2.679688 11.52,-7.48 7.88929,-15.510859 5.77929,-16.8808592 -0.285,-0.185625 -0.5339,-0.2672364 -0.7539,-0.2597657 z M 107.20898,31.029297 c -0.28375,0.015 -0.90437,0.466016 -1.85937,1.541015 -5.13,5.82 -13.860391,7.849063 -21.650391,7.789063 -12.31,-0.1 -6.469219,6.840547 6.300781,5.810547 12.77,-1.02 16.27078,-12.740313 17.05078,-14.070313 0.39,-0.665 0.44195,-1.085312 0.1582,-1.070312 z m 4.09766,1.304687 c -0.51871,0.07178 0.0332,3.066407 0.0332,3.066407 l 0.01,0.0098 c 0.36,2.66 1.08102,9.110391 5.29101,7.150391 4.45,-2.06 11.95852,-6.230391 7.97852,-5.650391 -5.74,0.83 -11.87953,-3.230156 -13.01953,-4.410156 -0.1225,-0.12625 -0.21887,-0.17627 -0.29297,-0.166016 z" />
	<path
		style="display:inline;fill:#ed7203;fill-opacity:1"
		d="m 120.93945,4.78125 c -1.9898,0.025293 -5.06179,0.8008594 -4.02929,4.3183594 0.24,0.83 0.38039,1.6905466 0.40039,2.5605466 3.33,1.87 5.68968,4.440625 6.67968,7.640625 0.09,0.26 0.15071,0.528828 0.22071,0.798828 0.73,-0.83 1.38898,-1.729687 1.95898,-2.679687 7.27,-12.6300001 -1.94898,-12.3593751 -4.45898,-12.6093751 -0.225,-0.02125 -0.48723,-0.03291 -0.77149,-0.029297 z m 14.56641,16.238281 c -0.5832,-0.0055 -1.55938,0.829688 -3.01563,2.210938 -3.5,3.32 -6.81,5.259375 -9.75,6.359375 -0.91,1.79 -2.03961,3.460234 -3.34961,4.990234 1.03001,0.23 2.06915,0.390469 3.11915,0.480469 6.72,0.58 14.06062,-9.710547 13.64062,-13.060547 -0.0862,-0.67125 -0.29461,-0.977187 -0.64453,-0.980469 z m -24.57617,21 c -3.33,2.21 -6.87961,4.080078 -10.59961,5.580078 4.03,-0.1 14.0393,-2.61875 11.7793,-3.96875 v -0.02148 c -0.55,-0.4 -0.95969,-0.959844 -1.17969,-1.589844 z" />
	<path
		style="display:inline;fill:#0061ac;fill-opacity:1"
		d="m 111.62305,5.6269531 c -1.56375,-0.0725 -3.22844,0.4333594 -4.27344,0.6933594 -1.19,0.34 -2.26867,0.9698437 -3.13867,1.8398437 4.3857,0.2997065 8.31126,1.2083146 11.51953,2.6757818 -0.0502,-0.828675 -0.20178,-1.6467796 -0.44141,-2.4355474 -0.64,-2.05 -2.10226,-2.7009375 -3.66601,-2.7734375 z m 4.10742,5.2089849 c 8e-5,0.0013 -8e-5,0.0026 0,0.0039 h 0.01 c -0.003,-0.0014 -0.007,-0.0025 -0.01,-0.0039 z m 16.25586,-1.8730474 c -0.95336,0.036753 -1.3786,1.7498434 -1.9961,3.8867184 -0.97,3.51 -2.86976,6.679453 -5.50976,9.189453 0.0968,1.983552 -0.24289,3.976366 -0.98047,5.820313 1.21,-0.48 2.37094,-1.069531 3.46094,-1.769531 11.54,-7.48 7.88929,-15.499141 5.77929,-16.8691409 -0.285,-0.185625 -0.5339,-0.2662939 -0.7539,-0.2578125 z M 118.0293,36.109375 c -1.67,1.72 -3.47969,3.301172 -5.42969,4.701172 0.76,1.64 1.98101,2.700234 4.04101,1.740234 4.42001,-2.06 11.95852,-6.23039 7.97852,-5.65039 -2.23,0.26 -4.48984,-0.01102 -6.58984,-0.791016 z" />
</g>
</svg>
