<?xml version="1.0" encoding="UTF-8" standalone="no"?>
<svg
	xmlns="http://www.w3.org/2000/svg"
	viewBox="0 0 20 20"
	width="20"
	height="20">
<g
	transform="matrix(0.57269355,0,0,0.57269355,-35.49147,-6.1013167)">
	<path style="fill:#c87f9f;opacity:1"
		d="m 68.61,11.16 21.26,1.39 0.44,6.86 h -21.7 z"/>
	<path style="fill:#c13d7a;opacity:1"
		d="m 70.03,29.82 c -0.34,0 -0.06,-13.53 0.38,-13.53 0.26,0 0.5,0.21 0.5,0.47 0,0.74 1.87,1.21 5.68,1.41 2.78,0.16 4.18,0.06 6.69,-0.47 3.75,-0.8 5.68,-1.57 5.68,-2.24 0,-0.27 0.24,-0.5 0.51,-0.5 0.43,0 0.63,13.04 0.83,13.04 0.5,0 -19.3,1.82 -20.27,1.82 z"/>
	<path style="fill:#271e22;opacity:1"
		d="m 75.36,36.81 c 0.66,-0.24 1.23,-0.47 1.23,-0.57 0,-0.07 -0.5,-0.33 -1.13,-0.6 -1.98,-0.84 -2.55,-2.28 -1.71,-4.35 0.27,-0.6 0.13,-0.6 -2.57,-0.4 -4.15,0.37 -3.95,0.87 -3.95,-10.16 0,-6.86 0.1,-9.03 0.43,-9.5 0.41,-0.54 0.94,-0.6 3.95,-0.57 5.95,0.1 18.63,0.97 19.36,1.37 0.64,0.34 0.67,0.64 0.67,8.16 0,7.26 -0.03,7.82 -0.64,8.36 -0.5,0.47 -2.04,0.7 -7.18,1.17 -6.09,0.57 -7.56,0.9 -7.56,1.74 0,0.7 1.8,1.34 5.52,1.97 2.2,0.37 4.61,1 5.38,1.37 2.54,1.21 3.34,3.48 2.21,6.09 -1.54,3.44 -6.29,5.21 -12.21,4.55 -6.55,-0.74 -7.82,-6.69 -1.8,-8.63 z m 10.56,4.41 c 0.9,-2.54 -0.3,-3.84 -4.14,-4.44 -2.78,-0.44 -4.65,0.1 -6.06,1.77 -0.73,0.87 -0.83,1.27 -0.7,2.37 0.44,3.18 4.95,4.38 8.93,2.41 1.2,-0.6 1.6,-1 1.97,-2.11 z m 0.87,-13.31 c 0.74,-0.06 1.54,-0.13 1.77,-0.13 0.34,-0.03 0.4,-1.64 0.34,-7.46 -0.01,-0.49 -0.04,-2.98 -0.1,-7.45 -4.82,-0.22 -7.49,-0.35 -8.03,-0.37 -4.41,-0.17 -8.32,-0.3 -8.69,-0.27 -0.37,0.04 -0.77,0.1 -0.9,0.1 -0.17,0.04 -0.27,3.71 -0.27,8.23 0,0.54 0,3.27 0,8.19 1.06,0 1.65,0 1.77,0 0.94,0 4.21,-0.17 7.26,-0.33 3.04,-0.2 6.12,-0.41 6.85,-0.51 z"/>
</g>
</svg>
