<?xml version="1.0" encoding="UTF-8" standalone="no"?>
<svg
   xmlns:dc="http://purl.org/dc/elements/1.1/"
   xmlns:cc="http://creativecommons.org/ns#"
   xmlns:rdf="http://www.w3.org/1999/02/22-rdf-syntax-ns#"
   xmlns:svg="http://www.w3.org/2000/svg"
   xmlns="http://www.w3.org/2000/svg"
   xmlns:xlink="http://www.w3.org/1999/xlink"
   xmlns:sodipodi="http://sodipodi.sourceforge.net/DTD/sodipodi-0.dtd"
   xmlns:inkscape="http://www.inkscape.org/namespaces/inkscape"
   version="1.1"
   preserveAspectRatio="xMidYMid meet"
   viewBox="0 0 20 20"
   width="20"
   height="20"
   id="svg199"
   sodipodi:docname="Skylink.svg"
   inkscape:version="1.0.2 (e86c870879, 2021-01-15, custom)">
  <metadata
     id="metadata203">
    <rdf:RDF>
      <cc:Work
         rdf:about="">
        <dc:format>image/svg+xml</dc:format>
        <dc:type
           rdf:resource="http://purl.org/dc/dcmitype/StillImage" />
        <dc:title></dc:title>
      </cc:Work>
    </rdf:RDF>
  </metadata>
  <sodipodi:namedview
     pagecolor="#ffffff"
     bordercolor="#666666"
     borderopacity="1"
     objecttolerance="10"
     gridtolerance="10"
     guidetolerance="10"
     inkscape:pageopacity="0"
     inkscape:pageshadow="2"
     inkscape:window-width="1920"
     inkscape:window-height="1001"
     id="namedview201"
     showgrid="false"
     inkscape:zoom="45.254834"
     inkscape:cx="13.676937"
     inkscape:cy="7.4921511"
     inkscape:window-x="-9"
     inkscape:window-y="-9"
     inkscape:window-maximized="1"
     inkscape:current-layer="svg199"
     inkscape:document-rotation="0" />
  <defs
     id="defs73">
    <path
       d="m 37.63,37.17 c 0.91,-2.49 1.41,-3.87 1.51,-4.15 2.08,0.9 3.62,1.36 5.03,1.36 1.46,0 2.15,-0.52 2.15,-1.31 0,-1.08 -1.02,-1.38 -2.72,-1.92 -3.17,-1 -5.35,-2.23 -5.35,-5.82 0,-3.69 2.3,-5.59 6.64,-5.59 2.2,0 4.23,0.46 5.94,1.36 -0.2,0.38 -1.82,3.39 -2.02,3.77 -1.72,-0.75 -2.77,-1.03 -4,-1.03 -1.26,0 -1.95,0.44 -1.95,1.13 0,0.97 0.59,1.26 3.31,2.26 3.15,1.12 5.07,2.64 5.07,5.64 0,3.84 -2.54,5.79 -7.15,5.79 -2.33,0 -4.38,-0.49 -6.46,-1.49"
       id="h3wdrLGuct" />
    <path
       d="m 64.31,38.3 -6.07,-8.05 c 0,3.48 0,5.41 0,5.79 0,1.54 -0.72,2.26 -2.26,2.26 -0.17,0 -1.04,0 -2.61,0 V 20.1 h 4.87 v 7.87 c 2.57,-3.61 4,-5.62 4.28,-6.02 0.9,-1.26 2.03,-1.85 3.56,-1.85 0.25,0 1.47,0 3.67,0 l -6.92,8.72 7.3,9.48 z"
       id="c1mpD23zcC" />
    <path
       d="m 88.41,20.1 -6.56,11.48 v 6.72 h -4.82 v -6.92 l 2.02,-3.82 c -1.34,0 -2.08,0 -2.23,0 -1.53,0 -2.61,-0.62 -3.38,-1.95 -0.21,-0.37 -1.26,-2.2 -3.15,-5.51 h 5.64 L 79.41,26.87 83,20.1 Z"
       id="a8szoZgbuu" />
    <path
       d="M 102.71,34.02 V 38.3 H 89.84 V 20.1 c 1.57,0 2.44,0 2.62,0 1.54,0 2.25,0.72 2.25,2.26 0,0.77 0,4.66 0,11.66 z"
       id="b11YM3sN8X" />
    <path
       d="m 104.53,22.36 c 0,-1.54 0.72,-2.26 2.26,-2.26 0.17,0 1.04,0 2.61,0 v 18.2 h -4.87 c 0,-8.5 0,-13.82 0,-15.94 z"
       id="atr4XucXa" />
    <path
       d="m 128.55,20.1 v 18.2 h -4.72 L 116.58,27.66 V 38.3 h -4.51 V 20.1 h 4.66 l 7.33,10.74 c 0,-5.06 0,-7.87 0,-8.43 0,-1.54 0.72,-2.26 2.26,-2.28 0.29,-0.01 1.04,-0.02 2.23,-0.03 z"
       id="c3EF3PyBcX" />
    <path
       d="m 142.18,38.3 -6.07,-8.05 c 0,3.48 0,5.41 0,5.79 0,1.54 -0.72,2.26 -2.26,2.26 -0.17,0 -1.04,0 -2.61,0 V 20.1 h 4.87 v 7.87 c 2.57,-3.61 3.99,-5.62 4.28,-6.02 0.9,-1.26 2.02,-1.85 3.56,-1.85 0.25,0 1.47,0 3.67,0 l -6.92,8.72 7.3,9.48 z"
       id="a3wNPn77rg" />
    <path
       d="m 6.56,33.76 c -2.34,2.33 -3.63,3.63 -3.89,3.89 0.41,0.41 0.98,0.66 1.61,0.66 0,0 0,0 0,0 h 15.93 l 4.56,-4.55 z"
       id="c2VogEx0nT" />
    <linearGradient
       id="gradientb8ArNYeln1"
       gradientUnits="userSpaceOnUse"
       x1="2.8800001"
       y1="36.040001"
       x2="24.73"
       y2="36.040001">
      <stop
         style="stop-color: #ed192e;stop-opacity: 1"
         offset="0%"
         id="stop10" />
      <stop
         style="stop-color: #ed192e;stop-opacity: 1"
         offset="0.255346%"
         id="stop12" />
      <stop
         style="stop-color: #f25a2d;stop-opacity: 1"
         offset="100%"
         id="stop14" />
    </linearGradient>
    <path
       d="m 2,36.04 c 0,0.63 0.26,1.2 0.67,1.61 0,0 0,0 0,0 L 6.56,33.76 11.11,29.21 2,20.1 c 0,8.5 0,13.81 0,15.94 z"
       id="a5MZ26KFG" />
    <linearGradient
       id="gradientb8eyeV5kp"
       gradientUnits="userSpaceOnUse"
       x1="6.5599999"
       y1="19.639999"
       x2="6.5599999"
       y2="38.580002">
      <stop
         style="stop-color: #d71d24;stop-opacity: 1"
         offset="0%"
         id="stop18" />
      <stop
         style="stop-color: #d71d24;stop-opacity: 1"
         offset="0.255346%"
         id="stop20" />
      <stop
         style="stop-color: #ed192e;stop-opacity: 1"
         offset="100%"
         id="stop22" />
    </linearGradient>
    <path
       d="m 11.11,29.21 -4.55,4.55 h 18.21 l 4.55,-4.55 z"
       id="b10F9i8JYg" />
    <linearGradient
       id="gradientc2Q8PzhIM"
       gradientUnits="userSpaceOnUse"
       x1="6.52"
       y1="31.48"
       x2="29.15"
       y2="31.48">
      <stop
         style="stop-color: #d71d24;stop-opacity: 1"
         offset="0%"
         id="stop26" />
      <stop
         style="stop-color: #d71d24;stop-opacity: 1"
         offset="0.255346%"
         id="stop28" />
      <stop
         style="stop-color: #ed192e;stop-opacity: 1"
         offset="100%"
         id="stop30" />
    </linearGradient>
    <path
       d="m 2,20.1 9.11,9.11 V 20.1 Z"
       id="bgL2kv8uX" />
    <linearGradient
       id="gradientc1WPzTJ5F2"
       gradientUnits="userSpaceOnUse"
       x1="1.9299999"
       y1="24.66"
       x2="10.98"
       y2="24.66">
      <stop
         style="stop-color: #ed192e;stop-opacity: 1"
         offset="0%"
         id="stop34" />
      <stop
         style="stop-color: #ed192e;stop-opacity: 1"
         offset="0.255346%"
         id="stop36" />
      <stop
         style="stop-color: #f25a2d;stop-opacity: 1"
         offset="100%"
         id="stop38" />
    </linearGradient>
    <path
       d="M 2,20.1 H 20.21 L 11.11,11 Z"
       id="d5xZf3I9BG" />
    <linearGradient
       id="gradientbTWfWMWhi"
       gradientUnits="userSpaceOnUse"
       x1="1.76"
       y1="15.55"
       x2="20.190001"
       y2="15.55">
      <stop
         style="stop-color: #d71d24;stop-opacity: 1"
         offset="0%"
         id="stop42" />
      <stop
         style="stop-color: #d71d24;stop-opacity: 1"
         offset="0.255346%"
         id="stop44" />
      <stop
         style="stop-color: #ed192e;stop-opacity: 1"
         offset="100%"
         id="stop46" />
    </linearGradient>
    <path
       d="m 11.11,11 9.1,9.1 c 5.07,-5.06 7.88,-7.87 8.44,-8.43 C 28.24,11.25 27.67,11 27.04,11 c 0,0 0,0 0,0 z"
       id="djmfpLeOh" />
    <linearGradient
       id="gradientaaEcoLpg2"
       gradientUnits="userSpaceOnUse"
       x1="11.23"
       y1="15.55"
       x2="28.48"
       y2="15.55"
       xlink:href="#gradientg8DACZ4hz">
      <stop
         style="stop-color: #ed192e;stop-opacity: 1"
         offset="0%"
         id="stop50" />
      <stop
         style="stop-color: #ed192e;stop-opacity: 1"
         offset="0.255346%"
         id="stop52" />
      <stop
         style="stop-color: #f25a2d;stop-opacity: 1"
         offset="100%"
         id="stop54" />
    </linearGradient>
    <path
       d="m 20.21,29.21 h 9.11 V 20.1 Z"
       id="a4dGwDwW72" />
    <linearGradient
       id="gradienta3PkowRLuZ"
       gradientUnits="userSpaceOnUse"
       x1="29.6"
       y1="24.66"
       x2="20.110001"
       y2="24.66"
       xlink:href="#gradientbTWfWMWhi">
      <stop
         style="stop-color: #ed192e;stop-opacity: 1"
         offset="0%"
         id="stop58" />
      <stop
         style="stop-color: #ed192e;stop-opacity: 1"
         offset="0.255346%"
         id="stop60" />
      <stop
         style="stop-color: #f25a2d;stop-opacity: 1"
         offset="100%"
         id="stop62" />
    </linearGradient>
    <path
       d="m 20.21,20.1 v 9.11 l 9.11,-9.11 c 0,-4.09 0,-6.37 0,-6.83 0,-0.62 -0.26,-1.19 -0.67,-1.6 0,0 0,0 0,0 z"
       id="akrps80CW" />
    <linearGradient
       id="gradientg8DACZ4hz"
       gradientUnits="userSpaceOnUse"
       x1="29.26"
       y1="20.440001"
       x2="20.190001"
       y2="20.440001">
      <stop
         style="stop-color: #d71d24;stop-opacity: 1"
         offset="0%"
         id="stop66" />
      <stop
         style="stop-color: #d71d24;stop-opacity: 1"
         offset="0.255346%"
         id="stop68" />
      <stop
         style="stop-color: #ed192e;stop-opacity: 1"
         offset="100%"
         id="stop70" />
    </linearGradient>
  </defs>
  <g
     id="g197"
     transform="matrix(0.73206442,0,0,0.73206442,-1.4641288,-8.0344065)">
    <g
       id="g195">
      <use
         xlink:href="#c2VogEx0nT"
         opacity="1"
         fill="url(#gradientb8ArNYeln1)"
         id="use131"
         x="0"
         y="0"
         width="100%"
         height="100%"
         style="fill:url(#gradientb8ArNYeln1)" />
      <use
         xlink:href="#a5MZ26KFG"
         opacity="1"
         fill="url(#gradientb8eyeV5kp)"
         id="use139"
         x="0"
         y="0"
         width="100%"
         height="100%"
         style="fill:url(#gradientb8eyeV5kp)" />
      <use
         xlink:href="#b10F9i8JYg"
         opacity="1"
         fill="url(#gradientc2Q8PzhIM)"
         id="use147"
         x="0"
         y="0"
         width="100%"
         height="100%"
         style="fill:url(#gradientc2Q8PzhIM)" />
      <use
         xlink:href="#bgL2kv8uX"
         opacity="1"
         fill="url(#gradientc1WPzTJ5F2)"
         id="use155"
         x="0"
         y="0"
         width="100%"
         height="100%"
         style="fill:url(#gradientc1WPzTJ5F2)" />
      <use
         xlink:href="#d5xZf3I9BG"
         opacity="1"
         fill="url(#gradientbTWfWMWhi)"
         id="use163"
         x="0"
         y="0"
         width="100%"
         height="100%"
         style="fill:url(#gradientbTWfWMWhi)" />
      <use
         xlink:href="#djmfpLeOh"
         opacity="1"
         fill="url(#gradientaaEcoLpg2)"
         id="use171"
         x="0"
         y="0"
         width="100%"
         height="100%"
         style="fill:url(#gradientaaEcoLpg2);fill-opacity:1" />
      <use
         xlink:href="#a4dGwDwW72"
         opacity="1"
         fill="url(#gradienta3PkowRLuZ)"
         id="use179"
         x="0"
         y="0"
         width="100%"
         height="100%"
         style="fill:url(#gradienta3PkowRLuZ);fill-opacity:1" />
      <use
         xlink:href="#akrps80CW"
         opacity="1"
         fill="url(#gradientg8DACZ4hz)"
         id="use187"
         x="0"
         y="0"
         width="100%"
         height="100%"
         style="display:inline;fill:url(#gradientg8DACZ4hz)" />
    </g>
  </g>
</svg>
