<?xml version="1.0" encoding="UTF-8" standalone="no"?>
<svg
   xmlns:dc="http://purl.org/dc/elements/1.1/"
   xmlns:cc="http://creativecommons.org/ns#"
   xmlns:rdf="http://www.w3.org/1999/02/22-rdf-syntax-ns#"
   xmlns:svg="http://www.w3.org/2000/svg"
   xmlns="http://www.w3.org/2000/svg"
   xmlns:xlink="http://www.w3.org/1999/xlink"
   xmlns:sodipodi="http://sodipodi.sourceforge.net/DTD/sodipodi-0.dtd"
   xmlns:inkscape="http://www.inkscape.org/namespaces/inkscape"
   version="1.1"
   preserveAspectRatio="xMidYMid meet"
   viewBox="0 0 20 20"
   width="20"
   height="20"
   id="svg53"
   sodipodi:docname="Telly.svg"
   inkscape:version="1.0.2 (e86c870879, 2021-01-15, custom)">
  <metadata
     id="metadata57">
    <rdf:RDF>
      <cc:Work
         rdf:about="">
        <dc:format>image/svg+xml</dc:format>
        <dc:type
           rdf:resource="http://purl.org/dc/dcmitype/StillImage" />
        <dc:title></dc:title>
      </cc:Work>
    </rdf:RDF>
  </metadata>
  <sodipodi:namedview
     pagecolor="#ffffff"
     bordercolor="#666666"
     borderopacity="1"
     objecttolerance="10"
     gridtolerance="10"
     guidetolerance="10"
     inkscape:pageopacity="0"
     inkscape:pageshadow="2"
     inkscape:window-width="1920"
     inkscape:window-height="1001"
     id="namedview55"
     showgrid="false"
     inkscape:zoom="10.986667"
     inkscape:cx="31.765778"
     inkscape:cy="20.631069"
     inkscape:window-x="-9"
     inkscape:window-y="-9"
     inkscape:window-maximized="1"
     inkscape:current-layer="svg53"
     inkscape:document-rotation="0" />
  <defs
     id="defs7">
    <path
       d="m 111.74,11.49 h 9.1 L 104.87,48 h -9.09 z"
       id="a1BKMat0PR" />
    <path
       d="M 99.78,36.85 V 2 h -8.69 v 34.85 z"
       id="cF8vP4h2R" />
    <path
       d="M 46.21,36.91 V 9.53 h 9.43 V 2 H 28 v 7.53 h 9.5 v 27.38 z"
       id="aOzudfO5s" />
    <path
       d="M 86.87,36.85 V 2 h -8.68 v 34.85 z"
       id="c1F7MNYwQs" />
    <path
       d="m 62.18,10.67 c -7.73,0 -13.34,5.59 -13.34,13.28 0,7.79 5.63,13.23 13.69,13.23 3.26,0 5.73,-0.65 8.02,-2.11 2.36,-1.5 4.03,-3.55 4.65,-5.65 -0.87,0 -7.79,0 -8.66,0 -0.76,1.24 -2.03,1.9 -3.7,1.9 -2.85,0 -4.67,-1.72 -5.28,-4.97 0,-0.02 -0.02,-0.13 -0.05,-0.32 10.96,0 17.06,0 18.27,0 0.05,-5.09 -1.5,-9.34 -4.37,-11.98 -2.45,-2.24 -5.56,-3.38 -9.23,-3.38 m -4.67,10.9 c 0.03,-0.19 0.05,-0.29 0.05,-0.31 0.56,-3.13 2.23,-4.78 4.82,-4.78 2.42,0 4.11,1.79 4.53,4.79 0,0.04 0.02,0.14 0.04,0.3 -1.89,0 -8.5,0 -9.44,0 z"
       id="dg5BvV61h" />
  </defs>
  <use
     xlink:href="#aOzudfO5s"
     opacity="1"
     fill="#244a9a"
     fill-opacity="1"
     id="use25"
     x="0"
     y="0"
     width="100%"
     height="100%"
     transform="matrix(0.57290175,0,0,0.57290175,-13.958751,-1.1458035)" />
</svg>
