<svg
  xmlns="http://www.w3.org/2000/svg"
  viewBox="0 0 1183.66 665">
<g opacity="1" fill="#000000" fill-opacity="1">
  <path d="M147.91 276.29C154.5 276.29 207.23 276.29 213.82 276.29C216.07 258.67 232.47 238.42 274.95 238.42C318.19 238.42 335.12 265.6 335.12 299.97C331.9 299.97 306.19 299.97 302.98 299.97C195.61 299.97 135.04 329.73 135.04 395.78C135.04 442.95 181.49 484.95 241.84 484.95C279.85 484.95 320.83 466.85 334.93 455.35C334.99 456.81 335.32 464.14 335.9 477.34L399.76 477.34C399.76 379.91 399.76 325.78 399.76 314.95C399.76 233.19 367.11 182.66 272.71 182.66C177.19 182.66 147.91 242.94 147.91 276.29ZM333.96 351.44C333.96 361.19 333.96 366.61 333.96 367.69C333.96 401.59 302.74 426.71 255.26 426.71C226.27 426.71 203.97 418.1 203.97 397.72C203.97 369.66 224.1 351.44 312.64 351.44C315.49 351.44 322.59 351.44 333.96 351.44Z"/>
  <path d="M437.21 477.31L437.21 188.83L540.28 188.83L593.6 398.39L646.98 188.83L749.96 188.83L749.96 477.31L682.74 477.31L682.74 269.52L624.09 477.31L562.19 477.31L504.05 269.96L504.05 477.31L437.21 477.31Z"/>
  <path d="M1055.69 369.09C1045.97 423.63 997.09 485.08 920.22 485.08C823.38 485.08 780.83 400.34 780.83 334.57C780.83 245.43 836.53 182.86 919.71 182.86C992.78 182.86 1044.09 236.47 1054.83 298.5C1048.39 298.5 996.87 298.5 990.43 298.5C982.92 274.63 959.83 242.4 919.71 242.4C874.51 242.4 843.7 287.9 843.7 333.19C843.7 387.59 880.37 425.19 919.54 425.19C955.34 425.19 981.54 397.14 990.09 369.09C1003.21 369.09 1049.13 369.09 1055.69 369.09Z"/>
  <path d="M0.17 0L0.17 5.01L0.17 665L1183.83 665L1183.83 0L0.17 0ZM10.19 10.02L1173.81 10.02L1173.81 654.98L10.19 654.98L10.19 10.02Z"/>
</g>
</svg>
