<svg
  xmlns="http://www.w3.org/2000/svg"
  viewBox="0 0 920.68 305">
<g>
  <path opacity="1" fill="#0f4ebd" fill-opacity="1"
    d="M799.82 226.45C800.66 223.86 803.19 215.45 805.45 207.75C807.71 200.05 809.88 192.85 810.27 191.75C810.66 190.65 812.83 183.45 815.1 175.75C817.36 168.05 819.88 159.59 820.7 156.95C821.51 154.31 824.33 144.95 826.97 136.15C829.61 127.35 833.93 112.95 836.58 104.15C843.69 80.51 845.68 73.28 845.18 72.79C844.94 72.54 838.16 75.96 830.11 80.37C810.55 91.09 802.31 95.25 801.74 94.67C801.12 94.06 815.84 44.44 817 43.22C817.48 42.71 835.26 32.9 856.51 21.42C859.08 20.03 871.96 13.07 895.14 0.55C902.8 0.55 907.06 0.55 907.91 0.55C914.93 0.55 920.68 0.83 920.68 1.17C920.68 1.69 917.61 12.34 912.33 30.15C910.84 35.16 896.9 81.73 886.71 115.75C877.24 147.34 874.06 157.86 871.84 164.95C871.02 167.59 866.33 183.25 861.43 199.75C856.53 216.25 852.18 230.38 851.77 231.15C851.08 232.44 848.97 232.55 825.1 232.55C810.84 232.55 798.98 232.23 798.74 231.85C798.51 231.47 798.99 229.04 799.82 226.45ZM199.54 60.76C198.79 58.58 198.28 54.37 198.28 50.49C198.28 29.84 213.63 9.2 234.28 2.1C238.26 0.73 241.26 0.32 247.08 0.33C255.7 0.35 260.16 1.63 264.93 5.46C266.61 6.81 268.09 7.78 268.22 7.63C268.35 7.47 268.81 6.27 269.23 4.95C269.29 4.79 269.54 3.99 270.01 2.55C277.53 2.42 281.71 2.34 282.54 2.33C289.44 2.21 295.07 2.39 295.06 2.73C295.02 3.9 292.01 14.58 287.88 28.15C285.61 35.63 281.59 48.94 278.95 57.74C276.32 66.53 273.74 74 273.22 74.32C272.06 75.06 255.46 75.14 251.9 74.43C249.47 73.95 249.35 73.75 249.62 70.86C249.9 67.91 249.85 67.84 248.3 68.97C244.9 71.44 238.93 74.21 234.52 75.36C229.77 76.59 220.45 76.82 216.28 75.8C209.12 74.05 201.84 67.51 199.54 60.76ZM260.68 33.29C260.68 17.44 236.37 18.88 228.38 35.2C225.63 40.83 225.47 47.31 228.01 50.53C231.61 55.12 238.27 56.12 245.95 53.25C253.76 50.33 260.68 40.96 260.68 33.29ZM366.38 60.55C364.53 56.68 364.28 55.18 364.32 48.15C364.35 41.3 364.67 39.4 366.54 34.95C375.93 12.57 400.96 -2.76 422.84 0.46C439.02 2.84 447.17 12.42 446.03 27.71C445.79 31.03 445.01 35.64 444.3 37.95C444.21 38.23 443.79 39.63 443.02 42.15C427.49 42.15 418.86 42.15 417.13 42.15C388.47 42.15 390.28 41.79 390.28 47.49C390.28 51.22 394.32 55.38 398.73 56.21C404.15 57.23 411.27 55.49 416.8 51.79C417.13 51.57 418.78 50.47 421.75 48.49C425.63 50.72 427.78 51.96 428.21 52.21C438.06 57.87 437.92 57.5 432.18 62.81C427.11 67.52 418.73 72.17 411.08 74.54C404.75 76.5 388.7 76.93 383.58 75.29C375.77 72.79 369.75 67.63 366.38 60.55ZM422.28 24.92C422.28 20.95 420.29 18.32 416.5 17.3C412.38 16.19 407.58 16.98 403.23 19.49C399.84 21.44 396.37 25.8 397.17 27.09C397.39 27.45 403.13 27.75 409.92 27.75C410.75 27.75 414.87 27.75 422.28 27.75C422.28 26.24 422.28 25.3 422.28 24.92ZM543.04 63.65C539.7 57.17 539.52 45.5 542.63 36.68C547.26 23.56 558.36 10.59 569.69 5.06C583.86 -1.84 597.98 -1.68 607.23 5.52C610.09 7.74 610.21 7.76 611.03 6.23C611.5 5.36 611.88 4.08 611.88 3.38C611.88 2.26 613.4 2.13 624.48 2.33C625.32 2.34 629.52 2.42 637.08 2.55C636.91 3.75 636.82 4.42 636.81 4.55C636.55 6.44 634.88 12.19 625.35 44.15C617.43 70.7 616.44 73.76 615.56 74.34C614.49 75.05 597.07 75.15 593.64 74.46C591.37 74.01 591.24 73.78 591.65 71.21C591.68 71.03 591.83 70.11 592.1 68.45C588.79 70.15 586.96 71.09 586.59 71.28C575.57 76.92 564.2 78.12 555.55 74.57C550.3 72.41 545.32 68.06 543.04 63.65ZM602.75 35.1C603.47 30.56 600.97 25.25 597.26 23.49C585.4 17.86 568.64 29.74 568.43 43.92C568.36 48.44 570.2 51.44 574.33 53.55C577.7 55.27 581.52 55.32 586.85 53.74C594.46 51.48 601.43 43.3 602.75 35.1ZM290.28 72.89C290.28 71.92 300.1 38.6 308.83 9.95C308.98 9.43 309.78 6.83 311.2 2.15L323.61 2.15L336.03 2.15L335.46 6.25L334.9 10.35C336.99 8.91 338.16 8.12 338.39 7.96C347.85 1.47 355.89 -0.92 363.51 0.49C368.22 1.36 373.48 3.51 373.48 4.56C373.48 5.5 361.95 20.6 359.3 23.14C359.15 23.28 358.39 24.01 357.02 25.32C354.51 24.37 353.12 23.84 352.84 23.74C340.64 19.1 329.27 26.03 325.19 40.57C322.32 50.84 316.5 69.83 315.47 72.29C315.4 72.46 315.03 73.35 314.36 74.95C308.21 74.88 304.8 74.85 304.12 74.84C298.49 74.78 293.07 74.57 292.08 74.38C291.09 74.19 290.28 73.52 290.28 72.89ZM444.68 73.62C444.68 73.01 446.7 66.01 451.23 50.95C457.22 31.04 461.42 16.93 463.67 9.15C463.81 8.68 464.49 6.35 465.7 2.15L478.08 2.15L490.45 2.15C490.26 3.83 490.15 4.76 490.13 4.95C489.95 6.49 489.91 7.75 490.06 7.75C490.2 7.75 493.11 6.34 496.53 4.62C504.75 0.49 510.74 -0.68 517.96 0.44C529.58 2.25 536.59 8.22 537.31 16.94C537.67 21.31 536.42 29.92 535.06 32.46C534.68 33.17 531.78 42.57 528.61 53.35C525.45 64.13 522.51 73.4 522.07 73.95C521.52 74.65 518.45 74.95 511.88 74.95C501.5 74.95 497.48 74.42 497.48 73.04C497.48 72.54 500.17 63.13 503.47 52.14C506.76 41.14 509.46 30.65 509.47 28.81C509.47 26.41 508.92 24.81 507.48 23.1C503.25 18.07 494.82 19.45 487.45 26.38C487.15 26.66 485.68 28.05 483.01 30.55C480 40.39 478.33 45.86 477.99 46.95C475.23 55.97 472.29 65.76 471.45 68.7C470.32 72.66 469.5 74.17 468.3 74.49C466.44 74.99 449.19 74.91 446.48 74.38C445.49 74.19 444.68 73.85 444.68 73.62Z"/>
  <path opacity="1" fill="#030303" fill-opacity="1"
    d="M135.05 258.55C136.76 252.83 140.85 239.15 144.14 228.15C151.71 202.8 155.03 191.77 164.45 160.55C168.64 146.69 173.07 131.93 174.3 127.75C175.53 123.57 178.65 113.13 181.23 104.55C181.54 103.51 183.11 98.31 185.93 88.95C200.73 88.82 208.95 88.75 210.59 88.74C233.88 88.54 235.23 88.6 234.72 89.94C234.42 90.71 233.5 93.77 232.68 96.74C231.86 99.7 230.96 102.49 230.68 102.94C229.63 104.65 231.99 103.61 236.84 100.25C252.24 89.57 267.62 84.43 284.28 84.41C301.26 84.39 312.94 88.66 322.77 98.47C338.27 113.95 341.32 137.83 331.34 165.59C321.52 192.93 298.69 217.7 273.26 228.6C260.38 234.13 251.29 236.02 237.88 235.94C222.02 235.85 209.48 231.4 200.83 222.8C198.01 219.99 196.6 219.06 196.34 219.83C196.13 220.44 193.8 228.15 191.15 236.95C188.51 245.75 184.49 259.07 182.23 266.55C179.96 274.03 176.56 285.43 174.67 291.9C172.78 298.36 171 304.03 170.71 304.5C170.07 305.53 122.59 305.71 121.96 304.68C121.59 304.09 124.62 293.4 135.05 258.55ZM280.65 140.25C277.29 131.28 268.97 126.53 256.68 126.58C237.64 126.66 220.08 139.69 213.71 158.46C208.03 175.24 214.42 189.57 229.26 193.33C233.74 194.46 244.41 193.66 249.82 191.78C272.09 184.05 287.44 158.4 280.65 140.25ZM15.48 228.75C6.24 224.09 -2.12 216.76 0.48 215.62C0.82 215.47 7.36 208.33 15.02 199.75C22.69 191.17 29.25 184.03 29.61 183.88C29.98 183.74 32.34 185.47 34.88 187.74C44.17 196.07 54.37 200.22 63.88 199.55C72.79 198.93 78.46 194.6 79.6 187.54C80.31 183.14 77.42 180.59 66.08 175.63C49.25 168.27 40.34 161.24 36.1 151.99C29.86 138.35 38.31 115.46 54.4 102.44C74.47 86.19 106.64 80.13 136.08 87.04C145.62 89.28 156.84 93.93 156.52 95.51C156.13 97.37 132.39 126.88 131.25 126.92C130.68 126.93 128.7 126.18 126.86 125.24C116.34 119.87 100.7 117.39 92.27 119.75C85.02 121.78 81.25 129.88 85.68 133.91C88.19 136.2 89.52 136.81 101.18 141.01C114 145.63 119.28 148.39 124.94 153.43C133.67 161.21 136.23 171.66 132.78 185.33C128.24 203.29 116.63 217.79 100.28 225.93C88.55 231.78 78.31 234.38 61.84 235.72C50.45 236.65 47.71 236.64 39.08 235.66C32.19 234.88 21.3 231.7 15.48 228.75ZM343.36 196.91C341.03 189.26 341.42 173.64 344.2 163.35C353.07 130.52 381.13 102.45 416.96 90.55C438.21 83.49 459.57 82.25 477.91 86.99C497.25 91.98 511.47 103.59 517.57 119.34C522.73 132.67 522.45 146.56 516.68 163.61C503.53 202.48 464.54 231.5 419.83 235.69C409.78 236.63 407.34 236.63 397.88 235.7C369.3 232.92 350.2 219.33 343.36 196.91ZM465.92 156.89C468.13 146.93 466.44 139.65 460.52 133.6C451.98 124.87 437.37 123.93 422.8 131.16C414.29 135.38 404.72 144.78 400.83 152.72C394.53 165.61 394.63 178.34 401.08 186.01C406.97 193 418.93 195.76 430.99 192.92C447.95 188.92 462.02 174.4 465.92 156.89ZM679.08 194.82C679.65 191.15 684.2 174.5 689.19 157.82C694.19 141.13 698.28 127.18 698.28 126.82C698.28 126.45 693.78 126.15 688.28 126.15C681.89 126.15 678.28 125.85 678.28 125.32C678.28 124.86 680.05 118.65 682.21 111.52C684.38 104.38 686.77 96.3 687.52 93.55C687.61 93.22 688.07 91.55 688.89 88.55C695.05 88.55 698.47 88.55 699.15 88.55C711.11 88.55 709.78 89.6 713.33 77.35C714.67 72.73 718.05 61.39 720.84 52.15C721.18 51.03 722.88 45.43 725.92 35.35C740.67 35.22 748.86 35.15 750.5 35.14C768.13 34.99 775.08 35.18 775.08 35.82C775.08 36.3 773.61 41.62 771.82 47.63C770.03 53.63 767.16 63.23 765.46 68.95C763.76 74.67 761.82 81.12 761.16 83.29C760.49 85.45 760.14 87.52 760.36 87.89C760.59 88.25 767.23 88.55 775.12 88.55C790.6 88.55 790.14 88.4 788.75 92.95C788.34 94.27 786.03 101.9 783.61 109.92C781.19 117.93 778.98 124.86 778.7 125.32C778.37 125.84 772.78 126.15 763.48 126.15C755.27 126.15 748.57 126.48 748.31 126.89C748.06 127.3 744.44 139.02 740.26 152.93C731.64 181.67 730.98 186.12 734.75 189.89C736.62 191.76 737.25 191.92 741.4 191.54C743.93 191.31 747.53 190.34 749.41 189.38C751.29 188.42 752.93 187.75 753.06 187.89C753.57 188.47 754.02 226.07 753.52 226.88C751.97 229.38 733.82 234.59 722.49 235.78C714.45 236.63 712.51 236.61 705.88 235.67C685.04 232.69 675.5 218.16 679.08 194.82ZM554.28 115.35C556.42 108.31 559.1 99.4 560.25 95.55C560.39 95.08 561.08 92.75 562.33 88.55C577.24 88.55 585.53 88.55 587.19 88.55C608.4 88.55 611.98 88.72 611.61 89.69C610.35 92.99 606.16 107.89 606.42 108.16C606.59 108.33 608.88 106.62 611.5 104.37C617.63 99.12 628.13 92.26 634.05 89.64C650.26 82.45 668.56 82.58 681.82 89.95C683.99 91.16 685.88 92.51 686.02 92.96C686.23 93.6 658.53 129.22 654.78 133.15C654.02 133.94 652.68 133.58 648.25 131.37C633.01 123.78 615.71 126.52 603.6 138.45C595.4 146.54 591.06 155.43 586.2 174.15C585.8 175.69 581.78 189.19 577.26 204.15C576.71 205.96 573.97 215.03 569.04 231.35C554.29 231.48 546.1 231.55 544.46 231.56C526.15 231.72 519.88 231.53 519.88 230.84C519.88 230.05 541.81 156.43 554.28 115.35Z"/>
</g>
</svg>
