<svg
	xmlns="http://www.w3.org/2000/svg"
	viewBox="0 0 512 162">
<g fill="#040606">
	<path d="m80.4,57.7c-12.5,0 -22.7,10.2 -22.7,22.7c0,12.5 10.2,22.7 22.7,22.7c5.8,0 11.1,-2.2 15.1,-5.8l0,2.9l7.8,0l0,-38.7l-7.8,0l0,1.9c-4,-3.5 -9.3,-5.7 -15.1,-5.7l0,0zm0,7.8c8.3,0 14.9,6.6 14.9,14.9c0,8.3 -6.6,14.9 -14.9,14.9s-14.9,-6.6 -14.9,-14.9c0,-8.2 6.6,-14.9 14.9,-14.9z"/>
	<path d="m265.6,106.6c-10.1,0 -20.1,-1 -20.1,-17.3l0,-34.6l7.7,0l0,8.6l12.4,0l0,7.8l-12.4,0l0,18.7c0.1,10.3 5.5,9 12.4,9.1l0,7.7z"/>
	<path d="m410.1,64l8.7,0l11.7,23.1l11.7,-23.1l8.9,0l-20.6,40l-20.4,-40z"/>
	<path d="m81,0c-44.7,0 -81,36.3 -81,81s36.3,81 81,81s81,-36.3 81,-81s-36.3,-81 -81,-81l0,0zm0,7.6c40.6,0 73.4,32.8 73.4,73.4c0,40.6 -32.8,73.4 -73.4,73.4s-73.4,-32.8 -73.4,-73.4s32.8,-73.4 73.4,-73.4z"/>
	<path d="m256.2,0c-44.7,0 -81,36.3 -81,81s36.3,81 81,81s81,-36.3 81,-81s-36.3,-81 -81,-81l0,0zm0,7.6c40.6,0 73.4,32.8 73.4,73.4s-32.8,73.5 -73.4,73.5c-40.6,0 -73.4,-32.8 -73.4,-73.4s32.8,-73.5 73.4,-73.5l0,0z"/>
	<path d="m430.9,0c-44.7,0 -81,36.3 -81,81s36.3,81 81,81s81,-36.3 81,-81s-36.3,-81 -81,-81l0,0zm0,7.6c40.6,0 73.4,32.8 73.4,73.4s-32.8,73.5 -73.4,73.5c-40.6,0 -73.4,-32.8 -73.4,-73.4s32.8,-73.5 73.4,-73.5z"/>
</g>
</svg>
