<svg
  xmlns="http://www.w3.org/2000/svg"
  viewBox="0 0 1000 245.88103">
<g fill="#e2001a">
  <path d="M1000,245.881H0V0H1000ZM9.093,236.788H990.907V9.093H9.093Z"/>
  <path d="M580.091,147.86581c-3.05013,3.73313-9.58958,9.3326-20.99235,9.3326-6.53493,0-12.34732-1.7113-17.35706-6.3-8.57218-7.701-9.22592-18.6693-9.22592-22.55747a32.90535,32.90535,0,0,1,5.30235-18.35672,24.3449,24.3449,0,0,1,21.35371-11.43388,27.36267,27.36267,0,0,1,21.50013,10.03514,26.42775,26.42775,0,0,1,3.34066,5.289l-13.58192,7.23337c-.21724-.54546-.50983-1.08843-.72706-1.63391-.8712-1.86633-3.41374-7.5457-9.94661-7.46693a9.36283,9.36283,0,0,0-5.88527,1.944c-5.08532,4.0457-4.8681,11.97934-4.8681,13.3792,0,7.54573,2.25223,11.58893,4.72169,13.69044a8.96466,8.96466,0,0,0,6.10044,2.17686,10.34263,10.34263,0,0,0,9.22615-5.90977,22.42015,22.42015,0,0,0,1.16152-3.11231l13.87225,7.15552A33.93989,33.93989,0,0,1,580.091,147.86581Z"/>
  <path d="M629.41344,155.48711V134.33064H613.94067v21.15647H597.74514v-54.914h16.19553v19.98927h15.47277V100.5731h16.34171v54.914Z"/>
  <path d="M698.27392,155.48711l-2.25223-7.701H678.15255l-2.24994,7.701H658.47018l19.6093-54.914h18.44977l19.17481,54.914Zm-11.04164-39.27939-5.59266,19.36867H692.679Z"/>
  <path d="M760.81468,155.48711l-17.069-31.89121.14415,31.89121H728.78274v-54.914h17.2129l17.36159,31.96634L763.14,100.5731h15.18018v54.914Z"/>
  <path d="M826.33223,155.48711,809.26575,123.5959l.14412,31.89121H794.30278v-54.914h17.21291L828.875,132.53944l-.21721-31.96634H843.838v54.914Z"/>
  <path d="M859.82056,155.48711v-54.914h40.60162v12.05562h-24.331v8.16768h13.65524v11.89808H876.01812v10.89318h26.583v11.89945Z"/>
  <path d="M916.26064,155.48711v-54.914h16.19779v41.06832h19.82628v13.84569Z"/>
  <rect x="0.66839" y="1.33002" width="499.56154" height="244.50885"/>
</g>
<g fill="#fff">
  <path d="M190.90721,97.60925h26.60294V36.208H190.84729s.06877,14.44427-.00227,26.53439c-.0454,7.28195-.62061,12.6231-4.6595,16.48017-3.65641,3.49479-14.84537,7.05042-23.596-.2027-4.60864-3.81735-4.704-12.57112-4.72827-16.98365-.05993-10.61263.00318-25.82821.00318-25.82821H131.08538s-.0311,18.50314-.00341,33.97591a83.91287,83.91287,0,0,0,.58973,11.37963c2.63789,18.76349,29.29077,19.12034,29.29077,19.12034,8.949.40677,20.18766-1.42643,29.95019-8.95126Z"/>
  <path d="M264.42741,22.4h-27.256V36.23138h-5.69685V50.46931H237.985s0,18.30588-.05766,31.82788c-.01316,3.468.66283,10.648,4.12425,13.73718,5.84122,5.21154,13.83365,6.50926,29.69867,1.92966V85.25219s-7.93136,2.04475-7.52687-8.03466V50.46931h5.89774V36.25022h-5.69367Z"/>
  <path d="M328.97638,100.78353c39.73156-.26264,48.97654-15.65891,48.88007-35.4777-.101-20.93583-15.90952-34.21744-48.27173-33.64542-32.30865.56749-47.55988,12.18524-47.45569,34.45805C282.21779,85.31416,293.25488,101.02187,328.97638,100.78353ZM312.88958,65.4477c.38226-8.88112,6.85293-14.29446,17.34593-14.06065,10.92065.24379,17.28827,5.96084,17.13868,14.06065-.20407,10.95084-6.43072,15.04943-17.54772,15.07826C319.73025,80.55161,312.42515,76.229,312.88958,65.4477Z"/>
  <path d="M23.85644,76.63574s.3414-15.86638,33.09246-17.08669c0,0,22.17067-1.01739,30.30724-1.8298,0,0,2.44064-8.74628-14.64606-9.15419,0,0-14.03523.20521-15.25441,5.69708H28.06376c0-11.39167,11.18783-21.97,43.326-22.78355,0,0,31.08083-1.443,39.4612,11.79753,2.32214,3.67184,3.20424,5.779,3.27529,10.167.24946,15.52929.99423,37.42939.99423,37.42939A11.65841,11.65841,0,0,0,117.765,97.585H89.69678s-1.54515-3.72972-2.16031-5.88547C75.61933,105.1561,19.11478,107.2122,23.85644,76.63574ZM54.035,78.61853c-.08308,3.85163,2.46061,6.97483,15.39424,6.46727,9.02979-.3557,18.82433-5.15048,17.93769-14.88645C59.33528,68.89368,54.40521,73.30938,54.035,78.61853Z"/>
  <path d="M412.34536,118.49968h-17.7082v43.12556h17.74361V136.01517c0-8.971,15.843-9.07293,15.843.69391h17.24514c2.59249-18.25367-16.38938-27.47641-33.13128-12.97449Z"/>
  <path d="M243.62779,164.0947c26.94319-.17751,33.21547-10.62057,33.149-24.05608C276.708,125.83724,265.988,116.83286,244.04,117.21739c-21.91349.3868-32.25667,8.26959-32.18471,23.37328C211.91635,153.60715,219.39873,164.25632,243.62779,164.0947Zm-10.9109-23.95847c.26059-6.02735,4.64633-9.696,11.76325-9.541,7.407.16411,11.72535,4.04116,11.62547,9.541-.14073,7.42382-4.36236,10.20358-11.9049,10.22128C237.35663,150.37522,232.40228,147.44474,232.71689,140.13623Z"/>
  <path d="M306.91761,110.17924H288.16183V119.698h-3.919v9.798h4.47994s0,12.59313-.03881,21.90122c-.01,2.383.45784,7.3219,2.83742,9.45,4.01778,3.58446,9.51874,4.47768,20.43485,1.33v-8.74947s-5.45851,1.40987-5.177-5.52614V129.49592h4.05773v-9.65834h-3.91927Z"/>
  <path d="M351.64915,164.09016c26.94979-.17955,33.21662-10.61807,33.15443-24.05608-.072-14.20479-10.79445-23.20917-32.73994-22.82123-21.91235.38476-32.25688,8.26415-32.187,23.371C319.93863,153.5983,327.42351,164.24974,351.64915,164.09016Zm-10.90862-23.96278c.25833-6.023,4.64747-9.69375,11.76189-9.53645,7.40611.16185,11.72761,4.04321,11.62456,9.53645-.1362,7.42382-4.36145,10.20358-11.90036,10.22559C345.38005,150.37091,340.42684,147.4402,340.74053,140.12738Z"/>
  <path d="M157.91213,123.15372s-15.41058-12.4835-38.68965-.99309l-.00772-3.68865H102.44631v43.15326h16.77617l-.01771-21.32512c-.00113-13.9122,23.21144-13.85681,23.21144-.09965v21.42477h18.14607l.01112-21.32512c-.0034-13.9122,23.208-13.85681,23.208-.09965v21.42477l17.54114.02-.00454-25.93149C201.26923,118.27473,178.77169,111.18572,157.91213,123.15372Z"/>
  <path d="M342.54059,198.75318c-.05993-12.58,8.55311-19.14144,26.80474-19.46513,18.278-.3237,27.2081,7.17775,27.26576,19.00184.05425,11.19236-5.16955,19.89528-27.60829,20.04373C348.82377,218.471,342.58826,209.59756,342.54059,198.75318Zm26.9398,8.13544c6.278-.01544,9.797-2.32986,9.90894-8.51679.08853-4.573-3.507-7.80494-9.67945-7.9425-5.92634-.133-9.58071,2.93049-9.79908,7.9425C359.65044,204.46343,363.77786,206.90633,369.48039,206.88862Z"/>
  <path d="M471.91341,175.0385H456.84855v7.64332h-3.14772v7.87168h3.59875s0,10.11709-.03314,17.592c-.00681,1.91537.36455,5.88776,2.28106,7.59452,3.22739,2.87963,7.64309,3.59557,16.41481,1.06846v-7.0293s-4.38371,1.13292-4.15967-4.44V190.5535h3.26078v-7.75863h-3.15Z"/>
  <path d="M297.69714,184.37769c3.99123-3.72859,9.38686-5.37566,16.00916-5.04311,12.38839.62514,21.99112,8.22851,21.80159,19.34982-.185,10.83779-8.73948,19.74456-22.08533,19.65149-6.33856-.04653-11.69311-1.64274-15.742-5.0742l-.00566,12.98333H283.53549V181.24768h14.15938Zm10.873,24.51256c5.80785,0,10.89318-4.69286,10.89318-10.13049,0-5.43967-5.18067-9.66492-10.98625-9.66492-5.80785,0-10.61035,4.41139-10.61035,9.85128S302.76454,208.89025,308.57013,208.89025Z"/>
  <path d="M419.76487,180.89516h-14.8011V217.0014h14.85194v-21.447c0-7.508,13.27163-7.59225,13.27163.58746h14.43655c2.17005-15.28869-13.72493-23.0051-27.74017-10.85982Z"/>
  <path d="M250.8843,193.7877c-11.81523.75589-10.952-5.75678-6.71015-6.6214,0,0,8.94558-1.76669,10.80874,1.95737h17.32936c-1.39646-12.76384-31.49306-11.73987-39.69274-7.82492,0,0-8.295,2.32532-6.61708,12.20748,0,0,1.02533,7.35958,13.13746,8.29048l13.04667,1.492c8.38582.75589,5.59062,6.435-.74817,6.33539,0,0-6.33311.56067-8.94127-3.16769l-17.58631-.01113c3.52566,13.82344,34.64737,15.75652,45.53056,7.61881,5.69481-4.16738,6.36739-13.14065-.54864-17.10872C269.89273,196.95539,264.54363,192.90992,250.8843,193.7877Z"/>
  <path d="M187.28939,198.915h1.687V187.031h-1.687v7.63242a4.03008,4.03008,0,0,1-.491,2.09924,2.43486,2.43486,0,0,1-2.03159,1.04167c-1.19489,0-1.51631-.5298-1.51631-1.53834v-9.235h-1.68906v9.17075c0,2.09039,1.09274,3.03468,2.864,3.03468a3.12051,3.12051,0,0,0,2.82085-1.87746h.04313Z"/>
  <path d="M193.80773,187.031h-1.64479v11.884h1.68928v-7.947a2.54927,2.54927,0,0,1,.76588-2.15689,2.4107,2.4107,0,0,1,1.66908-.66487c1.36559,0,1.77236.8333,1.77236,2.07041V198.915h1.68679v-9.1685c0-2.09242-1.15267-3.0324-2.92594-3.0324a3.72921,3.72921,0,0,0-3.01266,1.62482Z"/>
  <path d="M208.6565,182.8902h1.68928V198.915h-1.62595v-1.556h-.03994a2.81647,2.81647,0,0,1-2.88623,1.87746c-3.73858,0-3.44031-5.23583-3.48367-6.28227-.12848-3.48253,1.02648-6.24,3.569-6.24a3.189,3.189,0,0,1,2.73663,1.53834h.04086Zm0,9.89328c0-1.62482-.04086-4.63725-2.30648-4.63725-1.411,0-2.33077,1.11273-2.33077,4.76369,0,2.5648.08626,4.89443,2.39387,4.89443,1.75239,0,2.24338-2.20343,2.24338-3.5445Z"/>
</g>
</svg>
