<svg
	xmlns="http://www.w3.org/2000/svg"
	viewBox="0 0 1275.79 477.33">
<style type="text/css">
	.st0{fill:#EC118B;}
</style>
<path d="M1158.08,458.69c-11.87,0-19.35-8.77-19.35-21.04c0-12.24,7.48-21.03,19.35-21.03c11.99,0,19.43,8.79,19.43,21.03 C1177.5,449.92,1170.07,458.69,1158.08,458.69 M1158.08,398.08c-22.79,0-40.81,14.92-40.81,39.57c0,24.66,18.02,39.39,40.81,39.39 c22.91,0,41.1-14.73,41.1-39.39C1199.18,413,1180.99,398.08,1158.08,398.08 M1086.28,436.49c0,8.13-1.52,12.74-4.86,16.56 c-3.26,3.65-7.91,4.97-12.44,4.97c-6.06,0-10.84-2.65-13.6-6.94c-2.48-3.65-3.93-8.3-3.93-14.26c0-7.44,1.88-12.73,5.02-16.06 c3.15-3.47,7.87-5.3,13.62-5.3c7.14,0,11.57,1.98,16.19,5.14V436.49z M1097.31,361.21c-5.85,0-11.02,4.78-11.02,10.56v30.29 c-5.25-2.63-11.28-4.13-19.4-4.13c-8.57,0-19.15,2.33-26.5,10.11c-6.41,6.6-10.71,16.21-10.71,29.45c0,11.61,3.48,21.05,9.32,27.66 c6.78,7.77,17.23,11.9,29.75,11.9c11.75,0,23.35-3.96,30.44-12.43c6-6.94,8.9-15.71,8.9-28.78v-64.06 C1108.09,365.99,1103.16,361.21,1097.31,361.21 M982.88,397.93c-13.42,0-24.51,4-30.95,12.1c-4.34,5.44-6.63,12.55-6.63,22.33v34.11 c0,5.79,4.75,10.58,10.9,10.58c6.15,0,10.9-4.79,10.9-10.58v-31.95c0-4.14,0.68-7.45,2.18-10.27c2.32-4.13,6.57-6.94,13.6-6.94 c6.93,0,11.41,2.81,13.74,6.94c1.51,2.83,1.97,6.13,1.97,10.27v31.95c0,5.79,4.98,10.58,11.06,10.58c6.02,0,11.02-4.79,11.02-10.58 v-34.11c0-9.78-2.31-16.89-6.87-22.33C1007.52,401.92,996.48,397.93,982.88,397.93 M911.18,454.38c-5.09,3.15-10.74,4.82-16.38,4.82 c-5.96,0-9.96-1.52-13.24-5c-3.17-3.3-5.29-8.43-5.29-16.03c0-5.82,1.48-10.42,3.98-14.26c2.84-4.27,7.42-6.78,13.39-6.78 c4.64,0,9.26,1.33,12.57,5.13c3.14,3.64,4.98,9.6,4.98,17.88V454.38z M893.64,398.08c-12.55,0-22.85,4.15-29.79,12.08 c-5.77,6.65-9.26,15.91-9.26,27.49c0,13.08,4.32,22.7,10.58,29.46c7.3,7.61,17.92,9.93,26.48,9.93c7.8,0,15.25-1.98,20.53-5.62 c1.86,3.64,5.63,5.62,9.95,5.62c5.93,0,10.93-4.47,10.93-10.58v-26.98c0-13.25-3.02-21.84-8.96-28.97 C916.99,402.06,905.38,398.08,893.64,398.08 M844.81,400.91c-3.79-1.8-8.91-2.99-15.24-2.99c-13.86,0-24.8,3.8-31.1,11.92 c-4.32,5.45-6.62,12.59-6.62,22.35v34.08c0,5.97,4.79,10.6,10.94,10.6c6.13,0,10.93-4.63,10.93-10.6v-32.45 c0-4.3,0.63-7.28,2.13-10.26c2.15-3.94,6.45-6.76,12.9-6.76c2.81,0,4.97,0.82,6.94,1.64c2.31,1.18,3.85,2.15,6.81,2.15 c5.46,0,9.42-4.32,9.42-9.77C851.92,406.37,848.96,403.06,844.81,400.91 M780.94,400.91c-3.84-1.8-8.98-2.99-15.22-2.99 c-13.95,0-24.87,3.8-31.16,11.92c-4.25,5.45-6.62,12.59-6.62,22.35v34.08c0,5.97,4.79,10.6,10.91,10.6c6.12,0,10.91-4.63,10.91-10.6 v-32.45c0-4.3,0.72-7.28,2.2-10.26c2.15-3.94,6.46-6.76,12.93-6.76c2.8,0,4.93,0.82,6.94,1.64c2.3,1.18,3.77,2.15,6.8,2.15 c5.4,0,9.4-4.32,9.4-9.77C788.03,406.37,785.09,403.06,780.94,400.91 M693.85,454.38c-5.08,3.15-10.73,4.82-16.36,4.82 c-5.99,0-9.98-1.52-13.27-5c-3.16-3.3-5.27-8.43-5.27-16.03c0-5.82,1.47-10.42,3.98-14.26c2.81-4.27,7.39-6.78,13.36-6.78 c4.65,0,9.28,1.33,12.56,5.13c3.18,3.64,4.99,9.6,4.99,17.88V454.38z M676.3,398.08c-12.54,0-22.85,4.15-29.8,12.08 c-5.75,6.65-9.28,15.91-9.28,27.49c0,13.08,4.37,22.7,10.6,29.46c7.3,7.61,17.92,9.93,26.49,9.93c7.78,0,15.26-1.98,20.53-5.62 c1.83,3.64,5.65,5.62,9.97,5.62c5.93,0,10.9-4.47,10.9-10.58v-26.98c0-13.25-3.01-21.84-8.95-28.97 C699.68,402.06,688.05,398.08,676.3,398.08 M602.14,451.08c-2.82,4.29-7.64,6.94-13.56,6.94c-4.6,0-9.26-1.32-12.59-4.97 c-3.28-3.82-4.8-8.43-4.8-16.56V420.6c4.68-3.16,9.15-5.14,16.25-5.14c5.8,0,10.42,1.83,13.52,5.3c3.18,3.33,5.19,8.62,5.19,16.06 C606.15,442.78,604.62,447.43,602.14,451.08 M590.56,397.93c-8.26,0-14.23,1.51-19.38,4.13v-30.29c0-5.78-5.11-10.56-10.94-10.56 c-5.95,0-10.93,4.78-10.93,10.56v64.06c0,13.08,3,21.84,8.95,28.78c7.16,8.47,18.74,12.43,30.52,12.43 c12.54,0,22.99-4.13,29.79-11.9c5.74-6.62,9.26-16.05,9.26-27.66c0-13.24-3.64-22.84-10.1-29.45 C610.44,400.26,599.19,397.93,590.56,397.93 M1266.9,398.09c-5.91,0-9.27,3.83-10.63,8.08l-15.34,47.39h-0.67l-15.43-46.54 c-1.12-3.82-3.38-8.94-10.06-8.94c-7.74,0-12.09,4.65-12.09,10.61c0,1.98,0.63,4.78,2.12,8.43l17.58,46.18 c3.28,8.94,7.8,13.73,17.16,13.73c9.21,0,14.21-4.95,17.58-13.73l16.51-45.78c1.17-3.12,2.17-6.78,2.17-8.95 C1275.79,402.8,1273.91,398.09,1266.9,398.09"/>
<path class="st0" d="M450.31,164.9L298.1,276.52l28.61,90.59l-77.59-55.74L171.93,367l30.67-90.38l-78.44-56.79l94.34-0.03 c0,0,29.29-86.38,30.84-90.94c1.45,4.49,22.78,70.02,22.78,70.02c2.97,9.18,10.23,16.47,19.47,19.52 c6.24,1.97,12.82,1.97,18.93-0.02c7.76-2.49,14.05-7.93,17.73-15.18c3.7-7.25,4.33-15.49,1.81-23.22L278.4,21.09 C274.31,8.45,262.61,0,249.4,0h-0.04c-13.28,0-24.89,8.45-28.95,21.09c0,0-42.95,131.66-44.94,137.8 c-1.18,0-144.99,0.03-144.99,0.03c-13.24,0.04-24.9,8.51-28.98,21.02c-0.99,3.14-1.5,6.26-1.5,9.45c0,9.57,4.51,18.79,12.57,24.63 c0,0,112.02,81.56,117.22,85.37C129.38,300.52,85,437.27,85,437.27c-4.1,12.69,0.35,26.32,11.05,34.11 c10.73,7.79,25.14,7.79,35.84-0.03l117.39-85.1l117.39,85.2c10.74,7.79,25.14,7.86,35.84,0.1c0,0,0.03-0.03,0.06-0.03 c10.7-7.8,15.12-21.46,11-34.08L368.85,299.5l117.26-85.23c8.23-5.92,12.57-15.25,12.57-24.7c0-6.2-1.87-12.48-5.79-17.91 C483,158.08,463.88,155.01,450.31,164.9"/>
<path class="st0" d="M642.77,208.95l42.64,55.76c2.62,3.61,4.59,7.54,4.59,12.79c0,11.81-10.5,20.99-21.65,20.99 c-7.22,0-12.79-3.28-17.06-9.18l-38.7-53.47l-18.04,15.74v25.91c0,11.48-10.17,20.99-21.65,20.99c-12.14,0-21.65-9.51-21.65-20.99 V90.54c0-11.81,9.51-21.32,21.65-21.32c12.14,0,21.65,9.51,21.65,21.32v111.52l57.4-54.78c3.94-3.61,8.53-5.25,13.45-5.25 c12.14,0,20.01,10.17,20.01,20.01c0,5.25-1.97,10.5-5.58,13.78L642.77,208.95z M750.02,192.55c-2.95,5.9-4.26,11.81-4.26,20.34 v64.29c0,11.81-9.51,20.99-21.65,20.99c-12.14,0-21.65-9.18-21.65-20.99V209.6c0-19.35,4.59-33.46,13.12-44.28 c12.46-16.07,34.11-23.62,61.66-23.62c12.46,0,22.63,2.3,30.18,5.9c8.2,4.26,14.1,10.82,14.1,19.68c0,10.82-7.87,19.35-18.7,19.35 c-5.9,0-8.86-1.97-13.45-4.26c-3.94-1.64-8.2-3.28-13.78-3.28C762.81,179.1,754.28,184.67,750.02,192.55z M834.64,78.73 c0-13.78,11.15-24.93,24.93-24.93c13.78,0,24.93,11.15,24.93,24.93s-11.15,24.93-24.93,24.93 C845.79,103.66,834.64,92.51,834.64,78.73z M859.57,142.03c12.14,0,21.65,9.51,21.65,20.99V277.5c0,11.48-10.17,20.99-21.65,20.99 c-12.14,0-21.65-9.51-21.65-20.99V163.03C837.92,151.55,847.43,142.03,859.57,142.03z M1004.54,215.18 c0-19.35-6.89-33.78-26.57-33.78c-11.81,0-19.02,5.25-22.96,13.45c-2.62,5.58-3.61,12.14-3.61,20.34v61.99 c0,11.81-10.17,21.32-21.65,21.32c-12.14,0-21.65-9.51-21.65-21.32v-67.24c0-19.35,4.26-33.46,12.46-44.28 c11.81-16.07,32.14-23.94,57.4-23.94c20.99,0,36.74,7.22,48.22,19.35c11.15-12.14,26.9-19.35,48.22-19.35 c24.93,0,45.26,7.87,57.07,23.94c8.2,10.82,12.79,24.93,12.79,44.28v67.24c0,11.81-9.84,21.32-21.98,21.32 c-11.48,0-21.65-9.51-21.65-21.32v-61.99c0-8.2-0.98-14.76-3.28-20.34c-3.94-8.2-11.48-13.45-22.96-13.45 c-18.7,0-26.57,14.43-26.57,33.78v61.99c0,11.81-10.17,21.32-21.65,21.32c-12.14,0-21.65-9.51-21.65-21.32V215.18z M1167.89,78.73 c0-13.78,11.15-24.93,24.93-24.93c13.78,0,24.93,11.15,24.93,24.93s-11.15,24.93-24.93,24.93 C1179.04,103.66,1167.89,92.51,1167.89,78.73z M1192.82,142.03c12.14,0,21.65,9.51,21.65,20.99V277.5 c0,11.48-10.17,20.99-21.65,20.99c-12.14,0-21.65-9.51-21.65-20.99V163.03C1171.17,151.55,1180.68,142.03,1192.82,142.03z"/>
</svg>
