<svg
  xmlns="http://www.w3.org/2000/svg"
  viewBox="0 0 999 749.25">
<defs>
  <linearGradient id="gradientbjQmKgciW" gradientUnits="userSpaceOnUse" x1="2.28" y1="746.79" x2="832.34" y2="-156.59">
    <stop style="stop-color: #44805f;stop-opacity: 1" offset="0%"/>
    <stop style="stop-color: #48854a;stop-opacity: 1" offset="10%"/>
    <stop style="stop-color: #418758;stop-opacity: 1" offset="20%"/>
    <stop style="stop-color: #3f8764;stop-opacity: 1" offset="30%"/>
    <stop style="stop-color: #2f8d7b;stop-opacity: 1" offset="40%"/>
    <stop style="stop-color: #22908b;stop-opacity: 1" offset="50%"/>
    <stop style="stop-color: #1e979f;stop-opacity: 1" offset="60%"/>
    <stop style="stop-color: #0f97ae;stop-opacity: 1" offset="70%"/>
    <stop style="stop-color: #0799c0;stop-opacity: 1" offset="80%"/>
    <stop style="stop-color: #009ccc;stop-opacity: 1" offset="90%"/>
    <stop style="stop-color: #009ccc;stop-opacity: 1" offset="100%"/>
  </linearGradient>
</defs>
<path opacity="1" fill="url(#gradientbjQmKgciW)"
  d="M999.5 0.5C999.5 0.5 999.5 0.5 999.5 0.5C999.5 450.05 999.5 699.8 999.5 749.75C999.5 749.75 999.5 749.75 999.5 749.75C400.1 749.75 67.1 749.75 0.5 749.75C0.5 749.75 0.5 749.75 0.5 749.75C0.5 300.2 0.5 50.45 0.5 0.5C0.5 0.5 0.5 0.5 0.5 0.5C599.9 0.5 932.9 0.5 999.5 0.5Z"/>
<g opacity="1" fill="White">
  <path d="M165.61 473.75C165.61 521.09 203.91 560.62 251.85 560.62C287.8 560.62 317.54 539.99 331.16 509.22C328.96 509.22 311.37 509.22 309.17 509.22C300.01 524.73 279.79 541.06 252.35 541.06C222.15 541.06 192.17 520.77 185.79 483.51C201.03 483.51 322.97 483.51 338.21 483.51C338.21 483.51 339.15 479 339.15 472.67C339.15 428.21 302.3 387.49 252.06 387.49C204.61 387.49 165.61 426.19 165.61 473.75ZM318.85 464.16C305.56 464.16 199.18 464.16 185.88 464.16C190.64 432.73 217.25 406.75 252.27 406.75C283.76 406.75 313.64 429.34 318.85 464.16Z"/>
  <path d="M348.57 473.93C348.57 519.44 385.56 560.63 435.96 560.63C464.8 560.63 486.5 548 503.61 522.9C503.61 525.11 503.61 536.12 503.61 555.95L523.13 555.95L523.13 392.39L503.61 392.39C503.61 412.02 503.61 422.92 503.61 425.1C488.11 401.69 465.76 387.41 436.02 387.41C388.02 387.41 348.57 426.33 348.57 473.93ZM503.58 473.95C503.58 511.71 473.27 541.11 436.02 541.11C399.05 541.11 368.25 511.95 368.25 473.73C368.25 439.13 396.24 406.76 436.14 406.76C474.06 406.76 503.58 437.24 503.58 473.95Z"/>
  <path d="M546.83 555.95L546.83 392.39L566.19 392.39C566.19 407.89 566.19 416.5 566.19 418.22C572.27 406.34 589.06 392.39 614.26 392.39C615.3 392.39 620.53 392.39 629.95 392.39L629.95 355.34L649.47 355.34L649.47 392.39L683.35 392.39L683.35 411.42L649.47 411.42C649.47 474.7 649.47 509.86 649.47 516.89C649.47 528.54 658.62 536.25 668.67 536.25C669.64 536.25 674.54 536.25 683.35 536.25L683.35 555.95C674.34 555.95 669.33 555.95 668.33 555.95C648.64 555.95 629.95 539.62 629.95 517.56C629.95 510.48 629.95 475.1 629.95 411.42C621.73 411.42 617.17 411.42 616.26 411.42C584.19 411.42 566.19 435.89 566.19 456.48C566.19 463.11 566.19 496.27 566.19 555.95L546.83 555.95Z"/>
  <path d="M695.7 555.95L695.7 339.32L715.23 339.32C715.23 387.58 715.23 414.4 715.23 419.76C720.98 406.66 742.52 387.43 770.49 387.43C809.53 387.43 835.89 412.32 835.89 452.83C835.89 459.71 835.89 494.08 835.89 555.95L816.87 555.95C816.87 494.06 816.87 459.68 816.87 452.81C816.87 425.53 798.52 406.71 770.66 406.71C739.64 406.71 715.23 431.6 715.23 455.92C715.23 462.59 715.23 495.93 715.23 555.95L695.7 555.95Z"/>
  <path d="M434.27 277.33C434.27 291.86 416.2 291 416.2 291C414.99 291 408.96 291 398.12 291L398.12 264.74C408.96 264.74 414.99 264.74 416.2 264.74C434.81 264.63 434.27 277.33 434.27 277.33M411.89 224.71C426.2 225.46 425.67 236.11 425.67 236.11C425.67 249.35 409.85 249.57 409.85 249.57C409.06 249.57 405.15 249.57 398.12 249.57L398.12 224.71C406.38 224.71 410.97 224.71 411.89 224.71ZM430.94 254.73C430.94 254.73 443.31 249.46 443.21 235.47C443.21 235.47 445.09 212.55 414.72 209.75C412.47 209.75 401.23 209.75 381.01 209.75L381.01 305.85C404.19 305.85 417.06 305.85 419.64 305.85C419.64 305.85 451.92 305.96 451.92 278.73C451.92 278.73 452.68 260.22 430.94 254.73M485.61 190.92L485.61 324.63L343.71 324.63L343.71 190.92L485.61 190.92Z"/>
  <path d="M270.65 277.33C270.65 291.86 252.57 291 252.57 291C251.36 291 245.34 291 234.49 291L234.49 264.74C245.34 264.74 251.36 264.74 252.57 264.74C271.19 264.63 270.65 277.33 270.65 277.33M248.26 224.71C262.58 225.46 262.04 236.11 262.04 236.11C262.04 249.35 246.22 249.57 246.22 249.57C245.44 249.57 241.53 249.57 234.49 249.57L234.49 224.71C242.75 224.71 247.35 224.71 248.26 224.71ZM267.31 254.73C267.31 254.73 279.69 249.46 279.58 235.47C279.58 235.47 281.46 212.55 251.09 209.75C248.84 209.75 237.61 209.75 217.38 209.75L217.38 305.85C240.56 305.85 253.44 305.85 256.01 305.85C256.01 305.85 288.3 305.96 288.3 278.73C288.3 278.73 289.05 260.22 267.31 254.73M321.98 190.92L321.98 324.63L180.09 324.63L180.09 190.92L321.98 190.92Z"/>
  <path d="M620.28 216.64C620.28 227.29 620.28 233.21 620.28 234.39C620.28 234.39 602.96 223.74 583.8 223.52C583.8 223.52 548.08 222.83 546.46 257.77C546.46 257.77 545.17 289.92 583.37 291.75C583.37 291.75 599.41 293.69 621.15 279.81C621.15 281.65 621.15 296.37 621.15 298.21C621.15 298.21 591.98 315.53 558.19 302.19C558.19 302.19 529.78 291.81 528.7 257.77C528.7 257.77 527.52 222.77 565.4 211.15C565.4 211.15 575.52 207.27 593.7 209C593.7 209 604.57 210.07 620.28 216.64M649.23 324.63L649.23 190.92L507.34 190.92L507.34 324.63L649.23 324.63Z"/>
</g>
</svg>
