<svg
  xmlns="http://www.w3.org/2000/svg"
  viewBox="0 0 264.58 264.58">
<path opacity="1" fill="#b90005" fill-opacity="1" d="M264.58 0C264.58 0 264.58 0 264.58 0C264.58 158.75 264.58 246.94 264.58 264.58C264.58 264.58 264.58 264.58 264.58 264.58C105.83 264.58 17.64 264.58 0 264.58C0 264.58 0 264.58 0 264.58C0 105.83 0 17.64 0 0C0 0 0 0 0 0C158.75 0 246.94 0 264.58 0Z"/>
<g opacity="1" fill="#ffffff" fill-opacity="1">
  <path d="M138.95 79.79C138.95 84.56 133.02 84.27 133.02 84.27C132.63 84.27 130.65 84.27 127.09 84.27L127.09 75.66C130.65 75.66 132.63 75.66 133.02 75.66C139.12 75.62 138.95 79.79 138.95 79.79M131.61 62.54C136.3 62.78 136.12 66.28 136.12 66.28C136.12 70.62 130.94 70.69 130.94 70.69C130.68 70.69 129.4 70.69 127.09 70.69L127.09 62.53C129.8 62.53 131.31 62.54 131.61 62.54ZM137.85 72.38C137.85 72.38 141.91 70.65 141.87 66.06C141.87 66.06 142.49 58.55 132.53 57.63C131.8 57.63 128.11 57.63 121.48 57.63L121.48 89.14C129.08 89.14 133.3 89.14 134.15 89.14C134.15 89.14 144.73 89.17 144.73 80.25C144.73 80.25 144.98 74.18 137.85 72.38M155.78 51.46L155.78 95.3L109.25 95.3L109.25 51.46L155.78 51.46ZM85.3 79.79C85.3 84.56 79.37 84.27 79.37 84.27C78.97 84.27 77 84.27 73.44 84.27L73.44 75.66C77 75.66 78.97 75.66 79.37 75.66C85.47 75.62 85.3 79.79 85.3 79.79M77.96 62.54C82.65 62.78 82.47 66.28 82.47 66.28C82.47 70.62 77.29 70.69 77.29 70.69C77.03 70.69 75.75 70.69 73.44 70.69L73.44 62.54C76.15 62.54 77.66 62.54 77.96 62.54ZM84.2 72.38C84.2 72.38 88.26 70.65 88.22 66.06C88.22 66.06 88.84 58.55 78.88 57.63C78.14 57.63 74.46 57.63 67.83 57.63L67.83 89.14C75.43 89.14 79.65 89.14 80.5 89.14C80.5 89.14 91.08 89.17 91.08 80.25C91.08 80.25 91.33 74.18 84.2 72.38M102.13 51.46L102.13 95.3L55.6 95.3L55.6 51.46L102.13 51.46ZM199.94 59.89C199.94 63.38 199.94 65.32 199.94 65.71C199.94 65.71 194.26 62.22 187.98 62.15C187.98 62.15 176.27 61.92 175.74 73.38C175.74 73.38 175.31 83.92 187.84 84.52C187.84 84.52 193.1 85.15 200.23 80.61C200.23 81.21 200.23 86.03 200.23 86.63C200.23 86.63 190.66 92.32 179.58 87.94C179.58 87.94 170.27 84.54 169.91 73.38C169.91 73.38 169.53 61.9 181.95 58.09C181.95 58.09 185.27 56.82 191.23 57.38C191.23 57.38 194.79 57.74 199.94 59.89M209.43 95.3L209.43 51.46L162.91 51.46L162.91 95.3L209.43 95.3Z"/>
  <path d="M63.81 141.08C61.94 134.39 60.54 129.04 60.18 127.7C58.41 134.34 56.91 139.74 56.55 141.08C55.34 145.54 54.09 149.98 52.81 154.4C48.64 154.4 46.33 154.4 45.87 154.4C43.12 145.33 41.15 137.88 40.63 136.05C38.97 129.86 37.4 123.62 35.91 117.33C40.17 117.33 42.54 117.33 43.01 117.33C44.52 124.9 45.86 131 46.18 132.52C47.89 140.09 49.4 145.87 49.75 147.35C51.72 140.2 53.16 134.52 53.54 133.09C54.78 128.36 55.98 123.62 57.12 118.89C61.01 118.89 63.17 118.89 63.6 118.89C65.31 125.94 66.77 131.53 67.12 132.94C68.94 139.94 70.48 145.54 70.86 146.94C72.72 139.73 74.03 133.73 74.38 132.26C75.49 127.28 76.54 122.31 77.55 117.33C81.71 117.33 84.03 117.33 84.49 117.33C82.21 126.77 80.2 134.18 79.72 136.05C78.06 142.23 76.34 148.35 74.54 154.4L67.59 154.4C65.32 146.41 64.06 141.96 63.81 141.08Z"/>
  <path d="M112.96 117.9C116.28 119.25 118.09 121.4 118.66 121.79C121.1 124.33 121.97 127.3 122.34 127.91C123.64 131.48 123.51 135.09 123.64 135.89C123.64 140.3 122.47 143.08 122.34 143.88C121.1 147.4 119.08 149.34 118.71 149.94C116.33 152.48 113.53 153.44 112.96 153.83C109.64 155.18 106.24 155.04 105.49 155.18C101.34 155.18 98.77 153.97 98.03 153.83C94.71 152.48 92.85 150.33 92.27 149.94C89.89 147.4 88.96 144.44 88.59 143.82C87.35 140.25 87.47 136.64 87.35 135.84C87.35 131.43 88.47 128.7 88.59 127.91C89.89 124.33 91.9 122.4 92.27 121.79C94.66 119.25 97.4 118.29 97.97 117.9C100.22 117 102.73 116.55 105.49 116.55C109.97 117.36 112.46 117.81 112.96 117.9ZM111.56 147.87C114.1 146.21 115.06 143.67 115.45 143.2C116.8 140.14 116.66 136.62 116.8 135.89C116.8 131.59 115.58 129.31 115.45 128.58C114.1 125.52 111.95 124.38 111.56 123.91C109.02 122.26 106.1 122.42 105.49 122.26C101.97 122.26 100.03 123.75 99.43 123.91C96.89 125.52 95.93 128.11 95.54 128.58C94.19 131.59 94.32 135.11 94.19 135.84C94.19 140.09 95.4 142.42 95.54 143.15C96.89 146.21 99.04 147.4 99.43 147.87C101.12 148.94 103.14 149.48 105.49 149.48C109.13 148.51 111.15 147.98 111.56 147.87Z"/>
  <path d="M137.65 154.35L131.17 154.35L131.17 117.28C138.82 117.28 143.07 117.28 143.92 117.28C151.13 117.28 153.86 119.98 154.97 120.29C158.8 123.24 158.42 127.89 158.8 128.74C158.8 132.42 157.13 134.43 156.94 135.06C155.07 137.65 152.13 138.56 151.6 138.95C154.03 142.68 155.94 145.76 156.42 146.52C158.01 149.08 159.58 151.69 161.14 154.35C156.6 154.35 154.07 154.35 153.57 154.35C151.55 150.72 149.84 147.91 149.42 147.19C147.35 143.67 145.59 140.8 145.17 140.09C144.75 140.13 144.32 140.14 143.87 140.14L137.65 140.14L137.65 154.35ZM137.65 134.91C141.17 134.91 143.12 134.91 143.51 134.91C147.81 134.91 149.34 133.6 149.99 133.45C152.17 131.95 151.95 129.21 152.17 128.74C152.17 125.52 150.21 124.49 149.99 124.02C148.54 123.02 146.4 122.51 143.56 122.51L137.65 122.51L137.65 134.91Z"/>
  <path d="M172.79 117.33L172.79 148.7L191.04 148.7L191.04 154.4L166.21 154.4L166.21 117.33L172.79 117.33Z"/>
  <path d="M196.78 117.33C204.9 117.33 209.41 117.33 210.31 117.33C216.12 117.33 219.22 119.29 220.21 119.51C224.36 121.69 225.91 125.2 226.54 125.83C228.77 129.93 228.54 134.79 228.77 135.79C228.77 141.7 226.76 144.84 226.54 145.85C224.36 149.99 220.85 151.59 220.21 152.22C217.48 153.68 214.16 154.4 210.26 154.4L196.78 154.4L196.78 117.33ZM203.36 148.8C207.28 148.8 209.46 148.8 209.89 148.8C215.7 148.8 217.92 145.82 218.81 145.48C221.92 142.17 221.61 136.76 221.92 135.79C221.92 129.51 219.17 127.2 218.86 126.25C216.83 124.04 213.85 122.93 209.95 122.93L203.36 122.93L203.36 148.8Z"/>
  <path d="M78.17 196.4C75.11 191.68 72.66 188 72.05 187.07C70.01 183.99 67.99 181 65.98 178.1L65.98 205.73L59.66 205.73L59.66 168.66C63.64 168.66 65.85 168.66 66.29 168.66C70.96 175.4 74.55 180.89 75.47 182.24C78.51 186.81 81.54 191.44 84.54 196.14L84.54 168.66L90.87 168.66L90.87 205.73L84.23 205.73C80.59 200.13 78.57 197.02 78.17 196.4Z"/>
  <path d="M124.52 168.66L124.52 174.21L106.32 174.21L106.32 183.8L122.55 183.8L122.55 189.35L106.32 189.35L106.32 200.18L125.5 200.18L125.5 205.73L99.73 205.73L99.73 168.66L124.52 168.66Z"/>
  <path d="M158.1 192.41C156.24 185.72 154.84 180.37 154.47 179.03C152.71 185.67 151.21 191.07 150.85 192.41C149.64 196.87 148.39 201.31 147.11 205.73C142.94 205.73 140.63 205.73 140.16 205.73C137.42 196.66 135.45 189.21 134.93 187.38C133.27 181.19 131.7 174.95 130.21 168.66C134.47 168.66 136.84 168.66 137.31 168.66C138.82 176.23 140.16 182.33 140.48 183.85C142.19 191.42 143.7 197.2 144.05 198.68C146.02 191.52 147.46 185.85 147.84 184.42C149.08 179.69 150.27 174.95 151.42 170.22C155.3 170.22 157.46 170.22 157.9 170.22C159.61 177.27 161.07 182.86 161.42 184.27C163.24 191.27 164.78 196.87 165.16 198.26C167.02 191.06 168.33 185.06 168.68 183.59C169.79 178.61 170.84 173.64 171.84 168.66C176.01 168.66 178.33 168.66 178.79 168.66C176.51 178.1 174.5 185.51 174.02 187.38C172.36 193.56 170.63 199.68 168.84 205.73L161.89 205.73C159.62 197.74 158.36 193.29 158.1 192.41Z"/>
  <path d="M188.08 205.83C186.11 205.39 184.26 204.69 182.53 203.76C182.53 200.15 182.53 198.15 182.53 197.75C187.87 201.06 192.98 200.73 194.14 201.06C198.03 201.06 199.51 199.76 200.11 199.61C202.23 198.16 202.02 196.02 202.23 195.62C202.23 194.17 201.67 193.47 201.61 193.24C200.99 192.25 200.07 191.79 199.9 191.63C198.86 190.95 197.71 190.65 197.46 190.54C196.11 190.12 194.9 189.84 194.61 189.76C191.86 189.09 190.08 188.41 189.58 188.26C187.35 187.38 186.08 186.39 185.69 186.18C184.08 184.99 183.45 183.52 183.2 183.23C182.32 181.47 182.41 179.36 182.32 178.93C182.32 175.5 183.86 173.65 184.03 173.07C185.74 170.58 188.42 169.61 188.91 169.23C192.07 167.88 195.67 168.02 196.42 167.88C199.28 167.88 201.51 168.49 202.08 168.56C203.94 169.01 205.6 169.61 207.05 170.37C207.05 173.89 207.05 175.84 207.05 176.23C204.98 174.93 202.67 174.36 202.18 174.16C199.43 173.33 196.91 173.41 196.32 173.33C192.8 173.33 191.37 174.54 190.83 174.67C188.85 175.97 189.05 178.03 188.85 178.41C188.85 180.17 189.69 180.93 189.79 181.21C190.72 182.19 192.17 182.65 192.43 182.81C194.14 183.38 196.03 183.84 196.42 183.95C198.91 184.58 200.67 185.21 201.14 185.35C203.42 186.13 204.74 187.17 205.14 187.38C206.9 188.57 207.61 190.13 207.88 190.44C208.87 192.3 208.77 194.64 208.87 195.1C208.87 198.68 207.28 200.61 207.11 201.22C205.34 203.76 202.49 204.77 201.97 205.16C199.76 206.06 197.12 206.51 194.04 206.51C190.46 206.1 188.47 205.88 188.08 205.83Z"/>
</g>
</svg>
