<svg
  xmlns="http://www.w3.org/2000/svg"
  viewBox="0 0 1000 184.26">
<g opacity="1" fill="#000000" fill-opacity="1">
  <path d="M73.31 0C87.28 0 97.75 3.49 105.51 9.31C114.04 16.29 118.7 26.38 118.7 38.79C118.7 53.14 112.88 62.07 101.24 67.5C101.24 67.57 101.24 68.2 101.24 68.27C116.76 73.32 125.68 87.28 125.68 103.96C125.68 119.86 119.47 132.28 109.39 140.03C100.85 146.24 89.99 148.96 75.25 148.96C70.24 148.96 45.15 148.96 0 148.96L0 0C43.99 0 68.43 0 73.31 0ZM79.52 45C79.52 36.47 73.7 32.2 65.55 32.2C63.87 32.2 55.47 32.2 40.34 32.2L40.34 57.8L65.94 57.8C74.99 55.21 79.52 50.95 79.52 45ZM84.95 100.86C84.95 90.38 77.97 85.73 69.43 85.73C67.52 85.73 57.95 85.73 40.73 85.73L40.73 116.37L69.43 116.37C79.78 112.49 84.95 107.32 84.95 100.86Z"/>
  <path d="M170.67 0L170.67 149.34L132.27 149.34L132.27 0L170.67 0Z"/>
  <path d="M233.9 39.96C267.65 39.96 288.98 62.84 288.98 96.2C288.98 129.95 267.65 152.45 233.9 152.45C200.16 152.45 178.43 129.95 178.43 96.2C178.43 62.45 200.16 39.96 233.9 39.96ZM233.13 65.95C221.49 65.95 216.06 77.58 216.06 96.2C216.06 114.82 221.49 126.85 233.13 126.85C244.76 126.46 250.58 114.82 250.58 96.2C250.58 77.58 244.76 65.95 233.13 65.95Z"/>
  <path d="M348.72 39.96C382.47 39.96 403.41 62.45 403.41 96.2C403.41 129.95 382.08 152.45 348.33 152.45C314.97 152.45 293.25 129.95 293.25 96.2C293.25 62.45 314.97 39.96 348.72 39.96ZM347.94 65.95C336.31 65.95 330.88 77.58 330.88 96.2C330.88 114.82 336.31 126.85 347.94 126.85C359.58 126.46 365.4 114.82 365.4 96.2C365.4 77.58 359.58 65.95 347.94 65.95Z"/>
  <path d="M446.86 42.67L446.86 58.58C447.32 58.58 447.58 58.58 447.63 58.58C454.62 46.16 464.31 39.57 479.83 39.57C493.41 39.57 503.49 46.16 508.53 57.8C508.61 57.8 509.23 57.8 509.31 57.8C517.84 43.84 529.09 39.57 542.28 39.57C567.11 39.57 577.58 57.8 577.58 82.24C577.58 86.68 577.58 108.92 577.58 148.96L540.34 148.96C540.34 112.88 540.34 92.84 540.34 88.83C540.34 77.97 536.85 70.99 527.54 70.99C518.23 70.99 513.58 79.52 513.58 91.16C513.58 95.01 513.58 114.28 513.58 148.96L476.34 148.96C476.34 112.88 476.34 92.84 476.34 88.83C476.34 77.97 472.85 70.99 463.54 70.99C454.23 70.99 449.57 79.52 449.57 91.16C449.57 95.01 449.57 114.28 449.57 148.96C426.53 148.96 413.73 148.96 411.17 148.96C411.17 148.96 411.17 42.67 411.17 42.67C415.93 42.67 427.83 42.67 446.86 42.67Z"/>
  <path d="M624.13 134.99L624.13 148.96L588.44 148.96L588.44 0L625.68 0L625.68 53.53C626.14 53.53 626.4 53.53 626.45 53.53C633.44 44.22 643.13 39.18 656.71 39.18C683.48 39.18 698.99 63.23 698.99 95.43C698.99 131.5 682.31 152.45 654.38 152.45C642.75 152.45 630.72 147.02 624.52 134.99C624.46 134.99 624.33 134.99 624.13 134.99ZM643.13 66.72C631.5 66.72 624.52 77.97 624.52 95.04C624.52 112.11 631.89 123.35 643.13 123.35C654.38 123.35 660.59 112.49 660.59 95.04C660.59 77.97 654.38 66.72 643.13 66.72Z"/>
  <path d="M757.18 39.57C773.08 39.57 785.1 44.61 794.41 53.53C806.83 65.56 812.26 84.18 811.87 105.9C804.73 105.9 747.63 105.9 740.5 105.9C742.05 119.09 748.25 126.07 759.5 126.07C766.1 126.07 771.92 122.97 774.24 115.98C777.85 115.98 806.71 115.98 810.32 115.98C804.11 140.42 785.1 152.45 758.34 152.45C725.37 152.06 703.26 129.56 703.26 95.81C703.26 62.45 725.37 39.57 757.18 39.57ZM774.63 84.56C773.86 71.76 766.87 65.17 757.95 65.17C747.48 64.78 741.66 72.15 740.5 84.56C747.32 84.56 771.22 84.56 774.63 84.56Z"/>
  <path d="M854.93 60.9C862.68 46.16 872.77 40.34 885.57 40.34C888.67 40.34 890.61 40.73 891.78 41.51C891.78 43.68 891.78 54.54 891.78 74.09C891.31 74.09 891.05 74.09 891 74.09C868.89 70.21 856.09 80.69 856.09 104.74C856.09 107.71 856.09 122.58 856.09 149.34L818.46 149.34L818.46 42.67L854.15 42.67L854.15 60.9C854.62 60.9 854.87 60.9 854.93 60.9Z"/>
  <path d="M931.73 149.34C933.28 154 937.94 158.26 946.86 158.26C958.88 158.26 963.15 150.89 963.15 139.65C963.15 139.13 963.15 136.54 963.15 131.89C962.68 131.89 962.43 131.89 962.37 131.89C956.56 138.87 948.41 143.91 936.77 143.91C913.89 143.91 893.72 126.85 893.72 93.49C893.72 62.84 910.01 39.18 934.83 39.18C949.19 39.18 957.72 45 963.54 53.92C963.59 53.92 963.85 53.92 964.31 53.92L964.31 42.28L1000 42.28C1000 97.68 1000 128.45 1000 134.6C1000 151.67 994.18 164.86 985.26 172.62C975.95 180.76 962.76 184.25 947.63 184.25C918.93 184.64 899.15 173 895.66 149.34C902.87 149.34 928.12 149.34 931.73 149.34ZM947.63 67.88C937.16 67.88 930.57 77.19 930.57 91.93C930.57 106.29 937.16 116.37 947.63 116.37C958.11 116.37 964.7 105.9 964.7 91.93C964.7 78.75 958.49 67.88 947.63 67.88Z"/>
</g>
</svg>
