<svg
  xmlns="http://www.w3.org/2000/svg"
  viewBox="0 0 263.6 88.57">
<g opacity="1" fill="#127bca" fill-opacity="1">
  <path d="M20.75 14.5C19.95 13.61 18.96 13.19 17.79 13.19C17.39 13.19 15.37 13.19 11.73 13.19C10.82 20.1 10.32 23.94 10.22 24.71C10.08 25.88 10.36 26.92 11.11 27.77C11.91 28.65 12.9 29.08 14.07 29.08C14.24 29.08 15.6 29.08 15.77 29.08C16.93 29.08 18.02 28.65 19 27.81C19.99 26.92 20.56 25.88 20.69 24.71C20.79 24 21.54 18.27 21.64 17.55C21.78 16.39 21.5 15.35 20.75 14.5M26.01 30.06C23.84 32.22 21.26 33.3 18.21 33.3C16.88 33.3 6.25 33.3 4.92 33.3C3.7 33.3 2.71 32.88 1.96 31.99C1.16 31.09 0.88 30.06 1.02 28.84C1.25 26.98 2.39 17.7 4.44 0.99C8.14 0.99 10.19 0.99 10.6 0.99C12.06 0.99 12.76 1.92 12.76 3.85C12.76 4.18 12.71 4.55 12.66 4.98C12.58 5.68 12.43 6.95 12.2 8.73C13.1 8.73 20.31 8.73 21.21 8.73C23.99 8.73 26.15 9.63 27.79 11.46C29.34 13.2 30.09 15.41 30.09 18.17C30.09 18.74 30.09 19.3 30 19.91C29.98 20.06 29.88 20.82 29.72 22.17C28.62 26.02 27.38 28.65 26.01 30.06Z"/>
  <path d="M33.03 33.3L36.98 1.05C40.5 1.05 42.46 1.05 42.85 1.05C43.66 1.05 44.26 1.24 44.78 1.61C45.3 2.04 45.58 2.5 45.48 3.12C45.27 4.81 44.24 13.26 42.37 28.46L42.36 28.46L41.8 33.3L33.03 33.3Z"/>
  <path d="M73.24 32.31C72.26 32.92 71.18 33.25 70 33.25C68.1 33.25 52.92 33.25 51.02 33.25C49.89 33.25 48.91 32.92 48.07 32.31C47.22 31.7 46.89 30.9 46.98 29.96C47.16 28.55 48.02 21.47 49.57 8.73L58.31 8.73C57.06 18.76 56.37 24.34 56.23 25.45C55.95 27.85 57.82 29.03 61.91 29.03C62.94 29.03 63.93 28.75 64.83 28.18C65.95 27.47 66.56 26.58 66.7 25.45C66.89 23.99 68.36 12.26 68.55 10.8C68.63 10.19 68.96 9.73 69.58 9.35C70.19 8.92 70.9 8.73 71.69 8.73C72.07 8.73 74 8.73 77.46 8.73L74.89 29.96C74.45 31.12 73.9 31.91 73.24 32.31Z"/>
  <path d="M102.43 12.67C102.2 13.1 102.1 13.33 102.05 13.38C101.73 13.33 101.02 13.28 99.94 13.14C99.05 13.05 98.35 12.95 97.78 12.95C92.85 12.95 90.22 14.17 89.94 16.66C89.93 16.75 89.86 17.22 89.74 18.07C95.06 18.07 98.02 18.07 98.62 18.07C98.62 18.07 100.78 17.94 100.45 20.25C100.14 22.51 98.05 22.33 98.05 22.33C97.45 22.33 94.49 22.33 89.17 22.33C88.95 24.12 88.82 25.12 88.8 25.32C88.62 26.91 89.41 27.99 91.15 28.55C92.13 28.88 93.64 29.03 95.76 29.03C96.27 29.03 97.02 28.98 97.96 28.84C99.04 28.7 99.75 28.65 100.12 28.6C100.35 29.59 100.32 31.28 100.32 31.23C100.22 32.13 98.63 32.79 95.57 33.26C93.41 33.59 91.34 33.72 89.32 33.72C85.8 33.72 83.4 33.39 82.18 32.79C80.64 31.98 79.88 30.44 79.88 28.04C79.88 27.38 79.93 26.63 80.02 25.83C80.14 24.84 81.12 16.95 81.25 15.97C81.66 12.58 82.7 10.38 84.38 9.3C85.8 8.41 88.48 7.99 92.47 7.99C94.39 7.99 96.36 8.12 98.43 8.46C101.48 8.92 102.99 9.58 102.85 10.47C102.85 10.52 102.62 12.25 102.43 12.67"/>
</g>
<g opacity="1" fill="#d3d2d2" fill-opacity="1">
  <path d="M47.32 82.74L43.3 82.74L43.3 62.44L21.77 62.44L21.77 82.74L17.63 82.74L17.63 37.63L21.71 37.63L21.71 58.43L43.23 58.43L43.23 37.56L47.32 37.56L47.32 82.74ZM38.56 32.89L38.56 53.76L26.38 53.76L26.38 32.96L12.96 32.96L12.96 87.41L26.45 87.41L26.45 67.12L38.63 67.12L38.63 87.41L51.98 87.41L51.98 32.89L49.65 32.89L38.56 32.89Z"/>
  <path d="M69.81 81.24C69.81 81.24 69.81 81.24 69.81 81.24C69.83 81.24 69.97 81.24 69.99 81.23C69.93 81.24 69.87 81.24 69.81 81.24M84.39 70.85C83.68 85.15 70.98 84.94 69.54 84.88C69.54 84.88 69.52 84.88 69.48 84.88C69.44 84.88 69.42 84.88 69.42 84.88C55.36 84.88 54.79 71.45 54.77 70.88C54.77 70.88 54.74 45.42 54.74 37.63C55.02 37.63 56.44 37.63 58.98 37.63L58.98 71.04C58.99 71.11 58.99 71.14 58.99 71.15C59.79 79.88 66.91 81.39 69.81 81.24C77.34 81.24 79.92 74.64 80.24 71.15C80.24 71.14 80.24 71.11 80.25 71.04L80.25 37.56L84.39 37.56C84.39 57.53 84.39 68.63 84.39 70.85ZM75.58 32.89C75.58 55.63 75.58 68.26 75.58 70.79C75.49 71.57 74.74 76.58 69.81 76.58C69.81 76.58 69.79 76.58 69.75 76.58C69.69 76.58 69.66 76.59 69.65 76.59C68.74 76.64 64.21 76.6 63.65 70.78C63.65 68.26 63.65 55.65 63.65 32.96L50.07 32.96C50.09 55.75 50.1 68.41 50.1 70.95C50.26 77.41 54.49 89.54 69.42 89.54C69.4 89.54 69.3 89.54 69.29 89.54C69.62 89.55 77.44 89.92 83.2 84.72C86.81 81.49 88.77 76.89 89.06 71.05C89.06 71.05 89.06 71.03 89.06 70.99L89.06 32.89L86.73 32.89L75.58 32.89Z"/>
  <path d="M116.46 68.4C116.49 68.46 116.53 68.51 116.55 68.58C116.54 68.54 116.41 68.24 116.4 68.21C116.42 68.26 116.44 68.34 116.46 68.4M99.57 54.05C99.51 54 99.45 53.96 99.39 53.92C99.41 53.93 99.48 53.99 99.62 54.09C99.59 54.07 99.57 54.06 99.57 54.05ZM109.51 63.01C109.44 62.98 101.73 60.13 101.73 60.13C96.29 58.11 93.43 53.88 93.4 53.84C92.32 52.22 92.05 50.09 92.05 48.38C92.05 46.72 92.31 45.45 92.31 45.42C93.35 41.13 96.21 39.12 96.33 39.04C102.23 34.83 108.96 36.07 109.03 36.08C109.03 36.08 109.08 36.09 109.15 36.11C109.24 36.12 109.29 36.12 109.3 36.12C113.41 36.45 116.65 38.87 118.43 40.53C117.34 41.55 116.82 42.04 115.72 43.09C115.18 42.58 114.62 42.1 114.11 41.7C110.45 38.65 105.09 39.13 104.49 39.19C104.49 39.19 104.44 39.2 104.37 39.2C104.29 39.22 104.24 39.23 104.23 39.23C98.78 40.46 97.32 44.27 97.16 44.7C96.73 45.82 96.54 46.87 96.54 47.85C96.54 50.89 98.31 53.11 99.57 54.05C102.7 56.83 108.14 58.11 108.98 58.29C114.31 59.66 116.39 61.31 116.42 61.33C116.42 61.33 116.45 61.36 116.51 61.4C116.59 61.46 116.64 61.49 116.65 61.5C119.83 63.53 121.01 66.76 121.01 66.78C121.02 66.79 121.03 66.82 121.05 66.87C121.08 66.94 121.09 66.97 121.09 66.98C121.59 68.07 121.75 69.62 121.75 71.07C121.75 72.56 121.58 73.94 121.46 74.7C120.16 79.76 115.24 82.46 115.19 82.49C115.18 82.5 115.16 82.51 115.12 82.53C115.08 82.56 115.05 82.57 115.04 82.57C110.99 85.11 105.62 84.45 105.58 84.45C100.22 83.77 97.14 81.59 97.11 81.57C94.99 80.09 93.45 78.14 92.56 76.81C93.44 76 93.87 75.61 94.93 74.63C96.14 75.98 97.48 77.07 97.86 77.37C102.4 81.08 106.9 80.74 107.09 80.72C107.07 80.72 106.9 80.72 106.88 80.73C112.24 80.73 114.83 77.74 115.11 77.4C116.71 75.48 117.23 73.48 117.23 71.77C117.23 70.37 116.86 69.2 116.46 68.4C115.39 65.64 111.27 63.71 109.51 63.01M93.66 35.2C93.55 35.28 89.26 38.21 87.76 44.4C87.68 44.75 86.28 51.57 89.52 56.42C89.66 56.62 93.18 61.94 100.11 64.5C100.11 64.5 107.83 67.35 107.83 67.35C109.7 68.12 111.83 69.46 112.14 70.09C112.14 70.1 112.15 70.13 112.17 70.19C112.23 70.31 112.26 70.37 112.26 70.39C112.37 70.59 113.18 72.42 111.51 74.45C111.46 74.48 110.03 76.06 106.88 76.06C106.88 76.06 106.85 76.06 106.81 76.06C106.75 76.07 106.71 76.07 106.71 76.07C106.59 76.07 103.82 76.21 100.77 73.73C99.63 72.82 97.86 71.13 97.39 70.15C97.3 69.95 96.86 68.99 96.05 67.26L86.71 75.86C87.18 76.8 87.44 77.33 87.49 77.43C87.59 77.62 89.94 82.27 94.41 85.36C94.5 85.44 98.35 88.24 104.98 89.07C105.24 89.1 112.01 89.98 117.53 86.53C117.51 86.54 117.39 86.61 117.37 86.62C117.65 86.46 124.21 82.94 126 75.78C126 75.77 126.01 75.75 126.02 75.71C126.03 75.67 126.04 75.64 126.04 75.63C126.15 74.97 127.15 69.04 125.34 65.06C125.35 65.07 125.42 65.23 125.43 65.25C125.36 65.07 123.79 60.67 119.39 57.73C119.04 57.44 116.45 55.38 110.12 53.77C110.11 53.77 110.04 53.75 110.03 53.75C108.6 53.44 104.47 52.25 102.57 50.5C102.57 50.49 102.54 50.47 102.5 50.43C102.43 50.38 102.4 50.35 102.39 50.34C102.16 50.16 101.23 49.34 101.23 47.87C101.23 47.41 101.32 46.89 101.54 46.31C101.58 46.22 102.32 44.51 105.12 43.83C106.31 43.73 109.37 43.83 111.16 45.32C112.17 46.12 113.27 47.14 113.49 47.48C113.48 47.47 113.46 47.43 113.42 47.36L114.84 50.15L117.18 48.13L124.88 40.84C124.09 39.83 123.65 39.28 123.57 39.16C123.34 38.88 117.98 32.13 109.66 31.47C109.69 31.48 109.92 31.51 109.94 31.51C109.6 31.44 101.21 29.81 93.66 35.2"/>
  <path d="M157.12 42.1L144.09 42.1L144.09 83.25L139.82 83.25L139.82 42.03L126.53 42.03L126.53 37.62L157.12 37.62L157.12 42.1ZM121.86 32.96L121.86 46.69L135.14 46.69L135.14 87.92L148.77 87.92L148.77 46.76L161.79 46.76L161.79 32.96L159.46 32.96L121.86 32.96Z"/>
  <path d="M168.92 78.91L187.91 78.91L187.91 82.99L164.71 82.99L164.71 37.62L168.92 37.62L168.92 78.91ZM160.04 32.95L160.04 87.66L192.58 87.66L192.58 74.24L173.58 74.24L173.58 32.95L171.26 32.95L160.04 32.95Z"/>
  <path d="M218.57 41.71L199.65 41.71L199.65 58.23L218.45 58.23L218.45 62L199.65 62L199.65 79.11L218.7 79.11L218.7 83.06L195.63 83.06L195.63 37.36L218.57 37.36L218.57 41.71ZM190.96 32.7L190.96 87.73L223.36 87.73L223.36 74.44L204.31 74.44L204.31 66.66L223.11 66.66L223.11 53.56L204.31 53.56L204.31 46.38L223.24 46.38L223.24 32.7L220.91 32.7L190.96 32.7Z"/>
  <path d="M259.21 49.18C259.21 49.23 259.21 49.3 259.2 49.34C259.2 49.33 259.21 49.18 259.21 49.16C259.21 49.17 259.21 49.17 259.21 49.18M247.58 38.43C254.13 41.19 254.56 47.13 254.56 48.65C254.56 48.83 254.56 48.96 254.56 48.99C254.55 48.99 254.55 49.02 254.55 49.06C254.55 49.12 254.55 49.15 254.55 49.16C254.55 59.85 244.01 61.62 243.56 61.7C243.31 61.74 242.03 61.94 239.74 62.3C241.12 64.16 241.89 65.19 242.04 65.4C242.04 65.4 251.45 77.97 255.26 83.06C254.76 83.06 250.79 83.06 250.29 83.06C249.02 81.44 231.08 58.71 231.08 58.71C231.08 60.33 231.08 68.45 231.08 83.06L226.15 83.06L226.15 37.35L240.77 37.35C245.02 37.97 247.29 38.33 247.58 38.43ZM221.49 32.68L221.49 87.73L235.75 87.73C235.75 78.38 235.75 73.19 235.75 72.15C240.26 77.86 248.03 87.73 248.03 87.73C249.69 87.73 262.93 87.73 264.58 87.73C264.58 87.73 250.95 69.51 247.83 65.34C252.97 63.39 259.2 58.58 259.21 49.18C259.22 48.97 259.24 48.76 259.24 48.52C259.24 44.55 257.24 37.4 249.36 34.11C249.35 34.11 249.33 34.1 249.3 34.08C249.26 34.07 249.25 34.06 249.24 34.06C249.08 34 245.19 32.75 240.85 32.68C240.84 32.68 240.84 32.68 240.83 32.68L240.81 32.68L221.49 32.68Z"/>
  <path d="M249.8 49.96C249.81 49.95 249.81 49.88 249.81 49.75C249.81 49.84 249.81 49.92 249.8 49.96ZM245.16 49.5C245.16 49.53 245.15 49.75 245.15 49.75C245.15 52.91 241.62 53.32 240.84 53.37C240.51 53.37 238.86 53.37 235.88 53.37L235.88 46.18L240.48 46.18C243.6 47.97 245.16 49.08 245.16 49.5ZM231.21 41.62L231.21 58.04L240.99 58.04C241.03 58.04 241.05 58.04 241.05 58.04C244.09 57.89 249.81 55.96 249.81 49.75C249.81 49.65 249.82 49.54 249.82 49.44C249.82 46.74 248.02 42.33 240.87 41.63C240.86 41.63 240.82 41.63 240.75 41.62L240.65 41.62L231.21 41.62Z"/>
</g>
<g opacity="1" fill="#231f20" fill-opacity="1">
  <path d="M15.3 85.07L24.11 85.07L24.11 64.78L40.96 64.78L40.96 85.07L49.65 85.07L49.65 35.22L40.9 35.22L40.9 56.1L24.05 56.1L24.05 35.29L15.3 35.29L15.3 85.07Z"/>
  <path d="M52.43 70.94C52.43 70.94 52.83 87.21 69.42 87.21C69.42 87.21 85.88 88.11 86.73 70.94C86.73 68.56 86.73 56.65 86.73 35.22L77.91 35.22C77.91 56.65 77.91 68.56 77.91 70.94C77.91 70.94 77.19 78.91 69.81 78.91C69.81 78.91 62.09 79.5 61.32 70.94C61.32 68.56 61.32 56.68 61.32 35.29L52.4 35.29C52.42 56.68 52.43 68.56 52.43 70.94Z"/>
  <path d="M109.48 33.8C109.48 33.8 101.83 32.24 95.03 37.11C95.03 37.11 91.33 39.57 90.03 44.95C90.03 44.95 88.74 51.04 91.46 55.12C91.46 55.12 94.63 59.98 100.92 62.32C101.69 62.61 107.87 64.89 108.64 65.17C108.64 65.17 113.62 67.18 114.34 69.32C114.34 69.32 116.09 72.56 113.31 75.93C113.31 75.93 111.3 78.4 106.88 78.4C106.88 78.4 103.19 78.72 99.3 75.54C99.3 75.54 96.19 73.07 95.29 71.13C94.72 71.66 90.15 75.86 89.58 76.39C89.58 76.39 91.71 80.66 95.73 83.45C95.73 83.45 99.17 85.99 105.27 86.75C105.27 86.75 111.42 87.59 116.28 84.55C116.28 84.55 122.18 81.44 123.74 75.22C123.74 75.22 124.77 69.45 123.22 66.01C123.22 66.01 121.86 62.06 117.9 59.53C117.9 59.53 115.63 57.59 109.55 56.03C109.55 56.03 103.77 54.8 100.99 52.21C100.99 52.21 97.68 49.81 99.37 45.46C99.37 45.46 100.41 42.49 104.75 41.51C104.75 41.51 109.61 40.99 112.66 43.52C112.66 43.52 115.18 45.53 115.58 46.44C115.99 46.05 118.04 44.1 121.73 40.6C118.49 36.46 114.41 34.19 109.48 33.8Z"/>
  <path d="M124.19 44.36L137.49 44.36L137.49 85.58L146.42 85.58L146.42 44.43L159.45 44.43L159.45 35.29L124.19 35.29L124.19 44.36Z"/>
  <path d="M162.37 85.33L190.24 85.33L190.24 76.57L171.25 76.57L171.25 35.28L162.37 35.28L162.37 85.33Z"/>
  <path d="M193.29 85.39L221.04 85.39L221.04 76.77L201.98 76.77L201.98 64.33L220.78 64.33L220.78 55.91L201.98 55.91L201.98 44.04L220.9 44.04L220.9 35.03L193.29 35.03L193.29 85.39Z"/>
  <path d="M233.55 55.71C237.98 55.71 240.44 55.71 240.94 55.71C240.94 55.71 247.48 55.38 247.48 49.75C247.48 49.75 247.97 44.56 240.65 43.84C240.17 43.84 237.81 43.84 233.55 43.84L233.55 55.71ZM248.45 36.26C257.59 40.09 256.88 49.16 256.88 49.16C256.88 62.06 243.91 64.01 243.91 64.01C244.98 65.43 250.32 72.56 259.93 85.4L249.17 85.4L233.42 65.43L233.42 85.4L223.83 85.4L223.83 35.01L240.8 35.01C244.88 35.68 247.43 36.09 248.45 36.26Z"/>
</g>
</svg>
