<svg
	xmlns="http://www.w3.org/2000/svg"
	viewBox="-199.994 -151.958 1000 759.822">
<g>
	<path fill="#FFFFFF" d="M300.015,427.3l-500.009-289.569v180.544l499.99,289.589l499.99-289.589V137.731L300.015,427.3z"/>
	<path d="M300.015-151.958L800.006,137.63L300.015,427.319l-499.99-289.689L300.015-151.958z"/>
	<path d="M737.297,194.296c17.876-11.383,42.342-21.568,40.943,3.496c-0.301,5.393-2.796,10.186-6.092,14.08 c-3.596,4.193-7.988,6.49-12.881,8.388c-9.188,3.495-16.577,10.084-21.471,18.473c-5.393,9.089-6.291,19.771-6.291,23.369 c-0.099,5.091,1.498,22.966,15.679,14.28c1.597-1,3.195-2.197,4.692-3.496c3.596-3.396,6.49-7.889,7.09-13.682l-6.091,3.696 c-7.091,4.393-6.891-7.59-6.891-8.188c0.099-13.281,6.49-17.275,6.79-17.476l24.566-15.377c0.298-0.2,7.39-4.693,7.189,8.387 c-0.898,44.339-12.183,76.193-41.941,94.266c-22.567,13.481-45.935,0.102-46.034-40.941c-0.1-41.241,17.476-74.594,40.741-89.271"/>
	<path d="M101.216,418.671c9.586,4.693,13.781-2.497,12.881-13.881c-0.999-11.585-6.291-23.666-16.276-28.659 c-9.886-4.895-13.781,2.696-12.881,14.278C85.838,401.794,91.629,413.977,101.216,418.671 M98.819,329.696 c31.156,18.773,55.721,58.916,55.521,101.358c-0.3,41.142-25.164,53.024-56.321,34.252 c-28.958-17.477-54.323-56.721-54.023-100.063c0.199-42.438,24.565-53.824,54.822-35.55"/>
	<path d="M266.063,426.355c-6.491-3.795-13.182-3.694-17.775,0l-22.668,17.674l-24.865-46.333 c-2.596-4.895-8.088-13.979-16.276-18.774c-4.094-2.297-7.689-3.494-10.885-3.494c-12.283,0-12.782,16.775-12.782,18.673 l-0.4,80.389c-0.399,6.093,0,26.765,19.172,37.947c1.898,1.198,3.795,1.797,5.593,1.797c10.484,0,13.381-18.272,13.381-28.959 l0.1-13.08l19.772,32.652c1.099,2.299,2.995,4.194,5.292,5.593c2.696,1.599,5.792,1.099,8.788-1.299l15.178-10.584l-0.1,22.269 c0,14.58,1.598,34.75,15.878,42.74c3.994,2.296,7.588,3.395,10.784,3.395c9.387,0,12.782-10.086,12.782-18.773l0.5-82.681 c0-2.699-0.5-26.963-21.47-39.146"/>
	<path d="M-126.459,253.571c5.393,3.194,8.188,0.099,8.188-5.393c0-4.194-2.396-10.484-8.488-14.08l-11.384-6.59l-0.1,19.272 L-126.459,253.571 M-127.158,299.207c6.191,3.595,8.587,0,8.587-4.194c0-5.492-2.596-11.685-8.088-14.778l-11.683-6.792 l-0.1,19.173L-127.158,299.207 M-94.305,285.825c16.576,14.779,17.875,29.459,17.775,38.745 c-0.1,21.569-11.983,29.658-40.842,12.783l-39.044-22.869c-24.565-14.179-24.265-38.744-24.265-39.643l0.499-78.487 c0-0.999,0-25.664,24.566-11.384l39.044,22.867c28.859,16.777,40.542,38.446,40.342,60.016c0,9.286-1.398,22.467-18.075,17.975"/>
	<path d="M-14.442,353.978c9.787,4.196,13.581-3.294,11.983-14.578c-1.598-11.484-7.589-23.266-17.875-27.66 c-10.186-4.294-13.581,3.395-11.983,14.979C-30.719,338.001-24.228,349.785-14.442,353.978 M-14.841,266.006 c31.056,18.774,54.522,59.016,54.322,101.554c-0.298,41.142-23.966,52.924-55.121,34.051 c-28.959-17.474-56.321-57.717-56.121-100.955c0.3-42.439,26.662-52.926,56.919-34.651"/>
	<path d="M624.922,262.264c4.993-2.896,9.388-1.397,12.182,1.898l21.969,27.36l-0.099-22.967c0-0.897-2.297-25.465,13.78-34.751 c16.277-9.387,16.179,15.279,16.179,16.178l0.198,80.288c0,1.198,0.101,25.763-15.977,35.05c-3.395,1.997-6.191,1.297-9.686-2.697 L641.3,334.265l0.099,24.466c0,1.097,0.1,25.663-16.076,35.05c-16.078,9.188-16.078-15.379-16.078-16.477l-0.299-80.289 C608.945,296.116,608.945,271.551,624.922,262.264"/>
	<path d="M381.085,404.875c1.297-0.798,16.177-9.186,16.177,10.485c0.099,20.172-15.378,29.06-16.077,29.56l-27.361,15.776 l0.1,11.385l28.259-16.379c4.994-2.796,10.686-3.096,10.686,6.991c0.101,10.885-5.593,17.076-10.584,19.872l-28.36,16.377 l0.099,11.284l27.361-15.778c1.299-0.799,16.077-9.188,16.178,10.486c0,20.171-15.379,29.058-16.077,29.557l-45.336,26.164 c-21.969,12.682-21.869-11.984-21.869-13.182l-0.3-78.293c0-0.998-0.2-25.464,22.867-38.744L381.085,404.875z"/>
	<path d="M545.994,390.263l19.972-10.986l-9.386-30.155L545.994,390.263 M602.314,369.991c2.197,4.194,3.195,8.687,3.195,12.98 c0,13.782-9.187,26.862-18.174,32.055c-5.491,3.195-10.686,1.398-13.381-4.094l-3.196-8.089l-32.953,19.072l-4.294,15.179 c-2.695,8.688-7.787,16.376-13.38,19.573c-8.188,4.692-19.873,2.096-19.972-11.984c0-4.194,0.797-8.587,2.794-14.877 l33.753-104.851c1.499-4.493,5.093-14.778,15.179-20.57c10.186-5.892,15.877-0.6,17.376,2.197L602.314,369.991z"/>
	<path fill="#FFFFFF" d="M565.963,65.103L338.288-63.916l-21.37-11.983c-13.481-4.993-33.053-7.19-56.719,4.494L-53.854,111.237 c0,0-28.959,15.279-7.889,32.954l257.531,148.388c75.791,45.334,159.171,50.727,229.577,12.881 c46.333-24.766,46.333-67.105,23.268-94.468c38.044,10.386,88.274,9.387,132.009-14.079c73.498-39.544,65.31-86.575-14.679-131.815"/>
	<path d="M401.115,85.701l-37.746-21.668c-0.5-0.2-1-0.5-1.599-0.799c-6.89-4.494-12.581-3.595-16.077-2.197l-3.096,1.798 c-0.299,0.199-0.5,0.399-0.5,0.399l-0.099-0.099l-31.256,17.375l0.099,0.1c0,0-7.389,5.792,0,10.584l0.1,0.1l39.044,22.568 c19.373,11.184,39.345,12.482,56.222,3.196C423.081,107.868,420.586,96.885,401.115,85.701"/>
	<path d="M268.708,167.463l-44.237-25.864c-0.898-0.2-1.797-0.599-2.996-1.397c-5.093-3.196-9.486-3.595-12.881-3.096 l-41.741,23.167c-1.498,2.197-2.596,5.492,1.998,8.389c0,0,0,0.099,0.1,0.099l47.033,27.761 c18.374,10.784,39.943,11.184,55.221,2.796C287.782,190.23,287.182,178.347,268.708,167.463"/>
	<path d="M456.673,411.994c4.993-2.897,7.589-8.987,7.589-14.48c-0.099-4.194-2.296-10.584-8.089-7.29l-14.778,9.388v21.969 l10.686-6.49 M482.336,410.497c13.382-1.4,13.281,7.887,13.281,23.964v9.287c0,1.199,0,24.466-19.771,35.95 c-19.673,11.283-16.478-15.28-16.478-16.377v-17.376c0-9.886-2.396-10.586-4.692-9.287l-9.987,7.19l0.1,29.856 c0,1.199-0.398,24.067-19.571,35.15c-18.973,10.985-19.673-11.283-19.673-12.481l-0.299-80.188c0-0.999-0.199-25.465,22.668-38.645 l36.148-21.37c26.963-15.578,34.451-4.993,34.451,16.578C498.612,381.736,497.313,395.715,482.336,410.497"/>
</g>
</svg>
