<svg
	xmlns="http://www.w3.org/2000/svg"
	viewBox="0 0 512 228.6">
<style type="text/css">
	.st0{opacity:0.5;fill:#009CB5;}
	.st1{fill:#009CB5;}
	.st2{fill:#FFFFFF;}
</style>
<g>
	<polygon class="st0" points="190.4,124.4 500,88.3 512,192.5 202.2,228.6"/>
	<rect x="208.4" y="105" class="st1" width="283.3" height="105.3"/>
	<g>
		<path id="path1210" d="M0,0h420v105H0V0z"/>
		<path id="path1212" class="st2" d="M66.7,80.9c0,0.5-0.5,1.1-0.5,1.1s-0.5,0.5-1.1,0.5c-8.4,3.7-17.9,2.6-17.9,2.6 C32,83,22.1,73.5,18.9,62c-4.2-18.4,4.7-31.5,6.8-34.1c5.8-6.3,14.2-11,22.1-12.1c10.5-1.6,18.4,1.1,21.5,2.1c0,0,3.7,1.1,6.3,3.2 c1.1,0.5,1.6,1.1,1.6,1.1s0,0-0.5,1.6c-2.1,13.1-2.1,13.1-2.1,13.1c0,0.5-0.5,1.1-0.5,1.1s-0.5,0-1.6-1.1 C64.6,31.5,55.1,32,55.1,32c-6.8,0.5-15.2,4.2-17.9,13.1c-2.1,8.4,0.5,15.8,5.3,20c3.2,2.6,8.4,4.2,14.2,4.2 c5.8-0.5,10.5-3.2,10.5-3.2s0,0,0.5,0c1.1-0.5,1.6-0.5,1.6-0.5s0,0,0,1.1L66.7,80.9z M111.8,36.8L111.8,36.8 c-8.9,20-8.9,20-8.9,20v0.5c0,0,0,0,0.5,0c13.1,0,13.1,0,13.1,0l0,0c0,0,0,0,0-0.5C111.8,36.8,111.8,36.8,111.8,36.8L111.8,36.8 M258.8,36.2c0,0,0,0-0.5,0.5c-8.4,20-8.4,20-8.4,20c-0.5,0.5-0.5,0.5-0.5,0.5l0.5,0.5c13.1,0,13.1,0,13.1,0l0,0v-0.5 c-4.2-20.5-4.2-20.5-4.2-20.5C258.8,36.2,258.8,36.2,258.8,36.2 M138.6,83c-15.8,0-15.8,0-15.8,0h-0.5c0,0,0,0,0-1.1 c-2.6-10-2.6-10-2.6-10v-0.5c-0.5,0-0.5,0-0.5,0c-22.1,0-22.1,0-22.1,0c-0.5,0-0.5,0.5-0.5,0.5s-0.5,0.5-0.5,1.1 c-4.7,9.5-4.7,9.5-4.7,9.5c0,0.5,0,0.5,0,0.5s0,0-0.5,0c-18.4,0-18.4,0-18.4,0c-0.5,0-0.5,0-0.5,0s0-0.5,0-1.1 c31.5-63.5,31.5-63.5,31.5-63.5c0.5-0.5,0.5-0.5,0.5-0.5c0.5,0,0.5,0,0.5,0c20.5,0,20.5,0,20.5,0c0.5,0,0.5,0,0.5,0s0.5,0,0.5,0.5 c13.7,64.1,13.7,64.1,13.7,64.1c0,0.5-0.5,0.5-0.5,0.5S139.1,83,138.6,83 M209.5,83c-16.3,0-16.3,0-16.3,0c-0.5,0-0.5,0-0.5,0l0,0 c-22.6-39.9-22.6-39.9-22.6-39.9l0,0h-0.5c-5.8,39.4-5.8,39.4-5.8,39.4c0,0.5,0,0.5,0,0.5s0,0-0.5,0C147,83,147,83,147,83l0,0 c0,0-0.5-0.5-0.5-1.1c8.9-63,8.9-63,8.9-63c0-0.5,0-0.5,0-0.5s0.5-0.5,1.1-0.5c17.9,0,17.9,0,17.9,0l0.5,0.5c0,0,0,0,0,0.5 c20.5,35.2,20.5,35.2,20.5,35.2c0.5,0.5,0.5,0.5,0.5,0.5s0.5,0,0.5-1.1c5.3-35.2,5.3-35.2,5.3-35.2v-0.5c0,0,0,0,0.5,0 c17.3,0,17.3,0,17.3,0l0,0c0,0,0,0,0,0.5c-8.9,64.1-8.9,64.1-8.9,64.1c0,0.5,0,0.5,0,0.5S210,83,209.5,83 M285.6,83 c-16.3,0-16.3,0-16.3,0c-0.5,0.5-0.5,0-0.5,0s0,0-0.5-0.5c-2.1-10-2.1-10-2.1-10c0-1.1-0.5-1.1-0.5-1.1s0,0-1,0c-21,0-21,0-21,0 h-0.5c0,0-0.5,0.5-0.5,1.1c-4.7,10-4.7,10-4.7,10c-0.5,0-0.5,0.5-0.5,0.5s0,0-0.5,0c-18.4,0-18.4,0-18.4,0h-0.5c0,0,0-0.5,0.5-1.1 c32-64.1,32-64.1,32-64.1l0.5-0.5c0,0,0,0,0.5,0c20,0,20,0,20,0c0.5,0,0.5,0.5,0.5,0.5l0,0c13.7,64.6,13.7,64.6,13.7,64.6 C285.6,83,285.6,83,285.6,83L285.6,83 M331.8,81.9c0,1.1,0,1.1,0,1.1s0,0-0.5,0c-36.8,0-36.8,0-36.8,0c-1,0-1,0-1,0 s-0.5-0.5,0-1.6c8.9-62.5,8.9-62.5,8.9-62.5c0-1.1,0-1.1,0-1.1c1.1,0,1.1,0,1.1,0c16.8,0,16.8,0,16.8,0c0.5,0,0.5,0,0.5,0 s0,0,0,0.5C314,67.7,314,67.7,314,67.7c0,0.5,0.5,0.5,0.5,0.5s0,0,0.5,0c18.4,0,18.4,0,18.4,0c0.5,0,0.5,0.5,0.5,0.5s0,0,0,0.5 L331.8,81.9z M402.2,57.2c0,0,0,0.5-0.5,0.5c-22.6,0-22.6,0-22.6,0c-0.5,0-0.5,0-0.5,0s-0.5,0-0.5,0.5c0,24.2,0,24.2,0,24.2 c0,0.5,0,0.5,0,0.5s0,0-0.5,0c-17.9,0-17.9,0-17.9,0h-0.5c0,0,0,0,0-0.5c0-24.2,0-24.2,0-24.2c0-0.5,0-0.5,0-0.5s0,0-0.5,0 c-23.1,0-23.1,0-23.1,0c-0.5,0-0.5,0-0.5,0s0-0.5,0-1.1c0-17.9,0-17.9,0-17.9l0,0l0,0c24.2,0,24.2,0,24.2,0l0,0c0-0.5,0-0.5,0-0.5 c0-21.5,0-21.5,0-21.5l0,0c0,0,0.5,0,1.1,0c17.3,0,17.3,0,17.3,0c0.5,0,0.5,0,0.5,0s0,0,0,0.5c0,21,0,21,0,21 c23.1,0,23.1,0,23.1,0c1.1,0,1.1,0.5,1.1,0.5s0,0,0,0.5c0,17.3,0,17.3,0,17.3C402.2,57.2,402.2,57.2,402.2,57.2"/>
	</g>
	<path id="path1473" class="st2" d="M229.8,186.2h22.9c17.2,0,31.5-13.6,31.5-31s-14.2-31-31.5-31h-22.9V186.2z M246,137.9h3.8 c10.4,0,17.7,6.2,17.7,17.3c0,12.1-8.2,17.3-17.9,17.3H246V137.9z"/>
	<path id="path1475" class="st2" d="M315.6,142.9c-13.2,0-24.6,8.1-24.6,22.3s11.6,22.2,24.6,22.2c13.2,0,24.6-8.1,24.6-22.2 C340.3,150.9,328.8,142.9,315.6,142.9z M315.6,155.7c5.9,0,9.3,4.3,9.3,9.4c0,5.3-3.4,9.4-9.3,9.4c-5.9,0-9.3-4.1-9.3-9.4 C306.3,160,309.7,155.7,315.6,155.7z"/>
	<path id="path1477" class="st2" d="M363.1,144.8h-14.9v41.4h14.9v-19.8c0-4.6,0-11.6,6.6-11.6s6.6,7,6.6,11.6v19.8h14.9v-19.8 c0-4.9,0.2-11.3,7.1-11.3c6.3,0,6.1,7,6.1,11.3v19.8h14.9v-26.4c0-9.5-3.7-16.4-14.3-16.4c-5.7,0-11.3,2.7-14.2,7.9 c-3-5.5-8.2-7.9-14.3-7.9c-5.4,0-9.7,1.9-13.2,6.5h-0.2V144.8z"/>
	<path id="path1493" class="st2" d="M452.1,143c-13.2,0-24.8,8-24.8,22.2c0,14.2,11.6,22.2,24.8,22.2c13.2,0,24.8-8,24.8-22.2 C476.9,151,465.3,143,452.1,143z M452.1,155.8c5.9,0,9.4,4.3,9.4,9.4c0,5.3-3.5,9.3-9.4,9.3c-5.9,0-9.4-4.1-9.4-9.3 C442.7,160.1,446.1,155.8,452.1,155.8z"/>
</g>
</svg>
