<svg
  xmlns="http://www.w3.org/2000/svg"
  viewBox="0 0 1274.9 762.98882">
<g>
  <path fill="White"
    d="M 637.44,-0.00579488 H 1274.9 L 1274.89,637.27421 H 637.44 Z" />
  <path
    d="m 683.23,45.6639 h 182.04 l 182.23,227.81 v -227.81 h 181.89 l 0.01,546.18 h -181.9 l -182.23,-227.43 v 227.43 H 683.18 Z" />
  <path
    d="M -9.375e-6,-0.00610044 H 637.43999 V 637.2739 H -9.375e-6 Z" />
  <path fill="White"
    d="m 583.88,177.8439 -158.32,90.57 c -23.198,-37.236 -56.225,-51.485 -86.998,-51.743 -56.041,-0.46952 -104.37,44.52 -104.34,101.91 -0.0277,59.036 48.455,101.86 101.49,102.76 31.702,0.53411 70.275,-17.124 89.872,-52.135 l 158.31,90.804 c -57.55,99.2 -156.21,143.99 -248.4,143.83 -146.18,-0.24 -283.7,-117.11 -283.68,-285.01 -0.005,-167.02 138.07,-285.92 284.23,-284.98 94.79,0.617 191.43,45.212 247.84,143.99 z" />
</g>
<g>
  <path
    d="m 72.903,683.4939 c 10.013,2.8153 18.432,9.8236 23.873,18.599 l -20.96,11.989 c -3.6539,-5.0915 -9.6713,-8.7454 -16.13,-7.777 -6.3793,0.61897 -11.97,5.472 -13.647,11.642 -2.5857,10.952 5.2512,20.046 14.835,20.516 5.361,0.15973 11.079,-2.2063 14.942,-7.9168 l 20.96,12.1 c -6.9184,11.441 -19.17,19.198 -32.528,20.326 -24.769,0.76268 -46.124,-18.207 -42.709,-47.091 4.6017,-25.044 27.903,-38.894 51.364,-32.386 z"/>
  <path
    d="m 400.01172,681.99585 c -7.81605,-0.55043 -15.85497,1.13232 -23.08008,5.32227 -19.26652,11.17281 -25.92977,36.22712 -14.75781,55.49414 11.17181,19.26757 36.22832,25.93318 55.49609,14.76172 18.43283,-10.68627 25.14531,-34.03055 15.92969,-52.9082 a 12.973297,12.973297 0 0 0 -1.16016,-2.57032 c -0.003,-0.006 -0.005,-0.0119 -0.008,-0.0176 a 12.973297,12.973297 0 0 0 -0.004,-0.004 12.973297,12.973297 0 0 0 -1.69921,-2.3457 c -7.18012,-10.53534 -18.61242,-16.88 -30.7168,-17.73243 z m -1.67969,25.75 c 4.67335,0.29927 9.06719,2.88069 11.6543,7.3418 a 12.973297,12.973297 0 0 0 0.002,0.002 12.973297,12.973297 0 0 0 0.002,0.004 c 4.13542,7.13769 1.80316,15.89746 -5.33398,20.03516 -7.13811,4.13867 -15.90026,1.80795 -20.03906,-5.33008 -4.13886,-7.13782 -1.80756,-15.89794 5.33008,-20.03711 v -0.002 c 2.67667,-1.55224 5.58075,-2.19323 8.38476,-2.01367 z"/>
  <path
    d="m 1051.2012,681.99585 c -7.8161,-0.55043 -15.855,1.13232 -23.0801,5.32227 -19.2665,11.17281 -25.9298,36.22712 -14.7578,55.49414 11.1718,19.26757 36.2283,25.93318 55.4961,14.76172 18.4354,-10.68776 25.1491,-34.03699 15.9277,-52.91602 a 12.973297,12.973297 0 0 0 -1.1562,-2.5625 c 0,-0.006 0,-0.0119 -0.01,-0.0176 a 12.973297,12.973297 0 0 0 0,-0.004 12.973297,12.973297 0 0 0 -1.7011,-2.34766 c -7.1802,-10.53417 -18.6132,-16.87809 -30.7168,-17.73047 z m -1.6797,25.75 c 4.6733,0.29927 9.0672,2.88069 11.6543,7.3418 a 12.973297,12.973297 0 0 0 0,0.002 12.973297,12.973297 0 0 0 0,0.004 c 4.1354,7.13769 1.8051,15.89746 -5.332,20.03516 v 0 c -7.1381,4.13867 -15.8983,1.80795 -20.0371,-5.33008 -4.1389,-7.13782 -1.8095,-15.89794 5.3281,-20.03711 v -0.002 c 2.6767,-1.55224 5.5808,-2.19323 8.3848,-2.01367 z"/>
  <path
    d="m 161.63,683.5239 h -38.872 l -24.344,77.824 h 27.36 l 3.999,-13.052 h 24.925 l 3.924,13.052 h 27.352 z m -19.43,21.47 6.952,24.15 h -13.92 z"/>
  <path
    d="m 193.82,683.5239 v 77.824 h 25.776 l 1e-5,-22.752 h 8.4 l 11.552,22.752 h 28.672 l -15.024,-25.527 c 11.571,-7.4186 15.533,-16.611 15.096,-25.85 0.01,-13.95 -12.556,-26.057 -26.296,-26.447 z m 42.926,22.697 c 3.3208,0.0436 5.7439,3.2743 5.89,6.0375 0.085,3.9525 -2.9236,6.9164 -5.915,6.9875 l -17.125,0.025 v -13.05 z"/>
  <path
    d="m 275.41,706.2439 v -22.722 h 77.98 v 22.722 h -24.4 v 55.102 h -29.164 v -55.102 z"/>
  <path
    d="m 533.71,683.5239 h 25.722 l 26.35,32.362 v -32.362 h 25.74 v 77.824 h -25.74 l -26.35,-32.432 v 32.432 H 533.71 Z"/>
  <path
    d="m 664.17,683.5239 h 25.72 l 26.35,32.362 v -32.362 h 25.738 v 77.824 H 716.24 l -26.35,-32.432 v 32.432 h -25.72 z"/>
  <path
    d="m 753.17,683.5239 h 67.96 l -3.9e-4,22.704 h -42.22 v 7.968 h 35.55 v 18.18 h -35.55 v 8.1896 h 42.22 l -3.9e-4,20.782 h -67.96 z"/>
  <path
    d="m 829.73,706.2439 v -22.722 h 77.98 v 22.722 h -24.4 v 55.102 h -29.164 v -55.102 z"/>
  <path
    d="m 914.22,683.5239 h 26.16 c 0,0 6.5422,33.983 6.57,34.122 l 12.892,-31.338 13.128,31.268 6.57,-34.052 h 25.92 l -14.82,77.824 h -21.57 l -9.23,-21.009 -9.34,21.009 h -21.21 c 0,0 -14.789,-76.068 -15.07,-77.824 z"/>
  <path
    d="m 1096.6,683.5239 v 77.824 h 25.775 l 0.05,-22.752 h 8.35 l 11.55,22.752 H 1171 l -15.025,-25.527 c 11.571,-7.4186 15.537,-16.611 15.1,-25.85 0.01,-13.95 -12.56,-26.057 -26.3,-26.447 z m 42.925,22.697 c 3.3207,0.0436 5.7414,3.2743 5.8875,6.0375 0.085,3.9525 -2.9211,6.9164 -5.9125,6.9875 l -17.125,0.025 v -13.05 z"/>
  <path
    d="m 1179.4,761.3439 v -77.824 h 26.03 v 25.212 l 19.41,-25.212 h 33.19 l -30.12,37.102 30.12,40.722 h -33.19 l -19.41,-28.962 v 28.962 z"/>
  <path
    d="m 487.98242,681.99585 c -7.81604,-0.55043 -15.85497,1.13232 -23.08008,5.32227 -19.26652,11.17281 -25.92977,36.22712 -14.75781,55.49414 11.17181,19.26757 36.22637,25.93318 55.49414,14.76172 18.43283,-10.68627 25.14726,-34.03055 15.93164,-52.9082 a 12.973297,12.973297 0 0 0 -1.16015,-2.57032 c -0.003,-0.006 -0.005,-0.0119 -0.008,-0.0176 a 12.973297,12.973297 0 0 0 -0.004,-0.004 12.973297,12.973297 0 0 0 -1.70117,-2.34766 c -7.18022,-10.53417 -18.61121,-16.87809 -30.71485,-17.73047 z m -1.67969,25.75 c 4.67335,0.29927 9.06524,2.88069 11.65235,7.3418 a 12.973297,12.973297 0 0 0 0.002,0.002 12.973297,12.973297 0 0 0 0.002,0.004 c 4.13542,7.13769 1.80511,15.89746 -5.33203,20.03516 -7.1381,4.13867 -15.90025,1.80795 -20.03906,-5.33008 -4.13886,-7.13782 -1.80951,-15.89794 5.32813,-20.03711 v -0.002 c 2.67667,-1.55224 5.58271,-2.19323 8.38671,-2.01367 z"/>
</g>
</svg>
