<svg
  xmlns="http://www.w3.org/2000/svg"
  viewBox="0 0 999 427">
<g fill="#b5a867">
  <path d="M918.63 318.03L951.48 384.02L951.48 425.19L963.58 425.19L963.58 384.02L996.36 318.03L982.62 318.03L957.95 367.28L933.39 318.03L918.63 318.03Z"/>
  <path d="M839.14 318.03L839.14 425.19L852.96 425.19L852.96 378.37L865.34 378.88L877.72 379.39L897.04 425.14L912.78 425.16L891.44 377.66C894.81 375.89 896.68 374.9 897.06 374.7C914.98 365.26 919.68 343.3 907.01 328.24C899.53 319.36 894.09 318.03 865.12 318.03C861.65 318.03 852.99 318.03 839.14 318.03ZM852.96 330.13C863.38 330.13 869.18 330.13 870.33 330.13C891.39 330.13 896.87 332.32 899.73 341.89C902.52 351.18 898.52 360.44 890.24 363.9C886.44 365.48 878.37 366.43 868.57 366.43C867.53 366.43 862.33 366.43 852.96 366.43L852.96 348.28L852.96 330.13Z"/>
  <path d="M774.73 318.03L735.56 425.19L750.31 425.19L757.55 402.69L803.32 402.69L810.56 425.19L825.31 425.19L786.13 318.03L774.73 318.03ZM780.43 338.43L797.78 388.09L763.08 388.09L780.43 338.43Z"/>
  <path d="M668.02 318.03L668.02 330.13L699.13 330.13L699.13 425.19L712.96 425.19L712.96 330.13L744.07 330.13L744.07 318.03L668.02 318.03Z"/>
  <path d="M579.87 318.03L579.87 426.06L592.84 426.06L594.56 343.7L646.62 426.06L660.24 426.06L661.16 318.03L647.28 318.03L647.19 403.59L592.84 318.06L579.87 318.03Z"/>
  <path d="M495.18 318.03L495.18 425.19L562.59 425.19L562.59 413.09L509.01 413.09L509.01 376.8L554.81 376.8L554.81 364.6C527.33 364.6 512.06 364.6 509.01 364.6C509.01 353.11 509.01 341.62 509.01 330.13C512.58 330.13 530.44 330.13 562.59 330.13L562.59 318.03L495.18 318.03Z"/>
  <path d="M379.37 318.03L379.37 425.19L391.41 425.19L392.34 350.01L419.64 409.64L432.5 409.64L458.82 350.01L458.88 425.19L472.71 425.19L472.71 318.03L459.26 318.03L427.06 392.01L392.59 318.03L379.37 318.03Z"/>
  <path d="M284.31 318.03C284.32 341.11 284.32 353.92 284.32 356.49C284.33 378.61 285.12 397.79 286.19 401.65C288.61 410.35 298.9 421.23 307.65 424.32C327.58 431.38 349.05 423.14 357.14 405.33C359.89 399.27 360.29 393.34 360.32 358.22C360.33 355.54 360.34 342.14 360.36 318.03L353.45 318.03L346.53 318.03C346.53 341.42 346.53 354.41 346.53 357.01C346.53 399.23 345.97 402.3 336.83 409.48C330.8 414.23 316.74 414.41 309.23 409.84C299.17 403.7 298.14 398.72 298.14 356.23C298.14 353.68 298.14 340.95 298.14 318.03L291.22 318.03L284.31 318.03Z"/>
  <path d="M202.89 336.42C200.94 340.38 199.91 343.01 199.36 347.99C199.35 347.99 199.27 347.97 199.26 347.96C198.83 352.68 198.75 359.58 198.75 371.32C198.75 371.54 198.76 371.69 198.76 371.9C198.76 372.11 198.75 372.26 198.75 372.47C198.75 372.59 198.75 372.66 198.75 372.77C198.76 372.77 198.76 372.77 198.76 372.77C198.77 396.97 199.13 399.74 202.89 407.38C209.41 420.62 223.48 427.2 237.44 426.85C249.76 426.54 262.01 420.84 268.92 409.58C269.14 409.22 270.25 407.41 272.24 404.16L259.4 398.38C257.52 401.47 256.47 403.19 256.26 403.54C247.28 418.3 222.94 416.12 214.74 399.81C212.76 395.85 211.67 384.09 211.58 372.37C211.62 360.34 212.7 348.05 214.74 343.99C222.94 327.68 247.28 325.5 256.26 340.26C256.47 340.61 257.52 342.33 259.4 345.42L272.24 339.64C270.25 336.39 269.14 334.58 268.92 334.22C262.01 322.96 249.76 317.26 237.44 316.95C223.48 316.6 209.41 323.18 202.89 336.42Z"/>
  <path d="M112 340.18C107.93 350.72 107.48 393.25 111.34 402.72C115.65 413.31 120.39 418.57 129.44 422.78C145.71 430.36 163.33 427.58 174.84 415.64C184.37 405.73 186.33 396.72 185.54 366.42C184.97 344.67 184.61 342.55 180.19 335.03C172.88 322.6 159.86 316.68 146.95 316.85C132.33 317.03 117.85 325.02 112 340.18ZM162.69 335.46C170.34 342.51 171.96 348.89 171.96 371.87C171.96 389.8 171.41 394.12 168.33 400.5C166.33 404.62 162.64 409.05 160.12 410.34C143.77 418.69 128.29 411.63 123.44 393.6C122.31 389.43 121.78 378.32 122.17 367.32C122.93 345.84 125.36 339.12 134.45 333.41C137.82 331.29 142.43 330.3 147.09 330.34C153.07 330.4 159.12 332.16 162.69 335.46Z"/>
  <path d="M19.86 318.03L19.86 425.19C33.48 425.19 41.05 425.19 42.56 425.19C69.17 425.19 77.09 423.27 85.62 414.74C94.63 405.73 96.35 397.56 95.64 366.95C95.07 341.97 94.88 340.85 90.18 333.76C86.82 328.67 82.56 325.13 76.36 322.24C68.26 318.47 65.11 318.06 43.63 318.05C40.46 318.05 32.54 318.04 19.86 318.03ZM33.69 329.8C43.47 330.15 48.9 330.35 49.99 330.39C68.18 331.06 73.16 333.38 79.49 344.14C82.45 349.16 82.95 353.11 82.95 371.61C82.95 396.52 80.29 404.36 69.93 409.91C65.46 412.31 60.26 413.09 48.84 413.09C47.83 413.09 42.78 413.09 33.69 413.09L33.69 329.8Z"/>
  <path d="M752.62 261.69C752.62 106.7 752.62 20.59 752.62 3.36C779.72 3.36 794.79 3.36 797.8 3.36C803.7 3.36 805.04 6.45 807.6 9.52C816.38 19.82 860.31 71.29 939.37 163.92C939.37 153.22 939.37 99.7 939.37 3.36L998.15 3.36C998.15 158.36 998.15 244.47 998.15 261.69C970.88 261.69 955.72 261.69 952.69 261.69C947.33 261.69 945.78 258.96 942.22 255.07C933.46 244.63 889.66 192.49 810.82 98.64C810.82 109.51 810.82 163.86 810.82 261.69L752.62 261.69Z"/>
  <path d="M583.87 261.69L583.87 53.13L499.5 53.13L499.5 3.36L727.02 3.36L727.02 53.13L644.06 53.13L644.06 261.69L583.87 261.69Z"/>
  <path d="M480.74 22.73C478.33 27.37 458.95 64.49 456.52 69.13C456.52 69.13 425.51 54.13 389.19 54.13C332.84 54.13 304.12 89.88 304.12 134.66C304.12 178.13 333.72 211.3 387.73 211.3C411.71 211.3 430.29 201.98 430.29 201.98C430.29 197.23 430.29 173.53 430.29 130.87C462.14 130.87 479.84 130.87 483.38 130.87C484.93 130.87 486.22 132.03 486.22 133.71C486.22 143.85 486.22 225.01 486.22 235.15C486.22 235.15 451.14 265.31 383.89 265.31C302.52 265.31 242.79 210.59 242.79 133.55C242.79 59.56 299.12 0 386.21 0C438.76 0 461.84 18.19 480.74 22.73Z"/>
  <path d="M141.49 265.47C49.04 265.47 0.85 201.49 0.85 133.85C0.85 66.01 50.33 0.08 143.96 0.08C195.43 0.08 233.68 23.37 233.68 23.37C231.24 28.06 211.65 65.63 209.2 70.32C209.2 70.32 181.04 54.05 147.17 54.05C94.69 54.05 62.07 87.94 62.07 133.25C62.07 175.44 92.1 211.25 145.76 211.25C184.14 211.25 217.49 190.22 217.49 190.22C217.49 190.22 233.68 234.96 235.48 239.93C235.48 239.93 194.36 265.47 141.49 265.47Z"/>
</g>
</svg>
