<svg
  xmlns="http://www.w3.org/2000/svg"
  viewBox="0 0 999 265.92">
<g fill="#bfae62">
  <path d="M235.03 240.34C235.03 240.34 193.84 265.92 140.88 265.92C48.27 265.92 0 201.83 0 134.08C0 66.12 49.56 0.08 143.35 0.08C194.91 0.08 233.23 23.41 233.23 23.41C230.78 28.11 211.16 65.74 208.71 70.44C208.71 70.44 180.5 54.14 146.57 54.14C94 54.14 61.32 88.09 61.32 133.48C61.32 175.74 91.41 211.61 145.16 211.61C183.6 211.61 217.01 190.54 217.01 190.54C217.01 190.54 233.23 235.36 235.03 240.34Z"/>
  <path d="M386.02 0C438.66 0 480.71 22.77 480.71 22.77C478.29 27.42 458.88 64.6 456.45 69.25C456.45 69.25 425.38 54.22 389 54.22C332.56 54.22 303.79 90.03 303.79 134.89C303.79 178.43 333.44 211.66 387.54 211.66C411.56 211.66 430.17 202.32 430.17 202.32C430.17 197.57 430.17 173.83 430.17 131.09C462.08 131.09 479.81 131.09 483.35 131.09C484.91 131.09 486.2 132.25 486.2 133.94C486.2 144.1 486.2 225.39 486.2 235.55C486.2 235.55 451.06 265.76 383.69 265.76C302.18 265.76 242.35 210.95 242.35 133.78C242.35 59.66 298.78 0 386.02 0Z"/>
  <path d="M584.01 262.14L584.01 53.22L499.5 53.22L499.5 3.37L727.41 3.37L727.41 53.22L644.31 53.22L644.31 262.14L584.01 262.14Z"/>
  <path d="M753.05 262.14L753.05 3.37C780.2 3.37 795.29 3.37 798.31 3.37C804.22 3.37 805.56 6.46 808.12 9.54C816.92 19.85 860.92 71.41 940.12 164.2L940.12 3.37L999 3.37L999 262.14C971.68 262.14 956.5 262.14 953.46 262.14C948.09 262.14 946.54 259.4 942.97 255.5C934.2 245.05 890.32 192.82 811.35 98.81L811.35 262.14L753.05 262.14Z"/>
</g>
</svg>
