<svg
	xmlns="http://www.w3.org/2000/svg"
	viewBox="0 0 1000 311.8330383">
<g fill="#010101">
	<polygon points="421.400238,214.2575836 425.2869873,186.2802429 373.5102539,192.6230011 375.1605835,181.5489044 423.4167786,175.6089935 426.8637085,151.0044556 378.6072693,156.9074402 380.037384,146.5674286 431.850769,140.186615 435.8477173,112.2081528 351.5822144,122.5492859 337.1713867,224.5987091"/>
	<polygon points="260.8231506,233.9774628 268.0469055,183.2285919 297.5288086,229.4676971 326.9004822,225.8744202 341.2746582,123.8238831 308.5293274,127.8211212 301.6357117,176.5176544 273.4004211,132.1484833 242.4886627,135.962204 228.0775452,238.0116272"/>
	<path d="M607.4622803,129.8208618l5.6469727,23.6510925l-18.0776367,2.200058L607.4622803,129.8208618z M464.0499878,209.0249023l7.1135254-50.6022644l17.5645752,33.5513153l0.5866699-0.0727386l27.8318481-39.1264191 l-7.0771179,50.6033936l30.1784973-3.7029419l2.6767578-0.3301086l33.3322754-4.1069183l6.9672241-14.3014374l34.5786133-4.2535095 l3.3369751,13.0548248l26.4017334-3.264267l8.7271729-1.0630951l29.5185547-3.630188l20.0944824-30.8018341l15.4744873,26.474472 l35.7155762-4.4001007l-30.4353638-47.5595856l36.7056885-53.5006104l-38.2457275,4.6944122l-17.1245728,26.438652 l-14.2272949-22.5891266l-35.7158203,4.364296l28.9685059,44.002121l-33.0387573,48.2567444l-24.7514038-88.5559311 l-32.7453613,4.0341644l-52.5835571,100.1425705l13.4577026-95.4862061l-36.2658691,4.437027l-26.2182007,38.4661865 l-16.0977783-33.2592468l-32.6354065,3.9972382l-14.374176,102.0494232L464.0499878,209.0249023z"/>
	<path d="M112.882103,252.194458c0.036644,0,0.036644,0,0.036644,0l61.6039276-7.5535889l4.2534943-28.5279083 l-41.8759155,5.1330719c-5.5370636,0.6971741-10.5241013-1.0630951-9.5340271-8.2138062l3.6668396-25.8511505 c1.1000366-8.2507477,8.0305786-10.4138794,15.3276215-11.330368l38.7590942-4.7313385l4.1069183-28.6017761l-68.204361,8.3973389 c-9.4970856,1.1369629-16.8676987,7.2245789-19.1044006,16.1344452l-9.7539139,70.0379181 C91.2106018,246.2176208,100.5244446,253.6984558,112.882103,252.194458"/>
	<polygon points="217.9165955,239.2470551 232.3274231,137.1976318 199.28862,141.2318115 184.8777924,243.2812347"/>
	<path d="M929.302124,133.7688599l-3.7401123,25.888092l-88.0056763,10.7809143l3.5935669-24.5687256 l51.9232788-43.708931c8.8740845-7.7001724,11.4775391-12.8343658,10.8173218-18.0782318 c-0.6599731-5.537056-4.9134521-8.5797501-11.8806763-7.7001801c-7.9203491,0.9534302-15.9875488,7.4069901-23.5047607,16.8674316 l-20.241394-16.6469727c10.0107422-14.1179237,23.6516724-24.8249817,43.3427124-27.2085571 c24.0917358-2.9699554,40.5926514,8.3604126,42.9029541,26.9153671 c1.6500244,13.6400833-3.6304932,25.7045517-24.4581909,42.2787857l-24.9718628,20.6084061L929.302124,133.7688599z M778.3726196,207.9506226L6.9302697,304.9766235l25.4116421-180.595459l771.4057007-97.0260162L778.3726196,207.9506226z M808.6980591,20.6811428v0.0738564L27.0616798,119.0645676L0,311.8330383l781.8928833-98.3453674v0.0358124l191.2286987-23.57724 L1000,0L808.6980591,20.6811428z"/>
</g>
</svg>
