<svg
  xmlns="http://www.w3.org/2000/svg"
  viewBox="0 0 998.13 346">
<g>
  <path fill="#010101"
    d="M719.99 132.11L726.7 160.43L705.1 163.07L719.99 132.11ZM998.12 0L966.18 227.36L0 346L31.94 118.64L998.12 0ZM862.64 126.94L906.58 62.9L860.77 68.52L840.3 100.17L823.29 73.11L780.53 78.36L815.2 131.05L775.61 188.79L745.99 82.8L706.81 87.6L643.82 207.5L659.98 93.17L616.56 98.5L585.15 144.56L565.87 104.73L526.85 109.53L509.6 231.67L548.29 226.95L556.79 166.37L577.83 206.49L578.52 206.4L611.88 159.61L603.38 220.16L639.51 215.72L642.72 215.35L682.6 210.43L690.98 193.3L732.36 188.22L736.3 203.84L767.96 199.98L778.42 198.67L813.73 194.36L837.78 157.42L856.33 189.11L899.05 183.86L862.64 126.94ZM446 164.54L447.71 152.17L509.76 144.56L514.56 111.03L413.66 123.4L396.45 245.59L497.23 233.22L501.91 199.69L439.94 207.3L441.9 194.04L499.67 186.96L503.78 157.46L446 164.54ZM265.8 261.62L305.02 256.81L313.69 196.07L348.93 251.4L384.08 247.09L401.33 124.95L362.15 129.75L353.85 188.05L320.04 134.92L283.05 139.47L265.8 261.62ZM270.89 140.94L231.38 145.78L214.13 267.96L253.64 263.12L270.89 140.94ZM103.1 260.56C101.96 271.46 113.15 280.41 127.92 278.62C127.96 278.62 127.96 278.62 128 278.62C132.91 278.02 157.47 274.99 201.68 269.55L206.77 235.41C176.72 239.1 160.02 241.15 156.68 241.56C150.05 242.37 144.07 240.3 145.25 231.75C145.69 228.66 149.2 203.89 149.64 200.79C150.94 190.94 159.29 188.3 167.99 187.24C171.09 186.86 186.56 184.98 214.42 181.58L219.3 147.33C170.33 153.36 143.12 156.71 137.68 157.38C126.29 158.76 117.46 166 114.81 176.7C112.47 193.47 105.44 243.79 103.1 260.56Z"/>
</g>
</svg>
