<svg
  xmlns="http://www.w3.org/2000/svg"
  viewBox="0 0 1000 906.54">
<g fill="#bff60f" stroke="#000000" stroke-width="2">
  <path d="M519.35 829.18L500.61 845.06C510.15 845.34 515.44 845.5 516.5 845.53C538.75 846.19 540.42 844.86 540.49 826.62C540.56 810.13 542.04 809.95 519.35 829.18"/>
  <path d="M411.04 859.68L411.04 906.53L429.89 906.53L448.74 906.53L448.74 874.72L448.74 842.91C438.38 834.21 432.62 829.38 431.47 828.41C421.97 820.44 413.49 813.67 412.62 813.37C411.63 813.02 411.04 830.32 411.04 859.68"/>
  <path d="M873.71 664.33C866.5 675.37 856.83 691.15 852.21 699.39C851.65 700.39 848.85 705.38 843.82 714.36L843.82 810.45L843.82 906.53L866.77 906.53L889.72 906.53C889.72 827.85 889.72 784.13 889.72 775.39C889.72 700.26 889.09 644.25 888.26 644.25C887.46 644.25 880.92 653.28 873.71 664.33"/>
  <path d="M843.82 522.8C843.82 571.56 844.37 611.43 845.05 611.39C845.72 611.35 849.77 606.37 854.04 600.32C858.31 594.28 868.09 581.97 875.76 572.99C876.69 571.9 881.34 566.45 889.72 556.65L889.72 508.83L889.72 461.02C876.77 453.29 869.57 448.99 868.14 448.13C856.27 441.04 845.94 434.99 845.19 434.69C844.43 434.39 843.82 474.04 843.82 522.8"/>
  <path d="M411.31 435.94C411.61 436.77 426.24 452.67 443.83 471.28C445.96 473.53 456.61 484.8 475.79 505.1L488.71 491.72L501.62 478.35C499.28 476.05 497.98 474.77 497.72 474.51C494.34 471.18 472.1 460.81 423.61 439.95C416.55 436.91 411.01 435.11 411.31 435.94"/>
  <path d="M125.8 670.48L125.8 906.53L260.21 906.53L394.61 906.53L395.04 841.91L395.47 777.28C419.39 797.45 432.68 808.65 435.34 810.89C457.27 829.38 476.08 844.12 477.14 843.66C478.2 843.2 496.41 828.15 517.59 810.2C520.16 808.03 533 797.15 556.12 777.57L556.55 842.06L556.98 906.53L579.5 906.54L602.02 906.54C601.72 891.05 601.56 882.44 601.52 880.72C601.25 866.52 602.17 834.13 603.57 808.75C611.09 672.42 609.46 670.18 540.36 721.49C500.44 751.14 485.97 753.4 473.8 731.9C464.72 715.87 471.55 706.61 499.84 696.6C511.77 692.38 584.37 651.69 590.34 645.89C591.13 645.12 592.34 638.75 593.02 631.74C595.17 609.82 608.18 604 636.44 612.29C641.02 613.64 676.51 592.3 688.13 581.22C706.14 564.05 721.39 562.46 734.21 576.42C746.94 590.29 740.23 598.98 697.1 624.41C681.77 633.45 666.18 642.64 662.46 644.84C662.01 645.11 659.75 646.44 655.69 648.84C655.58 662.95 655.51 670.79 655.5 672.36C655.4 685.29 656.51 710.99 657.98 729.48C659.78 752.26 660.72 785.29 660.88 831.95C661.01 869.81 661.73 902.09 662.48 903.66C663.75 906.34 669.35 906.53 745.63 906.53C751.09 906.53 778.35 906.53 827.42 906.53C827.42 860.6 827.42 835.08 827.42 829.98C827.42 787.87 826.8 754.12 826.03 754.98C823.77 757.51 816.4 778.86 805.26 815.2C790.23 864.24 785.86 870.47 766.46 870.47C744.59 870.47 742.81 867.97 717.55 801.62C673.82 686.74 671.2 666.36 698.55 653.94C729.71 639.79 739.9 655.26 748.69 730.09C752.15 759.59 753.12 762.28 760.3 762.28C767 762.28 768.93 759.52 777.25 738.13C786.04 715.54 805.02 676.37 818.17 653.69C818.78 652.62 821.87 647.3 827.42 637.72L827.42 536.07L827.42 434.41L695.87 434.53L564.32 434.64C540.71 459.68 527.59 473.59 524.97 476.37C503.33 499.32 483.37 520.3 480.62 522.99C480.28 523.32 478.61 524.95 475.6 527.89L431.44 481.19L387.27 434.49L256.54 434.45L125.8 434.41L125.8 670.48"/>
  <path d="M586.1 180.73C585.68 261.8 585.33 271.95 582.84 277.45C572.82 299.57 619.89 265.75 656.42 224.58C657.44 223.44 662.53 217.7 671.69 207.37L671.69 148.77L671.69 90.16L629.13 90.16L586.58 90.16L586.1 180.73"/>
  <path d="M831.05 90.41C782.99 97.29 751.44 122.31 693.88 199.17C655.23 250.78 633.76 271.9 598.24 293.24C556.97 318.04 516.02 314.59 503.02 285.21C497.07 271.74 496.31 259.18 496.3 173.36C496.29 167.81 496.29 140.08 496.29 90.16L454.4 90.16L412.52 90.16C412.86 152.87 413.04 187.7 413.08 194.67C413.62 297.99 413.67 299.31 417.37 311.45C433.07 363.03 474.4 386.91 547.88 386.86C623.99 386.81 680.83 348.01 747.32 250.69C796.79 178.28 834.24 155.56 872.79 174.58C939.2 207.34 912.16 311.41 838.6 306.15C809.19 304.04 781.42 276.12 778.68 245.89C777.55 233.42 777.66 233.38 765.95 250.35C746.25 278.89 722.44 309.68 709.51 323.34C708.63 324.27 704.22 328.93 696.28 337.32L696.28 358L696.28 378.68L738.08 378.68L779.88 378.68C779.88 372.78 779.88 369.5 779.88 368.84C779.88 357.36 779.89 357.36 788.18 364.45C832.73 402.58 926.82 384.62 968.21 330.09C1049.88 222.49 963.43 71.43 831.05 90.41"/>
  <path d="M126.62 85.42C-8.36 104.89 -47.2 290.09 68.07 364.63C152.56 419.27 273.65 370.56 288.9 275.81C288.97 275.35 289.35 273.03 290.02 268.85L247.42 268.85L204.83 268.85C201.69 273.74 199.95 276.45 199.6 277C162.9 334.19 75.61 295.51 85.03 226.22C92.95 167.96 177.62 146.7 198.9 197.63C199.05 198.01 199.84 199.89 201.25 203.27C228.29 203.27 243.31 203.27 246.31 203.27C298.16 203.27 293.45 205.37 288.14 184.6C271.81 120.77 197.58 75.19 126.62 85.42"/>
  <path d="M696.36 86.47L696.45 172.95C699.6 169.08 701.34 166.93 701.69 166.5C731.47 129.9 746.17 115.38 768.39 100.6C769.16 100.09 772.99 97.55 779.88 92.96L779.88 46.48L779.88 0L738.08 0L696.28 0L696.36 86.47"/>
  <path d="M304.49 189.34L304.49 378.68L346.29 378.68L388.09 378.68L388.09 189.34L388.09 0L346.29 0L304.49 0L304.49 189.34"/>
</g>
</svg>
