<svg
  xmlns="http://www.w3.org/2000/svg"
  viewBox="0 0 1000 746">
	<g>
		<path d="M175.11 632.53C171.42 614.62 156.77 609.87 140.36 608.35C87.36 603.42 77.97 643.12 77.97 659.89C77.97 688.56 86.32 712.28 138.35 712.28C147.95 712.28 174.44 702.38 174.44 686.3L249.27 686.3C246.25 734.01 166.23 745.43 131.33 745.43C59.02 745.43 -2.89 731.94 0.1 660.53C2.24 609.57 50.29 573.8 145.86 576.04C199.14 577.28 250.31 593.92 250.53 632.53L175.11 632.53" />
		<path d="M924.58 632.53C920.89 614.62 906.23 609.87 889.83 608.35C836.83 603.42 827.44 643.12 827.44 659.89C827.44 688.56 835.79 712.28 887.83 712.28C897.41 712.28 923.9 702.38 923.9 686.3L998.73 686.3C995.73 734.01 915.69 745.43 880.79 745.43C808.48 745.43 746.57 731.94 749.57 660.53C751.7 609.57 799.76 573.8 895.32 576.04C948.6 577.28 999.78 593.92 1000 632.53L924.58 632.53" />
		<path d="M263.89 579.44L361.03 579.44L443.91 695.91L444.58 695.91L444.58 579.44L506.83 579.44L506.83 741.17L413.77 741.17L326.83 624.69L326.15 624.69L326.15 741.17L263.89 741.17L263.89 579.44" />
		<path d="M644.04 579.44C700.74 579.44 734.1 595.32 734.1 619.31C734.1 633.47 720.14 650.97 689.01 656.12L689.01 656.57C726.49 658.81 740.33 682.56 740.33 696.8C740.33 725.31 707.8 741.17 644.38 741.17L526.05 741.17L526.05 579.44L644.04 579.44ZM613.91 642.28C644.04 642.28 660.02 639.93 660.02 627.38C660.02 613.95 646.72 609.46 619.6 609.46L594.35 609.46L594.35 642.28L613.91 642.28ZM613.91 707.28C650.22 707.28 663.54 703.47 663.54 690.93C663.54 677.48 646.72 673 619.61 673L594.35 673L594.35 707.28L613.91 707.28Z" />
		<path fill="#ffffff" d="M915.38 553.01C899.48 560.06 881.86 563.2 863.08 563.2L111.12 562.61C68.59 559.28 26.84 524.21 14.96 482.26C2.33 440.32 14.58 397 42.35 366.43C69.17 338.8 103.65 327.24 141.95 331.55C105.95 307.05 90.81 266.48 95.99 222.97C100.78 185.15 128.16 148.3 163.22 133.22C203.25 115.18 253.81 124.98 285.22 155.36C278.71 133.22 275.26 101.47 284.27 78.73C294.99 42.87 329.85 10.92 365.28 3.47C412.59 -6.71 457.61 11.12 484.8 51.69C489.97 59.33 493.04 67.96 497.06 75.99C510.66 37.18 549.92 5.04 589.77 0.92C630.95 -4.37 669.84 13.27 695.69 47.96C715.8 76.77 722.69 119.69 709.67 154.38L711.2 154.38C741.07 127.54 786.28 117.73 824.78 132.63C861.56 144.78 892.77 183.97 897.76 222.58C903.3 265.31 888.75 302.74 856.39 330.38C905.42 327.44 951.96 353.5 972.07 399.16C989.7 438.95 984.54 492.25 954.65 524.59C942.59 536.75 929.75 546.93 915.38 553.01Z" />
		<path fill="#0089cf" d="M835.7 331.55L557.59 517.53L651.25 294.9L695.69 191.22C713.69 157.72 747.58 136.35 784.56 135.76C819.99 135.76 851.4 152.82 871.32 183.39C891.83 213.96 892.97 263.94 872.47 294.9C863.28 309.4 849.68 322.33 835.7 331.55Z" />
		<path fill="#645faa" d="M697.22 155.95L559.7 481.08L553.57 445.61L512.2 179.07C510.47 162.81 517.17 149.09 530.19 140.08L549.92 128.32C551.08 124.2 545.33 122.83 542.64 121.46L503.95 121.06C501.47 82.65 518.32 47.77 550.88 26.8C576.16 10.33 614.66 6.03 642.82 19.35C679.4 34.24 704.87 73.25 705.44 113.03C705.26 127.73 702.77 142.82 697.22 155.95Z" />
		<path fill="#ce1141" d="M433.1 482.26L297.68 156.34C283.12 121.46 289.24 75.6 314.15 47.37C340.77 17.78 378.31 5.24 417 15.24C449.75 23.27 480.39 54.63 488.44 88.14C492.27 100.69 491.69 115.77 490.93 129.49L433.1 482.26Z" />
		<path fill="#f37021" d="M143.68 319.79C115.91 295.69 103.46 263.54 107.47 226.3C111.5 188.68 141.19 151.83 176.63 140.47C213.02 129.1 252.66 138.12 279.1 165.36C290.2 175.95 297.1 188.49 302.84 201.42L433.67 518.13L143.68 319.79Z" />
		<path fill="#fdb913" d="M113.96 551.16C77.76 547.05 49.88 527.55 32.86 494.37C15.63 460.87 20.11 413.34 43.27 383.63C68.51 353.39 105.03 338.18 141.82 345.64C156.82 348.06 169.4 354.52 181.22 361.95L462.77 551.24L113.96 551.16Z" />
		<path fill="#0db14b" d="M878.31 551.16C914.52 547.05 942.39 527.55 959.41 494.37C976.64 460.87 972.16 413.34 949 383.63C923.76 353.39 887.24 338.18 850.44 345.64C835.45 348.06 822.88 354.52 811.05 361.95L529.51 551.24L878.31 551.16Z" />
	</g>
</svg>
