<svg
  xmlns="http://www.w3.org/2000/svg"
  viewBox="0 0 1202 422">
<defs>
	<linearGradient id="grd1" gradientUnits="userSpaceOnUse" x1="199.483" y1="136.725" x2="1467.428" y2="139.336">
		<stop offset="0" stop-color="#002f68"/>
		<stop offset="0.4" stop-color="#1281ec"/>
		<stop offset="1" stop-color="#013f7e"/>
	</linearGradient>
	<linearGradient id="grd2" gradientUnits="userSpaceOnUse" x1="992.243" y1="421.783" x2="992.243" y2="277.504">
		<stop offset="0" stop-color="#d9d9d9"/>
		<stop offset="1" stop-color="#ffffff"/>
	</linearGradient>
</defs>
<g>
  <path fill="url(#grd1)" d="M421.77 278.67L421.77 0L1201.71 0L1201.71 278.67L421.77 278.67Z"/>
  <path fill="url(#grd2)" d="M421.77 281.32L1201.7 281.32L1201.7 421.78L421.77 421.78L421.77 281.32Z"/>
	<path d="M1044.32 358.27C1038.67 356.72 1032.8 355.16 1028.25 351.09C1025.76 348.82 1021.79 343.79 1021.79 334.93C1021.79 332.42 1022.18 326.19 1026.21 320.69C1027.89 318.29 1029.79 316.86 1030.65 316.14C1037.36 310.99 1045.13 309.79 1053.28 308.6C1057 308.24 1060.81 308 1064.67 307.76C1068.25 307.64 1071.84 307.64 1075.54 307.64C1089.04 308.48 1103.18 309.44 1114.56 316.86C1115.64 317.58 1118.75 319.61 1121.15 322.72C1124.03 326.43 1124.95 330.74 1125.81 335.41L1085.44 334.57C1084.87 333.02 1084.62 332.54 1084.15 331.94C1080.22 326.08 1069.07 326.31 1068.71 326.31C1065.6 326.31 1060.81 326.67 1058.41 329.07C1057.59 329.9 1057 330.98 1057 332.06C1057 332.18 1057.1 333.26 1057.49 333.85C1058.54 336.25 1061.89 336.73 1064.06 337.09L1102.71 343.19C1111.47 345.22 1119.73 347.38 1124.95 355.52C1126.16 357.31 1128.45 361.38 1128.45 367.25C1128.45 371.2 1127.12 379.22 1119.73 386.4C1111.69 394.18 1101.28 395.5 1090.39 396.81C1084.87 397.05 1079.37 397.41 1073.86 397.41C1069.07 397.41 1064.29 397.05 1059.5 396.81C1056.74 396.57 1053.99 396.34 1051.35 395.98C1046.81 395.26 1040.47 393.46 1036.15 391.55C1034.15 390.71 1027.39 387.48 1023.22 381.01C1020.7 377.18 1019.99 373.35 1019.17 368.81L1062.12 369.52C1065.1 373.23 1067.5 376.59 1077.07 376.59C1080.08 376.59 1082.62 376.23 1083.66 375.99C1084.42 375.87 1087.41 375.51 1089.21 373.47C1089.53 373.11 1090.62 371.92 1090.62 370.36C1090.62 369.41 1090.13 368.33 1089.53 367.49C1087.63 364.98 1084.52 364.62 1081.66 364.38L1044.32 358.27ZM765.82 310.63L765.82 330.98L707.41 330.98L707.41 340.8L755.53 340.8L755.53 361.51L707.31 361.51L707.31 373.47L769.41 373.47L769.41 394.54L674.39 394.54L674.39 310.63L765.82 310.63ZM862.34 310.63C864.57 321.29 866.74 332.06 868.76 342.71C870.09 350.25 871.16 357.79 872.34 365.21C873.92 356.12 875.6 347.14 877.5 338.16C879.42 328.95 881.71 319.73 883.97 310.63L908.03 310.63L919.63 366.41C920.71 358.15 921.8 349.89 923.11 341.75C924.91 331.34 926.81 321.05 928.75 310.63L961.53 310.63L940.13 394.54L906.25 394.54L895.59 347.26C893.91 355.76 892.37 364.26 890.45 372.64C888.65 379.94 886.87 387.24 884.93 394.54L851.06 394.54L830.13 310.63L862.34 310.63ZM569.75 361.98L569.75 310.63L600.52 310.63L600.52 394.54L562.44 394.54C559.46 390.47 556.47 386.52 553.71 382.33C551.68 379.46 549.64 376.47 547.59 373.59C545.56 370.6 543.29 367.85 541.15 364.85C539.47 362.46 537.79 359.83 535.99 357.31C534.43 355.04 532.65 352.77 531.1 350.37C528.93 347.26 526.88 343.91 524.86 340.56L525.33 394.54L495.07 394.54L495.07 310.63L533.6 310.63L569.75 361.98Z"/>
	<g fill="#f6f9ff">
		<path d="M522.37 246.71L473.16 246.71L473.16 31.84L560.33 45.76C591.6 50.76 619.7 72.26 619.7 119.49C619.7 168.98 597.1 187.04 560.33 185.07L522.37 183.06L522.37 246.71ZM577.45 118.69C577.45 99.34 567.28 90.24 553.54 88.51L522.37 84.58L522.37 139.69L553.54 142.36C567.51 143.55 577.45 137.47 577.45 118.69Z"/>
		<path d="M669.76 246.71L628.75 246.71L628.75 87.65L668.57 93.01L668.57 121.16L669.06 121.21C674.86 101.53 689.1 95.11 705.32 97.32C708.22 97.67 713.1 98.34 713.1 98.34L713.1 143.48L702.83 142.52C689.57 141.25 669.76 143.75 669.76 174.08L669.76 246.71Z"/>
		<path d="M754.15 246.71L719.86 246.71L719.86 101.62L754.15 106.22L754.15 246.71ZM753.7 93.28L719.73 88.36L719.73 50.32L753.7 56.38L753.7 93.28Z"/>
		<path d="M816.78 246.71L771.3 246.71L771.3 106.3L815.41 106.3L815.41 126.44L815.97 126.44C824.63 111.67 840.01 102.02 857.64 102.02C875.84 102.02 890 108.01 897.83 125.86C909.25 110.28 923.55 102.02 943.11 102.02C989.27 102.02 992.26 137.52 992.26 165.57L992.26 246.71L946.74 246.71L946.74 166.98C946.74 151.12 939.18 141.73 926.89 141.73C906.5 141.73 904.51 157.63 904.51 181.45L904.51 246.71L859.05 246.71L859.05 169.85C859.05 152.54 853.96 141.73 841.14 141.73C824.05 141.73 816.78 151.67 816.78 181.75L816.78 246.71Z" />
		<path d="M1010.03 148.59C1010.77 130.72 1018.96 118.08 1034.59 110.69C1046.04 105.26 1062.11 102.56 1082.83 102.56C1112.82 102.56 1132.45 108.35 1141.73 119.89C1147.18 126.74 1149.91 139.3 1149.91 157.53L1149.91 215.22C1149.91 229.82 1152.09 240.3 1156.45 246.62L1101.37 246.62C1099.73 242.1 1099.11 237.68 1099.47 233.35L1098.92 233.35C1088.93 244.53 1073.74 250.13 1053.39 250.13C1038.66 250.13 1026.94 246.7 1018.22 239.85C1008.41 232.27 1003.49 221.52 1003.49 207.62C1003.49 194.27 1008.41 183.88 1018.22 176.49C1025.32 171.26 1036.12 167.28 1050.66 164.57C1057.94 163.66 1065.21 162.68 1072.47 161.59C1081.93 160.33 1088.93 158.53 1093.47 156.18C1096.56 154.74 1098.11 151.76 1098.11 147.24C1098.11 138.58 1092.19 134.24 1080.38 134.24C1073.11 134.24 1067.75 135.87 1064.3 139.11C1061.57 141.64 1060.21 144.8 1060.21 148.59L1010.03 148.59ZM1098.11 183.52C1093.89 185.69 1086.76 187.95 1076.69 190.29C1070.64 191.74 1066.44 193.18 1064.06 194.63C1060.23 197.16 1058.29 200.76 1058.29 205.47C1058.29 209.43 1060.23 212.68 1064.06 215.22C1067.36 217.37 1071.11 218.45 1075.31 218.45C1082.09 218.45 1087.59 216.47 1091.79 212.49C1095.99 208.53 1098.11 203.21 1098.11 196.53L1098.11 183.52Z"/>
	</g>
	<g fill="#cc0000">
		<path d="M406.02 273.69L1201.71 273.69L1201.71 281.32L406.02 281.32L406.02 273.69Z"/>
		<path d="M0 0.01L421.78 0.01L421.78 421.79L0 421.79L0 0.01Z"/>
	</g>
	<g fill="#ffffff">
		<path d="M67.65 210.94C67.65 238.62 90.17 261.14 117.84 261.14L165.24 261.14C167.86 261.14 169.99 258.55 169.99 256.4L169.99 163.46C169.99 157.3 175 152.29 181.16 152.29C185.09 152.29 188.8 154.38 190.74 157.76C191.01 158.17 205.33 182.89 220.52 209.07C235.03 234.08 250.04 259.94 250.26 260.37C250.93 261.5 252.25 262.24 253.62 262.24C255.76 262.24 257.51 260.49 257.51 258.34L257.51 163.46C257.51 157.3 262.52 152.29 268.66 152.29C272.63 152.29 276.29 154.38 278.28 157.76C278.53 158.17 292.86 182.89 308.02 209.07C322.53 234.08 337.48 259.93 337.74 260.37C338.42 261.5 339.73 262.24 341.08 262.24C343.24 262.24 345 260.49 345 258.34L345 135.33L326.83 135.33L326.83 208.55C326.83 208.55 293.01 150.31 291.9 148.44C286.96 140 277.6 134.66 267.66 134.66C252.01 134.66 239.38 147.33 239.38 162.95L239.38 208.55C239.38 208.55 205.53 150.31 204.43 148.44C199.5 140 190.12 134.66 180.16 134.66C164.53 134.66 151.88 147.33 151.88 162.95L151.88 237.88C151.88 240.61 149.83 242.98 146.83 242.99L118.06 242.99C100.37 242.99 86.02 228.64 86.02 210.94C86.02 193.24 100.37 178.9 118.06 178.9L142.19 178.9L142.19 160.74L117.84 160.74C90.17 160.74 67.65 183.26 67.65 210.94Z"/>
		<path d="M352.25 135.33L352.25 258.34C352.25 264.49 347.24 269.51 341.08 269.51C337.15 269.51 333.44 267.41 331.47 264.03C331.23 263.63 316.92 238.9 301.73 212.71C287.25 187.72 272.25 161.87 272.03 161.43C271.35 160.29 270.05 159.55 268.66 159.55C266.52 159.55 264.77 161.3 264.77 163.46L264.77 258.34C264.77 264.49 259.76 269.51 253.58 269.51C249.65 269.51 246 267.41 244 264.03C243.79 263.63 229.42 238.9 214.23 212.71C199.72 187.71 184.76 161.85 184.51 161.43C183.83 160.29 182.51 159.55 181.16 159.55C179.01 159.55 177.25 161.3 177.25 163.46L177.25 256.4C177.25 262.8 171.64 268.4 165.24 268.4L117.84 268.4C86.17 268.4 60.39 242.63 60.39 210.94C60.39 179.26 86.17 153.49 117.84 153.49L142.19 153.49L142.19 135.33L117.88 135.33C76.09 135.33 42.24 169.18 42.24 210.94C42.24 252.71 76.09 286.56 117.88 286.56L165.72 286.56C183.83 286.57 195.46 275.95 195.46 256.37L195.46 213.25C195.46 213.25 229.53 271.89 230.39 273.35C235.34 281.79 244.68 287.13 254.62 287.13C270.27 287.13 282.92 274.46 282.92 258.85L282.92 213.25C282.92 213.25 316.75 271.48 317.85 273.35C322.79 281.79 332.18 287.13 342.13 287.13C357.75 287.13 370.4 274.46 370.4 258.85L370.4 135.33L352.25 135.33Z"/>
	</g>
</g>
</svg>
