<svg
  xmlns="http://www.w3.org/2000/svg"
  viewBox="0 0 476.2 187.4">
<g fill="#fdc600">
  <path d="M81.7,0C46.6,0,16.1,19.3,0,47.8l19.6,11C31.8,37.2,55,22.5,81.7,22.5c39.3,0,71.2,31.9,71.2,71.2s-31.9,71.2-71.2,71.2c-26.6,0-49.8-14.6-62-36.2l-19.6,11c16.1,28.5,46.6,47.7,81.6,47.7c51.7,0,93.7-41.9,93.7-93.7C175.4,41.9,133.4,0,81.7,0z"/>
  <path d="M103.6,106.1c-4.3,7.6-12.5,12.8-21.9,12.8c-13.9,0-25.2-11.3-25.2-25.2s11.3-25.2,25.2-25.2c9.4,0,17.7,5.2,22,12.9l19.6-11C115.1,55.8,99.5,46,81.7,46C55.4,46,34,67.4,34,93.7c0,26.3,21.3,47.7,47.7,47.7c17.8,0,33.4-9.8,41.5-24.3L103.6,106.1z"/>
  <g stroke="#000000" stroke-width="2">
    <path d="M209.1,131.2h-14.8v-74h38.8V71h-24v15.7h20.7v13.8h-20.7V131.2z"/>
    <path d="M271.4,131.2l-3-11.8h-18.5l-3,11.8h-15.1l21.2-74H265l21.4,74H271.4z M258.5,85.2l-5.2,20.8h11.6l-5.2-20.8l-0.6-2.3L258.5,85.2z"/>
    <path d="M306.1,57.2l16.7,44.2L339,57.2h13.6v74h-13l0-39.4l-12,29.7l-9.6,0l-12-29.5v39.2h-13.7v-74H306.1z"/>
    <path d="M363.2,131.2v-74H378v74H363.2z"/>
    <path d="M388.6,131.2v-74h14.8v60.2h24v13.8H388.6z"/>
    <path d="M440.7,131.2V95.5L420,57.2h16l12.1,23.4l12.1-23.4h16l-20.7,38.4v35.6H440.7z"/>
  </g>
</g>
</svg>
