<svg
  xmlns="http://www.w3.org/2000/svg"
  viewBox="0 0 190 130">
	<g>
		<path fill="#000080" d="M5.64 103.35C2.88 102.14 1.55 101.29 0.89 100.31C-0.05 98.91 -0.27 96.15 0.35 93.6C0.52 92.87 0.6 92.7 1.02 92.16C1.61 91.38 2.61 90.36 2.95 90.18C3.09 90.11 3.31 90.06 3.43 90.08C3.62 90.1 3.66 90.15 3.68 90.4C3.71 90.73 3.59 90.9 3.05 91.3C2.35 91.82 1.89 92.23 1.66 92.55C1.45 92.84 1.42 92.96 1.42 93.48C1.42 94.28 1.67 95.45 2.01 96.29C2.25 96.86 2.39 97.07 2.98 97.65L3.66 98.33L5.06 98.81C10.38 100.65 13.01 101.31 17.71 101.99C20.39 102.38 22.03 102.53 23.81 102.53C25.54 102.54 26.57 102.42 27.09 102.16C28.13 101.63 28.7 100.23 28.39 98.97C28.25 98.39 28.21 98.31 27.23 96.86C26.55 95.85 26.35 95.37 26.41 94.84C26.47 94.34 26.62 94.19 27.07 94.2C27.49 94.2 27.6 94.29 27.97 94.86C28.88 96.28 29.87 98.51 30.2 99.9C30.69 101.93 30.04 103.32 27.87 104.93C27 105.58 26.55 105.76 25.41 105.97C23.59 106.3 21.74 106.4 19.37 106.31C14.76 106.13 9.26 104.94 5.64 103.35ZM25.12 90.61C24.17 90.31 21.86 89.65 20 89.14C17.92 88.57 16.46 88.13 16.22 88C15.9 87.81 14.51 87.37 12.51 86.8C11.48 86.51 9.2 85.56 8.2 85.01C6.39 84.01 4.94 82.73 4.37 81.64C3.87 80.7 3.76 80.19 3.81 79.15C3.88 77.62 4.44 76.38 5.56 75.24C6.29 74.51 7.05 74.07 8.08 73.79C8.65 73.64 8.98 73.61 10.48 73.61C12.96 73.61 15.97 74.04 19.33 74.86C26.88 76.73 32.18 79.44 33.49 82.11C34 83.13 34.27 84.27 34.27 85.39C34.27 87.04 33.8 88.24 32.76 89.29C32.43 89.63 32.15 89.96 32.15 90.03C32.15 90.41 29.67 91.02 27.75 91.11L26.86 91.16L25.12 90.61ZM32.32 85.18C32.02 84.58 30.92 83.23 30.28 82.68C27.54 80.35 23.96 78.86 16.23 76.85C15.14 76.57 13.8 76.22 13.27 76.07C12 75.73 10.27 75.66 8.93 75.88C7.88 76.05 6.4 76.52 5.97 76.81C5.22 77.32 5.39 78.12 6.49 79.17C7.19 79.83 7.88 80.34 8.57 80.68C10.1 81.45 13.73 82.72 18.43 84.15C24.44 85.97 26.4 86.46 29.69 86.97C31.3 87.21 31.66 87.22 32.04 87.05C32.63 86.76 32.74 86.02 32.32 85.18ZM34 76.07C31.72 74.68 30.55 74.02 29.06 73.28C28.08 72.79 26.61 72.02 25.8 71.56C24.99 71.11 22.69 69.91 20.71 68.89C16.88 66.93 15.2 66.03 13.24 64.88C11.3 63.74 10.81 63.41 10.81 63.21C10.81 63.11 10.72 62.9 10.6 62.75C10.32 62.38 10.31 61.74 10.57 61.41C10.78 61.14 11.35 60.84 12 60.66C12.76 60.44 13.96 60.25 14.06 60.34C14.19 60.44 16.04 60.08 16.93 59.79C17.53 59.59 17.59 59.55 17.54 59.38C17.36 58.81 16.55 57.09 16.26 56.66C16.07 56.38 15.7 55.75 15.43 55.26C15.16 54.78 14.86 54.29 14.76 54.18C14.62 54.02 14.59 53.88 14.59 53.25L14.59 52.51L15.07 51.66C15.75 50.46 15.7 50.51 16.28 50.5C16.9 50.5 16.98 50.53 19.2 51.92C21.81 53.55 24.96 55.48 25.37 55.68C25.57 55.79 25.85 56 26 56.17C26.24 56.45 27.62 57.21 27.88 57.21C27.93 57.21 28.53 57.52 29.2 57.9C29.87 58.28 31.33 59.04 32.45 59.59C33.56 60.13 35.35 61.06 36.43 61.66C37.5 62.25 38.81 62.96 39.36 63.23C40.15 63.63 40.36 63.77 40.44 63.97C40.5 64.11 40.62 64.29 40.71 64.37C40.8 64.45 40.87 64.58 40.87 64.65C40.87 64.73 40.94 64.94 41.03 65.13C41.18 65.46 41.18 65.47 40.97 65.93C40.86 66.19 40.61 66.56 40.42 66.77C40.06 67.14 39.36 67.54 39.05 67.54C38.96 67.54 38.59 67.35 38.23 67.12C35.7 65.5 33.03 64.06 24.32 59.63C22.97 58.94 20.99 57.9 19.93 57.32C18.87 56.74 17.99 56.27 17.98 56.29C17.96 56.31 18.25 56.99 18.61 57.8C19.01 58.7 19.27 59.4 19.27 59.58C19.28 59.99 18.95 60.67 18.59 60.99C18.28 61.26 17.13 61.61 16.56 61.61C16.32 61.61 16.3 61.63 16.4 61.73C16.47 61.79 17.58 62.48 18.86 63.25C20.28 64.11 21.26 64.75 21.38 64.91C21.56 65.15 22.97 65.93 23.23 65.93C23.3 65.93 23.93 66.26 24.64 66.66C25.34 67.06 26.83 67.84 27.95 68.38C29.07 68.93 30.89 69.87 31.98 70.48C33.07 71.09 34.36 71.78 34.83 72.02C35.36 72.28 35.74 72.53 35.8 72.64C35.85 72.75 35.96 72.91 36.04 73C36.12 73.1 36.27 73.4 36.37 73.67L36.55 74.17L36.37 74.67C36.08 75.46 35.09 76.27 34.43 76.26C34.36 76.26 34.17 76.17 34 76.07L34 76.07ZM164.53 64.39C164.05 64.13 163.93 63.97 162.74 61.97C162.37 61.35 161.66 60.28 161.16 59.58C159.57 57.36 159.2 56.3 159.68 55.35C159.83 55.04 159.94 54.95 160.25 54.84C161.38 54.44 165.58 51.65 173.43 46.07C177.19 43.39 180.69 41.14 182.57 40.17L183.27 39.82L183.58 39.97C184.03 40.18 185.09 41.08 185.33 41.45C185.44 41.62 185.78 42.17 186.08 42.68C186.38 43.19 186.84 43.85 187.11 44.16C188.05 45.25 189.41 47.09 189.62 47.56C189.77 47.88 189.77 47.97 189.68 48.11C189.52 48.35 189.28 48.36 188.84 48.17C188.15 47.86 187.55 47.2 186.02 45.03C185.49 44.28 185.28 44.13 184.93 44.26C184.65 44.37 182.76 45.5 181.71 46.2C181.01 46.67 178.68 48.06 176.15 49.52C175.83 49.71 175.58 49.9 175.58 49.96C175.58 50.11 175.94 50.6 176.59 51.33C177.71 52.59 178.28 53.65 178.28 54.48C178.28 54.76 178.25 55.02 178.21 55.04C178.18 55.07 177.96 54.96 177.73 54.81C177.31 54.53 176.96 54.14 175.22 52.05C174.74 51.47 174.28 50.96 174.21 50.92C174.1 50.85 173.94 50.9 173.53 51.16C172.21 51.96 170.22 53.31 168.99 54.23C167.32 55.49 166.15 56.29 165.57 56.58C164.77 56.99 162.71 58.49 162.71 58.67C162.71 58.76 163.06 59.35 163.48 59.99C164.46 61.46 165.42 63.42 165.42 63.99C165.42 64.38 164.91 64.61 164.53 64.39L164.53 64.39ZM43.57 61.42C43.44 61.36 43.16 61.11 42.93 60.86C41.84 59.64 38.4 56.85 30.8 51.03C27.01 48.14 24.85 46.34 23.03 44.57C21.85 43.43 21.86 43.43 22.19 42.54C22.54 41.61 22.84 41.12 23.42 40.5C24.32 39.53 24.74 39.01 25.17 38.29C25.39 37.92 25.75 37.38 25.97 37.1C26.19 36.82 26.52 36.37 26.71 36.09C27.07 35.56 27.61 35 27.84 34.92C28.13 34.82 28.3 35.07 28.29 35.57C28.29 36.14 27.82 37.13 27.13 38.04C26.89 38.36 26.44 38.95 26.14 39.34C25.42 40.28 25.42 40.4 26.15 41.06C26.44 41.34 27.26 42.04 27.96 42.63C28.66 43.22 30 44.41 30.95 45.27C33.63 47.71 33.85 47.91 33.96 47.88C34.01 47.86 34.23 47.58 34.44 47.26C34.66 46.94 35.06 46.33 35.33 45.91C36.17 44.64 37.14 43.84 37.83 43.84C38.05 43.83 38.06 43.84 37.98 44.19C37.87 44.68 37.48 45.37 36.29 47.2C35.73 48.05 35.26 48.8 35.23 48.87C35.2 48.95 35.3 49.11 35.51 49.31C36.35 50.09 38.52 51.85 39.74 52.72C41.44 53.96 42.61 54.88 43.37 55.6C43.69 55.9 44.41 56.49 44.95 56.9C45.79 57.54 45.96 57.64 46.1 57.56C46.2 57.51 46.62 57.03 47.04 56.5C48.21 55.04 49.85 53.55 50.41 53.44C50.7 53.38 50.91 53.54 51 53.88C51.1 54.28 50.8 54.79 49.82 55.87C48.76 57.04 48.23 57.69 47.02 59.27C46.11 60.46 45.41 61.09 44.7 61.36C44.19 61.55 43.89 61.57 43.57 61.42L43.57 61.42ZM151.66 49.78C149.78 48.22 149.25 47.57 148.82 46.26C148.47 45.18 148.72 44.37 149.87 42.84C151.49 40.69 152.76 40.29 153.96 41.54C154.79 42.41 154.63 42.99 153.07 44.87C152 46.17 151.84 46.42 151.8 46.97C151.71 48.16 152.46 48.55 154.58 48.47C156.9 48.37 157.79 47.91 160.01 45.7C161.02 44.69 161.46 44.18 161.92 43.47C162.79 42.16 163.29 40.82 163.3 39.85C163.3 39.33 162.97 38.23 162.6 37.53C161.28 35 161.14 34.59 161.21 33.3C161.27 31.93 161.5 31.35 162.54 29.95C163.27 28.97 164.33 27.89 165.04 27.42C165.81 26.9 167.47 26.06 168.29 25.76C169.98 25.16 171.33 25.57 172.59 27.07C174.46 29.29 174.92 31.74 174.05 34.71C173.82 35.49 173.6 35.78 173 36.08C172.28 36.44 171.7 36.31 171.24 35.69C170.82 35.14 170.98 34.5 171.84 33.31C172.11 32.93 172.45 32.41 172.58 32.15C172.81 31.72 172.82 31.62 172.82 30.67C172.82 29.7 172.81 29.63 172.55 29.1C172.12 28.22 171.69 27.83 171.13 27.83C170.69 27.83 170.34 28.01 169.47 28.7C168.2 29.69 165.17 32.95 164.79 33.71C164.32 34.67 164.36 35.25 165 37.48C165.43 39.01 165.58 39.92 165.58 41.02C165.58 42.59 165.38 43.43 164.66 44.83C163.61 46.85 162.42 48.5 161.36 49.41C159.3 51.18 157.63 51.73 155.17 51.44C153.77 51.28 153.05 50.94 151.66 49.78ZM52.59 50.95C52.49 50.91 52.16 50.54 51.87 50.13C50.12 47.7 47.65 44.77 41.37 37.69C40.14 36.29 38.53 34.45 37.81 33.59C35.62 30.97 33.59 28.27 33.59 27.97C33.59 27.74 33.98 26.96 34.32 26.5C34.61 26.11 35.97 24.95 36.14 24.95C36.17 24.95 36.31 24.99 36.44 25.04C36.63 25.12 36.75 25.09 37.15 24.92C38.13 24.48 39.99 24.25 42.61 24.24C44.31 24.23 44.94 24.33 46.43 24.83C48.32 25.46 50.39 26.76 51.88 28.25C52.18 28.56 52.99 29.5 53.67 30.34L54.92 31.88L56.01 34.07C57.51 37.1 58.05 38.79 58.31 41.27C58.51 43.24 58.02 45.23 56.96 46.79C56.76 47.08 56.47 47.59 56.31 47.91C56.15 48.23 55.89 48.65 55.72 48.83C55.46 49.11 55.43 49.2 55.48 49.42C55.53 49.66 55.49 49.73 55.12 50.1C54.89 50.33 54.48 50.62 54.21 50.74C53.7 50.98 52.89 51.08 52.59 50.95ZM56.32 45.02C56.78 43.27 56.8 43.08 56.76 42.01C56.69 40.23 56.17 38.88 54.37 35.89C53.03 33.65 51.57 31.74 49.9 30.05C48.96 29.08 48.42 28.66 47.3 28C45.39 26.87 44.56 26.48 43.55 26.22C40.62 25.48 38.16 25.58 38.16 26.44C38.16 26.55 38.86 27.56 39.94 28.99C41.27 30.75 42.1 31.75 43.23 32.96C45.49 35.37 49.2 39.51 51.58 42.27C53.63 44.65 55.44 46.71 55.48 46.71C55.49 46.71 55.64 46.53 55.8 46.31C56.01 46.02 56.15 45.66 56.32 45.02ZM68.73 42.01C68.42 41.94 67.87 41.74 67.5 41.55C66.4 41.01 64.66 39.42 64.28 38.62C64.1 38.23 64.12 37.6 64.33 37.27C64.54 36.92 65.14 36.53 65.85 36.3C66.57 36.06 67.66 36.08 68.02 36.35C68.16 36.45 68.46 36.91 68.73 37.41C70.08 39.99 70.84 40.58 72.03 39.98C72.91 39.54 73.46 38.71 73.81 37.3L73.99 36.56L73.25 34.72C72.22 32.12 71.4 30.3 69.68 26.76L68.2 23.7L67.59 24.22C67.26 24.51 66.8 24.87 66.56 25.02C64.66 26.23 61.85 26.29 59.98 25.15C59.16 24.65 58.17 23.59 57.49 22.5C57.16 21.96 56.73 21.32 56.53 21.06C56.17 20.59 54.43 17.13 53.88 15.81C53.33 14.47 53.11 13.34 53.31 12.81C53.4 12.57 54.24 11.93 54.85 11.61C55.42 11.33 55.96 11.21 56.42 11.28C56.75 11.33 56.89 11.41 57.29 11.82C57.56 12.09 57.9 12.56 58.07 12.89C58.24 13.22 59.05 15.2 59.88 17.29C60.7 19.39 61.58 21.52 61.82 22.04L62.26 22.98L62.76 23.16C63.55 23.45 64.41 23.62 64.83 23.57C65.39 23.51 66.16 23.2 66.5 22.89C66.84 22.6 67.11 22.07 67.12 21.72C67.12 21.48 64.71 16.26 63.46 13.78C62.47 11.82 62.25 11.12 62.25 9.93C62.25 9.07 62.27 8.96 62.5 8.49C62.99 7.49 63.86 6.89 64.59 7.05C65.35 7.21 66.38 8.09 66.83 8.96C67.07 9.45 67.73 11.05 67.88 11.53C67.94 11.72 68.22 12.43 68.51 13.1C68.8 13.78 69.2 14.77 69.39 15.3C69.59 15.89 70.36 17.52 71.34 19.45C73.62 23.96 74.91 26.86 75.85 29.61C76.55 31.67 76.7 32.34 76.7 33.42C76.68 36.31 75.97 38.3 74.32 40.05C72.71 41.76 70.75 42.44 68.73 42.01ZM142.51 41.83C142.09 41.77 140.94 41.37 140.35 41.08C138.75 40.28 137.82 39.16 137.17 37.27C136.84 36.3 136.83 35.03 137.16 33.74C137.65 31.8 138.05 30.73 138.83 29.31C139.23 28.57 140.02 27.08 140.57 26.01C142.76 21.73 144.56 18.4 145.92 16.11C146.93 14.41 148.07 12.68 148.23 12.59C148.46 12.47 149.09 12.49 149.76 12.64C150.26 12.76 150.41 12.83 150.81 13.22C151.24 13.62 151.28 13.69 151.28 14.04C151.28 14.49 150.95 15.48 150.59 16.15C150.45 16.4 150.22 16.89 150.09 17.23C149.74 18.09 148.96 19.64 147.87 21.61C145.54 25.82 145.09 26.61 144.22 28.09C143.71 28.95 142.85 30.32 142.32 31.13C141.42 32.51 140.53 34.04 139.56 35.92C139.07 36.87 138.93 37.51 139.06 38.33C139.23 39.39 139.77 39.91 140.64 39.84C141.6 39.76 142.44 39.15 143.58 37.73C144.41 36.69 145.41 34.86 149.73 26.56C150.56 24.96 151.55 23.11 151.91 22.46C153.31 19.95 155.34 16.68 155.61 16.52C155.79 16.41 156.52 16.46 157.16 16.62C158.16 16.87 158.64 17.42 158.64 18.31C158.64 18.78 158.59 18.93 157.78 20.55C157.31 21.51 156.88 22.38 156.82 22.5C156.76 22.62 156.51 23.05 156.25 23.47C156 23.89 155.49 24.82 155.13 25.55C152.7 30.35 148.7 37.35 147.34 39.17C146.51 40.28 145.59 41.21 145.05 41.49C144.38 41.82 143.44 41.95 142.51 41.83ZM124.5 35.71C123.2 35.47 121.86 34.7 121.3 33.88C121.23 33.78 121.06 33.65 120.92 33.58C120.72 33.48 120.63 33.35 120.44 32.79C120.07 31.69 119.94 30.92 119.89 29.53L119.84 28.21L120.48 26.22C120.84 25.13 121.51 22.88 121.98 21.23C122.51 19.33 122.93 18.04 123.09 17.73C123.24 17.46 123.63 16.35 123.97 15.27C124.68 13 125.07 11.99 125.82 10.5C127.18 7.78 128.79 6.08 130.48 5.54C132.8 4.82 135.72 6.13 136.97 8.46C137.46 9.39 137.58 10.07 137.59 11.92C137.59 13.76 137.47 14.84 137 17.38C135.7 24.36 132.86 31.35 130.28 33.94C129.17 35.04 127.58 35.69 125.79 35.75C125.3 35.77 124.72 35.75 124.5 35.71ZM125.34 33.96C126.5 33.57 128.37 31.85 129.5 30.13C130.26 28.98 131.32 26.88 131.91 25.38C132.52 23.82 133.26 21.41 134.72 16.19C135.44 13.6 135.47 13.45 135.42 11.83C135.33 9.26 134.65 7.29 133.79 7.12C133.14 7 132.06 7.85 131.05 9.29C130.08 10.68 128.64 14.51 126.31 21.91C124.9 26.38 124.34 28.67 123.85 31.87C123.68 32.98 123.69 33.23 123.93 33.67C124.04 33.87 124.45 34.09 124.75 34.09C124.85 34.1 125.12 34.04 125.34 33.96ZM112.47 32.07C111.9 31.85 111.43 31.51 111.22 31.16C111.02 30.84 111.03 30.7 111.25 29.19C111.45 27.89 111.7 24.95 111.94 21.06C112.2 16.94 112.31 15.01 112.3 14.99C112.29 14.99 111.51 14.94 110.55 14.89C107.5 14.72 104.92 14.53 104.06 14.42C103.6 14.36 103.2 14.33 103.17 14.36C103.03 14.49 102.51 20.32 102.38 23.13C102.35 23.79 102.27 24.78 102.21 25.34C102.14 25.89 102.06 26.94 102.03 27.66C101.98 28.92 101.96 28.99 101.73 29.33C101.6 29.52 101.49 29.71 101.49 29.75C101.49 29.79 101.27 30.02 101.01 30.26L100.52 30.71L99.92 30.71C98.91 30.71 98.06 30.34 97.57 29.67L97.39 29.44L97.58 27.85C97.94 24.86 98.16 22.23 98.4 17.88C98.47 16.63 98.6 14.21 98.7 12.51C98.8 10.81 98.93 8.75 99 7.94C99.27 4.83 99.8 0.81 99.98 0.6C100.11 0.44 100.97 0.19 101.79 0.06C102.33 -0.02 102.63 -0.02 103.29 0.07L104.12 0.17L104.32 0.6C104.58 1.13 104.68 1.76 104.55 2.07C104.5 2.2 104.31 3.73 104.12 5.48C103.93 7.23 103.66 9.65 103.52 10.88C103.38 12.1 103.27 13.13 103.27 13.18C103.27 13.27 103.46 13.29 106.7 13.52C108 13.62 109.79 13.75 110.68 13.82C111.56 13.88 112.29 13.93 112.3 13.92C112.31 13.91 112.38 13.02 112.46 11.95C112.78 7.19 113.3 2.63 113.57 2.2C113.64 2.08 113.92 1.94 114.38 1.79C115.01 1.58 115.19 1.56 116.14 1.57C117.58 1.59 117.77 1.64 117.85 2.01C118.12 3.31 118.14 3.73 117.99 4.8C117.9 5.39 117.68 7.1 117.5 8.61C116.92 13.29 116.74 14.47 116.55 14.92C116.39 15.29 116.36 15.52 116.35 16.87C116.34 17.71 116.29 18.81 116.24 19.32C116.19 19.84 116.11 21.38 116.05 22.75C116 24.13 115.89 25.97 115.8 26.86C115.71 27.74 115.61 28.94 115.58 29.52C115.51 30.74 115.46 30.86 114.65 31.7L114.13 32.24L113.51 32.23C113.1 32.23 112.73 32.17 112.47 32.07L112.47 32.07Z"/>
		<path fill="#343433" d="M56.53 129C49.3 128.69 42.93 127.7 38.18 126.13C36.17 125.47 35.13 124.89 34.05 123.81C32.99 122.75 32.25 121.44 31.83 119.88C31.63 119.14 31.61 118.91 31.61 117.58C31.61 115.97 31.68 115.53 32.17 113.95C32.29 113.55 32.36 113.33 32.42 113.22L32.48 113.07C32.66 113 33.88 112.89 36.3 112.67C40.28 112.31 44.89 112.08 48.28 112.08L50.59 112.08C84.75 111.9 122.83 101.87 148.03 91.22C153.24 89.03 159.42 86.76 163.55 85.53L165.92 94.73C165.92 94.78 165.81 95.11 165.66 95.47C164.9 97.36 163.77 98.73 161.35 100.66C154.13 106.4 144.24 111.5 130.74 116.41C120.87 120.01 107.2 123.83 98.57 125.41C87.73 127.4 76.78 128.64 66.82 129.01C64.26 129.1 58.79 129.1 56.53 129L56.53 129Z"/>
		<path fill="#3a3a3a" d="M61.74 122.4C58.51 122.26 54.82 121.92 52.13 121.51C47.81 120.85 43.24 119.66 41.38 118.71C39.92 117.97 38.61 116.68 37.86 115.26C37.73 115.02 37.61 114.78 37.48 114.54C40.46 115.26 43.57 115.91 46.17 116.27C47.73 116.48 50.16 116.73 50.62 116.73L51.75 116.88C57.11 117.6 66.46 117.54 76.22 116.73C85.23 115.98 97.51 114.28 101.95 113.16C113.67 110.22 126.23 106.15 135.27 102.38C139.36 100.68 143.98 98.49 146.32 97.14C147.03 96.72 147.74 96.32 148.46 95.94C153 93.52 157.37 90.65 161.44 87.41C162.28 86.75 163.08 86.06 163.88 85.36C164.77 86.44 165.53 87.73 165.95 88.98C166.44 90.47 166.52 92.3 166.18 93.91C166.07 94.42 165.96 94.8 165.95 94.74C165.93 94.69 165.45 94.99 164.88 95.41C154.39 103.2 136.59 110.65 115.04 116.26C109.14 117.8 105.3 118.61 99.21 119.61C89.73 121.15 80.85 122.07 72.11 122.4C69.63 122.5 64.09 122.5 61.74 122.4L61.74 122.4ZM50.7 112.55L50.7 111.99L50.65 111.46C50.62 111.17 50.53 109.47 50.44 107.67C49.8 95.18 49.52 86.58 49.68 84.33C50.26 75.88 53.09 68.71 58.38 62.29C59.39 61.07 62.36 58.1 63.65 57.03C70.05 51.69 78.64 47.46 87.66 45.2C92.22 44.06 96.3 43.42 100.63 43.15C102.72 43.02 107.74 43.1 109.51 43.28C115.32 43.88 119.97 45.13 124.24 47.26C131.63 50.94 136.82 56.85 139.9 65.11C140.71 67.28 142.9 76.06 145.53 87.65C145.99 89.7 146.45 91.65 146.54 91.99C146.58 92.14 146.62 92.29 146.64 92.41C145.9 92.75 145.33 93.02 144.74 93.31C134.82 98.15 121.25 102.93 105.6 107.11C100.59 108.45 99.32 108.73 95.95 109.28C80.12 111.84 65.46 113.09 55.11 112.76C53.45 112.71 51.8 112.64 51.44 112.61C51.19 112.6 50.95 112.57 50.7 112.55L50.7 112.55Z"/>
	</g>
</svg>
