<svg
	xmlns="http://www.w3.org/2000/svg"
	viewBox="0 0 149 98">
<defs>
	<filter x="-50%" y="-50%" width="200%" height="200%" id="flt1"> <feGaussianBlur stdDeviation="0.012"/></filter>
	<linearGradient id="grd1" gradientUnits="userSpaceOnUse" x1="99.325" y1="37.35" x2="99.325" y2="60.369">
		<stop offset="0" stop-color="#ee2238"/>
		<stop offset="0.36" stop-color="#e31e26"/>
		<stop offset="0.92" stop-color="#791217"/>
		<stop offset="1" stop-color="#610408"/>
	</linearGradient>
	<radialGradient id="grd2" gradientUnits="userSpaceOnUse" cx="99.029" cy="48.951" r="11.629">
		<stop offset="0" stop-color="#ee2238" stop-opacity="0"/>
		<stop offset="0.34" stop-color="#e31e26" stop-opacity="0.3"/>
		<stop offset="0.38" stop-color="#e85a41" stop-opacity="0.37"/>
		<stop offset="0.44" stop-color="#ef9175" stop-opacity="0.48"/>
		<stop offset="0.5" stop-color="#f6bca7" stop-opacity="0.57"/>
		<stop offset="0.55" stop-color="#fbddd0" stop-opacity="0.65"/>
		<stop offset="0.58" stop-color="#fef2ec" stop-opacity="0.72"/>
		<stop offset="0.61" stop-color="#fffbf9" stop-opacity="0.76"/>
		<stop offset="0.8" stop-color="#ffffff" stop-opacity="0.8"/>
		<stop offset="1" stop-color="#ffffff" stop-opacity="0"/>
	</radialGradient>
	<linearGradient id="grd3" gradientUnits="userSpaceOnUse" x1="105.135" y1="58.871" x2="93.484" y2="38.909">
		<stop offset="0.04" stop-color="#791217"/>
		<stop offset="0.49" stop-color="#d41e25" stop-opacity="0.92"/>
		<stop offset="0.55" stop-color="#e31e26" stop-opacity="0.91"/>
		<stop offset="0.6" stop-color="#e53e30" stop-opacity="0.89"/>
		<stop offset="0.69" stop-color="#eb7458" stop-opacity="0.86"/>
		<stop offset="0.78" stop-color="#f2a58c" stop-opacity="0.83"/>
		<stop offset="1" stop-color="#ffffff" stop-opacity="0"/>
	</linearGradient>
	<linearGradient id="grd4" gradientUnits="userSpaceOnUse" x1="49.325" y1="37.35" x2="49.325" y2="60.369">
		<stop offset="0" stop-color="#ee2238"/>
		<stop offset="0.36" stop-color="#e31e26"/>
		<stop offset="0.92" stop-color="#791217"/>
		<stop offset="1" stop-color="#610408"/>
	</linearGradient>
	<radialGradient id="grd5" gradientUnits="userSpaceOnUse" cx="49.029" cy="48.951" r="11.629">
		<stop offset="0" stop-color="#ee2238" stop-opacity="0"/>
		<stop offset="0.34" stop-color="#e31e26" stop-opacity="0.3"/>
		<stop offset="0.38" stop-color="#e85a41" stop-opacity="0.37"/>
		<stop offset="0.44" stop-color="#ef9175" stop-opacity="0.48"/>
		<stop offset="0.5" stop-color="#f6bca7" stop-opacity="0.57"/>
		<stop offset="0.55" stop-color="#fbddd0" stop-opacity="0.65"/>
		<stop offset="0.58" stop-color="#fef2ec" stop-opacity="0.72"/>
		<stop offset="0.61" stop-color="#fffbf9" stop-opacity="0.76"/>
		<stop offset="0.8" stop-color="#ffffff" stop-opacity="0.8"/>
		<stop offset="1" stop-color="#ffffff" stop-opacity="0"/>
	</radialGradient>
	<linearGradient id="grd6" gradientUnits="userSpaceOnUse" x1="55.135" y1="58.871" x2="43.484" y2="38.909">
		<stop offset="0.04" stop-color="#791217"/>
		<stop offset="0.49" stop-color="#d41e25" stop-opacity="0.92"/>
		<stop offset="0.55" stop-color="#e31e26" stop-opacity="0.91"/>
		<stop offset="0.6" stop-color="#e53e30" stop-opacity="0.89"/>
		<stop offset="0.69" stop-color="#eb7458" stop-opacity="0.86"/>
		<stop offset="0.78" stop-color="#f2a58c" stop-opacity="0.83"/>
		<stop offset="1" stop-color="#ffffff" stop-opacity="0"/>
	</linearGradient>
</defs>
<g>
	<g fill="#999999">
		<path d="M133.66 14.15C134.8 15.27 135.89 16.45 136.92 17.69C137.95 18.92 138.91 20.2 139.81 21.52C140.71 22.85 141.54 24.22 142.31 25.63C143.07 27.03 143.76 28.48 144.38 29.95C145.03 31.44 145.61 32.96 146.1 34.51C146.6 36.05 147.01 37.62 147.34 39.21C147.68 40.8 147.93 42.4 148.09 44.02C148.26 45.63 148.34 47.25 148.34 48.87C148.33 50.48 148.25 52.08 148.09 53.68C147.93 55.27 147.68 56.86 147.37 58.43C147.05 60 146.65 61.56 146.18 63.09C145.71 64.62 145.16 66.13 144.54 67.61C143.92 69.1 143.22 70.56 142.46 71.98C141.7 73.4 140.87 74.78 139.97 76.12C139.07 77.46 138.11 78.76 137.09 80.01C136.07 81.26 134.98 82.46 133.85 83.6L120.53 70.06C121.23 69.36 121.9 68.63 122.53 67.87C123.16 67.1 123.75 66.31 124.3 65.49C124.86 64.67 125.37 63.82 125.84 62.95C126.3 62.08 126.73 61.19 127.11 60.28C127.87 58.45 128.45 56.55 128.84 54.6C129.23 52.66 129.42 50.69 129.42 48.71C129.42 46.73 129.23 44.75 128.84 42.81C128.45 40.87 127.87 38.97 127.11 37.14C126.72 36.23 126.28 35.34 125.8 34.47C125.32 33.61 124.79 32.77 124.22 31.95C123.65 31.14 123.03 30.36 122.38 29.61C121.73 28.87 121.04 28.15 120.31 27.48L133.66 14.15Z"/>
		<path d="M0 48.87C0 44.08 0.7 39.31 2.1 34.72C3.5 30.12 5.57 25.76 8.26 21.76C10.94 17.77 14.2 14.19 17.94 11.13C21.68 8.07 25.85 5.58 30.32 3.72C34.83 1.88 39.58 0.71 44.44 0.24C49.29 -0.24 54.19 0 58.97 0.94C63.76 1.87 68.38 3.5 72.68 5.76C76.99 8.02 80.94 10.9 84.4 14.3L70.86 27.48C69.8 26.43 68.67 25.47 67.46 24.59C66.26 23.71 64.99 22.92 63.66 22.23C62.34 21.54 60.97 20.95 59.55 20.46C58.14 19.97 56.7 19.59 55.23 19.31C53.75 19.04 52.26 18.86 50.76 18.8C49.26 18.74 47.76 18.78 46.27 18.94C44.78 19.09 43.3 19.35 41.84 19.71C40.39 20.08 38.96 20.55 37.58 21.12C36.2 21.69 34.87 22.37 33.59 23.14C32.31 23.9 31.09 24.76 29.93 25.69C28.77 26.63 27.68 27.65 26.67 28.74C25.66 29.83 24.73 30.99 23.89 32.21C23.05 33.43 22.31 34.71 21.66 36.04C21.02 37.37 20.48 38.75 20.05 40.16C19.62 41.57 19.29 43.01 19.08 44.47C18.87 45.93 18.77 47.4 18.79 48.87C18.79 50.36 18.9 51.85 19.13 53.32C19.36 54.79 19.7 56.24 20.14 57.66C20.59 59.08 21.15 60.47 21.8 61.81C22.46 63.15 23.22 64.43 24.07 65.66C25.73 68.13 27.76 70.34 30.07 72.22C32.39 74.11 34.98 75.64 37.76 76.76C40.53 77.89 43.46 78.6 46.45 78.88C49.43 79.15 52.44 78.98 55.38 78.38C56.84 78.1 58.28 77.7 59.68 77.21C61.09 76.71 62.45 76.1 63.76 75.4C65.06 74.7 66.32 73.89 67.5 73C68.69 72.11 69.8 71.12 70.83 70.06L84.18 83.27C82.47 84.98 80.62 86.57 78.66 88.01C76.7 89.45 74.64 90.75 72.48 91.88C70.33 93.01 68.09 93.98 65.78 94.78C63.48 95.58 61.12 96.21 58.72 96.66C56.36 97.17 53.97 97.5 51.56 97.65C49.16 97.79 46.74 97.75 44.34 97.53C41.94 97.31 39.56 96.9 37.22 96.31C34.88 95.73 32.6 94.96 30.38 94.03C28.14 93.11 25.96 92.04 23.88 90.81C21.79 89.58 19.8 88.21 17.92 86.69C16.04 85.18 14.27 83.53 12.63 81.76C10.99 79.99 9.49 78.1 8.13 76.11C6.82 74.09 5.65 71.99 4.64 69.8C3.63 67.62 2.78 65.37 2.09 63.07C1.41 60.77 0.89 58.42 0.54 56.05C0.19 53.67 0.01 51.27 0 48.87L0 48.87Z"/>
	</g>
	<g>
		<path filter="url(#flt1)" fill="url(#grd1)" d="M87.52 48.87C87.53 48.3 87.58 47.72 87.67 47.15C87.76 46.58 87.9 46.01 88.08 45.46C88.25 44.91 88.47 44.37 88.73 43.86C88.99 43.34 89.29 42.84 89.62 42.36C89.94 41.89 90.29 41.43 90.68 41.01C91.06 40.58 91.48 40.19 91.93 39.83C92.38 39.47 92.85 39.15 93.35 38.86C93.85 38.57 94.37 38.32 94.91 38.11C95.44 37.9 95.98 37.72 96.54 37.59C97.09 37.45 97.66 37.35 98.23 37.3C98.8 37.25 99.37 37.23 99.94 37.26C100.51 37.29 101.08 37.36 101.64 37.47C102.78 37.71 103.87 38.1 104.89 38.65C105.91 39.19 106.84 39.88 107.66 40.69C108.48 41.5 109.17 42.43 109.72 43.43C110.28 44.44 110.68 45.52 110.91 46.64C111.03 47.2 111.1 47.76 111.13 48.33C111.16 48.89 111.14 49.46 111.09 50.02C111.03 50.59 110.94 51.15 110.8 51.7C110.66 52.24 110.48 52.78 110.27 53.31C110.04 53.83 109.78 54.34 109.48 54.82C109.18 55.31 108.85 55.78 108.49 56.22C108.13 56.66 107.73 57.08 107.31 57.46C106.89 57.85 106.44 58.21 105.97 58.54C105.49 58.85 104.98 59.14 104.45 59.38C103.93 59.63 103.38 59.83 102.83 60C102.27 60.17 101.7 60.29 101.13 60.37C100.55 60.45 99.97 60.49 99.39 60.49C97.84 60.5 96.3 60.21 94.86 59.63C93.43 59.05 92.12 58.19 91.02 57.11C89.92 56.04 89.04 54.75 88.44 53.34C87.84 51.93 87.53 50.41 87.52 48.87L87.52 48.87Z"/>
		<path filter="url(#flt1)" fill="url(#grd2)" d="M99.39 37.29C98.82 37.28 98.25 37.32 97.68 37.4C97.12 37.48 96.56 37.61 96.02 37.77C95.48 37.94 94.94 38.15 94.43 38.39C93.92 38.64 93.43 38.92 92.96 39.24C92.48 39.56 92.02 39.91 91.59 40.29C91.17 40.67 90.77 41.09 90.41 41.53C90.04 41.97 89.71 42.44 89.42 42.94C89.13 43.43 88.88 43.94 88.66 44.47C88.45 45 88.27 45.54 88.14 46.09C88 46.65 87.91 47.21 87.85 47.77C87.8 48.34 87.78 48.91 87.81 49.48C87.84 50.04 87.91 50.61 88.01 51.17C88.14 51.71 88.3 52.25 88.49 52.77C88.69 53.29 88.91 53.81 89.17 54.3C89.44 54.8 89.73 55.27 90.05 55.73C90.37 56.19 90.73 56.62 91.1 57.04C91.51 57.43 91.94 57.8 92.39 58.13C92.85 58.46 93.33 58.75 93.84 59.01C94.34 59.27 94.86 59.49 95.4 59.67C95.93 59.85 96.48 60 97.04 60.09C97.6 60.2 98.17 60.27 98.75 60.3C99.32 60.32 99.9 60.31 100.47 60.26C101.04 60.2 101.61 60.11 102.17 59.97C102.73 59.84 103.27 59.66 103.81 59.45C104.34 59.24 104.86 58.99 105.36 58.7C105.86 58.41 106.33 58.09 106.78 57.73C107.23 57.37 107.65 56.98 108.03 56.55C108.42 56.13 108.77 55.68 109.09 55.2C109.42 54.74 109.72 54.26 109.99 53.76C110.25 53.26 110.47 52.73 110.65 52.2C110.84 51.66 110.98 51.12 111.08 50.56C111.18 50 111.24 49.44 111.25 48.87C111.25 48.5 111.23 48.12 111.19 47.75C111.15 47.38 111.1 47.01 111.03 46.64C110.96 46.27 110.87 45.9 110.77 45.54C110.67 45.18 110.55 44.82 110.42 44.47C110.26 44.13 110.09 43.8 109.91 43.47C109.73 43.14 109.53 42.82 109.33 42.5C109.12 42.19 108.9 41.88 108.67 41.58C108.44 41.28 108.2 40.99 107.95 40.71C107.69 40.44 107.41 40.18 107.12 39.94C106.82 39.69 106.52 39.47 106.2 39.26C105.88 39.06 105.54 38.87 105.2 38.7C104.86 38.54 104.51 38.39 104.15 38.27C103.77 38.11 103.39 37.97 103 37.85C102.61 37.73 102.22 37.63 101.82 37.54C101.42 37.46 101.01 37.4 100.61 37.36C100.2 37.31 99.79 37.29 99.39 37.29Z"/>
		<path filter="url(#flt1)" fill="url(#grd3)" d="M87.52 48.87C87.53 48.3 87.58 47.72 87.67 47.15C87.76 46.58 87.9 46.01 88.08 45.46C88.25 44.91 88.47 44.37 88.73 43.86C88.99 43.34 89.29 42.84 89.62 42.36C89.94 41.89 90.29 41.43 90.68 41.01C91.06 40.58 91.48 40.19 91.93 39.83C92.38 39.47 92.85 39.15 93.35 38.86C93.85 38.57 94.37 38.32 94.91 38.11C95.44 37.9 95.98 37.72 96.54 37.59C97.09 37.45 97.66 37.35 98.23 37.3C98.8 37.25 99.37 37.23 99.94 37.26C100.51 37.29 101.08 37.36 101.64 37.47C102.78 37.71 103.87 38.1 104.89 38.65C105.91 39.19 106.84 39.88 107.66 40.69C108.48 41.5 109.17 42.43 109.72 43.43C110.28 44.44 110.68 45.52 110.91 46.64C111.03 47.2 111.1 47.76 111.13 48.33C111.16 48.89 111.14 49.46 111.09 50.02C111.03 50.59 110.94 51.15 110.8 51.7C110.66 52.24 110.48 52.78 110.27 53.31C110.04 53.83 109.78 54.34 109.48 54.82C109.18 55.31 108.85 55.78 108.49 56.22C108.13 56.66 107.73 57.08 107.31 57.46C106.89 57.85 106.44 58.21 105.97 58.54C105.49 58.85 104.98 59.14 104.45 59.38C103.93 59.63 103.38 59.83 102.83 60C102.27 60.17 101.7 60.29 101.13 60.37C100.55 60.45 99.97 60.49 99.39 60.49C97.84 60.5 96.3 60.21 94.86 59.63C93.43 59.05 92.12 58.19 91.02 57.11C89.92 56.04 89.04 54.75 88.44 53.34C87.84 51.93 87.53 50.41 87.52 48.87L87.52 48.87Z"/>
	</g>
	<g>
		<path filter="url(#flt1)" fill="url(#grd4)" d="M37.52 48.87C37.53 48.3 37.58 47.72 37.67 47.15C37.76 46.58 37.9 46.01 38.08 45.46C38.25 44.91 38.47 44.37 38.73 43.86C38.99 43.34 39.29 42.84 39.62 42.36C39.94 41.89 40.29 41.43 40.68 41.01C41.06 40.58 41.48 40.19 41.93 39.83C42.38 39.47 42.85 39.15 43.35 38.86C43.85 38.57 44.37 38.32 44.91 38.11C45.44 37.9 45.98 37.72 46.54 37.59C47.09 37.45 47.66 37.35 48.23 37.3C48.8 37.25 49.37 37.23 49.94 37.26C50.51 37.29 51.08 37.36 51.64 37.47C52.78 37.71 53.87 38.1 54.89 38.65C55.91 39.19 56.84 39.88 57.66 40.69C58.48 41.5 59.17 42.43 59.72 43.43C60.28 44.44 60.68 45.52 60.91 46.64C61.03 47.2 61.1 47.76 61.13 48.33C61.16 48.89 61.14 49.46 61.09 50.02C61.03 50.59 60.94 51.15 60.8 51.7C60.66 52.24 60.48 52.78 60.27 53.31C60.04 53.83 59.78 54.34 59.48 54.82C59.18 55.31 58.85 55.78 58.49 56.22C58.13 56.66 57.73 57.08 57.31 57.46C56.89 57.85 56.44 58.21 55.97 58.54C55.49 58.85 54.98 59.14 54.45 59.38C53.93 59.63 53.38 59.83 52.83 60C52.27 60.17 51.7 60.29 51.13 60.37C50.55 60.45 49.97 60.49 49.39 60.49C47.84 60.5 46.3 60.21 44.86 59.63C43.43 59.05 42.12 58.19 41.02 57.11C39.92 56.04 39.04 54.75 38.44 53.34C37.84 51.93 37.53 50.41 37.52 48.87L37.52 48.87Z"/>
		<path filter="url(#flt1)" fill="url(#grd5)" d="M49.39 37.29C48.82 37.28 48.25 37.32 47.68 37.4C47.12 37.48 46.56 37.61 46.02 37.77C45.48 37.94 44.94 38.15 44.43 38.39C43.92 38.64 43.43 38.92 42.96 39.24C42.48 39.56 42.02 39.91 41.59 40.29C41.17 40.67 40.77 41.09 40.41 41.53C40.04 41.97 39.71 42.44 39.42 42.94C39.13 43.43 38.88 43.94 38.66 44.47C38.45 45 38.27 45.54 38.14 46.09C38 46.65 37.91 47.21 37.85 47.77C37.8 48.34 37.78 48.91 37.81 49.48C37.84 50.04 37.91 50.61 38.01 51.17C38.14 51.71 38.3 52.25 38.49 52.77C38.69 53.29 38.91 53.81 39.17 54.3C39.44 54.8 39.73 55.27 40.05 55.73C40.37 56.19 40.73 56.62 41.1 57.04C41.51 57.43 41.94 57.8 42.39 58.13C42.85 58.46 43.33 58.75 43.84 59.01C44.34 59.27 44.86 59.49 45.4 59.67C45.93 59.85 46.48 60 47.04 60.09C47.6 60.2 48.17 60.27 48.75 60.3C49.32 60.32 49.9 60.31 50.47 60.26C51.04 60.2 51.61 60.11 52.17 59.97C52.73 59.84 53.27 59.66 53.81 59.45C54.34 59.24 54.86 58.99 55.36 58.7C55.86 58.41 56.33 58.09 56.78 57.73C57.23 57.37 57.65 56.98 58.03 56.55C58.42 56.13 58.77 55.68 59.09 55.2C59.42 54.74 59.72 54.26 59.99 53.76C60.25 53.26 60.47 52.73 60.65 52.2C60.84 51.66 60.98 51.12 61.08 50.56C61.18 50 61.24 49.44 61.25 48.87C61.25 48.5 61.23 48.12 61.19 47.75C61.15 47.38 61.1 47.01 61.03 46.64C60.96 46.27 60.87 45.9 60.77 45.54C60.67 45.18 60.55 44.82 60.42 44.47C60.26 44.13 60.09 43.8 59.91 43.47C59.73 43.14 59.53 42.82 59.33 42.5C59.12 42.19 58.9 41.88 58.67 41.58C58.44 41.28 58.2 40.99 57.95 40.71C57.69 40.44 57.41 40.18 57.12 39.94C56.82 39.69 56.52 39.47 56.2 39.26C55.88 39.06 55.54 38.87 55.2 38.7C54.86 38.54 54.51 38.39 54.15 38.27C53.77 38.11 53.39 37.97 53 37.85C52.61 37.73 52.22 37.63 51.82 37.54C51.42 37.46 51.01 37.4 50.61 37.36C50.2 37.31 49.79 37.29 49.39 37.29Z"/>
		<path filter="url(#flt1)" fill="url(#grd6)" d="M37.52 48.87C37.53 48.3 37.58 47.72 37.67 47.15C37.76 46.58 37.9 46.01 38.08 45.46C38.25 44.91 38.47 44.37 38.73 43.86C38.99 43.34 39.29 42.84 39.62 42.36C39.94 41.89 40.29 41.43 40.68 41.01C41.06 40.58 41.48 40.19 41.93 39.83C42.38 39.47 42.85 39.15 43.35 38.86C43.85 38.57 44.37 38.32 44.91 38.11C45.44 37.9 45.98 37.72 46.54 37.59C47.09 37.45 47.66 37.35 48.23 37.3C48.8 37.25 49.37 37.23 49.94 37.26C50.51 37.29 51.08 37.36 51.64 37.47C52.78 37.71 53.87 38.1 54.89 38.65C55.91 39.19 56.84 39.88 57.66 40.69C58.48 41.5 59.17 42.43 59.72 43.43C60.28 44.44 60.68 45.52 60.91 46.64C61.03 47.2 61.1 47.76 61.13 48.33C61.16 48.89 61.14 49.46 61.09 50.02C61.03 50.59 60.94 51.15 60.8 51.7C60.66 52.24 60.48 52.78 60.27 53.31C60.04 53.83 59.78 54.34 59.48 54.82C59.18 55.31 58.85 55.78 58.49 56.22C58.13 56.66 57.73 57.08 57.31 57.46C56.89 57.85 56.44 58.21 55.97 58.54C55.49 58.85 54.98 59.14 54.45 59.38C53.93 59.63 53.38 59.83 52.83 60C52.27 60.17 51.7 60.29 51.13 60.37C50.55 60.45 49.97 60.49 49.39 60.49C47.84 60.5 46.3 60.21 44.86 59.63C43.43 59.05 42.12 58.19 41.02 57.11C39.92 56.04 39.04 54.75 38.44 53.34C37.84 51.93 37.53 50.41 37.52 48.87L37.52 48.87Z"/>
	</g>
</g>
</svg>
