<svg
  xmlns="http://www.w3.org/2000/svg"
  viewBox="0 0 1000 1043">
<defs>
  <radialGradient id="gradientcDrTkxmTX" gradientUnits="userSpaceOnUse" cx="382.81" cy="638.66" dx="642.67" dy="274.71" r="447.2">
    <stop style="stop-color: #faa605;stop-opacity: 1" offset="0%"/>
    <stop style="stop-color: #dc5b05;stop-opacity: 1" offset="100%"/>
  </radialGradient>
</defs>
<g>
  <path fill="url(#gradientcDrTkxmTX)" d="M129.17 0L0 874.22L998.25 855L908.98 103.77L129.17 0ZM505.01 872.02C503.66 872.05 502.91 872.07 502.76 872.07C501.53 872.1 491.98 873.34 481.54 874.83C480.28 875 473.95 875.9 462.57 877.52C461.97 879.23 461.63 880.17 461.57 880.36C460.27 884.06 462.7 886.01 468.59 886.01C473.72 886.01 479.59 888.35 480.98 890.95C481.62 892.14 482.02 903.06 482.02 919.55C482.02 944.56 481.91 946.17 480.27 945.47C475.16 943.3 457.63 940.05 450.95 940.03C437.05 939.99 419.81 944.4 409.16 950.72C398.11 957.29 386.95 970.43 382.47 982.16C380.22 988.06 379.88 990.28 380.18 997.36C380.49 1004.74 381 1006.6 384.8 1014.26C387.28 1019.26 390.33 1023.84 392.08 1025.18C393.74 1026.45 396.55 1028.67 398.32 1030.11C401.87 1033.01 410.12 1037.39 417.03 1040.06C422.25 1042.08 444.17 1042.68 450.03 1040.97C451.95 1040.4 456.9 1039.24 461.02 1038.39C465.14 1037.53 471.28 1035.52 474.66 1033.91C482.66 1030.11 485.02 1030.08 485.02 1033.8C485.02 1035.35 485.98 1037.65 487.16 1038.91C489.74 1041.68 490.76 1041.57 509.88 1036.58C522.46 1033.29 528.07 1030.65 526.27 1028.85C525.84 1028.42 522.79 1027.76 519.5 1027.38C511.3 1026.45 509.33 1025.57 507.02 1021.77C505.07 1018.57 505.02 1016.69 505.02 945.25C505.02 935.49 505.02 911.08 505.01 872.02ZM809.97 915.74C805.18 920.31 802.53 922.85 801.99 923.36C794.19 930.82 779.49 942.28 769.16 948.98C766.31 950.83 763.97 952.7 763.97 953.14C763.97 953.58 768.81 954.06 774.72 954.22C775.44 954.24 779.02 954.33 785.47 954.5C785.77 976.1 785.94 988.1 785.97 990.5C786.46 1026.15 786.49 1026.52 788.78 1029.74C796.49 1040.54 814.52 1044.75 832.96 1040.05C843.49 1037.37 847.85 1035.33 849.16 1032.46C849.78 1031.1 850.1 1029.81 849.87 1029.59C849.64 1029.38 847.21 1029.58 844.46 1030.04C841.71 1030.5 834.91 1030.9 829.34 1030.93C828.66 1030.94 825.29 1030.96 819.22 1030.99C816.76 1028.33 815.4 1026.85 815.13 1026.55C812.88 1024.11 810.78 1021.07 810.47 1019.8C810.16 1018.53 810.03 1003.32 810.19 986C810.2 983.9 810.3 973.4 810.47 954.5L839.87 954.5L869.28 954.5L892.37 998.74L892.37 998.73L915.45 1042.97L920.54 1042.98L925.63 1042.99L955.94 997.5L986.26 952L993.1 952L999.94 952L999.94 946.99L999.94 941.97L973.69 942.24L947.44 942.5L947.14 947.25L946.84 952L955.99 952L965.15 952C963.61 954.55 962.75 955.97 962.58 956.25C961.17 958.59 952.97 973.24 944.35 988.81C943.31 990.7 938.09 1000.14 928.69 1017.12C920.37 998.81 915.74 988.64 914.82 986.6C907.19 969.82 900.95 955.62 900.95 955.04C900.95 954.46 903.16 954 905.98 954C911.48 954 912.04 953.38 913.49 945.61C913.54 945.37 913.77 944.17 914.17 942L862.07 942L809.97 942L809.97 928.87L809.97 915.74ZM545.25 972.82C541.95 979.48 541.47 981.43 541.16 989.1C540.73 1000.08 542.56 1006.75 548.34 1015.2C552.1 1020.71 564.1 1031.92 566.29 1031.97C566.72 1031.98 568.26 1032.77 569.7 1033.71C573.5 1036.2 581.32 1038.94 590.5 1041C616.65 1046.85 646.01 1039.58 662.94 1023.06C670.91 1015.29 674.32 1009.76 676.57 1000.97C681.13 983.17 672.78 964.33 655.12 952.59C641.43 943.49 624.93 939.27 608.76 939.34C581.81 939.46 555.78 951.52 545.25 972.82ZM171.98 942.05C169.77 943.18 164.05 945.48 159.27 947.16C142.88 952.94 140.06 955.39 146.17 958.55C147.87 959.44 152.15 962.23 155.67 964.76C156.09 965.07 158.23 966.6 162.07 969.36C162.07 987.06 162.07 996.88 162.07 998.85C162.07 1024.88 161.87 1028.55 160.41 1030.16C159.02 1031.7 157.18 1031.99 148.91 1031.99C148.26 1031.99 144.98 1031.99 139.07 1031.99C139.07 1033.99 139.07 1035.1 139.07 1035.32C139.07 1037.16 139.37 1038.96 139.74 1039.32C140.1 1039.69 156.08 1039.99 175.23 1039.99C177.55 1039.99 189.16 1039.99 210.06 1039.99L210.06 1035.99L210.06 1031.99C203.66 1031.99 200.1 1031.99 199.39 1031.99C190.86 1031.99 188.35 1031.66 186.89 1030.34C185.2 1028.81 185.06 1026.53 185.06 1000.3C185.06 974.43 185.23 971.59 186.96 968.21C188 966.17 189.68 963.76 190.71 962.85C195.97 958.17 208.43 956.54 216.56 959.47C221.32 961.19 230.38 961.43 233.21 959.92C234.32 959.33 235.86 957.32 236.64 955.45C238.6 950.76 236.3 944.82 231.67 942.62C220.96 937.55 208.13 940.85 192.27 952.77C188.26 955.78 184.78 958.05 184.53 957.81C184.29 957.56 183.6 953.8 182.99 949.45C182.39 945.1 181.68 941.19 181.42 940.77C181.09 940.24 180.25 940 179.12 940.01C177.23 940.03 174.51 940.76 171.98 942.05ZM290.48 941.86C276.53 944.53 260.04 954.91 253.74 965C249.69 971.48 249.08 974.89 249.11 991C249.13 1005.01 249.36 1007.02 251.48 1011.99C255.42 1021.2 267.89 1033.88 276.74 1037.68C278.83 1038.58 282.8 1039.89 285.55 1040.6C291.9 1042.24 328.56 1042.05 331.54 1040.36C332.64 1039.73 337.14 1037.48 341.54 1035.36C346.39 1033.02 351.63 1029.48 354.86 1026.37C359.46 1021.93 360.14 1020.8 359.86 1017.97C359.29 1012.15 357.12 1012.13 349.99 1017.88C339 1026.73 332.08 1028.99 315.96 1028.99C306.05 1028.99 298.27 1027.62 292.97 1024.94C287.28 1022.06 278.1 1011.38 274.37 1003.31C271.34 996.76 271.05 995.29 271.05 986.56C271.05 985.93 271.05 982.74 271.05 977L314.04 977L357.04 977C357.03 973.25 357.03 971.17 357.03 970.75C357.03 967.31 356.43 963.38 355.7 962C352.3 955.56 342.3 946.98 333.9 943.3C329.66 941.45 320.74 940.4 311.34 940.3C304.02 940.22 296.41 940.72 290.48 941.86ZM58.08 943.43C40.4 950.09 31.66 956.99 22.7 971.39C8.3 994.53 18.73 1026.28 44.08 1036.47C46.56 1037.46 52.63 1039.29 57.58 1040.52C68.46 1043.24 83.73 1043.63 95.75 1041.51C103.14 1040.2 123.54 1032.5 126.82 1029.78C128.12 1028.71 128.57 1021.82 127.42 1020.67C127.06 1020.32 124.39 1021.38 121.48 1023.05C111.35 1028.84 102.98 1030.99 90.53 1030.99C81.22 1030.99 78.01 1030.56 71.46 1028.42C67.13 1027.01 62.13 1024.95 60.35 1023.85C55.31 1020.74 47.3 1011.15 43.78 1004.02C40.78 997.95 40.57 996.79 40.26 984.89C39.87 969.82 40.91 966.91 49.96 957.91C58.04 949.89 64.29 947.7 77.79 948.19C78.47 948.21 81.87 948.33 87.99 948.55C92.67 953.28 95.26 955.91 95.78 956.43C108.22 969.01 117.17 971.35 124.32 963.91C126.46 961.69 126.52 959.78 124.61 956.07C119.4 946 103.45 940.65 78.58 940.63C66.74 940.61 64.91 940.86 58.08 943.43ZM325.88 954.74C329.8 958.47 330.04 959.02 330.04 964.35C330.04 964.72 330.04 966.61 330.04 970L301.55 970L273.05 970C273.05 968.32 273.05 967.38 273.05 967.19C273.05 965.3 274.55 962.63 277.61 959.04C286.72 948.37 289.74 947 304.24 947.01C316.84 947.01 318.31 947.54 325.88 954.74ZM611.36 947.18C619.42 947.53 621.61 948.03 627.36 950.86C654.12 964.04 660.27 1001.14 639.27 1022.7C633.5 1028.64 626.84 1032.68 619.76 1034.57C601.41 1039.45 581.26 1030.28 572.54 1013.07C564.09 996.4 565.61 977.7 576.59 963.09C584.74 952.25 594.88 947.17 608.57 947.12C609.48 947.11 610.41 947.13 611.36 947.18ZM430.87 948.83C440.36 949.03 445.64 949.14 446.69 949.17C462.02 949.49 462.73 949.6 469.13 952.63C473.41 954.66 476.75 957.1 478.63 959.55C478.82 959.81 479.78 961.07 481.52 963.34C481.69 980.1 481.79 989.41 481.81 991.27C482.06 1015.07 481.88 1019.55 480.57 1021.55C478.03 1025.44 470.65 1029.01 460.81 1031.13C444.37 1034.68 441.7 1034.51 430.02 1029.2C420.76 1024.99 415.72 1020.76 411.31 1013.49C404 1001.46 402.77 997.1 403.25 984.94C403.58 976.43 404.12 973.43 406.05 969.45C409.29 962.75 416.18 956.19 424.21 952.17C425.1 951.72 427.32 950.61 430.87 948.83ZM709.26 1015.4C694.57 1020.28 692.94 1035.62 706.48 1041.59C708.13 1042.32 712.63 1042.93 716.48 1042.95C724.41 1042.99 729.6 1040.63 733.03 1035.43C739.56 1025.51 729.23 1014.39 716.49 1014.26C714.13 1014.24 711.69 1014.59 709.26 1015.4Z"/>
  <path fill="#ffffff" d="M949.26 442.7C546.82 628.55 248.58 279.31 323.35 25.83C323.35 25.83 306.47 23.59 231.07 13.56C230.99 13.91 230.39 16.72 230.32 17.07C196.46 333.68 546.82 628.55 957.56 510.24C955.9 496.73 950.92 456.21 949.26 442.7Z"/>
  <path fill="#ffffff" d="M525.11 529C524.44 531.57 524.07 533 523.99 533.28C517.38 558.69 506.67 574.79 488.02 587.39C475.8 595.65 457.87 602.12 442.76 603.73C435.85 604.47 435.81 604.54 436.23 618.05C436.25 618.69 436.35 621.85 436.52 627.55L465.77 627.82L495.01 628.08C495.01 677.55 495.01 705.02 495.01 710.52C495.01 782.25 495.22 793.58 496.56 797.74C501.39 812.64 511.02 823.82 524.47 830.12C529.05 832.26 533.44 834.02 534.22 834.02C534.99 834.02 539.2 834.92 543.57 836.01C550.44 837.74 562.57 839.45 571.08 839.89C572.5 839.96 578.57 839.57 584.58 839.01C615.27 836.17 632.16 831.22 650.27 819.73C650.79 819.4 653.38 817.75 658.05 814.79C657.88 807.51 657.79 803.47 657.77 802.66C657.6 795.26 657.1 790.6 656.49 790.72C655.62 790.89 652.17 792.32 637.14 798.78C634.21 800.03 624 803.14 613 806.11C611.07 806.63 604.27 807.7 597.88 808.48C575.32 811.24 558.44 805.93 549.72 793.33C549.54 793.08 548.67 791.81 547.09 789.53L546.96 709.04L546.82 628.55C574 628.4 589.1 628.31 592.12 628.29C617.03 628.15 637.81 627.64 638.29 627.15C638.77 626.67 639.24 621.61 639.33 615.92C639.34 615.22 639.39 611.77 639.49 605.56C612.22 605.4 597.07 605.31 594.04 605.3C569.04 605.15 548.21 604.66 547.76 604.21C547.31 603.76 546.84 586.77 546.72 566.48C546.71 564.01 546.63 551.71 546.51 529.57L535.81 529.28L525.11 529ZM190.06 596.15C178.3 598.34 173.29 599.41 166.07 601.31C161.94 602.4 157.67 603.5 156.57 603.75C155.47 604.01 153.67 604.58 152.57 605.02C151.47 605.46 147.42 607.04 143.57 608.53C134.65 611.98 120.75 619.01 113.34 623.83C91.66 637.92 79.63 651.04 66.35 675.04C63.72 679.8 57.62 696.35 56.13 702.76C54.27 710.73 54.56 743.86 56.55 752.34C60.98 771.15 69.34 785.48 85 801.07C94.34 810.36 109.53 821.02 120.57 826.03C142.19 835.82 146.39 837.25 167.57 842.01C184.59 845.83 251.77 846.96 268.05 843.7C272.18 842.88 277.8 841.74 280.55 841.17C292.42 838.72 311.45 831.74 328.75 823.49C335.05 820.48 340.4 818.02 340.65 818.02C341.39 818.02 355.89 807.52 365.15 800.27C388.02 782.37 393.08 777.95 392.3 776.54C391.86 775.77 387.7 772.47 383.05 769.22C382.49 768.82 379.67 766.85 374.59 763.31C369.77 766.4 367.1 768.11 366.56 768.45C349.84 779.18 331.11 789.32 317.86 794.84C289.74 806.53 270.97 810.32 240.55 810.44C215.79 810.53 203.06 808.81 187.56 803.24C157.33 792.4 141.21 773.37 136.54 743.03C135.74 737.81 135.08 730.39 135.08 726.54C135.09 718.37 137.49 698.1 139.06 693.04C139.66 691.12 140.61 687.97 141.17 686.04C143.72 677.37 149.28 666.29 154.72 659.06C166.49 643.4 187.66 628.9 211.56 620.16C219.39 617.29 248.43 614.66 262.55 615.54C274.32 616.27 280.47 617.81 296.55 624.02C310.24 629.31 316.16 634.66 326.24 650.8C339.46 671.99 347.71 677.58 364.74 676.9C374.72 676.5 379.86 674.44 386.36 668.21C392.27 662.56 394.03 658.04 394.03 648.56C394.03 641.32 393.72 639.95 391.13 635.86C385.13 626.41 369.92 616.35 349.04 608.02C343.26 605.72 337.64 603.46 336.54 603.01C333.45 601.72 318.13 597.37 312.54 596.19C298.97 593.32 276.06 591.89 252.69 591.88C229.31 591.87 205.48 593.3 190.06 596.15ZM661.49 606.56L661.49 618.06L661.49 629.55C666.89 629.71 669.89 629.8 670.49 629.82C687.56 630.31 691.02 633.58 715.79 672.66C737.31 706.61 751.97 730.09 751.97 730.61C751.97 730.81 753.95 734.03 756.36 737.76C760.62 744.34 774.12 766.44 797.77 805.53C804.09 815.98 809.94 825.31 810.77 826.27C812.1 827.82 814.36 828.02 830.03 828.02C839.8 828.02 848.54 827.74 849.44 827.39C849.44 827.39 849.44 827.39 849.44 827.39C850.34 827.04 852.58 823.56 854.41 819.64C856.24 815.73 859.86 808.02 862.46 802.53C869 788.67 872.96 780.05 872.96 779.62C872.96 779.42 875.22 774.37 877.99 768.39C880.77 762.42 883.44 756.63 883.94 755.53C884.44 754.43 886.89 749.1 889.4 743.67C891.9 738.25 893.95 733.61 893.95 733.38C893.95 733.14 895.98 728.64 898.45 723.38C900.93 718.12 902.95 713.65 902.95 713.45C902.95 713.11 904.46 709.78 912.22 693.04C914.13 688.92 916.6 683.52 917.71 681.04C922.15 671.11 923.96 667.15 928.2 658.05C936.91 639.34 939.1 635.21 940.59 634.63C941.43 634.31 945.34 633.76 949.28 633.4C953.22 633.04 956.77 632.26 957.18 631.65C958.53 629.63 958.05 616.39 956.58 615.17C954.91 613.78 854.06 611.55 852.74 612.87C852.27 613.35 852.01 617.97 852.17 623.14C852.19 623.77 852.29 626.91 852.46 632.55C858.29 632.69 861.53 632.76 862.18 632.78C874.3 633.05 883.44 634.49 886.69 636.62C889.04 638.16 889.15 638.61 888.55 644.4C886.56 663.4 873.42 701.1 854.18 743.03C852.79 746.06 850.45 751.23 848.97 754.53C841.9 770.33 839.61 775.03 839 775.03C838.64 775.03 833 766.37 826.47 755.78C819.94 745.2 810.4 729.88 805.28 721.74C800.16 713.59 795.97 706.74 795.97 706.5C795.97 706.25 791.92 699.73 786.97 691.99C782.02 684.25 777.97 677.73 777.97 677.51C777.97 677.28 774.3 671.34 769.82 664.32C756.31 643.15 756.16 642.75 759.61 637.48C762.11 633.67 766.84 632.21 781.05 630.86C781.91 630.77 786.22 630.36 793.97 629.62L793.97 619.42L793.97 609.23C789.62 608.9 787.2 608.71 786.72 608.68C777.12 607.95 711.23 606.61 683.48 606.58C680.55 606.58 673.22 606.57 661.49 606.56Z"/>
</g>
</svg>
