<svg
  xmlns="http://www.w3.org/2000/svg"
  viewBox="0 0 389.33 95.52">
<g>
  <path opacity="1" fill="#000000" fill-opacity="1"
    d="M148 44.88L148 3.55L174 3.55L200 3.55L200 12.22L200 20.88L184.66 20.88L169.33 20.88L169.33 27.55L169.33 34.22L182.54 34.22L195.75 34.22C196.02 38.52 196.18 40.9 196.21 41.38C196.97 53.36 197.54 52.88 182.57 52.88C181.68 52.88 177.27 52.88 169.33 52.88L169.33 69.55L169.33 86.22L158.66 86.22L148 86.22L148 44.88ZM208 44.22L208 2.22L220 2.22L232 2.22L232 44.22L232 86.22L220 86.22L208 86.22L208 44.22ZM241.33 44.88L241.33 3.55L252 3.55L262.66 3.55C262.66 21.95 262.66 32.17 262.66 34.22C262.66 51.08 263.11 64.81 263.66 64.73C264.21 64.64 270.81 64.64 278.33 64.73C279.24 64.74 283.8 64.79 292 64.88L292 75.55L292 86.22L266.66 86.22L241.33 86.22L241.33 44.88ZM301.33 44.88L301.33 3.55C304.64 3.55 306.47 3.55 306.84 3.55C311.93 3.55 313.39 4.5 325.85 15.88C347.28 35.46 344.35 33.94 350.47 28.71C353.36 26.24 361.08 19.36 367.62 13.42C376.57 5.3 380.32 2.72 382.76 2.98C384.54 3.17 386.75 3.38 387.66 3.44C388.96 3.53 389.33 12.77 389.33 44.88C389.33 47.64 389.33 61.42 389.33 86.22L378.66 86.22L368 86.22C368 73.82 368 66.93 368 65.55C368 51.09 367.55 44.88 366.49 44.88C365.67 44.88 360.85 48.78 355.8 53.55C350.75 58.32 346.05 62.22 345.35 62.22C344.66 62.22 339.42 58.02 333.71 52.88C333.02 52.26 329.56 49.14 323.33 43.54L322.96 64.88L322.6 86.22L311.96 86.22L301.33 86.22L301.33 44.88Z" id="aryDKillW"/>
  <path opacity="1" fill="#eca106" fill-opacity="1"
    d="M2.53 79.27C0.36 75.03 0 71.35 0 53.56C0 39.15 0.55 31.49 1.8 28.51C6.14 18.14 17.37 9.93 29.37 8.35C32.65 7.92 48.23 5.71 64 3.45C97.47 -1.36 104.37 -1.23 112.38 4.38C121.77 10.95 124.57 18.02 128.67 45.62C131.61 65.42 131.98 70.65 130.77 75.16C128.99 81.76 122.18 88.2 114.87 90.16C109.91 91.5 45.81 95.58 30.66 95.52C26.18 95.5 21 94.43 17.33 92.77C9.91 89.41 5.82 85.68 2.53 79.27ZM73.33 84.03C68.56 81.73 63.58 79.02 62.26 78C60.01 76.27 60.11 75.97 63.98 73.11C64.25 72.91 65.62 71.89 68.09 70.07C72.62 72.29 75.14 73.52 75.65 73.76C89.25 80.42 108.73 78.6 114.99 70.09C117.33 66.93 117.38 66.24 115.6 61.99C113.09 55.99 108.18 53.76 91.33 50.97C69.84 47.43 61.72 41.91 60.37 29.92C58.97 17.51 67.51 10.31 84.99 9.17C90.3 8.82 98.31 9.26 102.79 10.14C112.05 11.96 113.73 11.42 108.81 8.19C102.27 3.91 97 3.73 74.39 7.02C62.44 8.76 52.36 10.2 52 10.21C51.63 10.22 53.54 11.58 56.24 13.22C60.75 15.98 60.99 16.43 59.24 18.81C58.19 20.23 57.33 22.48 57.33 23.81C57.33 26.78 57.7 26.81 50.58 23.32C42.72 19.46 31.09 18.58 25.58 21.42C17.35 25.68 15.61 32.78 17.38 54.88C18.98 74.77 21.02 80.36 28 83.96C33.78 86.94 41.57 86.19 51.32 81.73C57.41 78.94 58.49 78.8 60.76 80.49C62.18 81.54 64.23 82.96 65.33 83.64C67.07 84.72 67.03 85.12 65 86.7C63.71 87.7 62.66 88.75 62.66 89.03C62.66 89.51 73.01 89.18 79.33 88.49C81.07 88.31 78.97 86.75 73.33 84.03ZM117.93 26.11C115.98 22.95 101.39 19.2 90.48 19.05C77.51 18.86 73.33 20.94 73.33 27.55C73.33 33.96 78.21 36.41 98.42 40.15C104.52 41.27 112.02 43.31 115.09 44.68C118.16 46.04 120.87 46.99 121.12 46.79C121.36 46.59 120.9 42.09 120.07 36.79C119.25 31.49 118.29 26.69 117.93 26.11Z" id="fLo9nnuln"/>
</g>
</svg>
