<svg
  xmlns="http://www.w3.org/2000/svg"
  viewBox="0 0 587.28 95.81">
<g>
  <path opacity="1" fill="#000000" fill-opacity="1"
    d="M221.35 47.28C221.35 37.5 226.89 24.96 233.76 19.15C250.73 4.8 276.99 4.85 293.02 19.26C305.19 30.2 309.09 46.99 303.4 63.93C297.21 82.34 274.82 93.76 253.65 89.3C233.83 85.12 221.35 68.89 221.35 47.28ZM285 51.54C285.94 43.15 284.87 39.93 279.25 34.31C270.54 25.6 258.07 25.25 248.73 33.44C240.52 40.65 239.46 51.42 245.98 61.41C251.95 70.57 265.93 73.61 274.7 67.64C281.12 63.27 284.22 58.42 285 51.54ZM438.26 65.37C434.16 56.19 434.35 40.06 438.66 31.55C442.66 23.65 451.36 15.44 459.73 11.67C468.76 7.6 486.18 7.6 495.13 11.66C504.67 15.99 511.01 21.58 515.42 29.54C518.96 35.92 519.35 37.84 519.35 48.64C519.35 62.41 516.49 70.08 508.28 78.29C498.3 88.27 480.03 92.67 465.46 88.6C452.57 84.99 443.6 77.34 438.26 65.37ZM495.57 36.81C493.54 34.15 489.96 30.97 487.62 29.75C478.22 24.88 465.06 28.44 459.07 37.5C456.19 41.85 455.78 43.71 456.3 50.01C457.65 66.24 473.08 75.32 487.6 68.43C498.81 63.11 502.99 46.53 495.57 36.81ZM148.02 49.3L148.02 10.64L158.02 10.64L168.02 10.64L168.02 26.02L168.02 41.39L182.35 41.02L196.69 40.64L197.06 25.64L197.44 10.64L207.4 10.64L217.35 10.64L217.35 49.3L217.35 87.97L207.35 87.97L197.35 87.97L197.35 71.97L197.35 55.97L182.69 55.97L168.02 55.97L168.02 71.97L168.02 87.97L158.02 87.97L148.02 87.97L148.02 49.3ZM310.69 10.4C322.89 10.67 329.67 10.82 331.02 10.85C348.44 11.24 352 11.69 355.88 13.97C363.88 18.68 366.02 22.9 366.02 33.97C366.02 45.2 363.84 49.37 355.54 54.08C355.21 54.26 353.58 55.19 350.65 56.85L362.33 72.07L374.02 87.29L374.37 48.85L374.73 10.4C386.92 10.67 393.69 10.82 395.04 10.85C412.44 11.24 416 11.69 419.88 13.97C425.84 17.48 429.45 22.5 430.56 28.83C432.52 39.96 428.63 48.93 419.63 54.03C419.31 54.21 417.7 55.12 414.82 56.75L426.81 72.36L438.81 87.97L426.3 87.97L413.79 87.97L404.57 73.3L395.35 58.64L394.98 73.3L394.6 87.97L372.1 87.97L349.61 87.97C344 79.13 340.89 74.22 340.27 73.23C335.13 65.13 330.65 58.98 330.29 59.57C329.94 60.16 329.62 66.34 329.58 73.3C329.54 80.27 329.47 86.42 329.43 86.97C329.39 87.52 325.15 87.97 320.02 87.97C319.4 87.97 316.29 87.97 310.69 87.97L310.69 49.19L310.69 10.4ZM338.52 26.59C330.31 24.38 329.35 25.26 329.35 35.04C329.35 39.71 329.8 43.98 330.35 44.54C332.27 46.48 341.94 44.2 344.34 41.24C349.13 35.33 346.52 28.75 338.52 26.59ZM403 26.7C394.67 24.39 394.69 24.38 394.69 35.3C394.69 35.97 394.69 39.3 394.69 45.3C397.52 45.3 399.1 45.3 399.41 45.3C402.66 45.3 405.17 44.28 407.41 42.03C413.2 36.25 411.1 28.95 403 26.7ZM524.02 49.3L524.02 10.64C534.47 10.64 540.27 10.64 541.43 10.64C551.01 10.64 561.5 11.31 564.75 12.13C576.64 15.12 583.55 28.21 580.06 41.16C578.57 46.69 571.85 54.64 568.66 54.64C567.66 54.64 566.45 55.28 565.97 56.06C565.23 57.25 569.16 62.87 587.07 86.3C588.07 87.61 585.64 87.96 575.85 87.92C575.02 87.92 570.85 87.9 563.35 87.87L554.02 73L544.69 58.12L544.31 73.05L543.93 87.97L533.98 87.97L524.02 87.97L524.02 49.3ZM560.02 35.24C560.02 29.98 556.49 26.98 548.83 25.74C548.51 25.68 546.91 25.42 544.02 24.96L544.02 35.13L544.02 45.3C546.71 45.3 548.21 45.3 548.51 45.3C551.03 45.3 554.53 44.09 556.51 42.54C559.07 40.52 560.02 38.55 560.02 35.24Z"/>
  <path opacity="1" fill="#eca106" fill-opacity="1"
    d="M1.92 76.55C-1.15 68.52 -0.35 33.3 3.04 27.03C6.5 20.66 14.28 13.67 20.5 11.37C26.53 9.13 89 -0.05 97.86 0C105.25 0.04 113.11 3.82 118.45 9.91C124.49 16.78 125.12 18.83 128.92 43.97C133.85 76.49 132.53 82.8 119.57 88.69C113.35 91.52 109.13 92.02 75.88 93.9C29.25 96.53 24.62 96.49 18.02 93.48C11 90.27 4.58 83.52 1.92 76.55ZM61.35 77.25C61.35 76.65 63.13 74.89 65.3 73.34C65.56 73.16 66.88 72.22 69.24 70.54C73.43 72.66 75.75 73.83 76.21 74.07C88.77 80.43 104.66 79.75 113.29 72.48C117.83 68.67 118.43 64.76 115.18 60.13C112.2 55.88 106.95 53.93 91.34 51.27C69.11 47.49 61.1 41.49 60.81 28.4C60.67 21.91 64 16.65 70.77 12.69C76.65 9.25 96.32 8.33 106.35 11.03C113.81 13.04 115.31 12.23 110.27 8.92C103.46 4.46 98.77 4.24 76.25 7.35C64.3 9 54.21 10.67 53.82 11.06C53.43 11.45 54.92 12.71 57.13 13.86C57.4 13.99 58.74 14.69 61.15 15.94L59.1 21.16L57.05 26.38C52.94 24.46 50.66 23.4 50.2 23.19C42.57 19.63 32.1 18.96 26.73 21.68C24.92 22.59 22 25.43 20.25 27.99C17.15 32.51 17.08 33.15 17.92 50.64C18.95 72.27 20.05 76.89 25.41 82.02C29.03 85.49 30.41 85.93 37.34 85.84C42.84 85.76 47.18 84.74 51.88 82.42C52.33 82.19 54.56 81.09 58.58 79.1C61.21 80.71 62.67 81.6 62.97 81.78C65.38 83.26 67.61 84.66 67.92 84.9C68.24 85.14 67.34 86.21 65.92 87.28C63.6 89.03 64.31 89.22 73.35 89.22C74.02 89.22 77.35 89.22 83.35 89.23L72.35 83.79C65.02 79.83 61.35 77.65 61.35 77.25ZM102.72 20.54C91.11 17.57 80.92 18.46 76.54 22.84C73.75 25.64 73.44 26.69 74.57 29.66C76.62 35.04 81.11 37.17 96.86 40.18C104.83 41.7 113.45 43.94 116.02 45.15C120.53 47.28 120.7 47.26 121.07 44.66C121.28 43.18 120.97 38.7 120.39 34.71C119.15 26.18 116.54 24.08 102.72 20.54Z"/>
</g>
</svg>
