<svg version="1.1"
	xmlns="http://www.w3.org/2000/svg"
	viewBox="0 0 485.98 95"
	width="485.98"
	height="95">
<g>
	<path
		style="opacity:1;fill:#eca106;fill-opacity:1"
		d="M1.95 79.19C0.46 76.31 0 70.23 0 53.5C0 34.32 0.32 30.94 2.6 26.49C5.69 20.42 14.62 12.45 20.34 10.65C26.13 8.82 88.58 -0.03 95.42 0C105.44 0.05 116.3 6.93 121.14 16.28C123.44 20.72 129.43 58.21 129.47 68.42C129.51 79.59 124.69 86.06 113.64 89.64C109.14 91.09 44.93 95.22 30.39 94.99C26.39 94.93 21.32 94.35 19.11 93.71C14.07 92.24 4.52 84.16 1.95 79.19ZM63.17 72.83C63.44 72.64 64.75 71.71 67.11 70.02C71.76 72.15 74.33 73.33 74.85 73.57C88.22 79.69 102.42 79.01 110.94 71.84C116.32 67.31 116.34 62.15 111 57.66C106.25 53.66 105.77 53.5 89.86 50.85C75.07 48.38 64.99 43.94 61.77 38.48C60.4 36.17 59.46 31.88 59.46 27.95C59.46 14.45 70.37 8.27 91.7 9.67C98.32 10.1 105.51 10.82 107.69 11.26C107.96 11.31 109.28 11.58 111.66 12.07C109.68 10.47 108.58 9.58 108.36 9.4C102.21 4.43 97.15 4.12 74.15 7.3C62.35 8.93 52.38 10.58 51.99 10.96C51.61 11.35 53.13 12.62 55.38 13.78C59.92 16.13 59.97 16.24 58.24 19.48C57.56 20.74 56.7 22.79 56.32 24.04C55.68 26.1 54.94 26 48.17 22.9C42.1 20.12 39.29 19.6 32.94 20.06C18.5 21.1 15.06 27.63 16.48 51.32C17.65 70.89 19.11 76.76 23.98 81.43C27.41 84.71 28.86 85.16 35.66 85.07C41.21 84.99 45.42 83.98 50.37 81.53C50.83 81.3 53.14 80.16 57.3 78.1C59.74 79.77 61.09 80.71 61.36 80.89C63.59 82.43 65.66 83.88 65.97 84.13C66.28 84.37 65.39 85.43 63.99 86.49C61.69 88.24 62.39 88.42 71.36 88.4C72.02 88.4 75.32 88.39 81.27 88.38L72.02 83.74C62.88 78.78 59.93 75.14 63.17 72.83ZM118.23 35.1C118.16 34.5 117.85 31.53 117.27 26.16C113.85 24.7 111.96 23.88 111.58 23.72C103.39 20.21 90.84 18.02 83.62 18.83C72.31 20.1 68.59 28.65 76.78 34.54C78.52 35.79 87.29 38.31 96.28 40.13C105.26 41.96 113.88 44.34 115.44 45.43C118.99 47.91 120.73 48.06 119.86 45.79C119.49 44.83 118.76 40.02 118.23 35.1Z"/>
	<path
		style="opacity:1;fill:#000000;fill-opacity:1"
		d="M232.02 81.99C228.84 79.36 225.96 71.82 225.96 66.17C225.96 65.81 225.96 64.01 225.96 60.76C230.31 60.76 232.72 60.76 233.2 60.76C240.04 60.76 240.49 60.96 241.21 64.39C242.38 69.93 243.76 71.87 247.47 73.2C252.33 74.93 257.67 71.23 257.67 66.13C257.67 61.71 254.2 58.52 241.75 51.51C230.76 45.33 227.28 40.08 227.29 29.73C227.29 19.66 230.51 13.99 238.21 10.49C249.53 5.35 265.85 8.69 270.16 17.02C271.31 19.25 272.62 23.75 273.07 27.04C273.13 27.43 273.4 29.42 273.89 33.01L265.86 33.01L257.84 33.01C257.59 30.45 257.45 29.04 257.43 28.75C256.49 19.18 243.14 18.65 243.14 28.19C243.14 33.39 243.95 34.19 257.5 42.25C269.98 49.67 273.53 54.56 273.53 64.31C273.53 73.72 269.89 80.81 263.52 83.84C256.96 86.95 245.04 87.69 238.83 85.38C236.1 84.36 233.03 82.83 232.02 81.99ZM329.64 75.99C326.52 70.67 326.39 69.48 326.39 47.7C326.39 27.81 326.71 24.36 328.94 20.07C336.21 6.1 360.27 3.73 370.56 15.96C375.44 21.75 376.58 27.77 376.58 47.54C376.58 68.25 375.27 74.24 369.46 80.05C363.64 85.87 350.93 88.92 343.56 86.26C336.11 83.56 332.53 80.92 329.64 75.99ZM359.42 47.84C359.42 32.3 359 27.71 357.36 25.37C354.98 21.97 349.36 21.47 345.47 24.31C343.16 25.99 342.86 28.18 342.48 45.82C342.09 64.23 342.24 65.68 344.89 69.05C348.27 73.35 353.05 73.73 356.78 70.01C359.18 67.6 359.42 65.6 359.42 47.84ZM142.71 47.54L142.71 9.22L150.6 9.22L158.48 9.22L158.86 24.09L159.23 38.95L167.49 39.35L175.75 39.74L175.75 24.48L175.75 9.22L183.67 9.22L191.6 9.22L191.6 47.54L191.6 85.86L183.67 85.86L175.75 85.86L175.75 69.94L175.75 54.02L167.49 54.42L159.23 54.81L158.86 70.34L158.48 85.86L150.6 85.86L142.71 85.86L142.71 47.54ZM200.85 47.54L200.85 9.22L210.1 9.22L219.35 9.22L219.35 47.54L219.35 85.86L210.1 85.86L200.85 85.86L200.85 47.54ZM290.4 55.14L290.05 24.42L283.11 24.42L276.17 24.42L276.17 16.82L276.17 9.22L299.3 9.22L322.42 9.22L322.42 16.49L322.42 23.76C319.45 23.85 317.8 23.9 317.47 23.91C314.74 23.99 311.62 24.14 310.53 24.24C308.84 24.39 308.49 28.96 308.19 55.14C308.17 57.19 308.05 67.43 307.84 85.86L299.3 85.86L290.76 85.86L290.4 55.14ZM384.53 47.54L384.53 9.22C393.84 9.24 399.02 9.25 400.05 9.25C425.63 9.3 430.55 13.13 430.89 33.3C431.09 44.98 429.13 51.4 424.57 53.95C422.03 55.37 422.18 56.09 429.26 74.96C429.54 75.69 430.9 79.32 433.35 85.86L424.91 85.86L416.47 85.86C414.31 80.11 413.11 76.92 412.87 76.28C406.29 58.77 405.94 58.11 403.17 58.11C400.73 58.11 400.53 59.01 400.53 70.34C400.53 77.06 400.49 83.3 400.46 84.21C400.41 85.34 397.88 85.86 392.46 85.86C391.93 85.86 389.28 85.86 384.53 85.86L384.53 47.54ZM414.92 33.67C414.92 25.28 412.12 22.03 405.46 22.67C405.17 22.7 403.7 22.84 401.05 23.1C400.81 28.57 400.68 31.61 400.65 32.21C400.43 37.23 400.56 42.14 400.94 43.12C401.9 45.61 409.6 45.34 412.5 42.71C414.25 41.13 414.92 38.63 414.92 33.67ZM450.6 71.4L450.6 56.94C445.05 42.92 441.96 35.13 441.35 33.57C436.26 20.72 432.1 9.95 432.1 9.65C432.1 9.35 436.06 9.28 440.91 9.49C441.5 9.52 444.44 9.65 449.72 9.88C452.67 18.6 454.3 23.45 454.63 24.42C460.22 41 459.28 41.32 466.39 20.45C466.63 19.75 467.83 16.22 469.99 9.88C474.97 9.64 477.74 9.51 478.3 9.48C484.72 9.18 486.44 9.48 485.88 10.81C485.48 11.75 480.94 22.9 475.8 35.58C475.18 37.12 472.06 44.81 466.45 58.65L466.45 72.25L466.45 85.86L458.53 85.86L450.6 85.86L450.6 71.4Z"/>
</g>
</svg>
