<svg
	xmlns="http://www.w3.org/2000/svg"
	viewBox="0 0 500.74 92">
<g>
	<path
		style="opacity:1;fill:#eca106;fill-opacity:1"
		d="M2.27 76.37C-0.01 71.92 -0.23 69.25 0.14 49.76C0.16 48.31 0.3 41.09 0.54 28.09C2.89 24.74 4.19 22.88 4.46 22.51C6.61 19.44 11.3 15.17 14.89 13.02C20.86 9.43 24.28 8.7 55.83 4.18C94.77 -1.4 100.41 -1.39 108.46 4.25C116.58 9.94 120.14 17.69 122.74 35.36C123.95 43.64 125.52 54.3 126.21 59.06C127.86 70.27 126.22 76.57 120.28 81.78C117.82 83.94 113.63 86.29 110.96 87C105.85 88.37 74.55 90.49 41.93 91.68C23.92 92.33 21.99 92.18 16.64 89.66C9.37 86.25 5.49 82.66 2.27 76.37ZM70.71 81.13C66.11 78.91 61.3 76.29 60.02 75.31C57.84 73.63 57.94 73.34 61.68 70.58C61.94 70.39 63.27 69.41 65.65 67.64C70.07 69.81 72.52 71.02 73.01 71.26C86.43 77.85 107.19 75.37 111.46 66.66C115.51 58.37 107.55 52.43 88.09 49.21C81.01 48.04 72.61 45.8 69.43 44.24C54.75 37.03 53.74 18.41 67.66 11.78C74.05 8.73 90.62 7.71 99.92 9.79C108.02 11.61 109.68 10.98 104.97 7.89C98.66 3.76 93.56 3.59 71.73 6.76C60.19 8.45 50.47 9.83 50.11 9.84C49.76 9.85 51.6 11.17 54.21 12.75C58.56 15.41 58.8 15.85 57.1 18.14C56.09 19.52 55.26 21.69 55.26 22.97C55.26 25.85 55.62 25.87 48.74 22.5C41.15 18.77 29.92 17.92 24.61 20.67C16.67 24.77 14.97 31.65 16.68 52.81C18.16 71.25 19.88 76.78 25.17 80.24C30.23 83.55 40.33 83.08 49 79.12C55.89 75.99 55.91 75.98 60.09 78.44C64.64 81.12 65.36 82.9 62.34 84.06C57 86.11 63.95 86.79 76.5 85.44C78.18 85.26 76.16 83.75 70.71 81.13ZM98.98 19.48C88.98 16.87 76.9 17.53 73.19 20.88C68.81 24.85 70.74 32.12 76.78 34.42C78.61 35.11 86.63 37.07 94.59 38.75C102.56 40.44 110.73 42.69 112.75 43.75C114.76 44.81 116.57 45.52 116.76 45.34C116.95 45.15 116.44 40.54 115.63 35.1C113.94 23.77 113.38 23.24 98.98 19.48Z"/>
	<path
		style="opacity:1;fill:#000000;fill-opacity:1"
		d="M156.94 22.22C156.46 23.56 153 36.68 149.24 51.37C144.27 70.77 141.88 78.09 140.52 78.09C139.38 78.09 138.87 77.21 139.22 75.83C139.54 74.6 143.51 58.95 148.04 41.07C152.58 23.19 156.59 8.57 156.95 8.57C157.32 8.58 162.54 21.54 168.56 37.37C174.58 53.21 180.08 66.2 180.79 66.25C181.5 66.29 186.85 53.76 192.69 38.41C198.53 23.06 203.67 9.63 204.12 8.56C204.95 6.62 222.85 74.79 222.29 77.73C221.33 82.76 218.19 74.24 211.78 49.2C207.81 33.67 204.37 20.77 204.14 20.54C203.91 20.31 198.63 33.6 192.41 50.07C186.19 66.54 181.02 80.12 180.93 80.25C180.83 80.38 175.59 66.83 169.28 50.14C161.3 29.03 157.54 20.53 156.94 22.22ZM271.56 65.53C271.56 62.95 275.17 63.68 276.05 66.44C276.49 67.83 278.6 70.44 280.74 72.24C283.81 74.82 286.03 75.51 291.29 75.51C300.12 75.5 305.72 72.11 307.49 65.68C310.23 55.78 305.88 49.64 290.68 41.97C278.55 35.84 275.42 32.18 275.42 24.13C275.42 13.9 281.63 8.56 293.55 8.56C300.4 8.56 307.93 11.91 309.33 15.56C310.42 18.41 306.79 18.94 304.39 16.28C301.55 13.16 296.35 11.39 291.16 11.8C282.11 12.51 277.07 19.61 279.77 27.85C281.01 31.62 282.95 33.18 293.4 38.75C308.35 46.73 311.47 50.63 311.47 61.37C311.47 69.56 308.91 74.11 302.41 77.47C297.52 80 286.15 79.84 280.73 77.17C276.52 75.1 271.57 68.82 271.56 65.53ZM435.04 60.32C424.72 44.02 424.02 43.22 420.3 43.59C420.04 43.61 418.74 43.74 416.4 43.97C416.19 54.21 416.07 59.89 416.04 61.03C415.83 70.96 415.16 78.09 414.43 78.09C413.65 78.09 413.18 64.95 413.18 43.33C413.18 41.01 413.18 29.42 413.18 8.56C419.39 8.56 422.83 8.56 423.52 8.56C435.92 8.56 441.78 10.7 445.34 16.53C448.55 21.8 448.74 30.64 445.75 35.7C443.29 39.87 437.04 43.33 431.96 43.33C431.74 43.33 430.62 43.33 428.6 43.33C430.67 46.61 431.82 48.43 432.05 48.8C433.94 51.81 438.48 58.9 442.14 64.57C445.8 70.23 449.19 75.55 449.68 76.39C450.74 78.22 448.99 79.56 447.17 78.32C446.45 77.84 441 69.74 435.04 60.32ZM444.08 26.43C444.08 16.14 438.98 12.43 424.83 12.43C424.23 12.43 421.2 12.43 415.76 12.43L415.76 26.08L415.76 39.73C422.39 39.46 426.07 39.3 426.81 39.27C437.06 38.85 438.09 38.56 440.97 35.21C443.14 32.69 444.08 30.03 444.08 26.43ZM241.93 42.68C238.4 36.5 236.44 33.07 236.05 32.38C232.82 26.72 228.43 19.04 226.31 15.32C222.89 9.35 222.72 8.57 224.79 8.59C226.44 8.61 229.62 13.05 235.4 23.35C239.94 31.44 244.1 37.79 244.66 37.45C245.21 37.1 249.29 30.47 253.73 22.69C259.12 13.24 262.52 8.56 264.02 8.56C265.76 8.56 263.98 12.54 256.03 26.41C255.35 27.6 251.94 33.55 245.81 44.26C245.81 54.41 245.81 60.04 245.81 61.17C245.81 75.35 245.5 78.09 243.88 78.09C242.26 78.09 241.95 75.26 241.94 60.39C241.94 60.39 241.93 54.48 241.93 42.68ZM335.93 12.43C331.3 12.43 328.72 12.43 328.21 12.43C322.2 12.43 320.48 12 320.48 10.49C320.48 8.87 323.27 8.56 337.86 8.56C352.46 8.56 355.25 8.87 355.25 10.49C355.25 12 353.53 12.43 347.52 12.43C347.01 12.43 344.43 12.43 339.8 12.43C339.8 32.12 339.8 43.07 339.8 45.26C339.8 73.58 339.53 78.09 337.86 78.09C336.2 78.09 335.93 73.58 335.93 45.26C335.93 40.88 335.93 29.94 335.93 12.43ZM365.54 43.33L365.54 8.56C375.59 8.56 381.17 8.56 382.28 8.56C396.3 8.56 399.02 8.88 399.02 10.49C399.02 12.1 396.52 12.43 384.21 12.43C383.23 12.43 378.29 12.43 369.41 12.43L369.41 25.3L369.41 38.18C378.55 38.18 383.63 38.18 384.64 38.18C397.33 38.18 399.88 38.5 399.88 40.11C399.88 41.71 397.33 42.04 384.64 42.04C383.63 42.04 378.55 42.04 369.41 42.04L369.41 58.78L369.41 75.51C378.29 75.51 383.23 75.51 384.21 75.51C393.23 75.51 399.02 76.02 399.02 76.8C399.02 77.59 392.58 78.09 382.28 78.09C381.17 78.09 375.59 78.09 365.54 78.09L365.54 43.33ZM477.56 43.37C471.78 33.17 468.56 27.51 467.92 26.37C462.62 17.03 458.54 9.12 458.85 8.81C460.58 7.09 463.76 11.09 471.06 24.11C480.43 40.85 478.53 41.15 489.94 21.17C493.9 14.23 497.95 8.56 498.94 8.56C499.92 8.56 500.73 8.91 500.73 9.34C500.73 9.77 496.39 17.77 491.07 27.11C490.43 28.24 487.21 33.9 481.42 44.09C481.42 54.29 481.42 59.96 481.42 61.09C481.42 75.34 481.11 78.09 479.49 78.09C477.87 78.09 477.56 75.3 477.56 60.73C477.56 58.41 477.56 52.63 477.56 43.37Z"/>
</g>
</svg>
