<svg
  xmlns="http://www.w3.org/2000/svg"
  viewBox="0 0 754.99 382.7">
<g>
  <g fill="#e20023">
    <path d="M697.21 138.6L639.26 138.6L639.26 254.49L697.21 254.49L697.21 138.6ZM581.27 312.49L581.27 80.65L697.21 80.65L755.15 138.6L755.15 312.49L581.27 312.49Z"/>
    <path d="M450.98 0L450.98 312.49L566.87 312.49L566.87 254.54L508.93 254.54L508.93 138.6L566.87 138.6L566.87 80.71L508.93 80.71L508.93 0L450.98 0Z"/>
  </g>
  <g>
    <path d="M116.1 0L116.1 80.71L0.16 80.71L0.16 254.54L58.1 312.54L174.05 312.54L174.05 0L116.1 0ZM58.1 138.6L116.1 138.6L116.1 254.49L58.1 254.49L58.1 138.6Z"/>
    <path d="M304.8 254.58L246.85 254.58L246.85 208.36L304.8 208.36L304.8 254.58ZM188.85 138.63L304.8 138.63L304.8 150.42L188.85 150.42L188.85 312.53L362.75 312.53L362.75 80.69L188.85 80.69L188.85 138.63Z"/>
    <path d="M377.21 80.76L377.21 324.7L435.2 382.7L435.2 80.76L377.21 80.76Z"/>
    <path d="M377.21 68.92L435.2 68.92L435.2 0L377.21 0L377.21 68.92Z"/>
  </g>
</g>
</svg>
