<svg
  xmlns="http://www.w3.org/2000/svg"
  viewBox="0 0 1000 220.13">
<defs>
  <linearGradient id="gradientb3rjeNf6EY" gradientUnits="userSpaceOnUse" x1="783.4" y1="178.93" x2="995.4" y2="178.93">
    <stop style="stop-color: #73bf43;stop-opacity: 1" offset="0%"/>
    <stop style="stop-color: #241749;stop-opacity: 0.2" offset="100%"/>
  </linearGradient>
  <linearGradient id="gradientarF1MQyjR" gradientUnits="userSpaceOnUse" x1="787.04" y1="35.5" x2="991.07" y2="35.5">
    <stop style="stop-color: #002b7b;stop-opacity: 1" offset="0%"/>
    <stop style="stop-color: #241749;stop-opacity: 0.2" offset="100%"/>
  </linearGradient>
</defs>
<g>
  <path fill="#241749" opacity="1"
    d="M889.94 0C829.15 0 779.87 49.28 779.87 110.07C779.87 170.85 829.15 220.13 889.94 220.13C950.72 220.13 1000 170.85 1000 110.07C1000 49.28 950.72 0 889.94 0Z"/>
  <path opacity="1" fill="url(#gradientarF1MQyjR)"
    d="M787.04 71.01C806.7 33.92 846.63 10.52 890.28 10.52C932.06 10.52 970.58 31.97 991.07 66.63C973.7 26.2 933.93 0 889.93 0C889.91 0 889.89 0 889.87 0C844.18 0.03 803.25 28.29 787.04 71.01Z"/>
  <path opacity="1" fill="url(#gradientb3rjeNf6EY)"
    d="M889.93 220.13C938.6 220.13 981.49 188.17 995.4 141.54C976.57 180.67 935.5 205.76 890.28 205.76C843.47 205.76 801.28 178.9 783.4 137.72C796 186.25 839.8 220.13 889.93 220.13Z"/>
  <path fill="#fefefe"
    d="M905.16 151.21C905.16 150.95 908.86 150.74 913.4 150.74C913.95 150.74 916.69 150.74 921.64 150.74C922.92 143.61 923.63 139.65 923.77 138.86C924.95 132.33 925.91 126.76 925.9 126.48C925.9 126.21 922.26 125.98 917.81 125.98C917.27 125.98 914.58 125.98 909.73 125.98C909.96 124.88 910.09 124.27 910.11 124.14C910.48 122.39 913.96 102.64 921.24 61.09C923.08 50.6 924.75 41.2 924.96 40.18C924.98 40.06 925.11 39.45 925.33 38.34L905.67 38.34L886.01 38.34L854.82 85.01L823.63 131.67L822 141.2L820.38 150.74L847.71 150.74L875.05 150.74C875.05 151.64 875.05 152.14 875.05 152.24C875.05 153.07 874.15 158.71 873.05 164.78C871.96 170.86 871.05 176.35 871.05 176.99C871.04 178.07 872.18 178.16 885.74 178.16C900.45 178.16 900.45 178.16 900.78 176.66C901.23 174.63 905.16 151.81 905.16 151.21ZM856.46 124.49C857 123.66 864.45 112.05 873.03 98.7C881.6 85.36 888.72 74.53 888.84 74.65C888.96 74.78 887.69 82.54 886.02 91.9C884.34 101.26 882.32 112.69 881.52 117.29C881.42 117.84 880.94 120.63 880.07 125.65L867.77 125.83L855.48 126.01C856 125.2 856.33 124.7 856.46 124.49Z"/>
  <path fill="#2c72c1"
    d="M464.83 90.27C465.88 86.33 469.13 82.44 473.32 80.12C473.57 79.98 474.85 79.28 477.14 78.01C490.12 77.88 497.33 77.81 498.78 77.79C523.19 77.55 525.02 77.8 529.04 81.81C532.9 85.68 532.97 87.32 530.01 104.18C524.84 133.49 524.63 134.23 520.05 138.25C514.91 142.76 514.51 142.83 491.14 143.07C489.72 143.09 482.64 143.16 469.89 143.3C469.18 147.39 468.79 149.67 468.71 150.12C468.06 153.88 467.31 158.22 467.03 159.77C467 159.96 466.83 160.9 466.53 162.59C462.2 162.71 459.8 162.78 459.32 162.79C455.36 162.9 452.12 162.74 452.12 162.44C452.14 160.88 464.06 93.18 464.83 90.27ZM516.51 92.99C516.08 92.3 473.26 92.29 473.27 92.99C473.27 93.28 474.23 94.06 475.39 94.72C476.56 95.39 477.7 96.4 477.92 96.97C478.14 97.55 477.18 104.3 475.79 111.98C474.4 119.65 473.26 126.32 473.26 126.79C473.26 127.39 475.35 127.72 480.14 127.88C495.28 128.39 508.91 128.35 509.77 127.8C510.71 127.21 517.14 94.01 516.51 92.99ZM369.98 141.62C370.28 140.24 372.47 128.41 372.47 128.15C372.47 128.1 383.79 128.14 397.62 128.24C411.45 128.35 423.02 128.18 423.33 127.87C423.64 127.56 412.95 121.47 399.58 114.34C380.38 104.11 375.17 101.04 374.85 99.77C374.41 98.01 378.83 83.89 380.62 81.33C382.96 78 386.82 77.62 416.96 77.82C418.81 77.84 428.1 77.9 444.81 78.01L443.46 85.23L442.11 92.46C426.68 92.46 418.11 92.46 416.39 92.46C398.3 92.46 390.75 92.68 390.93 93.22C391.07 93.64 401.5 99.58 414.09 106.43C426.69 113.28 437.39 119.14 437.86 119.46C439.37 120.46 438.72 125.02 436.04 132.21C434.31 136.85 432.85 139.62 431.67 140.5C428.68 142.73 422.4 143.2 395.54 143.2C393.81 143.2 385.17 143.2 369.63 143.2C369.81 142.36 369.93 141.83 369.98 141.62ZM547.98 131.21C547.98 129.45 549.56 119.34 551.49 108.73C554.29 93.33 555.37 88.82 556.84 86.32C558.8 82.97 563.51 79.52 567.69 78.35C571.07 77.42 610.32 77.46 613.72 78.4C617.51 79.45 621.11 82.86 622.03 86.27C622.69 88.73 622.29 91.97 619.17 109.6C617.18 120.86 615.13 131.07 614.63 132.29C613.2 135.7 609.57 139.42 605.92 141.22C602.69 142.81 602.05 142.86 580.75 142.98C568.73 143.05 557.83 142.84 556.52 142.52C551.3 141.24 547.98 136.85 547.98 131.21ZM606.71 92.99C606.24 92.2 563.48 92.33 563.48 93.11C563.48 93.48 564.13 93.98 564.91 94.22C565.7 94.47 566.83 95.42 567.43 96.33C568.42 97.86 568.31 99.11 566 111.73C564.61 119.29 563.48 125.96 563.48 126.56C563.48 127.45 564.73 127.69 570.36 127.88C585.54 128.39 599.13 128.35 600 127.8C600.93 127.21 607.32 94.03 606.71 92.99ZM635.66 141.27C635.87 140.2 637.03 133.62 638.22 126.64C644.93 87.34 644.97 87.18 649.59 82.84C654.62 78.11 655.02 78.03 675.11 77.79C676.33 77.77 682.41 77.7 693.35 77.57C693.11 78.54 692.98 79.09 692.96 79.2C692.74 80.09 692.17 83.44 691.69 86.64C691.63 87.03 691.34 88.97 690.82 92.46C679.47 92.46 673.17 92.46 671.91 92.46C661.51 92.46 653.01 92.69 653.02 92.99C653.04 93.28 654.07 94.15 655.32 94.93C656.56 95.72 657.68 97.03 657.79 97.85C657.97 99.05 651.91 135.47 650.51 141.62C650.17 143.14 649.85 143.2 642.71 143.2C642.21 143.2 639.73 143.2 635.26 143.2C635.47 142.17 635.61 141.53 635.66 141.27ZM706.43 131.75C706.43 130.1 708.68 116.07 711.43 100.56C714.18 85.06 716.99 69.2 717.68 65.32C717.76 64.85 718.17 62.5 718.92 58.27C723.46 58.15 725.98 58.08 726.49 58.07C730.65 57.96 734.05 57.96 734.05 58.07C734.04 58.18 733.25 62.52 732.29 67.72C731.32 72.92 730.53 77.28 730.53 77.41C730.53 77.55 737.69 77.65 746.44 77.65C761.26 77.65 762.32 77.74 761.97 78.89C761.77 79.57 761.23 82.34 760.78 85.06C759.43 93.12 761.41 92.41 739.85 92.62C721.43 92.8 721.06 92.84 723.28 94.05C727.25 96.22 727.28 96.65 724.43 112.52C723.01 120.48 721.97 127.12 722.13 127.28C722.29 127.43 729.33 127.67 737.77 127.81C738.79 127.82 743.91 127.9 753.12 128.05C752.86 129.74 752.72 130.68 752.69 130.87C752.45 132.42 751.89 135.75 751.43 138.27C751.38 138.58 751.1 140.1 750.61 142.85C740.67 142.92 735.15 142.96 734.05 142.96C724.94 143.02 716.42 142.82 715.11 142.5C710.04 141.29 706.44 136.84 706.43 131.75ZM950.39 36.47C943.52 26.75 935.37 17.85 928.69 12.77C926.11 10.82 920.53 7.49 916.27 5.38C907.74 1.13 908.08 0.67 917.81 3.27C947.75 11.29 972.33 30.65 987.24 57.92C992.66 67.84 996.14 78.88 994.23 80.07C993.89 80.28 992.29 79.74 990.67 78.88C982.06 74.27 962.64 53.83 950.39 36.47ZM832.06 23.08C839.83 20.9 844.28 23.23 844.18 29.43C843.98 43.22 819.22 63 808.78 57.72C798.31 52.42 814.76 27.93 832.06 23.08Z"/>
  <path fill="#241749"
    d="M200.28 78.71C190.44 81.27 183.18 87.27 178.82 96.46C176.55 101.24 176.19 102.72 175.94 108.37C175.62 115.73 176.79 120.89 180.09 126.7C184.45 134.36 193.92 140.96 202.61 142.4C204.74 142.75 227.93 143.08 254.15 143.12C293.79 143.19 301.95 143.04 302.62 142.23C303.19 141.55 303.37 136.17 303.23 124.08C303.22 122.94 303.16 117.21 303.05 106.91L287.18 106.91L271.33 106.91L271.14 121.18L270.94 135.45C259.34 135.45 252.9 135.45 251.61 135.45C239.98 135.45 230.79 135.14 228.54 134.66C220.57 132.97 213.67 127.79 210.32 120.98C208.82 117.94 208.6 116.5 208.6 110.08C208.6 102.98 208.7 102.49 211.01 98.22C213.73 93.21 216.67 90.47 222.34 87.67C222.6 87.55 223.89 86.91 226.22 85.76L248.75 85.41L271.28 85.06C272.21 83.4 272.73 82.49 272.83 82.3C273.68 80.79 274.21 79.13 274.01 78.6C273.72 77.87 256.71 77.52 239.06 77.55C221.41 77.57 203.12 77.97 200.28 78.71ZM0.54 78.41C0.01 78.94 -0.12 88.62 0.1 110.31C0.28 127.43 0.55 141.85 0.71 142.35C0.94 143.08 10.67 143.22 50.88 143.06C54.2 143.04 70.83 142.98 100.76 142.85C103.29 141.84 104.7 141.28 104.99 141.16C110.41 139 114.03 136.5 118.13 132.11C123.62 126.24 126.48 118.82 126.48 110.43C126.48 101.13 123.05 93.27 116.18 86.85C111.4 82.38 106.36 79.66 100.55 78.44C97.98 77.9 73.24 77.63 49.02 77.62C24.8 77.61 1.08 77.88 0.54 78.41ZM134.66 78.78C134.21 79.95 134.85 140.77 135.33 142.33C135.72 143.59 165.63 143.6 166.41 142.33C166.98 141.41 166.77 79.11 166.2 78.19C166.02 77.89 158.94 77.65 150.48 77.65C137.04 77.65 135.04 77.8 134.66 78.78ZM312.21 78.01C312.1 96.99 312.04 107.53 312.02 109.64C311.89 132.67 312.06 141.55 312.65 142.26C313.31 143.04 316.41 143.2 328.69 143.04C329.71 143.03 334.79 142.97 343.92 142.85L343.92 110.43L343.92 78.01L328.07 78.01L312.21 78.01ZM75.38 85.76C77.79 86.89 79.13 87.52 79.4 87.64C84.53 90.05 89.43 94.96 91.81 100.07C93.41 103.49 93.68 105.03 93.67 110.43C93.66 115.9 93.39 117.33 91.72 120.78C88.84 126.7 82.61 132.19 76.7 134.02C72.51 135.31 70.18 135.45 52.5 135.45C51.2 135.45 44.68 135.45 32.94 135.45C32.71 120.76 32.59 112.59 32.56 110.96C32.35 97.49 32.42 86.21 32.71 85.9C33 85.58 42.72 85.42 54.31 85.54C54.31 85.54 61.33 85.62 75.38 85.76Z"/>
  <path fill="#6ecfe7" opacity="1"
    d="M930.26 180.3C933.72 175.46 942.85 166.46 947.64 163.17C955.07 158.08 964.33 154.48 970.02 154.48C975.82 154.91 978.08 159.81 977.75 163.53C976.3 179.55 950.62 203.03 933.17 204.29C930.48 204.49 928.3 204.26 927.18 203.67C921.25 200.55 922.48 191.2 930.26 180.3Z"/>
</g>
</svg>
