<svg
  xmlns="http://www.w3.org/2000/svg"
  viewBox="0 0 1014.9 442">
<defs>
  <linearGradient id="SVGID_1_" gradientUnits="userSpaceOnUse" x1="685.5058" y1="151.1462" x2="685.5058" y2="300.7376">
  	<stop offset="0" style="stop-color:#FFFFFF"/>
  	<stop offset="0.1584" style="stop-color:#FDFFFE"/>
  	<stop offset="0.2509" style="stop-color:#F4FEFC"/>
  	<stop offset="0.3266" style="stop-color:#E6FCF8"/>
  	<stop offset="0.3931" style="stop-color:#D2FAF2"/>
  	<stop offset="0.4536" style="stop-color:#B8F7EB"/>
  	<stop offset="0.5098" style="stop-color:#98F4E2"/>
  	<stop offset="0.5627" style="stop-color:#72F0D7"/>
  	<stop offset="0.6115" style="stop-color:#47EBCB"/>
  	<stop offset="0.6509" style="stop-color:#1FE7C0"/>
  </linearGradient>
</defs>
<path id="background" fill="#003A7B"
  d="M1012.8,203.7c-7-36.2-41.8-53.5-57.5-57.6c-17.5-4.5-36.3-3.2-52.8,3.9c-8,3.4-18.7,9.5-25.3,15.4  c-6.9-6.6-22.4-15.7-39.9-15.7c-15.4,0.7-78.3,8-94.5,16.6c-8.9-15.6-22.8-33.1-39.6-34.4c-7.9-0.6-15.6,2.6-20.3,9  c-6.6,9-6.1,21.2-4,34.5c-24-24.1-78-25.6-112.3-25.9c-32.6-0.2-75.2,8.2-87.3,14.8c6.1-3.7,29.7-17.4,44.3-37.4  c14.8,2.3,31.7-5.6,40.2-17.8c9.2-13.4,9.7-31.3,2.3-45.6c-6.1-11.8-17.2-20.7-29.9-24.3c-13.7-3.9-28.9-1.1-40,7.9  c-1.6-15.2-12.5-28.1-26.5-33.7c-15-6-32.8-3.8-45.6,6.2c-6.9,5.4-12.2,12.9-14.6,21.3c-2.7,9.9-1.3,20.7,3.7,29.5  c0,0-0.1,0.1-0.1,0.2C400.4,82.1,389,99.1,390.1,117c-30.4-30.2-66.1-54.1-99.4-71.3C257,28.3,192.5,1.6,126.1,0.1  C106.5-0.4,63,1.4,43.2,7.4C1,20-3.1,50.7,1.4,64c5.1,14.9,22.6,20.8,45,16.9c8.3-1.5,16.9-8.4,18.9-19.2  c32.6-1.9,70.2,0.8,106.2,10.5c-8.3,22.2-13.6,51.1-16.6,84.1c-18.2,3.9-40.1,10.2-56.9,18.4c-15,7.3-31.5,17.9-37.3,34.5  c-6.3,17.7,4.1,35.1,15.1,48.4c11.6,14.1,39.9,40.5,78.5,59c1.6,9.5,5.9,29.4,26.2,35.9c14,4.5,31.8,1.3,42-13.4  c12.8,2.9,36.5,4.5,50.9,4.6l0,20.1c0,24.9,20.2,45.3,45.1,45.3h508.8c6.4,13.3,19.4,29.2,34.3,32.1c26.8,5.3,29.9-19.6,31.4-27.4  c1.5-8.2,2.7-16.4,5.3-24.4l19.6-65.6c17.1-2.6,36.5-10.7,50.3-20.8c13.6-9.9,25.3-22.4,33.9-36.8  C1013.2,247.5,1018,225.3,1012.8,203.7"/>
<path id="mickeymouse" fill="White"
  d="M457.3,87.4c-21.5,3.6-35,16.1-31.7,26.1C433.7,103.9,445.6,94.2,457.3,87.4 M441.1,126.4c4,1.2,8.8,2,14.4,2  c13.6,0,45.2-12.6,45.2-28c0-2.6-1.5-9.2-9.8-9.2C478.1,91.2,452,114.2,441.1,126.4 M441.3,74.1c-6.8-2.7-12.6-7.8-15.2-14.6  c-2.9-7.5-1.5-15.9,3.4-22.2c9-11.6,26.8-13.7,38.9-5.9c6.5,4.2,11.1,11.2,11.4,19c0.3,6.3-2.2,12.4-6.5,16.9  c11.1,0.6,18.7,6.3,24,11.3c0.1,0,0.2,0,0.4,0c0.2-3.7,1.1-7.5,2.9-10.7c4.2-7.2,11.5-12,19.7-12.9c8.2-1,17.8,1.9,25.9,10.2  c4.6,4.7,7.3,11.3,7.7,18c0.5,7.8-2.5,15.7-8.4,20.9c-6.1,5.4-14.6,7.3-22.5,5.9c-3.4-0.3-6.6-1.4-9.5-3c-9,20.1-40,40.4-60.8,40  c-35.5-0.6-44.2-21.1-44.3-32.8C408.6,102.5,420.9,84,441.3,74.1"/>
<g id="disney" style="fill:url(#SVGID_1_);fill-opacity:1;stroke:White;stroke-width:3;stroke-opacity:1">
 <path d="m 966.8,177.3 c -19.7,1.2 -57.8,43.1 -80,71.5 -1.4,-2.9 -2.2,-5.7 -2.2,-8.3 0,-11.9 22.5,-47.8 26.7,-56.7 4.4,-9.4 -0.5,-21.7 -6.1,-17.3 -10.6,8.7 -44.4,48.1 -44.3,84.8 0,8.4 2.2,18.7 7,28.1 -7.6,24.6 -26.1,79.3 -25.5,112.6 0.3,17.1 17.7,34 28.1,31.7 3.9,-0.9 4.8,-23.3 10,-38.7 7.3,-21.9 19,-62 23.1,-79.1 45.9,3.2 92.9,-43.8 92.9,-81.8 -0.1,-38.1 -22.6,-47.2 -29.7,-46.8 z m -47.6,93.9 c 16.6,-28.8 40.8,-67 49.7,-66.9 v 0 c 6.2,0.1 8.6,6.3 8.6,15.7 0.1,28.2 -34,51.6 -58.3,51.2 z"/>
 <path d="m 834.4,169.2 c -33.8,3.6 -77.7,3.5 -77.6,14.5 0,10.4 20.5,14.5 21.1,17.3 0.5,2.9 -2.7,13.6 -3.9,16.9 -1.2,3.6 -15.8,4.7 -16.8,14.8 -0.2,2.4 3.6,6 2.9,8.8 -2.3,8.5 -9.3,26 -9.3,33.3 0,11.2 8.3,36.2 31.3,35.5 36.3,-1.2 68.8,-26.4 69.3,-30.9 0.7,-6.7 -9.2,-14.5 -16.2,-14.5 -7,0 -46.2,8.7 -48.9,6.4 -2.5,-2.3 2.3,-25 7.3,-26.6 4.9,-1.6 35.5,-1.1 40.6,-1.4 14.3,-0.8 11.6,-20.1 2.7,-20.8 -4.4,-0.4 -32.2,-0.5 -33.8,-3 -1.5,-2.5 0.5,-15.4 3.6,-16.7 6.3,-2.6 48.5,-3.8 51.7,-4.6 5.2,-1.3 9.1,-4.1 10.4,-8.6 1.3,-4.1 -14.7,-22.6 -34.4,-20.4 z"/>
 <path d="m 701.5,151.1 c -4.1,0 -4.9,4.4 -4.9,9.1 0.1,14 19.5,62.8 19.5,81.6 0,3.9 -0.3,10.8 -3.3,11.7 -4.7,1.3 -45.2,-72.6 -62.1,-73.9 v 0 c -17.4,-1.2 -26.6,72.6 -26.5,90.8 0,18.2 3.2,30.4 16.7,30.4 20.1,0 9.7,-73.9 17.8,-73.9 5.9,0 38.7,67.5 56.9,67.4 19.7,0 31.3,-28.9 31.3,-47.6 -0.3,-43 -28.8,-95.6 -45.4,-95.6 z"/>
 <path d="m 555.2,216.5 c -22.2,-1.8 -46.1,-2.9 -46,-7.9 0.2,-16.4 110.2,-4.3 110.1,-26.6 -0.1,-13.4 -34.3,-13.2 -53.6,-13.1 v 0 c -14.5,0 -87.8,1.8 -87.7,42.6 0.1,27.7 41.1,20.9 68.3,23.7 22.2,2.3 49.2,9.5 49.2,16.8 0,16.3 -58.8,22.8 -70.9,22.9 -25,0.1 -25.5,-7.2 -25.5,-10.9 0,-3.6 4.1,-9.9 13.5,-9.9 9.3,0 28.6,11.9 41.8,11.8 13.3,0 24.3,-5.9 24.3,-11.9 0,-10.9 -44,-16.1 -57.6,-16.1 -14.3,0.1 -34.8,5.9 -34.8,27.4 0,11.1 18.3,37.4 69.4,37.2 50.4,-0.1 63.1,-28.7 63.1,-43.5 0,-35.9 -34,-40 -63.6,-42.5 z"/>
 <path d="m 470.2,259.3 c -1.8,-76.2 -7,-90.9 -18.2,-90.9 -14.3,0.1 -14.7,57.7 -15.1,78.8 -1,48.1 6.1,53.8 18.9,53.7 11.4,0 15.4,-1.3 14.4,-41.6 z"/>
 <path d="m 110.2,19.3 c -31.8,0.9 -58.6,4.3 -71.1,9.6 -10.7,4.7 -20.5,16 -20.5,25.3 -0.2,8.8 10.1,9.5 16.4,9.5 6.3,0 12,-0.5 11.9,-4.2 0,-5.2 -8.3,-4.1 -8.3,-9.3 0,-6 32.2,-7.4 48.3,-7.5 C 225,42.4 384,138 384.3,219.1 c 0.2,63 -81.9,77.2 -127.1,77.3 -16.1,0 -31.7,-1.7 -46.5,-4.5 -0.7,-20.1 -1.9,-62.2 -2.4,-88.8 5.2,-0.1 10.1,-0.1 14.3,-0.1 33.6,-0.1 77.5,11.7 77.6,19.6 0,6.7 -11.7,11.3 -11.7,17.7 0,4.8 10.8,3.9 20.2,4.6 1.6,0.2 20.6,-10.4 20.5,-27 -0.1,-22.1 -27.9,-48 -121.4,-48 v 0 c -0.9,-24.8 -4.6,-63.9 -18.7,-63.9 -11.7,0 -15.1,43.1 -16.1,66.9 -50.4,7.6 -95.3,28.1 -95.3,48.4 0,16.5 36.1,58.2 94.5,83.5 1,18.7 4.6,31.6 21.2,31.4 12,0 16.2,-8.8 17.4,-18.2 18.9,4.8 39.4,7.6 61,7.5 C 356.5,325.3 424.5,280 424.3,218 424,134.8 256.2,15.2 110.2,19.3 Z m 61.5,262.1 c -50.1,-17.7 -84.2,-45.8 -84.2,-55.2 0,-14.5 44,-20 84.7,-22 -0.3,22.7 -0.5,55.3 -0.5,77.2 z"/>
</g>
<g id="channel" fill="White">
  <path d="m 322.7,393.1 c -9,0 -21.7,-4.6 -25,-14.5 -2.7,-8.1 1.2,-16.6 11.7,-25.3 23.5,-19.7 37.3,-23.1 46.7,-23.8 11.4,-0.9 16,6.3 16.9,10.3 0.8,3.7 -1.6,7.3 -5.2,8.1 -3.4,0.7 -6.8,-1.3 -7.9,-4.5 -0.3,-0.2 -1.1,-0.4 -2.7,-0.3 -7.4,0.6 -18.5,3.5 -39.1,20.7 -6.8,5.6 -7.8,9.3 -7.4,10.5 0.8,2.3 6.3,4.9 10.9,5.2 9.9,0.5 48.9,-1.7 56.9,-4.4 3.6,-1.2 7.4,0.7 8.6,4.2 1.2,3.6 -0.7,7.4 -4.3,8.6 -10,3.3 -46.5,5.2 -60.1,5.2"/>
  <path d="m 445.9,362.5 1.3,29 c 0.2,3.8 -2.7,6.9 -6.5,7.1 -0.1,0 -0.2,0 -0.3,0 -3.6,0 -6.6,-2.8 -6.8,-6.5 l -1.2,-25.9 c -5.9,1.7 -12.9,3.7 -19.8,5.8 v 16.7 c 0,3.7 -3,6.8 -6.8,6.8 -3.8,0 -6.8,-3.1 -6.8,-6.8 v -12.6 c -0.7,0.2 -1.3,0.4 -1.9,0.6 -0.7,0.2 -1.3,0.3 -1.9,0.3 -2.9,0 -5.6,-1.9 -6.5,-4.8 -1.1,-3.6 0.9,-7.4 4.5,-8.5 1.2,-0.4 3.3,-1 5.9,-1.8 v -25 c 0,-3.8 3,-6.8 6.8,-6.8 3.8,0 6.8,3 6.8,6.8 v 21 c 6.4,-1.9 13.3,-3.9 19.2,-5.6 l -1,-21.4 c -0.2,-3.7 2.7,-6.9 6.5,-7.1 3.7,-0.1 6.9,2.7 7.1,6.5 l 0.8,18.5 c 0.4,-0.1 0.8,-0.2 1.1,-0.2 3.7,-0.6 7.5,2 7.8,5.7 0.2,4.3 -2.2,7.3 -8.3,8.2"/>
  <path d="m 543.1,402.1 c -3.9,0.4 -6.6,-1.6 -7.5,-4.5 -0.2,-0.5 -0.7,-2.1 -0.8,-29.6 -0.1,-30 0.5,-32 5.4,-34 5.4,-2.3 8.8,2 13.9,8.6 3.3,4.1 7.4,9.7 11.8,15.6 4,5.4 9.2,12.3 13.3,17.5 0.2,-11.3 1.8,-44.9 2.2,-48.1 0.5,-3.7 3.8,-6.3 7.6,-5.9 3.7,0.5 6.4,3.9 5.9,7.6 -0.3,2.3 -1.9,29.2 -2,40.6 -0.1,11.7 -0.2,21.3 -5.7,24.6 -2.6,1.6 -5.7,1.7 -8.6,0.2 -3.2,-1.6 -7.2,-6.4 -23.6,-28.4 -2,-2.7 -4.3,-5.8 -6.5,-8.7 -0.1,14.3 0.2,33.7 0.4,37.1 0.2,3.1 -1.9,7 -5.8,7.4"/>
  <path d="m 662.5,393.8 c -6.6,3 -13.3,-3 -24.6,-13.8 l -1,-1 c -2.9,-2.8 -7.5,-7.6 -12.3,-12.7 -1.7,-1.8 -3.8,-4 -5.8,-6.1 0.4,8.7 1.2,20.2 2,30.9 0.3,3.7 -2.5,7 -6.3,7.3 -0.2,0 -0.3,0 -0.5,0 -3.5,0 -6.5,-2.7 -6.8,-6.3 0,0 -0.9,-11.7 -1.6,-23.4 -1.4,-24.3 -1.7,-28.7 4.5,-30.6 5.1,-1.5 6.9,0.4 24.3,18.9 4.5,4.7 9.1,9.6 11.8,12.2 l 1,1 c 1.5,1.4 3.6,3.4 5.8,5.4 -1.1,-12 -3.1,-31 -4.3,-42.1 -0.4,-3.7 2.3,-7.1 6,-7.5 3.7,-0.4 7.1,2.3 7.5,6.1 0.2,1.8 4.8,44.5 5.1,52.7 0.4,6 -3.3,8.3 -4.8,9"/>
  <path d="m 733.4,388.9 c -6.8,4.6 -21.5,3.2 -36.1,4.6 -7,0.7 -12.4,-0.6 -14.6,-3.2 -1.9,-2.3 -3.6,-11.4 -4.8,-21.2 -0.1,-0.5 -0.2,-1.1 -0.2,-1.7 0,-0.1 0,-0.2 0,-0.3 -1.4,-12.3 -2.2,-24.9 -2.2,-25.1 0,-3.2 1.5,-5.3 2.7,-6.5 3.4,-3.3 8.2,-3.4 16.4,-3.2 8.3,0.2 27.7,-1 30.2,-1.2 3.2,-0.6 6.4,1.3 7.5,4.4 1.2,3.6 -0.6,7.4 -4.2,8.7 -2.6,0.9 -28.4,1.8 -33.8,1.8 -1,0 -3,-0.1 -4.9,0 0.3,3.5 0.4,5.1 1,10.7 11.1,-0.4 25,-1.4 31.3,-2.5 3,-0.5 6.5,2.5 6.6,6.3 0.1,2.9 -1.9,5.9 -5.6,6.6 -9.4,1.8 -20.7,2.4 -30.6,2.8 0.3,2.6 1.1,9.1 1.4,10.7 6.1,0.6 17.5,-0.8 33.5,-3.9 3.7,-0.7 6.8,-0.8 8.7,2.4 1.6,3.1 0.8,7.7 -2.3,9.8"/>
  <path d="m 753.5,327.4 c 3.7,0 6.8,2.9 6.8,6.7 0,1.8 0.8,42.4 0.9,49.4 0.2,0 0.5,-0.1 0.7,-0.1 8.3,-1.4 28.8,-4.5 49.1,-2.4 3.7,0.4 6.5,3.7 6.1,7.5 -0.4,3.7 -3.7,6.5 -7.5,6.1 -18.8,-1.9 -37.8,1 -45.4,2.3 -8.6,1.5 -16.6,-2.2 -16.6,-12.5 0,-2.5 -0.6,-33.7 -0.9,-49.9 0,-3.9 3.1,-7.1 6.8,-7.1"/>
  <path d="m 467.6,399.9 c -4.2,-0.5 -6.7,-4.6 -5.8,-8.3 0.8,-3.6 1.7,-6.9 2.4,-10.1 -2.6,-0.2 -4.9,-1.7 -5.9,-4.3 -1.4,-3.5 0.3,-7.4 3.9,-8.8 0.3,-0.1 2.5,-1 5.9,-2.3 11.1,-42.1 15.1,-42.3 19.7,-42.4 3.6,-0.1 7.1,-0.2 22.8,28.2 2.9,0.2 5.4,2.2 6.2,5.1 0.5,1.8 0.2,3.6 -0.7,5.1 3.6,6.9 7.8,15.1 12.6,24.7 1.7,3.4 0.3,7.5 -3.1,9.1 -3.4,1.7 -7.4,0.3 -9.1,-3 -4.1,-8.3 -8.7,-17 -13,-25.1 -7.5,2.4 -16.6,5.8 -23.8,8.5 -1.6,6.1 -3.2,12.4 -4.6,18.3 -0.8,3.3 -3.9,5.8 -7.5,5.3 m 16.3,-39.6 c 4.3,-1.6 8.8,-3.2 12.9,-4.5 -2.9,-5.1 -5.4,-9.6 -7.5,-13 -1.6,4.5 -3.4,10.6 -5.4,17.5"/>
</g>
</svg>
