<svg
	xmlns="http://www.w3.org/2000/svg"
	viewBox="0 0 1000 439.8308411">
<g>
	<polygon fill="#50B748" points="561.5247192,389.8424988 1000,439.8308411 951.3676147,0 561.5247192,0"/>
	<g fill="#FFFFFF">
		<polygon points="879.9517822,213.3617554 854.0177002,259.2115784 825.4523315,259.2115784 867.1727295,193.4394073 826.5856934,129.5586395 855.149231,129.5586395 879.9517822,174.6537323 905.1348877,129.5586395 933.697998,129.5586395 893.4868774,193.4394073 934.8272095,259.2115784 906.2593384,259.2115784"/>
		<path d="M642.2213745,202.2710419c0,0-0.3778076,0-0.7576294,0 v-20.6601563h0.7576294c8.2631836,0,15.786499-7.5231171,15.786499-15.0309448 c0-8.6418152-7.8965454-14.6603699-15.786499-14.6603699h-0.7576294v-22.9270935c0.3798218,0,0.7576294,0,0.7576294,0 c31.9417114,0,40.2092285,25.5608521,40.2092285,37.2098846c0,6.0185699-2.2537231,16.9130554-13.5305176,24.0515594 c12.0303345,3.3806763,20.6756592,15.4041901,20.6756592,30.4413147c0,9.0167084-7.894104,39.0825043-46.9832153,39.0825043 c-0.3711548,0-0.7489624,0-1.1287842,0v-22.9272919h0.7576294c12.77948,0,20.6692505-8.2654572,20.6692505-16.9085083 C662.890625,211.6762695,656.8763428,202.2710419,642.2213745,202.2710419z M641.4637451,202.2710419 c-5.2584839,0-21.4225464,0-21.4225464,0v34.5794067h21.4225464v22.9272919c-7.8876953,0-45.4697876,0-45.4697876,0v-57.5066986 h-17.7212524l0.0526123-20.6601563h17.6686401l-0.0109253-52.6184082c0,0,37.2129517,0,45.4807129,0v22.9270935h-21.4225464 v29.6913147h21.4225464V202.2710419z"/>
		<path d="M767.0629272,236.4827881L767.0629272,236.4827881v25.5494995 c37.2111206-0.3757324,67.2722168-30.4411163,67.2722168-67.6456299c0-37.2020416-30.0610962-67.2754669-67.2722168-67.6487122 v25.5604401l0,0c23.3051147,0,42.0961304,18.7879486,42.0961304,42.0882721 C809.1590576,217.6828613,790.368042,236.4827881,767.0629272,236.4827881z M767.0629272,236.4827881 c-23.3048706,0-42.0936279-18.7999268-42.0936279-42.0961304c0-23.3003235,18.7887573-42.0882721,42.0936279-42.0882721 v-25.5604401c0,0-0.3734131,0-0.7509766,0c-37.2000122,0-67.6436157,30.0645599-67.6436157,67.6487122 c0,37.2045135,30.4436035,67.6456299,67.6436157,67.6456299c0.3775635,0,0.7509766,0,0.7509766,0V236.4827881z"/>
	</g>
	<g>
		<path fill="none" stroke="#231F20" stroke-width="1.1037124" stroke-miterlimit="10" d="M274.4401855,196.6269684 c0,38.1734161-30.9342346,69.1233368-69.1132355,69.1233368c-38.1633148,0-69.1132202-30.9499207-69.1132202-69.1233368 c0-38.1777649,30.9499054-69.1134415,69.1132202-69.1134415 C243.5059509,127.5135269,274.4401855,158.4492035,274.4401855,196.6269684z"/>
		<g>
			<path d="M273.6373596,191.7434082c0.1532898,0.7601013,0.5878296,0.7283325,0.45578-1.3421631 c-0.164856-1.9984894-0.0488892-1.9784698-0.6321716-5.835556c-0.3239441-1.9586639-0.411438-2.1218719-1.3077087-5.8813629 c-0.4788818-1.9268799-0.5176697-1.7834778-1.6933289-5.4111328c-0.6495361-1.8468323-0.6495361-1.8468323-2.1278687-5.353775 c-0.785675-1.7820435-0.8515015-1.6960144-2.5836182-5.0052948c-0.9406433-1.7263336-1.0495911-1.7923584-3.0453796-4.946701 c-1.0881958-1.6374054-1.0725098-1.4737854-3.309082-4.4533539c-1.2260132-1.5713959-1.1773071-1.4624481-3.6561279-4.2555084 c-1.3751678-1.482666-1.5229034-1.5829468-4.189682-4.1207581c-1.5612793-1.4308929-1.7692566-1.4740143-4.6497803-3.8052979 c-1.7535858-1.353302-2.583847-1.7923737-5.6347961-3.8484192c-1.2819214-0.8228302-2.0832977-1.1872101-3.3924408-1.9584503 c-0.2638855-0.1405182-1.2746887-0.6365204-1.5226898-0.7799225c-1.7420197-0.9004059-1.2043304-0.4273071-2.0616302-0.6825256 c0,0,0.7369995,0.4072876,2.0673981,1.3105927c0,0,0,0,0.0158997,0.0200043 c-1.6877594-0.5820465-3.1172028-1.7692566-4.9753876-2.0100403c0,0,0,0,0.0057831,0c0,0,0,0-0.2366638,0.1318512 c-2.6110687-0.7714691-2.6110687-0.7714691-2.8246155-0.791687c0.1807404,0.0889282,0.4114227,0.1749725,0.5979462,0.2639008 l0,0c-2.4732513-0.8028259-3.1815796-0.759903-3.732254-0.6938782c2.5235748,1.319046,5.5202789,1.1785431,8.0653229,2.4402313 c-0.1865234-0.0113525-0.4502106-0.042923-0.6381683-0.0542603c0.0272369,0.0113373,5.3552246,3.0911865,6.5094147,4.1779175 c-0.2034302,0.0229034-0.4615479,0.0660248-0.6550903,0.0889282c2.0343933,2.0102386,6.1351471,1.6716614,6.5480042,5.4858246 c-4.3043976-3.4297791-4.3043976-3.4297791-6.2127228-4.7372742c-0.2034302,0.0313568-0.4774323,0.0744781-0.6924286,0.0973816 c2.9135437,2.4402313,2.9135437,2.4402313,3.4254456,3.3206329c-0.3297119-0.1976624-0.8416138-0.3299103-1.2373505-0.3528137 c0.500351,0.5822449,1.0221558,1.155838,1.5010376,1.760788c-0.2094269,0.2092133-0.2094269,0.2092133-0.8804016,2.4746857 c-0.8242798-0.2636719-0.8242798-0.2636719-1.7865906-1.276123c-0.1918793,0-0.4499969-0.0229034-0.6365204-0.0229034 c0.8290253,0.9121704,1.7362518,1.7492371,2.5549622,2.67276c-0.0270386,0.1978607-0.0701599,0.4844513-0.1029663,0.6794434 c-2.9195251-0.8459473-5.2233734-2.8906555-8.1154633-3.8137665c-0.1477356,0.1318512-0.3571625,0.2983551-0.4989014,0.4073029 c-0.0443573,1.1638794-0.0443573,1.1638794-0.6883087,1.6487579c0.0330048,0.2094116,0.0944977,0.4730988,0.1491699,0.6709747 c-0.2034302-0.0775757-0.440094-0.197876-0.6266174-0.2868042c0,0,0,0-0.1318359,0.5275879 c0.1318359,0.3759308,0.3183594,0.9033051,0.4774475,1.2876892c-1.0221558,1.5829468,0.5506744,3.5069427-0.7256622,5.0585175 c0.1105957,0.5044708,0.2368622,1.1638947,0.3243408,1.6687775c-0.5106506,0.5504761-1.2590027,0.8259277-1.7207642,1.4193268 c1.8424988,4.7717285,1.8424988,4.7717285,2.2440186,5.2103882c0.4887848-0.163208,1.165741-0.5589447,1.4612122-0.9777985 c0.2321167,0,0.5331421-0.0113373,0.759491-0.0113373c0.9121704,1.1098328,0.9449768,2.8935242,2.6985474,3.3750916 c1.2431183-1.8123779-0.5663605-3.9028778,0.500351-5.7266083c-1.8738708-4.1350098-1.8738708-4.1350098-0.8688507-5.0040588 c3.2762756,3.2118988,3.2762756,3.2118988,5.0139618,3.8486328c-0.3511658,0.6938782-1.016571,1.155426-1.4682312,1.7721405 c0.3356934,1.0209045,0.1318512,1.207016-0.3839722,1.6689758c0.120285,4.3757935,0.120285,4.3757935-0.6053619,4.9149323 c0,0,0,0-0.5102539-0.2094269c-1.1886444-0.0889282-2.2210999,0.6938782-3.415329,0.5506897 c-0.603714-1.1096344-0.4933319-2.4633484-1.3349304-3.4840393c-0.2193298,0.0313568-0.4888,0.0744781-0.6982117,0.1089325 c-1.0495911,7.9159546-1.0495911,7.9159546-7.5045471,11.534729c0.0286865,0.2094116,0.0604553,0.4933319,0.0833588,0.6911926 c1.8738708,1.3648529,0.791275,3.8168488,0.773941,3.8482056c-1.0380402,1.5513763-2.9791565,0.1233826-4.172348,1.2101135 c-0.6695404,0.6051636-2.1377563,7.5418854-1.9237976,8.0149841c0.3251648,0.6823273,0.3251648,0.6823273,5.4755096-0.3297119 c0.0113525,0,0.0229034-0.0115509,0.0328064-0.0115509c0,0,0.017334,0,0.3356934-0.0313568c0,0,0.0272369,0,0.1918793-0.0115662 c4.6184387-1.2216492,2.1063995-8.0810089,7.4057159-8.7404327c0.5779114,1.7806091,0.0214539,3.6705627,0.7584534,5.4540558 c0.2366638,0.0546875,0.5451202,0.1089478,0.7757874,0.1749725c0.6321869-0.6938782,0.6321869-0.6938782,0.6810913-4.4075623 c0.2193298-0.0458069,0.5003357-0.1118317,0.7196655-0.1889954c1.6875458,1.3962097,2.380188,2.8704224,2.0504761,4.3986816 c-0.1650543,0.0660248-0.4171906,0.1318512-0.603714,0.197876c-0.1547394,0.3841705-0.3571472,0.9233093-0.3138123,1.3305969 c0.3022614,2.3973236,0.3022614,2.3973236,4.1779175-2.9248962c0.1863098,0.0773773,0.4458771,0.197876,0.6321869,0.2639008 c0.4832153,1.9468994,0.4832153,1.9468994,1.2804565,2.7499237c1.6603241-0.2094116,1.9297791-2.0360413,3.431015-12.0610657 c0.1764221-0.0804596,0.4017334-0.154953,0.5936127-0.2123108c2.3141632,1.5858307,2.3141632,1.5858307,2.8031616,1.2674713 c-0.0715942-0.6596222-0.3127899-1.2872772-0.2465668-1.9586639c0.1863098,0.0317688,0.4386597,0.0431213,0.6266174,0.0775757 c0.3237305,1.516922,2.85289,1.6174011,2.440033,3.595871c-0.0759277,0.361496-0.0759277,0.361496-3.4795074,1.4050903 c-0.5610046,0.1665039-3.6004028,3.9488983-3.3637543,4.9925079c0.0602417,0.2207642,0.0602417,0.2207642,4.9850769,2.1018524 c1.9085236,4.8924255-7.328125,2.8906403-9.0858307,6.7619629c-0.7369995,0.2636871-4.6512299-1.0782623-4.6741333-1.1011658 c-1.1643066-0.9891357-0.3127899-2.3314972-0.6654053-3.4753876c-0.8242798-2.6151886-13.1764679,2.2997284-15.259964,3.7161713 c0,0-7.7395477,7.3898163-8.9711151,12.8871918c-1.2317657,5.4971771-2.5563812,11.2237854-1.9629974,12.4910583 c2.3042755,4.923584,5.87146,10.2457886,9.8230438,7.596344c0.1277161-0.0662384,11.769928-6.0018463,11.9907074,1.0980682 c0.0876923,3.2118988,2.7429047,5.6292267,2.8634033,8.818222c0.1219482,3.1339111-1.9784698,5.706192-2.2968292,8.7315674 c-0.0115509,0.0631256-0.197876,7.9374084,0.1646423,8.476532c0.6812897,0.9779968,0.7972565,2.153656,1.687561,2.0760651 c0,0,2.3803864-0.7138824,2.6713104-0.7912598c5.5475159-1.8581848,8.0923615-8.8838348,8.1468353-8.9383087 c1.5183563-2.4404297,3.5028076-4.5391846,5.1346588-6.9051514c1.2528229-1.8123779,1.2528229-1.8123779,1.8092804-7.9576263 c0.6367188-7.0283203,7.8614807-11.1061859,8.5970459-18.0771484c-0.1691895-0.0860443-0.3959656-0.2094269-0.5707092-0.3183594 c-0.6651917,0.3297119-1.2701416,0.7369995-1.9685669,1.0006866c-2.7313538,1.0006866-5.5747528-16.801239-5.4528198-17.0420227 c4.1438904,3.4953918,2.8747559,9.0041199,5.2217407,13.1824646c2.3589172,0.2207642,8.9327087-9.268219,6.9212341-13.0303955 c-0.1865234-0.0431213-0.4287415-0.0973816-0.6152649-0.1407166c-1.1211853-2.199234-1.3145142-1.1872101,2.9851379-2.1449738 c3.8139648,4.2986145,1.7865906,8.9385071,3.6218872,13.6784668c1.6660767-5.5745544-0.4774475-11.5762024,1.984436-17.088028 C273.955719,191.5137634,273.670166,191.8981476,273.6373596,191.7434082z"/>
			<path d="M233.2529297,140.2228699L233.2529297,140.2228699c0,0,0,0,0.017334-0.0231018l0,0 c0.0113525-0.042923,0.0328064-0.1318512-0.5605927-0.4615631c-0.4188385-0.243866-1.5616913-0.7601013-1.8800507-0.7025299 v0.0115509c-0.0383759,0.1403046-0.0557098,0.2721405,0.1696014,0.8773041 c0.2750397,0.7369995,0.4343262,1.0440063,1.0450439,1.7378845c0.0988312,0.1203003,0.2465668,0.2750397,0.3625183,0.3843994 c0.2581177,0.2407837,0.2581177,0.2407837,1.7378998,1.5169067c0.3125763,0.2865906,0.5376892,0.6392059,0.8403625,0.923111 c0.2422333,0.2094269,2.4961548,1.8697357,3.1945648,1.9700165c0.2964935,0.0315704,0.2306824-0.2636871,0.1203003-0.3843842 c-0.2969055-0.3526154-0.5102539-0.5187073-1.4841156-1.2101135c-0.5663757-0.4297791-2.5737305-2.0013733-3.0451813-2.5951843 c-0.1378326-0.197464,0.2737885-0.2321167,0.2465515-0.4499969c-0.0759277-0.5506897-0.6266174-0.8690491-0.7584534-1.3877563 C233.2199249,140.2886963,233.2372589,140.2657928,233.2529297,140.2228699L233.2529297,140.2228699z"/>
			<path d="M196.7340393,232.6438599c-1.879425-0.1520691-2.0888519-0.7683716-2.2093506-1.7263489 c-5.2175903-1.3392639-5.3166351-1.3735199-5.2118225-3.5069427c0.0544739-1.1643066,0.0773773-1.6489563-1.4453125-2.9135437 c-1.1269684-0.9348602-2.6438904-1.2961426-3.7650604-2.2423706c-0.232132-0.1865082-0.5504913-0.4617462-0.7815704-0.6367188 c-0.2478027-0.2207642-0.4287567-0.6051636-0.6148529-0.8688507c-0.302887-0.0429077-0.6984253-0.1118164-1.0010986-0.1662903 c-0.8028259-5.1559143-7.2621002-3.4524689-9.7081146-6.6499329c-4.3155365,0.3728333-4.3155365,0.3728333-5.4369354,1.0209045 c-0.164856-0.1436005-0.3955231-0.3068085-0.5605927-0.4619598c-0.3740692,0.2525482-0.8360291,0.5822601-1.1772919,0.8574982 c-1.5111389-0.3497314-1.6328735-2.0213928-1.6328735-2.0331573c0.2480011-4.7057037-1.4397583-6.276886-4.2439423-7.2893219 c0.379837-1.7378998,1.0508118-3.4209137,1.3906403-5.1672668c-0.0602417-0.034668-0.0602417-0.034668-4.2210388,2.0329437 c-0.1865234-0.0975952-0.4502106-0.1976624-0.6208496-0.3299103c-2.1008148-1.5282745-2.5235901-8.3676147-0.6709747-10.9394836 c2.0888672-2.8906403,5.3263397,0.7683716,8.0263367,0.7368011c1.0609436,1.7923584-0.5991669,4.0807343,1.2359009,5.7379608 c0.5174713-0.2065277,2.1004181,0.71698,2.5566101,0.4186401c0.7813568-8.4536438,7.4110565-16.4799805,7.4871979-16.5342407 c0.2034302,0.0658112,0.4572144,0.1747589,0.6550903,0.2407837c0.6266174-2.1565399,1.2200165-2.4290924,2.638092-3.0914001 c0.2038574,0.0575562,0.4733124,0.154953,0.6654053,0.2321167c0,0.3959351,0.0328064,0.9350739,0.0775757,1.3423615 c1.8078461-0.4733124,3.2372894-1.6060486,4.9248352-2.2541199c0.1650543,0.16362,0.3786011,0.4072876,0.5451202,0.593811 c1.1642914-0.154953,2.1261902-1.4195404,3.4840393-0.5275879c1.0394745-1.7378845-1.0883789-3.0915985-0.774353-4.7288055 c-0.3581848,0.0113525-0.8416138,0.0544739-1.2043304,0.0773773c-2.0504761,3.2661591-2.0504761,3.2661591-5.2605133,4.2325897 c0.0328064-1.0006866-0.8804016-1.769455-0.791687-2.7817078c2.0991821-0.4929047,10.5055695-3.6501312,6.5195313-6.0792236 c0.03302-0.1865234,0.0833588-0.4502106,0.120697-0.6480713c-3.2104492-1.6188507-0.5376892-5.0252991-2.5937347-7.0068665 c-0.9623108,0.845932-1.4026184,2.0244751-2.352951,2.8475189c-0.017334-0.0200195-0.017334-0.0200195,0.2636871-5.1328125 c-0.2209778-0.1093445-0.4945679-0.2640991-0.7039948-0.3959351c-0.0715942-0.473114-0.1650543-1.0896149-0.2306671-1.5513763 c-1.0165863,0.0344543-1.0165863,0.0344543-2.413208,0.2209778c-2.3257141,3.3980103-2.9851379,7.5643768-5.706604,10.7977295 c-0.0330048-0.3297119-0.0330048-0.3297119,0.4733124-3.7178192c-1.2587891-1.4393311-1.1329346-3.7708282-3.4700012-4.5080414 l0.5063171-1.9353485c12.2160187-8.542572,12.2160187-8.542572,13.1335602-9.6868591 c0.438858,0.1665039,0.9949036,0.5275879,1.2744904,0.8917542c-0.3567505,1.043808-0.3567505,1.043808-2.3684387,2.7156677 c0.009903,0.2294464,0.0328064,0.5504913,0.0387878,0.7914734c0.3726349,0.1089478,0.9389954,0.0773773,1.2860413-0.0773773 c0,0.0660248-0.0113525,0.1231842-0.0057831,0.1665192c-3.9142303,3.0767517-3.9142303,3.0767517-3.431015,4.1434631 l1.7707062-0.9464264c0.2853546,2.8390656,1.0823975,3.3666382,2.1061859,3.7163696 c1.241684-0.923111,1.5557098-1.7030334,1.8294983-2.6381073c-0.2407837-0.3183594-0.5333557-0.7912598-0.725647-1.1325226 c0.1551666-0.2207794,0.3530273-0.4848785,0.5007629-0.6798553c0.440094,0.0631409,0.9833527,0.3730469,1.2701416,0.6798553 c0.4889984-0.5822601,1.1599731-1.3392792,1.654541-1.9128723c-0.2250977-0.3181458-0.715332-0.6365051-1.1168518-0.7254333 c-0.1262665-0.4502106-0.3125763-1.0551605-0.4658813-1.4826813c0.3625183-0.4844513,0.7912598-1.1669769,1.0937347-1.6716614 c-1.0006866-2.4519806-1.0006866-2.4519806,0.0332184-4.9811401c-0.4015045-0.0113525-0.9406433-0.2521362-1.2373352-0.5046844 c1.1713104-0.6709747,1.1713104-0.6709747,1.6431885-1.4622345l9.1704102-3.9602509 c0,0-4.6239929,3.1772308-5.8227539,3.9800568c0.1103821,0.0229034,0.2537842,0.0662231,0.3571472,0.11203 c-0.0043335,0.0631409-0.0158844,0.1520691-0.1805267,0.3383789c-0.0447845,0.0573578-0.0874939,0.0773773-0.1262817,0.111618 v0.0088806c-0.0330048,0.0229034-0.0660248,0.0571442-0.0934601,0.1118317 c-0.1603241,0.1204834-0.3253784,0.2523346-0.4786835,0.3841705c0,0,0,0,0.3412628-0.0891266 c0.0443573-0.0113525,0.0761414-0.0113525,0.1260681-0.0198059c0.318161-0.1120453,0.577713-0.1547546,0.8085938-0.1663055 c0.4386597-0.0546722,0.7415466-0.0317688,0.9722137,0.1434021c0.1762085,0.1002655,0.3468475,0.2436676,0.4788971,0.5391235 c0.3899536,0.8343964,0.3627167,1.7461548,0.6150513,2.6180878c-0.3682861,0.3839874-0.7138824,0.757019-0.9561157,1.1298523 c-0.1436005,0.2523346-0.1922913,0.5073547-0.2799835,0.8688507c0.0045319,0.0458069,0.0045319,0.0887146,0.0158844,0.1318359 c0.1766205,0.1776428,0.4015045,0.430191,0.5665741,0.60495c-0.2094269,0.1665039-0.3744812,0.2754517-0.4947662,0.3959503 c-0.1260681,0.1002655-0.2581177,0.2092133-0.3687134,0.3526154c-0.1530914,0.2323151-0.2849426,0.4844513-0.5059204,0.9777832 c0,0.0229034,0,0.0546722-0.0057678,0.0889282c0.2308807,0.1518555,0.5335541,0.283905,0.8415985,0.415741 c0.0487061-0.0431213,0.0833588-0.0431213,0.2911377-0.0313568c0.0658112,0.0229034,0.1260681,0.1002655,0.1761932,0.1547394 c-0.1318359,0.1749725-0.3237152,0.3841858-0.5003357,0.5475922c-0.6649933,0.7485657-1.3405151,1.7378998-1.6759949,3.1687775 c0.1089325,0.3183594,0.2306671,0.6365204,0.2638855,0.9548798c0.1318512,1.4195404-0.0286713,2.8275146,0.1089478,4.2210388 c0.0229034,0.1894073,0.0503387,0.4188538,0.0887146,0.5849457c0.0934753,0.4072876,0.1865234,0.7341156,0.2969055,0.9893341 c0.0660248,0.16362,0.1590881,0.3297119,0.2639008,0.5048828c0.2036438,0.2983551,0.4557648,0.5391388,0.8129272,0.8459473l0,0 c0.5504761,0.3212433,1.3149261,0.4186401,2.352951-0.1520691c1.6000671-0.8919525,1.6931305-2.3973083,1.9355621-3.828186 c-0.1923065,0.2754364-0.4559937,0.5849304-0.8847351,1.0466919c0.5104523-1.3303986,1.0221405-2.4315643,1.6318359-3.1801147 c0.049942-0.0744934,0.1258698-0.1520691,0.1762085-0.2296448c0.0501404-0.034256,0.0874786-0.0973969,0.1262665-0.1431885 h0.0055847c0.0057678,0,0.0819092-0.0658264,0.1978607-0.1634216c0.1048126-0.0773621,0.2193298-0.1749573,0.3356934-0.2554321 c0.4774475-0.3497162,1.231369-0.8544006,2.061615-1.1296387c0.378418-0.2867889,0.7698212-0.3212585,1.2088776-0.2754517 c0.1260681,0.0317841,0.1547394,0.0317841,0.3856201,0.0746918h0.0043335 c1.386322,0.2552338,1.7591553,0.3096924,2.5291595-0.9117584l-1.0066681-0.9893341l0.0229034-0.0088806l0.8733826-0.7052155 c0.0286865,0.0775757,0.0616913,0.1776428,0.0889282,0.2407837c0.0542603,0.0775757,0.1318512,0.1894073,0.1920929,0.2638855 c0.1865234-0.120697,0.4343109-0.2638855,0.6266174-0.3843842c-0.060257-0.6365204-0.060257-0.6365204-1.2373505-1.8779907 c0.0829468-0.0775757,0.1491852-0.1551666,0.2306824-0.2323303c-0.0272369,0.0229034-0.0546875,0.0229034-0.0814972,0.0344543 c0.1044006-0.11203,0.2092133-0.2009583,0.3237152-0.2754364c2.3201599-2.3542023,2.292923-2.4748993,1.7207794-4.2555084 c0.0990295-0.1547394,0.242218-0.3843842,0.3526154-0.5506897c0.070343-0.2952423,0.1706238-0.682312,0.2467651-0.9777832 c-0.170639-0.120285-0.4116211-0.2636871-0.5779266-0.3843842c0.6381683-1.6830139,0.6381683-1.6830139,0.7266846-2.3857574 c0.405838-0.1118317,0.9678802-0.2523346,1.3951874-0.2981415c0.24263-0.3297119,0.4246216-0.8572998,0.4848633-1.2532349 c-0.3744812,0.1780548-0.7799072,0.2525482-1.198761,0.3212585c0.2636871-0.034256,0.4889984-0.0458069,0.7097626-0.034256 c0,0,0.009903,0,0.0272369,0c-0.017334,0-0.0231018,0.0113525-0.0231018,0.0113525 c-0.2680206,0.0860291-0.4989014,0.0658112-0.7526855,0.0313568c-0.5374756,0.0775757-1.0766144,0.1551514-1.5441589,0.438858 c0-0.0860443,0-0.1949768,0-0.2723541c0.170639-0.2983551,0.4774475-0.6394043,0.7369995-0.880188 c-0.1935272-0.0891418-0.4186249-0.1751709-0.6379547-0.2870026c-0.0932617,0.0344543-0.1980743,0.0573578-0.302475,0.0775757 c-0.1436005,0.042923-0.2038574,0.042923-0.2366638,0.042923c-0.1807404-0.042923-0.1761932-0.2294464-0.1433868-0.3497314 c0.0055695-0.0546722,0.0171204-0.0662231,0.269455-0.2323303c0.0171204,0,0.0229034-0.0088654,0.03302-0.0202179 c-0.0214691,0.0315704-0.0272369,0.0544739-0.03302,0.0744934c0.7312317-0.3068085,1.6330872-0.1318512,2.2984924-0.6480713 c-0.060257-0.0744934-0.1318512-0.197876-0.1865234-0.318161c-0.1875458,0.0229034-0.430191,0.0431213-0.6222839,0.0544739 c0,0.0229034,0,0.0229034,0,0.0229034s-0.0055695,0.0115509-0.0158844,0.0228882 c-0.026825,0.0200195-0.0656128,0.0546875-0.0930634,0.0860443c0.0055847-0.0429077,0.0214691-0.0860443,0.0274506-0.1318359 c-0.1219482-0.154953-0.2810211-0.3499298-0.4015198-0.5275879c-0.0332184,0.0229034-0.0604553,0.0229034-0.0988312,0.0229034 c-0.2038422,0.0229034-0.4402924,0.0660248-0.6325989,0.0973816h-0.0055695 c-0.3297119,0.0229034-0.4947662-0.0313568-0.3744812-0.3181458c0.0229034-0.0200195,0.0387878-0.0200195,0.0662384-0.0315704 c0.0286713,0.0860443,0.0660248,0.1434021,0.2034302,0.1518555c0.0113525,0,0.0286865,0,0.0387878,0 c-0.0544739-0.1318359-0.1103821-0.283905-0.164856-0.4157562c0,0,0,0-0.0113373,0 c-0.7027588,0.0744934-0.9121857,0.1203003-3.0398254,1.2101135c0.170639-0.3755188,0.3957367-0.871521,0.5605927-1.2101135 c-0.4171906,0.1318512-0.9893341,0.3183746-1.4180908,0.4619751c0.0546722-0.2209778,0.1262665-0.4964294,0.170639-0.7143097 c-0.483017,0.2178802-1.1927795,0.438858-1.7319183,0.4933319c0.1980743-0.3728333,0.3627319-0.8890686,0.4015198-1.3192596 c-0.4015198,0.120697-0.9621124,0.2639008-1.3751678,0.3412628c-0.1318512-0.1662903-0.3010406-0.3870697-0.4273071-0.5506744 c-5.1070099,0.2640839-8.8951874,1.8039093-11.1662292,2.7158813c0.0113525-0.154953,0.0286865-0.3414764,0.0387878-0.481781 c-0.4287415,0.1834259-0.9394073,0.5793762-1.2146454,0.9548798c0.2253113-0.0775757,0.5104523-0.1547394,0.7312317-0.2436676 c-0.2521362,0.2550201-0.2521362,0.2550201-7.5202179,3.6303253l-0.2967072,0.3612823 c-0.7485504,0.3412628-1.4195251,0.8143768-2.232254,1.035141c2.2982788-2.1878967,2.2982788-2.1878967,2.4012451-2.3314972 c-0.5044708,0.0889282-1.1484222,0.3614807-1.5769653,0.6167145c-0.1751709-0.1004791-0.4072876-0.2207642-0.588028-0.3526154 c0.6812897-0.888855,0.6928406-0.9693298,0.878952-1.8810883c-0.7471161-0.0746918-4.0561829,0.7281342-4.35289,2.4202271 c0.4673309-0.0662384,1.0766144-0.1980743,1.5282745-0.3412628c-1.1886597,0.8572845-1.4896851,2.3973083-2.9248962,3.0682831 c-0.1159668-1.5171204-0.1159668-1.5171204,0.1764069-2.0791626c-0.4345245-0.0342407-1.0120392-0.1089325-1.4352112-0.2092133 c0.3082581-0.3297119,0.5935974-0.8345947,0.741333-1.2418823l-2.0560455,0.9693298 c0.121933-0.1547546,0.292572-0.3641663,0.407074-0.5302582c-0.2036438,0.0229034-0.4730988,0.0458069-0.681076,0.0771637 c0.0101013-0.0229034,2.3799744-3.1885834,3.1114044-4.484726c-0.9563293,0.2178802-1.6489716,0.3726196-4.2771606,1.5398102 c-1.8581848,1.2845917-3.9197998,2.2854919-5.6560516,3.7250366c-1.1114807,0.60495-2.0892639,1.3964233-3.1615448,2.0676117 c-0.5665741,0.4960022-1.33638,1.1325226-1.8526154,1.6716614c0.3297119-0.2207794,0.7743378-0.5391388,1.1054993-0.757019 c-0.5663605,0.5048828-1.1713257,0.9864502-1.7220001,1.5140228c0,0,0,0,0.3197937-0.1402893 c0,0-2.7816925,2.3083801-3.9802551,3.3090668c-0.0501404,0.0889282-0.1103821,0.2207794-0.1590729,0.3183594 c1.3576355-1.000885,2.9133453-1.7034302,4.2827301-2.67276c0.0043335,0.1894073,0.0214539,0.4617615,0.0328064,0.6394043 c0.2740021-0.0542603,0.6311646-0.1431885,0.906189-0.1863098c-1.8796387,5.078537-1.8796387,5.078537-6.3158875,14.1486816 c-0.1433868-0.1318359-0.3412628-0.3068085-0.4844513-0.4499969c-0.2021942,0.3297119-0.466095,0.7799225-0.6596222,1.0980682 c0.1592865,0.3730469,0.3526154,0.9350891,0.242218,1.2876892c-0.8360291,2.860321-3.3204193,4.9050293-4.2266083,7.6980743 c-1.061142,3.2086029-0.5007477,6.6183624-1.5402374,9.8269501c-0.7799072,2.3744202-0.6321869,2.67276-0.0930481,3.7281342 c-0.0113525,0.0344543-1.5829468,4.1236572,0.9565277,7.5763397c0.2853546-2.0447083-0.1980743-4.1667786,0.5331573-6.1568146 c2.062027,11.2780609,2.062027,11.2780609,4.8705597,15.7976532c4.8922272,0.2005463,3.7108002,5.706192,7.3052216,7.025238 c0.0059814,1.9242096,0.0115509,2.9711151,4.5080414,5.6521301c0.2034454-0.1204987,0.473114-0.3070221,0.6765442-0.438858 c0.2366638,0.0546722,0.5449219,0.1089325,0.7857056,0.16362c0.6166992,0.9693146,1.5616913,2.4202118,0.517868,6.1452484 c-0.1318359-0.008667-0.3084564-0.0629272-0.4287415-0.0973969c-1.2876892,2.0242767-1.3966217,2.9793701-0.5894775,4.6052246 c-0.2193298,0.068924-0.4943542,0.154953-0.7140961,0.2207794c2.8145142,6.9709625,2.8145142,6.9709625,9.6870575,14.6446838 c0.3396149,7.0372162,0.6148529,7.4445038,1.5224915,8.7290955c-0.0229034,0.0802612-0.2810211,11.26091,10.4997864,11.9090118 l0.017334-0.4615784c0,0-0.6942902,0.3499451-0.6610718-0.1865234 c-1.5616913-0.7598877-2.2539215-1.8924255-3.5830841-2.8475037c0.042923-1.419342,0.042923-1.419342-0.3082428-2.3197327 c0.224884-0.0773926,0.5275726-0.1778564,0.7526703-0.2321167c0.0829468-0.1980896,0.197876-0.4388733,0.275238-0.6053772 c2.0174713-0.0656128,2.0174713-0.0656128,2.3471832-0.2636871c-0.5779266-1.5169067-0.5779266-1.5169067-0.6208344-2.0444946 c2.8301849,1.6830139,5.371109-2.2541199,5.4699402-2.7817078c0.5548096-2.7699432,4.4420166-0.8345795,5.7336273-2.8246155 c1.9070892-2.9048767,2.5506134-6.4089355,4.9638214-9.0816956c0.3241425-0.3641663,0.7528839-0.8574982,1.1269531-1.1669922 c0.4446411-0.4846649,1.0440216-1.1442871,1.4841156-1.6258545 C203.2494507,236.2826385,200.8521271,232.9735718,196.7340393,232.6438599z M206.7390594,139.890274 c0.0059814,0,0.0059814,0,0.0059814,0c-0.0115509,0-0.0115509,0-0.0158844,0 C206.73349,139.890274,206.73349,139.890274,206.7390594,139.890274z"/>
			<path d="M215.0523987,158.6497498c-0.1491699-0.0887146-0.3800507-0.1547394-0.5506897-0.2005463 c-0.6709747-0.1834259-1.3964233-0.0631409-2.0673981-0.2954559c-0.4718781-0.1863251-0.8401642-0.5475922-1.3522644-0.6480713 c-0.0817108,0-0.1359711,0-0.2364502,0.0115509c-0.6538544,1.8352814-1.7634888,4.9122314,0.0773621,5.1014404h0.0113525 h0.0117645c0.1533051,0.0113373,0.4716644,0,0.861618-0.2523346c0.0501404-0.034256,0.1217346-0.0773773,0.1764069-0.1118317 c0.0501404-0.0431213,0.1204987-0.0889282,0.170639-0.1318512c0.5059052-0.3530273,0.8744202-0.845932,1.4021912-1.1756439 c0.6753082-0.438858,1.8307495-0.2525482,2.0560608-1.2876892 C215.7060394,159.1977539,215.5238495,158.868042,215.0523987,158.6497498z"/>
			<path d="M222.7201385,169.2815857c-0.1646576,0.1002808-0.8459473,0.6825409-0.8028259,1.1011658 c0.0229034,0.2523499,0.1378326,0.6796417,0.5005493,1.3190613c0.1877594,0.3068085,0.2967072,0.5162201,0.2636871,0.7138824 c-0.104599,0.7572327-1.5226898,0.8259277-1.1655426,1.7492523c1.0394745,0.0113373,1.413559-1.2445679,2.4689178-1.2101135 c0.4559784,0.0229034,0.8574982,0.3499298,1.3419495,0.2180939c0.0874786-0.0202332,0.1318359-0.0431366,0.2308807-0.0860443 c0.6323853-0.3299255,0.560379-1.043808,0.5434723-1.2874756c-0.1262817-1.4626617-1.1929932-2.5062714-1.6935425-3.8024139 c-0.3237305-0.7828064-0.0814972-1.6506195-0.3899536-2.4418793c-0.0656128-0.1663055-1.4121094-2.5865173-1.4178772-2.6067352 c-0.1159668,0-0.1378326,0-0.2636871,0.0084534c-1.3035736,0.3212585-1.7492523,1.4541931-1.7492523,1.5746918 c-0.1147156,1.5940857,1.5612793,2.2221375,2.0517273,3.4968262 C222.9122314,168.7653656,222.879425,169.1926575,222.7201385,169.2815857z"/>
			<path d="M219.0153198,171.6244354c0.2853546,0.0660248,0.5605927,0.1547394,0.8515167,0.2092133 c0.0602417,0.0200195,0.1378326,0.0200195,0.1925049,0.0200195c0.0441589,0.0229034,0.2422333,0.0460052,0.430191-0.0542603 c0.0427094-0.0317841,0.7524719-0.4044037,0.405426-2.0560608c-0.2193146-1.1098328-0.9949036-2.6628571-1.4349976-2.6828766 c-0.1089478,0.0315704-0.1592865,0.0662384-0.3400269,0.2855682c-0.2364502,0.2750244-0.2537842,0.2979279-0.4786835,0.4958038 c-0.1320496,0.1204834-0.3241425,0.1433868-0.4171906,0.2870026c-0.1262665,0.1978607-0.1163635,0.2725525-0.0447693,0.9230957 c0.0835571,0.7485657-0.2193298,1.1872101-0.8787537,1.3308105c-0.0115509,0-0.0115509,0-0.0284729,0 c-0.0317688,0-0.043335,0-0.0705566,0c0.1149139,0.5362549,0.1865082,0.8688507,0.4116211,1.0436096 C218.0375366,171.7562714,218.553772,171.5468597,219.0153198,171.6244354z"/>
		</g>
	</g>
	<g>
		<path d="M55.6687393,129.1381531c36.8624191,0,66.7231293,26.3560333,66.7231293,65.0646667 c0,38.5285187-29.6729507,63.9688721-66.3554535,63.9688721H0V129.1381531H55.6687393z M56.0364113,234.20224 c21.3806572,0,39.8118706-14.9190979,39.8118706-39.9994202c0-25.0652466-18.4312134-41.0950165-40.1795425-41.0950165H25.6204777 V234.20224H56.0364113z"/>
		<path d="M389.4645081,167.4865417c-6.8217773-9.5907135-19.7296143-15.6695251-32.4422607-15.6695251 c-24.1497803,0-40.1869812,17.3205566-40.1869812,41.8454437c0,25.2453613,17.1404419,41.4703217,40.1869812,41.4703217 c14.7463989,0,28.3821716-7.7447052,34.8360901-18.9866486l25.8082275,6.8141632 c-10.6939392,22.8589935-33.552948,37.7929688-60.6443176,37.7929688c-37.0576172,0-66.918335-28.2020569-66.918335-67.0908051 c0-38.9036255,29.8607178-67.1058731,66.918335-67.1058731c25.4329224,0,47.1886902,13.4632645,58.6105347,34.1007309 L389.4645081,167.4865417z"/>
		<path d="M543.458313,129.1381531v73.0045624c0,37.9580078-21.7483521,58.6105499-55.6689758,58.6105499 c-34.100708,0-55.6689453-20.6525421-55.6689453-58.6105499v-73.0045624h25.620697v72.6292419 c0,23.9696503,10.3262634,35.0164185,30.0482483,35.0164185c19.5418701,0,29.8607483-11.0467682,29.8607483-35.0164185 v-72.6292419H543.458313z"/>
	</g>
</g>
</svg>
