<svg
  xmlns="http://www.w3.org/2000/svg" xmlns:xlink="http://www.w3.org/1999/xlink"
  viewBox="0 0 1000 311">
<g>
  <path fill="#201d1e" d="M470.41 310.53L470.41 292.83L257.68 292.83L257.68 310.53L470.41 310.53Z"/>
  <g fill="#bc1f2a">
    <path d="M621.13 125.55L570.66 6.53L504.58 6.53L482.84 268.64L545.42 268.64L559.92 111.82L618.09 240.09L623.44 240.09L682.37 110.73L696.85 268.64L759.43 268.64L737.68 6.53L671.63 6.53L621.13 125.55"/>
    <path d="M202.89 44.92C190.57 33.18 175.89 24.07 158.94 17.52C141.93 10.94 123.31 7.65 103.1 7.65C96.26 7.65 62.06 7.65 0.5 7.65L0.5 268.62C62.06 268.62 96.26 268.62 103.1 268.62C123.31 268.62 141.95 265.28 158.96 258.57C175.89 251.9 190.57 242.72 202.89 231.02C215.22 219.33 224.77 205.47 231.48 189.57C238.2 173.65 241.53 156.47 241.53 138.13C241.53 138.06 241.53 137.48 241.53 137.4C241.53 119.11 238.2 101.98 231.46 86.17C224.74 70.39 215.22 56.62 202.89 44.92ZM103.1 210.81L63.72 210.81L63.72 65.46C87.35 65.46 100.47 65.46 103.1 65.46C114.04 65.46 123.93 67.26 132.88 70.8C141.83 74.39 149.39 79.34 155.65 85.72C161.93 92.11 166.87 99.76 170.43 108.72C173.97 117.67 175.77 127.47 175.77 138.13C175.77 138.21 175.77 138.79 175.77 138.86C175.77 149.81 173.97 159.56 170.45 168.24C166.87 176.98 161.96 184.52 155.65 190.92C149.39 197.29 141.86 202.18 132.9 205.65C123.95 209.08 114.06 210.81 103.1 210.81"/>
    <path d="M831.31 5.82L830.35 8.11L719.5 268.6L784.51 268.6L807.69 211.75L909.85 211.75L933.04 268.6L999.5 268.6L887.68 5.82L831.31 5.82ZM886.9 155.04L830.67 155.04L858.76 86.42L886.9 155.04"/>
    <path d="M226.64 137.93C226.64 213.8 288.17 275.36 364.07 275.36C439.96 275.36 501.5 213.8 501.5 137.93C501.5 62.03 439.96 0.5 364.07 0.5C288.17 0.5 226.64 62.03 226.64 137.93ZM364.07 213.78C322.18 213.78 288.22 179.82 288.22 137.93C288.22 96.04 322.18 62.08 364.07 62.08C405.96 62.08 439.92 96.04 439.92 137.93C439.92 179.82 405.96 213.78 364.07 213.78"/>
  </g>
</g>
</svg>
