<svg
  xmlns="http://www.w3.org/2000/svg"
  viewBox="0 0 300 103">
<defs>
  <linearGradient id="gradientepEa9ITQ1"
    gradientUnits="userSpaceOnUse"
    x1="0.57" y1="51.5" x2="299.43" y2="51.5">
    <stop style="stop-color: #afb0b5;stop-opacity: 1" offset="0%"/>
    <stop style="stop-color: #525458;stop-opacity: 1" offset="100%"/>
  </linearGradient>
  <radialGradient id="gradientbgyIrCTGv"
    gradientUnits="userSpaceOnUse"
    cx="195.14" cy="10.47" dx="191.39" dy="155.4" r="144.98" fx="195.14" fy="10.47"
    gradientTransform="matrix(8.6314295e-4,-0.5525222,1.9046312,0.00297538,175.03008,118.25802)">
    <stop style="stop-color: #ffffff;stop-opacity: 1" offset="0%"/>
    <stop style="stop-color: #ffffff;stop-opacity: 0" offset="100%"/>
  </radialGradient>
</defs>
<g>
  <path fill="url(#gradientepEa9ITQ1)"
    d="M299.43 0L246.66 0L216.79 21.82L204.34 0L27.97 0L0.57 72.77L151.78 69.26L106.36 103L160.15 103L199.22 74.76L215.71 103L265.18 103L236 51.8L299.43 0Z"/>
  <path fill="url(#gradientbgyIrCTGv)"
    d="M299.43 0L246.66 0L216.79 21.82L204.34 0L27.97 0L0.57 72.77L151.78 69.26L106.36 103L160.15 103L199.22 74.76L215.71 103L265.18 103L236 51.8L299.43 0Z"/>
  <path fill="#231f20"
    d="M299.43 0L246.66 0L216.79 21.82L204.34 0L27.97 0L0.57 72.77L151.78 69.26L106.36 103L160.15 103L199.22 74.76L215.71 103L265.18 103L236 51.8L299.43 0ZM217.99 29.01L254.44 2.54L255.96 5.16L217.99 32.73L217.99 29.01ZM217.65 35.09L256.04 6.68L286.83 6.68L234.47 46.3L192.58 46.3L170.97 6.68L201.58 6.68L217.65 35.09ZM193.67 48.29L231.84 48.29L229.83 49.81L232.89 55.31L186.26 55.31L194.31 49.47L193.67 48.29ZM22.65 69.34L5.56 69.34L30 2.54L201.42 2.54L200.32 5.58L31.65 4.82L8.62 67.05L24.67 67.31L22.65 69.34ZM64.25 64.35C60.81 64.35 43.62 64.35 12.67 64.35L15.3 57.29C53.67 57.29 74.99 57.29 79.25 57.29C79.16 57.39 79.06 57.5 78.97 57.59C72.62 63.68 67.91 64.35 64.25 64.35ZM16.04 55.31L18.65 48.29L35.27 48.29L34.19 51.12C50.17 51.12 59.05 51.12 60.83 51.12C63.15 50.9 65.33 49.9 67.01 48.29C68.84 48.29 83.48 48.29 85.31 48.29C84.09 50.76 82.64 53.11 80.99 55.31C80.99 55.31 59.34 55.31 16.04 55.31ZM86.29 46.3C84.55 46.3 70.64 46.3 68.9 46.3C69 46.17 69.1 46.05 69.2 45.92C73.13 40.72 75.07 30.91 76.94 26.13C78.81 21.35 74.15 20.93 74.15 20.93C72.25 20.93 62.78 20.93 45.73 20.93L36.03 46.3L19.39 46.3L34.15 6.68C62.15 6.68 77.71 6.68 80.83 6.68C80.83 6.68 98.58 6.68 95.37 21.23C92.96 29.79 89.93 38.17 86.29 46.3ZM121.21 64.35L104.46 64.35L107.18 57.29L123.96 57.29L121.21 64.35ZM124.74 55.31L107.94 55.31L110.64 48.29L127.48 48.29L124.74 55.31ZM136.85 24.3L128.26 46.3L111.4 46.3L121.21 20.8L97.61 20.8L103.19 6.68L168.01 6.68L162.3 20.8L123.36 20.8L136.85 24.3ZM118.8 99.83L159.39 69.34L166.11 67.48L123.24 98.69L118.8 99.83ZM160.93 97.17L128.52 97.17L134.59 92.77L167.01 92.77L160.93 97.17ZM169.75 90.78L137.33 90.78L147.01 83.76L179.45 83.76L169.75 90.78ZM182.2 81.77L149.75 81.77L159.43 74.76L191.9 74.76L182.2 81.77ZM194.64 72.77L162.17 72.77L171.86 65.75L204.34 65.75L194.64 72.77ZM256.21 97.17L224.25 97.17L221.8 92.77L253.76 92.77L256.21 97.17ZM252.66 90.78L220.69 90.78L216.79 83.76L248.75 83.76L252.66 90.78ZM247.64 81.77L215.68 81.77L211.77 74.76L243.73 74.76L247.64 81.77ZM242.62 72.77L210.67 72.77L206.76 65.75L238.71 65.75L242.62 72.77ZM237.6 63.76L174.6 63.76L183.52 57.29L234 57.29L237.6 63.76Z"/>
</g>
</svg>
