<svg
  xmlns="http://www.w3.org/2000/svg"
  viewBox="0 0 1161 1049">
<g fill="#000000">
<path
  d="m 1139.9592,1039 c -8.8817,0 -20.5152,0 -30.3136,0 -202.96516,0 -406.23993,0 -609.20894,0 -63.98269,0 -87.24925,-26.0212 -89.69837,-90.61728 -5.51073,-135.00639 48.06343,-243.07233 152.76218,-323.58746 59.69757,-45.9201 127.0482,-82.0454 191.03089,-122.14843 36.73581,-22.96089 76.22823,-42.2481 110.51512,-68.57527 75.3101,-57.55424 59.69658,-150.61993 -28.7772,-185.51974 -38.267,-15.00042 -77.75855,-15.61353 -115.7198,-1.53028 -44.38978,16.53071 -87.86148,35.81791 -130.72021,55.71656 -58.16724,26.94027 -96.43423,13.16441 -120.61851,-46.53321 -12.55244,-30.91968 -42.85897,-110.51576 -42.85897,-110.51576 0,0 6.73423,-6.12255 12.5513,-10.40812 C 564.72503,46.194805 700.34473,-13.501996 858.31129,18.948633 995.15411,47.113307 1098.3259,121.50514 1138.736,261.10312 c 32.1348,111.74053 0,210.92975 -83.2726,289.91292 -36.1239,34.28763 -79.59469,61.83937 -122.45416,88.1682 -67.96276,41.63498 -137.7618,80.51346 -207.56152,119.08788 -25.71572,14.08159 -65.20725,30.91968 -69.79975,61.83936 0,0 176.94763,0 257.46264,0 50.51254,0 101.02589,0 151.53899,0 56.3233,0.30573 75.6153,19.89866 75.6153,77.14718"/>
<circle
  cx="147.7617"
  cy="348.96619"
  r="137.76175"/>
<circle
  cx="147.7617"
  cy="768.06952"
  r="137.76175"/>
</g>
</svg>
