<svg
  xmlns="http://www.w3.org/2000/svg"
  viewBox="0 0 425.86 57.71">
<g>
  <path fill="#424850" d="M83.98 56.64C84.39 54.96 94.76 16.16 95.41 13.84C95.45 13.7 95.65 13.02 96 11.78C103.96 11.78 108.38 11.78 109.26 11.78C123.94 11.78 124.94 11.91 128.42 14.24C129.89 15.22 130.64 16.12 131.68 18.17C132.9 20.57 133.03 21.16 133.03 24.06C133.03 27.82 131.58 33.75 129.74 37.53C127.61 41.91 122.97 45.38 117.98 46.33C116.83 46.55 111.33 46.72 105.76 46.72C105.08 46.72 101.7 46.72 95.62 46.72C95.39 47.55 95.27 48 95.24 48.09C95.03 48.84 94.38 51.32 93.79 53.59C93.72 53.86 93.36 55.24 92.71 57.72L88.22 57.72L83.72 57.72C83.86 57.14 83.95 56.78 83.98 56.64ZM122.08 33.78C122.44 33.07 123.17 30.81 123.69 28.76C124.77 24.49 124.59 22.81 122.84 21.18C121.83 20.23 121.78 20.22 112.24 20.1C106.96 20.04 102.65 20.1 102.65 20.23C102.65 20.36 101.59 24.42 100.29 29.25C99 34.08 97.94 38.13 97.94 38.26C97.94 38.38 101.79 38.48 106.5 38.48C112.9 38.48 115.56 38.33 117.01 37.9C119.17 37.26 121.08 35.71 122.08 33.78ZM1.05 42.63C0.04 41.19 -0.02 40.84 0.01 37.14C0.05 32.58 1.16 27.91 3.54 22.25C5.4 17.79 8.1 14.75 11.64 13.11C11.81 13.04 12.63 12.66 14.11 11.98C20.26 11.9 23.68 11.86 24.37 11.85C35.69 11.71 37.07 11.89 39.26 13.82C41.8 16.04 42.77 19.15 42.09 22.87C41.33 27.05 38.65 30.56 34.92 32.28C33.05 33.13 32.39 33.19 21.71 33.37C11.35 33.55 10.39 33.63 9.63 34.32C8.72 35.15 8.51 37.24 9.28 38.01C9.63 38.36 13.31 38.48 23.41 38.48C33.06 38.48 37.08 38.61 37.08 38.91C37.08 39.15 36.82 40.25 36.51 41.36C36.2 42.48 35.75 44.14 35.51 45.06C35.49 45.17 35.34 45.72 35.09 46.72C26.91 46.7 22.36 46.69 21.46 46.69C13.96 46.66 7.12 46.48 6.26 46.28C4.19 45.79 2.36 44.52 1.05 42.63ZM33.54 22.16C33.54 20.4 32.75 20.22 24.94 20.25C18.71 20.27 17.44 20.37 16.27 20.98C14.69 21.79 13.22 23.05 12.68 24.05C12.34 24.7 12.9 24.74 22.02 24.74C31.45 24.74 31.75 24.71 32.64 23.88C33.14 23.41 33.54 22.64 33.54 22.16ZM40.03 45.9C40.39 44.79 42.18 38.07 42.18 37.86C42.18 37.77 49.21 37.69 57.79 37.69C72.76 37.69 73.45 37.66 74.7 36.9C75.51 36.41 76.31 35.41 76.81 34.29C77.49 32.74 77.54 32.26 77.16 30.99C76.92 30.17 76.18 29.05 75.52 28.5C75.44 28.43 75.04 28.09 74.32 27.49C68.73 27.49 65.62 27.49 65 27.49C54.7 27.49 52.98 27.22 50.13 25.15C41.67 19.03 46.89 3.63 58.48 0.53C59.96 0.14 64.42 0.01 76.86 0C92.31 0 93.27 0.04 93.08 0.69C92.98 1.07 92.68 2.17 92.43 3.14C92.19 4.11 91.72 5.84 91.4 6.97C91.36 7.11 91.17 7.79 90.81 9.03C81.32 9.03 76.05 9.03 75 9.03C59.24 9.03 59.18 9.03 57.89 9.91C56.32 10.98 55.14 13.08 55.14 14.79C55.14 16.44 56.75 18.32 58.6 18.83C59.4 19.05 64.2 19.24 69.27 19.24C78.13 19.25 78.58 19.29 80.48 20.17C82.95 21.32 85.5 24.16 86.16 26.5C86.45 27.56 86.58 29.5 86.47 31.34C86.05 38.74 80.55 44.97 73.25 46.33C72.05 46.55 64.3 46.72 55.45 46.72C54.41 46.72 49.18 46.72 39.77 46.72C39.91 46.29 40 46.01 40.03 45.9ZM138.14 42.68C135.11 39.1 134.59 34.66 136.38 27.7C137.83 22.04 138.97 19.6 141.28 17.19C143.52 14.86 145.83 13.4 148.72 12.5C150.67 11.89 152.41 11.78 160.28 11.78C170.45 11.78 172.58 12.1 175.47 14.08C178.75 16.31 180.72 21.09 180.24 25.65C179.91 28.88 178.15 35.13 176.85 37.69C174.74 41.87 170.89 44.86 165.99 46.14C163.46 46.8 148.22 46.91 145.07 46.3C142.56 45.8 139.37 44.14 138.14 42.68ZM170.78 29.14C171.85 24.95 171.83 23.46 170.67 21.7C169.7 20.21 167.83 19.95 159.12 20.09C158.58 20.1 155.87 20.14 151.01 20.22C149.99 20.94 149.42 21.33 149.31 21.41C147.01 23.03 146.09 24.52 145.02 28.36C143.85 32.55 143.81 34.93 144.89 36.39C146.27 38.25 147.6 38.48 156.24 38.38C164.06 38.28 164.1 38.28 165.97 37.18C168.49 35.7 169.55 33.93 170.78 29.14ZM181.56 36.32C184.28 26.09 185.27 22.87 186.38 20.61C187.65 18.06 189.71 15.59 191.69 14.24C194.71 12.2 197.16 11.78 206.16 11.78C206.68 11.78 209.33 11.78 214.09 11.78L213.04 15.8L212 19.83C207.99 19.95 205.77 20.01 205.32 20.02C199.28 20.2 198.51 20.3 197.23 21.1C195.76 22.02 194.07 24.16 193.39 25.99C193.02 26.96 187.85 46.17 187.85 46.56C187.85 46.65 185.81 46.72 183.31 46.72C179.17 46.72 178.79 46.66 178.96 46.04C179.07 45.66 180.24 41.29 181.56 36.32ZM214.56 23.17C217.86 10.75 220.68 0.45 220.83 0.28C220.98 0.11 223.04 0.02 225.41 0.08C225.7 0.09 227.14 0.13 229.72 0.2C228.83 3.49 228.33 5.33 228.23 5.69C227.41 8.72 226.74 11.32 226.73 11.48C226.73 11.65 229.84 11.78 233.64 11.78C239 11.78 240.51 11.89 240.38 12.27C240.29 12.54 239.79 14.4 239.28 16.39C239.22 16.64 238.91 17.85 238.36 20.02C234.18 20.02 231.85 20.02 231.39 20.02C225.09 20.02 224.4 20.09 224.22 20.71C224.1 21.09 222.58 26.79 220.84 33.37C219.09 39.96 217.57 45.66 217.45 46.04C217.27 46.64 216.69 46.72 212.72 46.72C209.26 46.72 208.23 46.61 208.37 46.23C208.47 45.96 211.25 35.58 214.56 23.17ZM236.8 42.38C236.87 42.12 237.22 40.82 237.85 38.48L253.07 38.48L268.3 38.48C268.93 37.94 269.28 37.63 269.35 37.57C270.57 36.53 270.75 34.83 269.75 33.83C269.19 33.26 267.63 33.15 257.6 32.98C256.83 32.97 253 32.9 246.1 32.79C244.95 32.08 244.31 31.68 244.19 31.6C237.65 27.56 239.71 16.69 247.72 12.9C247.88 12.82 248.67 12.45 250.09 11.78L267.11 11.78L284.14 11.78C283.99 12.31 283.91 12.6 283.9 12.66C283.76 13.15 283.27 15 282.82 16.79C282.76 17 282.49 18.08 281.99 20.02L266.4 20.02L250.81 20.02C250.33 20.55 250.06 20.85 250 20.91C248.72 22.31 248.55 23.4 249.48 24.32C250.25 25.1 250.72 25.13 261.01 25.13C273.54 25.13 274.46 25.3 276.96 28.14C281.43 33.22 278.66 42.42 271.68 45.63C269.74 46.52 269.51 46.53 252.74 46.64C243.4 46.7 235.76 46.65 235.76 46.52C235.75 46.39 236.23 44.53 236.8 42.38Z"/>
  <path fill="#f6a60c" d="M284.44 31.42C284.44 27.73 286.61 18.83 288.46 14.92C289.98 11.71 294.66 6.94 297.79 5.4C301.7 3.49 303.94 3.14 312.38 3.14C316.65 3.14 321.07 3.34 322.22 3.58C324.98 4.15 328.55 6.08 330.06 7.8C332.76 10.87 334.16 16.09 333.55 20.81C333.06 24.67 330.86 32.46 329.46 35.34C326.96 40.49 321.51 44.78 315.76 46.13C312.1 47 298.49 46.91 295.02 46.01C288.18 44.22 284.44 39.07 284.44 31.42ZM321.76 31.77C322.16 30.98 323.03 28.41 323.69 26.06C324.99 21.39 325.23 17.68 324.35 15.59C323.65 13.89 321.29 11.88 319.65 11.57C318.92 11.43 315.17 11.38 311.3 11.45C303.37 11.6 302.1 11.94 298.99 14.75C296.81 16.72 295.73 18.95 294.23 24.58C292.27 31.92 293.08 35.64 297.07 37.65C298.68 38.46 299.22 38.5 306.43 38.4C313.51 38.29 314.23 38.21 315.93 37.37C318.12 36.3 320.73 33.79 321.76 31.77ZM336.73 24.49C337.1 23.06 338.96 15.94 342.3 3.12L347.23 3.23L352.16 3.34C355.54 11.88 357.42 16.62 357.8 17.57C360.9 25.4 363.56 31.8 363.71 31.8C363.86 31.8 365.65 25.35 367.69 17.47C367.94 16.52 369.18 11.74 371.41 3.14C374.29 3.14 375.89 3.14 376.21 3.14C379.88 3.14 380.97 3.26 380.83 3.63C380.63 4.18 369.65 46.38 369.65 46.59C369.65 46.66 367.45 46.72 364.78 46.72C364.45 46.72 362.83 46.72 359.91 46.72C356.42 38 354.48 33.16 354.1 32.19C350.79 23.91 348.17 17.87 348.01 18.15C347.86 18.43 346.1 24.97 344.1 32.69C343.85 33.62 342.64 38.3 340.46 46.72C337.67 46.72 336.12 46.72 335.81 46.72C332.69 46.72 331.17 46.58 331.17 46.29C331.17 46.05 333.67 36.24 336.73 24.49ZM384.06 11.91C385.66 8.64 388.11 6.13 391.16 4.63C391.33 4.54 392.21 4.11 393.77 3.34L409.82 3.22L425.86 3.11C425.71 3.77 425.63 4.13 425.62 4.21C425.48 4.81 424.97 6.72 424.49 8.44C424.43 8.65 424.14 9.7 423.61 11.58C415.13 11.7 410.43 11.77 409.49 11.78C394.49 11.99 394.31 12.01 393.03 13.97C392.41 14.9 390.85 19.82 390.85 20.81C390.85 21.07 395.26 21.2 403.61 21.2C413.16 21.2 416.37 21.32 416.37 21.67C416.37 21.92 416 23.51 415.54 25.2C415.49 25.4 415.21 26.42 414.72 28.26L401.71 28.36L388.7 28.47C388.07 30.82 387.71 32.13 387.64 32.4C387.06 34.55 386.48 36.72 386.35 37.21C386.34 37.26 386.26 37.56 386.12 38.09C395.2 38.09 400.24 38.09 401.25 38.09C409.56 38.09 416.37 38.22 416.37 38.38C416.37 38.55 415.91 40.49 415.33 42.7C415.26 42.97 414.91 44.31 414.29 46.73C402.31 46.73 395.65 46.73 394.32 46.73C383.34 46.73 374.36 46.62 374.36 46.5C374.36 45.26 383.25 13.57 384.06 11.91Z"/>
</g>
</svg>
