<svg
  xmlns="http://www.w3.org/2000/svg"
  viewBox="0 0 1000 509">
<g fill="#003865">
  <path d="M185.99 168.21C169.77 191.4 143.7 205.27 116.07 205.27C75.87 205.27 40.44 175.81 31.85 135.22C31.83 135.13 31.72 134.63 31.53 133.75L180.56 133.75L222.23 133.75C225.73 133.75 227.67 133.75 228.06 133.75C229.24 125.77 228.9 117.07 228.9 117.07C228.9 117.07 228.9 117.08 228.9 117.09C228.9 116.84 228.91 116.57 228.91 116.32C228.91 52.18 178.29 0 116.07 0C53.87 0 3.25 52.18 3.25 116.32C3.25 180.48 53.87 232.66 116.07 232.66C158.45 232.66 196.89 208.49 216.4 169.59C216.59 169.21 217.52 167.32 219.19 163.92C200.95 163.92 190.82 163.92 188.8 163.92C187.74 165.66 186.72 167.17 185.99 168.21M30.55 104.99C36.09 60.74 72.86 27.39 116.07 27.39C159.3 27.39 196.07 60.74 201.59 104.99C201.6 105.08 201.66 105.53 201.77 106.34L30.39 106.34C30.47 105.62 30.53 105.17 30.55 104.99Z"/>
  <path d="M334.41 226.05C323.39 221.65 313.65 215.28 305.44 207.11C297.06 198.8 290.54 188.91 286.06 177.72C281.41 166.04 279.54 153.31 279.6 139.86C279.6 130.83 279.6 85.72 279.59 4.51L305.7 4.51C305.7 84.4 305.7 128.78 305.7 137.66C305.66 148.07 306.93 157.82 310.35 166.62C313.6 175 318.3 182.42 324.35 188.66C330.22 194.72 337.15 199.44 344.93 202.69C352.82 205.98 361.25 207.65 369.96 207.65C378.86 207.64 387.32 205.97 395.2 202.67C403.02 199.39 409.97 194.66 415.86 188.58C421.91 182.37 426.65 174.97 429.96 166.57C433.46 157.72 435.59 147.97 435.6 137.63C435.6 128.76 435.6 84.38 435.6 4.51L461.66 4.51C461.66 85.73 461.66 130.85 461.66 139.88C461.61 153.36 458.87 166.08 454.16 177.68C449.61 188.87 443.05 198.76 434.66 207.06C426.38 215.25 416.62 221.62 405.63 226.01C394.53 230.45 382.54 232.7 370.02 232.72C370.02 232.72 370.02 232.72 370.01 232.72C353.68 231.22 341.81 229 334.41 226.05Z"/>
  <path d="M517.51 98.54C517.53 89.01 518.66 79.69 520.88 70.82C523.93 58.53 529 47.57 535.93 38.24C544.56 26.63 556.1 17.51 570.23 11.14C586.58 3.79 606.63 0.06 629.79 0.06C630.08 0.06 631.54 0.06 634.17 0.06L634.17 27.91C631.61 27.91 630.18 27.91 629.9 27.91C613.01 27.91 598.51 30.13 586.75 34.51C576.39 38.35 567.87 43.93 561.42 51.09C555.81 57.34 551.64 64.92 549.02 73.62C546.78 81.08 545.63 89.47 545.6 98.56C545.6 107.1 545.6 149.8 545.6 226.66L517.51 226.66L517.51 226.66C517.51 149.79 517.51 107.08 517.51 98.54Z"/>
  <path d="M154.04 503.25C154.04 435 154.04 397.09 154.04 389.5C154.07 380.69 153.14 372.51 150.31 365.18C147.7 358.37 143.92 352.37 139.09 347.35C134.45 342.53 128.98 338.78 122.84 336.2C116.54 333.56 109.81 332.22 102.82 332.22C95.72 332.22 88.92 333.57 82.62 336.22C76.44 338.83 70.94 342.6 66.27 347.44C61.42 352.45 57.62 358.45 54.93 365.29C52.05 372.67 50.2 380.84 50.19 389.59C50.19 397.16 50.19 435.05 50.18 503.25L0.14 503.25C0.14 433.69 0.13 395.04 0.13 387.31C0.18 372.34 3.22 358.18 8.45 345.21C13.57 332.55 20.95 321.36 30.4 311.94C39.74 302.66 50.74 295.43 63.09 290.45C75.5 285.47 88.83 282.93 102.75 282.91C116.68 282.91 130.03 285.43 142.42 290.4C154.84 295.39 165.83 302.63 175.1 311.92C184.54 321.35 191.88 332.55 196.93 345.22C202.1 358.29 204.19 372.48 204.12 387.42C204.12 395.14 204.12 433.75 204.12 503.25L154.04 503.25Z"/>
  <path d="M318.92 509C258.46 509 209.3 458.29 209.3 395.96C209.3 333.62 258.46 282.9 318.92 282.9C379.36 282.9 428.53 333.62 428.53 395.96C428.53 401.73 428.11 407.52 427.26 413.22C427.24 413.33 427.16 413.9 427 414.93L255.81 414.93C256.25 416.32 256.49 417.09 256.54 417.25C265.42 445 290.5 463.66 318.92 463.66C334.36 463.66 348.91 458.2 360.89 447.88C360.89 447.88 364.09 445.13 364.49 444.74C368.05 444.74 385.84 444.74 417.85 444.74C416.95 446.55 416.45 447.55 416.35 447.75C397.41 485.52 360.07 509 318.92 509M318.92 328.23C290.5 328.23 265.42 346.88 256.54 374.67C256.49 374.82 256.25 375.59 255.81 376.98L382 376.98C381.56 375.59 381.32 374.82 381.27 374.67C372.4 346.89 347.35 328.23 318.92 328.23"/>
  <path d="M420.92 288.65L420.92 287.36C453.47 287.36 471.56 287.36 475.17 287.36C481.8 339.43 498.83 421.97 513.55 459.29C529.13 421.97 547.31 339.42 553.95 287.36C558.46 287.36 594.46 287.36 598.96 287.36C605.89 339.43 623.79 418.51 639.65 459.29C654.37 418.51 671.1 339.42 678.04 287.36C681.63 287.36 699.62 287.36 732 287.36C732 288.14 732 288.57 732 288.65C719.59 369.93 695.93 453.5 675.72 503.25C668.97 503.25 614.95 503.25 608.2 503.25C596.95 476.06 583.39 434.41 576.46 397.11C569.82 434.41 555.11 478.38 545.01 503.25C538.25 503.25 484.23 503.25 477.48 503.25C453.8 448.88 428.07 357.69 420.92 288.65"/>
  <path d="M728.44 493.77L728.44 452.54C729.8 452.54 730.56 452.54 730.71 452.54C742.94 456.25 769.38 461.36 788.43 461.36C789.54 461.36 798.42 461.36 799.53 461.36C817.14 461.36 830.51 455.96 830.51 438.04C830.51 424.69 818.85 419.29 806.06 415.87C802.73 414.99 776.12 407.94 772.79 407.06C748.34 400.81 728.44 383.74 728.44 347.06C728.44 303.85 763.98 285.93 807.19 285.93C808.3 285.93 817.18 285.93 818.29 285.93C831.64 285.93 858.37 289.35 870.59 293.9C870.59 296.63 870.59 310.28 870.59 334.84C869.23 334.84 868.47 334.84 868.32 334.84C857.23 331.71 830.51 328.3 818.28 328.3C817.28 328.3 809.32 328.3 808.33 328.3C792.7 328.3 779.32 331.42 779.32 347.06C779.32 359.3 788.43 364.12 799.52 366.97C802.85 367.87 829.46 375.15 832.79 376.06C864.9 384.59 881.68 403.64 881.68 438.04C881.68 485.81 847.28 503.73 799.52 503.73C798.41 503.73 789.53 503.73 788.42 503.73C771.64 503.73 743.79 499.18 728.44 493.77"/>
  <path d="M999.87 458.2C999.87 483.37 979.46 503.76 954.3 503.76C929.14 503.76 908.74 483.36 908.74 458.2C908.74 433.04 929.14 412.64 954.3 412.64C979.46 412.64 999.87 433.04 999.87 458.2"/>
  <path d="M765 0.45C702.32 0.45 651.5 52.53 651.5 116.77C651.5 181.02 702.32 233.1 765 233.1C827.69 233.1 878.51 181.02 878.51 116.77C878.51 52.53 827.69 0.45 765 0.45M765 201.38C721.27 201.38 685.69 163.43 685.69 116.77C685.69 70.12 721.27 32.17 765 32.17C808.73 32.17 844.32 70.12 844.32 116.77C844.32 163.43 808.73 201.38 765 201.38"/>
</g>
</svg>
