<svg
	xmlns="http://www.w3.org/2000/svg"
	viewBox="0 0 1000 100.5071487">
<g>
	<g fill="#1D0F44">
		<polygon points="86.0875244,98.7445908 53.5504456,77.3632736 3.256845,98.6823273 32.873951,63.9179573 0,42.3492851 51.2669411,42.3492851 86.0875244,1.5390458 86.0875244,42.3492851 135.7821655,42.3492851 86.0875244,63.5184937"/>
		<path d="M147.8068848,21.4512119c1.7407074,0,3.1569824-1.4162178,3.1569824-3.1568832l0.0062256-13.6637077 c0-1.7406652-1.4162598-3.1570737-3.1569672-3.1570737H94.5309525v19.9839478L147.8068848,21.4512119z"/>
		<path d="M147.8068848,98.9298553c1.7407074,0,3.1569824-1.4162216,3.1569824-3.1568832l0.0062256-13.6637115 c0-1.7406616-1.4162598-3.157074-3.1569672-3.157074H94.5309525v19.9839478L147.8068848,98.9298553z"/>
		<path d="M862.8853149,1.5371418h-66.5653076c-1.7469482,0-3.1694336,1.4226921-3.1694336,3.1633573v13.6886501 c0,1.7469482,1.4224854,3.1694508,3.1694336,3.1694508h23.2719116v74.407814c0,1.7469482,1.4224854,3.1694565,3.1694336,3.1694565 h13.6824951c1.7469482,0,3.1694336-1.4225082,3.1694336-3.1694565v-74.407814h23.2720337 c1.7469482,0,3.163147-1.4225025,3.163147-3.1694508V4.7004991C866.0484619,2.9598339,864.6322632,1.5371418,862.8853149,1.5371418"/>
		<path d="M597.546936,23.3135452c-1.5784912-4.2987309-3.9368286-8.1045084-7.0002441-11.323844 c-3.0634766-3.2006769-6.8256836-5.7836847-11.1868286-7.6804805c-4.3798828-1.9028888-9.3587036-2.869946-14.8053589-2.869946 h-36.2182007c-1.7406616,0-3.163269,1.4225014-3.163269,3.1694498v91.1661453c0,1.7469482,1.4226074,3.1631699,3.163269,3.1631699 h13.6824341c1.7469482,0,3.1694336-1.4162216,3.1694336-3.1631699l-0.0062256-23.3592224h19.3725586 c5.4404907,0,10.3943481-0.9421158,14.7242432-2.7951202c4.3299561-1.8592834,8.0734863-4.4236298,11.1368408-7.6243095 c3.057251-3.200676,5.421814-6.944191,7.0440063-11.1431503c1.6097412-4.1614494,2.427063-9.4521828,2.427063-14.0753593 C599.8866577,32.0857964,599.1004639,27.5562973,597.546936,23.3135452 M578.673645,43.1602135 c-0.7238159,1.9093628-1.7345581,3.5812912-3.0135498,4.9601898c-1.2603149,1.3726158-2.7077637,2.2336197-4.4359741,3.007225 c-1.7033691,0.7675171-4.7418213,1.2292442-10.6689453,1.2292442h-15.37323V21.4605408h20.1710815 c2.1525269,0,4.1365967,0.3931828,5.8897705,1.1667919c1.7718506,0.7798901,3.3129883,1.8530025,4.5732422,3.1820164 c1.2540894,1.3227291,2.227356,2.9447746,2.9011841,4.8227196c0.6987915,1.946682,1.0544434,4.0616798,1.0544434,6.2890129 C579.7716675,39.1236649,579.4035645,41.2260971,578.673645,43.1602135"/>
		<path d="M461.3955078,29.4310055c-0.0874023,2.0154171,0.436676,3.2444706,1.2041016,4.329958 c0.8610229,1.2292404,2.0838623,2.2587509,3.6249084,3.0635872c1.7158203,0.8920364,3.7434998,1.5970993,6.020813,2.0963364 c2.495636,0.5426483,5.0474243,1.0481682,7.5991821,1.4973297c4.6170044,0.7300072,9.184021,1.6471786,13.5514832,2.732666 c4.5669861,1.1292801,8.6162109,2.8326263,12.0539246,5.0475845c3.562561,2.3084488,6.3951721,5.3781281,8.4290466,9.1277351 c2.0527344,3.7810249,2.963623,8.5976563,2.7141113,14.3188858c-0.2433472,5.5527267-1.6659546,10.2945251-4.2301636,14.1003036 c-2.5143738,3.7311401-5.7587585,6.7695923-9.645752,9.046814c-3.8120422,2.2273331-7.5680542,3.8745117-12.2286377,4.7417984 c-4.5670166,0.8484344-9.6768494,1.104332-14.1440735,0.9108887c-11.080719-0.4866714-27.4459534-6.8505173-35.6566162-18.0810623 c-0.6488953-0.8983231-1.4537354-2.4331589,0.3118896-4.2299957c1.7593994-1.790741,10.1947327-10.375824,10.1947327-10.375824 c1.7032776-1.7968369,3.35672-0.5239944,4.0617065,0.5055161c4.8041382,7.025116,14.3686523,12.2659607,21.8868103,12.5904083 c3.9494629,0.1747894,4.4235535,0.0188446,6.888031-0.3055954c2.2460938-0.2932205,4.2301941-0.8735733,6.089386-1.7220078 c1.7033386-0.779892,3.1383057-1.8094025,4.261322-3.2505646c1.0419617-1.32901,1.6471558-3.2195282,1.7969055-5.4030685 c0.1434937-2.108902-0.4429626-3.7996826-1.4162903-5.1599197c-1.0544739-1.4847679-2.5143738-2.6203308-4.2676086-3.5312195 c-1.9715271-1.0232239-4.2363892-1.6784019-6.7319946-2.146225c-2.6765747-0.5055199-5.3468933-0.9483948-7.9299011-1.3227272 c-4.2737732-0.5428391-8.522644-1.4164085-12.6218262-2.5830116c-4.2362671-1.210392-8.0234985-2.9200211-11.2615662-5.0786209 c-3.362915-2.2461853-6.0769043-5.1536407-8.0671997-8.6475372c-2.02771-3.5812912-2.963623-7.6366882-2.7389526-12.7651958 c0.2245789-5.1597328,1.5097961-9.6957054,3.8120728-13.4828234c2.2773132-3.749609,5.2658691-6.8381376,8.8907776-9.1839037 c3.5375977-2.2960711,7.6179199-3.9805672,12.116394-5.0037937c8.7471924-1.9840003,17.4945068-1.6534605,26.1730957,1.0917714 c9.3462219,2.9636245,16.8518982,10.1385841,20.3146973,15.2234898c0.6362915,0.9295483,1.2664185,2.4021244-0.0874023,3.9306812 c-1.3538818,1.5222721-9.6082458,9.5957451-9.6082458,9.5957451c-1.7781677,1.7033463-3.6000366,1.3101654-4.6106873-0.1808834 c-5.0662537-7.4432373-11.5861206-10.7811947-19.1478882-11.2804317 C470.8851929,19.1115379,461.7698364,20.9333153,461.3955078,29.4310055"/>
		<path d="M419.6039429,13.2316999c-4.5109558-4.2987309-9.8204346-7.6054611-15.7912903-9.8451729 c-5.9271545-2.2149591-12.28479-3.34424-18.8858032-3.34424c-6.5136719,0-12.8463745,1.1292808-18.8110657,3.34424 c-6.0144348,2.2334285-11.3676147,5.54035-15.9159851,9.8390808c-4.5545349,4.2987299-8.2169189,9.6330633-10.8935242,15.8598166 c-2.6827698,6.2204685-4.0367432,13.339262-4.0367432,21.1693974c0,7.9112511,1.3352051,15.054985,3.9619141,21.2255707 c2.6329041,6.1829529,6.2516174,11.4986267,10.7562561,15.7973633c4.5046387,4.2924423,9.8204346,7.6054611,15.7974548,9.8390808 c5.9271545,2.2212372,12.2786255,3.3442383,18.8796082,3.3442383c7.2311401,0,13.9756775-1.2166748,20.0525818-3.6248932 c6.1080627-2.420784,11.4301147-5.9023056,15.8036499-10.3506927c4.355011-4.4236374,7.8052063-9.7831039,10.2572327-15.9222717 c2.4394226-6.120697,3.6810608-12.9525528,3.6810608-20.3083954c0-7.8238525-1.3601685-14.9489288-4.0367432-21.1756802 C427.7397766,22.8586712,424.1022949,17.5243378,419.6039429,13.2316999 M411.6178589,63.7623978 c-1.5348511,3.7623672-3.6437378,6.944191-6.2828369,9.4586563c-2.6391602,2.5268402-5.7399902,4.4546738-9.21521,5.7337952 c-3.531311,1.3038864-7.355957,1.9651566-11.3614502,1.9651566c-4.0990906,0-7.9736023-0.6612701-11.4987488-1.9651566 c-3.4626465-1.2728424-6.5073853-3.1882935-9.0466919-5.6964798c-2.56427-2.5205536-4.6419373-5.7212296-6.1829834-9.4959717 c-1.5473022-3.7994919-2.3334656-8.3042412-2.3334656-13.3765793c0-5.0786209,0.7861633-9.5770836,2.3334656-13.3828621 c1.5348511-3.7684593,3.6373901-6.9567585,6.2328491-9.477314c2.5892944-2.5205574,5.6713562-4.4672375,9.1590576-5.7962513 c3.525116-1.3413906,7.3871765-2.0152264,11.4737854-2.0152264c3.993042,0,7.8051147,0.6738358,11.3302307,2.0215092 c3.4752502,1.3164482,6.5511169,3.2817879,9.1402893,5.8398533c2.6079712,2.5706329,4.7105713,5.7899704,6.251709,9.564518 c1.5534973,3.8059692,2.3396606,8.2606392,2.3396606,13.2457733 C413.9575195,55.4581566,413.1713562,59.9566231,411.6178589,63.7623978"/>
		<path d="M691.0895996,13.2316999c-4.5109253-4.2987309-9.8203735-7.6054611-15.7912598-9.8451729 c-5.927124-2.2149591-12.28479-3.34424-18.8858032-3.34424c-6.5136719,0-12.8463745,1.1292808-18.8110352,3.34424 c-6.0144653,2.2334285-11.3676758,5.54035-15.9160156,9.8390808c-4.5545044,4.2987299-8.2169189,9.6330633-10.8934937,15.8598166 c-2.6828003,6.2204685-4.0367432,13.339262-4.0367432,21.1693974c0,7.9112511,1.3352051,15.054985,3.9619141,21.2255707 c2.6328735,6.1829529,6.2515869,11.4986267,10.7562256,15.7973633c4.5046387,4.2924423,9.8204346,7.6054611,15.7974854,9.8390808 c5.927124,2.2212372,12.2786255,3.3442383,18.8795776,3.3442383c7.2311401,0,13.975708-1.2166748,20.0526123-3.6248932 c6.1080322-2.420784,11.4300537-5.9023056,15.8036499-10.3506927c4.3549805-4.4236374,7.8051758-9.7831039,10.2572021-15.9222717 c2.4394531-6.120697,3.6810303-12.9525528,3.6810303-20.3083954c0-7.8238525-1.3601074-14.9489288-4.0366821-21.1756802 C699.2254639,22.8586712,695.5880127,17.5243378,691.0895996,13.2316999 M683.1035767,63.7623978 c-1.5348511,3.7623672-3.6437988,6.944191-6.2828369,9.4586563c-2.6392212,2.5268402-5.7399902,4.4546738-9.215271,5.7337952 c-3.531311,1.3038864-7.355896,1.9651566-11.3614502,1.9651566c-4.0990601,0-7.9735718-0.6612701-11.4987183-1.9651566 c-3.4626465-1.2728424-6.5073853-3.1882935-9.0466919-5.6964798c-2.56427-2.5205536-4.6419678-5.7212296-6.1829834-9.4959717 c-1.5473022-3.7994919-2.3334961-8.3042412-2.3334961-13.3765793c0-5.0786209,0.7861938-9.5770836,2.3334961-13.3828621 c1.5348511-3.7684593,3.6373901-6.9567585,6.2328491-9.477314c2.5892944-2.5205574,5.6713867-4.4672375,9.1590576-5.7962513 c3.5251465-1.3413906,7.387146-2.0152264,11.4738159-2.0152264c3.993042,0,7.8050537,0.6738358,11.3302002,2.0215092 c3.4752197,1.3164482,6.5510864,3.2817879,9.1403198,5.8398533c2.6079102,2.5706329,4.7105713,5.7899704,6.251709,9.564518 c1.5534668,3.8059692,2.3396606,8.2606392,2.3396606,13.2457733 C685.4432373,55.4581566,684.6570435,59.9566231,683.1035767,63.7623978"/>
		<path d="M235.4753723,1.4396554h-13.7323456c-1.7407684,0-3.163269,1.4226919-3.163269,3.1633573v60.35112 c0,2.5704422-0.4304962,4.8290024-1.2790222,6.7008591c-0.8485413,1.8653793-2.0152283,3.4501038-3.4751434,4.6980057 c-1.5037079,1.2915039-3.3193054,2.2958755-5.3907013,2.9822845c-2.1337433,0.7174377-5.739975,1.0731125-8.2543488,1.0731125 c-2.5205536,0-6.3327179-0.3617706-8.5163574-1.0793991c-2.1213684-0.6924973-3.9805603-1.6970596-5.5278778-3.000946 c-1.4911346-1.2479019-2.6703491-2.8139648-3.5126038-4.6730576c-0.848526-1.8781357-1.2790222-4.1304169-1.2790222-6.7008591 v-60.35112c0-1.7406652-1.4225616-3.1633573-3.1695099-3.1633573h-13.676178c-1.7469482,0-3.1694489,1.4226919-3.1694489,3.1633573 v60.8315048c0,5.5776672,1.048172,10.5940323,3.1071014,14.9114227c2.0526428,4.2926331,4.9164429,7.998642,8.5101624,11.0184326 c3.5563049,2.9885712,7.7240295,5.2720718,12.3908539,6.7756882c4.5982361,1.4849548,9.5958405,2.2397079,14.8428802,2.2397079 c5.1660156,0,10.1136475-0.7547531,14.7118683-2.2397079c4.6793518-1.5098953,8.8159485-3.7996826,12.2973785-6.8006287 c3.4876099-3.0135117,6.2953033-6.7134247,8.3416595-10.9934921c2.0652008-4.3236771,3.1070862-9.3398438,3.1070862-14.9114227 V4.6030126C238.6385345,2.8623474,237.2223206,1.4396554,235.4753723,1.4396554"/>
		<path d="M331.68396,93.6415939l-22.2300415-27.5705566c0,0,17.9499817-6.5323486,17.9499817-29.2990379 c0-4.6856308-0.7861938-9.2151318-2.3396912-13.4576931c-1.5785217-4.2989216-3.9368591-8.1046982-7.0065308-11.3240337 c-3.0572205-3.2006769-6.819397-5.7836852-11.1867676-7.6804805c-4.3736572-1.9028888-9.3586731-2.8699462-14.8054504-2.8699462 h-36.1744995c-1.7406616,0-3.1632538,1.4225016-3.1632538,3.1631668v91.1661453 c0,1.7532349,1.4225922,3.1696472,3.1632538,3.1696472h13.6449585c1.7470398,0,3.1695557-1.4164124,3.1695557-3.1696472 l-0.0062866-74.3080444h20.2585144c2.1586914,0,4.1365051,0.3931828,5.88974,1.16679 c1.7718811,0.779892,3.3128967,1.8530025,4.5794678,3.1820164c1.2478027,1.322731,2.2273254,2.9447746,2.894989,4.8166275 c0.698761,1.952776,1.0543518,4.0677738,1.0543518,6.2952976c0,2.2023926-0.368042,4.2987328-1.098053,6.2391281 c-0.7175293,1.9091721-1.7344666,3.5750084-3.0135193,4.9600029c-1.2602844,1.3726158-2.7078247,2.2336197-4.4360046,3.007225 c-1.697052,0.7675171-4.7416992,1.2292442-10.6689453,1.2292442h-8.4726563c-1.6784058,0-2.963623,1.5097046-1.6784058,3.5811005 l31.682312,41.6775284c0.5927124,0.8297729,1.5535889,1.322731,2.5767212,1.322731h17.4945374 C332.3390503,98.9388046,334.0610657,96.5739975,331.68396,93.6415939"/>
		<path d="M794.3253174,93.6415939l-22.2300415-27.5705566c0,0,17.9500122-6.5323486,17.9500122-29.2990379 c0-4.6856308-0.7861938-9.2151318-2.3397217-13.4576931c-1.5784912-4.2989216-3.9368286-8.1046982-7.0065308-11.3240337 c-3.0571899-3.2006769-6.819397-5.7836852-11.1867676-7.6804805c-4.3736572-1.9028888-9.3587036-2.8699462-14.8054199-2.8699462 h-36.1744995c-1.7406616,0-3.163269,1.4225016-3.163269,3.1631668v91.1661453c0,1.7532349,1.4226074,3.1696472,3.163269,3.1696472 h13.6449585c1.7470093,0,3.1694946-1.4164124,3.1694946-3.1696472l-0.0062866-74.3080444h20.2585449 c2.1586914,0,4.1364746,0.3931828,5.8897095,1.16679c1.7719116,0.779892,3.3129272,1.8530025,4.5795288,3.1820164 c1.2478027,1.322731,2.2272949,2.9447746,2.8949585,4.8166275c0.6987915,1.952776,1.0543823,4.0677738,1.0543823,6.2952976 c0,2.2023926-0.368103,4.2987328-1.0980835,6.2391281c-0.7175293,1.9091721-1.7344971,3.5750084-3.0134888,4.9600029 c-1.2603149,1.3726158-2.7078247,2.2336197-4.4360352,3.007225c-1.6970825,0.7675171-4.7416992,1.2292442-10.6689453,1.2292442 h-8.4726563c-1.6784058,0-2.963623,1.5097046-1.6784058,3.5811005l31.682312,41.6775284 c0.5927124,0.8297729,1.5535889,1.322731,2.5767212,1.322731h17.4945068 C794.9804077,98.9388046,796.7023926,96.5739975,794.3253174,93.6415939"/>
	</g>
	<g>
		<path fill="#E40138" d="M996.7307739,100.5071487h-90.8417969c-1.8031006,0-3.2692261-1.459816-3.2692261-3.2692184V3.2640979 c0-1.8031174,1.4661255-3.262938,3.2692261-3.262938h90.8417969C998.5336914,0.00116,1000,1.4609805,1000,3.2640979v93.9738312 C1000,99.0473328,998.5336914,100.5071487,996.7307739,100.5071487"/>
		<path fill="#FFFFFF" d="M929.3112183,80.8649216v1.9911118c0,1.2297516,0.8925171,2.2345428,2.1221924,2.2345428h42.2064819 h0.0374756c1.2296143,0,2.1222534-1.0047913,2.1222534-2.2345428v-9.7620316c0-1.1297531-0.9238892-2.2219772-2.2095947-2.2219772 h-19.7738037l12.3086548-16.4843445c7.340271-9.4625893,8.944397-20.0421715,4.9372559-28.1315746 c-3.3581543-6.7785053-10.4237061-10.6732979-19.399292-10.6732979 c-13.9877319,0.1060982-21.8648071,7.7396793-22.1768188,21.4902172l-0.0625,3.2644882 c0,1.3293762,0.9613037,2.159687,2.2907715,2.159687h9.4998779c1.2296143,0,2.1534424-0.9674568,2.2219849-2.2221642 l0.1436157-2.9898109c0.2059326-3.6763115,1.7102661-8.0642624,7.7335205-8.0642624 c4.8809814,0,7.3277588,3.1084824,7.4526367,6.2792511c0.1373291,3.5016365-0.7240601,6.1293411-3.7825317,10.1239471 l-24.5861206,32.3945694C929.6794434,78.8863754,929.3112183,79.6041183,929.3112183,80.8649216"/>
	</g>
</g>
</svg>
