<svg
	xmlns="http://www.w3.org/2000/svg"
	viewBox="0 0 1000 889.013855">
<g>
	<path d="M500.017334,0C223.8510742,0,0,116.0254593,0,267.0411072 c0,150.9972534,223.8510742,267.0237732,500.017334,267.0237732C776.1478271,534.0648804,1000,418.0383606,1000,267.0411072 C1000,116.0254593,776.1478271,0,500.017334,0 M500.5330811,509.5314636 c-217.1063538,0-392.2643127-105.4451904-392.2643127-243.6800232 c0-138.2510681,175.157959-240.1294098,392.2643127-240.1294098c217.1052856,0,391.1981812,101.878334,391.1981812,240.1294098 C891.7312622,404.0862732,717.6383667,509.5314636,500.5330811,509.5314636z"/>
	<polyline points="500.0899353,291.9992981 787.510376,204.5541229 787.5461426,285.0584717 633.5130005,329.6158752 774.6049805,363.2029724 756.5507813,430.1452637 500.1246033,370.7830505 243.8230286,429.3283081 225.3614502,363.1314697 366.7546387,329.6158752 212.810318,284.2956848 212.7929688,204.5541229 500.0899353,291.9992981"/>
	<path d="M432.3837585,119.9130173h131.6471863c17.1668091,0,20.876709-5.1834106,8.2193604-11.5023193 c0,0-26.6635742-13.3680954-71.7356567-13.3680954c-48.7635193,0-76.1378784,13.4742737-76.1378784,13.4742737 C411.5959473,114.8011169,415.1996155,119.9130173,432.3837585,119.9130173 M289.8540039,152.5054626 c0-48.0711746,105.6943665-98.9485855,209.5955811-96.4814758 c104.1688232,2.4497719,189.5911255,53.8602562,193.4244995,100.9021149 c0.0715332,1.1365814,0.230835,3.5863495,0.230835,3.6210175l-269.3316345,0.2134399 c-18.7281189,0-25.6862793,9.2129211-11.4492493,17.4680176c0,0,35.5211182,19.6685944,84.6584473,19.6685944 c32.7701416,0,57.0186157-7.6147766,70.5460205-13.6866455l124.0497437-0.1061859l-3.8344727,3.9233246 c-34.2956543,34.9360199-107.9837646,59.0425873-186.3590698,59.0425873 C397.48349,247.0702515,289.8355713,205.7968903,289.8540039,152.5054626z"/>
	<path fill="#9D9D9C" d="M180.3782196,797.6800537c-16.9533539,0-30.800354-2.0759888-42.0014648-9.7449341 l17.4149323-11.6095581c5.7511597,3.833374,15.869873,5.1834106,24.7458038,5.1834106 c10.7222137,0,15.869873-2.3966675,15.869873-6.6396484c0-1.7747192-0.6208344-3.2125244-2.1832275-4.3664551 c-1.4020386-0.9231567-3.7282867-1.6512451-7.3135529-1.9708862l-13.3854218-1.2427368 c-9.7990875-0.9231567-17.2545776-3.1063843-22.2429657-6.5323486 c-5.1303101-3.5148315-7.6158447-8.5032349-7.6158447-14.8232422c0-13.4915771,15.2490387-23.34375,40.4390717-23.34375 c15.869873,0,27.8532715,2.4855347,37.3500519,8.8228149l-17.1126404,11.3972168 c-7.0123291-4.6513672-16.1894836-4.3501587-21.0186005-4.3501587c-9.4794464,0-13.3670044,3.6220703-13.3670044,6.8346558 c0,0.9415283,0.4615631,2.2904663,2.1832275,3.4259644c1.3847046,0.9415283,3.7282867,1.8646851,7.6158447,2.1843262 l13.3854218,1.2427368c9.9583588,0.9404907,17.1126404,3.0175171,21.76297,6.1239014 c5.9299469,3.8344727,8.2551117,9.3375244,8.2551117,16.1721802 C223.1598053,789.479126,203.7209167,797.6800537,180.3782196,797.6800537"/>
	<path fill="#9D9D9C" d="M328.6049805,746.9629517c0,3.8344727-4.3491211,7.473938-11.8219604,7.473938h-15.3909607v-14.9467163 H316.78302C324.2558594,739.4901733,328.6049805,743.1295776,328.6049805,746.9629517 M355.8374023,746.9629517 c0-12.1242065-13.2261353-23.7511597-37.811615-23.7511597h-43.8650513v73.8474121h27.2313232V770.71521h16.633728 C342.6112671,770.71521,355.8374023,759.1056519,355.8374023,746.9629517z"/>
	<path fill="#9D9D9C" d="M453.8986206,760.1349487c0,13.4916382-1.5439758,15.8709717-4.0295105,18.0541992 c-2.0412903,1.7573853-5.911499,3.3198242-10.8988037,3.3198242c-4.9884033,0-8.8586121-1.562439-10.8999023-3.3198242 c-2.4855347-2.1832275-4.0295105-4.562561-4.0295105-18.0541992c0-13.4732056,1.5439758-15.9760132,4.0295105-18.1419067 c2.0412903-1.7747803,5.911499-3.2125854,10.8999023-3.2125854c4.9873047,0,8.8575134,1.4378052,10.8988037,3.2125854 C452.3546448,744.1589355,453.8986206,746.6617432,453.8986206,760.1349487 M481.1310425,760.1349487 c0-11.0949097,0.4604797-21.461731-11.2022095-29.2542114c-8.0947571-5.3795166-17.432251-8.2908325-30.9585266-8.2908325 c-13.5447083,0-22.8648987,2.9113159-30.9596252,8.2908325c-11.6626892,7.7924805-11.2011108,18.1593018-11.2011108,29.2542114 c0,11.0949707-0.4615784,21.4628296,11.2011108,29.2553101c8.0947266,5.3795166,17.414917,8.2908325,30.9596252,8.2908325 c13.5262756,0,22.8637695-2.9113159,30.9585266-8.2908325 C481.5915222,781.5977783,481.1310425,771.2299194,481.1310425,760.1349487z"/>
	<path fill="#9D9D9C" d="M583.9844971,746.9629517c0,3.8344727-4.3675537,7.473938-11.840332,7.473938h-15.3909912v-14.9293823 h15.3909912C579.6169434,739.5075073,583.9844971,743.12854,583.9844971,746.9629517 M617.1100464,797.0581055 l-23.9656982-30.7992554c8.7166748-2.9113159,18.0541382-9.2302246,18.0541382-19.2958984 c0-12.1242065-13.2250366-23.7521973-37.7942505-23.7521973h-43.8823853v73.8473511h27.2313232v-27.4794312h9.177124 l19.5982056,27.4794312H617.1100464z"/>
	<polyline fill="#9D9D9C" points="706.6506958,739.4002075 706.6506958,797.0592041 679.4182739,797.0592041 679.4182739,739.4002075 652.2053223,739.4002075 652.2053223,723.229126 733.882019,723.229126 733.882019,739.4002075 706.6506958,739.4002075"/>
	<path fill="#9D9D9C" d="M810.0025635,797.6800537c-16.9533691,0-30.800354-2.0759888-42.0014648-9.7449341l17.414917-11.6095581 c5.7684937,3.833374,15.869873,5.1834106,24.7457886,5.1834106c10.722229,0,15.869873-2.3966675,15.869873-6.6396484 c0-1.7747192-0.6207886-3.2125244-2.1832275-4.3664551c-1.4020386-0.9231567-3.7282715-1.6512451-7.3135376-1.9708862 l-13.3670044-1.2427368c-9.7990723-0.9231567-17.2730103-3.1063843-22.2613525-6.5323486 c-5.1303711-3.5148315-7.6158447-8.5032349-7.6158447-14.8232422c0-13.4915771,15.2490234-23.34375,40.4390259-23.34375 c15.869873,0,27.8532715,2.4855347,37.3327637,8.8228149l-17.0953369,11.3972168 c-7.0123291-4.6513672-16.1895142-4.3501587-21.0186157-4.3501587c-9.4794312,0-13.3670044,3.6220703-13.3670044,6.8346558 c0,0.9415283,0.4616089,2.2904663,2.1832275,3.4259644c1.4031372,0.9415283,3.7283325,1.8646851,7.6158447,2.1843262 l13.385437,1.2427368c9.94104,0.9404907,17.1126099,3.0175171,21.7813721,6.1239014 c5.9115601,3.8344727,8.2366943,9.3375244,8.2366943,16.1721802 C852.7841187,789.479126,833.3452759,797.6800537,810.0025635,797.6800537"/>
	<path d="M170.7037506,889.013855c-9.1782379,0-16.1374969-2.0228882-21.8713226-5.7684937 c-8.2897797-5.4141846-7.9528046-12.6400146-7.9528046-20.3619995c0-7.7393799-0.3369751-14.9467773,7.9528046-20.3793945 c5.7338257-3.7456055,12.6930847-5.7684937,21.8713226-5.7684937c14.9109802,0,26.9463806,5.4141846,29.8230438,16.7572632 H180.857132c-1.207016-2.8929443-3.6394501-5.4857178-10.0471954-5.4857178c-3.5332642,0-6.1780701,0.9415894-7.61586,2.1658936 c-1.7747498,1.5093384-2.9817505,3.3198242-2.9817505,12.7104492c0,9.37323,1.2070007,11.1837769,2.9817505,12.7103882 c1.4377899,1.2254028,4.0825958,2.1485596,7.61586,2.1485596c6.4077454,0,8.8401794-2.5916748,10.0471954-5.4857178h19.6696625 C197.6501312,883.5996704,185.6147308,889.013855,170.7037506,889.013855"/>
	<polyline points="284.9902039,888.5696411 284.9902039,868.2086792 264.4331665,868.2086792 264.4331665,888.5696411 245.1015472,888.5696411 245.1015472,837.1602173 264.4331665,837.1602173 264.4331665,856.9544678 284.9902039,856.9544678 284.9902039,837.1602173 304.3218079,837.1602173 304.3218079,888.5696411 284.9902039,888.5696411"/>
	<path d="M386.3354797,870.3745728h-13.7050781l7.0654297-13.7223511L386.3354797,870.3745728 M415.2711182,888.5696411 l-28.6170959-51.4094238H371.743042l-28.6160583,51.4094238h20.2189941l3.8702393-7.6505127h24.1954041l3.6394348,7.6505127 H415.2711182z"/>
	<polyline points="502.1485596,888.5696411 476.9585266,862.7229614 476.9585266,888.5696411 457.625824,888.5696411 457.625824,837.1602173 474.5260925,837.1602173 499.7161255,863.0079346 499.7161255,837.1602173 519.0477295,837.1602173 519.0477295,888.5696411 502.1485596,888.5696411"/>
	<polyline points="617.4470215,888.5696411 592.256958,862.7229614 592.256958,888.5696411 572.9242554,888.5696411 572.9242554,837.1602173 589.8245239,837.1602173 615.0145874,863.0079346 615.0145874,837.1602173 634.3461914,837.1602173 634.3461914,888.5696411 617.4470215,888.5696411"/>
	<polyline points="689.9996338,888.5696411 689.9996338,837.1602173 743.4676514,837.1602173 743.4676514,848.4328613 709.3312378,848.4328613 709.3312378,857.0249023 738.4976807,857.0249023 738.4976807,868.2802124 709.3312378,868.2802124 709.3312378,877.3154297 743.4676514,877.3154297 743.4676514,888.5696411 689.9996338,888.5696411"/>
	<polyline points="798.6768188,888.5696411 798.6768188,837.1602173 818.0084839,837.1602173 818.0084839,877.3154297 851.0440674,877.3154297 851.0440674,888.5696411 798.6768188,888.5696411"/>
	<path d="M142.388916,590.4800415v92.7011719h72.8180695v-21.2493896c0,0-44.4154816,0-45.7113342,0 c0-1.1896973,0-13.7224121,0-14.8936768c1.2958527,0,39.0543823,0,39.0543823,0v-21.2667236c0,0-37.7585297,0-39.0543823,0 c0-1.1712036,0-12.6399536,0-13.8112183c1.2958527,0,45.7113342,0,45.7113342,0v-21.4801636H142.388916"/>
	<path d="M326.2451477,590.4800415h-31.0484619c0,0-13.9000854,23.3621826-14.9651794,25.1553345 c-1.0823975-1.7931519-14.9824829-25.1553345-14.9824829-25.1553345h-31.0484619 c0,0,30.6584167,44.4869995,31.1730652,45.2497559c-0.5146484,0.7454224-33.2490387,47.451416-33.2490387,47.451416h31.2077484 c0,0,15.8167725-25.7047119,16.8991699-27.4447632c1.065094,1.7400513,16.9002686,27.4447632,16.9002686,27.4447632h31.1893311 c0,0-32.734375-46.7059937-33.2490234-47.451416C295.586731,634.967041,326.2451477,590.4800415,326.2451477,590.4800415"/>
	<path d="M340.0921326,590.4800415v21.4801636c0,0,24.4966125,0,25.7578125,0c0,1.31427,0,71.2210083,0,71.2210083h27.10672 c0,0,0-69.9067383,0-71.2210083c1.2785339,0,26.0069885,0,26.0069885,0v-21.4801636H340.0921326"/>
	<path d="M520.112793,620.6757813c0-8.2366943-3.1594238-15.2490234-9.3732605-20.8766479 c-6.7988892-6.177002-15.9413757-9.3190918-27.1782227-9.3190918h-42.3026733v92.7000732h27.1078186 c0,0,0-32.6986084,0-33.9771118c1.0823975,0,6.993927,0,7.6505127,0 c0.3727112,0.6749878,18.6392517,33.9771118,18.6392517,33.9771118h31.5989075c0,0-22.2613831-37.2611694-22.989502-38.4682007 C514.4147339,639.6704712,520.112793,631.6114502,520.112793,620.6757813 M468.3664551,611.9591064 c1.2243347,0,14.0235901,0,14.0235901,0c3.177887,0,5.7869263,0.8527222,7.7220459,2.5570679 c1.9524231,1.7042847,2.8929138,3.6740723,2.8929138,6.0534668c0,2.2720337-0.9404907,4.1887207-2.8929138,5.8930664 c-1.9351196,1.7043457-4.5441589,2.5570679-7.7220459,2.5570679c0,0-12.7992554,0-14.0235901,0 C468.3664551,627.8300781,468.3664551,613.1672363,468.3664551,611.9591064z"/>
	<path d="M546.0493774,590.4800415v92.7011719h72.8180542v-21.2493896c0,0-44.4154663,0-45.7113037,0 c0-1.1896973,0-13.7224121,0-14.8936768c1.2958374,0,39.0543823,0,39.0543823,0v-21.2667236c0,0-37.7585449,0-39.0543823,0 c0-1.1712036,0-12.6399536,0-13.8112183c1.2958374,0,45.7113037,0,45.7113037,0v-21.4801636H546.0493774"/>
	<path d="M723.5151978,590.4800415c0,0-22.1367798,37.7411499-23.2376099,39.6231689 c-1.1181641-1.882019-23.2549438-39.6231689-23.2549438-39.6231689h-26.4685669v92.7011719h27.1078491 c0,0,0-38.0424194,0-42.107666c2.2189941,3.4086914,22.4553223,34.5449219,22.4553223,34.5449219 s20.5396729-31.2077637,22.758667-34.5622559c0,4.029541,0,42.125,0,42.125h27.1067505v-92.7011719H723.5151978"/>
	<path d="M850.7601929,611.9591064v-21.4790649H777.94104v92.7000732h72.8191528v-21.2493896c0,0-44.3981323,0-45.7113647,0 c0-1.1885986,0-13.7213135,0-14.8936157c1.2958984,0,39.0717163,0,39.0717163,0v-21.2667236c0,0-37.7758179,0-39.0717163,0 c0-1.1712646,0-12.638916,0-13.8112793C806.3620605,611.9591064,850.7601929,611.9591064,850.7601929,611.9591064"/>
</g>
</svg>
