<svg
  xmlns="http://www.w3.org/2000/svg"
  viewBox="0 0 1000 997">
<g>
  <path fill="#006de7" d="M27.47 970.32C14.28 956.94 6.59 943.53 2.2 925.85C2.05 925.21 1.32 922.01 0 916.25L0 500.49L0 84.73C1.32 78.97 2.05 75.77 2.2 75.13C10.99 39.68 39.56 11.75 73.62 2.48C74.28 2.31 77.58 1.49 83.51 0C333.39 0 472.21 0 499.97 0C903.25 0 917.53 0.07 925.22 2.1C954.89 10.22 981.27 32.69 993.35 61.34C1001.04 79.42 999.95 42.31 999.95 500.82C999.95 909.55 999.95 916.6 997.75 925.09C990.06 955.94 969.18 980.71 940.61 993.29C940.02 993.53 937.09 994.77 931.82 997C672.71 996.96 528.76 996.94 499.97 996.93C148.34 996.88 68.13 996.59 64.83 995.4C51.65 990.51 37.36 981.58 27.47 970.32ZM226.36 895.8C228.56 893.64 228.56 893.46 231.86 899.56C232.95 902.19 235.15 905.11 237.35 906.06C245.04 909.86 257.13 907.04 262.62 900.31C265.92 896.09 267.02 888.87 265.92 887.23C264.82 885.76 261.52 887.86 261.52 890.25C261.52 891.02 260.43 892.99 258.23 894.63C256.03 898.58 251.63 898.62 249.44 894.71C249.44 893.04 248.34 876.1 248.34 854.77C248.34 818.11 248.34 817.69 246.14 813.92C240.65 805.18 230.76 802.11 210.98 802.98C197.79 803.62 189 806.5 182.41 812.52C170.32 822.84 172.52 838.86 185.7 838.86C189 838.86 190.1 838.14 192.3 835.38C196.69 830.42 196.69 824.93 192.3 820.7C190.1 818.87 189 816.58 189 815.45C190.1 811.95 196.69 809.23 207.68 808.7C216.47 808.27 217.57 808.53 220.87 810.48C227.46 814.75 228.56 817.46 228.56 832.59C228.56 833.5 228.56 838.04 228.56 846.2C222.63 846.69 219.33 846.96 218.67 847.01C193.4 848.94 175.81 857.06 169.22 869.82C167.02 875.37 165.93 886.79 167.02 892.21C169.22 897.79 175.81 904.15 182.41 906.03C190.1 908.45 202.19 908.18 210.98 905.42C217.57 903.22 221.97 900.16 226.36 895.8ZM195.59 860.29C202.19 855.78 209.88 853.64 220.87 853.28C221.38 853.26 223.94 853.16 228.56 852.98C228.56 861.8 228.56 866.69 228.56 867.67C228.56 883.8 227.46 886.51 220.87 891.85C214.27 897.29 203.29 899.17 195.59 896.02C182.41 889.81 181.31 868.93 195.59 860.29ZM349.43 889.24C351.63 884.24 351.63 882.15 351.63 873.32C351.63 864.26 351.63 862.58 349.43 857.88C343.94 849.61 340.64 847.92 312.07 841.2C289 835.77 283.5 831.78 286.8 822.62C290.09 813.39 297.79 808.36 308.77 808.36C320.86 808.36 330.75 815.94 335.15 828.42C336.25 831.69 337.34 832.73 339.54 833C339.76 833.03 340.86 833.15 342.84 833.36C342.84 824.84 342.84 820.11 342.84 819.16C342.84 805.93 341.74 804.97 340.64 804.97C339.54 804.97 337.34 806.36 336.25 808.07C334.05 810.95 332.95 811.06 330.75 809.55C324.16 805.12 318.66 803.37 312.07 802.93C291.19 801.64 276.91 814.28 276.91 834.11C276.91 849.81 282.4 855.38 302.18 860.3C315.37 863.66 330.75 868.98 335.15 871.58C340.64 874.87 342.84 879.62 341.74 885.21C338.44 894.93 328.55 902.13 317.57 902.13C301.08 902.13 289 892.03 283.5 873.6C282.4 872.41 281.3 871.62 280.2 871.62C279.98 871.62 278.89 871.62 276.91 871.62L276.91 888L276.91 904.39C278.23 904.39 278.96 904.39 279.11 904.39C281.3 904.39 283.5 903.19 284.6 900.43C285.7 898.26 287.9 896.48 287.9 896.48C287.9 896.48 290.09 898.08 292.29 900.03C299.98 905.62 307.68 907.9 318.66 907.44C324.16 907.18 328.55 906.25 331.85 904.75C339.54 901.56 345.04 896.01 349.43 889.24ZM637.33 859.91C638.43 836.37 628.54 816.9 609.86 807.53C601.07 803.41 599.97 803.27 588.98 803.29C577.99 803.3 576.89 803.55 569.2 807.02C529.64 826.5 531.84 889.65 573.6 905.04C581.29 908.16 593.37 908.6 602.17 906.1C620.85 900.36 635.13 881.56 637.33 859.91ZM564.8 879.76C563.71 872.1 563.71 840.19 564.8 831.48C567 820.4 572.5 812.36 580.19 809.56C588.98 806.25 602.17 809.55 606.56 816.24C612.05 823.98 613.15 831.91 613.15 855.22C613.15 878.98 612.05 885.82 607.66 893.29C603.26 899.37 597.77 902.15 588.98 902.06C585.68 902.01 581.29 901.48 580.19 900.86C572.5 898.14 567 890.17 564.8 879.76ZM817.54 892.82C817.54 892.12 816.44 891.04 815.34 890.42C814.24 889.53 813.14 890.04 810.95 892.73C808.75 894.63 806.55 896.82 804.35 897.59C799.96 899.38 793.36 898.2 792.26 895.37C791.17 894.05 791.17 877.82 791.17 852.49C791.17 849.77 791.17 836.19 791.17 811.74L802.15 811.74L812.04 811.74L812.04 808.36L812.04 804.97L802.15 804.97L791.17 804.97C791.17 795.85 791.17 790.79 791.17 789.78C791.17 781.43 790.07 774.36 790.07 774.08C790.07 773.79 785.67 773.88 780.18 774.29C779.59 774.34 776.66 774.59 771.39 775.03L771.39 790L770.29 804.97L763.69 804.97L756 804.97C756 806.83 756 807.87 756 808.07C756 811.05 757.1 811.19 763.69 811.52C764.13 811.54 766.33 811.65 770.29 811.85C770.95 837.53 771.31 851.8 771.39 854.65C771.39 895.88 771.39 897.56 773.58 900.64C779.08 907.96 791.17 909.89 803.25 905.39C809.85 902.96 818.64 895.2 817.54 892.82ZM885.67 882.92C891.16 869.56 898.85 848.09 903.25 835.2C903.76 833.63 906.32 825.82 910.94 811.76C914.9 811.76 917.09 811.75 917.53 811.75C923.03 811.74 923.03 811.69 923.03 808.36C923.03 808.13 923.03 807 923.03 804.97L906.54 804.97L888.96 804.97L888.96 808.36L888.96 811.74L896.65 811.74L904.35 811.74C903.69 813.61 903.32 814.64 903.25 814.85C902.15 816.56 897.75 829.65 892.26 843.94C887.86 858.24 882.37 872.34 881.27 875.29C880.17 878.25 879.07 880.66 879.07 880.66C879.07 880.66 873.58 865.79 866.99 847.62C861.49 829.44 856 813.93 856 813.16C854.9 812.14 857.1 811.74 861.49 811.74C868.08 811.74 868.08 811.72 868.08 808.36C868.08 808.13 868.08 807 868.08 804.97L845.01 804.97L821.93 804.97C822.59 806.83 822.96 807.87 823.03 808.07C823.03 810.97 823.03 811.2 829.63 811.52C832.92 811.71 835.12 812.01 835.12 812.18C835.12 812.54 860.39 886.93 864.79 899.64C865.01 900.19 866.11 902.94 868.08 907.89L872.48 907.55L876.88 907.21C881.56 894.25 884.49 886.16 885.67 882.92ZM154.94 901.56C154.94 898.77 154.94 898.74 145.05 898.74C144.39 898.74 141.09 898.74 135.16 898.74L135.16 855.24L135.16 811.75C141.09 811.75 144.39 811.75 145.05 811.75C154.94 811.75 156.04 811.15 154.94 806.94C154.94 805.26 152.74 804.97 145.05 804.97C144.39 804.97 141.09 804.97 135.16 804.97C135.16 793.54 135.16 787.18 135.16 785.91C135.16 764.81 136.26 757.74 140.65 748.87C143.95 741.69 148.34 738.32 156.04 738.31C160.43 738.31 161.53 739.15 159.33 743.07C158.23 744.81 158.23 746.57 159.33 749.86C161.53 757.54 170.32 759.5 176.91 753.51C181.31 748.42 178.01 738.9 169.22 734.53C158.23 729.01 139.55 733.36 129.66 743.45C120.87 753.84 116.48 765.72 115.38 789.43C115.38 790.47 115.38 795.65 115.38 804.97L105.49 804.97L95.6 804.97L95.6 808.36L95.6 811.75L105.49 811.75L115.38 811.75L115.38 854.96L114.28 898.17C109.01 898.37 106.07 898.48 105.49 898.5C96.7 898.82 95.6 898.91 95.6 901.61C95.6 901.79 95.6 902.72 95.6 904.39L125.27 904.39L154.94 904.39C154.94 902.88 154.94 901.94 154.94 901.56ZM406.57 901.62C406.57 899.04 406.57 898.83 399.98 898.51C399.54 898.49 397.34 898.37 393.39 898.17C393.39 884.95 393.39 877.61 393.39 876.14C393.39 842.75 395.58 831.55 406.57 820.05C412.07 812.88 416.46 810.61 424.15 810.63C430.75 810.65 434.04 812.63 436.24 817.41C438.44 820.93 438.44 825.46 438.44 860.04C438.44 862.62 438.44 875.52 438.44 898.74C434.48 898.74 432.28 898.74 431.84 898.74C426.35 898.74 426.35 898.89 426.35 901.56C426.35 901.75 426.35 902.69 426.35 904.39L449.43 904.39L472.5 904.39C472.5 902.72 472.5 901.8 472.5 901.62C472.5 899.04 471.4 898.83 465.91 898.51C465.47 898.49 463.27 898.38 459.32 898.17C459.32 874.45 459.32 861.27 459.32 858.63C458.22 815.99 458.22 815.62 451.62 809.9C446.13 804.42 441.73 803.27 429.65 803.27C419.76 803.27 416.46 803.65 413.16 805.71C407.67 808.64 402.18 813.79 397.78 821.08C395.58 825.11 394.48 826.01 394.48 824.66C393.39 823.67 393.39 801.89 393.39 776.27C393.39 773.16 393.39 757.63 393.39 729.68C389.43 730.18 387.23 730.46 386.79 730.52C384.59 730.99 376.9 731.4 371.41 731.45C370.68 731.45 367.01 731.48 360.42 731.54L360.42 734.92L360.42 738.31L367.01 738.31L373.61 738.31L373.61 818.25L373.61 898.18C369.65 898.38 367.45 898.49 367.01 898.51C360.42 898.83 360.42 899.04 360.42 901.62C360.42 901.81 360.42 902.73 360.42 904.39L383.5 904.39L406.57 904.39C406.57 902.91 406.57 901.99 406.57 901.62ZM527.44 898.51C527 898.48 524.81 898.37 520.85 898.17L519.75 850.31L519.75 802.46C517.11 802.97 515.65 803.25 515.36 803.31C513.16 803.78 505.47 804.47 496.68 804.84C495.8 804.89 491.4 805.12 483.49 805.53C483.49 807.22 483.49 808.17 483.49 808.35C483.49 811.08 483.49 811.19 491.18 811.51C491.77 811.53 494.7 811.64 499.97 811.84L498.87 855.01L498.87 898.17C494.26 898.37 491.69 898.48 491.18 898.5C482.39 898.82 482.39 898.95 482.39 901.61C482.39 901.8 482.39 902.72 482.39 904.39L508.76 904.39L534.04 904.39L534.04 901.61C534.04 899.75 531.84 898.72 527.44 898.51ZM690.07 901.56C690.07 898.89 690.07 898.74 684.58 898.74C684.14 898.74 681.94 898.74 677.99 898.74C677.99 880.94 677.99 871.06 677.99 869.08C679.08 841.21 679.08 839.03 681.28 832.93C684.58 825.51 693.37 815.15 698.86 812.44C703.26 810.11 713.15 810.07 716.44 812.37C721.94 816.38 721.94 817.82 721.94 859.7C721.94 862.3 721.94 875.31 721.94 898.73C717.98 898.73 715.79 898.73 715.35 898.73C709.85 898.73 709.85 898.89 709.85 901.56C709.85 901.75 709.85 902.69 709.85 904.38L732.93 904.38L756 904.38C756 902.72 756 901.8 756 901.61C756 899.04 756 898.82 749.41 898.51C748.97 898.48 746.77 898.37 742.82 898.17C742.82 874.44 742.82 861.26 742.82 858.63C741.72 815.99 741.72 815.62 735.12 809.9C729.63 804.42 725.24 803.27 713.15 803.27C703.26 803.27 699.96 803.65 696.67 805.71C691.17 808.66 685.68 813.79 681.28 821.22C681.06 821.59 679.96 823.43 677.99 826.74L677.99 815.01L676.89 803.27C674.25 803.5 672.78 803.63 672.49 803.66C670.29 803.87 662.6 804.38 656.01 804.78C643.92 805.52 643.92 805.56 643.92 808.35C643.92 811.03 643.92 811.19 650.51 811.51C651.03 811.54 653.59 811.65 658.21 811.85L657.11 855.01L657.11 898.17C653.15 898.38 650.95 898.49 650.51 898.52C643.92 898.9 642.82 899.88 642.82 902.61C643.92 904.14 647.22 904.38 667 904.38C668.54 904.38 676.23 904.38 690.07 904.38C690.07 902.88 690.07 901.94 690.07 901.56ZM521.95 751.24C521.95 745.48 516.46 739.44 509.86 739.44C504.37 739.44 501.07 741.53 498.87 745.25C495.58 752.02 497.78 761.01 504.37 763.77C508.76 765.81 509.86 765.79 515.36 763.57C519.75 761.39 521.95 756.96 521.95 751.24ZM895.56 296.14C895.56 295.96 851.6 251.75 797.76 197.9C791.24 191.37 758.64 158.73 699.96 99.98L515.36 99.98L330.75 99.98L232.95 197.67L135.16 295.35C137.14 297.24 138.23 298.29 138.45 298.5C142.85 304.01 514.26 676.17 515.36 676.17C515.36 676.17 601.07 590.74 705.46 486.32C809.85 381.9 895.56 296.32 895.56 296.14ZM190.1 296C190.1 295.37 225.26 259.66 268.12 216.63C273.32 211.41 299.32 185.34 346.14 138.4L515.36 138.4L685.68 138.4C732.49 185.34 758.49 211.42 763.69 216.64C806.55 259.67 841.71 295.38 841.71 295.99C841.71 297.47 517.55 621.94 515.36 621.94C515.36 621.94 441.73 548.86 352.73 459.53C262.62 370.21 190.1 296.62 190.1 296ZM575.79 521.11L575.79 515.18L554.91 514.61L534.04 514.05L534.04 423.97L532.94 333.9L554.92 333.59L575.79 333.28L575.79 327.07L575.79 320.86L554.92 320.29L534.04 319.73C534.04 297.36 534.04 284.93 534.04 282.44C534.04 243.82 535.14 233.37 539.53 217.53C546.12 190.97 563.71 176.27 582.39 181.39C586.78 182.69 587.88 185.81 584.58 189.87C582.39 193.33 582.39 203.67 585.68 209.61C591.18 221.14 606.56 224.25 617.55 216.04C624.14 210.83 625.24 203.53 621.94 192.73C614.25 166.6 565.9 160.8 535.14 182.18C515.36 195.5 502.17 219.93 495.58 253.64C494.48 263.42 493.38 273.25 493.38 293.46C493.31 295.25 492.94 304.19 492.28 320.29L472.5 320.29L452.72 320.29L452.72 327.07L452.72 333.85L472.5 333.85L492.28 333.85L492.28 424.23L492.28 514.61L472.5 514.61L452.72 514.61L452.72 520.83L452.72 527.04L514.26 527.04L576.89 527.04L575.79 521.11ZM661.5 334.91C667 325.87 662.6 314.14 653.81 309.56C652.71 308.62 648.32 307.86 645.02 307.86C634.03 307.86 626.34 315.42 626.34 326.5C626.34 338.1 635.13 345.57 646.12 344.84C650.51 344.57 653.81 343.63 656.01 342.18C658.21 340.94 660.4 337.67 661.5 334.91Z"/>
  <path fill="#ffffff" d="M226.36 895.8C228.56 893.64 228.56 893.46 231.86 899.56C232.95 902.19 235.15 905.11 237.35 906.06C245.04 909.86 257.13 907.04 262.62 900.31C265.92 896.09 267.02 888.87 265.92 887.23C264.82 885.76 261.52 887.86 261.52 890.25C261.52 891.02 260.43 892.99 258.23 894.63C256.03 898.58 251.63 898.62 249.44 894.71C249.44 893.04 248.34 876.1 248.34 854.77C248.34 818.11 248.34 817.69 246.14 813.92C240.65 805.18 230.76 802.11 210.98 802.98C197.79 803.62 189 806.5 182.41 812.52C170.32 822.84 172.52 838.86 185.7 838.86C189 838.86 190.1 838.14 192.3 835.38C196.69 830.42 196.69 824.93 192.3 820.7C190.1 818.87 189 816.58 189 815.45C190.1 811.95 196.69 809.23 207.68 808.7C216.47 808.27 217.57 808.53 220.87 810.48C227.46 814.75 228.56 817.46 228.56 832.59C228.56 833.5 228.56 838.04 228.56 846.2C222.63 846.69 219.33 846.96 218.67 847.01C193.4 848.94 175.81 857.06 169.22 869.82C167.02 875.37 165.93 886.79 167.02 892.21C169.22 897.79 175.81 904.15 182.41 906.03C190.1 908.45 202.19 908.18 210.98 905.42C217.57 903.22 221.97 900.16 226.36 895.8ZM195.59 860.29C202.19 855.78 209.88 853.64 220.87 853.28C221.38 853.26 223.94 853.16 228.56 852.98C228.56 861.8 228.56 866.69 228.56 867.67C228.56 883.8 227.46 886.51 220.87 891.85C214.27 897.29 203.29 899.17 195.59 896.02C182.41 889.81 181.31 868.93 195.59 860.29ZM349.43 889.24C351.63 884.24 351.63 882.15 351.63 873.32C351.63 864.26 351.63 862.58 349.43 857.88C343.94 849.61 340.64 847.92 312.07 841.2C289 835.77 283.5 831.78 286.8 822.62C290.09 813.39 297.79 808.36 308.77 808.36C320.86 808.36 330.75 815.94 335.15 828.42C336.25 831.69 337.34 832.73 339.54 833C339.76 833.03 340.86 833.15 342.84 833.36C342.84 824.84 342.84 820.11 342.84 819.16C342.84 805.93 341.74 804.97 340.64 804.97C339.54 804.97 337.34 806.36 336.25 808.07C334.05 810.95 332.95 811.06 330.75 809.55C324.16 805.12 318.66 803.37 312.07 802.93C291.19 801.64 276.91 814.28 276.91 834.11C276.91 849.81 282.4 855.38 302.18 860.3C315.37 863.66 330.75 868.98 335.15 871.58C340.64 874.87 342.84 879.62 341.74 885.21C338.44 894.93 328.55 902.13 317.57 902.13C301.08 902.13 289 892.03 283.5 873.6C282.4 872.41 281.3 871.62 280.2 871.62C279.98 871.62 278.89 871.62 276.91 871.62L276.91 888L276.91 904.39C278.23 904.39 278.96 904.39 279.11 904.39C281.3 904.39 283.5 903.19 284.6 900.43C285.7 898.26 287.9 896.48 287.9 896.48C287.9 896.48 290.09 898.08 292.29 900.03C299.98 905.62 307.68 907.9 318.66 907.44C324.16 907.18 328.55 906.25 331.85 904.75C339.54 901.56 345.04 896.01 349.43 889.24ZM637.33 859.91C638.43 836.37 628.54 816.9 609.86 807.53C601.07 803.41 599.97 803.27 588.98 803.29C577.99 803.3 576.89 803.55 569.2 807.02C529.64 826.5 531.84 889.65 573.6 905.04C581.29 908.16 593.37 908.6 602.17 906.1C620.85 900.36 635.13 881.56 637.33 859.91ZM564.8 879.76C563.71 872.1 563.71 840.19 564.8 831.48C567 820.4 572.5 812.36 580.19 809.56C588.98 806.25 602.17 809.55 606.56 816.24C612.05 823.98 613.15 831.91 613.15 855.22C613.15 878.98 612.05 885.82 607.66 893.29C603.26 899.37 597.77 902.15 588.98 902.06C585.68 902.01 581.29 901.48 580.19 900.86C572.5 898.14 567 890.17 564.8 879.76ZM817.54 892.82C817.54 892.12 816.44 891.04 815.34 890.42C814.24 889.53 813.14 890.04 810.95 892.73C808.75 894.63 806.55 896.82 804.35 897.59C799.96 899.38 793.36 898.2 792.26 895.37C791.17 894.05 791.17 877.82 791.17 852.49C791.17 849.77 791.17 836.19 791.17 811.74L802.15 811.74L812.04 811.74L812.04 808.36L812.04 804.97L802.15 804.97L791.17 804.97C791.17 795.85 791.17 790.79 791.17 789.78C791.17 781.43 790.07 774.36 790.07 774.08C790.07 773.79 785.67 773.88 780.18 774.29C779.59 774.34 776.66 774.59 771.39 775.03L771.39 790L770.29 804.97L763.69 804.97L756 804.97C756 806.83 756 807.87 756 808.07C756 811.05 757.1 811.19 763.69 811.52C764.13 811.54 766.33 811.65 770.29 811.85C770.95 837.53 771.31 851.8 771.39 854.65C771.39 895.88 771.39 897.56 773.58 900.64C779.08 907.96 791.17 909.89 803.25 905.39C809.85 902.96 818.64 895.2 817.54 892.82ZM885.67 882.92C891.16 869.56 898.85 848.09 903.25 835.2C903.76 833.63 906.32 825.82 910.94 811.76C914.9 811.76 917.09 811.75 917.53 811.75C923.03 811.74 923.03 811.69 923.03 808.36C923.03 808.13 923.03 807 923.03 804.97L906.54 804.97L888.96 804.97L888.96 808.36L888.96 811.74L896.65 811.74L904.35 811.74C903.69 813.61 903.32 814.64 903.25 814.85C902.15 816.56 897.75 829.65 892.26 843.94C887.86 858.24 882.37 872.34 881.27 875.29C880.17 878.25 879.07 880.66 879.07 880.66C879.07 880.66 873.58 865.79 866.99 847.62C861.49 829.44 856 813.93 856 813.16C854.9 812.14 857.1 811.74 861.49 811.74C868.08 811.74 868.08 811.72 868.08 808.36C868.08 808.13 868.08 807 868.08 804.97L845.01 804.97L821.93 804.97C822.59 806.83 822.96 807.87 823.03 808.07C823.03 810.97 823.03 811.2 829.63 811.52C832.92 811.71 835.12 812.01 835.12 812.18C835.12 812.54 860.39 886.93 864.79 899.64C865.01 900.19 866.11 902.94 868.08 907.89L872.48 907.55L876.88 907.21C881.56 894.25 884.49 886.16 885.67 882.92ZM154.94 901.56C154.94 898.77 154.94 898.74 145.05 898.74C144.39 898.74 141.09 898.74 135.16 898.74L135.16 855.24L135.16 811.75C141.09 811.75 144.39 811.75 145.05 811.75C154.94 811.75 156.04 811.15 154.94 806.94C154.94 805.26 152.74 804.97 145.05 804.97C144.39 804.97 141.09 804.97 135.16 804.97C135.16 793.54 135.16 787.18 135.16 785.91C135.16 764.81 136.26 757.74 140.65 748.87C143.95 741.69 148.34 738.32 156.04 738.31C160.43 738.31 161.53 739.15 159.33 743.07C158.23 744.81 158.23 746.57 159.33 749.86C161.53 757.54 170.32 759.5 176.91 753.51C181.31 748.42 178.01 738.9 169.22 734.53C158.23 729.01 139.55 733.36 129.66 743.45C120.87 753.84 116.48 765.72 115.38 789.43C115.38 790.47 115.38 795.65 115.38 804.97L105.49 804.97L95.6 804.97L95.6 808.36L95.6 811.75L105.49 811.75L115.38 811.75L115.38 854.96L114.28 898.17C109.01 898.37 106.07 898.48 105.49 898.5C96.7 898.82 95.6 898.91 95.6 901.61C95.6 901.79 95.6 902.72 95.6 904.39L125.27 904.39L154.94 904.39C154.94 902.88 154.94 901.94 154.94 901.56ZM406.57 901.62C406.57 899.04 406.57 898.83 399.98 898.51C399.54 898.49 397.34 898.37 393.39 898.17C393.39 884.95 393.39 877.61 393.39 876.14C393.39 842.75 395.58 831.55 406.57 820.05C412.07 812.88 416.46 810.61 424.15 810.63C430.75 810.65 434.04 812.63 436.24 817.41C438.44 820.93 438.44 825.46 438.44 860.04C438.44 862.62 438.44 875.52 438.44 898.74C434.48 898.74 432.28 898.74 431.84 898.74C426.35 898.74 426.35 898.89 426.35 901.56C426.35 901.75 426.35 902.69 426.35 904.39L449.43 904.39L472.5 904.39C472.5 902.72 472.5 901.8 472.5 901.62C472.5 899.04 471.4 898.83 465.91 898.51C465.47 898.49 463.27 898.38 459.32 898.17C459.32 874.45 459.32 861.27 459.32 858.63C458.22 815.99 458.22 815.62 451.62 809.9C446.13 804.42 441.73 803.27 429.65 803.27C419.76 803.27 416.46 803.65 413.16 805.71C407.67 808.64 402.18 813.79 397.78 821.08C395.58 825.11 394.48 826.01 394.48 824.66C393.39 823.67 393.39 801.89 393.39 776.27C393.39 773.16 393.39 757.63 393.39 729.68C389.43 730.18 387.23 730.46 386.79 730.52C384.59 730.99 376.9 731.4 371.41 731.45C370.68 731.45 367.01 731.48 360.42 731.54L360.42 734.92L360.42 738.31L367.01 738.31L373.61 738.31L373.61 818.25L373.61 898.18C369.65 898.38 367.45 898.49 367.01 898.51C360.42 898.83 360.42 899.04 360.42 901.62C360.42 901.81 360.42 902.73 360.42 904.39L383.5 904.39L406.57 904.39C406.57 902.91 406.57 901.99 406.57 901.62ZM527.44 898.51C527 898.48 524.81 898.37 520.85 898.17L519.75 850.31L519.75 802.46C517.11 802.97 515.65 803.25 515.36 803.31C513.16 803.78 505.47 804.47 496.68 804.84C495.8 804.89 491.4 805.12 483.49 805.53C483.49 807.22 483.49 808.17 483.49 808.35C483.49 811.08 483.49 811.19 491.18 811.51C491.77 811.53 494.7 811.64 499.97 811.84L498.87 855.01L498.87 898.17C494.26 898.37 491.69 898.48 491.18 898.5C482.39 898.82 482.39 898.95 482.39 901.61C482.39 901.8 482.39 902.72 482.39 904.39L508.76 904.39L534.04 904.39L534.04 901.61C534.04 899.75 531.84 898.72 527.44 898.51ZM690.07 901.56C690.07 898.89 690.07 898.74 684.58 898.74C684.14 898.74 681.94 898.74 677.99 898.74C677.99 880.94 677.99 871.06 677.99 869.08C679.08 841.21 679.08 839.03 681.28 832.93C684.58 825.51 693.37 815.15 698.86 812.44C703.26 810.11 713.15 810.07 716.44 812.37C721.94 816.38 721.94 817.82 721.94 859.7C721.94 862.3 721.94 875.31 721.94 898.73C717.98 898.73 715.79 898.73 715.35 898.73C709.85 898.73 709.85 898.89 709.85 901.56C709.85 901.75 709.85 902.69 709.85 904.38L732.93 904.38L756 904.38C756 902.72 756 901.8 756 901.61C756 899.04 756 898.82 749.41 898.51C748.97 898.48 746.77 898.37 742.82 898.17C742.82 874.44 742.82 861.26 742.82 858.63C741.72 815.99 741.72 815.62 735.12 809.9C729.63 804.42 725.24 803.27 713.15 803.27C703.26 803.27 699.96 803.65 696.67 805.71C691.17 808.66 685.68 813.79 681.28 821.22C681.06 821.59 679.96 823.43 677.99 826.74L677.99 815.01L676.89 803.27C674.25 803.5 672.78 803.63 672.49 803.66C670.29 803.87 662.6 804.38 656.01 804.78C643.92 805.52 643.92 805.56 643.92 808.35C643.92 811.03 643.92 811.19 650.51 811.51C651.03 811.54 653.59 811.65 658.21 811.85L657.11 855.01L657.11 898.17C653.15 898.38 650.95 898.49 650.51 898.52C643.92 898.9 642.82 899.88 642.82 902.61C643.92 904.14 647.22 904.38 667 904.38C668.54 904.38 676.23 904.38 690.07 904.38C690.07 902.88 690.07 901.94 690.07 901.56ZM521.95 751.24C521.95 745.48 516.46 739.44 509.86 739.44C504.37 739.44 501.07 741.53 498.87 745.25C495.58 752.02 497.78 761.01 504.37 763.77C508.76 765.81 509.86 765.79 515.36 763.57C519.75 761.39 521.95 756.96 521.95 751.24ZM895.56 296.14C895.56 295.96 851.6 251.75 797.76 197.9C791.24 191.37 758.64 158.73 699.96 99.98L515.36 99.98L330.75 99.98L232.95 197.67L135.16 295.35C137.14 297.24 138.23 298.29 138.45 298.5C142.85 304.01 514.26 676.17 515.36 676.17C515.36 676.17 601.07 590.74 705.46 486.32C809.85 381.9 895.56 296.32 895.56 296.14ZM190.1 296C190.1 295.37 225.26 259.66 268.12 216.63C273.32 211.41 299.32 185.34 346.14 138.4L515.36 138.4L685.68 138.4C732.49 185.34 758.49 211.42 763.69 216.64C806.55 259.67 841.71 295.38 841.71 295.99C841.71 297.47 517.55 621.94 515.36 621.94C515.36 621.94 441.73 548.86 352.73 459.53C262.62 370.21 190.1 296.62 190.1 296ZM575.79 521.11L575.79 515.18L554.91 514.61L534.04 514.05L534.04 423.97L532.94 333.9L554.92 333.59L575.79 333.28L575.79 327.07L575.79 320.86L554.92 320.29L534.04 319.73C534.04 297.36 534.04 284.93 534.04 282.44C534.04 243.82 535.14 233.37 539.53 217.53C546.12 190.97 563.71 176.27 582.39 181.39C586.78 182.69 587.88 185.81 584.58 189.87C582.39 193.33 582.39 203.67 585.68 209.61C591.18 221.14 606.56 224.25 617.55 216.04C624.14 210.83 625.24 203.53 621.94 192.73C614.25 166.6 565.9 160.8 535.14 182.18C515.36 195.5 502.17 219.93 495.58 253.64C494.48 263.42 493.38 273.25 493.38 293.46C493.31 295.25 492.94 304.19 492.28 320.29L472.5 320.29L452.72 320.29L452.72 327.07L452.72 333.85L472.5 333.85L492.28 333.85L492.28 424.23L492.28 514.61L472.5 514.61L452.72 514.61L452.72 520.83L452.72 527.04L514.26 527.04L576.89 527.04L575.79 521.11ZM661.5 334.91C667 325.87 662.6 314.14 653.81 309.56C652.71 308.62 648.32 307.86 645.02 307.86C634.03 307.86 626.34 315.42 626.34 326.5C626.34 338.1 635.13 345.57 646.12 344.84C650.51 344.57 653.81 343.63 656.01 342.18C658.21 340.94 660.4 337.67 661.5 334.91Z"/>
</g>
</svg>
