<svg
	xmlns="http://www.w3.org/2000/svg"
	viewBox="0 0 512 512">
<g fill="#CF3D96">
	<path d="M498.7,221.5c-5.7,7.9-12.3,14.7-19.7,20.2c-7.4,5.6-14.6,10.5-21.7,14.8c8.2,4.8,16.3,10.5,24.2,16.9 c7.9,6.5,15,14.2,21.3,23.1c3.4,4.8,6.5,10.1,9.2,15.8V195C508.5,205.1,504.1,213.9,498.7,221.5z"/>
	<path d="M340.5,314.8h-24.2v-84.6l-18.4,71.2c-0.6,2.4-1.5,4.8-2.7,7.2c-2.8,5.9-7.6,8.8-14.2,8.8 c-8.6,0-14.2-5.4-16.9-16L246,230.2v84.6h-24.3v-97.4c0-6.6,2-12,6.1-16.1c4.1-4.1,9.4-6.2,16.1-6.2c2.3,0,4.5,0.2,6.8,0.7 c8.1,1.7,13.1,6.7,14.9,14.9l14.9,68.2l16.4-68.2c2-8.2,6.9-13.2,14.7-14.9c2.2-0.4,4.4-0.7,6.9-0.7c6.7,0,12,2,16.1,6.2 c4,4.1,6.1,9.5,6.1,16.1L340.5,314.8L340.5,314.8z M211.5,222.1h-46c-0.3,0-0.8,0.2-1.5,0.5c-2.9,0.9-4.4,3.2-4.4,6.9v13.2h51.9 v25.5h-51.9v13.2c0,4.8,2.2,7.5,6.6,7.9h45.3v25.5h-49.1c-18.8,0-28.2-8.2-28.2-24.7v-68c0-1.3,0.2-3.1,0.5-5.2 c2.2-13.5,10.2-20.3,24.2-20.3h52.6V222.1z M126.6,222.1H83.6c-5.1,0-7.9,1.9-8.6,5.7c-0.1,0.3-0.2,0.8-0.2,1.5v13.3h51.7v25.5 H74.8v46.6H49.5v-94c0-12.3,4.5-19.9,13.4-22.8c2.7-0.9,7.1-1.4,13.3-1.4h50.4V222.1z M370.5,183.4c8.4-10.3,12.7-21.3,12.7-32.8 c0-16.4-5.3-28.6-16-36.8c-10.7-8.2-23.1-12.3-37.3-12.3c-14.2,0-26.7,4.2-37.3,12.6c-10.7,8.4-16,20.4-16,35.7H142.2 c0-24.1,4.9-45.7,14.7-65c9.9-19.3,23.2-35.5,40.2-48.7c16.9-13.2,36.8-23.4,59.4-30.7c6.8-2.2,13.8-4,20.9-5.5H0v255.9v0.3V512 h277.4c-7.1-1.5-14.1-3.3-20.9-5.5c-22.7-7.2-42.5-17.5-59.4-30.7c-16.9-13.2-30.3-29.5-40.2-48.7c-9.8-19.3-14.7-40.9-14.7-65 h134.4c0,15.4,5.3,27.3,16,35.7c10.7,8.4,23.1,12.6,37.3,12.6c14.2,0,26.6-4.1,37.3-12.3c10.7-8.2,16-20.5,16-36.8 c0-11.5-4.2-22.5-12.7-32.8c-4.1-5-9.5-8.7-16.3-11.3V194.8C360.9,192.2,366.4,188.4,370.5,183.4z"/>
</g>
</svg>
