<svg
	xmlns="http://www.w3.org/2000/svg"
	viewBox="0 0 1000 543.0678101">
<g>
	<g>
		<polygon points="21.4827862,320.2958374 21.4827862,252.0378876 0,252.0378876 0,224.2325439 21.4827862,224.2325439 21.4827862,159.7879333 116.2712021,159.7879333 116.2712021,187.5793304 51.8163986,187.5793304 51.8163986,224.2325439 103.6392365,224.2325439 103.6392365,252.0378876 51.8163986,252.0378876 51.8163986,320.2958374"/>
		<rect x="130.1707916" y="158.5095825" width="32.8683243" height="161.7862396"/>
		<polygon points="289.428772,320.2958374 176.9386902,320.2958374 176.9386902,158.5095825 208.5396576,158.5095825 208.5396576,292.4896851 262.8762817,292.4896851 262.8762817,271.0042114 289.428772,269.7330933"/>
		<polygon points="436.0552979,320.2958374 409.5028381,320.2958374 409.5028381,215.3889618 369.0510254,250.7705231 328.612915,215.3889618 329.8738403,320.2958374 302.06073,320.2958374 302.06073,158.5095825 369.0510254,217.9236755 436.0552979,158.5095825"/>
	</g>
	<polygon fill="#EC1E24" points="458.6058044,481.346283 1000,543.0678101 939.9526367,0 458.6058044,0"/>
	<g fill="#FFFFFF">
		<polygon points="851.7741699,263.441925 819.7526855,320.0535278 784.4822388,320.0535278 835.9954224,238.8434906 785.881897,159.9685364 821.1496582,159.9685364 851.7741699,215.6484375 882.867981,159.9685364 918.135498,159.9685364 868.4859009,238.8434906 919.5297852,320.0535278 884.2565918,320.0535278"/>
		<path d="M558.2435913,249.7481689c0,0-0.4666138,0-0.9356689,0 v-25.5097198h0.9356689c10.2026978,0,19.4917603-9.2890167,19.4917603-18.5587158 c0-10.6704254-9.750061-18.1014862-19.4917603-18.1014862h-0.9356689V159.269516c0.4690552,0,0.9356689,0,0.9356689,0 c39.4388428,0,49.6471558,31.5604401,49.6471558,45.9438477c0,7.4310455-2.7826538,20.882782-16.706665,29.6968384 c14.8543701,4.1742554,25.5288086,19.019989,25.5288086,37.5865021c0,11.1330261-9.7470703,48.2558289-58.0109863,48.2558289 c-0.458313,0-0.9249268,0-1.3939819,0v-28.3084717h0.9356689c15.7790527,0,25.520752-10.205658,25.520752-20.8774109 C583.7643433,261.3609924,576.3383789,249.7481689,558.2435913,249.7481689z M557.3079224,249.7481689 c-6.4926758,0-26.4508057,0-26.4508057,0v42.6958923h26.4508057v28.3084717c-9.7387695,0-56.1422729,0-56.1422729,0v-71.004364 H479.284668l0.0649414-25.5097198h21.81604l-0.0136719-64.9689331c0,0,45.9475708,0,56.1559448,0v28.3087311h-26.4508057 v36.660202h26.4508057V249.7481689z"/>
		<path d="M712.3878784,291.9900208L712.3878784,291.9900208v31.5465088 c45.9451904-0.4639587,83.0623779-37.5864868,83.0623779-83.5236206c0-45.9339294-37.1171875-83.0661163-83.0623779-83.5271301 v31.5601807l0,0c28.7750854,0,51.9768677,23.1977386,51.9768677,51.9669495 C764.3647461,268.7772827,741.1629639,291.9900208,712.3878784,291.9900208z M712.3878784,291.9900208 c-28.7748413,0-51.973938-23.212738-51.973938-51.9771118c0-28.7692108,23.1990967-51.9669495,51.973938-51.9669495v-31.5601807 c0,0-0.4609985,0-0.9273682,0c-45.9315186,0-83.5206909,37.1212006-83.5206909,83.5271301 c0,45.9371338,37.5891724,83.5236206,83.5206909,83.5236206c0.4663696,0,0.9273682,0,0.9273682,0V291.9900208z"/>
	</g>
</g>
</svg>
