<svg
	xmlns="http://www.w3.org/2000/svg"
	viewBox="0 0 512 269.3">
<g transform="matrix(1.3333 0 0 -1.3333 0 99)">
	<g transform="matrix(.025181 0 0 .025181 .9252 11.684)">
		<g fill="#211D1D">
			<path d="M757.7-2246.7v1008.3H440.3v410.8h317.4v952h1400.3v-410.6h-952.2v-541.5h765.6v-410.8h-765.6v-1008.3 L757.7-2246.7"/>
			<path d="M2363.2-2246.7v2390h485.5v-2390H2363.2"/>
			<path d="M4715.9-2246.7H3054.1v2390h466.8V-1836h802.7v317.4l392.2,18.7L4715.9-2246.7"/>
			<path d="M6882.1-2246.7h-392.3V-697l-597.6-522.6L5294.9-697l18.6-1549.7h-410.9v2390l989.6-877.7l989.8,877.7 V-2246.7"/>
		</g>
		<path fill="#EB1E26" d="M7215.3-4625.9l7998-911.8l-887,8022.4H7215.6v-7110.6"/>
		<g fill="#FFFFFF">
			<path d="M13023.4-1406.9l-473.1-836.3h-521l761,1199.7L12050,121.6h521l452.4-822.6l459.4,822.6h521l-733.5-1165.2 l754.1-1199.7h-521.1L13023.4-1406.9"/>
			<path d="M8673.3-1204.5h-390.7v-630.7h390.7v-418.2h-829.4v1048.9h-323.2l1,376.9h322.3l-0.2,959.7h829.6v-418.2 h-390.7v-541.5h390.7V-1204.5z M8687.1-1204.5h-13.8v376.9h13.8c150.7,0,288,137.2,288,274.2c0,157.6-144.1,267.4-288,267.4h-13.8 v418.2h13.8c582.6,0,733.4-466.2,733.4-678.7c0-109.8-41.1-308.5-246.8-438.7c219.5-61.7,377.1-281,377.1-555.3 c0-164.5-144-712.9-857-712.9h-20.6v418.2h13.8c233.1,0,377,150.8,377,308.4C9064.1-1376,8954.4-1204.5,8687.1-1204.5"/>
			<path d="M10964.3-1828.6c-425.1,0-767.8,342.9-767.8,767.9c0,425,342.7,767.7,767.8,767.7v466.2h-13.7 c-678.5,0-1233.8-548.4-1233.8-1233.9c0-678.6,555.3-1233.9,1233.8-1233.9h13.7v0c678.7,6.8,1227,555.3,1227,1233.9 c0,678.6-548.3,1227.1-1227,1233.9V-293c425.1,0,767.9-342.7,767.9-767.7C11732.2-1485.7,11389.4-1828.6,10964.3-1828.6 L10964.3-1828.6z"/>
		</g>
		<g fill="#211D1D">
			<path d="M1024.2-3085.2c-36,223.2-220.8,357.6-456.1,357.6c-247.2,0-427.3-117.6-427.3-314.5 c0-204,249.6-268.8,477.7-331.2c232.8-64.8,566.4-158.4,566.4-496.8c0-276-240-480.1-602.5-480.1c-362.4,0-583.3,216-619.3,492.1 l132,36c19.2-216.1,192-400.9,492.1-400.9c278.4,0,453.6,148.8,453.6,350.5c0,278.4-316.8,331.2-552.1,400.8 c-192,55.2-489.6,136.8-489.6,424.8c0,261.6,242.4,444.1,573.7,444.1c300,0,535.2-175.2,585.7-446.4L1024.2-3085.2"/>
			<path d="M2581.9-2636.4v-132h-576.1v-1548.2h-139.2v1548.2H1293v132H2581.9"/>
			<path d="M3671.6-3704.5l-309.6,708.1c-36,86.4-74.4,194.4-76.8,194.4h-2.4c-2.4,0-40.8-108-76.8-194.4l-309.6-708.1 L3671.6-3704.5z M3726.8-3826.9h-885.7l-213.6-489.7h-151.2l746.5,1680.2h122.4l746.5-1680.2h-151.2L3726.8-3826.9"/>
			<path d="M4847.8-3546.1c304.8,0,468,160.8,468,391.3c0,247.2-180,386.4-468,386.4h-348v-777.7L4847.8-3546.1z M5354.3-4316.6l-400.9,655.3c-36-4.8-74.4-7.2-112.8-7.2h-340.8v-648.1h-136.8v1680.2h477.7c384,0,616.9-199.2,616.9-518.4 c0-244.9-134.4-412.8-364.8-480.1l417.6-681.7L5354.3-4316.6"/>
			<path d="M6777.3-3085.2c-36,223.2-220.8,357.6-456,357.6c-247.2,0-427.3-117.6-427.3-314.5 c0-204,249.6-268.8,477.6-331.2c232.8-64.8,566.5-158.4,566.5-496.8c0-276-240-480.1-602.5-480.1c-362.4,0-583.3,216-619.3,492.1 l132,36c19.2-216.1,192-400.9,492-400.9c278.5,0,453.6,148.8,453.6,350.5c0,278.4-316.8,331.2-552.1,400.8 c-192,55.2-489.6,136.8-489.6,424.8c0,261.6,242.5,444.1,573.7,444.1c300,0,535.2-175.2,585.7-446.4L6777.3-3085.2"/>
		</g>
	</g>
</g>
</svg>
