<svg
  xmlns="http://www.w3.org/2000/svg"
  viewBox="0 0 999.96 257"
  width="999.96"
  height="257">
<defs>
  <linearGradient id="gradientcsAHW472K" gradientUnits="userSpaceOnUse" x1="742.96" y1="128.54" x2="856.03" y2="128.54">
    <stop style="stop-color: #a8d8f4;stop-opacity: 1" offset="0%"/>
    <stop style="stop-color: #509dd9;stop-opacity: 1" offset="100%"/>
  </linearGradient>
  <linearGradient id="gradientce8HLWnx5" gradientUnits="userSpaceOnUse" x1="931.57" y1="188.86" x2="811.27" y2="68.14">
    <stop style="stop-color: #a8d8f4;stop-opacity: 1" offset="0%"/>
    <stop style="stop-color: #509dd9;stop-opacity: 1" offset="100%"/>
  </linearGradient>
</defs>
<g>
  <g>
    <path style="opacity:1;fill:#509dd9;fill-opacity:1"
      d="M881.82 115.73L881.82 0L856.03 0L856.03 115.73L742.96 115.73L742.96 141.44L856.03 141.44L856.03 257L742.96 257L742.96 0L999.96 0L999.96 115.73L881.82 115.73ZM881.82 257L881.82 141.44L999.96 141.44L999.96 257L881.82 257Z"/>
    <path style="opacity:1;fill:url(#gradientcsAHW472K);fill-opacity:1"
      d="M856.03 143.93L742.96 257L742.96 141.35L856.03 141.35L856.03 143.93ZM742.96 115.65L742.96 0L856.03 0L856.03 115.65L742.96 115.65Z"/>
    <path style="opacity:1;fill:url(#gradientce8HLWnx5);fill-opacity:1"
      d="M950.29 163.32L945.47 172.55L939.48 181.29L932.32 189.44L924.25 196.51L915.51 202.51L906.28 207.33L896.55 210.91L886.64 213.32L881.74 213.82L881.74 141.44L956.45 141.44L956.28 143.77L953.79 153.67L953.79 153.67L950.29 163.32ZM846.29 210.91L836.64 207.33L827.41 202.51L818.67 196.51L810.52 189.44L803.36 181.29L797.46 172.55L792.71 163.32L789.05 153.67L786.72 143.77L786.39 141.44L856.03 141.44L856.03 213.32L856.03 213.32L846.29 210.91ZM915.51 54.49L924.25 60.49L932.32 67.56L939.48 75.79L945.47 84.45L950.29 93.68L953.79 103.42L956.28 113.32L956.45 115.73L881.74 115.73L881.74 43.18L886.64 43.76L896.55 46.18L906.28 49.75L906.28 49.75L915.51 54.49ZM786.72 113.32L789.05 103.42L792.71 93.68L797.46 84.45L803.36 75.79L810.52 67.56L818.67 60.49L827.41 54.49L836.64 49.75L846.29 46.18L856.03 43.85L856.03 115.73L786.39 115.73L786.39 115.73L786.72 113.32Z"/>
  </g>
  <g style="opacity:1;fill:#509dd9;fill-opacity:1">
    <path
      d="M469.15 0L469.15 257C506.94 257 527.94 257 532.14 257C532.14 160.82 532.14 107.41 532.14 96.68C569.58 140.94 590.46 165.48 594.7 170.39C600.94 177.88 611.09 177.88 617.41 170.39C621.57 165.48 642.46 140.94 679.98 96.68C679.98 107.41 679.98 160.82 679.98 257C684.18 257 705.17 257 742.96 257L742.96 0L687.8 0L606.1 96.43L524.23 0L469.15 0Z"/>
    <path
      d="M289.45 0.75L289.45 257L455.84 257L455.84 210.33L352.68 210.33L352.68 0.75L289.45 0.75Z"/>
    <path
      d="M259.33 257C259.33 257 259.33 257 259.33 257C221.81 257 200.84 257 196.6 257C196.6 257 196.6 257 196.6 257C196.6 102.83 196.6 17.14 196.6 0C196.6 0 196.6 0 196.6 0C234.29 0 255.17 0 259.33 0C259.33 0 259.33 0 259.33 0C259.33 154.25 259.33 239.86 259.33 257Z"/>
    <path
      d="M0 0L0 257L64.23 257L64.23 152.17L175.3 152.17L175.3 105.33L64.23 105.33L64.23 46.84L175.3 46.84L175.3 0L64.23 0L0 0Z" id="a198pkc5p"/>
  </g>
</g>
</svg>
