<?xml version="1.0" encoding="UTF-8" standalone="no"?>
<svg
   xmlns:dc="http://purl.org/dc/elements/1.1/"
   xmlns:cc="http://creativecommons.org/ns#"
   xmlns:rdf="http://www.w3.org/1999/02/22-rdf-syntax-ns#"
   xmlns:svg="http://www.w3.org/2000/svg"
   xmlns="http://www.w3.org/2000/svg"
   xmlns:sodipodi="http://sodipodi.sourceforge.net/DTD/sodipodi-0.dtd"
   xmlns:inkscape="http://www.inkscape.org/namespaces/inkscape"
   version="1.1"
   id="Layer_1"
   x="0px"
   y="0px"
   width="132"
   height="99"
   viewBox="0 0 132 98.999999"
   enable-background="new 0 0 1000 499.1983948"
   xml:space="preserve"
   sodipodi:docname="FilmBox_Family.svg"
   inkscape:version="1.0.2 (e86c870879, 2021-01-15, custom)"><metadata
   id="metadata37"><rdf:RDF><cc:Work
       rdf:about=""><dc:format>image/svg+xml</dc:format><dc:type
         rdf:resource="http://purl.org/dc/dcmitype/StillImage" /><dc:title></dc:title></cc:Work></rdf:RDF></metadata><defs
   id="defs35" /><sodipodi:namedview
   pagecolor="#ffffff"
   bordercolor="#666666"
   borderopacity="1"
   objecttolerance="10"
   gridtolerance="10"
   guidetolerance="10"
   inkscape:pageopacity="0"
   inkscape:pageshadow="2"
   inkscape:window-width="1920"
   inkscape:window-height="1001"
   id="namedview33"
   showgrid="false"
   inkscape:zoom="0.81931353"
   inkscape:cx="452.4316"
   inkscape:cy="299.00617"
   inkscape:window-x="-9"
   inkscape:window-y="-9"
   inkscape:window-maximized="1"
   inkscape:current-layer="Layer_1" />
<g
   id="g30"
   transform="matrix(0.124,0,0,0.124,4,18.5497)">
	<polygon
   fill="#ec1c24"
   points="944.80438,0 502.3389,0 502.3389,442.46423 1000,499.19839 "
   id="polygon2" />
	<polygon
   fill-rule="evenodd"
   clip-rule="evenodd"
   points="187.65802,146.87964 187.65802,172.42877 128.40714,172.42877 128.40714,206.11839 176.04547,206.11839 176.04547,231.67818 128.40714,231.67818 128.40714,294.42245 100.52553,294.42245 100.52553,231.67818 80.77771,231.67818 80.77771,206.11839 100.52553,206.11839 100.52553,146.87964 "
   id="polygon4" />
	<rect
   x="200.43396"
   y="145.70412"
   fill-rule="evenodd"
   clip-rule="evenodd"
   width="30.212584"
   height="148.71832"
   id="rect6" />
	<polygon
   fill-rule="evenodd"
   clip-rule="evenodd"
   points="322.41943,249.1136 346.82675,247.946 346.82675,294.42245 243.42494,294.42245 243.42494,145.70659 272.47266,145.70659 272.47266,268.86264 322.41943,268.86264 "
   id="polygon8" />
	<polygon
   fill-rule="evenodd"
   clip-rule="evenodd"
   points="358.43781,294.42245 358.43781,145.70659 420.01718,200.32079 481.60947,145.70659 481.60947,294.42245 457.20267,294.42245 457.20267,197.98857 420.01718,230.51357 382.8446,197.98857 384.00552,294.42245 "
   id="polygon10" />
	<polygon
   fill-rule="evenodd"
   clip-rule="evenodd"
   fill="#ffffff"
   points="863.74957,198.23001 892.33148,147.0468 924.74774,147.0468 879.1098,219.5498 926.03223,294.2023 893.60529,294.2023 863.74957,242.16176 834.3158,294.2023 801.89185,294.2023 849.24365,219.5498 803.17853,147.0468 835.59753,147.0468 "
   id="polygon12" />
	<path
   fill-rule="evenodd"
   clip-rule="evenodd"
   fill="#ffffff"
   d="m 593.92908,229.57428 h -0.86103 v -23.44797 h 0.86103 c 9.37689,0 17.91681,-8.54089 17.91681,-17.06099 0,-9.80952 -8.96436,-16.63926 -17.91681,-16.63926 h -0.86103 v -26.02138 h 0.86103 c 36.25158,0 45.63519,29.00908 45.63519,42.23076 0,6.83246 -2.55658,19.19732 -15.35626,27.29792 13.65277,3.8366 23.46753,17.48569 23.46753,34.55188 0,10.23421 -8.96161,44.35643 -53.32477,44.35643 h -1.28272 v -26.01889 h 0.86103 c 14.50342,0 23.45959,-9.38235 23.45959,-19.19163 0,-9.3826 -6.82825,-20.05687 -23.45959,-20.05687 m -0.86103,0 h -24.3142 v 39.2485 h 24.3142 v 26.01889 h -51.60791 v -65.26739 h -20.11383 l 0.0597,-23.44797 h 20.05413 l -0.0134,-59.72163 h 51.62127 v 26.02138 h -24.3142 v 33.70025 h 24.3142 z"
   id="path14" />
	<path
   fill-rule="evenodd"
   clip-rule="evenodd"
   fill="#ffffff"
   d="m 735.62152,268.40353 v 0 28.99869 c 42.23346,-0.42718 76.35046,-34.54941 76.35046,-76.77768 0,-42.22308 -34.117,-76.35322 -76.35046,-76.77768 v 29.00908 c 26.45099,0 47.77875,21.32253 47.77875,47.7686 0,26.44335 -21.32776,47.77899 -47.77875,47.77899 m 0,0 c -26.45154,0 -47.77655,-21.33564 -47.77655,-47.77899 0,-26.44607 21.32501,-47.7686 47.77655,-47.7686 v -29.00908 h -0.85461 c -42.21759,0 -76.771,34.11951 -76.771,76.77768 0,42.22827 34.55341,76.77768 76.771,76.77768 h 0.85461 z"
   id="path16" />
	<polygon
   points="0,423.46625 0,318.75644 66.565002,318.75644 66.565002,326.98184 8.5267811,326.98184 8.5267811,366.47205 55.04829,366.47205 55.04829,374.4003 8.5267811,374.4003 8.5267811,423.46625 "
   id="polygon18" />
	<path
   d="M 138.06908,392.9498 H 82.872696 L 69.560882,423.46353 H 60.135933 L 106.65744,318.75372 h 7.6296 l 46.51756,104.70981 h -9.42223 z m -3.4399,-7.63107 -19.29662,-44.12269 c -2.24481,-5.389 -4.63819,-12.11798 -4.78776,-12.11798 h -0.14883 c -0.14982,0 -2.54072,6.72898 -4.788,12.11798 l -19.293906,44.12269 z"
   id="path20" />
	<path
   d="m 272.09848,318.75372 v 104.70981 h -8.52628 v -53.1019 c 0,-13.76028 0.74787,-36.79669 0.59827,-36.79669 h -0.15005 c -0.14859,0 -4.63794,8.07684 -8.97351,15.85379 l -27.82341,48.31513 h -4.63794 l -27.82193,-48.31513 c -4.33954,-7.77695 -8.82492,-15.85379 -8.97499,-15.85379 h -0.14859 c -0.14982,0 0.59704,23.03641 0.59704,36.79669 v 53.1019 h -8.52652 V 318.75372 h 8.07807 l 27.67334,47.71833 c 9.42321,16.00482 11.21832,20.64276 11.36837,20.64276 h 0.14859 c 0.14981,0 1.94615,-4.63794 11.36814,-20.64276 l 27.67334,-47.71833 z"
   id="path22" />
	<rect
   x="301.42084"
   y="318.75372"
   width="8.5252953"
   height="104.7098"
   id="rect24" />
	<polygon
   points="405.8295,415.23563 405.8295,423.46353 339.26474,423.46353 339.26474,318.75372 347.78979,318.75372 347.78979,415.23563 "
   id="polygon26" />
	<path
   d="m 482.86719,318.75372 -40.68799,51.90781 v 52.802 h -8.52258 v -52.802 l -40.68799,-51.90781 h 10.02298 l 28.27014,35.90024 c 2.54074,3.2955 6.58188,8.53024 6.73047,8.53024 h 0.15005 c 0.14957,0 4.03693,-5.23474 6.58014,-8.53024 l 28.12427,-35.90024 z"
   id="path28" />
</g>
</svg>
