<?xml version="1.0" encoding="UTF-8" standalone="no"?>
<svg
   xmlns:dc="http://purl.org/dc/elements/1.1/"
   xmlns:cc="http://creativecommons.org/ns#"
   xmlns:rdf="http://www.w3.org/1999/02/22-rdf-syntax-ns#"
   xmlns:svg="http://www.w3.org/2000/svg"
   xmlns="http://www.w3.org/2000/svg"
   xmlns:sodipodi="http://sodipodi.sourceforge.net/DTD/sodipodi-0.dtd"
   xmlns:inkscape="http://www.inkscape.org/namespaces/inkscape"
   version="1.1"
   id="Layer_1"
   x="0px"
   y="0px"
   width="132"
   height="99"
   viewBox="0 0 132 99"
   enable-background="new 0 0 1000 508.8279114"
   xml:space="preserve"
   sodipodi:docname="FilmBox_Extra.svg"
   inkscape:version="1.0.2 (e86c870879, 2021-01-15, custom)"><metadata
   id="metadata55"><rdf:RDF><cc:Work
       rdf:about=""><dc:format>image/svg+xml</dc:format><dc:type
         rdf:resource="http://purl.org/dc/dcmitype/StillImage" /><dc:title></dc:title></cc:Work></rdf:RDF></metadata><defs
   id="defs53" /><sodipodi:namedview
   pagecolor="#ffffff"
   bordercolor="#666666"
   borderopacity="1"
   objecttolerance="10"
   gridtolerance="10"
   guidetolerance="10"
   inkscape:pageopacity="0"
   inkscape:pageshadow="2"
   inkscape:window-width="1920"
   inkscape:window-height="1001"
   id="namedview51"
   showgrid="false"
   inkscape:zoom="1.1367563"
   inkscape:cx="559.46932"
   inkscape:cy="323.20837"
   inkscape:window-x="-9"
   inkscape:window-y="-9"
   inkscape:window-maximized="1"
   inkscape:current-layer="Layer_1" />
<g
   id="g48"
   transform="matrix(0.124,0,0,0.124,4,17.95267)">
	<polygon
   fill="#ec1e24"
   points="1000,508.82791 943.73853,0 492.74014,0 492.74014,450.99783 "
   id="polygon2" />
	<g
   id="g12">
		<polygon
   fill-rule="evenodd"
   clip-rule="evenodd"
   points="160.15408,210.09491 160.15408,236.14699 111.59869,236.14699 111.59869,300.1015 83.177612,300.1015 83.177612,236.14699 63.049194,236.14699 63.049194,210.09491 83.177612,210.09491 83.177612,149.7135 171.98984,149.7135 171.98984,175.75275 111.59869,175.75275 111.59869,210.09491 "
   id="polygon4" />
		<rect
   x="185.0128"
   y="148.51579"
   fill-rule="evenodd"
   clip-rule="evenodd"
   width="30.796227"
   height="151.58572"
   id="rect6" />
		<polygon
   fill-rule="evenodd"
   clip-rule="evenodd"
   points="228.83199,148.51579 258.44052,148.51579 258.44052,274.04868 309.35132,274.04868 309.35132,253.91743 334.22952,252.72664 334.22952,300.1015 228.83199,300.1015 "
   id="polygon8" />
		<polygon
   fill-rule="evenodd"
   clip-rule="evenodd"
   points="471.61151,300.1015 446.73328,300.1015 446.73328,201.80893 408.83185,234.95979 370.94351,201.80893 372.12479,300.1015 346.06528,300.1015 346.06528,148.51579 408.83185,204.18382 471.61151,148.51579 "
   id="polygon10" />
	</g>
	<rect
   x="492.6586"
   fill="none"
   width="445.98953"
   height="451.56876"
   id="rect14"
   y="0" />
	<g
   id="g28">
		<g
   id="g18">
			<polygon
   fill-rule="evenodd"
   clip-rule="evenodd"
   fill="#ffffff"
   points="891.55408,299.87454 861.11975,246.83223 831.11725,299.87454 798.07056,299.87454 846.33588,223.78468 799.38184,149.88277 832.42603,149.88277 861.11975,202.05206 890.25299,149.88277 923.29694,149.88277 876.77765,223.78468 924.60315,299.87454 "
   id="polygon16" />
		</g>
		<g
   id="g22">
			<path
   fill-rule="evenodd"
   clip-rule="evenodd"
   fill="#ffffff"
   d="m 586.09595,234.00162 c 0,0 -0.43701,0 -0.87659,0 v -23.90106 h 0.87659 c 9.55938,0 18.26288,-8.70353 18.26288,-17.38883 0,-9.99766 -9.13538,-16.96027 -18.26288,-16.96027 h -0.87659 v -26.52371 c 0.43958,0 0.87659,0 0.87659,0 36.95227,0 46.51703,29.57056 46.51703,43.04721 0,6.9626 -2.6073,19.56598 -15.65332,27.82453 13.91778,3.91089 23.91925,17.82072 23.91925,35.21672 0,10.43107 -9.13257,45.21333 -54.35364,45.21333 -0.42932,0 -0.86633,0 -1.30591,0 v -26.52396 h 0.87659 c 14.78418,0 23.91162,-9.56192 23.91162,-19.56085 0,-9.56218 -6.95777,-20.44311 -23.91162,-20.44311 z m -0.87659,0 c -6.08343,0 -24.78308,0 -24.78308,0 v 40.00396 h 24.78308 v 26.52396 c -9.12488,0 -52.60272,0 -52.60272,0 V 234.00162 H 512.1153 l 0.061,-23.90106 h 20.44031 l -0.0126,-60.87281 c 0,0 43.05054,0 52.6153,0 v 26.52371 h -24.78308 v 34.3491 h 24.78308 z"
   id="path20" />
		</g>
		<g
   id="g26">
			<path
   fill-rule="evenodd"
   clip-rule="evenodd"
   fill="#ffffff"
   d="m 730.52161,273.58011 v 0 29.55774 c 43.04846,-0.43473 77.82537,-35.21646 77.82537,-78.25752 0,-43.038 -34.77691,-77.82897 -77.82537,-78.26087 v 29.57031 0 c 26.96099,0 48.69976,21.73519 48.69976,48.69056 0,26.95098 -21.73876,48.69978 -48.69976,48.69978 z m 0,0 c -26.96076,0 -48.69696,-21.7488 -48.69696,-48.69978 0,-26.95537 21.7362,-48.69056 48.69696,-48.69056 v -29.57031 c 0,0 -0.43189,0 -0.8689,0 -43.03571,0 -78.25501,34.78098 -78.25501,78.26087 0,43.04106 35.2193,78.25752 78.25501,78.25752 0.43701,0 0.8689,0 0.8689,0 z"
   id="path24" />
		</g>
	</g>
	
	
	<g
   id="g46">
		<path
   d="m 70.286736,423.24463 v 8.38675 H 0 v -106.7291 h 69.372681 v 8.38678 H 8.6896667 v 37.20355 H 57.632324 v 8.07853 H 8.6896667 v 44.67349 z"
   id="path36" />
		<path
   d="m 129.90285,382.69028 c -0.15287,0 -3.81215,5.6387 -6.86003,9.90918 L 93.006256,431.63138 H 82.179954 L 124.4139,375.98029 85.687668,324.90228 h 10.825027 l 26.530125,34.91562 c 1.52394,2.43952 6.70716,9.91226 6.86003,9.91226 h 0.15284 c 0.15287,0 5.18451,-7.47274 6.86132,-9.91226 l 26.37727,-34.91562 h 10.82501 l -38.5749,51.07801 42.23421,55.65109 h -10.82503 l -30.03656,-39.03192 c -3.20201,-4.27048 -6.70845,-9.90918 -6.86132,-9.90918 z"
   id="path38" />
		<path
   d="m 266.20996,324.90228 v 8.38678 h -36.59241 v 98.34232 h -8.84253 v -98.34232 h -36.4393 v -8.38678 z"
   id="path40" />
		<path
   d="m 348.08704,431.63138 -25.46195,-41.62277 c -2.28668,0.30288 -4.72619,0.45703 -7.16546,0.45703 h -21.65134 v 41.16574 h -8.69095 v -106.7291 h 30.34229 c 24.39477,0 39.18325,12.65723 39.18325,32.93595 0,15.55096 -8.53836,26.22311 -23.17526,30.49075 l 26.5314,43.3024 z m -32.17038,-48.9411 c 19.36309,0 29.73083,-10.21515 29.73083,-24.85205 0,-15.70539 -11.43463,-24.54917 -29.73083,-24.54917 h -22.10837 v 49.40122 z"
   id="path42" />
		<path
   d="m 448.26028,400.52664 h -56.2597 l -13.57153,31.10474 h -9.60373 l 47.41592,-106.7291 h 7.77561 l 47.41845,106.7291 h -9.60653 z m -3.50796,-7.77563 -19.6673,-44.97635 c -2.28793,-5.49024 -4.72748,-12.35153 -4.87906,-12.35153 h -0.1513 c -0.15415,0 -2.59366,6.86129 -4.87906,12.35153 l -19.67011,44.97635 z"
   id="path44" />
	</g>
</g>
</svg>
