<svg
	xmlns="http://www.w3.org/2000/svg"
	viewBox="0 0 1000 411.9436951">
<g>
	<path fill="#39144F" d="M1000,237.7631226v174.1805725h-88.664917V249.6400604 c0-33.5319214-23.8095093-39.9955444-35.7420654-39.9955444c-11.8213501,0-35.6308594,6.463623-35.6308594,39.9955444v162.3036346 h-88.664856V249.6400604c0-33.5319214-23.8095703-39.9955444-35.6865234-39.9955444 c-11.9325562,0-35.6864624,6.463623-35.6864624,39.9955444v162.3036346h-88.663208V132.8582611h86.453064v23.8095245 c17.8449097-17.8432465,44.3602295-27.0143738,67.6168213-27.0143738c28.6715698,0,51.9281006,9.1711273,70.8216553,30.8261108 c25.4667358-22.2079468,48.7232666-30.8261108,82.2012939-30.8261108c27.5656128,0,54.0826416,9.1711273,69.7156982,24.8598328 C992.9294434,179.3713684,1000,206.9387054,1000,237.7631226 M431.1676636,411.9436951h88.664917V0h-88.664917V411.9436951z M271.1298218,411.9436951h88.664917V132.8582611h-88.664917V411.9436951z M271.1298218,83.3611526h88.664917V0h-88.664917 V83.3611526z M49.5527382,96.0102234v36.8480377H0v83.361145h49.5527382v195.7242889h88.663208V216.2194061h83.3055267v-83.361145 h-83.3055267V83.3611526h83.3055267V0h-75.9585114C92.641861,0,49.5527382,43.089119,49.5527382,96.0102234"/>
	<polygon fill="#0DABC4" points="221.5450592,83.3375473 138.2378693,83.3375473 138.2378693,132.9459229 221.5450592,132.9459229 221.5450592,216.2514343 271.1517639,216.2514343 271.1517639,132.9459229 359.8166504,132.9459229 359.8166504,83.3375473 271.1517639,83.3375473 271.1517639,0.0320315 221.5450592,0.0320315"/>
</g>
</svg>
