<svg
  xmlns="http://www.w3.org/2000/svg"
  viewBox="0 0 1000 500">
<g>
  <path fill="#333333" d="M834.47 497.61C832.71 495.85 832.08 478.69 832.08 432.81C832.08 398.49 831.78 370.41 831.42 370.41C831.07 370.41 826.54 371.85 821.35 373.62C812.62 376.59 812.15 377.09 815.02 380.26C817.66 383.18 818.11 391.83 818.11 439.45C818.11 480.17 817.47 495.86 815.72 497.61C813.86 499.47 815.95 500 825.09 500C834.24 500 836.33 499.47 834.47 497.61ZM628.61 456.14C637.06 456.13 638.95 455.6 637.09 453.74C635.39 452.04 634.7 439.65 634.7 410.66C634.7 378.95 634.14 370.19 632.19 370.92C630.82 371.43 626.37 373.04 622.3 374.5C616.84 376.45 615.43 377.77 616.91 379.56C618.15 381.06 618.69 396.15 618.33 419.06C618.29 421.53 618.09 433.89 617.74 456.14C623.54 456.14 627.16 456.14 628.61 456.14ZM570.38 456.14C577.6 456.14 579.14 455.6 577.28 453.74C575.57 452.04 574.88 439.77 574.88 411.17C574.88 408.49 574.88 395.09 574.88 370.98C569.44 370.98 566.41 370.98 565.8 370.98C558.13 370.98 556.98 371.48 558.33 374.19C559.21 375.95 560.2 395.11 560.51 416.77C560.55 419.39 560.74 432.51 561.08 456.14C566.04 456.14 569.14 456.14 570.38 456.14ZM537.91 454.33C541.24 453.03 540.9 452.63 535.48 451.55C532 450.85 527.32 448.47 525.1 446.24C521.33 442.48 521.04 439.71 521.04 406.77C521.04 404.41 521.04 392.61 521.04 371.36L511.38 371.24L501.73 371.13C503.33 374.21 504.22 375.92 504.39 376.26C506.31 379.93 507.07 390.59 507.08 413.87C507.09 445.7 507.2 446.45 512 451.24C515.74 454.98 518.89 456.12 525.44 456.01C530.15 455.93 535.76 455.17 537.91 454.33ZM871.97 453.14C897.1 440.15 894.36 381.33 868.26 373.42C867.94 373.33 866.38 372.86 863.55 372.01C866.05 375.42 867.44 377.31 867.72 377.69C877.11 390.52 877.23 438.01 867.9 450.65C865.58 453.79 864.58 455.47 865.16 455.83C865.75 456.19 867.93 455.23 871.97 453.14ZM761.59 450.02C775.14 443.46 779.23 434.92 779.23 413.27C779.23 392.2 775.52 384.06 762.61 376.81C751.21 370.4 749.54 371.36 756.15 380.49C762.06 388.64 766.27 403.02 766.27 415.01C766.27 425.03 760.77 441.32 755.09 448.06C752.08 451.65 750.84 453.53 751.79 453.81C752.73 454.09 755.86 452.79 761.59 450.02ZM413.28 448.02C408.51 441.31 403.42 426.3 403.42 418.93C403.42 418.62 403.42 417.07 403.42 414.28L436.59 414.28L469.78 414.28C469.05 408.21 468.65 404.84 468.57 404.17C467.02 391.06 460.83 381.26 450.88 376.19C441.28 371.3 439.58 372.29 444.73 379.77C449.15 386.19 452.46 394.5 454.3 403.81C454.38 404.24 454.81 406.4 455.57 410.29L429.25 410.29L402.91 410.29C403.73 405.2 404.18 402.37 404.27 401.81C405.01 397.15 408.31 388.55 411.61 382.7C417.51 372.23 417.53 372.08 413.01 373.49C400.45 377.39 389.61 391.84 389.5 404.8C389.5 405.17 389.49 407 389.47 410.29C160.58 410.29 33.41 410.29 7.98 410.29C4.08 410.29 3.71 410.3 0.01 410.3C0.01 410.69 0.01 413.81 0.01 414.19C21.42 414.22 37.65 414.28 68.48 414.28C89.88 414.28 196.88 414.28 389.47 414.28C389.47 418.2 389.47 420.38 389.47 420.82C389.47 431.21 397.3 444.51 406.41 449.61C411.76 452.6 414.78 454.03 415.81 453.79C416.83 453.55 415.87 451.65 413.28 448.02ZM941.19 445.02C934.9 436.1 934.74 435.39 934.74 414.44C934.74 393.77 934.97 392.63 941.14 382.7C944.66 377.04 947.1 372.4 946.56 372.4C946.02 372.4 942.65 373.62 939.07 375.12C911.04 386.83 910.74 439.19 938.63 451.33C942.11 452.85 944.31 453.73 945.34 453.71C947.06 453.68 945.53 451.17 941.19 445.02ZM723.65 446.66C711.78 428.2 711.21 402.91 722.21 383.42C728.44 372.39 728.49 372.1 724.02 373.49C708.7 378.25 700.14 392.14 700.01 412.44C699.9 430.21 706.01 443.25 717.43 449.63C722.89 452.68 725.84 454.1 726.72 453.68C727.61 453.26 726.43 450.99 723.65 446.66ZM999.99 414.28C999.14 408.6 998.67 405.45 998.58 404.82C996.38 390.16 989.99 380.7 978.23 374.64C970.31 370.56 969.66 372.29 975.58 381.63C978.8 386.7 981.98 395.02 982.66 400.08C983.34 405.15 984.25 410.42 984.68 411.79C985.12 413.18 988.67 414.28 992.73 414.28C993.7 414.28 996.12 414.28 999.99 414.28ZM678.16 383.97C681.75 380.38 681.04 374.8 676.69 372.48C671.77 369.85 659.23 369.79 657.62 372.4C656.94 373.49 658.24 374.4 660.5 374.4C663.24 374.4 664.6 375.69 664.6 378.29C664.6 380.43 666.16 383.08 668.08 384.2C670.4 385.55 672.2 386.22 673.78 386.18C675.35 386.15 676.71 385.41 678.16 383.97ZM873.94 326.55C873.92 242.52 873.91 195.83 873.91 186.49C873.87 38.11 873.41 29.82 864.48 17.78C862.35 14.9 856.81 9.85 852.16 6.57C844.78 1.35 841.99 0.58 830.17 0.58C818.63 0.57 815.51 1.38 809 6.01C802.29 10.78 800.98 11.08 798.21 8.57C784.07 -4.22 759.34 -2.48 743.86 12.39C728.54 27.11 727.77 37.07 729.49 196.46C729.58 205.13 730.05 248.49 730.89 326.55L745.55 326.55L760.22 326.55C760.54 239.86 760.72 191.7 760.75 182.07C761.24 50.53 761.58 37.3 764.6 34.28C766.42 32.46 770.32 30.98 773.25 30.98C776.19 30.98 780.08 32.46 781.9 34.28C784.91 37.3 785.27 50.53 785.75 182.07C785.79 191.7 785.97 239.86 786.29 326.55L802.19 326.55L818.11 326.55C818.11 240.93 818.11 193.37 818.11 183.86C818.11 86.71 818.78 39.92 820.23 37.21C825.61 27.15 838.78 29.6 842.02 41.27C843.25 45.71 844.02 101.16 844.02 187.49C844.02 196.76 844.02 243.11 844.02 326.55L858.98 326.55L873.94 326.55ZM632.7 326.55L632.7 310.6L632.7 294.65C627.01 294.64 623.86 294.63 623.22 294.63C609.91 294.62 599.28 291.24 596.34 286.09C594.36 282.63 593.98 252.01 594.56 142.63C594.61 133.36 594.86 87.01 595.29 3.57L579 3.57L562.69 3.57C563.13 89.4 563.38 137.08 563.43 146.62C563.98 256.27 564.73 291.48 566.7 297.46C570.23 308.22 576.42 316.08 585.84 321.73C592.8 325.91 596.31 326.52 613.26 326.53C615.85 326.53 622.33 326.54 632.7 326.55ZM465.22 326.55L465.22 165.06L465.22 3.57L449.28 3.57L433.33 3.57L433.33 165.06L433.33 326.55L449.28 326.55L465.22 326.55ZM281.81 326.55L281.81 250.78L281.81 175.02L294.76 175.02L307.72 175.02L307.72 160.08L307.72 145.12L294.76 145.12L281.81 145.12C281.82 117.91 281.82 102.79 281.82 99.76C281.83 53.49 283.36 40.76 289.49 36.09C291.67 34.43 300.62 33.58 316.2 33.53C317.76 33.53 325.57 33.51 339.62 33.47L339.62 18.3L339.62 3.12C322.58 3.56 313.11 3.81 311.22 3.86C285.82 4.53 281.75 5.15 272.84 9.58C261.13 15.4 257.09 22.21 254.01 41.44C252.71 49.52 251.92 105.7 251.91 190.48C251.91 199.55 251.9 244.91 251.89 326.55L266.85 326.55L281.81 326.55ZM92.4 234.83L92.4 204.94L92.4 175.02L122.3 175.02L152.22 175.02L152.22 160.08L152.22 145.12L122.3 145.12L92.4 145.12L92.4 115.21L92.4 85.31L77.45 85.31L62.49 85.31L62.49 115.21L62.49 145.12L32.59 145.12L2.69 145.12L2.69 160.08L2.69 175.02L32.59 175.02L62.49 175.02L62.49 204.94L62.49 234.83L77.45 234.83L92.4 234.83Z"/>
</g>
</svg>
