<svg
	version="1.1"
	xmlns="http://www.w3.org/2000/svg"
	viewBox="0 0 91 91"
	width="91"
	height="91">
<defs>
	<linearGradient id="gradientmqDIdxIcG" gradientUnits="userSpaceOnUse" x1="45.5" y1="0" x2="45.5" y2="91">
		<stop style="stop-color: #029adb;stop-opacity: 1" offset="0%"/>
		<stop style="stop-color: #0d71a2;stop-opacity: 1" offset="100%"/>
	</linearGradient>
</defs>
<g>
	<path style="opacity:1;fill:url(#gradientmqDIdxIcG)"
		d="M91 0C91 54.6 91 84.93 91 91C91 91 91 91 91 91C36.4 91 6.07 91 0 91C0 91 0 91 0 91C0 36.4 0 6.07 0 0C0 0 0 0 0 0C54.6 0 84.93 0 91 0C91 0 91 0 91 0Z" id="aAqk5vdc1"/>
	<path style="opacity:1;fill:#ffffff;fill-opacity:1"
		d="M31.95 82.76C31.32 83.38 30.85 83.47 30.03 83.12C29.37 82.84 29.03 81.89 29.2 80.8C29.33 80.04 29.61 79.58 30.1 79.34C30.71 79.04 31.19 79.15 31.78 79.72C32.31 80.23 32.58 80.3 32.58 79.94C32.58 79.59 31.84 78.85 31.33 78.68C30.15 78.27 28.82 78.87 28.24 80.06C28.02 80.51 27.98 80.69 27.99 81.35C27.99 82.85 28.72 83.78 30.05 83.97C30.57 84.05 31.29 83.96 31.67 83.76C32.02 83.59 32.67 82.84 32.67 82.63C32.67 82.26 32.4 82.31 31.95 82.76ZM34.49 81.72L35.44 81.72L36.4 81.72L36.4 82.86L36.4 83.99C36.69 83.99 36.86 83.99 36.89 83.99C37.26 83.99 37.4 83.96 37.44 83.84C37.51 83.66 37.5 79.12 37.43 78.93C37.4 78.85 37.23 78.81 36.89 78.81C36.86 78.81 36.69 78.81 36.4 78.81L36.4 79.9L36.4 80.99L35.44 80.99L34.49 80.99C34.49 80.37 34.49 80.03 34.49 79.96C34.49 79.4 34.45 78.89 34.4 78.84C34.35 78.79 34.11 78.77 33.88 78.8C33.85 78.81 33.7 78.82 33.44 78.85C33.44 79.02 33.44 79.87 33.44 81.4C33.44 82.93 33.44 83.78 33.44 83.95C33.69 83.98 33.83 83.99 33.85 84C34.08 84.02 34.31 84.03 34.38 84.01C34.46 83.98 34.49 83.67 34.49 82.85C34.49 82.7 34.49 82.32 34.49 81.72ZM41.68 80.31C41.32 79.51 40.97 78.8 40.91 78.73C40.7 78.51 40.51 78.73 40.1 79.7C39.87 80.23 39.49 81.1 39.26 81.63C38.64 83.03 38.31 83.83 38.31 83.92C38.31 83.97 38.48 83.99 38.68 83.98C38.71 83.97 38.83 83.96 39.05 83.95C39.07 83.9 39.18 83.65 39.38 83.2L39.7 82.45L40.53 82.45C41.03 82.45 41.3 82.45 41.36 82.45C41.55 82.91 41.65 83.17 41.67 83.22C41.84 83.64 42.01 84 42.06 84.01C42.1 84.03 42.38 84.02 42.69 84.01C43.23 83.98 43.24 83.97 43.18 83.74C43.15 83.61 42.94 83.11 42.73 82.63C42.51 82.16 42.04 81.11 41.68 80.31ZM40.55 80.52C40.62 80.68 40.66 80.76 40.67 80.78C40.74 80.92 40.84 81.19 40.91 81.38C40.92 81.4 40.96 81.51 41.03 81.72C40.98 81.72 40.59 81.72 40.54 81.72C40.26 81.72 40.04 81.7 40.04 81.68C40.04 81.67 40.16 81.4 40.3 81.09C40.31 81.05 40.4 80.86 40.55 80.52ZM48.14 81.49C48.14 79.93 48.14 79.06 48.14 78.89C48.02 78.84 47.95 78.82 47.93 78.81C47.82 78.77 47.66 78.77 47.57 78.82C47.43 78.89 47.41 79.09 47.39 80.45C47.39 80.55 47.38 81.07 47.37 82C47.02 81.57 46.84 81.34 46.8 81.29C46.49 80.9 46.03 80.33 45.78 80.03C45.53 79.73 45.21 79.34 45.07 79.15C44.86 78.87 44.76 78.81 44.49 78.81C44.46 78.81 44.18 78.81 44.15 78.81C44.12 79.17 44.11 79.38 44.1 79.42C44.07 79.76 44.06 80.55 44.08 81.17C44.1 81.8 44.12 82.69 44.12 83.15C44.12 83.21 44.13 83.49 44.14 83.99C44.16 83.99 44.26 83.99 44.45 83.99L44.77 83.99L44.79 82.29C44.81 81.26 44.82 80.69 44.82 80.58C45.22 81.07 45.44 81.34 45.48 81.4C45.85 81.85 46.49 82.64 46.9 83.15C47.51 83.91 47.68 84.08 47.89 84.08C47.91 84.08 47.99 84.08 48.14 84.08L48.14 81.49ZM53 78.78C52.99 78.79 52.92 78.8 52.78 78.83C52.78 78.94 52.77 79.47 52.76 80.43C52.74 81.39 52.73 81.92 52.73 82.03C52.23 81.41 51.95 81.06 51.89 80.99C50.07 78.74 50.13 78.8 49.78 78.83C49.76 78.83 49.65 78.84 49.46 78.85C49.46 79.02 49.46 79.87 49.46 81.4L49.46 83.95L49.78 83.95L50.1 83.95L50.14 82.29C50.17 81.3 50.19 80.75 50.19 80.64C50.6 81.14 50.82 81.42 50.87 81.47C51.24 81.93 51.87 82.7 52.27 83.19C52.81 83.87 53.04 84.08 53.2 84.08C53.32 84.08 53.42 84.03 53.42 83.97C53.47 82.77 53.39 78.84 53.32 78.8C53.27 78.77 53.12 78.76 53 78.78ZM58.15 83.73C58.15 83.57 58.09 83.44 58.01 83.41C57.93 83.38 57.39 83.36 56.82 83.36C56.75 83.36 56.4 83.36 55.78 83.36L55.78 82.49L55.78 81.63L56.76 81.61L57.74 81.58L57.74 81.31L57.74 81.04L56.78 80.99L55.83 80.94L55.8 80.19L55.78 79.44C56.4 79.44 56.75 79.44 56.82 79.44C57.39 79.44 57.93 79.42 58.01 79.39C58.09 79.36 58.15 79.23 58.15 79.07C58.15 78.84 58.11 78.81 57.9 78.8C56.77 78.78 54.85 78.81 54.78 78.85C54.73 78.89 54.69 79.95 54.69 81.45C54.69 81.62 54.69 82.47 54.69 83.99L56.42 83.99L58.15 83.99C58.15 83.85 58.15 83.76 58.15 83.73ZM62.73 83.44C62.68 83.4 62.14 83.35 61.51 83.34C61.44 83.33 61.06 83.33 60.38 83.31C60.35 81.97 60.33 81.23 60.33 81.08C60.3 79.85 60.27 78.84 60.26 78.83C60.25 78.82 60.02 78.81 59.74 78.81C59.71 78.81 59.54 78.81 59.24 78.81L59.24 81.4L59.24 83.99L60.96 83.99C61.99 83.99 62.57 83.99 62.68 83.99C62.71 83.86 62.73 83.78 62.74 83.75C62.77 83.62 62.77 83.48 62.73 83.44ZM18.68 73.54C18.29 73.33 17.85 73.06 17.72 72.94C17.19 72.49 17.56 71.91 18.31 72.01C18.75 72.07 18.96 72.28 19.12 72.81C19.21 73.11 19.27 73.16 19.49 73.16C19.72 73.16 19.75 73.13 19.75 72.84C19.75 72.1 19.24 71.49 18.51 71.35C17.23 71.11 16.22 72.05 16.55 73.17C16.69 73.63 17.04 73.96 17.9 74.47C18.77 74.98 18.98 75.15 19.06 75.41C19.16 75.74 18.76 76.08 18.27 76.08C17.71 76.08 17.32 75.81 17.19 75.33C17.14 75.11 17.07 74.89 17.05 74.82C17 74.64 16.56 74.68 16.55 74.87C16.47 75.74 16.99 76.52 17.78 76.72C18.16 76.82 18.97 76.74 19.29 76.58C19.65 76.39 20 75.94 20.07 75.57C20.23 74.75 19.81 74.15 18.68 73.54ZM44.04 76.45C44.85 76.96 45.57 76.85 46.03 76.17C46.41 75.59 46.09 75.04 45.67 75.57C45.44 75.86 45.07 75.88 44.73 75.61C44.72 75.6 44.64 75.53 44.49 75.42C44.6 75.3 44.66 75.24 44.67 75.22C44.95 74.93 45.19 73.96 45.08 73.55C45.01 73.27 44.96 73.21 44.77 73.21C44.56 73.21 44.54 73.25 44.49 73.72C44.44 74.17 44.18 74.8 44.04 74.8C43.99 74.8 43.41 73.87 43.41 73.78C43.41 73.75 43.55 73.64 43.72 73.53C44.31 73.17 44.57 72.43 44.31 71.86C44.06 71.31 43.05 71.13 42.45 71.54C41.91 71.9 41.73 72.57 41.95 73.34C42.03 73.61 42.02 73.67 41.88 73.74C41.79 73.79 41.51 74.04 41.26 74.29C40.52 75.02 40.43 75.81 41.02 76.37C41.51 76.83 42.12 76.91 42.89 76.62C43.17 76.52 43.44 76.38 43.5 76.31C43.58 76.2 43.67 76.23 44.04 76.45ZM42.34 74.25C42.58 74.64 42.71 74.86 42.74 74.9C42.95 75.26 43.13 75.58 43.13 75.62C43.13 75.84 42.5 75.99 42.16 75.85C41.67 75.64 41.62 75.07 42.05 74.58C42.07 74.55 42.17 74.45 42.34 74.25ZM43.4 72.86C43.1 73.18 42.97 73.13 42.9 72.66C42.83 72.17 42.96 71.96 43.31 72C43.64 72.04 43.69 72.54 43.4 72.86ZM58.2 73.63C58.22 72.65 58.21 71.75 58.18 71.64C58.14 71.48 58.06 71.44 57.82 71.44C57.56 71.44 57.51 71.47 57.51 71.64C57.51 73.04 57.4 75.29 57.32 75.47C57.27 75.59 57.06 75.78 56.86 75.89C56.41 76.14 55.69 76.11 55.41 75.83C55.15 75.58 55.06 74.8 55.06 73C55.06 72.9 55.06 72.38 55.06 71.44C54.76 71.44 54.59 71.44 54.56 71.44C54.2 71.44 54.06 71.47 54.02 71.58C53.93 71.82 53.96 74.74 54.06 75.26C54.22 76.12 54.62 76.52 55.56 76.75C55.91 76.84 56.87 76.72 57.21 76.54C57.61 76.34 57.79 76.16 58.01 75.72C58.14 75.46 58.18 75.09 58.2 73.63ZM11.01 74.26C11.55 74.26 11.85 74.26 11.91 74.26C12.88 74.26 13.08 74.17 12.97 73.81C12.91 73.63 12.84 73.62 11.96 73.62C11.9 73.62 11.58 73.62 11.01 73.62L11.01 72.85L11.01 72.08L12.17 72.05L13.33 72.03L13.36 71.73L13.39 71.43L11.68 71.46C10.65 71.47 10.07 71.48 9.96 71.48C9.95 73.01 9.94 73.85 9.94 74.02C9.91 76.78 9.91 76.74 10.42 76.67C10.57 76.65 10.76 76.63 10.85 76.63C10.99 76.62 11.01 76.5 11.01 75.44C11.01 75.28 11.01 74.89 11.01 74.26ZM15.52 71.48C15.48 71.48 15.31 71.47 14.99 71.45L14.47 71.43C14.47 72.98 14.47 73.85 14.47 74.02C14.47 76.41 14.48 76.61 14.63 76.65C14.96 76.74 15.36 76.71 15.46 76.59C15.53 76.5 15.56 75.73 15.54 73.97C15.54 73.81 15.53 72.98 15.52 71.48ZM22.02 74.35L22.97 74.35C23.54 74.35 23.86 74.35 23.92 74.35C23.92 75.01 23.93 75.38 23.93 75.45C23.93 76.06 23.96 76.59 23.99 76.63C24.05 76.73 24.67 76.74 24.82 76.64C24.91 76.58 24.96 74.51 24.94 71.73C24.94 71.71 24.94 71.61 24.93 71.43C24.88 71.43 24.49 71.43 24.44 71.43C23.95 71.43 23.94 71.44 23.89 71.73C23.86 71.89 23.84 72.4 23.86 72.85C23.86 72.9 23.87 73.17 23.89 73.66C23.42 73.67 23.17 73.67 23.11 73.67C21.94 73.67 22.03 73.76 22 72.54C22 72.47 21.99 72.12 21.98 71.48C21.95 71.48 21.78 71.48 21.48 71.48C21.18 71.48 21.01 71.48 20.98 71.48C20.96 73.01 20.95 73.85 20.95 74.02C20.93 76 20.95 76.58 21.04 76.64C21.22 76.75 21.79 76.73 21.91 76.6C21.99 76.53 22.02 76.13 22.02 75.42C22.02 75.28 22.02 74.92 22.02 74.35ZM27.35 71.48C27.32 71.48 27.15 71.48 26.85 71.48C26.54 71.48 26.37 71.48 26.34 71.48C26.33 72.98 26.32 73.81 26.32 73.97C26.3 75.72 26.33 76.5 26.4 76.59C26.5 76.71 27.11 76.74 27.3 76.62C27.36 76.58 27.39 75.74 27.37 74.02C27.37 73.85 27.36 73.01 27.35 71.48ZM29.53 73.32C30.16 74.08 30.51 74.5 30.58 74.58C31.16 75.28 31.79 76.04 31.98 76.28C32.34 76.73 32.69 76.85 32.8 76.57C32.87 76.38 32.87 71.91 32.79 71.64C32.75 71.48 32.67 71.43 32.43 71.43C32.41 71.43 32.31 71.43 32.12 71.43L32.12 73.08C32.12 74.07 32.12 74.62 32.12 74.73C31.95 74.51 31.85 74.39 31.83 74.37C31.66 74.17 31.06 73.43 30.48 72.72C29.48 71.49 29.42 71.44 29.1 71.44C29.07 71.44 28.96 71.44 28.76 71.43C28.76 71.69 28.76 73.76 28.76 74.02C28.76 76.76 28.74 76.62 29.13 76.7C29.15 76.71 29.24 76.66 29.33 76.6C29.46 76.5 29.48 76.26 29.51 74.9C29.51 74.8 29.52 74.27 29.53 73.32ZM38.27 75.84C38.28 75.25 38.29 74.92 38.29 74.86C38.31 74.21 38.28 73.83 38.21 73.75C38.14 73.66 37.89 73.62 37.35 73.62C36.6 73.62 36.58 73.62 36.52 73.86C36.45 74.16 36.58 74.38 36.84 74.42C37.07 74.46 37.22 74.69 37.17 74.94C37.16 75.04 37.14 75.25 37.14 75.41C37.13 75.66 37.08 75.71 36.74 75.85C36.01 76.12 35.24 75.8 34.92 75.09C34.65 74.51 34.65 73.38 34.92 72.79C35.41 71.68 36.69 71.53 37.47 72.49C37.65 72.7 37.81 72.81 37.91 72.78C38.49 72.68 37.66 71.55 36.83 71.3C36.21 71.12 35.86 71.13 35.28 71.34C34.62 71.59 34.1 72.06 33.79 72.69C33.57 73.15 33.53 73.31 33.54 74.03C33.54 74.93 33.68 75.32 34.22 75.93C34.85 76.64 35.99 76.86 37.14 76.47C37.36 76.39 37.71 76.22 37.91 76.08C37.93 76.07 38.05 75.99 38.27 75.84ZM49.87 74.35L50.78 74.35L51.69 74.35C51.69 74.95 51.69 75.28 51.69 75.35C51.69 75.91 51.73 76.44 51.78 76.54C51.88 76.72 52.18 76.76 52.58 76.66C52.59 76.65 52.66 76.63 52.78 76.6C52.78 76.43 52.78 75.57 52.78 74.02L52.78 71.43C52.49 71.43 52.32 71.43 52.29 71.43C51.93 71.43 51.78 71.47 51.74 71.58C51.71 71.66 51.69 72.14 51.69 72.66C51.69 72.75 51.69 73.5 51.69 73.59C51.29 73.62 51.07 73.64 51.03 73.64C50.66 73.67 50.25 73.67 50.12 73.65C50.1 73.64 50.02 73.63 49.87 73.6C49.87 73.51 49.87 72.75 49.87 72.66C49.87 72.14 49.84 71.66 49.81 71.58C49.77 71.47 49.63 71.43 49.27 71.43C49.24 71.43 49.07 71.43 48.78 71.43C48.78 72.98 48.78 73.85 48.78 74.02C48.78 76.41 48.79 76.61 48.94 76.65C49.13 76.71 49.63 76.66 49.77 76.58C49.83 76.54 49.87 76.13 49.87 75.43C49.87 75.29 49.87 74.93 49.87 74.35ZM60.2 73.25C60.63 73.78 60.87 74.08 60.92 74.14C61.32 74.63 61.95 75.41 62.32 75.88C62.9 76.59 63.04 76.72 63.24 76.69C63.25 76.69 63.33 76.68 63.47 76.67C63.47 76.5 63.47 75.63 63.47 74.07L63.47 71.48L63.15 71.48L62.84 71.48L62.79 73.06C62.76 74.01 62.74 74.54 62.74 74.65C62.36 74.19 62.15 73.93 62.11 73.88C61.76 73.46 61.16 72.73 60.79 72.27C60.14 71.47 60.09 71.43 59.79 71.45C59.77 71.46 59.66 71.46 59.47 71.48C59.45 73.01 59.45 73.85 59.44 74.02C59.42 76.65 59.43 76.71 59.79 76.71C59.86 76.71 59.97 76.68 60.04 76.64C60.12 76.59 60.15 76.1 60.17 74.91C60.17 74.8 60.18 74.24 60.2 73.25ZM66.89 72.06C67.33 72.07 67.57 72.08 67.62 72.08C68.41 72.1 68.56 72.03 68.51 71.7C68.51 71.68 68.5 71.61 68.48 71.48C68.34 71.48 67.63 71.47 66.36 71.46C65.09 71.44 64.39 71.43 64.25 71.43C64.21 71.58 64.19 71.66 64.19 71.67C64.09 72.06 64.34 72.18 65.13 72.15C65.18 72.14 65.4 72.13 65.79 72.12C65.79 72.34 65.79 74.14 65.79 74.36C65.79 76.07 65.82 76.62 65.91 76.65C66.1 76.73 66.65 76.69 66.77 76.6C66.86 76.53 66.89 75.96 66.89 74.29C66.89 73.84 66.89 72.28 66.89 72.06ZM70.34 71.43L69.82 71.45C69.51 71.47 69.33 71.48 69.3 71.48C69.28 72.98 69.27 73.81 69.27 73.97C69.26 75.73 69.28 76.5 69.35 76.59C69.46 76.72 69.94 76.76 70.2 76.66C70.33 76.61 70.34 76.29 70.34 74.01C70.34 73.67 70.34 72.81 70.34 71.43ZM72.44 73.24C73.29 74.28 73.76 74.86 73.86 74.98C74.98 76.35 75.32 76.71 75.49 76.71C75.5 76.71 75.58 76.71 75.71 76.71L75.71 74.07L75.71 71.43C75.52 71.43 75.42 71.43 75.4 71.43C75 71.43 74.99 71.5 75.02 73.17C75.04 73.92 75.02 74.53 74.98 74.53C74.91 74.53 73.79 73.2 72.75 71.9C72.43 71.49 72.36 71.44 72.07 71.46C72.05 71.46 71.94 71.47 71.75 71.48C71.74 73.02 71.73 73.87 71.73 74.04C71.71 76.43 71.72 76.61 71.87 76.65C71.95 76.67 72.04 76.7 72.06 76.7C72.07 76.71 72.16 76.67 72.26 76.62C72.42 76.53 72.44 76.41 72.44 74.88C72.44 74.55 72.44 73.4 72.44 73.24ZM81.21 73.76C81.16 73.65 81 73.62 80.34 73.62C79.9 73.62 79.53 73.65 79.52 73.69C79.51 73.72 79.5 73.89 79.48 74.05C79.46 74.31 79.49 74.35 79.75 74.42C80.03 74.49 80.03 74.51 80.06 75.09C80.06 75.13 80.07 75.33 80.09 75.69C79.86 75.78 79.74 75.83 79.72 75.84C79.21 76.04 78.69 75.95 78.28 75.59C77.83 75.19 77.71 74.85 77.72 73.92C77.72 72.68 78.12 72.02 78.94 71.89C79.5 71.81 79.96 71.98 80.37 72.43C80.76 72.87 81.08 72.93 81.08 72.57C81.08 72.41 80.93 72.18 80.6 71.85C80.22 71.47 80.02 71.35 79.64 71.26C78.49 70.98 77.28 71.58 76.74 72.69C76.53 73.13 76.49 73.33 76.49 73.98C76.48 74.85 76.65 75.34 77.16 75.91C77.55 76.36 77.87 76.5 78.9 76.7C78.93 76.71 79.2 76.67 79.49 76.61C80.2 76.48 81.14 76.02 81.21 75.77C81.28 75.51 81.28 73.94 81.21 73.76ZM42.95 66.62C43.21 66.61 43.35 66.6 43.37 66.59C43.86 66.56 44.07 66.36 43.87 66.12C43.76 65.99 43.55 65.97 42.46 66C41.19 66.02 41.18 66.02 41.15 66.24C41.11 66.51 41.26 66.61 41.75 66.61C41.78 66.61 41.9 66.61 42.13 66.61C42.13 67.34 42.13 67.75 42.13 67.83C42.13 68.5 42.16 69.12 42.19 69.2C42.25 69.37 42.68 69.39 42.84 69.23C42.92 69.16 42.95 68.72 42.95 67.87C42.95 67.62 42.95 66.74 42.95 66.62ZM44.94 68.59L44.96 67.88L45.44 67.9C45.72 67.92 45.88 67.93 45.91 67.93C45.93 68.33 45.93 68.55 45.94 68.59C45.96 69.22 45.98 69.25 46.2 69.31C46.69 69.43 46.73 69.32 46.75 67.71C46.78 66.07 46.75 65.95 46.28 65.99C46.26 65.99 46.17 66 46 66.02C46 66.06 45.99 66.28 45.97 66.68L45.95 67.34L45.45 67.34C45.16 67.34 44.99 67.34 44.96 67.34C44.95 66.94 44.94 66.72 44.94 66.68C44.91 66.03 44.9 66.02 44.65 65.99C44.17 65.94 44.14 66.04 44.14 67.65C44.14 69.26 44.17 69.37 44.64 69.32C44.65 69.32 44.74 69.31 44.91 69.3C44.91 69.21 44.92 68.97 44.94 68.59ZM48.25 68.8C48.23 68.58 48.22 68.45 48.21 68.43C48.19 68.23 48.2 68.02 48.23 67.98C48.26 67.93 48.5 67.88 48.78 67.87C49.25 67.84 49.28 67.83 49.31 67.59C49.33 67.34 49.33 67.34 48.78 67.34C48.74 67.34 48.56 67.34 48.23 67.34L48.23 66.93C48.23 66.69 48.23 66.56 48.23 66.53C48.63 66.51 48.85 66.5 48.89 66.5C49.53 66.48 49.55 66.47 49.55 66.25C49.55 66.23 49.55 66.16 49.55 66.02L48.5 66.02C47.88 66.02 47.53 66.02 47.46 66.02C47.44 66.95 47.43 67.46 47.43 67.56C47.42 68.41 47.43 69.16 47.45 69.22C47.48 69.31 47.76 69.34 48.49 69.34C49.41 69.34 49.5 69.33 49.55 69.16C49.64 68.86 49.52 68.8 48.87 68.8C48.75 68.8 48.31 68.8 48.25 68.8ZM52.61 58.97C52.68 58.97 53.35 59.11 54.1 59.29C57.15 60.01 58.9 59.76 60.29 58.38C60.8 57.88 61.33 57.03 61.22 56.91C61.11 56.81 58.68 56.23 57.06 55.92C56.63 55.84 56.07 55.73 55.82 55.68C55.78 55.68 55.63 55.65 55.35 55.59C56.23 54.71 56.73 54.22 56.82 54.12C59.99 50.96 60.43 50.24 62.12 45.42C62.26 45.01 62.34 44.91 62.56 44.84C63.53 44.55 64.61 44.18 64.9 44.03C66.09 43.43 66.54 42.26 66.06 41.02C65.7 40.08 65.86 40.07 63.84 41.17C62.86 41.7 61.92 42.22 61.76 42.31C61.74 42.32 61.64 42.37 61.46 42.47C61.3 42.19 61.22 42.04 61.2 42.01C59.65 39.22 55.21 36.68 50.5 35.91C43.77 34.8 34.14 37.12 26.66 41.66C25.49 42.37 24.39 43.13 24.39 43.22C24.39 43.25 24.76 43.28 25.21 43.29C27.37 43.35 29.99 44.28 32.28 45.79C32.87 46.18 33.27 46.39 33.29 46.32C33.33 46.22 34.89 44 35.08 43.8C35.13 43.74 35.46 43.37 35.81 42.98C36.57 42.13 37.89 40.91 38.58 40.42C40.6 38.99 43.02 38.27 45.77 38.28C47.32 38.28 48.38 38.43 49.56 38.82C51.85 39.56 54.16 41.21 54.79 42.55C55.14 43.28 55.23 44.24 55.02 44.97C54.54 46.58 52.71 48.14 50.35 48.94C49.59 49.2 48.96 49.29 46.77 49.46C43.6 49.7 42.35 50.03 40.61 51.07C38.15 52.54 36.13 54.75 34.95 57.25C34.3 58.64 34.29 58.49 35.1 59.07C37.07 60.47 39.24 61.44 41.13 61.75C42.08 61.9 44.36 61.86 45.55 61.66C47.8 61.28 50.21 60.4 51.88 59.35C52.21 59.14 52.54 58.97 52.61 58.97ZM39.95 55.77C40.29 55.45 40.37 55.42 40.82 55.42C41.27 55.42 41.36 55.45 41.69 55.77C42.01 56.06 42.07 56.17 42.07 56.49C42.1 57.35 41.11 57.94 40.26 57.56C39.85 57.39 39.59 56.97 39.59 56.51C39.59 56.17 39.64 56.07 39.95 55.77ZM54.64 43.86C54.65 43.16 54.5 42.5 54.34 42.5C54.31 42.5 54.27 42.79 54.27 43.14C54.24 44.06 54.02 44.61 53.38 45.29C52.47 46.27 51.29 46.74 49.25 46.94C48.78 46.99 48.39 47.04 48.36 47.07C48.34 47.09 48.26 47.5 48.2 47.99C48.19 48.05 48.15 48.34 48.08 48.87C48.11 48.87 48.36 48.87 48.39 48.87C48.56 48.87 48.99 48.8 49.35 48.72C51.29 48.28 53.59 46.67 54.34 45.23C54.61 44.69 54.64 44.56 54.64 43.86ZM24.89 40.35C27.16 39.01 31.26 37.2 34.22 36.23C40.45 34.2 46.63 33.56 52.42 34.35C58.11 35.13 64.73 37.51 70.33 40.78C71 41.18 71.57 41.5 71.58 41.5C71.6 41.5 71.62 41.11 71.62 40.64C71.62 40.56 71.62 39.88 71.62 39.79C70.85 39.3 70.42 39.03 70.34 38.98C69.63 38.54 68.9 38.07 68.71 37.95C68.52 37.82 68.01 37.49 67.58 37.22C67.15 36.94 66.04 36.23 65.11 35.63C64.18 35.03 63.19 34.39 62.9 34.22C62.87 34.19 62.7 34.09 62.39 33.9C62.32 33.38 62.28 33.09 62.27 33.03C62.06 31.47 61.57 30 60.69 28.34C60.66 28.3 60.54 28.06 60.32 27.65C60.45 27.56 60.52 27.51 60.53 27.5C61.72 26.68 62.5 25.16 62.3 24.08C62.22 23.69 62.05 23.66 61.29 23.92C60.65 24.15 60.15 24.5 59.24 25.37C58.83 25.75 58.45 26.1 58.39 26.13C58.33 26.16 57.79 26.11 57.19 26.02C49.94 24.94 48.85 24.86 43.99 25.03C38.69 25.21 36.68 25.07 35.35 24.43C34.05 23.81 33.13 22.48 33.05 21.1C33 20.28 33.21 18.91 33.54 17.9C33.56 17.86 33.64 17.62 33.78 17.2C33.84 17.2 34.29 17.2 34.35 17.2C35.06 17.2 35.93 17.01 36.69 16.68C37.47 16.35 38.14 15.93 38.1 15.8C38.06 15.67 36.29 15.16 35.01 14.91C34.47 14.8 34.03 14.69 34.03 14.65C34.03 14.54 34.94 13.88 35.4 13.65C35.99 13.35 36.56 13.38 38.34 13.82C41.51 14.59 44.84 14.89 47.59 14.65C52.55 14.21 56.07 12.94 58.35 10.76C59.79 9.38 60.45 8.06 60.57 6.3C60.64 5.4 60.53 5.18 60.33 5.8C60.17 6.28 59.52 7.47 59.27 7.71C59.16 7.83 59.06 7.95 59.05 7.99C59.05 8.02 58.79 8.33 58.48 8.67C56.44 10.91 53.18 12.47 50.51 12.47C50.47 12.47 50.11 12.47 50.07 12.47C50.48 12.07 50.7 11.85 50.75 11.81C51.89 10.7 52.66 9.45 53 8.13C53.16 7.52 53.19 6.92 53.07 6.92C53.02 6.92 52.84 7.14 52.66 7.41C52.04 8.34 50.86 9.73 50.03 10.51C48.18 12.24 46.59 12.95 44.58 12.94C43.71 12.94 42.67 12.73 42.1 12.44C42.08 12.43 42 12.38 41.84 12.3C42.09 12.19 42.23 12.13 42.26 12.12C43.22 11.69 44.27 10.75 44.76 9.88C45.16 9.17 45.56 7.73 45.36 7.73C45.34 7.73 45.03 8 44.69 8.33C43.53 9.43 42.15 10.45 41.08 10.99C40.18 11.44 39.56 11.59 38.49 11.58C37.4 11.58 36.77 11.43 35.85 10.95C34.66 10.34 34.03 9.48 33.87 8.28C33.76 7.49 33.91 6.15 34.14 5.85C34.3 5.66 34.04 5.63 33.78 5.81C33.34 6.13 32.96 6.59 32.74 7.05C32.56 7.44 32.53 7.65 32.53 8.55C32.53 9.16 32.58 9.73 32.65 9.91C32.71 10.08 32.75 10.24 32.73 10.25C32.66 10.33 31.21 9.78 30.54 9.43C29.64 8.96 28.79 8.15 28.43 7.41C28.21 6.96 28.16 6.74 28.13 5.99C28.11 5.5 28.06 5.1 28.02 5.1C27.9 5.1 27.52 5.93 27.34 6.59C27.15 7.27 27.2 8.1 27.49 8.87C27.65 9.31 27.83 9.56 28.38 10.1C29.39 11.09 30.58 11.65 32.75 12.14C32.8 12.16 33.09 12.22 33.61 12.34C33.37 12.61 33.24 12.75 33.21 12.78C32.99 13.03 32.51 13.46 32.16 13.74C32.11 13.78 31.9 13.95 31.51 14.26C30.92 14.13 30.59 14.07 30.52 14.05C28.82 13.69 27.47 13.56 25.58 13.56C24.61 13.56 23.45 13.61 23.01 13.66C22.23 13.76 22.21 13.77 22.12 14.05C21.89 14.77 21.74 15.5 21.81 15.57C21.87 15.63 23.23 16.45 26.21 18.26C26.48 18.42 26.76 18.59 26.83 18.64C26.92 18.7 26.9 18.81 26.75 19.16C25.63 21.7 25.03 24.18 25.03 26.26C25.03 28.47 25.69 31.5 26.57 33.35C26.91 34.05 27.4 34.86 27.64 35.11C27.7 35.18 27.76 35.24 27.76 35.26C27.76 35.28 26.69 36.08 25.38 37.05C20.29 40.82 19.7 41.26 19.63 41.35C19.53 41.5 19.55 43.68 19.65 43.68C19.7 43.68 20.16 43.38 20.68 43.02C21.53 42.41 24.07 40.77 24.16 40.77C24.18 40.77 24.51 40.58 24.89 40.35ZM27.37 15.29C27.85 14.82 28.55 14.98 28.76 15.62C28.85 15.88 28.84 15.97 28.7 16.18C28.61 16.31 28.48 16.48 28.4 16.54C28.17 16.71 27.73 16.67 27.46 16.45C27.29 16.32 27.18 16.12 27.15 15.91C27.1 15.62 27.13 15.53 27.37 15.29Z"/>
</g>
</svg>
