<?xml version="1.0" encoding="UTF-8" standalone="no"?>
<svg
   xmlns:dc="http://purl.org/dc/elements/1.1/"
   xmlns:cc="http://creativecommons.org/ns#"
   xmlns:rdf="http://www.w3.org/1999/02/22-rdf-syntax-ns#"
   xmlns:svg="http://www.w3.org/2000/svg"
   xmlns="http://www.w3.org/2000/svg"
   xmlns:sodipodi="http://sodipodi.sourceforge.net/DTD/sodipodi-0.dtd"
   xmlns:inkscape="http://www.inkscape.org/namespaces/inkscape"
   width="132"
   height="99"
   viewBox="0 0 34.925 26.193751"
   version="1.1"
   id="svg6"
   sodipodi:docname="Folklorika.svg"
   inkscape:version="1.0.2 (e86c870879, 2021-01-15, custom)">
  <metadata
     id="metadata12">
    <rdf:RDF>
      <cc:Work
         rdf:about="">
        <dc:format>image/svg+xml</dc:format>
        <dc:type
           rdf:resource="http://purl.org/dc/dcmitype/StillImage" />
        <dc:title></dc:title>
      </cc:Work>
    </rdf:RDF>
  </metadata>
  <defs
     id="defs10" />
  <sodipodi:namedview
     pagecolor="#ffffff"
     bordercolor="#666666"
     borderopacity="1"
     objecttolerance="10"
     gridtolerance="10"
     guidetolerance="10"
     inkscape:pageopacity="0"
     inkscape:pageshadow="2"
     inkscape:window-width="1920"
     inkscape:window-height="1001"
     id="namedview8"
     showgrid="false"
     units="px"
     inkscape:zoom="1.1391009"
     inkscape:cx="279.6527"
     inkscape:cy="288.82429"
     inkscape:window-x="-9"
     inkscape:window-y="-9"
     inkscape:window-maximized="1"
     inkscape:current-layer="svg6" />
  <g
     id="g839"
     transform="matrix(0.15303653,0,0,0.15303653,1.2661087,-1.9982655)">
    <path
       fill="#ffeead"
       d="m 19.844,153.888 c 0,-1.587 1.192,-2.744 2.836,-2.744 h 13.723 c 1.457,0 2.466,0.974 2.466,2.385 0,1.446 -1.009,2.42 -2.462,2.42 H 25.552 v 6.36 h 9.066 c 1.376,0 2.385,0.942 2.385,2.314 0,1.376 -1.009,2.35 -2.388,2.35 h -9.067 v 6.83 c 0,1.626 -1.192,2.783 -2.868,2.783 -1.644,0 -2.836,-1.157 -2.836,-2.783 z m 30.66,18.108 c 2.871,0 4.999,-2.17 4.999,-4.878 0,-2.749 -2.128,-4.88 -5,-4.88 -2.91,0 -5.037,2.131 -5.037,4.88 0,2.709 2.127,4.878 5.038,4.878 m 0.074,-14.6 c 5.969,0 10.333,4.155 10.333,9.612 0,5.458 -4.551,9.793 -10.52,9.793 -5.97,0 -10.333,-4.155 -10.333,-9.613 0,-5.457 4.55,-9.793 10.52,-9.793 m 19.544,-3.796 v 20.348 c 0,1.553 -1.119,2.674 -2.724,2.674 -1.64,0 -2.758,-1.118 -2.758,-2.674 v -20.344 c 0,-1.517 1.118,-2.639 2.758,-2.639 1.605,0 2.724,1.118 2.724,2.635 m 4.66,-0.035 c 0,-1.517 1.122,-2.6 2.723,-2.6 1.567,0 2.689,1.083 2.689,2.6 v 12.361 l 7.644,-7.479 a 2.681,2.681 0 0 1 1.94,-0.871 c 1.38,0 2.315,0.942 2.315,2.279 0,0.688 -0.261,1.302 -0.748,1.77 l -5.521,4.77 5.93,6.072 a 2.734,2.734 0 0 1 0.67,1.735 c 0,1.411 -1.005,2.42 -2.497,2.42 a 2.861,2.861 0 0 1 -2.202,-1.118 l -7.531,-8.35 v 6.833 c 0,1.552 -1.122,2.635 -2.689,2.635 -1.601,0 -2.723,-1.083 -2.723,-2.635 z m 26.109,0.035 v 20.348 c 0,1.553 -1.118,2.674 -2.724,2.674 -1.64,0 -2.758,-1.118 -2.758,-2.674 v -20.344 c 0,-1.517 1.118,-2.639 2.758,-2.639 1.606,0 2.724,1.118 2.724,2.635 m 14.175,18.397 c 2.871,0 4.998,-2.17 4.998,-4.878 0,-2.749 -2.127,-4.88 -4.998,-4.88 -2.91,0 -5.038,2.131 -5.038,4.88 0,2.709 2.127,4.878 5.038,4.878 m 0.07,-14.6 c 5.973,0 10.336,4.155 10.336,9.612 0,5.458 -4.55,9.793 -10.52,9.793 -5.968,0 -10.332,-4.155 -10.332,-9.61 0,-5.457 4.55,-9.796 10.52,-9.796 m 13.874,2.494 c 0,-1.376 0.97,-2.314 2.385,-2.314 1.418,0 2.424,0.942 2.424,2.314 l 0.038,1.517 c 1.158,-2.565 3.024,-4.01 5.409,-4.01 1.64,0 2.797,1.12 2.797,2.673 0,1.626 -1.153,2.71 -2.797,2.71 -2.907,0 -4.848,1.735 -4.848,5.422 v 5.785 c 0,1.552 -1.121,2.635 -2.688,2.635 -1.601,0 -2.72,-1.083 -2.72,-2.638 z m 21.11,0.364 v 13.694 c 0,1.553 -1.118,2.674 -2.723,2.674 -1.64,0 -2.762,-1.118 -2.762,-2.674 V 160.25 c 0,-1.552 1.122,-2.674 2.762,-2.674 1.605,0 2.724,1.122 2.724,2.674 m -6.008,-7.623 c 0,-1.736 1.344,-3.034 3.28,-3.034 1.906,0 3.246,1.298 3.246,3.034 0,1.77 -1.34,3.033 -3.245,3.033 -1.937,0 -3.281,-1.263 -3.281,-3.033 m 10.668,0.938 c 0,-1.517 1.118,-2.6 2.723,-2.6 1.566,0 2.685,1.083 2.685,2.6 v 12.361 l 7.648,-7.479 a 2.681,2.681 0 0 1 1.94,-0.871 c 1.376,0 2.31,0.942 2.31,2.279 a 2.42,2.42 0 0 1 -0.743,1.77 l -5.521,4.77 5.93,6.072 a 2.727,2.727 0 0 1 0.67,1.735 c 0,1.411 -1.005,2.42 -2.498,2.42 a 2.865,2.865 0 0 1 -2.2,-1.118 l -7.536,-8.35 v 6.83 c 0,1.552 -1.119,2.638 -2.685,2.638 -1.605,0 -2.723,-1.083 -2.723,-2.638 z m 31.778,17.35 c 0,-1.412 -1.376,-2.569 -3.69,-2.569 -2.166,0 -3.546,1.157 -3.546,2.568 0,1.412 1.38,2.565 3.546,2.565 2.31,0 3.69,-1.157 3.69,-2.565 m 5.26,-5.062 v 8.386 c 0,1.41 -1.01,2.384 -2.463,2.384 -1.157,0 -2.05,-0.649 -2.31,-1.661 -1.457,1.227 -3.507,1.841 -5.747,1.841 -4.621,0 -7.422,-2.381 -7.422,-5.672 0,-3.288 2.945,-5.856 7.574,-5.856 2.01,0 3.69,0.508 4.92,1.34 v -0.797 c 0,-2.604 -1.827,-4.011 -4.363,-4.011 -1.527,0 -2.498,0.398 -3.394,0.868 a 3.01,2.917 0 0 1 -1.27,0.289 c -1.227,0 -2.085,-0.833 -2.085,-1.99 0,-0.794 0.523,-1.517 1.267,-1.95 0.783,-0.505 2.723,-1.623 6.565,-1.623 5.37,0 8.728,3.14 8.728,8.452 M 160.867,80.798 c 0,33.316 -27.01,60.325 -60.325,60.325 -33.317,0 -60.325,-27.009 -60.325,-60.325 0,-33.316 27.008,-60.325 60.325,-60.325 33.316,0 60.325,27.009 60.325,60.325"
       id="path2"
       style="stroke:#000000;stroke-opacity:1" />
    <path
       fill="#ff6f69"
       d="m 95.926,91.937 v 15.117 c 0,3.284 -0.931,5.782 -2.79,7.485 -1.863,1.704 -4.576,2.558 -8.139,2.558 -3.506,0 -6.226,-0.914 -8.163,-2.741 -1.94,-1.83 -2.907,-4.389 -2.907,-7.676 V 60.219 c 0,-4.745 0.977,-8.043 2.928,-9.906 1.955,-1.863 5.398,-2.79 10.326,-2.79 h 28.836 c 3.193,0 5.595,0.751 7.21,2.257 1.613,1.503 2.417,3.712 2.417,6.626 0,2.726 -0.79,4.804 -2.37,6.233 -1.58,1.425 -3.892,2.138 -6.932,2.138 H 95.93 V 75.38 h 14.697 c 3.1,0 5.397,0.692 6.882,2.071 1.489,1.376 2.233,3.51 2.233,6.392 0,2.73 -0.79,4.763 -2.374,6.093 -1.58,1.333 -4.029,2 -7.348,2 z"
       id="path4" />
  </g>
</svg>
