<?xml version="1.0" encoding="UTF-8" standalone="no"?>
<svg
   xmlns:dc="http://purl.org/dc/elements/1.1/"
   xmlns:cc="http://creativecommons.org/ns#"
   xmlns:rdf="http://www.w3.org/1999/02/22-rdf-syntax-ns#"
   xmlns:svg="http://www.w3.org/2000/svg"
   xmlns="http://www.w3.org/2000/svg"
   xmlns:sodipodi="http://sodipodi.sourceforge.net/DTD/sodipodi-0.dtd"
   xmlns:inkscape="http://www.inkscape.org/namespaces/inkscape"
   width="132"
   height="99"
   id="svg2"
   version="1.1"
   inkscape:version="1.0.2 (e86c870879, 2021-01-15, custom)"
   sodipodi:docname="Food_Network.svg">
  <defs
     id="defs4" />
  <sodipodi:namedview
     id="base"
     pagecolor="#ffffff"
     bordercolor="#666666"
     borderopacity="1.0"
     inkscape:pageopacity="0.0"
     inkscape:pageshadow="2"
     inkscape:zoom="0.35355339"
     inkscape:cx="469.04239"
     inkscape:cy="489.75314"
     inkscape:document-units="px"
     inkscape:current-layer="svg2"
     showgrid="false"
     inkscape:window-width="1920"
     inkscape:window-height="1001"
     inkscape:window-x="-9"
     inkscape:window-y="-9"
     inkscape:window-maximized="1"
     fit-margin-top="0"
     fit-margin-left="0"
     fit-margin-right="0"
     fit-margin-bottom="0"
     inkscape:object-paths="true"
     inkscape:document-rotation="0" />
  <metadata
     id="metadata7">
    <rdf:RDF>
      <cc:Work
         rdf:about="">
        <dc:format>image/svg+xml</dc:format>
        <dc:type
           rdf:resource="http://purl.org/dc/dcmitype/StillImage" />
        <dc:title></dc:title>
      </cc:Work>
    </rdf:RDF>
  </metadata>
  <g
     inkscape:label="Layer 1"
     id="layer1"
     transform="matrix(0.099,0,0,0.099,133.83154,-17.5446)">
    <g
       id="g3073"
       transform="matrix(1.000002,0,0,1.0000006,-1440.0005,-7.6301077e-4)"
       style="display:inline">
      <path
         inkscape:connector-curvature="0"
         transform="matrix(1.0015657,0,0,0.9931269,254.83294,181.28235)"
         style="display:inline;fill:#c41b31;fill-opacity:1;fill-rule:evenodd;stroke:none"
         d="m 998.43475,499.36841 c 0,278.05329 -223.50723,503.45999 -499.21737,503.45999 C 223.50723,1002.8284 0,777.4217 0,499.36841 0,221.31512 223.50723,-4.0916138 499.21738,-4.0916138 c 89.11774,0 172.78146,23.5499378 245.20615,64.8156588 151.64092,86.401085 254.01122,250.466195 254.01122,438.644365 z"
         id="path3091"
         sodipodi:nodetypes="ssssss" />
      <path
         style="display:inline;fill:#ffffff;fill-opacity:1;fill-rule:evenodd;stroke:none"
         d="m 278.9375,234.65625 c -9.10533,0 -18.16632,0.90169 -26.9375,2.65625 -7.98795,1.61057 -15.93966,4.02119 -23.625,7.125 -7.0903,2.91715 -13.78733,6.39733 -19.96875,10.34375 -5.83712,3.7171 -11.33157,7.82361 -16.34375,12.25 -6.96466,6.15428 -12.94479,12.6587 -18.3125,19.90625 -5.09558,6.9169 -9.46951,14.4352 -13.375,23 -2.44327,5.44499 -4.68223,11.36884 -6.84375,18.09375 -1.51408,4.46906 -2.91337,9.31587 -4.3125,15.1875 -1.75413,7.05023 -3.50701,17.00313 -5.03125,25.78125 l -0.8125,4.65625 c -0.355,1.98921 -0.6453,3.8972 -0.96875,5.84375 l -2.75,14.28125 -25.96875,0.0937 -16.25,54.875 33.125,-0.0312 c -2.27647,12.31923 -40.208143,218.2332 -40.4375,219.375 -1.566474,6.87851 -3.256166,12.70882 -5.15625,17.8125 -2.004872,5.59539 -4.409445,10.55462 -7.3125,15.125 -0.166805,0.23945 -0.30141,0.46917 -0.46875,0.71875 l -0.3125,0.4375 c -5.924466,9.62441 -14.362028,17.02118 -24.15625,21.5625 8.598416,17.15482 18.180927,33.72947 28.625,49.6875 5.438177,-2.48704 10.642199,-5.29571 15.5625,-8.4375 5.84781,-3.7267 11.44572,-7.92994 16.65625,-12.53125 7.12131,-6.30414 13.25777,-12.93771 18.6875,-20.28125 5.25223,-7.11422 9.69836,-14.78204 13.65625,-23.4375 3.7173,-8.29335 6.89958,-17.467 9.78125,-27.96875 2.28716,-8.34081 3.87082,-16.29234 5.6875,-25.84375 l 7.71875,-40.3125 29.9375,-165.96875 32.40625,0.1875 16.34375,-55.15625 -39.65625,0.15625 3.71875,-26.21875 c 0.14595,-0.68796 0.72756,-3.97264 1.375,-7.59375 0.77254,-4.43172 1.62431,-9.46072 1.8125,-10.25 1.55578,-6.78358 3.22443,-12.49839 5.0625,-17.46875 1.98402,-5.50899 4.30559,-10.33353 7.15625,-14.78125 3.00731,-4.66638 6.38616,-8.55329 10.3125,-11.84375 2.12998,-1.84522 4.43154,-3.53342 6.78125,-5 2.48497,-1.48257 4.92098,-2.67573 7.4375,-3.625 0.16681,-0.0747 0.35375,-0.11892 0.53125,-0.15625 L 252.75,296.75 c 3.373,-1.35458 6.63745,-2.33337 9.96875,-3 3.76969,-0.74662 7.66736,-1.125 11.65625,-1.125 h 0.375 c 3.83225,0 7.4916,0.37379 10.84375,1.09375 3.23667,0.67196 6.27468,1.64158 9.03125,2.9375 0.38654,0.17599 0.75931,0.40101 1.125,0.625 l 0.75,0.40625 18.09375,-58.03125 -0.4375,-0.15625 c -2.7571,-0.82128 -5.64913,-1.6992 -8.75,-2.3125 -7.81098,-1.68523 -16.30073,-2.53125 -25.3125,-2.53125 z"
         transform="matrix(0.999998,0,0,0.9999994,254.83289,177.21886)"
         id="path3016"
         inkscape:connector-curvature="0" />
      <g
         transform="matrix(0.53463157,0,0,-0.53329983,254.83328,1177.4884)"
         id="g3010"
         style="display:inline">
        <g
           id="g3033">
          <path
             style="fill:#ffffff;fill-opacity:1;fill-rule:evenodd;stroke:none"
             d="m 435,115.28125 c -9.61282,1.74907 -16.95174,7.27103 -21.5625,12.375 -1.44627,1.5136 -2.76435,3.14462 -3.96875,4.9375 -0.64334,0.97997 -1.26524,2.01021 -1.84375,3.0625 -0.27679,0.4663 -0.51428,0.88727 -0.71875,1.28125 -0.0549,0.0973 -0.10139,0.21026 -0.15625,0.3125 -0.32167,0.62339 -0.54287,1.08957 -0.6875,1.40625 -0.54609,1.12211 -1.07625,2.24557 -1.5625,3.4375 -1.42632,3.45858 -2.66795,7.25779 -3.8125,11.25 -1.11712,3.9947 -2.16514,8.25276 -3.1875,12.71875 -1.03733,4.40365 -1.94691,8.65672 -2.6875,12.71875 -0.29175,1.6283 -0.53555,3.22526 -0.75,4.78125 -1.19691,-1.80784 -2.515,-3.42724 -3.96875,-4.78125 -1.63578,-1.48368 -3.44131,-2.70753 -5.40625,-3.6875 -1.9774,-1.00242 -4.11598,-1.75012 -6.4375,-2.28125 -2.31902,-0.53612 -4.87443,-0.87166 -7.5625,-1.03125 -2.61576,-0.15211 -5.19908,-0.0492 -7.75,0.25 -2.54843,0.32915 -5.03619,0.84817 -7.4375,1.59375 -2.40131,0.73062 -4.70809,1.64285 -6.875,2.75 -2.14447,1.13208 -4.1659,2.42374 -5.96875,3.875 -3.28154,2.58833 -5.99714,5.72526 -8.28125,9.21875 -2.29409,3.49599 -4.12902,7.33175 -5.6875,11.40625 -1.56347,4.072 -2.81407,8.35484 -3.90625,12.65625 -1.07972,4.2862 -2.00724,8.63377 -2.875,12.8125 -0.87774,4.20292 -1.78434,8.55222 -2.5,12.90625 -0.69321,4.37846 -1.20162,8.7414 -1.34375,12.96875 -0.12219,4.23633 0.11462,8.32713 0.9375,12.0625 0.8129,3.76953 2.2144,7.20685 4.40625,10.15625 1.2044,1.61309 2.69566,3.08915 4.40625,4.40625 1.71059,1.31885 3.64426,2.49576 5.78125,3.46875 2.10956,0.97025 4.44127,1.73873 6.875,2.3125 2.43622,0.55133 4.99311,0.8725 7.65625,0.96875 2.90002,0.0928 5.58538,-0.0281 8.15625,-0.375 2.5609,-0.35359 4.99231,-0.95421 7.34375,-1.8125 2.35393,-0.87275 4.64707,-2.02223 6.90625,-3.46875 1.25177,-0.79769 2.49823,-1.68234 3.75,-2.6875 0.42889,-0.32641 0.86233,-0.70118 1.28125,-1.0625 0.0199,-0.0145 0.0426,-0.0168 0.0625,-0.0312 0.39398,-0.34187 0.79352,-0.69345 1.1875,-1.0625 0.16208,-0.14238 0.29669,-0.26412 0.46875,-0.40625 l 0.0937,-0.125 c 0.80792,-0.77824 1.58072,-1.59874 2.34375,-2.46875 1.72555,-1.98688 3.15681,-4.06115 4.34375,-6.15625 0.96501,3.3566 2.41039,6.45031 4.5,9.09375 1.29666,1.62282 2.88963,3.1361 4.6875,4.4375 1.18445,0.85804 2.51102,1.60931 3.875,2.3125 0.35658,0.20946 0.66469,0.43324 1.03125,0.625 1.94748,1.01214 4.08473,1.76691 6.40625,2.3125 2.33897,0.56679 4.90717,0.89278 7.6875,1 0.7755,0.0175 1.5232,-0.0108 2.28125,-0.0312 l 7.375,-23.65625 c -0.16956,-0.0332 -0.35421,-0.0224 -0.53125,-0.0625 -1.00242,-0.21894 -1.92346,-0.51858 -2.78125,-0.9375 -0.83285,-0.41867 -1.61297,-0.91758 -2.28125,-1.53125 -0.69072,-0.59322 -1.27139,-1.28924 -1.8125,-2.0625 -0.90766,-1.42109 -1.49216,-3.08976 -1.84375,-4.9375 -0.24188,-1.4161 -0.30619,-2.97193 -0.28125,-4.59375 -0.0249,-0.0878 -0.0426,-0.18874 -0.0625,-0.28125 0,0 0.0539,-1.23033 0.0937,-1.84375 0.0199,-0.45782 0.069,-1.04881 0.15625,-1.75 0.15211,-1.55848 0.34821,-3.16832 0.625,-4.84375 0.0673,-0.37005 0.18267,-0.77149 0.25,-1.15625 0.12717,-0.78398 0.1875,-1.3125 0.1875,-1.3125 0,0 3.67753,-20.84375 3.6875,-20.84375 2.69306,-16.06609 6.02855,-35.87282 6.4375,-37.9375 0.6583,-3.46856 1.35815,-6.773 2.09375,-9.875 0.77301,-3.10699 1.59632,-6.05195 2.59375,-8.75 0.99992,-2.72298 2.16477,-5.21456 3.53125,-7.46875 1.39391,-2.24172 2.99867,-4.23688 4.90625,-5.9375 1.02236,-0.94506 2.10529,-1.81559 3.1875,-2.53125 1.09967,-0.71566 2.24807,-1.295 3.4375,-1.78125 1.18195,-0.48375 2.40713,-0.85686 3.71875,-1.09375 l 0.40625,-0.0937 c -3.70243,-8.65168 -7.91702,-17.04889 -12.59375,-25.125 -0.0101,0.002 -0.0211,-0.002 -0.0312,0 z m -61.15625,76.78125 c 1.40139,0.01 2.68939,0.11683 3.90625,0.34375 1.21437,0.22941 2.34765,0.56495 3.375,1.03125 1.0074,0.44884 1.9484,1.04549 2.78125,1.71875 0.82787,0.69072 1.57042,1.46983 2.21875,2.375 1.12959,1.64077 1.86116,3.54552 2.3125,5.6875 0.46879,2.11954 0.62484,4.51041 0.5625,7.09375 -0.0499,2.59082 -0.29983,5.36717 -0.71875,8.34375 -0.21445,1.58292 -0.48202,3.20954 -0.78125,4.875 -0.20946,1.3979 -0.46441,2.84678 -0.71875,4.3125 -0.51118,2.88806 -1.03286,5.64654 -1.65625,8.28125 -0.4264,1.87517 -0.92515,3.65094 -1.46875,5.375 -0.44386,1.54377 -0.91136,3.04667 -1.4375,4.46875 -0.95753,2.64942 -2.0559,5.09646 -3.375,7.3125 -1.30663,2.1926 -2.81716,4.1576 -4.625,5.84375 -0.98745,0.93509 -2.05276,1.75285 -3.125,2.46875 -1.08969,0.73062 -2.23676,1.34703 -3.40625,1.84375 -1.19193,0.47627 -2.42957,0.88337 -3.71875,1.125 -1.2817,0.2698 -2.65613,0.40234 -4.0625,0.4375 -1.43131,0.0145 -2.75438,-0.10886 -3.96875,-0.34375 -1.21686,-0.22891 -2.34266,-0.55223 -3.375,-1.03125 -1.0099,-0.45607 -1.90585,-1.03983 -2.71875,-1.75 -0.84781,-0.69047 -1.5892,-1.4936 -2.25,-2.40625 -1.11213,-1.65598 -1.85867,-3.59937 -2.3125,-5.78125 -0.44884,-2.19634 -0.60855,-4.65335 -0.53125,-7.3125 0.0723,-2.65416 0.36615,-5.5265 0.8125,-8.53125 0.43388,-3.02944 1.01291,-6.21173 1.65625,-9.5 0.63337,-3.32742 1.28434,-6.49317 2,-9.46875 0.74059,-2.98655 1.56624,-5.84668 2.53125,-8.4375 0.96252,-2.62074 2.07219,-4.99432 3.40625,-7.15625 1.32907,-2.14946 2.88847,-4.08795 4.71875,-5.71875 0.99494,-0.91265 2.02019,-1.69425 3.0625,-2.375 1.06226,-0.68823 2.14169,-1.28121 3.28125,-1.75 1.14455,-0.45134 2.332,-0.80184 3.59375,-1.03125 1.2792,-0.23689 2.6149,-0.34375 4.03125,-0.34375 z"
             id="path3025"
             transform="matrix(4.0103107,0,0,-4.0103107,-6.4164971e-4,1870.4205)"
             inkscape:connector-curvature="0" />
          <path
             inkscape:connector-curvature="0"
             id="path24"
             style="fill:#ffffff;fill-opacity:1;fill-rule:nonzero;stroke:none"
             d="m 1148.34,1026.57 c -0.18,-10.25 -1.25,-21.29 -2.89,-33.105 -0.86,-6.309 -1.89,-12.813 -3.05,-19.453 -0.86,-5.528 -1.85,-11.211 -2.83,-17.051 -2.07,-11.461 -4.22,-22.465 -6.68,-32.895 -1.72,-7.461 -3.67,-14.511 -5.9,-21.347 -1.7,-6.153 -3.53,-12.09 -5.6,-17.754 -3.83,-10.488 -8.13,-20.215 -13.36,-29.024 -5.2,-8.691 -11.25,-16.48 -18.46,-23.179 -3.94,-3.731 -8.1,-7.012 -12.4,-9.832 -4.26,-2.91 -8.81,-5.348 -13.46,-7.321 -4.72,-1.879 -9.61,-3.437 -14.78,-4.449 -5.1,-1 -10.53,-1.551 -16.12,-1.68 -5.7,-0.082 -10.97,0.329 -15.84,1.25 -4.78,0.911 -9.22,2.258 -13.32,4.102 -3.982,1.848 -7.634,4.18 -10.916,6.969 -3.339,2.738 -6.23,6 -8.886,9.551 -4.395,6.597 -7.383,14.339 -9.18,22.988 -1.777,8.789 -2.383,18.476 -2.09,29.004 0.313,10.547 1.426,21.972 3.145,33.906 1.738,11.992 4.082,24.648 6.64,37.699 2.52,13.262 5.137,25.821 7.989,37.656 2.949,11.875 6.191,23.125 10.018,33.435 3.81,10.39 8.26,19.87 13.56,28.46 5.29,8.54 11.4,16.13 18.69,22.66 3.94,3.61 7.97,6.81 12.17,9.55 4.16,2.69 8.53,5.02 13.04,6.88 4.51,1.79 9.32,3.2 14.28,4.09 5.1,0.95 10.37,1.37 15.98,1.39 5.56,-0.02 10.74,-0.47 15.56,-1.39 4.81,-0.89 9.26,-2.26 13.32,-4.18 4.01,-1.75 7.78,-4.08 11.04,-6.75 3.3,-2.76 6.27,-5.84 8.81,-9.46 4.47,-6.5 7.46,-14.08 9.26,-22.56 1.87,-8.41 2.51,-17.89 2.26,-28.16 z m 99.08,67.79 c -4.41,11.68 -10.52,22.46 -18.53,32.78 -5.35,7.15 -11.9,14 -19.63,20.37 -7.77,6.4 -16.8,12.34 -27.15,17.28 -10.35,4.92 -22.05,9.12 -35.23,11.98 -13.11,2.94 -27.72,4.61 -43.79,4.7 -16.25,0.2 -31.43,-1.27 -45.71,-4.02 -14.22,-2.66 -27.48,-6.66 -39.66,-11.47 -12.17,-4.92 -23.384,-10.6 -33.657,-16.97 -10.235,-6.33 -19.375,-13.24 -27.579,-20.33 -11.972,-10.37 -22.148,-21.33 -31.074,-33.07 -8.887,-11.81 -16.328,-24.47 -22.812,-38.4 -6.485,-13.92 -11.856,-29.06 -16.641,-45.82 -4.766,-16.656 -8.906,-34.976 -12.695,-55.191 -3.692,-20.414 -6.465,-38.832 -7.969,-55.863 -1.563,-16.895 -1.797,-32.285 -0.625,-46.484 1.23,-14.122 3.887,-27.051 8.34,-39.102 4.492,-12.09 10.644,-23.199 18.828,-33.828 5.644,-7.223 12.344,-14.313 20.293,-20.84 7.949,-6.523 17.226,-12.422 27.812,-17.383 10.586,-4.98 22.598,-8.988 36.133,-11.699 13.438,-2.77 28.396,-4.219 45.016,-3.91 16.55,0.18 32.11,2.051 46.63,5.101 14.45,3.219 27.81,7.5 40.25,12.719 12.34,5.211 23.65,11.379 33.87,17.981 10.23,6.699 19.39,13.828 27.56,21.179 11.73,10.621 21.75,21.828 30.37,33.84 8.55,11.961 15.72,24.75 21.89,38.719 6.11,13.98 11.19,29.176 15.65,45.816 4.33,16.621 8.04,34.825 11.4,54.868 3.4,19.843 5.92,37.753 7.19,54.217 1.27,16.41 1.39,31.31 0.02,44.98 -1.29,13.71 -4.02,26.15 -8.5,37.85" />
          <path
             inkscape:connector-curvature="0"
             id="path30"
             style="fill:#ffffff;fill-opacity:1;fill-rule:nonzero;stroke:none"
             d="m 733.34,1026.57 c -0.176,-10.23 -1.211,-21.31 -2.93,-33.105 -0.82,-6.367 -1.875,-12.891 -3.047,-19.61 -0.859,-5.449 -1.797,-11.113 -2.832,-16.914 -2.07,-11.441 -4.179,-22.445 -6.621,-32.875 -1.699,-7.363 -3.691,-14.316 -5.84,-21.113 -1.757,-6.191 -3.613,-12.246 -5.722,-18.008 -3.77,-10.488 -8.106,-20.195 -13.34,-29.004 -5.215,-8.75 -11.27,-16.5 -18.477,-23.16 -3.906,-3.75 -8.086,-7.031 -12.343,-9.871 -4.297,-2.89 -8.809,-5.328 -13.477,-7.301 -4.727,-1.898 -9.648,-3.461 -14.766,-4.468 -5.156,-0.961 -10.566,-1.59 -16.152,-1.68 -5.684,-0.063 -10.977,0.328 -15.801,1.269 -4.824,0.899 -9.238,2.258 -13.301,4.102 -4.043,1.848 -7.753,4.18 -10.957,6.969 -3.339,2.738 -6.25,6 -8.886,9.551 -4.434,6.597 -7.364,14.339 -9.239,23.007 -1.757,8.77 -2.363,18.457 -2.011,28.965 0.254,10.567 1.367,21.953 3.144,33.946 1.719,11.953 4.063,24.609 6.641,37.679 2.5,13.242 5.117,25.821 7.969,37.656 2.929,11.895 6.171,23.165 10.039,33.435 3.75,10.41 8.242,19.87 13.496,28.46 5.293,8.54 11.484,16.13 18.711,22.68 3.984,3.59 8.047,6.75 12.207,9.51 4.179,2.71 8.496,5 13.047,6.9 4.511,1.83 9.316,3.2 14.257,4.09 5.079,0.95 10.352,1.37 15.996,1.39 5.567,-0.04 10.762,-0.48 15.547,-1.37 4.786,-0.95 9.239,-2.32 13.282,-4.2 4.062,-1.77 7.812,-4.08 11.074,-6.75 3.281,-2.76 6.269,-5.84 8.808,-9.46 4.434,-6.52 7.461,-14.08 9.219,-22.56 1.875,-8.41 2.559,-17.89 2.305,-28.16 z m 99.082,67.79 c -4.434,11.7 -10.547,22.46 -18.555,32.78 -5.371,7.15 -11.855,14 -19.609,20.39 -7.774,6.36 -16.797,12.28 -27.149,17.26 -10.371,4.92 -22.05,9.07 -35.254,11.96 -13.085,2.96 -27.695,4.63 -43.808,4.7 -16.192,0.22 -31.426,-1.25 -45.645,-3.96 -14.218,-2.7 -27.461,-6.7 -39.668,-11.51 -12.246,-4.92 -23.457,-10.6 -33.671,-16.97 -10.176,-6.37 -19.415,-13.28 -27.598,-20.33 -11.953,-10.37 -22.149,-21.3 -31.016,-33.07 -8.867,-11.77 -16.328,-24.47 -22.832,-38.36 -6.426,-13.96 -11.836,-29.08 -16.601,-45.86 -4.766,-16.656 -8.887,-34.976 -12.657,-55.21 -3.73,-20.414 -6.484,-38.813 -8.007,-55.864 -1.543,-16.875 -1.817,-32.265 -0.606,-46.386 1.192,-14.2 3.867,-27.129 8.301,-39.18 4.453,-12.07 10.644,-23.199 18.848,-33.828 5.585,-7.242 12.304,-14.332 20.293,-20.883 7.968,-6.48 17.148,-12.379 27.773,-17.277 10.547,-5.063 22.617,-9.063 36.074,-11.782 13.457,-2.75 28.438,-4.16 45.039,-3.91 16.543,0.2 32.129,2.11 46.641,5.121 14.433,3.219 27.812,7.481 40.215,12.739 12.383,5.191 23.672,11.359 33.886,17.949 10.254,6.711 19.414,13.82 27.579,21.191 11.738,10.602 21.738,21.828 30.371,33.821 8.554,11.941 15.781,24.75 21.855,38.789 6.172,13.929 11.289,29.125 15.625,45.765 4.375,16.602 8.106,34.825 11.426,54.828 3.437,19.883 5.918,37.793 7.168,54.237 1.348,16.43 1.465,31.35 0.098,45 -1.329,13.69 -4.102,26.13 -8.516,37.85" />
        </g>
      </g>
      <g
         transform="matrix(0.53463157,0,0,-0.53329983,254.83328,1177.4884)"
         id="g3016"
         style="display:inline">
        <path
           d="m 595.41,491.629 v 66.641 c 0,15 -9.492,20.089 -18.183,20.089 -8.672,0 -18.399,-5.089 -18.399,-20.089 v -66.641 h -27.5 V 601.82 h 26.856 v -10.14 c 7.207,7.621 17.363,11.429 27.519,11.429 10.996,0 19.863,-3.589 26.016,-9.75 8.867,-8.879 11.191,-19.23 11.191,-31.289 v -70.441 h -27.5"
           style="fill:#ffffff;fill-opacity:1;fill-rule:nonzero;stroke:none"
           id="path34"
           inkscape:connector-curvature="0" />
        <path
           d="m 738.242,568.832 c -2.969,6.559 -9.062,11.406 -18.398,11.406 -9.278,0 -15.43,-4.847 -18.379,-11.406 -1.68,-4.043 -2.324,-6.992 -2.539,-11.832 h 41.894 c -0.215,4.84 -0.859,7.789 -2.578,11.832 z m -39.316,-30.684 c 0,-14.136 8.672,-24.527 24.14,-24.527 12.032,0 17.95,3.399 24.922,10.391 l 16.7,-16.313 c -11.192,-11.211 -21.973,-17.34 -41.875,-17.34 -26.016,0 -50.958,11.852 -50.958,56.461 0,35.961 19.454,56.289 47.989,56.289 30.683,0 48.047,-22.418 48.047,-52.679 v -12.282 h -68.965"
           style="fill:#ffffff;fill-opacity:1;fill-rule:nonzero;stroke:none"
           id="path36"
           inkscape:connector-curvature="0" />
        <path
           d="m 852.539,491.629 c -22.402,0 -31.934,15.851 -31.934,31.519 v 54.571 h -11.621 v 20.941 h 11.621 v 32.57 h 27.5 v -32.57 h 19.473 v -20.941 h -19.473 v -52.891 c 0,-6.348 2.969,-9.918 9.532,-9.918 h 9.941 v -23.281 h -15.039"
           style="fill:#ffffff;fill-opacity:1;fill-rule:nonzero;stroke:none"
           id="path38"
           inkscape:connector-curvature="0" />
        <path
           d="m 1036.5,491.629 h -22.63 l -23.03,69.172 -23.067,-69.172 H 945.117 L 911.23,601.82 h 29.219 l 17.793,-68.109 22.422,68.109 h 20.096 l 22.62,-68.109 17.75,68.109 h 29.01 L 1036.5,491.629"
           style="fill:#ffffff;fill-opacity:1;fill-rule:nonzero;stroke:none"
           id="path40"
           inkscape:connector-curvature="0" />
        <path
           d="m 1168.56,573.48 c -3.19,3.161 -7.41,4.879 -12.9,4.879 -5.48,0 -9.53,-1.718 -12.69,-4.879 -5.74,-5.718 -6.37,-15.21 -6.37,-26.66 0,-11.41 0.63,-21.129 6.37,-26.859 3.16,-3.16 7.21,-4.859 12.69,-4.859 5.49,0 9.71,1.699 12.9,4.859 5.68,5.73 6.34,15.449 6.34,26.859 0,11.45 -0.66,20.942 -6.34,26.66 z m 21.34,-69.609 c -6.75,-7.172 -17.99,-13.512 -34.24,-13.512 -16.3,0 -27.28,6.34 -34.06,13.512 -9.96,10.41 -12.5,22.867 -12.5,42.949 0,19.879 2.54,32.379 12.5,42.731 6.78,7.187 17.76,13.558 34.06,13.558 16.25,0 27.49,-6.371 34.24,-13.558 9.94,-10.352 12.48,-22.852 12.48,-42.731 0,-20.082 -2.54,-32.539 -12.48,-42.949"
           style="fill:#ffffff;fill-opacity:1;fill-rule:nonzero;stroke:none"
           id="path42"
           inkscape:connector-curvature="0" />
        <path
           d="m 1309.08,571.801 c -4.25,4.219 -7.83,6.558 -14.61,6.558 -8.47,0 -17.75,-6.339 -17.75,-20.308 v -66.422 h -27.5 V 601.82 h 26.86 v -10.57 c 5.29,6.352 15.85,11.859 27.71,11.859 10.82,0 18.4,-2.75 26,-10.371 l -20.71,-20.937"
           style="fill:#ffffff;fill-opacity:1;fill-rule:nonzero;stroke:none"
           id="path44"
           inkscape:connector-curvature="0" />
        <path
           d="m 1438.61,491.629 -27.07,45.891 -11.62,-13.122 v -32.769 h -27.5 v 150.582 h 27.5 v -85.449 l 36.57,45.058 h 33.24 l -39.4,-44.41 42.33,-65.781 h -34.05"
           style="fill:#ffffff;fill-opacity:1;fill-rule:nonzero;stroke:none"
           id="path46"
           inkscape:connector-curvature="0" />
      </g>
    </g>
  </g>
</svg>
