<?xml version="1.0" encoding="UTF-8" standalone="no"?>
<!DOCTYPE svg PUBLIC "-//W3C//DTD SVG 1.1//EN" "http://www.w3.org/Graphics/SVG/1.1/DTD/svg11.dtd">
<svg version="1.1" xmlns="http://www.w3.org/2000/svg" xmlns:xlink="http://www.w3.org/1999/xlink" preserveAspectRatio="xMidYMid meet" viewBox="0 0 132 99" width="132" height="99"><defs><path d="M89.31 79.02C89.31 81.37 89.31 82.68 89.31 82.94C89.31 84.7 89.23 86.46 88.74 88.17C88.16 90.29 86.92 92.3 85.05 93.5C82.88 94.92 80.17 95.2 77.65 94.87C75.61 94.59 73.62 93.66 72.25 92.1C70.48 90.11 69.78 87.41 69.67 84.8C69.66 84.1 69.65 83.64 69.65 82.94C69.65 82.68 69.65 81.37 69.65 79.02L89.31 79.02Z" id="a141N2V5H"></path><path d="M65.06 5.9C67.97 4.27 71.39 3.95 74.67 4C78.19 4.04 81.78 5.15 84.46 7.5C87.11 9.78 88.68 13.14 89.14 16.58C89.38 18.15 89.32 19.73 89.33 21.31C89.33 23.47 89.33 34.27 89.33 53.71L69.69 53.71C69.69 39.02 69.69 30.86 69.69 29.22C69.73 28.67 69.53 28.07 69.04 27.77C68.36 27.27 67.33 27.58 66.97 28.33C65.43 31.03 53.12 52.63 51.58 55.33C51.05 56.24 51.87 57.48 52.91 57.4C56.97 57.4 89.46 57.4 93.52 57.4C95.98 57.39 98.52 57.3 100.86 58.19C102.77 58.86 104.44 60.24 105.27 62.1C106.07 63.81 106.21 65.74 106.08 67.6C105.93 69.72 105.1 71.87 103.46 73.26C101.49 74.95 98.81 75.48 96.29 75.54C90.29 75.54 42.27 75.54 36.27 75.54C33.84 75.56 31.32 75.14 29.27 73.76C27.32 72.47 26 70.25 25.88 67.9C25.78 65.72 26.45 63.59 27.37 61.64C28.06 60.17 28.93 58.79 29.83 57.43C32.82 52.8 56.77 15.77 59.76 11.14C61.11 9.03 62.85 7.12 65.06 5.9" id="d5XmKXyxe"></path><path d="M84.17 61.56C84.17 61.56 84.17 61.56 84.17 61.56C83.63 61.56 83.51 61.91 83.2 62.35C83.08 62.51 82.51 63.31 81.48 64.76C80.45 63.31 79.87 62.51 79.76 62.35C79.45 61.91 79.33 61.56 78.79 61.56C78.69 61.56 77.89 61.56 77.79 61.56C77.25 61.56 77.07 61.92 77.38 62.36C77.57 62.63 78.54 63.98 80.29 66.43C78.46 68.98 77.45 70.4 77.25 70.68C76.86 71.23 77.12 71.48 77.65 71.48C77.75 71.48 78.54 71.48 78.64 71.48C79.04 71.48 79.31 71.13 79.62 70.69C79.75 70.52 80.37 69.65 81.48 68.09C82.59 69.65 83.21 70.52 83.33 70.69C83.64 71.13 83.92 71.48 84.31 71.48C84.41 71.48 85.2 71.48 85.3 71.48C85.84 71.47 86.09 71.22 85.71 70.68C85.51 70.4 84.49 68.98 82.67 66.42C84.41 63.98 85.38 62.63 85.57 62.35C85.89 61.92 85.7 61.56 85.17 61.56C85.03 61.56 84.7 61.56 84.17 61.56Z" id="avC80uzZ"></path><path d="M42.43 67.97C42.44 69.02 43.08 69.95 44.46 69.97C46.01 69.99 46.75 68.89 46.75 67.97C46.75 67.93 46.75 67.75 46.75 67.42C45.9 67.42 45.44 67.42 45.34 67.42C44.99 67.42 44.69 67.37 44.68 67.03C44.68 66.96 44.68 66.39 44.68 66.32C44.68 66.02 44.9 65.94 45.04 65.93C45.37 65.93 47.99 65.93 48.32 65.93C48.6 65.94 48.75 66.09 48.75 66.32C48.75 66.5 48.75 67.95 48.75 68.13C48.47 71.05 46.01 71.56 44.61 71.56C42.67 71.55 40.4 70.91 40.36 67.85C40.36 67.59 40.36 65.55 40.36 65.3C40.37 62.99 41.82 61.58 44.35 61.52C47.16 61.53 48.29 62.52 48.63 63.96C48.66 64.16 48.76 64.59 48.29 64.61C48.18 64.61 47.28 64.61 47.17 64.61C46.7 64.6 46.7 64.58 46.49 64.19C46.1 63.49 45.46 63.08 44.54 63.09C43.2 63.1 42.42 64.01 42.43 64.88C42.43 64.88 42.43 67.66 42.43 67.97Z" id="h1yS7vPJed"></path><path d="M60.51 61.64C60.24 61.64 60.02 61.85 60.02 62.12C60.02 63.01 60.02 70.08 60.02 70.97C60.02 71.23 60.24 71.45 60.51 71.45C61.11 71.45 65.93 71.45 66.54 71.45C66.69 71.45 66.81 71.26 66.81 71.03C66.81 70.94 66.81 70.19 66.81 70.09C66.81 69.86 66.69 69.68 66.54 69.68C66.24 69.68 64.76 69.68 62.09 69.68C62.09 65.14 62.09 62.62 62.09 62.12C62.09 61.85 61.87 61.64 61.61 61.64C61.39 61.64 60.73 61.64 60.51 61.64Z" id="b2I4T2RE9h"></path><path d="M86.74 61.64C86.52 61.66 86.39 61.86 86.51 62.06C86.72 62.44 87.77 64.33 89.67 67.74C89.67 67.74 89.67 67.74 89.67 67.74C89.82 67.97 89.79 68.11 89.79 68.34C89.79 68.62 89.79 70.84 89.79 71.12C89.79 71.36 90.03 71.41 90.2 71.42C90.4 71.43 90.62 71.44 90.79 71.44C91.01 71.44 91.19 71.43 91.38 71.42C91.56 71.41 91.79 71.36 91.79 71.12C91.79 70.84 91.79 68.62 91.79 68.34C91.79 68.11 91.77 67.97 91.91 67.74C92.23 67.17 94.76 62.63 95.08 62.06C95.2 61.86 95.06 61.66 94.85 61.64C94.75 61.63 93.96 61.62 93.59 61.64C93.25 61.66 93.22 61.79 93.12 61.94C92.97 62.21 92.19 63.55 90.79 65.97C89.39 63.55 88.62 62.21 88.46 61.94C88.36 61.79 88.34 61.66 88 61.64C87.81 61.63 87.52 61.63 87.27 61.63C87.01 61.63 86.79 61.64 86.74 61.64Z" id="aG1vm45eH"></path><path d="M53.52 61.61C52.83 61.62 52.76 61.98 52.59 62.5C52.28 63.32 49.84 69.85 49.54 70.67C49.29 71.24 49.27 71.44 49.87 71.45C49.96 71.45 50.71 71.45 50.8 71.45C51.17 71.45 51.29 71.33 51.42 71C51.46 70.9 51.67 70.38 52.05 69.46L56.14 69.46C56.48 70.33 56.67 70.82 56.71 70.91C56.87 71.41 56.99 71.45 57.31 71.45C57.42 71.45 58.24 71.45 58.34 71.45C58.93 71.45 58.76 71.06 58.65 70.73C58.34 69.9 55.83 63.26 55.52 62.43C55.33 61.86 55.25 61.62 54.63 61.62C54.41 61.62 53.74 61.61 53.52 61.61ZM54.06 63.6L55.68 67.86L52.49 67.86L54.06 63.6Z" id="cWff4CEbx"></path><path d="M71.41 61.6C70.73 61.62 70.66 61.98 70.48 62.5C70.18 63.31 67.74 69.85 67.43 70.66C67.19 71.23 67.17 71.44 67.77 71.44C67.86 71.44 68.6 71.44 68.69 71.44C69.06 71.44 69.18 71.33 69.32 71C69.36 70.89 69.57 70.38 69.94 69.45L74.03 69.45C74.38 70.33 74.57 70.81 74.6 70.91C74.77 71.41 74.88 71.44 75.21 71.44C75.31 71.44 76.13 71.44 76.24 71.44C76.82 71.44 76.65 71.06 76.54 70.73C76.23 69.9 73.73 63.26 73.42 62.43C73.22 61.86 73.15 61.62 72.53 61.61C72.3 61.61 71.64 61.6 71.41 61.6ZM71.95 63.59L73.58 67.86L70.38 67.86L71.95 63.59Z" id="bfYg5fo6J"></path></defs><g><g><g><use xlink:href="#a141N2V5H" opacity="1" fill="#0bb89b" fill-opacity="1"></use><g><use xlink:href="#a141N2V5H" opacity="1" fill-opacity="0" stroke="#000000" stroke-width="0.35" stroke-opacity="0"></use></g></g><g><use xlink:href="#d5XmKXyxe" opacity="1" fill="#0bb89b" fill-opacity="1"></use><g><use xlink:href="#d5XmKXyxe" opacity="1" fill-opacity="0" stroke="#000000" stroke-width="0.35" stroke-opacity="0"></use></g></g><g><use xlink:href="#avC80uzZ" opacity="1" fill="#ffffff" fill-opacity="1"></use><g><use xlink:href="#avC80uzZ" opacity="1" fill-opacity="0" stroke="#000000" stroke-width="1" stroke-opacity="0"></use></g></g><g><use xlink:href="#h1yS7vPJed" opacity="1" fill="#ffffff" fill-opacity="1"></use><g><use xlink:href="#h1yS7vPJed" opacity="1" fill-opacity="0" stroke="#000000" stroke-width="1" stroke-opacity="0"></use></g></g><g><use xlink:href="#b2I4T2RE9h" opacity="1" fill="#ffffff" fill-opacity="1"></use><g><use xlink:href="#b2I4T2RE9h" opacity="1" fill-opacity="0" stroke="#000000" stroke-width="0.91" stroke-opacity="0"></use></g></g><g><use xlink:href="#aG1vm45eH" opacity="1" fill="#ffffff" fill-opacity="1"></use><g><use xlink:href="#aG1vm45eH" opacity="1" fill-opacity="0" stroke="#000000" stroke-width="0.35" stroke-opacity="0"></use></g></g><g><use xlink:href="#cWff4CEbx" opacity="1" fill="#ffffff" fill-opacity="1"></use><g><use xlink:href="#cWff4CEbx" opacity="1" fill-opacity="0" stroke="#000000" stroke-width="1" stroke-opacity="0"></use></g></g><g><use xlink:href="#bfYg5fo6J" opacity="1" fill="#ffffff" fill-opacity="1"></use><g><use xlink:href="#bfYg5fo6J" opacity="1" fill-opacity="0" stroke="#000000" stroke-width="1" stroke-opacity="0"></use></g></g></g></g></svg>