<?xml version="1.0" encoding="UTF-8" standalone="no"?>
<svg
   xmlns:dc="http://purl.org/dc/elements/1.1/"
   xmlns:cc="http://creativecommons.org/ns#"
   xmlns:rdf="http://www.w3.org/1999/02/22-rdf-syntax-ns#"
   xmlns:svg="http://www.w3.org/2000/svg"
   xmlns="http://www.w3.org/2000/svg"
   xmlns:xlink="http://www.w3.org/1999/xlink"
   xmlns:sodipodi="http://sodipodi.sourceforge.net/DTD/sodipodi-0.dtd"
   xmlns:inkscape="http://www.inkscape.org/namespaces/inkscape"
   width="132"
   height="99"
   viewBox="0 0 34.924999 26.193751"
   version="1.1"
   id="svg8"
   inkscape:version="1.0.2 (e86c870879, 2021-01-15, custom)"
   sodipodi:docname="Gospel_Channel.svg">
  <defs
     id="defs2">
    <linearGradient
       inkscape:collect="always"
       id="linearGradient887">
      <stop
         style="stop-color:#2ab5e6;stop-opacity:1;"
         offset="0"
         id="stop883" />
      <stop
         style="stop-color:#146bb6;stop-opacity:1"
         offset="1"
         id="stop885" />
    </linearGradient>
    <linearGradient
       inkscape:collect="always"
       xlink:href="#linearGradient887"
       id="linearGradient889"
       x1="-164.61752"
       y1="896.68441"
       x2="273.28516"
       y2="896.68441"
       gradientUnits="userSpaceOnUse"
       gradientTransform="matrix(0.07492152,0,0,0.07492152,13.391721,-54.084061)" />
  </defs>
  <sodipodi:namedview
     id="base"
     pagecolor="#ffffff"
     bordercolor="#666666"
     borderopacity="1.0"
     inkscape:pageopacity="0.0"
     inkscape:pageshadow="2"
     inkscape:zoom="2.8"
     inkscape:cx="46.342639"
     inkscape:cy="104.91812"
     inkscape:document-units="px"
     inkscape:current-layer="svg8"
     inkscape:document-rotation="0"
     showgrid="false"
     units="px"
     inkscape:window-width="1920"
     inkscape:window-height="1001"
     inkscape:window-x="-9"
     inkscape:window-y="-9"
     inkscape:window-maximized="1" />
  <metadata
     id="metadata5">
    <rdf:RDF>
      <cc:Work
         rdf:about="">
        <dc:format>image/svg+xml</dc:format>
        <dc:type
           rdf:resource="http://purl.org/dc/dcmitype/StillImage" />
        <dc:title></dc:title>
      </cc:Work>
    </rdf:RDF>
  </metadata>
  <path
     id="path26"
     style="display:inline;fill:url(#linearGradient889);fill-opacity:1;stroke-width:0.0749214"
     d="m 1.2052682,7.8555491 c -0.172799,-0.002 -0.159606,0.10284 -0.126869,0.34168 0.195913,1.42934 1.064349,3.0300399 2.145361,3.9541599 0.44967,0.38441 1.308276,0.84002 1.723195,0.91442 0.2427,0.0435 0.225964,0.0232 -0.224765,-0.27261 -0.610538,-0.40074 -1.490673,-1.24629 -1.909913,-1.8347 -0.325072,-0.45625 -0.873631,-1.4939599 -0.970322,-1.8355799 -0.02916,-0.10302 0.07668,0.0594 0.235154,0.361 0.795186,1.5133799 2.225403,2.7460499 3.891236,3.3536099 l 0.551961,0.20136 v 0.46504 c 0,0.6578 -0.238365,1.50879 -0.635808,2.27003 -0.18774,0.35958 -0.386752,0.71315 -0.442213,0.78565 -0.161461,0.21106 -0.865022,0.29423 -2.262864,0.2675 -0.711795,-0.0136 -1.253392,-0.002 -1.203427,0.0259 0.180287,0.10054 1.693505,0.28651 2.331347,0.28651 0.397794,0 0.642407,0.029 0.627175,0.0743 -0.01373,0.0408 -0.258233,0.31056 -0.543327,0.59937 -0.285095,0.28881 -0.493235,0.52504 -0.462553,0.52504 0.0701,0 0.882379,-0.62051 1.280544,-0.97823 0.219137,-0.19687 0.420509,-0.29496 0.749215,-0.3648 0.723813,-0.15378 1.370571,-0.50189 1.882842,-1.01349 0.560498,-0.55976 0.915507,-1.2346 1.232108,-2.34247 0.298591,-1.04485 0.462488,-1.29246 1.0509498,-1.58652 0.256128,-0.12799 0.527015,-0.23267 0.601859,-0.23267 0.162944,0 -0.8292418,-1.07191 -1.1489908,-1.24132 -0.435473,-0.23073 -1.054306,-0.0239 -1.55272,0.51903 -0.210789,0.22962 -0.211547,0.22929 0.181597,0.0877 0.623318,-0.22456 1.208709,-0.10141 1.500918,0.31578 0.09833,0.14039 0.08902,0.15944 -0.119552,0.24584 -0.396004,0.16403 -0.731663,0.64412 -0.94047,1.34478 -0.469454,1.57527 -0.681527,1.9975 -1.307322,2.60352 -0.306807,0.29711 -1.079293,0.76985 -1.258008,0.76985 -0.04435,0 0.02089,-0.15045 0.145014,-0.33437 0.507439,-0.75188 0.894992,-1.94836 0.891741,-2.75292 -0.0021,-0.52124 -0.204313,-1.32812 -0.474405,-1.8928 -0.815017,-1.7039599 -2.32545,-2.8304799 -4.619526,-3.4450699 -0.437819,-0.11729 -0.684761,-0.18309 -0.819162,-0.18452 z M 15.766529,10.991419 c -0.883904,-0.002 -1.73124,0.49857 -2.131752,1.33 -0.257836,0.53525 -0.295557,1.62496 -0.07638,2.20682 0.271894,0.72184 0.802933,1.22437 1.540427,1.45761 1.03717,0.32801 2.163299,-0.18638 2.672152,-1.22055 0.232682,-0.47289 0.249787,-0.55899 0.249787,-1.25815 0,-0.67037 -0.02244,-0.79621 -0.209839,-1.17782 -0.25594,-0.5212 -0.82457,-1.05132 -1.302346,-1.21411 -0.244239,-0.0832 -0.494552,-0.1232 -0.742045,-0.1238 z m -3.487802,0.0596 -0.695804,0.0364 c -0.382722,0.02 -0.732931,0.0592 -0.778189,0.0872 -0.195231,0.12066 0.182409,0.47051 0.621468,0.57581 0.124483,0.0298 0.370564,0.0578 0.546986,0.062 0.37023,0.009 0.433802,-0.0785 0.356609,-0.48992 z m 8.54398,0.0199 c -0.768905,0 -1.178255,0.1056 -1.528575,0.39436 -0.486739,0.40121 -0.618968,1.00044 -0.341097,1.54511 0.163026,0.31956 0.317857,0.43913 1.127188,0.87009 0.629346,0.33511 0.827147,0.59541 0.686732,0.90359 -0.151877,0.33333 -0.424061,0.43554 -1.276885,0.47923 l -0.795017,0.0407 0.01815,0.29486 c 0.01,0.16219 0.06053,0.32179 0.112382,0.35471 0.148366,0.0942 1.025343,0.07 1.498723,-0.0414 0.820409,-0.19307 1.272021,-0.66839 1.28186,-1.34903 0.0045,-0.31365 -0.03669,-0.46523 -0.188181,-0.692 -0.179154,-0.26817 -0.36207,-0.39734 -1.35488,-0.95715 -0.903546,-0.50948 -0.31687,-1.24858 0.89979,-1.13363 0.533883,0.0504 0.59281,-0.001 0.509086,-0.44777 l -0.04902,-0.26164 z m 10.397994,0.007 c -0.03525,5.2e-4 -0.06876,0.002 -0.09833,0.006 l -0.215107,0.0246 -0.01975,2.41622 -0.01975,2.41622 h 1.499454 1.499455 v -0.37461 -0.3746 h -1.086362 -1.086362 l -0.01317,-0.80541 c -0.0072,-0.44297 -0.0028,-1.35157 0.0097,-2.01908 l 0.02268,-1.21352 -0.18789,-0.0473 c -0.07747,-0.0195 -0.198775,-0.03 -0.304515,-0.0284 z m -8.011773,0.002 c -0.07858,-9.4e-4 -0.151441,7.5e-4 -0.216424,0.005 l -0.32661,0.0234 -0.01976,2.42017 -0.01975,2.42017 0.394362,-0.0227 0.394363,-0.0227 0.02151,-0.68878 0.02151,-0.68893 0.353097,-0.0445 c 0.865226,-0.10892 1.337339,-0.33727 1.638615,-0.79253 0.547673,-0.82759 0.280925,-1.882 -0.588397,-2.3255 -0.277704,-0.14167 -1.102433,-0.27698 -1.652517,-0.28359 z m 3.390345,0.0663 v 2.34759 c 0,1.29052 0.02259,2.36886 0.05005,2.39734 0.02747,0.0275 0.737319,0.05 1.577449,0.05 h 1.527404 l -0.02283,-0.35588 -0.02283,-0.35588 -1.142553,-0.0206 -1.142553,-0.0208 v -0.70971 -0.70985 h 1.165673 1.165527 l -0.02297,-0.31841 -0.02312,-0.31842 -1.142553,-0.0206 -1.142553,-0.0208 v -0.63289 -0.63288 l 1.142553,-0.0208 1.142553,-0.0206 0.02312,-0.31842 0.02297,-0.31841 h -1.577595 z m -10.908251,0.54303 c 0.503345,-0.0182 1.01121,0.25293 1.30381,0.82151 0.222953,0.43323 0.298372,1.19119 0.165647,1.66524 -0.10567,0.37742 -0.507813,0.88926 -0.829259,1.05549 -0.441336,0.22822 -1.19161,0.11057 -1.598667,-0.25067 -0.495062,-0.43933 -0.6569,-1.64887 -0.317977,-2.37671 0.274313,-0.58908 0.773101,-0.89665 1.276446,-0.91486 z m 7.761547,0.13126 h 0.34461 c 0.410386,0 0.820219,0.17824 0.983783,0.42787 0.152127,0.23218 0.163892,0.76464 0.02268,1.02857 -0.06047,0.11302 -0.229044,0.26505 -0.374607,0.33787 -0.145565,0.0728 -0.424859,0.15343 -0.62059,0.17911 l -0.355878,0.0467 v -1.01012 z m -11.650296,1.53589 -0.02107,0.96564 -0.02093,0.96579 -0.466064,-0.0479 c -0.689329,-0.0708 -1.3574968,-0.42146 -1.6339328,-0.85736 -0.133879,-0.2111 -0.218034,-0.44519 -0.218034,-0.60639 0,-0.412 -0.136247,-0.18608 -0.267493,0.44338 -0.06351,0.30458 -0.09775,0.62274 -0.07609,0.70693 0.0999,0.38833 1.0836788,0.89149 1.9642018,1.00456 0.679877,0.0873 0.836075,0.0922 1.171966,0.0367 l 0.282712,-0.0468 -0.02049,-1.2823 -0.02049,-1.2823 h -0.337147 z m 9.158278,3.29801 c -0.227423,0 -0.407484,0.0637 -0.540401,0.19111 -0.132917,0.12682 -0.199449,0.2993 -0.199449,0.51757 0,0.21767 0.06653,0.39029 0.199449,0.51772 0.132917,0.12683 0.312978,0.19023 0.540401,0.19023 0.07621,0 0.14938,-0.009 0.219496,-0.0256 0.07012,-0.0171 0.1376,-0.0424 0.20223,-0.076 v -0.28256 c -0.06524,0.0445 -0.1296,0.077 -0.193011,0.0977 -0.06341,0.0207 -0.13021,0.0312 -0.200327,0.0312 -0.125601,0 -0.224374,-0.0402 -0.29632,-0.12072 -0.07195,-0.0805 -0.107847,-0.19118 -0.107847,-0.33203 10e-7,-0.14145 0.0359,-0.25242 0.107847,-0.3329 0.07195,-0.0805 0.170719,-0.12072 0.29632,-0.12072 0.07012,0 0.136917,0.0104 0.200327,0.0312 0.06341,0.0207 0.127772,0.0532 0.193011,0.0978 v -0.28257 c -0.06463,-0.0335 -0.132112,-0.0589 -0.20223,-0.0759 -0.07012,-0.0171 -0.143282,-0.0255 -0.219496,-0.0255 z m 1.00866,0.0246 v 1.36556 h 0.352073 v -0.57903 h 0.519475 v 0.57903 h 0.352073 v -1.36556 h -0.352073 v 0.5205 h -0.519475 v -0.5205 z m 2.355491,0 -0.50572,1.36556 h 0.353975 l 0.08677,-0.24876 h 0.550644 l 0.0859,0.24876 h 0.353975 l -0.50572,-1.36556 z m 1.551695,0 v 1.36556 h 0.333782 v -0.93652 l 0.496647,0.93652 h 0.393338 v -1.36556 h -0.333927 v 0.93652 l -0.496502,-0.93652 z m 2.012638,0 v 1.36556 h 0.333782 v -0.93652 l 0.496647,0.93652 h 0.393192 v -1.36556 h -0.333782 v 0.93652 l -0.496647,-0.93652 z m 2.087559,0 v 1.36556 h 0.970322 v -0.26618 h -0.618249 v -0.31285 h 0.562497 v -0.26603 h -0.562497 v -0.25433 h 0.598055 v -0.26617 z m 1.649591,0 v 1.36556 h 0.970321 v -0.26618 h -0.618248 v -1.09938 z m -7.091058,0.32017 0.186572,0.54318 H 24.34753 Z" />
</svg>
