<?xml version="1.0" encoding="UTF-8" standalone="no"?>
<svg
   xmlns:dc="http://purl.org/dc/elements/1.1/"
   xmlns:cc="http://creativecommons.org/ns#"
   xmlns:rdf="http://www.w3.org/1999/02/22-rdf-syntax-ns#"
   xmlns:svg="http://www.w3.org/2000/svg"
   xmlns="http://www.w3.org/2000/svg"
   xmlns:sodipodi="http://sodipodi.sourceforge.net/DTD/sodipodi-0.dtd"
   xmlns:inkscape="http://www.inkscape.org/namespaces/inkscape"
   version="1.1"
   id="Layer_1"
   x="0px"
   y="0px"
   width="132"
   height="99"
   viewBox="0 0 132 99.000001"
   enable-background="new 0 0 1000 319.0681763"
   xml:space="preserve"
   sodipodi:docname="HBO2.svg"
   inkscape:version="1.0.2 (e86c870879, 2021-01-15, custom)"><metadata
   id="metadata13"><rdf:RDF><cc:Work
       rdf:about=""><dc:format>image/svg+xml</dc:format><dc:type
         rdf:resource="http://purl.org/dc/dcmitype/StillImage" /><dc:title></dc:title></cc:Work></rdf:RDF></metadata><defs
   id="defs11" /><sodipodi:namedview
   pagecolor="#ffffff"
   bordercolor="#666666"
   borderopacity="1"
   objecttolerance="10"
   gridtolerance="10"
   guidetolerance="10"
   inkscape:pageopacity="0"
   inkscape:pageshadow="2"
   inkscape:window-width="1920"
   inkscape:window-height="1001"
   id="namedview9"
   showgrid="false"
   inkscape:zoom="1.648"
   inkscape:cx="500"
   inkscape:cy="159.53409"
   inkscape:window-x="-9"
   inkscape:window-y="-9"
   inkscape:window-maximized="1"
   inkscape:current-layer="Layer_1" />
<g
   id="g6"
   transform="matrix(0.124,0,0,0.124,4,29.717772)">
	<path
   fill="#82c759"
   d="m 911.9231,254.8183 c 0,0 61.84326,-98.17925 69.35687,-112.48012 7.57623,-14.36348 11.83838,-29.39076 11.83838,-45.143485 0,-53.951962 -44.16565,-96.790978 -102.12635,-96.790978 -54.77179,0 -95.96917,38.041229 -100.79974,87.825478 l -0.3468,4.766952 h 68.15747 l 1.1676,-4.766952 c 4.54639,-17.552384 18.05725,-19.099617 18.05725,-19.099617 0,0 6.18799,-0.662827 17.52155,-0.442208 10.16492,0.284211 17.36255,3.473099 23.23456,11.743973 3.5993,5.019371 5.52417,10.765152 5.52417,16.983971 0,8.713086 -1.00965,15.942516 -10.4491,31.411036 -8.39709,13.85962 -124.1297,188.9094 -124.1297,188.9094 H 1000 V 254.8183 Z"
   id="path2" />
	<path
   fill="#000101"
   d="m 616.07025,221.42456 c 34.56818,0 62.5379,-28.03332 62.5379,-62.50607 0,-34.50552 -27.96972,-62.47526 -62.5379,-62.47526 -34.47369,0 -62.44342,27.96974 -62.44342,62.47526 0,34.47275 27.96973,62.50607 62.44342,62.50607 m -79.45923,-62.50607 c 0,-43.88143 35.60962,-79.491015 79.45923,-79.491015 43.94409,0 79.52185,35.609585 79.52185,79.491015 0,43.91224 -35.57776,79.49101 -79.52185,79.49101 -43.84961,0 -79.45923,-35.57877 -79.45923,-79.49101 m -110.64959,0 c 9.81811,-1.23125 26.20187,-12.50122 31.97943,-19.66803 -2.02027,8.90288 -2.17826,34.66351 0.18884,43.53363 -6.59744,-10.13315 -22.22397,-22.60353 -32.16827,-23.8656 m -57.2035,-84.163561 c 12.53302,0 22.35114,12.344185 22.35114,26.391671 0,14.04845 -9.81812,26.39167 -22.35114,26.39167 H 325.85535 V 74.754929 Z m -0.12619,117.248051 c 12.50123,0 22.35111,12.34321 22.35111,26.35986 0,14.11108 -9.84988,26.39168 -22.35111,26.39168 H 325.72913 V 192.00298 Z M 616.03845,319.06815 C 703.54797,319.03638 774.73627,246.36438 774.73627,158.8549 774.70447,69.514938 703.54797,0.0626688 616.03845,4.71e-5 528.68701,-0.063538 484.01654,64.305779 472.99896,90.255241 473.09338,51.267944 434.6427,5.2718277 389.75162,5.2082443 H 244.97606 V 317.52093 l 134.98924,0.0318 c 54.42499,0 93.12808,-47.16376 93.19168,-87.60389 12.4386,25.47644 55.53003,89.15114 142.88147,89.11934 M 227.32927,317.61533 H 142.47108 V 196.42213 H 87.38327 v 121.1932 H 0.3159987 L 0,5.2400374 H 87.38327 V 121.44566 h 55.08781 V 5.2400374 h 84.85819 z"
   id="path4" />
</g>
</svg>
