<?xml version="1.0" encoding="UTF-8" standalone="no"?>
<svg
   xmlns:dc="http://purl.org/dc/elements/1.1/"
   xmlns:cc="http://creativecommons.org/ns#"
   xmlns:rdf="http://www.w3.org/1999/02/22-rdf-syntax-ns#"
   xmlns:svg="http://www.w3.org/2000/svg"
   xmlns="http://www.w3.org/2000/svg"
   xmlns:sodipodi="http://sodipodi.sourceforge.net/DTD/sodipodi-0.dtd"
   xmlns:inkscape="http://www.inkscape.org/namespaces/inkscape"
   version="1.1"
   id="Layer_1"
   x="0px"
   y="0px"
   width="132"
   height="99"
   viewBox="0 0 132 99.000001"
   enable-background="new 0 0 1000 319.686676"
   xml:space="preserve"
   sodipodi:docname="HBO3.svg"
   inkscape:version="1.0.2 (e86c870879, 2021-01-15, custom)"><metadata
   id="metadata13"><rdf:RDF><cc:Work
       rdf:about=""><dc:format>image/svg+xml</dc:format><dc:type
         rdf:resource="http://purl.org/dc/dcmitype/StillImage" /><dc:title></dc:title></cc:Work></rdf:RDF></metadata><defs
   id="defs11" /><sodipodi:namedview
   pagecolor="#ffffff"
   bordercolor="#666666"
   borderopacity="1"
   objecttolerance="10"
   gridtolerance="10"
   guidetolerance="10"
   inkscape:pageopacity="0"
   inkscape:pageshadow="2"
   inkscape:window-width="1920"
   inkscape:window-height="1001"
   id="namedview9"
   showgrid="false"
   inkscape:zoom="1.648"
   inkscape:cx="500"
   inkscape:cy="159.84334"
   inkscape:window-x="-9"
   inkscape:window-y="-9"
   inkscape:window-maximized="1"
   inkscape:current-layer="Layer_1" />
<g
   id="g6"
   transform="matrix(0.124,0,0,0.124,4,29.679423)">
	<path
   fill="#000101"
   d="m 617.34863,221.81535 c 34.55408,0 62.58905,-28.00309 62.58905,-62.5572 0,-34.61689 -28.03497,-62.652819 -62.58905,-62.652819 -34.61688,0 -62.65283,28.035929 -62.65283,62.652819 0,34.55411 28.03595,62.5572 62.65283,62.5572 m -79.67639,-62.5572 c 0,-44.01467 35.66168,-79.676393 79.67639,-79.676393 43.95191,0 79.61261,35.661723 79.61261,79.676393 0,43.95189 -35.6607,79.61265 -79.61261,79.61265 -44.01471,0 -79.67639,-35.66076 -79.67639,-79.61265 m -110.90768,0 c 9.90472,-1.26598 26.2958,-12.56224 32.08587,-19.71294 -2.02496,8.89081 -2.18335,34.67966 0.22211,43.6033 -6.61377,-10.15776 -22.27673,-22.65626 -32.30798,-23.89036 M 369.52328,74.930183 c 12.49946,0 22.37137,12.341103 22.37137,26.422317 0,14.04935 -9.87191,26.42135 -22.37137,26.42135 H 326.48972 V 74.930183 Z m -0.12652,117.457727 c 12.46762,0 22.3714,12.37201 22.3714,26.45323 0,14.08121 -9.90378,26.42134 -22.3714,26.42134 h -43.0654 V 192.38791 Z M 617.31677,319.68668 C 704.93567,319.65479 776.25818,246.8452 776.25818,159.19537 776.22632,69.677971 704.93567,0.0956001 617.31677,0.0318667 529.69879,-0.030901 484.98788,64.424796 473.91278,90.466643 474.03928,51.388423 435.52982,5.2850405 390.53406,5.2213046 H 245.48459 V 318.10393 l 135.20843,0.0638 c 54.55191,0 93.3144,-47.24286 93.409,-87.74544 12.43576,25.47309 55.59677,89.29629 143.21475,89.26443 m -389.552,-1.45624 h -85.0242 v -121.444 H 87.555191 V 318.23044 H 0.3167356 L 0,5.2531762 H 87.555191 V 121.66703 H 142.74057 V 5.2531762 h 85.0242 V 318.23044 Z"
   id="path2" />
	<path
   fill="#f2cf73"
   d="M 968.83246,153.43523 C 980.8877,137.4874 991.70984,118.0912 991.70984,97.143196 991.70984,43.002655 948.29584,0 890.10529,0 835.17291,0 796.60071,38.161812 791.79175,88.156792 h 68.28448 c 3.54401,-15.219727 15.34626,-18.289551 15.34626,-18.289551 0,0 6.17053,-1.328743 17.53051,-1.328743 14.58722,0 30.21833,6.518188 30.21833,31.832892 0,25.31374 -21.80164,28.88957 -21.80164,28.88957 0,0 -6.10681,1.13852 -14.27051,1.13852 -0.31671,0 -7.40466,-0.0309 -7.40466,-0.0309 v 58.79211 c 0,0 11.99249,-0.0319 12.46765,-0.0319 11.48547,0 15.85223,1.36061 15.85223,1.36061 0,0 21.61237,4.52507 21.61237,30.15555 0,25.66234 -22.08655,29.30093 -22.08655,29.30093 0,0 -7.11975,1.10761 -15.37805,1.10761 -8.29114,0 -15.40997,-1.10761 -15.40997,-1.10761 0,0 -15.18885,-2.53195 -20.3783,-18.03654 l -65.97467,28.13057 c 17.02356,35.06012 55.43744,59.45648 100.11743,59.45648 60.46851,0 109.48334,-44.74277 109.48334,-99.89629 0,-25.37747 -14.1131,-48.50787 -31.16754,-66.16491"
   id="path4" />
</g>
</svg>
