<?xml version="1.0" encoding="UTF-8" standalone="no"?>
<svg
   xmlns:dc="http://purl.org/dc/elements/1.1/"
   xmlns:cc="http://creativecommons.org/ns#"
   xmlns:rdf="http://www.w3.org/1999/02/22-rdf-syntax-ns#"
   xmlns:svg="http://www.w3.org/2000/svg"
   xmlns="http://www.w3.org/2000/svg"
   xmlns:sodipodi="http://sodipodi.sourceforge.net/DTD/sodipodi-0.dtd"
   xmlns:inkscape="http://www.inkscape.org/namespaces/inkscape"
   version="1.1"
   id="Layer_1"
   x="0px"
   y="0px"
   width="132"
   height="99"
   viewBox="0 0 132 99.000001"
   enable-background="new 0 0 1000 509.137"
   xml:space="preserve"
   sodipodi:docname="Hobby_TV.svg"
   inkscape:version="1.0.2 (e86c870879, 2021-01-15, custom)"><metadata
   id="metadata27"><rdf:RDF><cc:Work
       rdf:about=""><dc:format>image/svg+xml</dc:format><dc:type
         rdf:resource="http://purl.org/dc/dcmitype/StillImage" /><dc:title></dc:title></cc:Work></rdf:RDF></metadata><defs
   id="defs25" /><sodipodi:namedview
   pagecolor="#ffffff"
   bordercolor="#666666"
   borderopacity="1"
   objecttolerance="10"
   gridtolerance="10"
   guidetolerance="10"
   inkscape:pageopacity="0"
   inkscape:pageshadow="2"
   inkscape:window-width="1920"
   inkscape:window-height="1001"
   id="namedview23"
   showgrid="false"
   inkscape:zoom="0.80332016"
   inkscape:cx="100.7575"
   inkscape:cy="-29.944837"
   inkscape:window-x="-9"
   inkscape:window-y="-9"
   inkscape:window-maximized="1"
   inkscape:current-layer="Layer_1"
   inkscape:document-rotation="0" />

<g
   id="g846"
   transform="matrix(0.09158277,0,0,0.09158277,51.172349,41.131773)"><path
     style="fill:#e80000"
     d="m 126.94312,587.2787 c -93.57302,-6.58638 -185.91159,-41.00325 -261.5,-97.4675 -37.85169,-28.27507 -73.66235,-64.08573 -101.93742,-101.93742 -50.87312,-68.10358 -83.65952,-148.97269 -94.46416,-233 -12.5041,-97.24404 3.55242,-193.84463 46.8728,-282 24.68387,-50.23076 55.01626,-92.54604 94.9995,-132.52928 39.98324,-39.98324 82.29852,-70.31563 132.52928,-94.9995 72.8239,-35.78634 149.06097,-52.57194 230,-50.64056 60.62082,1.44655 114.80938,12.3664 170.39238,34.33675 16.4884,6.51739 39.10762,16.75623 39.10762,17.70249 0,0.27972 -2.42516,3.88875 -5.38925,8.02007 -10.53089,14.67787 -19.46134,34.64874 -24.16155,54.03167 -10.22406,42.16242 -1.00049,88.6198 24.8724,125.27765 7.9153,11.21474 24.76437,28.06381 35.97911,35.97911 18.14726,12.80823 42.62834,23.0617 64.19929,26.88874 13.49854,2.39486 38.37704,2.40743 52,0.0263 23.81815,-4.1632 48.84868,-15.19589 69.1033,-30.45863 l 4.1033,-3.09202 6.73872,14.06363 c 20.79583,43.40064 36.15899,93.27927 43.08875,139.89362 4.84153,32.5675 6.6395,74.05737 4.55019,105 -8.26183,122.35754 -58.73063,233.70493 -145.05498,320.02928 -39.98324,39.98324 -82.29852,70.31563 -132.52928,94.9995 -58.76622,28.87827 -120.05855,45.37955 -185.5,49.9408 -16.61112,1.15779 -51.09856,1.125 -68,-0.0647 z m 327.2697,-759.95898 c -14.94702,-2.95006 -25.2136,-13.83119 -28.27349,-29.96592 -0.54791,-2.88915 -0.99621,-19.59158 -0.99621,-37.11651 v -31.86351 h -7 -7 v -13 -13 h 7.5 7.5 v -15.5 -15.5 h 17.47395 17.47396 l 0.27604,15.25 0.27605,15.25 9.21188,0.28702 9.21188,0.28702 3.42727,10.71298 c 1.885,5.89214 3.73248,11.72548 4.10551,12.96298 l 0.67824,2.25 h -13.6317 -13.63169 l 0.31431,31.2964 c 0.33978,33.83387 0.50344,34.86132 6.02355,37.81559 1.87471,1.00331 15.93641,1.44479 20.06494,0.62995 0.90911,-0.17943 1.29755,3.28844 1.50347,13.42253 l 0.27767,13.66447 -2.77767,0.59559 c -10.91774,2.34101 -24.56792,2.98984 -32.00796,1.52141 z m 61.73482,-46.69594 c -8.30901,-25.1625 -17.52487,-53.0625 -20.47969,-62 l -5.37239,-16.25 h 18.25259 18.25259 l 10.26578,36.75 c 5.64618,20.2125 10.57227,37.07655 10.94687,37.47567 0.37459,0.39912 5.22941,-16.02588 10.78849,-36.5 l 10.10742,-37.22567 18.53986,-0.27178 18.53985,-0.27178 -20.66792,62.02178 -20.66793,62.02178 h -16.69911 -16.69911 z"
     id="path848"
     sodipodi:nodetypes="csssssssssssssssscsssssscssscccccccccccccccsscccsssscsssscccssscccccccs" /><path
     style="display:inline;fill:#fdfdfd"
     d="m 402.94312,238.49378 v -17.12 l 15.75,-0.0173 c 25.84853,-0.0284 41.66223,-2.37269 47.62032,-7.05932 3.86485,-3.04009 6.60274,-9.05646 7.49531,-16.47053 0.42727,-3.54905 0.74479,-6.45259 0.70561,-6.45232 -0.0392,2.8e-4 -2.54624,1.00513 -5.57124,2.233 -4.86309,1.97396 -7.29493,2.23445 -21,2.24949 -13.52181,0.0148 -16.32956,-0.27071 -22,-2.23738 -8.51984,-2.95493 -15.71709,-8.51303 -19.78661,-15.28028 -7.04283,-11.71159 -8.19574,-21.1498 -8.2058,-67.1764 l -0.008,-34.71109 -8.75,-0.28894 -8.75,-0.28893 -0.27539,-15.75 -0.2754,-15.75 h 30.96022 30.96022 l 0.36715,51.25 c 0.40047,55.90218 0.65358,58.48003 6.25883,63.7459 3.12531,2.93607 12.11618,3.85681 20.13587,2.06209 l 5.3685,-1.20142 V 102.30206 44.37378 h 22.05562 22.05562 l -0.37971,78.25 c -0.34377,70.84482 -0.54758,78.91244 -2.15364,85.25 -6.46497,25.51088 -23.17078,39.71089 -53.07789,45.11641 -6.0349,1.09077 -17.31875,1.79091 -34.25,2.12514 l -25.25,0.49845 z m -408.5,-43.69216 c -23.40138,-5.09025 -37.04231,-19.1941 -41.05847,-42.45185 -2.28799,-13.24983 -1.5837,-63.36057 1.01863,-72.47599 C -40.25796,61.17321 -28.1271,49.55231 -8.37083,44.2128 2.78638,41.19736 27.0248,41.17603 38.09723,44.1719 57.6884,49.47272 69.41798,59.96256 75.1424,77.30163 c 1.99657,6.04756 2.20179,9.06823 2.57118,37.84494 0.44267,34.48526 -0.36161,42.23171 -5.52334,53.19806 -5.53839,11.76659 -17.9628,21.47176 -32.78164,25.60697 -8.54834,2.38541 -35.55934,2.89601 -44.96548,0.85 z m 32.25425,-36.09368 c 7.41565,-5.53658 8.58798,-11.87224 8.09425,-43.74401 -0.34503,-22.27249 -0.44606,-23.26537 -2.8531,-28.03818 -1.37247,-2.72141 -3.67973,-5.80708 -5.12724,-6.85703 -5.63934,-4.09049 -17.2645,-4.10226 -23.48906,-0.0238 -1.37187,0.89888 -3.48089,3.47809 -4.68671,5.73157 -2.08982,3.90556 -2.20588,5.45402 -2.48073,33.09725 -0.28359,28.5227 -0.25067,29.07406 2,33.5 3.39268,6.67168 8.95926,9.28023 18.60438,8.71821 5.2034,-0.30321 8.07323,-0.99164 9.93821,-2.38405 z m 108.24575,36.99762 c -7.9473,-0.7321 -31.01569,-4.22345 -32.0243,-4.8468 -0.62209,-0.38447 -0.9757,-31.93066 -0.9757,-87.044 V 17.37378 h -9 -9 v -15.5 -15.5 h 31 31 v 29.125 29.125 l 3.25,-0.66741 c 32.36657,-6.64665 56.46833,1.8417 67.20988,23.67052 5.25066,10.67032 6.57216,18.32081 7.2111,41.74689 1.50397,55.14152 -6.20573,73.9133 -34.37095,83.68736 -7.42991,2.57837 -8.7965,2.71516 -28.80003,2.88288 -11.55,0.0968 -23.025,-0.0105 -25.5,-0.23846 z m 37.81018,-35.35741 c 6.15172,-3.75061 6.63334,-6.29159 7.00822,-36.97437 0.4512,-36.92915 -0.75956,-42.85674 -9.63108,-47.15137 -3.54311,-1.71519 -5.50737,-2.00325 -10.52185,-1.54304 -3.39101,0.31122 -7.85297,1.06593 -9.91547,1.67713 l -3.75,1.11129 v 41.78633 c 0,22.98248 0.3,42.08633 0.66667,42.45299 0.36666,0.36667 5.65416,0.66499 11.75,0.66293 9.3522,-0.003 11.60035,-0.31896 14.39351,-2.02189 z m 108.68982,35.34973 c -6.63161,-0.56318 -20.60422,-2.34209 -27.25,-3.46932 l -6.25,-1.06009 V 104.27113 17.37378 h -9.5 -9.5 v -15.5 -15.5 h 31.46916 31.46916 l -0.003,28.63298 c -0.002,15.74814 0.13139,28.76722 0.29545,28.93128 0.16406,0.16405 4.56672,-0.34261 9.78369,-1.12592 11.66265,-1.75111 15.35561,-1.74824 25.27243,0.0196 20.21546,3.6038 33.02169,15.40513 38.85793,35.80879 2.24567,7.85092 2.35503,9.67281 2.35503,39.23325 0,26.46347 -0.26619,32.13466 -1.81901,38.75358 -5.0988,21.73383 -17.30201,33.69544 -38.93461,38.16378 -7.1334,1.47344 -33.48851,1.99018 -46.24638,0.90674 z m 38.33123,-36.65962 c 4.91592,-4.71439 5.33503,-8.21868 4.98627,-41.6914 -0.30352,-29.13145 -0.41402,-30.65347 -2.50989,-34.57033 -3.37511,-6.30754 -6.47056,-7.90063 -15.30761,-7.87809 -4.125,0.0105 -9.17794,0.60351 -11.22875,1.31777 l -3.72876,1.29865 -0.27124,41.92982 c -0.17625,27.24516 0.079,42.09152 0.72875,42.39155 0.55,0.25396 6.25926,0.3663 12.68725,0.24964 11.34326,-0.20585 11.77428,-0.29555 14.64398,-3.04761 z M -194.05688,90.37378 v -104 h 22 22 v 29.125 29.125 l 3.23284,-0.64657 c 8.49455,-1.69891 23.05942,-2.74097 30.30722,-2.16836 14.28583,1.12863 22.96118,4.22047 29.9702,10.68115 6.01918,5.54829 8.98435,10.7428 11.68479,20.46995 2.12057,7.6384 2.20993,9.88896 2.56743,64.66383 l 0.3704,56.75 h -22.06644 -22.06644 v -49.7899 c 0,-54.86146 -0.3714,-58.97833 -5.81565,-64.46566 -3.97246,-4.00388 -11.59429,-5.3864 -20.93435,-3.79727 l -7.25,1.23353 v 58.40965 58.40965 h -22 -22 z"
     id="path850"
     sodipodi:nodetypes="ccssssssssccccccccssscccccssssccsssscsssssscsssssssscccsscccccccccssssscssssscsscscsccccccccccsssssssccssssscssssccccccssssscccssscccccc" /></g></svg>
