<?xml version="1.0" encoding="UTF-8" standalone="no"?>
<svg
   xmlns:dc="http://purl.org/dc/elements/1.1/"
   xmlns:cc="http://creativecommons.org/ns#"
   xmlns:rdf="http://www.w3.org/1999/02/22-rdf-syntax-ns#"
   xmlns:svg="http://www.w3.org/2000/svg"
   xmlns="http://www.w3.org/2000/svg"
   xmlns:sodipodi="http://sodipodi.sourceforge.net/DTD/sodipodi-0.dtd"
   xmlns:inkscape="http://www.inkscape.org/namespaces/inkscape"
   version="1.1"
   id="Layer_1"
   x="0px"
   y="0px"
   width="132"
   height="99"
   viewBox="0 0 132 98.999998"
   enable-background="new 0 0 1000 214.893"
   xml:space="preserve"
   sodipodi:docname="Hustler_TV.svg"
   inkscape:version="1.0.2 (e86c870879, 2021-01-15, custom)"><metadata
   id="metadata59"><rdf:RDF><cc:Work
       rdf:about=""><dc:format>image/svg+xml</dc:format><dc:type
         rdf:resource="http://purl.org/dc/dcmitype/StillImage" /><dc:title></dc:title></cc:Work></rdf:RDF></metadata><defs
   id="defs57" /><sodipodi:namedview
   pagecolor="#ffffff"
   bordercolor="#666666"
   borderopacity="1"
   objecttolerance="10"
   gridtolerance="10"
   guidetolerance="10"
   inkscape:pageopacity="0"
   inkscape:pageshadow="2"
   inkscape:window-width="1920"
   inkscape:window-height="1001"
   id="namedview55"
   showgrid="false"
   inkscape:zoom="1.648"
   inkscape:cx="500"
   inkscape:cy="107.4465"
   inkscape:window-x="-9"
   inkscape:window-y="-9"
   inkscape:window-maximized="1"
   inkscape:current-layer="Layer_1" />
<g
   id="g52"
   transform="matrix(0.124,0,0,0.124,4,36.176634)">
	<path
   fill="#d71920"
   d="m 737.855,29.067 c 0,0 4.483,-1.052 7.123,-1.052 2.63,0 7.887,-1.064 7.887,-1.064 l -11.854,-1.037 c 0,0 7.633,-1.064 10.537,-1.064 2.907,0 11.839,-0.774 17.371,-1.053 5.532,-0.262 14.744,-2.102 14.744,-2.102 0,0 -14.22,0 -17.896,-0.786 -3.695,-0.805 -15.008,-0.279 -17.386,-0.279 -2.364,0 -3.154,-0.525 -3.154,-0.525 h -3.432 c -1.56,0 -7.095,-1.56 -7.095,-1.56 0,0 4.747,-0.278 6.848,-0.789 2.089,-0.526 2.089,-1.329 1.317,-2.117 -0.793,-0.787 -2.63,-1.841 -2.63,-1.841 l 2.103,-1.064 c 0,0 1.299,0.279 3.413,0.279 2.104,0 -0.259,-2.118 1.332,-2.118 1.56,0 1.298,-0.511 4.203,-1.313 2.891,-0.788 9.47,-1.84 16.317,-1.84 6.847,0 28.144,-0.261 28.144,-0.261 0,0 91.574,-0.25 96.584,0 4.989,0.261 7.634,0.524 11.313,2.379 3.674,1.838 3.674,3.153 3.674,3.153 l -1.837,0.785 2.38,0.265 c 0,0 0.525,1.313 -0.263,2.364 -0.805,1.052 -1.84,2.118 -1.84,2.118 l 1.637,1.91 c 0,0 -1.39,-0.598 -3.227,-0.598 h -4.991 c 0,0 1.049,0.772 3.154,1.838 2.112,1.053 1.837,0.264 3.951,0.264 2.104,0 1.856,0.263 1.578,1.313 -0.263,1.051 -1.313,2.365 -4.732,4.743 -3.427,2.364 -8.169,0.773 -8.169,0.773 h -39.72 l -0.802,3.168 c 0,0 1.842,-1.854 3.432,-1.854 1.56,0 1.56,1.065 2.628,2.643 1.049,1.575 -0.267,1.854 -2.104,5.254 -1.855,3.431 -6.059,4.744 -10.523,8.699 -4.481,3.941 -9.75,13.678 -18.161,30.259 -8.436,16.565 -19.481,52.634 -21.848,64.209 -2.367,11.575 -6.584,33.938 -6.584,33.938 0,0 -0.249,-3.679 -0.249,-5.256 0,-1.576 -0.539,-3.153 -0.539,-3.153 0,0 -0.788,4.73 -0.788,7.356 0,2.644 -1.051,4.48 -1.051,4.48 0,0 -0.264,-5.794 -0.527,-8.96 -0.277,-3.153 0,-7.095 0,-8.934 0,-1.84 -0.785,-3.68 -0.785,-3.68 0,0 -0.805,3.154 -1.052,5.257 -0.261,2.115 -0.539,3.955 -1.314,6.057 -0.788,2.102 -1.838,2.628 -1.838,2.628 v -3.679 c 0,0 -1.331,1.575 -1.331,3.152 0,1.576 -0.773,3.678 -0.773,3.678 0,0 -0.525,-3.678 -0.8,-5.779 -0.264,-2.102 -0.791,-6.057 -1.052,-10.261 -0.264,-4.219 0.788,-10.275 0.788,-10.275 0,0 -1.052,2.377 -1.576,4.479 -0.543,2.104 -1.578,5.271 -1.578,5.271 0,0 1.054,-13.211 4.732,-29.471 3.297,-14.596 8.871,-31.615 14.48,-43.702 8.685,-22.871 26.562,-54.735 26.562,-54.735 z m 13.155,-15.53 c -2.628,0.525 -3.679,0.788 -3.679,0.788 0,0 3.429,1.591 6.054,1.591 2.63,0 5.274,0.248 5.274,0.248 v -2.627 c 0,0 -4.996,-0.524 -7.649,0 m 11.589,13.151 c 2.381,0 5.53,-0.773 5.53,-0.773 0,0 -3.149,-0.276 -4.991,-0.276 h -5.283 c -10e-4,-10e-4 2.377,1.049 4.744,1.049 m 91.051,2.642 h -2.905 c 0,0 0,2.364 1.332,1.839 1.313,-0.524 1.573,-1.839 1.573,-1.839 m -62.371,122.1 c 0,0 0.266,2.363 0,5.529 -0.249,3.154 0.266,7.896 0.266,7.896 0,0 2.362,-3.955 2.362,-6.844 0,-2.906 -2.628,-6.581 -2.628,-6.581 M 867.326,39.854 c -1.049,2.626 -1.313,9.999 -2.625,14.202 -1.315,4.219 -9.999,46.052 -11.841,60.269 -1.837,14.202 -2.362,28.143 -2.362,36.564 0,8.962 4.742,18.156 9.209,18.156 4.714,0 7.619,-6.829 10.787,-11.033 3.154,-4.219 25.268,-34.491 36.3,-46.84 11.064,-12.364 43.18,-45.263 54.214,-54.226 11.046,-8.932 16.331,-13.414 21.045,-16.845 4.759,-3.416 8.698,-6.567 8.698,-6.567 0,0 -2.375,0.524 -5.793,2.102 -3.43,1.592 -9.459,6.058 -9.459,6.058 0,0 4.189,-4.466 6.307,-6.846 2.103,-2.366 4.465,-4.203 4.465,-4.203 0,0 -0.522,-0.265 -1.84,-0.541 -1.313,-0.248 -1.837,0.541 -2.902,1.065 -1.035,0.525 -1.84,0.525 -1.56,-0.524 0.247,-1.066 -0.543,-1.314 -0.543,-1.314 0,0 -1.838,1.314 -4.745,3.151 -2.874,1.84 -4.187,4.204 -6.567,6.584 -2.363,2.365 -2.61,5.78 -5.269,7.095 -2.628,1.313 -3.665,1.59 -3.665,1.59 0,0 1.317,-1.59 3.665,-4.481 2.38,-2.891 6.848,-7.356 6.848,-7.356 0,0 -1.842,0.773 -3.418,1.315 -1.574,0.524 -2.628,-0.542 -1.84,-1.315 0.79,-0.802 1.56,-2.378 1.56,-2.378 0,0 -2.348,2.905 -3.396,3.94 -1.065,1.066 -1.842,1.854 -2.905,1.313 -1.037,-0.524 0,-1.837 0.805,-2.875 0.788,-1.064 1.837,-2.642 1.837,-2.642 0,0 -3.43,2.117 -4.991,4.204 -1.593,2.116 -2.381,3.956 -5.008,6.32 -2.639,2.365 -5.269,3.678 -5.269,3.678 0,0 0.788,-1.839 2.63,-3.94 1.837,-2.102 2.639,-3.941 2.639,-3.941 0,0 -2.114,1.576 -4.48,3.678 -2.362,2.117 -4.481,5.271 -5.253,5.271 -0.788,0 -0.788,-2.102 -0.788,-2.102 0,0 -24.671,26.9 -31.047,34.462 -12.904,15.266 -40.009,50.27 -40.009,50.27 0,0 -0.804,-14.216 3.94,-33.164 4.728,-18.944 9.223,-38.68 12.1,-43.161 2.905,-4.466 2.905,-3.679 4.742,-7.371 1.842,-3.678 2.63,-3.94 2.383,-6.042 -0.277,-2.102 0,-2.644 -5.008,-3.431 -4.994,-0.772 -4.742,-3.152 -11.837,-1.84 -7.126,1.312 -9.754,3.691 -9.754,3.691 m 107.896,-5.533 c -1.313,0.789 -2.101,1.839 -4.203,3.941 -2.114,2.115 -3.168,3.692 -1.049,3.431 2.084,-0.263 2.627,-1.592 4.989,-3.431 2.38,-1.823 2.629,-4.466 2.629,-4.466 0,0 -1.051,-0.262 -2.366,0.525"
   id="path2" />
	<path
   fill="#d1d3d4"
   d="m 792.447,204.262 -1.105,-24.225 -0.417,0.21 -4.353,7.286 -0.52,-4.845 -0.289,0.144 v -2.808 l -0.514,-4.77 -1.513,-0.16 c 0,0 -0.534,-3.729 -0.816,-5.862 l -0.084,-0.67 c -0.284,-2.262 -0.762,-6.047 -1.014,-10.092 -0.021,-0.361 -0.037,-0.732 -0.047,-1.106 l -2.308,-0.465 c 0.035,-0.442 0.723,-8.896 2.87,-20.617 l -1.189,-11.684 2.751,3.845 c 0.147,-0.678 0.301,-1.361 0.452,-2.054 3.481,-15.385 9.17,-32.572 14.877,-44.937 5.69,-14.92 14.958,-33.17 21.01,-44.573 l -82.423,-0.444 -1.098,-9.753 c -1.099,-0.258 -2.418,-0.596 -4.013,-1.046 l 0.781,-7.223 -8.72,-5.027 1.445,-0.733 -0.827,-0.384 3.154,-0.797 12.792,-6.489 0.812,0.174 c 1.153,-0.883 2.553,-1.433 4.062,-1.588 0.799,-0.349 1.729,-0.707 3.116,-1.09 3.73,-1.019 11.025,-2.106 18.283,-2.106 6.823,0 28.053,-0.263 28.053,-0.263 0.07,0 40.783,-0.11 69.407,-0.11 25.226,0 26.972,0.087 27.629,0.12 5.565,0.291 9.293,0.651 14.269,3.161 2.445,1.221 4.152,2.542 5.325,3.859 l 0.778,0.085 1.639,4.104 c 0.807,2.021 1.096,4.906 -0.109,7.641 0.907,1.773 1.049,3.8 0.429,6.04 -0.939,3.739 -3.751,6.316 -7.684,9.055 -2.052,1.415 -4.483,2.275 -7.12,2.534 0.464,0.993 0.802,2.168 0.968,3.556 l 0.053,0.411 c 0.457,3.891 -0.862,6.185 -1.926,8.029 -0.312,0.54 -0.708,1.223 -1.179,2.174 -1.322,2.65 -2.01,3.624 -3.018,4.996 -0.479,0.653 -1.104,1.503 -2.143,3.098 -1.778,2.941 -5.826,19.405 -8.779,31.429 l -2.348,9.498 c -0.632,2.521 -1.161,4.947 -1.6,7.259 8.389,-10.653 18.364,-23.183 24.89,-30.904 6.397,-7.586 30.23,-33.583 31.245,-34.687 l 12.797,-13.959 v 5.255 l 20.999,-15.636 -5.628,12.903 c 1.116,-0.41 2.24,-0.882 2.284,-0.901 l 0.136,0.2 c 1.019,-1.028 2.23,-2.08 3.741,-3.044 2.663,-1.685 4.351,-2.885 4.425,-2.94 l 2.996,-2.135 3.504,1.102 c 0.401,0.125 0.786,0.279 1.152,0.458 0.888,-0.11 1.874,-0.109 3.012,0.105 2.01,0.419 3.149,0.88 3.781,1.198 l 10.42,5.241 -6.866,5.338 2.222,4.646 c -0.168,0.134 -4.145,3.311 -9.001,6.799 -3.11,2.261 -6.533,5.052 -12.205,9.675 -2.415,1.967 -5.203,4.242 -8.51,6.914 -10.712,8.7 -42.764,41.576 -53.353,53.409 -9.491,10.621 -27.931,35.572 -33.989,43.771 l -1.9,2.565 c -0.671,0.895 -1.311,1.896 -1.963,2.914 -3.003,4.675 -7.115,11.076 -14.728,11.076 -9.917,0 -16.58,-13.197 -16.58,-25.524 0,-4.403 0.177,-20.125 2.429,-37.511 1.879,-14.507 10.599,-56.665 12.109,-61.515 0.291,-0.933 0.538,-2.283 0.758,-3.732 -0.455,0.313 -0.914,0.617 -1.359,0.912 -1.425,0.946 -2.896,1.924 -4.306,3.174 -3.729,3.276 -9.92,15.148 -16.477,28.074 -8.024,15.764 -18.842,50.813 -21.201,62.351 -2.326,11.387 -6.521,33.605 -6.563,33.828 l -1.602,-0.096 c -0.401,3.033 -1.483,5.143 -1.865,5.812 z M 873.784,44.676 c -0.124,0.841 -0.25,1.771 -0.35,2.521 -0.396,2.962 -0.849,6.318 -1.702,9.055 -1.175,3.795 -9.78,45.242 -11.562,59.018 -2.14,16.512 -2.308,31.438 -2.308,35.619 0,3.785 1.14,7.261 2.252,9.356 0.674,-0.936 1.396,-2.056 1.924,-2.874 0.857,-1.34 1.709,-2.651 2.571,-3.794 l 1.835,-2.48 c 6.812,-9.217 24.903,-33.699 34.858,-44.835 9.137,-10.212 32.69,-34.508 47.147,-48.008 l -9.643,2.584 1.41,-1.705 -0.047,0.021 c -7.771,8.523 -19.697,21.665 -23.771,26.496 -12.659,14.979 -39.549,49.683 -39.819,50.03 l -12.069,15.59 -1.112,-19.686 c -0.035,-0.625 -0.81,-15.563 4.149,-35.367 l 2.334,-9.444 c 4.892,-19.892 7.796,-31.365 10.713,-35.908 1.296,-1.992 2.065,-3.034 2.65,-3.833 0.63,-0.856 0.837,-1.14 1.499,-2.446 -1.146,-0.357 -2.037,-0.745 -2.726,-1.046 -0.909,-0.397 -0.909,-0.397 -1.34,-0.397 -0.378,0 -1.077,0.046 -2.262,0.265 -2.076,0.382 -3.596,0.86 -4.631,1.268 z m -76.709,92.971 2.707,6.313 c 0.305,-1.529 0.594,-2.971 0.859,-4.269 2.556,-12.513 13.818,-49.019 22.503,-66.078 9.671,-19.068 14.568,-27.796 19.856,-32.449 0.667,-0.585 1.321,-1.122 1.956,-1.614 l 0.876,-3.519 c -1.531,-1.664 -2.457,-4.016 -2.457,-6.702 v -3.922 l -4.362,7.775 c -0.175,0.314 -17.718,31.661 -26.104,53.747 l -0.201,0.483 c -5.255,11.33 -10.743,27.903 -13.981,42.225 -0.623,2.776 -1.171,5.466 -1.652,8.01 z m 167.406,-106.946 0.641,0.646 c 0.354,-0.414 0.734,-0.847 1.141,-1.287 -0.581,-0.091 -1.187,-0.082 -1.739,0.026 l -0.445,1.022 c 0.228,-0.231 0.369,-0.375 0.402,-0.407 z M 848.685,24.649 c -0.793,0.47 -1.835,1.378 -2.217,3.028 l 1.373,0.316 z m -64.269,-2.701 58.96,0.318 V 21.96 h 5.994 l 0.135,-0.54 h 39.361 l -3.288,-2.417 -8.735,-0.969 4.693,-2.008 -1.737,-1.277 c -3.707,-0.007 -8.512,-0.011 -14.734,-0.011 -28.58,0 -69.216,0.109 -69.295,0.109 -0.021,0 -5.649,0.068 -12.042,0.136 z"
   id="path4" />
	<path
   fill="#d71920"
   d="m 737.855,29.067 c 0,0 4.483,-1.052 7.123,-1.052 2.63,0 7.887,-1.064 7.887,-1.064 l -11.854,-1.037 c 0,0 7.633,-1.064 10.537,-1.064 2.907,0 11.839,-0.774 17.371,-1.053 5.532,-0.262 14.744,-2.102 14.744,-2.102 0,0 -14.22,0 -17.896,-0.786 -3.695,-0.805 -15.008,-0.279 -17.386,-0.279 -2.364,0 -3.154,-0.525 -3.154,-0.525 h -3.432 c -1.56,0 -7.095,-1.56 -7.095,-1.56 0,0 4.747,-0.278 6.848,-0.789 2.089,-0.526 2.089,-1.329 1.317,-2.117 -0.793,-0.787 -2.63,-1.841 -2.63,-1.841 l 2.103,-1.064 c 0,0 1.299,0.279 3.413,0.279 2.104,0 -0.259,-2.118 1.332,-2.118 1.56,0 1.298,-0.511 4.203,-1.313 2.891,-0.788 9.47,-1.84 16.317,-1.84 6.847,0 28.144,-0.261 28.144,-0.261 0,0 91.574,-0.25 96.584,0 4.989,0.261 7.634,0.524 11.313,2.379 3.674,1.838 3.674,3.153 3.674,3.153 l -1.837,0.785 2.38,0.265 c 0,0 0.525,1.313 -0.263,2.364 -0.805,1.052 -1.84,2.118 -1.84,2.118 l 2.103,0.772 c 0,0 -1.855,0.54 -3.692,0.54 h -4.991 c 0,0 1.049,0.772 3.154,1.838 2.112,1.053 1.837,0.264 3.951,0.264 2.104,0 1.856,0.263 1.578,1.313 -0.263,1.051 -1.313,2.365 -4.732,4.743 -3.427,2.364 -8.169,0.773 -8.169,0.773 h -39.72 l -0.802,3.168 c 0,0 1.842,-1.854 3.432,-1.854 1.56,0 1.56,1.065 2.628,2.643 1.049,1.575 -0.267,1.854 -2.104,5.254 -1.855,3.431 -6.059,4.744 -10.523,8.699 -4.481,3.941 -9.75,13.678 -18.161,30.259 -8.436,16.565 -19.481,52.634 -21.848,64.209 -2.367,11.575 -6.584,33.938 -6.584,33.938 0,0 -0.249,-3.679 -0.249,-5.256 0,-1.576 -0.539,-3.153 -0.539,-3.153 0,0 -0.788,4.73 -0.788,7.356 0,2.644 -1.051,4.48 -1.051,4.48 0,0 -0.264,-5.794 -0.527,-8.96 -0.277,-3.153 0,-7.095 0,-8.934 0,-1.84 -0.785,-3.68 -0.785,-3.68 0,0 -0.805,3.154 -1.052,5.257 -0.261,2.115 -0.539,3.955 -1.314,6.057 -0.788,2.102 -1.838,2.628 -1.838,2.628 v -3.679 c 0,0 -1.331,1.575 -1.331,3.152 0,1.576 -0.773,3.678 -0.773,3.678 0,0 -0.525,-3.678 -0.8,-5.779 -0.264,-2.102 -0.791,-6.057 -1.052,-10.261 -0.264,-4.219 0.788,-10.275 0.788,-10.275 0,0 -1.052,2.377 -1.576,4.479 -0.543,2.104 -1.578,5.271 -1.578,5.271 0,0 1.054,-13.211 4.732,-29.471 3.297,-14.596 8.871,-31.615 14.48,-43.702 8.685,-22.871 26.562,-54.735 26.562,-54.735 z m 13.155,-15.53 c -2.628,0.525 -3.679,0.788 -3.679,0.788 0,0 3.429,1.591 6.054,1.591 2.63,0 5.274,0.248 5.274,0.248 v -2.627 c 0,0 -4.996,-0.524 -7.649,0 m 11.589,13.151 c 2.381,0 5.53,-0.773 5.53,-0.773 0,0 -3.149,-0.276 -4.991,-0.276 h -5.283 c -10e-4,-10e-4 2.377,1.049 4.744,1.049 m 91.051,2.642 h -2.905 c 0,0 0,2.364 1.332,1.839 1.313,-0.524 1.573,-1.839 1.573,-1.839 m -62.371,122.1 c 0,0 0.266,2.363 0,5.529 -0.249,3.154 0.266,7.896 0.266,7.896 0,0 2.362,-3.955 2.362,-6.844 0,-2.906 -2.628,-6.581 -2.628,-6.581 M 867.326,39.854 c -1.049,2.626 -1.313,9.999 -2.625,14.202 -1.315,4.219 -9.999,46.052 -11.841,60.269 -1.837,14.202 -2.362,28.143 -2.362,36.564 0,8.962 4.742,18.156 9.209,18.156 4.714,0 7.619,-6.829 10.787,-11.033 3.154,-4.219 25.268,-34.491 36.3,-46.84 11.064,-12.364 43.18,-45.263 54.214,-54.226 11.046,-8.932 16.331,-13.414 21.045,-16.845 4.759,-3.416 8.698,-6.567 8.698,-6.567 0,0 -2.375,0.524 -5.793,2.102 -3.43,1.592 -9.459,6.058 -9.459,6.058 0,0 4.189,-4.466 6.307,-6.846 2.103,-2.366 4.465,-4.203 4.465,-4.203 0,0 -0.522,-0.265 -1.84,-0.541 -1.313,-0.248 -1.837,0.541 -2.902,1.065 -1.035,0.525 -1.84,0.525 -1.56,-0.524 0.247,-1.066 -0.543,-1.314 -0.543,-1.314 0,0 -1.838,1.314 -4.745,3.151 -2.874,1.84 -4.187,4.204 -6.567,6.584 -2.363,2.365 -2.61,5.78 -5.269,7.095 -2.628,1.313 -3.665,1.59 -3.665,1.59 0,0 1.317,-1.59 3.665,-4.481 2.38,-2.891 6.848,-7.356 6.848,-7.356 0,0 -1.842,0.773 -3.418,1.315 -1.574,0.524 -2.628,-0.542 -1.84,-1.315 0.79,-0.802 1.56,-2.378 1.56,-2.378 0,0 -2.348,2.905 -3.396,3.94 -1.065,1.066 -1.842,1.854 -2.905,1.313 -1.037,-0.524 0,-1.837 0.805,-2.875 0.788,-1.064 1.837,-2.642 1.837,-2.642 0,0 -3.43,2.117 -4.991,4.204 -1.593,2.116 -2.381,3.956 -5.008,6.32 -2.639,2.365 -5.269,3.678 -5.269,3.678 0,0 0.788,-1.839 2.63,-3.94 1.837,-2.102 2.639,-3.941 2.639,-3.941 0,0 -2.114,1.576 -4.48,3.678 -2.362,2.117 -4.481,5.271 -5.253,5.271 -0.788,0 -0.788,-2.102 -0.788,-2.102 0,0 -24.671,26.9 -31.047,34.462 -12.904,15.266 -40.009,50.27 -40.009,50.27 0,0 -0.804,-14.216 3.94,-33.164 4.728,-18.944 9.223,-38.68 12.1,-43.161 2.905,-4.466 2.905,-3.679 4.742,-7.371 1.842,-3.678 2.63,-3.94 2.383,-6.042 -0.277,-2.102 0,-2.644 -5.008,-3.431 -4.994,-0.772 -4.742,-3.152 -11.837,-1.84 -7.126,1.312 -9.754,3.691 -9.754,3.691 m 107.896,-5.533 c -1.313,0.789 -2.101,1.839 -4.203,3.941 -2.114,2.115 -3.168,3.692 -1.049,3.431 2.084,-0.263 2.627,-1.592 4.989,-3.431 2.38,-1.823 2.629,-4.466 2.629,-4.466 0,0 -1.051,-0.262 -2.366,0.525"
   id="path6" />
	<path
   fill="#d1d3d4"
   d="m 354.237,51.633 -17.179,17.632 c -7.81,-12.143 -21.398,-17.471 -35.835,-16.333 -9.106,0.877 -18.639,5.211 -22.392,14.304 -2.159,7.227 -0.583,15.458 4.468,20.961 8.102,7.794 18.216,10.686 28.038,14.291 18.057,6.219 39.149,11.705 48.84,31.353 8.801,15.457 4.614,37.133 -6.086,50.415 -16.028,19.661 -41.746,26.156 -65.728,19.223 -13.298,-4.349 -26.434,-13.004 -34.827,-25.718 -0.715,-1.299 -1.298,-2.744 -1.723,-4.189 5.635,-5.911 11.416,-11.983 17.341,-17.924 8.233,10.991 18.625,24.71 33.368,25.149 12.727,1.152 24.405,-3.474 31.337,-14.304 3.767,-5.78 2.467,-14.014 -0.713,-19.502 -6.642,-10.406 -17.765,-14.158 -27.879,-18.348 -16.333,-7.648 -36.112,-8.946 -47.395,-26.434 -7.795,-10.844 -10.524,-26.156 -5.767,-39.309 7.942,-21.952 31.194,-35.104 54.021,-35.104 19.373,0.001 37.865,6.365 48.111,23.837"
   id="path8" />
	<path
   fill="#d1d3d4"
   d="m 307.137,214.255 c -7.044,0 -14.115,-1.013 -21.019,-3.009 -16.675,-5.449 -30.547,-15.73 -39.329,-29.031 l -0.335,-0.554 c -0.985,-1.789 -1.792,-3.745 -2.398,-5.815 l -1.313,-4.478 3.711,-3.894 c 5.486,-5.756 11.159,-11.707 16.976,-17.537 l 6.598,-6.615 5.6,7.477 c 7.205,9.617 16.169,21.588 27.137,21.915 l 0.488,0.03 c 1.018,0.092 2.028,0.139 3.027,0.139 6.337,0 15.083,-1.865 20.769,-10.75 1.845,-2.83 0.981,-7.846 -0.898,-11.088 -4.474,-6.993 -12.573,-10.289 -21.15,-13.774 l -3.161,-1.304 c -4.209,-1.973 -8.758,-3.509 -13.573,-5.139 -12.872,-4.353 -27.453,-9.282 -37.076,-24.064 -9.493,-13.325 -12.12,-31.597 -6.688,-46.614 8.614,-23.81 33.955,-40.438 61.626,-40.438 24.996,0 44.56,9.884 55.086,27.83 l 3.118,5.317 -28.576,29.329 -5.498,-8.55 c -5.297,-8.235 -14.267,-12.771 -25.257,-12.771 -1.04,0 -2.087,0.042 -3.142,0.125 -2.707,0.263 -12.113,1.715 -15.394,8.956 -1.185,4.451 -0.147,9.438 2.637,12.606 5.79,5.471 13.274,8.139 21.192,10.961 1.278,0.455 2.557,0.912 3.83,1.379 1.43,0.49 3.035,1.031 4.653,1.574 17.907,6.012 38.193,12.826 48.546,33.58 11.014,19.597 4.869,44.626 -6.936,59.279 -12.923,15.853 -32.323,24.926 -53.251,24.928 z m -45.605,-39.156 c 6.772,9.288 17.346,16.77 29.346,20.693 5.177,1.491 10.734,2.289 16.256,2.289 16.285,0 30.734,-6.726 40.689,-18.936 8.292,-10.293 12.571,-28.582 5.327,-41.306 l -0.225,-0.423 C 345.583,122.53 329.338,117.074 313.63,111.8 c -1.66,-0.558 -3.305,-1.109 -4.926,-1.669 -1.379,-0.504 -2.61,-0.943 -3.842,-1.382 -8.832,-3.148 -18.847,-6.718 -27.168,-14.726 l -0.351,-0.359 c -6.91,-7.527 -9.307,-18.541 -6.258,-28.745 l 0.273,-0.769 c 4.429,-10.736 15.305,-17.94 29.092,-19.27 1.62,-0.128 3.091,-0.188 4.552,-0.188 12.797,0 24.215,4.461 32.538,12.489 l 6.255,-6.419 C 333.722,38.607 318.104,35.88 306.128,35.88 c -20.988,0 -40.076,12.241 -46.416,29.77 -3.693,10.208 -1.838,22.704 4.728,31.837 l 0.229,0.336 c 6.561,10.17 16.856,13.652 28.778,17.684 4.962,1.679 10.094,3.413 15.063,5.724 l 2.582,1.056 c 10.053,4.088 21.446,8.721 28.871,20.352 4.565,7.863 6.418,19.445 0.674,28.266 -8.085,12.631 -22.445,19.367 -38.605,17.965 -14.854,-0.554 -25.482,-10.85 -33.62,-20.928 -2.318,2.386 -4.614,4.782 -6.88,7.157 z"
   id="path10" />
	<polygon
   fill="#d1d3d4"
   points="93.46,198.704 93.46,131.533 37.278,131.533 37.235,198.704 8.086,198.704 8.086,35.299 37.133,35.299 37.133,102.063 93.401,102.063 93.46,35.299 122.652,35.299 122.652,198.704 "
   id="polygon12" />
	<path
   fill="#d1d3d4"
   d="M 130.738,206.791 H 85.375 V 139.618 H 45.359 l -0.043,67.173 H 0 V 27.214 h 45.218 v 66.764 h 40.104 l 0.059,-66.764 h 45.357 z m -29.192,-16.172 h 13.021 V 43.386 h -13.028 l -0.06,66.763 H 29.046 V 43.386 H 16.171 v 147.233 h 12.983 l 0.043,-67.172 h 72.348 v 67.172 z"
   id="path14" />
	<path
   fill="#d1d3d4"
   d="m 159.216,145.254 c 0.146,12.421 2.745,25.704 15.296,31.062 8.817,3.896 21.239,3.166 28.916,-3.036 9.518,-7.371 9.955,-19.21 10.246,-30.624 l 0.131,-107.34 h 29.047 V 145.4 c -0.716,17.837 -3.781,30.127 -13.283,42.184 -11.283,12.145 -25.426,18.202 -41.613,19.223 -16.611,0 -31.194,-5.925 -43.206,-17.632 -5.911,-6.935 -9.225,-15.02 -11.839,-23.543 -2.466,-9.108 -2.89,-19.224 -3.02,-29.324 V 35.315 h 29.324 v 109.939 z"
   id="path16" />
	<path
   fill="#d1d3d4"
   d="m 188.212,214.893 h -0.255 c -18.847,0 -35.283,-6.705 -48.85,-19.928 l -0.511,-0.545 c -7.358,-8.633 -11.036,-18.653 -13.415,-26.421 -2.88,-10.621 -3.25,-21.863 -3.376,-31.589 V 27.229 h 45.497 v 118.024 c 0.202,17.085 5.656,21.606 10.384,23.623 2.591,1.145 5.679,1.752 8.791,1.752 4.68,0 9.005,-1.326 11.869,-3.64 6.291,-4.874 6.949,-12.877 7.245,-24.54 l 0.138,-115.22 h 45.211 v 118.17 c -0.712,17.916 -3.536,32.618 -15.019,47.188 l -0.427,0.5 c -12.326,13.268 -28.149,20.598 -47.028,21.789 z m -37.544,-31.245 c 10.329,9.941 22.785,15.011 37.035,15.07 14.579,-0.973 26.268,-6.34 35.718,-16.398 7.572,-9.718 10.655,-19.856 11.354,-37.245 L 234.768,43.4 h -12.886 l -0.121,99.266 c -0.309,12.217 -0.691,27.179 -13.382,37.007 -5.642,4.562 -13.467,7.13 -21.902,7.13 v 0 c -5.39,0 -10.657,-1.069 -15.233,-3.092 -19.761,-8.433 -20.026,-30.961 -20.113,-38.362 V 43.4 h -13.152 v 92.906 c 0.112,8.631 0.425,18.665 2.738,27.21 1.94,6.315 4.704,13.851 9.951,20.132 z"
   id="path18" />
	<polygon
   fill="#d1d3d4"
   points="361.9,63.34 361.9,35.315 475.883,35.315 475.883,63.34 433.263,63.34 433.263,198.574 404.084,198.574 404.084,63.34 "
   id="polygon20" />
	<path
   fill="#d1d3d4"
   d="M 441.35,206.66 H 395.998 V 71.426 H 353.815 V 27.229 H 483.97 v 44.196 h -42.62 z m -29.181,-16.171 h 13.007 V 55.255 h 42.621 V 43.4 h -97.811 v 11.854 h 42.183 z"
   id="path22" />
	<polygon
   fill="#d1d3d4"
   points="514.46,35.315 514.46,173.716 580.759,173.849 580.759,198.574 485.269,198.574 485.269,35.315 "
   id="polygon24" />
	<path
   fill="#d1d3d4"
   d="M 588.842,206.66 H 477.181 V 27.229 h 45.364 v 138.416 l 66.297,0.132 z m -95.487,-16.171 h 79.318 v -8.57 l -66.297,-0.133 V 43.4 h -13.021 z"
   id="path26" />
	<polygon
   fill="#d1d3d4"
   points="613.703,129.358 613.703,171.411 680.306,171.366 680.306,198.998 584.524,198.998 584.524,35.753 680.306,35.753 680.29,63.194 613.862,63.194 613.743,102.487 679.591,102.487 679.591,129.285 "
   id="polygon28" />
	<path
   fill="#d1d3d4"
   d="M 688.392,207.085 H 576.442 V 27.667 h 111.952 l -0.021,43.613 h -66.451 l -0.07,23.12 h 65.824 v 42.963 l -65.89,0.072 v 25.885 l 66.605,-0.045 v 43.81 z m -95.783,-16.173 h 79.609 v -11.455 l -66.603,0.046 v -58.222 l 65.887,-0.072 v -10.636 h -65.866 l 0.166,-55.466 h 66.402 l 0.007,-11.269 h -79.603 v 147.074 z"
   id="path30" />
	<path
   fill="#d1d3d4"
   d="m 762.946,125.038 c 11.985,-5.503 22.379,-17.777 26.451,-30.054 5.475,-15.896 0.569,-33.076 -10.859,-44.649 C 768.29,37.911 753.695,35.053 738.094,35.213 l -51.281,0.103 v 163.389 h 29.047 v -69.916 l 50.838,69.786 h 32.233 L 749.52,128.483 c 4.614,-0.716 9.094,-1.708 13.426,-3.445 M 716.137,103.217 V 63.616 c 9.109,0 18.497,-0.131 27.587,0.162 5.053,0.291 9.389,2.45 13.299,5.341 5.924,4.919 6.64,13.007 5.05,20.376 -1.593,6.495 -8.232,11.4 -14.289,12.7 -9.968,2.029 -21.107,0.583 -31.647,1.022"
   id="path32" />
	<path
   fill="#d1d3d4"
   d="M 723.947,206.791 H 678.73 V 27.245 l 60.564,-0.126 c 13.048,0 31.902,1.853 45.247,17.791 13.979,14.336 18.771,34.497 12.503,52.708 -4.903,14.773 -16.973,28.455 -30.723,34.768 l -0.366,0.158 c -0.949,0.38 -1.924,0.738 -2.926,1.073 l 51.49,73.043 h -51.936 l -38.638,-53.039 v 53.17 z m -29.049,-16.172 h 12.876 v -86.662 l 0.275,0.377 V 55.53 L 729.15,55.5 c 4.082,0 9.456,0.023 14.835,0.195 6.253,0.36 12.022,2.619 17.842,6.921 l 0.361,0.28 c 7.49,6.221 10.328,16.536 7.789,28.306 -2.593,10.584 -12.431,17.17 -20.5,18.9 -5.653,1.149 -11.253,1.295 -15.508,1.295 -2.233,0 -4.485,-0.047 -6.74,-0.094 -3.606,-0.07 -7.211,-0.148 -10.759,-0.009 l -3.25,0.136 57.592,79.059 h 12.523 L 735.4,122.49 l 12.878,-1.997 c 4.73,-0.735 8.281,-1.626 11.471,-2.886 9.503,-4.439 18.516,-14.759 21.973,-25.169 4.318,-12.552 0.887,-26.474 -8.938,-36.422 l -0.487,-0.537 C 765.348,47.051 755.169,43.292 739.295,43.292 l -44.396,0.093 v 147.234 z m 29.327,-95.547 c 1.112,0.018 2.227,0.042 3.343,0.063 2.141,0.046 4.28,0.09 6.402,0.09 3.499,0 8.043,-0.109 12.2,-0.954 3.222,-0.691 7.278,-3.56 8.05,-6.701 0.521,-2.433 1.438,-8.882 -2.212,-12.103 -3.174,-2.305 -5.959,-3.457 -8.752,-3.618 -4.51,-0.141 -9.308,-0.176 -14.105,-0.176 l -4.926,0.011 z"
   id="path34" />
	<path
   d="m 354.237,51.633 -17.179,17.632 c -7.81,-12.143 -21.398,-17.471 -35.835,-16.333 -9.106,0.877 -18.639,5.211 -22.392,14.304 -2.159,7.227 -0.583,15.458 4.468,20.961 8.102,7.794 18.216,10.686 28.038,14.291 18.057,6.219 39.149,11.705 48.84,31.353 8.801,15.457 4.614,37.133 -6.086,50.415 -16.028,19.661 -41.746,26.156 -65.728,19.223 -13.298,-4.349 -26.434,-13.004 -34.827,-25.718 -0.715,-1.299 -1.298,-2.744 -1.723,-4.189 5.635,-5.911 11.416,-11.983 17.341,-17.924 8.233,10.991 18.625,24.71 33.368,25.149 12.727,1.152 24.405,-3.474 31.337,-14.304 3.767,-5.78 2.467,-14.014 -0.713,-19.502 -6.642,-10.406 -17.765,-14.158 -27.879,-18.348 -16.333,-7.648 -36.112,-8.946 -47.395,-26.434 -7.795,-10.844 -10.524,-26.156 -5.767,-39.309 7.942,-21.952 31.194,-35.104 54.021,-35.104 19.373,0.001 37.865,6.365 48.111,23.837"
   id="path36" />
	<polygon
   points="93.46,198.704 93.46,131.533 37.278,131.533 37.235,198.704 8.086,198.704 8.086,35.299 37.133,35.299 37.133,102.063 93.401,102.063 93.46,35.299 122.652,35.299 122.652,198.704 "
   id="polygon38" />
	<path
   d="m 159.216,145.254 c 0.146,12.421 2.745,25.704 15.296,31.062 8.817,3.896 21.239,3.166 28.916,-3.036 9.518,-7.371 9.955,-19.21 10.246,-30.624 l 0.131,-107.34 h 29.047 V 145.4 c -0.716,17.837 -3.781,30.127 -13.283,42.184 -11.283,12.145 -25.426,18.202 -41.613,19.223 -16.611,0 -31.194,-5.925 -43.206,-17.632 -5.911,-6.935 -9.225,-15.02 -11.839,-23.543 -2.466,-9.108 -2.89,-19.224 -3.02,-29.324 V 35.315 h 29.324 v 109.939 z"
   id="path40" />
	<polygon
   points="361.9,63.34 361.9,35.315 475.883,35.315 475.883,63.34 433.263,63.34 433.263,198.574 404.084,198.574 404.084,63.34 "
   id="polygon42" />
	<polygon
   points="514.46,35.315 514.46,173.716 580.759,173.849 580.759,198.574 485.269,198.574 485.269,35.315 "
   id="polygon44" />
	<polygon
   points="613.703,129.358 613.703,171.411 680.306,171.366 680.306,198.998 584.524,198.998 584.524,35.753 680.306,35.753 680.29,63.194 613.862,63.194 613.743,102.487 679.591,102.487 679.591,129.285 "
   id="polygon46" />
	<path
   d="m 762.946,125.038 c 11.985,-5.503 22.379,-17.777 26.451,-30.054 5.475,-15.896 0.569,-33.076 -10.859,-44.649 C 768.29,37.911 753.695,35.053 738.094,35.213 l -51.281,0.103 v 163.389 h 29.047 v -69.916 l 50.838,69.786 h 32.233 L 749.52,128.483 c 4.614,-0.716 9.094,-1.708 13.426,-3.445 M 716.137,103.217 V 63.616 c 9.109,0 18.497,-0.131 27.587,0.162 5.053,0.291 9.389,2.45 13.299,5.341 5.924,4.919 6.64,13.007 5.05,20.376 -1.593,6.495 -8.232,11.4 -14.289,12.7 -9.968,2.029 -21.107,0.583 -31.647,1.022"
   id="path48" />
	<path
   d="m 886.362,164.245 h -2.381 v 6.567 h -1.254 v -6.567 h -2.381 v -1.023 h 6.016 z m 9.897,6.568 h -1.273 v -6.336 h -0.025 l -2.48,6.336 h -0.807 l -2.48,-6.336 h -0.028 v 6.336 h -1.257 v -7.591 h 1.929 l 2.275,5.78 2.219,-5.78 h 1.929 v 7.591 z"
   id="path50" />
</g>
</svg>
