<?xml version="1.0" encoding="UTF-8" standalone="no"?>
<svg
   xmlns:dc="http://purl.org/dc/elements/1.1/"
   xmlns:cc="http://creativecommons.org/ns#"
   xmlns:rdf="http://www.w3.org/1999/02/22-rdf-syntax-ns#"
   xmlns:svg="http://www.w3.org/2000/svg"
   xmlns="http://www.w3.org/2000/svg"
   xmlns:sodipodi="http://sodipodi.sourceforge.net/DTD/sodipodi-0.dtd"
   xmlns:inkscape="http://www.inkscape.org/namespaces/inkscape"
   version="1.1"
   id="Слой_1"
   x="0px"
   y="0px"
   viewBox="0 0 132 98.999998"
   xml:space="preserve"
   sodipodi:docname="Hír_TV_Hungary.svg"
   width="132"
   height="99"
   inkscape:version="1.0.2 (e86c870879, 2021-01-15, custom)"><metadata
   id="metadata27"><rdf:RDF><cc:Work
       rdf:about=""><dc:format>image/svg+xml</dc:format><dc:type
         rdf:resource="http://purl.org/dc/dcmitype/StillImage" /><dc:title></dc:title></cc:Work></rdf:RDF></metadata><defs
   id="defs25" /><sodipodi:namedview
   pagecolor="#ffffff"
   bordercolor="#666666"
   borderopacity="1"
   objecttolerance="10"
   gridtolerance="10"
   guidetolerance="10"
   inkscape:pageopacity="0"
   inkscape:pageshadow="2"
   inkscape:window-width="1417"
   inkscape:window-height="476"
   id="namedview23"
   showgrid="false"
   inkscape:zoom="3.21875"
   inkscape:cx="256"
   inkscape:cy="63.045633"
   inkscape:window-x="0"
   inkscape:window-y="0"
   inkscape:window-maximized="0"
   inkscape:current-layer="Слой_1" />
<style
   type="text/css"
   id="style2">
	.st0{fill:#A6191D;}
	.st1{fill:#223568;}
</style>
<g
   transform="matrix(0.155,0,0,0.155,4.7595,30.964219)"
   id="g20">
	<path
   class="st0"
   d="M 583.4,63.6 C 578.3,53.3 567,53 562.2,53 h -44 v 151.3 c 0,12.2 -7.7,22.5 -18.3,26.4 h 172.7 c -6,-2.6 -11,-7.2 -14,-13.3 C 656,212.2 595.8,88.9 583.4,63.6 Z"
   id="path4" />
	<path
   class="st0"
   d="m 560.8,-3.1 c 20.2,-0.2 55.2,5.3 72.7,42.7 6.7,14.4 30.6,63.2 49.6,101.8 L 743.8,15.2 c 6.7,-13.9 23.3,-19.7 37,-13 7.1,3.5 12,9.7 14.3,16.7 v -31 c 0,-15.6 -12.5,-28.3 -28,-28.3 H 439 c -15.5,0 -28,12.7 -28,28.3 V -3 Z"
   id="path6" />
	<path
   class="st0"
   d="m 793.6,39.7 -85.3,177.5 c -3,6.2 -8,10.9 -14.1,13.5 h 72.9 c 15.5,0 28,-12.7 28,-28.3 V 35.9 c -0.4,1.3 -0.9,2.5 -1.5,3.8 z"
   id="path8" />
	<path
   class="st0"
   d="M 462.7,204.3 V 53 h -51.8 v 149.3 c 0,15.6 12.5,28.3 28,28.3 H 481 c -10.6,-3.8 -18.3,-14.1 -18.3,-26.3 z"
   id="path10" />
	<path
   class="st1"
   d="m -4.9,231.2 h 56 V 120.1 c 0,-10.6 8.5,-19.2 19,-19.2 10.5,0 19,8.6 19,19.2 v 111.1 h 56 V 120.1 c 0,-41.9 -33.6,-75.9 -75,-75.9 -6.6,0 -12.9,0.9 -19,2.5 v -59 c 0,-15.7 -12.5,-28.3 -28,-28.3 -15.5,0 -28,12.7 -28,28.3 v 161.5 c 0,0 0,0.1 0,0.1 z"
   id="path12" />
	<path
   class="st1"
   d="M 235.6,231.2 V 75.7 c 0,-15.7 -12.5,-28.3 -28,-28.3 -15.5,0 -28,12.7 -28,28.3 v 155.4 h 56 z"
   id="path14" />
	<path
   class="st1"
   d="m 397.4,65 c -14,-13.4 -32.3,-20.9 -51.6,-20.9 -10.9,0 -21.3,2.4 -30.7,6.7 -4.6,-3.3 -10.2,-5.3 -16.3,-5.3 -15.5,0 -28,12.7 -28,28.3 V 149 c 0,0 0,0.1 0,0.1 v 82 h 56 v -111 c 0,-10.6 8.5,-19.2 19,-19.2 4.9,0 9.5,1.9 13.1,5.3 11.2,10.8 28.9,10.3 39.6,-1 C 409,93.7 408.6,75.8 397.4,65 Z"
   id="path16" />
	<path
   class="st1"
   d="m 248,0.7 c 9,-14.3 7.2,-32 -4.4,-40.2 -11.3,-8 -27.7,-4 -38,8.5 -2.1,2.4 -4.5,5.5 -6.9,8.9 -2.9,4.1 -5.3,8 -7,11.1 -8.6,14.2 -6.6,31.5 4.8,39.6 3.8,2.7 8.2,4 12.8,4.1 9.1,0.2 18.9,-4.6 25.7,-13.4 2,-2.3 4.2,-5.2 6.5,-8.4 2.7,-3.6 4.9,-7.2 6.5,-10.2 z"
   id="path18" />
</g>
</svg>
