<svg
  viewBox="0 0 384.80164 138.45"
  xmlns="http://www.w3.org/2000/svg">
  <defs>
    <linearGradient id="linearGradient1167" gradientUnits="userSpaceOnUse"
      x1="61.62793" y1="0.70672333" x2="60.797367" y2="137.58989">
      <stop style="stop-color:#ff4692;stop-opacity:1;" offset="0"/>
      <stop style="stop-color:#ff988a;stop-opacity:1;" offset="1"/>
    </linearGradient>
  </defs>
  <g fill="url(#linearGradient1167)">
		<g>
      <path d="m 374,35.3 h -15.7 c -6.4,0 -10.8,4.4 -10.8,10.8 v 7.1 c 0,4.2 1.5,7.7 4.4,10.6 l 19.2,19 0.1,0.1 c 0.1,0.2 0.1,0.2 0.1,0.3 v 8.2 h -10.4 v -8.6 c 0,-0.4 -0.3,-0.8 -0.8,-0.8 h -11.8 c -0.4,0 -0.8,0.3 -0.8,0.8 v 10.4 c 0,6.5 4.3,10.9 10.8,10.9 h 15.6 c 6.4,0 10.9,-4.5 10.9,-10.9 v -9 c 0,-4.1 -1.4,-7.6 -4.4,-10.6 L 361.1,54.5 c -0.2,-0.2 -0.2,-0.2 -0.2,-0.3 V 48 h 10.4 v 8.5 c 0,0.4 0.3,0.8 0.8,0.8 H 384 c 0.4,0 0.8,-0.3 0.8,-0.8 V 46.1 C 384.9,39.8 380.4,35.3 374,35.3 Z"/>
      <path d="m 338.34092,36.089847 v 56.821746 c 0,6.360643 -4.49486,10.855497 -10.8555,10.855497 h -15.60478 c -6.44545,0 -10.77069,-4.325237 -10.77069,-10.855497 V 36.089847 c 0,-0.424043 0.33924,-0.763277 0.76328,-0.763277 h 11.95801 c 0.42404,0 0.76328,0.339234 0.76328,0.763277 v 55.040766 h 10.43145 V 36.089847 c 0,-0.424043 0.33924,-0.763277 0.76328,-0.763277 h 11.78839 c 0.42404,0 0.76328,0.339234 0.76328,0.763277 z"/>
      <path d="m 294.55769,92.063507 v 10.940303 c 0,0.42405 -0.33924,0.76328 -0.76328,0.76328 h -30.95513 c -0.42404,0 -0.76328,-0.33923 -0.76328,-0.76328 V 36.259464 c 0,-0.424043 0.33924,-0.763277 0.76328,-0.763277 h 11.95801 c 0.42404,0 0.76328,0.339234 0.76328,0.763277 V 91.30023 h 18.31865 c 0.33923,0 0.67847,0.339234 0.67847,0.763277 z"/>
      <path d="m 217.07812,35.496094 c -0.42403,0 -0.76367,0.339629 -0.76367,0.763672 v 66.744144 c 0,0.42405 0.33964,0.76367 0.76367,0.76367 h 11.95899 c 0.42405,0 0.76367,-0.33962 0.76367,-0.76367 V 77.730469 l 16.87696,-0.59375 c 4.24042,-1.441744 6.86915,-5.257713 6.86915,-10.091797 V 46.267578 c 0,-6.360637 -4.49483,-10.771484 -10.85547,-10.771484 z m 12.63672,12.466797 h 10.43164 v 17.300781 h -10.43164 z"/>
      <path d="m 206.9,35.5 h -11.7 c -0.4,0 -0.8,0.3 -0.8,0.8 V 66.4 L 184.6,36 c -0.1,-0.3 -0.4,-0.5 -0.7,-0.5 h -12.7 c -0.4,0 -0.8,0.3 -0.8,0.8 V 103 c 0,0.4 0.3,0.8 0.8,0.8 h 11.7 c 0.4,0 0.8,-0.3 0.8,-0.8 V 68.3 l 11.7,35 c 0.1,0.3 0.4,0.5 0.7,0.5 h 10.8 c 0.4,0 0.8,-0.3 0.8,-0.8 V 36.3 c -0.1,-0.4 -0.4,-0.8 -0.8,-0.8 z"/>
      <path d="M 159.9,35.5 H 148 c -0.4,0 -0.8,0.3 -0.8,0.8 V 103 c 0,0.4 0.3,0.8 0.8,0.8 h 11.9 c 0.4,0 0.8,-0.3 0.8,-0.8 V 36.3 c 0,-0.4 -0.4,-0.8 -0.8,-0.8 z"/>
    </g>
    <g>
      <path d="M 118.7,32.8 63.2,0.7 c -1.6,-0.9 -3.5,-0.9 -5.1,0 L 2.5,32.8 C 1,33.7 0,35.3 0,37.2 v 64.1 c 0,1.8 1,3.5 2.5,4.4 L 58,137.8 c 1.6,0.9 3.5,0.9 5.1,0 l 55.5,-32.1 c 1.6,-0.9 2.5,-2.6 2.5,-4.4 V 37.2 c 0.2,-1.9 -0.8,-3.5 -2.4,-4.4 z m -9.4,62.8 c 0,1.1 -0.6,2.1 -1.5,2.6 l -45.6,26.3 c -0.9,0.5 -2.1,0.5 -3.1,0 L 13.5,98.2 C 12.6,97.7 12,96.6 12,95.6 V 42.9 c 0,-1.1 0.6,-2.1 1.5,-2.6 L 59.1,14 c 0.9,-0.5 2.1,-0.5 3.1,0 l 45.6,26.3 c 0.9,0.5 1.5,1.6 1.5,2.6 z"/>
      <path d="m 38.3,42.3 -11.1,6.4 c -0.6,0.4 -1,1 -1,1.8 v 37.4 c 0,0.7 0.4,1.4 1,1.8 l 11.1,6.4 c 0.8,0.5 1.5,0.1 1.5,-0.9 v -52 c 0.1,-1 -0.6,-1.3 -1.5,-0.9 z"/>
      <path d="m 94,48.8 -31,-18 c -1.3,-0.7 -2.3,-0.1 -2.3,1.3 v 75.6 c 0,0.6 0.6,0.9 1.1,0.6 l 11.6,-6.7 c 0.6,-0.4 1,-1 1,-1.8 V 53.5 c 0,-0.5 0.4,-0.7 0.8,-0.5 l 7.7,4.1 c 0.3,0.2 0.5,0.5 0.5,0.9 v 36.1 c 0,1 0.7,1.4 1.5,0.9 l 9.2,-5.3 c 0.6,-0.4 1,-1 1,-1.8 V 50.5 c 0,-0.7 -0.4,-1.4 -1.1,-1.7 z"/>
    </g>
  </g>
</svg>
