<?xml version="1.0" encoding="UTF-8" standalone="no"?>
<!DOCTYPE svg PUBLIC "-//W3C//DTD SVG 1.1//EN" "http://www.w3.org/Graphics/SVG/1.1/DTD/svg11.dtd">
<svg version="1.1" xmlns="http://www.w3.org/2000/svg" xmlns:xlink="http://www.w3.org/1999/xlink" preserveAspectRatio="xMidYMid meet" viewBox="0 0 132 99" width="132" height="99"><defs><path d="M7.11 40.95L7.11 58.48L4 58.48L4 40.95L7.11 40.95Z" id="dvcoB5nXy"></path><path d="M10.2 43.87L18.16 43.87L8.36 58.48L23.13 58.48L23.13 55.7L13.71 55.7L23.46 40.95L10.2 40.95L10.2 43.87Z" id="f1fAUqQJb"></path><path d="M24 58.48L27.29 58.48L28.92 55.04L36.12 55.04L37.75 58.48L41.2 58.48L32.53 40.95L24 58.48ZM35.05 52.26L30.1 52.26L32.53 46.84L35.05 52.26Z" id="bMFlFXjGG"></path><path d="M44.35 40.95C44.35 47.55 44.35 51.21 44.35 51.95C44.59 57.26 52.13 57.18 52.07 51.91C52.07 51.18 52.07 47.53 52.07 40.95L55.37 40.95C55.37 48.27 55.37 52.33 55.37 53.14C54.03 60.96 42.26 60.28 41.12 53.18C41.12 52.36 41.12 48.29 41.12 40.95L44.35 40.95Z" id="e9HGJ50oa"></path><path d="M58.16 58.48L61.27 58.48L61.27 52.1L64.44 52.1L68.2 58.48L71.43 58.48C68.99 54.17 67.64 51.78 67.37 51.3C71.86 49.14 71.83 42.36 65.93 40.95C65.41 40.95 62.82 40.95 58.16 40.95L58.16 58.48ZM65.37 43.76C68.32 44.09 68.53 48.79 65.55 49.4C65.27 49.4 63.84 49.4 61.28 49.4L61.28 43.76C63.73 43.76 65.1 43.76 65.37 43.76Z" id="b2ZVbMNWed"></path><path d="M72.28 58.36L75.57 58.36L77.2 54.92L84.4 54.92L86.03 58.36L89.48 58.36L80.81 40.83L72.28 58.36ZM83.33 52.14L78.38 52.14L80.81 46.72L83.33 52.14Z" id="aleblkiR8"></path><path d="M94.67 58.55L128 58.55L128 40.24L94.67 40.24L94.67 58.55Z" id="b5P1SIvC6m"></path><path d="M108.92 42.32L108.95 44.6L105.26 44.6L105.26 56.45L102.68 56.45L102.68 44.6L99.01 44.6L99.04 42.32L108.92 42.32Z" id="bfQuFmgqp"></path><path d="M113.3 42.32L117.13 51.17L121.21 42.32L123.84 42.32L117.13 56.45L110.7 42.32L113.3 42.32Z" id="aiVt0agnl"></path></defs><g><g><g><use xlink:href="#dvcoB5nXy" opacity="1" fill="#000000" fill-opacity="1"></use><g><use xlink:href="#dvcoB5nXy" opacity="1" fill-opacity="0" stroke="#000000" stroke-width="1" stroke-opacity="0"></use></g></g><g><use xlink:href="#f1fAUqQJb" opacity="1" fill="#000000" fill-opacity="1"></use><g><use xlink:href="#f1fAUqQJb" opacity="1" fill-opacity="0" stroke="#000000" stroke-width="1" stroke-opacity="0"></use></g></g><g><use xlink:href="#bMFlFXjGG" opacity="1" fill="#000000" fill-opacity="1"></use><g><use xlink:href="#bMFlFXjGG" opacity="1" fill-opacity="0" stroke="#000000" stroke-width="1" stroke-opacity="0"></use></g></g><g><use xlink:href="#e9HGJ50oa" opacity="1" fill="#000000" fill-opacity="1"></use><g><use xlink:href="#e9HGJ50oa" opacity="1" fill-opacity="0" stroke="#000000" stroke-width="1" stroke-opacity="0"></use></g></g><g><use xlink:href="#b2ZVbMNWed" opacity="1" fill="#000000" fill-opacity="1"></use><g><use xlink:href="#b2ZVbMNWed" opacity="1" fill-opacity="0" stroke="#000000" stroke-width="1" stroke-opacity="0"></use></g></g><g><use xlink:href="#aleblkiR8" opacity="1" fill="#000000" fill-opacity="1"></use><g><use xlink:href="#aleblkiR8" opacity="1" fill-opacity="0" stroke="#000000" stroke-width="1" stroke-opacity="0"></use></g></g><g><use xlink:href="#b5P1SIvC6m" opacity="1" fill="#734a84" fill-opacity="1"></use><g><use xlink:href="#b5P1SIvC6m" opacity="1" fill-opacity="0" stroke="#000000" stroke-width="1" stroke-opacity="0"></use></g></g><g><use xlink:href="#bfQuFmgqp" opacity="1" fill="#ffffff" fill-opacity="1"></use><g><use xlink:href="#bfQuFmgqp" opacity="1" fill-opacity="0" stroke="#000000" stroke-width="1" stroke-opacity="0"></use></g></g><g><use xlink:href="#aiVt0agnl" opacity="1" fill="#ffffff" fill-opacity="1"></use><g><use xlink:href="#aiVt0agnl" opacity="1" fill-opacity="0" stroke="#000000" stroke-width="1" stroke-opacity="0"></use></g></g></g></g></svg>