<svg
  xmlns="http://www.w3.org/2000/svg"
  viewBox="0 0 909 1074">
<g fill="#ed245a">
<path
  d="m 646.16542,1064 c 0,0 0.31367,-487.47499 0.31367,-720.8607 0.31367,-6.5875 0.31367,-12.86134 0.31367,-21.64471 -23.52684,9.41083 -44.54391,17.88042 -65.56121,26.66379 -51.44521,21.33092 -91.59767,4.07796 -111.67384,-47.36724 -14.42979,-37.01547 -33.87862,-85.32388 -48.93571,-121.71201 11.60642,-6.5875 2.82321,-1.88208 11.60642,-6.5875 98.18521,-52.7 301.45659,-162.177947 301.45659,-162.177947 L 898.99997,10 c 0,0 -0.31365,188.84163 -0.31365,275.42026 0,230.87613 0,462.06609 0,692.9423 0,55.20994 -29.80063,84.69664 -85.01018,85.00994 z"/>
<circle
  cx="151.16072"
  cy="349.09961"
  r="141.16072"/>
<circle
  cx="151.16072"
  cy="781.67896"
  r="141.16072"/>
</g>
</svg>
