<?xml version="1.0" encoding="UTF-8" standalone="no"?>
<svg
   xmlns:dc="http://purl.org/dc/elements/1.1/"
   xmlns:cc="http://creativecommons.org/ns#"
   xmlns:rdf="http://www.w3.org/1999/02/22-rdf-syntax-ns#"
   xmlns:svg="http://www.w3.org/2000/svg"
   xmlns="http://www.w3.org/2000/svg"
   xmlns:sodipodi="http://sodipodi.sourceforge.net/DTD/sodipodi-0.dtd"
   xmlns:inkscape="http://www.inkscape.org/namespaces/inkscape"
   version="1.1"
   id="Слой_1"
   x="0px"
   y="0px"
   viewBox="0 0 132 99.000002"
   xml:space="preserve"
   sodipodi:docname="JOJ.svg"
   width="132"
   height="99"
   inkscape:version="1.0.2 (e86c870879, 2021-01-15, custom)"><metadata
   id="metadata20"><rdf:RDF><cc:Work
       rdf:about=""><dc:format>image/svg+xml</dc:format><dc:type
         rdf:resource="http://purl.org/dc/dcmitype/StillImage" /><dc:title></dc:title></cc:Work></rdf:RDF></metadata><defs
   id="defs18" /><sodipodi:namedview
   pagecolor="#ffffff"
   bordercolor="#666666"
   borderopacity="1"
   objecttolerance="10"
   gridtolerance="10"
   guidetolerance="10"
   inkscape:pageopacity="0"
   inkscape:pageshadow="2"
   inkscape:window-width="1920"
   inkscape:window-height="1001"
   id="namedview16"
   showgrid="false"
   inkscape:zoom="0.83037257"
   inkscape:cx="500"
   inkscape:cy="444.37884"
   inkscape:window-x="-9"
   inkscape:window-y="-9"
   inkscape:window-maximized="1"
   inkscape:current-layer="Слой_1" />
<style
   type="text/css"
   id="style2">
	.st0{fill:url(#SVGID_1_);}
</style>

<style
   type="text/css"
   id="style43">
	.st0{fill:url(#SVGID_1_);}
</style><g
   id="g54"
   transform="matrix(0.0923744,0,0,0.0923744,19.818297,3.9999993)">
	<g
   id="g52">
		<linearGradient
   id="SVGID_1_"
   gradientUnits="userSpaceOnUse"
   x1="-0.0190011"
   y1="492.5607"
   x2="1000"
   y2="492.5607">
			<stop
   offset="0"
   style="stop-color:#F02D4F"
   id="stop45" />
			<stop
   offset="1"
   style="stop-color:#D43C4F"
   id="stop47" />
		</linearGradient>
		<path
   class="st0"
   d="m 456.3,0 c -29.8,11.5 -63.3,21.2 -93.7,36.8 -132.3,68 -211.4,176 -233.7,323.3 -18.3,120.7 14.3,227.7 96.9,317.7 58.6,63.9 131.9,102.3 218,115.5 75.8,11.6 148.2,1.4 214.9,-36.9 C 757.5,699.6 814.1,614.1 827.4,500.5 834.7,438.2 821.6,381.2 779.9,333.4 723.3,268.5 651.2,244.8 568.5,267.2 486.6,289.4 436,345.6 419.2,429 c -17.2,85.4 24.5,162.7 101.9,193.8 9,3.6 18.4,6.3 27.9,8.3 9,2 18.2,2.6 30.1,4.1 -25.6,8.3 -49.3,11.9 -73.3,10.6 -79,-4.5 -139.1,-40.9 -178.7,-109.6 -25.1,-43.5 -30,-91 -24.5,-140.2 6.2,-55.2 24.3,-105.9 56.9,-150.8 65,-89.5 152.6,-136.2 263.9,-138.3 151.2,-2.8 294.8,92 351.7,239.5 14.7,38.1 23.5,77.6 24.6,118.6 4.2,151.3 -48.3,280 -157.4,384.3 C 762.7,925.4 667,969.5 557.3,981.7 425.7,996.3 306.2,964.2 200.4,884.9 99.8,809.4 35.5,709.3 11,585.8 -20.9,425.2 16,281.1 125,158.3 201.5,72.2 298.6,21.4 413,4.9 428.2,2.7 443.5,1.4 456.3,0 Z"
   id="path50"
   style="fill:url(#SVGID_1_)" />
	</g>
</g></svg>
