<svg
	xmlns="http://www.w3.org/2000/svg"
	viewBox="0 0 500 140.7">
<g>
	<path d="M457.7,54.2h-21.2V37.7H500v16.5l-20.8,0.4l-0.3,53.9h-21.2L457.7,54.2z M370.4,37.7h54.6c3.8,0,7.5,3.8,7.5,7.5v31 c0,3.7-3.8,7.6-7.5,7.5h-5l16,24.8h-23.8l-18-26.4V70.1H411V53.5h-19.5v54.9h-21.2V37.7z M304.6,108.5c-3.7,0-7.5-3.9-7.5-7.7V45.2 c0-3.7,3.8-7.5,7.5-7.5h49c3.7,0,7.5,3.8,7.5,7.5l0,55.6c0,3.8-3.8,7.7-7.5,7.7C337.2,108.8,304.6,108.5,304.6,108.5z M339.9,53.6 h-21.8v38.4h21.8V53.6z M226.2,37.7h54.7c3.7,0,7.5,3.7,7.5,7.5v35.3c0,3.7-3.8,7.5-7.5,7.5l-33.5,0v20.5l-21.2,0V37.7z M267.2,53.6h-19.7v18.5h19.7L267.2,53.6z M155.4,101l0-17h21.2v8.9h19.5l0-6.5c0,0-37.7-15.7-38.8-16.5c-1.1-0.9-1.9-2.5-1.9-4.4 V45.2c0-3.8,3.7-7.5,7.5-7.5h6.1l12.1,10.6h12.1l11.6-10.6h5.3c3.8,0,7.5,3.7,7.5,7.5l0,15.6h-21.2v-7.3h-19.8v5.8 c0,0,38.2,15.7,39,17.2c1,0.8,1.7,1.8,1.9,2.9V101c0,3.7-3.8,7.5-7.5,7.5h-47.1C159.2,108.5,155.4,104.7,155.4,101z M158.3,24.5 h18.6l10.3,8.6l10-8.6l17.4,0l-21.2,20.5h-12.6L158.3,24.5z"/>
	<path fill="#EA0F0F" d="M118.7,66.8c0,26-21.1,47.1-47.1,47.1C42,113.8,17.9,89.7,17.9,60C17.9,30,39.7,5,68.4,0C30.6,0.3,0,31.1,0,69 c0,39.6,32.1,71.7,71.7,71.7c39.6,0,71.7-32.1,71.7-71.7c0-29.7-24.1-53.8-53.8-53.8C63.9,15.2,43,36.1,43,61.8 c0,16.8,13.6,30.5,30.5,30.5c3.6,0,7.1-0.6,10.3-1.8c-0.2,0-0.3,0-0.5,0c-13.1,0-23.8-10.6-23.8-23.8c0-16.3,13.2-29.6,29.6-29.6 C105.5,37.2,118.7,50.4,118.7,66.8"/>
</g>
</svg>
