<?xml version="1.0" encoding="UTF-8" standalone="no"?>
<svg
   xmlns:dc="http://purl.org/dc/elements/1.1/"
   xmlns:cc="http://creativecommons.org/ns#"
   xmlns:rdf="http://www.w3.org/1999/02/22-rdf-syntax-ns#"
   xmlns:svg="http://www.w3.org/2000/svg"
   xmlns="http://www.w3.org/2000/svg"
   xmlns:sodipodi="http://sodipodi.sourceforge.net/DTD/sodipodi-0.dtd"
   xmlns:inkscape="http://www.inkscape.org/namespaces/inkscape"
   height="99"
   width="132"
   version="1.1"
   viewBox="0 0 34.925 26.193818"
   id="svg30"
   sodipodi:docname="JOJ_cinema.svg"
   inkscape:version="1.0.2 (e86c870879, 2021-01-15, custom)">
  <metadata
     id="metadata36">
    <rdf:RDF>
      <cc:Work
         rdf:about="">
        <dc:format>image/svg+xml</dc:format>
        <dc:type
           rdf:resource="http://purl.org/dc/dcmitype/StillImage" />
        <dc:title></dc:title>
      </cc:Work>
    </rdf:RDF>
  </metadata>
  <defs
     id="defs34" />
  <sodipodi:namedview
     pagecolor="#ffffff"
     bordercolor="#666666"
     borderopacity="1"
     objecttolerance="10"
     gridtolerance="10"
     guidetolerance="10"
     inkscape:pageopacity="0"
     inkscape:pageshadow="2"
     inkscape:window-width="1920"
     inkscape:window-height="1001"
     id="namedview32"
     showgrid="false"
     inkscape:zoom="2.7466667"
     inkscape:cx="300"
     inkscape:cy="44.076"
     inkscape:window-x="-9"
     inkscape:window-y="-9"
     inkscape:window-maximized="1"
     inkscape:current-layer="svg30" />
  <g
     transform="matrix(0.20667043,0,0,0.20667043,4.515721,-14.471838)"
     id="g26">
    <g
       fill="#bdbcbc"
       id="g14">
      <path
         d="m 46.005,122.58 c 1.2815,0.25842 1.8247,1.1549 1.6032,2.4681 l -0.19513,1.1233 c -0.18985,1.2815 -0.92817,1.9249 -2.2097,1.8933 -1.4766,-0.0316 -2.8214,-0.0316 -4.9046,-0.0316 -2.2782,0 -2.9533,0.60649 -3.623,5.8327 -0.58011,4.3614 -0.54846,5.3212 1.8247,5.3212 2.12,0 3.623,-0.0316 5.0048,-0.0949 1.3448,-0.0633 2.1148,0.57483 2.178,1.9565 l 0.06329,1.0916 c 0.06856,1.2815 -0.47991,2.1148 -1.6981,2.3732 -1.7298,0.37969 -3.4596,0.54318 -5.8644,0.54318 -7.3779,0 -9.9726,-2.9849 -8.7544,-11.702 1.2499,-8.9126 3.8445,-11.191 11.222,-11.191 2.3046,0 3.8762,0.12657 5.3528,0.41662"
         id="path2" />
      <path
         d="m 55.878,124.76 -2.5314,17.989 c -0.19513,1.2815 -0.93345,1.9249 -2.215,1.9249 h -2.759 c -1.4081,0 -2.1148,-0.83852 -1.9196,-2.2466 l 2.5314,-17.957 c 0.15821,-1.2815 0.92817,-1.9196 2.2097,-1.9196 h 2.7265 c 1.445,0 2.1464,0.80161 1.9565,2.2097"
         id="path4" />
      <path
         d="m 54.499,142.43 2.4365,-17.219 c 0.22677,-1.7614 1.2815,-2.658 3.0482,-2.658 h 0.83325 c 1.6032,0 2.658,0.63811 3.3963,2.0515 l 3.7496,7.3094 c 0.51682,0.99145 0.93345,2.1464 1.3184,3.6547 0.03164,0.0949 0.09493,0.15822 0.15821,0.15822 0.09493,0 0.12657,-0.0633 0.12657,-0.18987 -0.12657,-1.3448 -0.09493,-2.3732 0.06856,-3.5598 l 1.0864,-7.4992 c 0.16349,-1.2868 0.93345,-1.9249 2.215,-1.9249 h 2.178 c 1.445,0 2.1517,0.8016 1.9249,2.2097 l -2.405,17.22 c -0.25841,1.7931 -1.2815,2.6949 -3.0798,2.6949 H 70.6892 c -1.6348,0 -2.658,-0.67504 -3.3963,-2.12 l -3.8182,-7.6311 c -0.47991,-0.99146 -0.80161,-2.2097 -1.0864,-3.5228 0,-0.10022 -0.06856,-0.13185 -0.13184,-0.13185 -0.09493,0 -0.12657,0.0633 -0.12657,0.16348 0.03164,1.3132 0,2.563 -0.19513,3.9448 l -1.0864,7.3726 c -0.19513,1.2815 -0.93345,1.9249 -2.215,1.9249 h -2.2097 c -1.4134,0 -2.1148,-0.83324 -1.9249,-2.2466"
         id="path6" />
      <path
         d="m 84.347,129.03 -0.18985,1.3132 c -0.06856,0.44826 0.15821,0.70667 0.60648,0.70667 h 5.068 c 1.4081,0 2.1148,0.8016 1.9513,2.2097 l -0.06328,0.45352 c -0.15821,1.2815 -0.89653,1.9513 -2.2097,1.9513 h -5.4847 c -0.38498,0 -0.63812,0.19513 -0.66976,0.58011 l -0.29005,1.9882 c -0.13184,0.83326 0.25314,1.2499 1.1866,1.2499 h 5.5796 c 1.3764,0 2.1148,0.73832 2.0831,2.1148 l -0.03164,0.8649 c -0.03164,1.2868 -0.70668,2.0568 -1.9882,2.1517 -2.6949,0.22148 -5.9013,0.18984 -8.5962,0.18984 -3.8762,0 -5.7694,-2.5314 -5.2895,-6.0278 l 1.6032,-11.444 c 0.44827,-2.9849 2.5367,-4.9046 5.9962,-4.9046 2.948,0 6.1228,0 8.7227,0.2215 1.3764,0.0949 2.0198,0.96509 1.7931,2.3415 l -0.12657,0.83324 c -0.22677,1.2815 -0.96509,1.9249 -2.2466,1.9249 h -5.7694 c -1.0917,0 -1.5083,0.3217 -1.6349,1.2815"
         id="path8" />
      <path
         d="m 92.585,142.4 3.0113,-16.802 c 0.35334,-2.0515 1.5716,-3.0429 3.623,-3.0429 h 3.9764 c 2.1517,0 3.3383,1.118 3.4332,3.2697 l 0.3217,7.7893 c 0.0633,0.99673 0.0316,1.9882 -0.0316,3.0482 -0.0369,0.15821 0.0316,0.25314 0.12657,0.25314 0.12658,0 0.18986,-0.0633 0.2215,-0.2215 0.22677,-1.1233 0.45354,-2.0198 0.73832,-3.0166 l 2.4681,-8.3008 c 0.54848,-1.9249 1.7667,-2.8214 3.7865,-2.8214 h 4.393 c 2.2413,0 3.3963,1.2815 3.1748,3.5228 l -1.6665,16.612 c -0.16349,1.3131 -0.90181,1.9882 -2.215,1.9882 h -2.0515 c -1.4134,0 -2.1148,-0.80161 -1.9882,-2.1833 l 1.4766,-14.524 c 0.0317,-0.15822 -0.0316,-0.2215 -0.19512,-0.2215 h -0.0316 c -0.12657,0 -0.18985,0.0633 -0.25841,0.1582 l -3.3963,10.452 c -0.61175,1.8933 -1.83,2.7582 -3.7812,2.7582 h -1.8616 c -2.1464,0 -3.333,-1.1233 -3.4332,-3.2697 l -0.54319,-9.8776 c -0.0316,-0.15822 -0.0949,-0.2215 -0.25841,-0.2215 h -0.0633 c -0.15821,0 -0.2215,0.0633 -0.25314,0.18984 l -2.5683,14.846 c -0.18986,1.2499 -0.95982,1.8933 -2.2413,1.8933 h -2.0198 c -1.445,0 -2.1517,-0.83325 -1.8933,-2.2782"
         id="path10" />
      <path
         d="m 135.19,142.69 -0.1582,-2.0831 c -0.0316,-0.38497 -0.29006,-0.61174 -0.67504,-0.61174 h -4.8729 c -0.38497,0 -0.61175,0.16348 -0.73832,0.51682 l -0.92817,2.4997 c -0.41663,1.1549 -1.1866,1.6665 -2.3732,1.6665 h -2.8214 c -1.5716,0 -2.215,-0.95981 -1.6032,-2.4364 l 7.1195,-17.092 c 0.73305,-1.7614 1.9829,-2.5947 3.9078,-2.5947 h 4.008 c 2.0831,0 3.3013,1.06 3.5914,3.1115 l 2.3415,16.797 c 0.18986,1.4134 -0.51154,2.215 -1.9249,2.215 h -2.7265 c -1.3132,0 -2.0515,-0.67503 -2.1464,-1.9882 m -3.5597,-7.7576 h 2.2782 c 0.44826,0 0.63812,-0.22677 0.60647,-0.67504 l -0.31642,-4.1029 c -0.10022,-0.70668 -0.0686,-1.4134 -0.0369,-2.0831 0,-0.2584 -0.12656,-0.38498 -0.3797,-0.38498 h -0.16348 c -0.2215,0 -0.38499,0.12658 -0.41663,0.35333 -0.12657,0.60649 -0.3217,1.3132 -0.57483,2.0515 l -1.5083,4.103 c -0.19513,0.44825 0.0316,0.73831 0.51154,0.73831"
         id="path12" />
    </g>
    <path
       d="m 18.663,121.87 c 0,0 -2.5683,-0.13184 -3.3224,-0.13711 h -17.098 c -0.91763,0.0316 -2.2413,0.11074 -3.4648,0.13711 -1.0126,0.0212 -1.9355,0.0475 -2.7792,0.14239 l -0.46409,0.0792 -0.25314,0.0212 c -4.7569,0.7805 -6.6923,3.6178 -7.7207,10.948 -1.2235,8.7174 1.3764,11.702 8.7491,11.702 1.2604,0 2.3363,0.23205 3.3224,0.13713 h 17.097 c 0.98618,0.0949 2.0937,-0.13713 3.4648,-0.13713 7.3727,0 9.9726,-2.2782 11.222,-11.191 1.2182,-8.7227 -1.3817,-11.702 -8.7544,-11.702"
       fill="#e91052"
       id="path16" />
    <g
       fill="#f7f7f7"
       id="g24">
      <path
         d="m -2.4908,127.11 v 8.3378 c 0,3.2433 -1.8563,5.1788 -5.4372,5.1788 -2.7265,0 -4.3666,-1.2235 -5.1366,-3.3383 -0.21622,-0.57483 -0.05801,-0.84906 0.51682,-1.0653 l 2.0515,-0.73305 c 0.59593,-0.21622 0.87016,-0.11602 1.1075,0.47463 0.33752,0.79106 0.75414,1.2077 1.5399,1.2077 0.97036,0 1.445,-0.55374 1.445,-1.7034 v -8.3588 c 0,-0.61174 0.19513,-0.82797 0.82797,-0.82797 h 2.273 c 0.61702,0 0.81215,0.21623 0.81215,0.82797"
         id="path18" />
      <path
         d="m 4.9588,126.01 c 3.892,0 6.07,2.1148 6.07,5.5321 v 3.5598 c 0,3.4174 -2.178,5.5321 -6.07,5.5321 -3.9131,0 -6.0859,-2.1148 -6.0859,-5.5321 v -3.5598 c 0,-3.4174 2.1728,-5.5321 6.0859,-5.5321 m 0,3.4596 c -1.3817,0 -2.1728,0.64867 -2.1728,1.8985 v 3.9131 c 0,1.2446 0.79106,1.8933 2.1728,1.8933 1.3659,0 2.1569,-0.64866 2.1569,-1.8933 v -3.9131 c 0,-1.2499 -0.79106,-1.8985 -2.1569,-1.8985"
         id="path20" />
      <path
         d="m 22.191,127.11 v 8.3378 c 0,3.2433 -1.8563,5.1788 -5.4372,5.1788 -2.7265,0 -4.3666,-1.2235 -5.1366,-3.3383 -0.21622,-0.57483 -0.05802,-0.84906 0.51682,-1.0653 l 2.0515,-0.73305 c 0.59593,-0.21622 0.87016,-0.11602 1.1075,0.47463 0.33752,0.79106 0.74887,1.2077 1.5399,1.2077 0.97036,0 1.445,-0.55374 1.445,-1.7034 v -8.3588 c 0,-0.61174 0.19513,-0.82797 0.82797,-0.82797 h 2.273 c 0.61175,0 0.81215,0.21623 0.81215,0.82797"
         id="path22" />
    </g>
  </g>
  <style
     type="text/css"
     id="style28">.st0{fill:#F4F4F4;}
	.st1{fill:#E81755;}</style>
</svg>
