<?xml version="1.0" encoding="UTF-8" standalone="no"?>
<svg
   xmlns:dc="http://purl.org/dc/elements/1.1/"
   xmlns:cc="http://creativecommons.org/ns#"
   xmlns:rdf="http://www.w3.org/1999/02/22-rdf-syntax-ns#"
   xmlns:svg="http://www.w3.org/2000/svg"
   xmlns="http://www.w3.org/2000/svg"
   xmlns:sodipodi="http://sodipodi.sourceforge.net/DTD/sodipodi-0.dtd"
   xmlns:inkscape="http://www.inkscape.org/namespaces/inkscape"
   version="1.1"
   id="svg2"
   width="132"
   height="99"
   viewBox="0 0 132 99"
   sodipodi:docname="JOJ_+1.svg"
   inkscape:version="1.0.2 (e86c870879, 2021-01-15, custom)">
  <metadata
     id="metadata8">
    <rdf:RDF>
      <cc:Work
         rdf:about="">
        <dc:format>image/svg+xml</dc:format>
        <dc:type
           rdf:resource="http://purl.org/dc/dcmitype/StillImage" />
        <dc:title></dc:title>
      </cc:Work>
    </rdf:RDF>
  </metadata>
  <defs
     id="defs6" />
  <sodipodi:namedview
     pagecolor="#ffffff"
     bordercolor="#666666"
     borderopacity="1"
     objecttolerance="10"
     gridtolerance="10"
     guidetolerance="10"
     inkscape:pageopacity="0"
     inkscape:pageshadow="2"
     inkscape:window-width="1920"
     inkscape:window-height="1001"
     id="namedview4"
     showgrid="false"
     inkscape:zoom="7.552"
     inkscape:cx="48.441012"
     inkscape:cy="41.306295"
     inkscape:window-x="-9"
     inkscape:window-y="-9"
     inkscape:window-maximized="1"
     inkscape:current-layer="svg2"
     inkscape:document-rotation="0" />
  <style
     type="text/css"
     id="style2">
	.st0{fill:url(#SVGID_1_);}
</style>
  <style
     type="text/css"
     id="style43">
	.st0{fill:url(#SVGID_1_);}
</style>
  <g
     id="g81"
     transform="translate(10.5,3.9999993)">
    <g
       id="g54"
       transform="matrix(0.0923744,0,0,0.0923744,0.00483613,0)"
       style="display:inline">
	<g
   id="g52">
		<linearGradient
   id="SVGID_1_"
   gradientUnits="userSpaceOnUse"
   x1="-0.0190011"
   y1="492.5607"
   x2="1000"
   y2="492.5607">
			<stop
   offset="0"
   style="stop-color:#F02D4F"
   id="stop45" />

			<stop
   offset="1"
   style="stop-color:#D43C4F"
   id="stop47" />

		</linearGradient>

		<path
   class="st0"
   d="m 456.3,0 c -29.8,11.5 -63.3,21.2 -93.7,36.8 -132.3,68 -211.4,176 -233.7,323.3 -18.3,120.7 14.3,227.7 96.9,317.7 58.6,63.9 131.9,102.3 218,115.5 75.8,11.6 148.2,1.4 214.9,-36.9 C 757.5,699.6 814.1,614.1 827.4,500.5 834.7,438.2 821.6,381.2 779.9,333.4 723.3,268.5 651.2,244.8 568.5,267.2 486.6,289.4 436,345.6 419.2,429 c -17.2,85.4 24.5,162.7 101.9,193.8 9,3.6 18.4,6.3 27.9,8.3 9,2 18.2,2.6 30.1,4.1 -25.6,8.3 -49.3,11.9 -73.3,10.6 -79,-4.5 -139.1,-40.9 -178.7,-109.6 -25.1,-43.5 -30,-91 -24.5,-140.2 6.2,-55.2 24.3,-105.9 56.9,-150.8 65,-89.5 152.6,-136.2 263.9,-138.3 151.2,-2.8 294.8,92 351.7,239.5 14.7,38.1 23.5,77.6 24.6,118.6 4.2,151.3 -48.3,280 -157.4,384.3 C 762.7,925.4 667,969.5 557.3,981.7 425.7,996.3 306.2,964.2 200.4,884.9 99.8,809.4 35.5,709.3 11,585.8 -20.9,425.2 16,281.1 125,158.3 201.5,72.2 298.6,21.4 413,4.9 428.2,2.7 443.5,1.4 456.3,0 Z"
   id="path50"
   style="fill:url(#SVGID_1_)" />

	</g>

</g>
    <g
       id="g67"
       transform="translate(-17.65963)">
      <circle
         style="fill:#d83a4f;fill-opacity:1;stroke-width:0.99599"
         id="path52"
         cx="118.65963"
         cy="10"
         r="10" />
      <g
         aria-label="+1"
         id="text56"
         style="font-style:normal;font-variant:normal;font-weight:bold;font-stretch:normal;font-size:13px;line-height:1;font-family:'Arial Rounded MT Bold';-inkscape-font-specification:'Arial Rounded MT Bold,  Bold';fill:#ffffff;fill-opacity:1;stroke:none">
        <path
           d="m 116.50777,13.262695 h -1.63769 v -2.418457 h -2.43115 V 9.1811523 h 2.43115 V 6.75 h 1.63769 v 2.4311523 h 2.44385 v 1.6630857 h -2.44385 z"
           id="path58" />
        <path
           d="M 123.15377,13.732422 V 7.9560547 q -1.6123,1.237793 -2.1709,1.237793 -0.2666,0 -0.47607,-0.2094727 -0.20313,-0.2158203 -0.20313,-0.4951172 0,-0.3237305 0.20313,-0.4760742 0.20312,-0.1523438 0.71728,-0.3935547 0.76807,-0.3618164 1.2251,-0.7617187 0.46338,-0.3999024 0.81885,-0.8950196 0.35547,-0.4951172 0.46338,-0.609375 0.10791,-0.1142578 0.40625,-0.1142578 0.33642,0 0.53955,0.2602539 0.20312,0.2602539 0.20312,0.7172852 v 7.2680661 q 0,1.275879 -0.86963,1.275879 -0.3872,0 -0.62207,-0.260254 -0.23486,-0.260254 -0.23486,-0.768066 z"
           id="path60" />
      </g>
    </g>
  </g>
</svg>
