<?xml version="1.0" encoding="UTF-8" standalone="no"?>
<!DOCTYPE svg PUBLIC "-//W3C//DTD SVG 1.1//EN" "http://www.w3.org/Graphics/SVG/1.1/DTD/svg11.dtd">
<svg version="1.1" xmlns="http://www.w3.org/2000/svg" xmlns:xlink="http://www.w3.org/1999/xlink" preserveAspectRatio="xMidYMid meet" viewBox="0 0 132 99" width="132" height="99"><defs><path d="M16.79 31.61C16.75 31.61 16.73 31.62 16.72 31.62C9.35 33.94 4 40.84 4 48.99C4 59.05 12.15 67.2 22.21 67.2C32.27 67.2 40.43 59.05 40.43 48.99C40.43 47.9 40.3 46.84 40.06 45.83C40.06 45.83 40.06 45.83 40.06 45.83C40.06 45.83 40.06 45.82 40.06 45.82C40.05 45.8 40.05 45.77 40.04 45.75C40.04 45.75 40.04 45.75 40.04 45.74C40.01 45.62 39.98 45.5 39.94 45.37C39.97 45.47 40 45.58 40.02 45.68C39.99 45.57 39.97 45.46 39.94 45.36C39.94 45.36 39.94 45.37 39.94 45.37C39.92 45.3 39.9 45.22 39.88 45.15C39.88 45.14 39.88 45.14 39.88 45.14C39.84 45.02 39.8 44.9 39.77 44.78C39.77 44.78 39.77 44.79 39.77 44.79C39.74 44.7 39.71 44.62 39.68 44.54C39.69 44.54 39.69 44.55 39.69 44.56C39.65 44.44 39.61 44.32 39.57 44.21C39.57 44.21 39.57 44.21 39.57 44.21C39.53 44.11 39.49 44.01 39.45 43.91C39.45 43.91 39.45 43.91 39.45 43.91C39.4 43.78 39.35 43.65 39.29 43.53C39.29 43.52 39.29 43.52 39.28 43.51C39.23 43.38 39.18 43.26 39.12 43.14C39.11 43.13 39.11 43.12 39.1 43.11C39.1 43.11 39.1 43.11 39.1 43.11C39.07 43.03 39.03 42.96 39 42.89C39 42.89 39 42.89 39 42.89C38.94 42.78 38.88 42.66 38.82 42.55C38.82 42.55 38.82 42.55 38.82 42.55C38.78 42.47 38.74 42.4 38.7 42.33C38.69 42.32 38.69 42.32 38.69 42.32C38.63 42.22 38.58 42.11 38.51 42.01C38.51 42.01 38.51 42.01 38.51 42.01C38.47 41.94 38.43 41.87 38.39 41.8C38.39 41.8 38.38 41.8 38.38 41.8C38.32 41.69 38.25 41.59 38.18 41.48C38.18 41.48 38.18 41.47 38.17 41.47C38.13 41.4 38.09 41.34 38.04 41.27C38.04 41.27 38.04 41.27 38.04 41.27C37.97 41.17 37.9 41.07 37.82 40.96C37.82 40.96 37.82 40.95 37.81 40.95C37.77 40.89 37.73 40.83 37.69 40.78C37.58 40.64 37.47 40.5 37.36 40.36C37.35 40.34 37.33 40.32 37.32 40.3C37.28 40.26 37.24 40.22 37.2 40.17C37.11 40.06 37.02 39.95 36.92 39.85C36.92 39.85 36.92 39.85 36.93 39.85C36.86 39.78 36.79 39.71 36.73 39.64C36.73 39.64 36.73 39.64 36.72 39.64C36.72 39.64 36.72 39.64 36.72 39.64C36.67 39.58 36.62 39.53 36.57 39.47C36.55 39.45 36.53 39.44 36.52 39.42C36.51 39.42 36.51 39.42 36.51 39.42C36.44 39.34 36.36 39.26 36.28 39.18C36.27 39.18 36.27 39.17 36.27 39.17C36.24 39.14 36.21 39.11 36.17 39.08C36.15 39.06 36.13 39.04 36.1 39.02C36.1 39.02 36.1 39.02 36.1 39.02C36 38.92 35.9 38.83 35.8 38.74C35.9 38.83 35.99 38.92 36.09 39C35.99 38.91 35.89 38.82 35.79 38.73C35.78 38.72 35.77 38.71 35.76 38.7C35.76 38.7 35.76 38.7 35.76 38.7C35.74 38.69 35.73 38.68 35.71 38.66C35.59 38.56 35.46 38.45 35.33 38.34C32.99 36.46 30.01 35.32 26.76 35.32C20.23 35.32 14.93 40.63 14.93 47.17C14.93 51.44 18.39 54.91 22.67 54.91C23.36 54.91 24.03 54.82 24.67 54.64C24.68 54.63 24.73 54.56 24.83 54.43C24.71 54.29 24.64 54.22 24.63 54.2C21.49 53.93 19.02 51.29 19.02 48.07C19.02 43.99 22.34 40.67 26.42 40.67C30.7 40.67 34.16 44.14 34.16 48.42C34.16 48.54 34.16 48.66 34.16 48.78C34.64 47.92 35.03 47.01 35.31 46.05C35.03 47.01 34.64 47.93 34.16 48.79C34.15 49.17 34.12 49.56 34.07 49.93C34.07 49.93 34.07 49.94 34.07 49.94C34.07 49.99 34.06 50.03 34.06 50.08C34.06 50.08 34.06 50.09 34.06 50.09C34.05 50.13 34.04 50.17 34.03 50.21C34.03 50.21 34.03 50.22 34.03 50.23C34.02 50.27 34.02 50.3 34.01 50.33C34.01 50.35 34.01 50.37 34.01 50.37C34 50.41 34 50.43 33.99 50.46C33.99 50.48 33.99 50.5 33.98 50.52C33.98 50.54 33.97 50.57 33.97 50.59C33.97 50.61 33.96 50.64 33.96 50.66C33.95 50.68 33.95 50.7 33.95 50.72C33.94 50.75 33.94 50.78 33.93 50.8C33.93 50.82 33.92 50.84 33.92 50.86C33.91 50.89 33.9 50.92 33.9 50.94C33.89 50.96 33.89 50.97 33.89 50.99C33.88 51.03 33.87 51.06 33.87 51.08C33.87 51.1 33.86 51.12 33.86 51.13C33.85 51.17 33.84 51.19 33.83 51.22C33.83 51.24 33.83 51.25 33.83 51.26C33.82 51.3 33.81 51.33 33.8 51.36C33.8 51.38 33.8 51.39 33.8 51.4C33.78 51.43 33.77 51.47 33.76 51.51C33.76 51.51 33.76 51.52 33.76 51.53C33.75 51.56 33.74 51.6 33.73 51.65C33.73 51.65 33.72 51.66 33.72 51.66C33.71 51.7 33.7 51.75 33.69 51.79C32.28 56.57 27.97 60.1 22.81 60.35C22.86 60.35 22.92 60.35 22.97 60.35C22.94 60.35 22.91 60.35 22.87 60.35C22.66 60.37 22.44 60.38 22.21 60.38C14.67 60.38 8.55 54.26 8.55 46.71C8.55 40.46 11.9 35 16.91 32.02C16.92 32.01 16.95 31.95 17.01 31.83L16.79 31.61ZM35.7 38.65C35.58 38.55 35.45 38.44 35.33 38.34C35.45 38.44 35.58 38.55 35.7 38.65ZM36.92 39.84C36.86 39.78 36.79 39.71 36.73 39.64C36.79 39.71 36.86 39.78 36.92 39.84ZM39.68 44.54C39.65 44.43 39.61 44.32 39.57 44.21C39.61 44.32 39.65 44.43 39.68 44.54ZM39.88 45.14C39.84 45.02 39.81 44.9 39.77 44.79C39.81 44.9 39.84 45.02 39.88 45.14ZM35.7 44.36C35.75 44.07 35.78 43.78 35.81 43.49C35.78 43.78 35.75 44.07 35.7 44.36ZM39.81 46.85C39.84 46.75 39.87 46.64 39.9 46.54C39.87 46.64 39.84 46.75 39.81 46.85ZM39.6 47.6C39.63 47.48 39.67 47.36 39.71 47.24C39.67 47.36 39.63 47.48 39.6 47.6ZM39.36 48.3C39.41 48.18 39.45 48.06 39.49 47.94C39.45 48.06 39.41 48.18 39.36 48.3ZM39.1 48.98C39.15 48.86 39.2 48.75 39.24 48.63C39.2 48.75 39.15 48.86 39.1 48.98ZM38.82 49.65C38.87 49.53 38.92 49.42 38.97 49.3C38.92 49.42 38.87 49.53 38.82 49.65ZM38.5 50.31C38.56 50.19 38.62 50.08 38.67 49.96C38.62 50.08 38.56 50.19 38.5 50.31ZM38.17 50.95C38.23 50.83 38.29 50.71 38.36 50.59C38.29 50.71 38.23 50.83 38.17 50.95ZM37.8 51.57C37.88 51.46 37.94 51.34 38.01 51.22C37.94 51.34 37.88 51.46 37.8 51.57ZM37.42 52.18C37.5 52.06 37.58 51.93 37.66 51.8C37.58 51.93 37.5 52.06 37.42 52.18ZM37.01 52.77C37.11 52.64 37.2 52.5 37.29 52.37C37.2 52.5 37.11 52.64 37.01 52.77ZM35.86 54.22C36.25 53.78 36.61 53.32 36.96 52.85C36.61 53.32 36.25 53.78 35.86 54.22ZM35.42 54.69C35.52 54.59 35.61 54.5 35.7 54.4C35.61 54.5 35.52 54.59 35.42 54.69ZM34.93 55.19C35.02 55.1 35.11 55.01 35.2 54.92C35.11 55.01 35.02 55.1 34.93 55.19ZM34.4 55.68C34.5 55.6 34.6 55.51 34.7 55.42C34.6 55.51 34.5 55.6 34.4 55.68ZM33.87 56.15C33.97 56.06 34.07 55.98 34.17 55.9C34.07 55.98 33.97 56.06 33.87 56.15ZM33.33 56.58C33.42 56.51 33.51 56.44 33.6 56.37C33.51 56.44 33.42 56.51 33.33 56.58ZM32.76 57.01C32.85 56.94 32.93 56.88 33.02 56.81C32.93 56.88 32.85 56.94 32.76 57.01ZM32.17 57.41C32.25 57.35 32.34 57.29 32.43 57.23C32.34 57.29 32.25 57.35 32.17 57.41ZM31.57 57.79C31.64 57.74 31.71 57.7 31.79 57.65C31.71 57.7 31.64 57.74 31.57 57.79ZM30.95 58.14C30.99 58.12 31.04 58.09 31.09 58.06C31.04 58.09 30.99 58.12 30.95 58.14ZM28.16 59.37C28.18 59.37 28.2 59.36 28.22 59.35C28.2 59.36 28.18 59.37 28.16 59.37ZM27.43 59.61C27.45 59.6 27.48 59.59 27.51 59.59C27.48 59.59 27.45 59.6 27.43 59.61ZM26.68 59.82C26.71 59.81 26.75 59.8 26.79 59.79C26.75 59.8 26.71 59.81 26.68 59.82ZM25.94 59.98C25.97 59.98 26.01 59.97 26.04 59.96C26.01 59.97 25.97 59.98 25.94 59.98ZM25.2 60.12C25.22 60.12 25.24 60.12 25.26 60.11C25.24 60.12 25.22 60.12 25.2 60.12ZM24.43 60.23C24.44 60.23 24.45 60.23 24.47 60.23C24.45 60.23 24.44 60.23 24.43 60.23Z" id="b6qtsG5AD"></path><linearGradient id="gradienta34I2NC6s5" gradientUnits="userSpaceOnUse" x1="5.87" y1="40.87" x2="37.42" y2="59.09"><stop style="stop-color: #ed2024;stop-opacity: 1" offset="0%"></stop><stop style="stop-color: #c92026;stop-opacity: 1" offset="100%"></stop></linearGradient><path d="M35.88 42.16C35.88 44.56 35.25 46.82 34.16 48.79C34.15 49.17 34.12 49.56 34.07 49.93C34.07 49.93 34.07 49.94 34.07 49.94C34.07 49.99 34.06 50.03 34.06 50.08C34.06 50.08 34.06 50.09 34.06 50.09C34.05 50.12 34.04 50.17 34.03 50.21C34.03 50.21 34.03 50.22 34.03 50.23C34.02 50.27 34.02 50.3 34.01 50.33C34.01 50.35 34.01 50.36 34.01 50.37C34 50.41 34 50.43 33.99 50.46C33.99 50.48 33.99 50.5 33.98 50.52C33.98 50.54 33.97 50.57 33.97 50.59C33.97 50.61 33.96 50.64 33.96 50.66C33.95 50.68 33.95 50.7 33.95 50.72C33.94 50.74 33.94 50.78 33.93 50.8C33.93 50.82 33.92 50.84 33.92 50.86C33.91 50.88 33.9 50.92 33.9 50.94C33.89 50.96 33.89 50.97 33.89 50.99C33.88 51.03 33.87 51.06 33.87 51.08C33.87 51.1 33.86 51.12 33.86 51.13C33.85 51.17 33.84 51.19 33.83 51.22C33.83 51.24 33.83 51.25 33.83 51.26C33.82 51.3 33.81 51.33 33.8 51.36C33.79 51.37 33.79 51.38 33.79 51.4C33.78 51.43 33.77 51.47 33.76 51.5C33.76 51.51 33.76 51.52 33.76 51.53C33.75 51.56 33.74 51.6 33.73 51.65C33.73 51.65 33.72 51.66 33.72 51.66C33.71 51.7 33.7 51.74 33.69 51.79C32.28 56.57 27.97 60.1 22.81 60.35C23.38 60.34 23.94 60.3 24.5 60.22C24.51 60.22 24.52 60.22 24.53 60.22C24.56 60.22 24.6 60.21 24.64 60.21C24.67 60.21 24.7 60.2 24.73 60.2C24.75 60.19 24.77 60.19 24.79 60.19C24.83 60.18 24.88 60.17 24.93 60.17C24.93 60.17 24.94 60.17 24.94 60.17C32.5 59.03 38.54 53.25 40.06 45.82C39.35 42.83 37.66 40.21 35.33 38.34C35.69 39.55 35.88 40.83 35.88 42.16" id="b60VnIw0u"></path><linearGradient id="gradienta1eBTFQ4KH" gradientUnits="userSpaceOnUse" x1="32" y1="52.83" x2="34.28" y2="54.8"><stop style="stop-color: #d22025;stop-opacity: 1" offset="0%"></stop><stop style="stop-color: #8d1c1e;stop-opacity: 1" offset="100%"></stop></linearGradient><path d="M123.47 44.89C123.47 49.59 123.47 52.21 123.47 52.73C123.47 54.87 122.32 55.84 120.66 55.84C119.21 55.84 118.03 54.97 118.03 53.09C118.03 52.55 118.03 49.81 118.03 44.89L113.5 44.89C113.5 50.21 113.5 53.17 113.5 53.76C113.5 57.84 116.1 60.01 119.15 60.01C121.14 60.01 122.65 59.29 123.47 58.17C123.47 58.39 123.47 60.15 123.47 60.37C123.47 62.07 122.08 62.86 120.38 62.86C119.13 62.86 118.06 62.43 117.57 61.53C117.16 61.73 113.91 63.32 113.5 63.52C114.72 65.92 117.34 67.39 120.38 67.39C124.59 67.39 128 64.58 128 60.37C128 59.34 128 54.18 128 44.89L123.47 44.89ZM98.64 44.89L103.17 44.89L103.17 60.37L98.64 60.37L98.64 44.89ZM106.15 38.97L110.68 38.97L110.68 60.37L106.15 60.37L106.15 38.97ZM95.8 50.79L95.8 60.37L91.27 60.37C91.27 54.86 91.27 51.79 91.27 51.18C91.27 49.67 90.55 48.7 89.1 48.7C87.59 48.7 86.74 49.75 86.74 51.54C86.74 52.13 86.74 55.07 86.74 60.37L82.21 60.37C82.21 54.85 82.21 51.79 82.21 51.18C82.21 49.67 81.49 48.7 80.04 48.7C78.53 48.7 77.68 49.75 77.68 51.54C77.68 52.13 77.68 55.07 77.68 60.37L73.16 60.37L73.16 44.89L77.68 44.89C77.68 45.76 77.68 46.25 77.68 46.34C78.38 45.32 79.71 44.53 81.73 44.53C83.51 44.53 84.84 45.25 85.69 46.52C86.53 45.32 87.92 44.53 90.06 44.53C93.54 44.53 95.8 47.01 95.8 50.79M65.63 52.63C65.63 50.37 64.12 48.82 62.03 48.82C59.95 48.82 58.44 50.37 58.44 52.63C58.44 54.9 59.95 56.45 62.03 56.45C64.12 56.45 65.63 54.9 65.63 52.63M70.16 44.89L70.16 60.37L65.63 60.37C65.63 59.49 65.63 58.99 65.63 58.89C64.63 60.05 63.15 60.74 61.13 60.74C57.17 60.74 53.91 57.13 53.91 52.63C53.91 48.13 57.17 44.53 61.13 44.53C63.15 44.53 64.63 45.22 65.63 46.37C65.63 46.27 65.63 45.78 65.63 44.89L70.16 44.89ZM50.4 44.89L53.21 44.89L53.21 49.24L50.4 49.24L50.4 60.37L45.87 60.37L45.87 49.24L43.84 49.24L43.84 44.89C45.06 44.89 45.73 44.89 45.87 44.89C45.87 40.66 48.19 37.57 53.21 37.87C53.21 38.31 53.21 41.79 53.21 42.22C51.51 42.07 50.4 43.14 50.4 44.89" id="dmcbYQHSb"></path></defs><g><g><g><use xlink:href="#b6qtsG5AD" opacity="1" fill="url(#gradienta34I2NC6s5)"></use><g><use xlink:href="#b6qtsG5AD" opacity="1" fill-opacity="0" stroke="#000000" stroke-width="1" stroke-opacity="0"></use></g></g><g><use xlink:href="#b60VnIw0u" opacity="1" fill="url(#gradienta1eBTFQ4KH)"></use><g><use xlink:href="#b60VnIw0u" opacity="1" fill-opacity="0" stroke="#000000" stroke-width="1" stroke-opacity="0"></use></g></g><g><use xlink:href="#dmcbYQHSb" opacity="1" fill="#000000" fill-opacity="1"></use><g><use xlink:href="#dmcbYQHSb" opacity="1" fill-opacity="0" stroke="#000000" stroke-width="1" stroke-opacity="0"></use></g></g></g></g></svg>