<?xml version="1.0" encoding="UTF-8" standalone="no"?>
<svg
   xmlns:dc="http://purl.org/dc/elements/1.1/"
   xmlns:cc="http://creativecommons.org/ns#"
   xmlns:rdf="http://www.w3.org/1999/02/22-rdf-syntax-ns#"
   xmlns:svg="http://www.w3.org/2000/svg"
   xmlns="http://www.w3.org/2000/svg"
   xmlns:sodipodi="http://sodipodi.sourceforge.net/DTD/sodipodi-0.dtd"
   xmlns:inkscape="http://www.inkscape.org/namespaces/inkscape"
   width="132"
   height="99"
   viewBox="0 0 34.924999 26.193751"
   version="1.1"
   id="svg8"
   inkscape:version="1.0.2 (e86c870879, 2021-01-15, custom)"
   sodipodi:docname="Jojko.svg">
  <defs
     id="defs2" />
  <sodipodi:namedview
     id="base"
     pagecolor="#ffffff"
     bordercolor="#666666"
     borderopacity="1.0"
     inkscape:pageopacity="0.0"
     inkscape:pageshadow="2"
     inkscape:zoom="1.4"
     inkscape:cx="112.49198"
     inkscape:cy="124.00153"
     inkscape:document-units="px"
     inkscape:current-layer="svg8"
     inkscape:document-rotation="0"
     showgrid="false"
     units="px"
     inkscape:window-width="1920"
     inkscape:window-height="1001"
     inkscape:window-x="-9"
     inkscape:window-y="-9"
     inkscape:window-maximized="1" />
  <metadata
     id="metadata5">
    <rdf:RDF>
      <cc:Work
         rdf:about="">
        <dc:format>image/svg+xml</dc:format>
        <dc:type
           rdf:resource="http://purl.org/dc/dcmitype/StillImage" />
        <dc:title></dc:title>
      </cc:Work>
    </rdf:RDF>
  </metadata>
  <g
     id="g74"
     transform="matrix(0.24504716,0,0,0.24504716,7.7381016,8.9647104)">
    <path
       style="display:inline;fill:#2a0042;stroke-width:0.264583"
       d="M 31.552913,49.716692 C 30.97083,49.60502 29.929599,49.43226 29.239066,49.332784 27.411345,49.06949 26.393538,48.129846 26.393538,46.705776 c 0,-0.609529 0.173995,-1.356648 0.386657,-1.660266 0.212664,-0.303617 0.699952,-1.490967 1.082868,-2.638557 0.382916,-1.147591 0.915797,-2.443716 1.184182,-2.880278 0.659099,-1.072118 2.328493,-2.631213 3.296055,-3.078285 0.687232,-0.317542 0.817796,-0.554876 1.000395,-1.81846 0.115504,-0.79929 0.176549,-2.512859 0.135655,-3.807931 L 33.405,28.467321 32.592856,29.15169 c -1.626185,1.370338 -4.486545,2.576687 -6.863702,2.894748 -4.792599,0.641244 -8.823167,-0.622602 -12.018312,-3.768524 l -1.526445,-1.502932 -1.031367,0.533207 c -0.674129,0.34852 -1.745459,0.575667 -3.0930057,0.655797 l -2.061644,0.122592 -0.7778459,1.130559 C 3.9567041,31.054047 1.5620555,32.994813 -0.99083767,34.2512 -6.0337911,36.733053 -11.281928,36.713916 -16.282961,34.195434 -21.597993,31.518827 -27.75436,22.357531 -27.227483,17.908882 c 0.299518,-2.528962 1.883781,-4.274717 5.466853,-6.024119 2.427246,-1.185079 6.377805,-2.5598279 7.044724,-2.4514826 0.737402,0.1197946 1.469105,0.9732376 2.095747,2.4444346 0.733624,1.722363 2.188421,4.270761 2.8320361,4.960938 0.7505177,0.804812 2.9487885,0.859403 3.3640177,0.08354 0.392,-0.732459 0.3296811,-4.870249 -0.1041747,-6.916904 C -7.0218006,7.6771735 -8.2596148,5.0575465 -9.3565303,4.0197697 -11.115074,2.3560352 -12.937889,2.0215235 -17.860524,2.4591703 l -2.317603,0.2060466 -0.874863,-0.8838554 c -0.866376,-0.87528197 -0.880505,-0.93005284 -1.456599,-5.6463558 -0.75597,-6.1889007 -0.748714,-6.5451567 0.153647,-7.5436327 0.654114,-0.723788 1.071824,-0.870795 4.135615,-1.45547 1.874406,-0.3577 4.374719,-0.769677 5.55625,-0.915504 1.181531,-0.145827 4.3508954,-0.628592 7.0430309,-1.072811 9.5521888,-1.576168 9.3164477,-1.548273 10.3163108,-1.220747 1.1280828,0.369528 1.5125277,1.096581 2.6079556,4.932123 0.4363879,1.5279685 1.1002328,3.8075847 1.4752083,5.0658135 0.3749754,1.258229 0.6817757,2.6411567 0.6817757,3.0731731 0,0.968832 -0.778436,1.9996273 -1.8431167,2.44063247 -0.575736,0.23847823 -0.8027167,0.51045695 -0.8027167,0.96185545 0,0.34614752 0.059256,0.62935908 0.1316804,0.62935908 0.072422,0 0.7105386,-0.41586915 1.4180318,-0.92415334 1.6034491,-1.15196416 4.8266539,-2.63523696 6.8861309,-3.16890156 1.958401,-0.5074724 6.826827,-0.5292225 8.629782,-0.038554 2.218672,0.6038041 4.803876,1.7481768 6.275224,2.77780633 0.768731,0.53794689 1.529157,1.058916 1.689833,1.15770878 0.211032,0.12975432 0.219456,-0.13799159 0.03035,-0.96439598 -0.595505,-2.60235763 0.616466,-5.28255733 3.203163,-7.08359153 1.627351,-1.133074 3.234065,-1.5455025 6.020869,-1.5455025 2.194554,0 3.336126,0.3700595 4.856713,1.5743857 l 0.995103,0.7881364 0.302471,-2.1734485 c 0.430451,-3.0930514 1.380988,-4.8721724 3.096634,-5.7959744 0.727374,-0.391659 2.093793,-0.837244 3.036485,-0.990189 2.422141,-0.392972 5.928392,-0.352364 6.964773,0.08066 l 0.868161,0.362741 0.319934,4.598197 c 0.175967,2.5290077 0.461227,7.247337 0.633913,10.48517576 0.172688,3.23783874 0.384762,5.88697944 0.471276,5.88697944 0.08651,0 2.471166,-1.42875 5.299226,-3.1750001 5.645936,-3.48621027 6.388145,-3.73642066 7.372271,-2.48530602 0.298383,0.37933182 0.848076,1.33560082 1.221544,2.12504242 0.720167,1.5223083 0.704109,1.5190307 2.145292,0.4379045 0.96583,-0.7245327 3.534055,-1.7730169 5.765183,-2.35364774 2.380965,-0.61962536 7.042545,-0.54392806 9.601923,0.15592135 3.499969,0.95704849 5.795431,2.22102879 7.881743,4.34002839 3.33957,3.3918847 4.6946,6.989579 4.6946,12.464433 0,5.371042 -1.44276,9.198433 -4.68633,12.432052 -2.338925,2.331741 -4.847133,3.522998 -8.538652,4.055377 -2.665024,0.384342 -3.145449,0.38249 -6.032051,-0.02326 -2.578174,-0.362384 -3.53314,-0.631216 -5.365498,-1.510443 -1.226006,-0.588277 -2.690802,-1.435272 -3.255108,-1.882208 -0.564304,-0.44694 -1.137201,-0.772904 -1.273104,-0.724366 -0.135906,0.04854 -1.713555,1.338405 -3.505893,2.866374 -3.111035,2.65216 -3.313938,2.778125 -4.474904,2.778125 -0.668856,0 -1.410996,-0.161745 -1.649195,-0.359434 -0.406596,-0.337431 -4.17507,-6.768867 -4.556612,-7.77649 -0.42862,-1.131954 -0.647877,-0.23408 -0.647877,2.653106 0,2.503462 -0.08865,3.24475 -0.45088,3.770313 -1.070488,1.553181 -1.656945,1.606304 -7.222037,0.654185 -5.508837,-0.942493 -5.02634,-1.101087 -5.030994,1.653646 -0.0097,5.718578 -2.347026,9.757151 -7.006995,12.106908 -2.938421,1.481677 -7.921551,2.119612 -11.377637,1.456547 z M 90.286877,18.758353 c 1.164519,-0.442748 2.252628,-1.846477 2.251506,-2.90458 -0.0013,-1.196859 -0.850982,-2.591139 -1.710594,-2.806888 -1.525834,-0.382961 -3.405773,0.701305 -3.863221,2.228138 -0.357024,1.191636 0.04817,3.053795 0.753999,3.46518 0.588621,0.343072 1.693169,0.350879 2.56831,0.01815 z M 36.183122,4.7466571 c 0,-0.2656705 -0.814721,-0.6090828 -1.001615,-0.4221896 -0.21063,0.2106293 0.507479,0.9482429 0.767011,0.7878441 0.129032,-0.079746 0.234604,-0.2442909 0.234604,-0.3656545 z"
       id="path78"
       sodipodi:nodetypes="ssssssssscssscsscsssssssssssscsssssssssssssssssscssscsssscsssssssssssssssssssssssscsssscssssssss"
       inkscape:label="pozadí" />
    <path
       style="display:inline;fill:#75c9fb;stroke-width:0.264583"
       d="M 88.041456,32.511184 C 87.095571,32.398836 85.789675,32.163606 85.139466,31.988449 83.799108,31.62738 80.831153,30.1545 79.839373,29.358221 l -0.661459,-0.531069 1.521355,-1.412963 c 2.470314,-2.294313 2.478815,-2.272567 -3.2956,-8.431239 -1.861823,-1.985717 -3.38513,-3.681029 -3.38513,-3.76736 0,-0.286213 4.094631,-2.206572 4.443124,-2.083803 3.950524,-1.834688 2.508811,-1.99501 0.876446,-5.734639 L 79.024353,6.8108885 C 78.753827,6.305406 78.797473,6.1529441 79.34113,5.7043559 80.400501,4.8302361 83.129035,3.7114433 84.903831,3.4234578 92.952673,2.1174193 99.95661,5.1680352 102.73989,11.192087 c 1.24561,2.695967 1.51269,4.19037 1.39175,7.787593 -0.0948,2.819424 -0.1862,3.283733 -1.06365,5.40295 -1.12242,2.710837 -2.58071,4.571448 -4.723402,6.026524 -2.494063,1.693688 -6.632527,2.53801 -10.303132,2.10203 z m 2.588186,-11.51938 c 3.059107,-1.277861 4.444236,-4.843301 2.932793,-7.549264 -0.998501,-1.787636 -1.794391,-2.226283 -4.03941,-2.226283 -1.650143,0 -2.070973,0.1017 -3.020097,0.729863 -3.262651,2.159336 -3.585036,6.87886 -0.605158,8.859148 1.087448,0.722667 3.244824,0.807712 4.731872,0.186536 z"
       id="path106"
       inkscape:label="o"
       sodipodi:nodetypes="ssscsssccssssssssssssss" />
    <path
       style="display:inline;fill:#b8dfe5;stroke-width:0.264583"
       d="m 78.251873,12.953879 c 0,-0.135716 0.228306,-0.319218 0.507349,-0.407782 0.873958,-0.277383 1.873901,-1.213725 1.873901,-1.754714 0,-0.285318 -0.313032,-1.1364963 -0.695624,-1.8915084 L 79.241875,7.5271257 80.36039,6.5345283 c 1.22714,-1.0889912 2.684799,-1.5302004 3.318341,-1.0044068 0.568711,0.4719876 0.488079,2.2116715 -0.162862,3.5138629 -0.6444,1.2891086 -2.428684,3.2361596 -3.46492,3.7809946 -0.811598,0.426723 -1.799076,0.497475 -1.799076,0.1289 z"
       id="path112"
       inkscape:label="o odlesk" />
    <path
       style="display:inline;fill:#f9dc20;stroke-width:0.264583"
       d="m 68.382602,30.465997 c -0.654413,-1.128504 -2.387695,-4.194948 -3.851744,-6.814323 -3.718202,-6.65235 -3.943117,-7.011459 -4.39139,-7.011459 -0.219091,0 -0.456435,0.267891 -0.527428,0.595313 C 58.069702,24.34865 56.807049,31.614863 56.660229,31.78 56.50217,31.957781 53.267826,31.342458 50.446047,30.776858 49.782689,30.643895 49.748696,30.541059 49.417429,27.665059 l -0.95959,-10.363385 -0.20305,-2.381251 c -0.217765,-2.553792 7.94e-4,-5.264605 1.440019,-17.8593756 0.440661,-3.8563023 0.931323,-7.3444954 1.090359,-7.7515404 0.403547,-1.032859 1.473798,-1.500122 3.856902,-1.683894 l 2.048021,-0.157932 1.397389,11.2128295 c 0.768564,6.167056 1.393248,11.5529885 1.388184,11.9687415 -0.01154,0.945975 0.009,0.937932 3.298084,-1.2907632 5.358718,-3.6311181 8.848286,-5.9429775 10.057198,-6.8171911 l 1.239737,-0.8965044 0.724895,1.2668026 c 0.398692,0.6967412 1.440144,2.1969015 2.018043,3.4858962 l 1.078074,2.4046255 c 0.28532,0.6364015 -7.573125,4.8874104 -7.817973,4.8874104 -0.150476,0 -1.346923,0.394154 -1.34701,0.503291 -9e-5,0.109141 2.470457,2.599227 5.490104,5.533523 5.29753,5.1478 5.47169,5.349838 4.961099,5.755344 -0.606935,0.48202 -4.844309,3.596693 -7.680814,5.645769 l -1.924662,1.390365 z"
       id="path104"
       inkscape:label="k sv"
       sodipodi:nodetypes="ssscssccsssscsccscsssssssscs" />
    <path
       style="display:inline;fill:#dbba2d;stroke-width:0.264583"
       d="m 57.349789,32.015265 c -0.609643,-0.109091 -0.907738,-0.300591 -0.872474,-0.560483 0.02946,-0.217125 0.706659,-3.311806 1.504884,-6.877066 0.798221,-3.565261 1.504444,-6.720417 1.569384,-7.011459 0.06494,-0.291042 0.131884,2.89388 0.148764,7.077604 l 0.03069,7.606772 -0.727604,-0.03483 c -0.400183,-0.01916 -1.144323,-0.1094 -1.653646,-0.200538 z m 12.7,-18.401073 c 0,-0.06358 1.763975,-1.17729 3.919942,-2.474908 l 3.919943,-2.3593043 0.44682,0.7785407 c 0.245753,0.4281964 0.389308,0.8715956 0.319014,0.9853346 -0.0703,0.113739 -0.87448,0.476298 -1.787076,0.805686 -0.912598,0.329387 -2.755397,0.999693 -4.095109,1.48957 -2.488507,0.909939 -2.723534,0.976825 -2.723534,0.775081 z M 59.475663,10.620944 c 0.0051,-0.400182 -0.617008,-5.7525643 -1.382382,-11.8941825 l -1.391586,-11.1665775 0.02568,-0.24103 2.42029,-0.04769 0.153903,3.5057289 c 0.08465,1.9281512 0.221024,7.2460857 0.303064,11.8176322 0.08204,4.5715465 0.2106,8.4113129 0.285694,8.5328119 0.07509,0.121502 0.01045,0.220911 -0.143668,0.220911 -0.15411,0 -0.276056,-0.327422 -0.270992,-0.727604 z"
       id="path94"
       inkscape:label="k tmavé"
       sodipodi:nodetypes="ssssscssssscssssscscccssssc" />
    <path
       style="display:inline;fill:#fbed8e;stroke-width:0.264583"
       d="m 48.67454,21.535007 c -0.26739,-2.631959 -0.255209,-3.899056 0.07122,-7.408334 1.015854,-10.9209022 2.271188,-20.0830582 3.200463,-23.3588445 1.047168,-3.6913575 1.147176,0.9082493 0.246132,11.3203025 -0.504492,5.8296909 -2.11704,18.017039 -2.730617,20.637501 l -0.464637,1.984375 z"
       id="path110"
       inkscape:label="k odlesk" />
    <path
       style="display:inline;fill:#b463b3;stroke-width:0.264583"
       d="m 32.346663,47.202722 c -0.727604,-0.197406 -1.63417,-0.478134 -2.014593,-0.623837 l -0.691676,-0.264917 0.478126,-2.250083 c 0.262969,-1.237544 0.71783,-2.719943 1.010803,-3.294219 0.610473,-1.196626 1.88095,-2.357668 2.844528,-2.59951 0.371012,-0.09312 0.772019,-0.459425 0.915193,-0.835999 0.316937,-0.833607 0.808702,-7.026733 0.733478,-9.237187 -0.0307,-0.902065 0.06876,-1.795034 0.22102,-1.984375 0.476247,-0.592235 1.709907,-3.17845 2.243836,-4.703932 0.632674,-1.807593 0.907907,-6.527387 0.534056,-9.158137 -0.14664,-1.031883 -0.562816,-2.6094611 -0.924835,-3.5057301 l -0.658217,-1.6295813 0.564557,-0.015253 c 0.310507,-0.00839 1.397995,-0.2338237 2.416641,-0.5009666 1.018646,-0.2671429 1.872623,-0.4679421 1.897729,-0.4462206 0.04322,0.037393 0.890913,7.2286516 2.858059,24.2457736 l 0.871683,7.540626 -0.494263,1.5875 c -0.777378,2.496825 -3.02051,5.409044 -5.635927,7.31702 -0.960697,0.700839 -1.197986,0.751571 -3.439583,0.73536 -1.324235,-0.0096 -3.003011,-0.178927 -3.730615,-0.376332 z M 37.218587,2.3809555 C 34.868423,2.041545 33.539974,0.54128259 33.538278,-1.775346 c -0.0013,-1.6284798 0.671343,-2.7583856 2.340321,-3.9319001 1.025933,-0.7213674 1.381422,-0.8129387 3.474636,-0.8950386 1.795854,-0.070437 2.550861,0.012504 3.284998,0.3608763 0.872903,0.4142185 0.953222,0.5465742 0.953222,1.5707607 0,2.3097095 -1.385448,5.12928636 -3.167899,6.4471096 -0.933659,0.6902839 -1.661014,0.8274715 -3.204969,0.6044936 z"
       id="path96"
       inkscape:label="j2 sv"
       sodipodi:nodetypes="sscssssssssscsssscsscsscssssss" />
    <path
       style="display:inline;fill:#ad54ac;stroke-width:0.264583"
       d="m 39.458396,46.818638 c 1.514545,-0.933643 5.449008,-6.226737 5.694392,-7.291963 L 45.517122,37.94508 C 44.533607,26.958975 39.272862,13.98686 41.83859,6.2025205 c 0.303234,-0.356677 2.275878,-1.0157078 2.418464,-0.5849447 0.05589,0.1688576 0.227505,1.4381076 0.381357,2.8205556 0.625692,5.6222006 1.945558,15.2876576 2.832286,20.7410326 1.181401,7.265609 1.174821,9.999171 -0.03,12.461727 -1.319075,2.696092 -3.604506,4.682482 -7.006122,5.529194 -0.555597,0.138296 -2.150992,0.372768 -1.97487,0.264198 z m 3.745135,-52.7762745 1.185294,0.8198057 c 1.564565,1.0821277 1.256913,3.8435687 -0.02387,5.47181651 -0.820928,1.04364209 -2.638213,1.99908989 -4.102216,2.15676279 -0.98035,0.1055838 -2.368095,-0.094528 -1.887934,-0.1013874 3.939801,-1.3140367 5.502973,-4.7111885 4.828726,-8.3469976 z"
       id="path88"
       sodipodi:nodetypes="ssccssssssscssscc"
       inkscape:label="j2 tmavé" />
    <path
       style="display:inline;fill:#d2afd3;stroke-width:0.264583"
       d="m 34.858348,-2.0151503 c -0.848821,-1.0227654 0.533026,-3.5782043 2.146633,-3.9697501 0.804132,-0.1951244 1.559391,0.4049232 1.559391,1.2389227 0,2.0311494 -2.660005,3.99120485 -3.706024,2.7308274 z"
       id="path108"
       sodipodi:nodetypes="ssss"
       inkscape:label="j2 tečka" />
    <path
       style="display:inline;fill:#f5506e;stroke-width:0.264583"
       d="m 21.794664,29.839707 c -3.135651,-0.736142 -6.410373,-3.299042 -7.652893,-5.989395 -0.48628,-1.052909 -0.580525,-1.729459 -0.580525,-4.167388 0,-2.654711 0.06534,-3.043484 0.743731,-4.424958 0.903097,-1.839074 2.373643,-3.15308 4.18252,-3.73728 2.217142,-0.716058 4.050522,-0.446011 5.552551,0.817864 1.944359,1.63607 2.063287,4.727681 0.256275,6.662093 -1.305713,1.39777 -3.480757,0.883089 -2.670011,-0.631807 0.38371,-0.716968 0.206047,-1.464038 -0.348165,-1.464038 -0.203224,0 -0.68321,0.246767 -1.066636,0.548371 -1.54273,1.213511 -0.260972,3.684963 1.911117,3.684963 1.438678,0 2.206909,-0.331258 3.179506,-1.370994 2.393977,-2.559235 2.03513,-6.890139 -0.769829,-9.291082 -4.243789,-3.6325245 -10.859034,-2.1489351 -13.506156,3.029003 -1.7237211,3.371702 -1.710095,8.207507 0.03275,11.62376 l 0.499817,0.97972 -0.850818,0.359066 C 9.3292408,27.049437 6.4599721,26.875622 3.6004056,26.037049 L 1.047896,25.288521 1.5324645,24.158068 C 2.5065969,21.885509 3.3344067,18.81907 3.7664449,15.882777 4.3656415,11.810408 5.8717001,7.4730546 7.4876323,5.1659878 9.2334696,2.6734558 12.548307,0.25777677 15.39111,-0.59365059 24.493872,-3.319955 34.102438,1.9447692 36.432523,10.935359 c 1.372915,5.297358 0.139047,11.510529 -2.95176,14.86366 -3.244676,3.520054 -7.555164,5.010489 -11.686099,4.040688 z"
       id="path90"
       inkscape:label="ulita" />
    <path
       style="display:inline;fill:#7dc3b5;stroke-width:0.264583"
       d="m -10.44615,33.044674 c -3.764533,-0.660834 -7.068062,-2.68513 -9.499733,-5.821125 -2.152753,-2.776289 -4.069294,-6.3905 -4.363115,-8.22796 -0.232576,-1.454446 0.589399,-2.6327 2.625984,-3.764196 2.15128,-1.195218 5.742754,-2.616721 6.183716,-2.447509 0.191335,0.07342 0.75843,0.762775 1.260209,1.531892 2.756301,4.224809 3.854345,5.092132 6.4547423,5.098476 1.548442,0.0038 1.7331809,-0.05948 2.421317,-0.829013 1.0905069,-1.219507 1.3563706,-2.864152 1.056917,-6.538148 C -4.818363,5.7622854 -7.0851035,1.7919088 -11.058387,0.21994241 c -1.341337,-0.53067853 -2.051525,-0.62444395 -4.802462,-0.63406367 l -3.228344,-0.0112895 -0.137284,-0.92604174 c -0.181473,-1.224121 -0.651997,-5.6621416 -0.748943,-7.0640917 -0.08671,-1.253892 -0.242953,-1.1637638 2.844999,-1.6411008 1.018645,-0.157463 4.472284,-0.691313 7.6729165,-1.197993 l 8.93057932,-1.413765 C -0.08631189,-10.873277 2.1516481,5.7643609 2.1808422,7.2353681 L 1.4547908,9.4153573 C 1.2218225,10.171113 0.83590127,12.016581 0.59718889,13.516399 c -0.86805031,5.453869 -1.26238267,6.995358 -2.50243659,9.782284 l -1.2556647,2.822011 1.8894176,0.446514 2.3441709,0.621749 c 0.4820641,0.127858 -2.477049,4.072887 -3.0277985,4.42691 -1.751928,1.126139 -6.1891196,1.832892 -8.4910276,1.428807 z"
       id="path102"
       inkscape:label="j1 sv"
       sodipodi:nodetypes="ssssssccssscssssccccsccsss" />
    <path
       style="display:inline;fill:#62afa4;stroke-width:0.264583"
       d="m -0.97677506,29.947972 c 0.65380131,-0.989108 1.25380753,-2.047857 1.33334922,-2.352773 0.13345054,-0.51157 0.23516961,-0.533675 1.31683394,-0.286155 0.6447181,0.147532 1.1722127,0.355298 1.1722127,0.461698 0,0.343561 -2.78870844,2.741525 -3.9166404,3.367855 L -2.165503,31.746355 Z M 1.9178408,5.882638 C 1.685944,3.8708296 -0.57987889,-11.093858 -0.76990529,-11.868641 c -0.0803037,-0.327421 -0.34145801,-0.607092 -0.58034501,-0.62149 -0.4639998,-0.02797 3.7624518,-0.737507 4.5053357,-0.756361 0.4922943,-0.01249 0.6604847,0.435653 2.3184803,6.177726 0.5836893,2.0214675 1.0081578,3.7613073 0.9432634,3.8663106 -0.064897,0.1050034 -0.6599079,0.3426421 -1.3222499,0.5280862 -0.6623421,0.1854441 -1.2750034,0.4516424 -1.3614718,0.5915517 -0.086469,0.1399093 -0.00976,1.52256156 0.1704737,3.0725604 L 4.2312702,3.8079228 3.1636314,5.6180547 2.0959927,7.4281866 Z"
       id="path92"
       inkscape:label="j1 tmavé"
       sodipodi:nodetypes="ssssscsssccscssccccs" />
    <path
       style="display:inline;fill:#b8dfe5;stroke-width:0.264583"
       d="m -18.412966,-2.3282574 c -0.422846,-1.4728794 -0.722002,-5.3702924 -0.451069,-5.8765359 0.432746,-0.8085934 0.792385,-0.9233551 5.918925,-1.8887407 4.9810776,-0.937994 5.1919373,-0.924984 5.2033456,0.3210413 0.0041,0.4479938 -0.2932007,0.5771118 -3.1761386,1.379391 -2.851347,0.7934875 -4.620374,2.4369875 -5.572245,5.1768486 -0.334256,0.9621195 -0.555117,1.2196856 -1.101768,1.2848707 -0.47742,0.05693 -0.725146,-0.062814 -0.82105,-0.396875 z"
       id="path116"
       inkscape:label="j odlesk" />
  </g>
</svg>
