<?xml version="1.0" encoding="UTF-8" standalone="no"?>
<svg
   xmlns:dc="http://purl.org/dc/elements/1.1/"
   xmlns:cc="http://creativecommons.org/ns#"
   xmlns:rdf="http://www.w3.org/1999/02/22-rdf-syntax-ns#"
   xmlns:svg="http://www.w3.org/2000/svg"
   xmlns="http://www.w3.org/2000/svg"
   xmlns:sodipodi="http://sodipodi.sourceforge.net/DTD/sodipodi-0.dtd"
   xmlns:inkscape="http://www.inkscape.org/namespaces/inkscape"
   enable-background="new 0 0 1000 374.14"
   viewBox="0 0 132 98.999996"
   version="1.1"
   id="svg18"
   sodipodi:docname="Kino_Barrandov.svg"
   width="132"
   height="99"
   inkscape:version="1.0.2 (e86c870879, 2021-01-15, custom)">
  <metadata
     id="metadata24">
    <rdf:RDF>
      <cc:Work
         rdf:about="">
        <dc:format>image/svg+xml</dc:format>
        <dc:type
           rdf:resource="http://purl.org/dc/dcmitype/StillImage" />
        <dc:title></dc:title>
      </cc:Work>
    </rdf:RDF>
  </metadata>
  <defs
     id="defs22" />
  <sodipodi:namedview
     pagecolor="#ffffff"
     bordercolor="#666666"
     borderopacity="1"
     objecttolerance="10"
     gridtolerance="10"
     guidetolerance="10"
     inkscape:pageopacity="0"
     inkscape:pageshadow="2"
     inkscape:window-width="1920"
     inkscape:window-height="1001"
     id="namedview20"
     showgrid="false"
     inkscape:zoom="1.165312"
     inkscape:cx="460.49077"
     inkscape:cy="218.81248"
     inkscape:window-x="-9"
     inkscape:window-y="-9"
     inkscape:window-maximized="1"
     inkscape:current-layer="svg18" />
  <g
     fill="#2d2b21"
     id="g16"
     transform="matrix(0.12400121,0,0,0.12400121,3.9999976,26.301768)">
    <path
       id="path2"
       d="m 860.08984,283.13086 c -4.58,0 -8.64062,3.74953 -8.64062,8.26953 v 23.74023 c -4.11,-2.06 -8.83922,-3.24023 -15.19922,-3.24023 -6.71,0 -15.00953,1.82992 -20.76953,7.91992 -5.02,5.18 -8.40039,12.70008 -8.40039,23.08008 0,9.1 2.73055,16.49969 7.31054,21.67969 5.31,6.09 13.50032,9.33008 23.32032,9.33008 9.21,0 18.29937,-3.11024 23.85937,-9.74024 4.7,-5.44 6.96875,-12.31054 6.96875,-22.56054 v -50.20899 c 0.01,-4.52 -3.85922,-8.26953 -8.44922,-8.26953 z m -420.9707,0.01 c -4.66,0 -8.55859,3.74954 -8.55859,8.26954 v 50.20898 c 0,10.24 2.34976,17.12055 7.00976,22.56055 5.61,6.64 14.68992,9.74023 23.91992,9.74023 9.83,0 18.01961,-3.24008 23.34961,-9.33008 4.5,-5.19 7.25977,-12.57968 7.25977,-21.67968 0,-10.38 -2.84992,-17.91008 -7.91992,-23.08008 -5.71,-6.09 -14.52883,-7.91992 -21.29883,-7.91992 -6.48,0 -11.16141,1.18023 -15.19141,3.24023 V 291.4104 c 0,-4.53 -4.00031,-8.26954 -8.57031,-8.26954 z m 161.05078,28.76954 c -10.93,0 -19.48992,2.97961 -24.41992,9.34961 -3.33,4.27 -5.18945,9.86953 -5.18945,17.51953 v 26.71093 c 0,4.68 3.75883,8.31055 8.54883,8.31055 4.78999,0 8.55078,-3.63055 8.55078,-8.31055 v -25.42968 c 0,-3.37 0.5707,-5.70102 1.7207,-8.04102 1.69,-3.09 5.05867,-5.29883 10.13867,-5.29883 2.19,0 3.86141,0.6393 5.44141,1.2793 1.81,0.92 2.95812,1.67969 5.32812,1.67969 4.23,0 7.3711,-3.38039 7.3711,-7.65039 0.01,-3.5 -2.30055,-6.0893 -5.56055,-7.7793 -3.01,-1.41 -7.03969,-2.33984 -11.92969,-2.33984 z m 50.06055,0 c -10.86,0 -19.44086,2.97961 -24.38086,9.34961 -3.39,4.27 -5.18945,9.86953 -5.18945,17.51953 v 26.71093 c 0,4.68 3.76007,8.31055 8.58007,8.31055 4.81,0 8.57032,-3.63055 8.57032,-8.31055 v -25.42968 c 0,-3.37 0.48992,-5.70102 1.66992,-8.04102 1.68,-3.09 5.04937,-5.29883 10.10937,-5.29883 2.2,0 3.89946,0.6393 5.43946,1.2793 1.81,0.92 3.01984,1.67969 5.33984,1.67969 4.28,0 7.38086,-3.38039 7.38086,-7.65039 -0.01,-3.5 -2.33008,-6.0993 -5.58008,-7.7793 -2.97,-1.41 -6.97945,-2.33984 -11.93945,-2.33984 z m 120.16992,0.01 c -10.52,0 -19.20976,3.13047 -24.25977,9.48047 -3.39999,4.27 -5.20117,9.84 -5.20117,17.5 v 26.74023 c 0,4.54001 3.72102,8.28907 8.54102,8.28907 4.82,0 8.53906,-3.74907 8.53906,-8.28907 v -25.05078 c 0,-3.24 0.53094,-5.84078 1.71094,-8.05078 1.82,-3.23 5.15015,-5.43945 10.66015,-5.43945 5.44001,0 8.93954,2.19945 10.76954,5.43945 1.18,2.22 1.53906,4.81078 1.53906,8.05078 v 25.05078 c 0,4.54001 3.89992,8.28907 8.66992,8.28907 4.72,0 8.63086,-3.74907 8.63086,-8.28907 v -26.74023 c 0,-7.67 -1.81086,-13.24 -5.38086,-17.5 -4.9,-6.35 -13.55875,-9.48047 -24.21875,-9.48047 z m -240.31055,0.10938 c -9.83,0 -17.90937,3.2607 -23.35937,9.4707 -4.51,5.21 -7.28125,12.46906 -7.28125,21.53906 0,10.25 3.42055,17.7918 8.31055,23.0918 5.72,5.97 14.04953,7.7793 20.76953,7.7793 6.1,0 11.95984,-1.55016 16.08984,-4.41016 1.43,2.86 4.43031,4.41016 7.82031,4.41016 4.64,0 8.55078,-3.51102 8.55078,-8.29102 V 344.4707 c 0,-10.39 -2.35976,-17.12093 -7.00976,-22.71093 -5.57,-6.61 -14.68063,-9.73047 -23.89063,-9.73047 z m 170.35938,0 c -9.84,0 -17.90961,3.2607 -23.34961,9.4707 -4.52,5.21 -7.25977,12.46906 -7.25977,21.53906 0,10.25 3.38079,17.7918 8.30078,23.0918 5.72001,5.97 14.05001,7.7793 20.75,7.7793 6.12001,0 11.94985,-1.55016 16.08985,-4.41016 1.46,2.86 4.40883,4.41016 7.79883,4.41016 4.65,0 8.56054,-3.51102 8.56054,-8.29102 V 344.4707 c 0,-10.39 -2.36953,-17.12093 -7.01953,-22.71093 -5.57,-6.61 -14.67109,-9.73047 -23.87109,-9.73047 z m 207.28125,0 c -17.86,0 -31.99024,11.70148 -31.99024,31.02148 0,19.33 14.12024,30.87891 31.99024,30.87891 17.96,0 32.21875,-11.54891 32.21875,-30.87891 0,-19.32 -14.25875,-31.02148 -32.21875,-31.02148 z m 44.42969,0.01 c -6.07,0 -9.48047,3.64055 -9.48047,8.31055 0,1.55 0.49015,3.75133 1.66015,6.61133 l 13.7793,36.19922 c 2.57,7.01 6.12117,10.75976 13.45117,10.75976 7.22,0 11.1393,-3.87976 13.7793,-10.75976 l 12.93945,-35.89063 c 0.92,-2.44 1.70117,-5.30953 1.70117,-7.01953 0.01,-4.52 -1.46093,-8.21094 -6.96093,-8.21094 -4.63,0 -7.27008,3.00008 -8.33008,6.33008 l -12.0293,37.15039 h -0.5293 l -12.08984,-36.48047 c -0.87,-2.99 -2.65062,-7 -7.89062,-7 z m -113.40039,13.61133 c 5.6,0 9.06945,1.54953 12.68945,4.01953 l 0.0117,12.4707 c 0,6.37001 -1.19055,9.98852 -3.81055,12.97852 -2.56,2.86 -6.2,3.89063 -9.75,3.89063 -4.75,0 -8.50016,-2.07946 -10.66016,-5.43946 -1.95,-2.86 -3.08007,-6.50968 -3.08007,-11.17969 0,-5.82999 1.46968,-9.97984 3.92968,-12.58984 2.47,-2.72 6.16993,-4.15039 10.66993,-4.15039 z m -378.32032,0.0195 c 4.55,0 8.15961,1.44039 10.59961,4.15039 2.49,2.61 4.07031,6.75985 4.07032,12.58985 -0.01,4.66 -1.20844,8.30015 -3.14844,11.16015 -2.21,3.36 -5.99086,5.43946 -10.63086,5.43946 -3.61,0 -7.25914,-1.04063 -9.86914,-3.89063 -2.57,-2.99 -3.76172,-6.60852 -3.76172,-12.97852 v -12.45117 c 3.67,-2.48 7.17023,-4.01953 12.74023,-4.01953 z m 447.29102,0.90039 c 9.4,0 15.23047,6.89047 15.23047,16.48047 0,9.61 -5.83047,16.48828 -15.23047,16.48828 -9.3,0 -15.16992,-6.87828 -15.16992,-16.48828 0,-9.59 5.85992,-16.48047 15.16992,-16.48047 z m -377.65039,0.40039 c 3.64,0 7.26961,1.03953 9.84961,4.01953 2.49,2.85 3.91992,7.51954 3.91992,14.01954 v 11.15039 c -3.98,2.47 -8.41008,3.76953 -12.83008,3.76953 -4.69,0 -7.82039,-1.19016 -10.40039,-3.91016 -2.47,-2.59 -4.12891,-6.60859 -4.12891,-12.55859 0,-4.56 1.14914,-8.17164 3.11915,-11.18164 2.2,-3.35 5.7907,-5.3086 10.4707,-5.3086 z m 170.35937,0 c 3.64,0 7.25961,1.03953 9.84961,4.01953 2.46,2.85 3.90039,7.51954 3.90039,14.01954 l 0.01,11.15039 c -3.99,2.47 -8.41985,3.76953 -12.83984,3.76953 -4.67,0 -7.79891,-1.19016 -10.37891,-3.91016 -2.48,-2.59 -4.15039,-6.60859 -4.15039,-12.55859 0,-4.56 1.15914,-8.17164 3.11914,-11.18164 2.22,-3.35 5.82023,-5.3086 10.49023,-5.3086 z"
       inkscape:label="barrandov"
       style="fill:#000000;fill-opacity:1" />
    <path
       id="path8"
       d="m 572.66016,46.490234 c -10.47,0 -18.94922,8.479219 -18.94922,18.949219 0,10.47 8.46922,18.941172 18.94922,18.951172 10.48,0 18.94922,-8.471172 18.94922,-18.951172 0,-10.48 -8.47922,-18.949219 -18.94922,-18.949219 z M 447.7793,58.199219 c -9.22,0 -16.44922,7.231172 -16.44922,16.201172 V 216.4707 c 0,8.72 7.22922,15.94922 16.44922,15.94922 8.72,0 16.45117,-7.22922 16.45117,-15.94922 v -19.6914 l 13.70898,-11.95899 29.41016,40.62891 c 3.24,4.49 7.48094,6.98047 12.96094,6.98047 8.47,0 16.44922,-6.97922 16.44922,-15.94922 0,-3.99 -1.50024,-6.9807 -3.49024,-9.7207 l -32.40039,-42.36915 28.16016,-25.17968 c 2.74,-2.49 4.24023,-6.48071 4.24023,-10.47071 0,-7.47 -5.97922,-15.20117 -15.19922,-15.20117 -3.74,0 -7.2307,1.25024 -10.2207,3.99024 l -43.61914,41.62109 V 74.400391 c 0,-8.97 -7.23117,-16.201172 -16.45117,-16.201172 z m 228.31054,55.089841 c -20.19,0 -36.88937,5.98141 -46.60937,18.19141 -6.48,8.23 -9.9707,18.94039 -9.9707,33.65039 v 51.34961 c 0,8.72 7.23117,15.94922 16.45117,15.94922 9.22,0 16.44922,-7.22922 16.44922,-15.94922 v -48.09961 c 0,-6.23 1.00023,-11.21117 3.24023,-15.45117 3.49,-6.23 9.96945,-10.46875 20.43945,-10.46875 10.47,0 17.19946,4.23875 20.68946,10.46875 2.24,4.23 2.99023,9.22117 2.99023,15.45117 v 48.09961 c 0,8.72 7.48117,15.94922 16.70117,15.94922 8.97,0 16.44922,-7.22922 16.44922,-15.94922 v -51.34961 c 0,-14.7 -3.4907,-25.42039 -10.2207,-33.65039 -9.47,-12.21 -26.16938,-18.19141 -46.60938,-18.19141 z m -103.43945,0.25 c -9.22,0 -16.45117,7.23117 -16.45117,15.95117 v 86.99024 c 0,8.72 7.23117,15.94922 16.45117,15.94922 8.72,0 16.44922,-7.22922 16.44922,-15.94922 v -86.99024 c 0,-8.72 -7.22922,-15.95117 -16.44922,-15.95117 z m 245.50977,0 c -34.39,0 -61.56055,22.43032 -61.56055,59.57032 0,37.13999 27.16055,59.32031 61.56055,59.32031 34.39,0 61.81054,-22.18032 61.81054,-59.32031 0,-37.14001 -27.41054,-59.57032 -61.81054,-59.57032 z m 0,27.92188 c 17.94,0 29.16015,13.20844 29.16015,31.64844 0,18.43999 -11.21015,31.65039 -29.16015,31.65039 -17.95,0 -29.16993,-13.2104 -29.16993,-31.65039 0,-18.44001 11.22993,-31.64844 29.16993,-31.64844 z"
       inkscape:label="kino"
       style="fill:#ec118b;fill-opacity:1" />
    <path
       d="m 352.96,129.26 -119.31,87.49 22.43,71.01 -60.82,-43.69 -60.5,43.6 24.04,-70.84 -61.48,-44.51 73.95,-0.03 c 0,0 22.96,-67.71 24.17,-71.28 1.14,3.52 17.85,54.88 17.85,54.88 2.33,7.19 8.02,12.91 15.26,15.3 4.89,1.55 10.05,1.55 14.84,-0.01 6.08,-1.96 11.01,-6.22 13.89,-11.9 2.9,-5.69 3.4,-12.14 1.42,-18.2 L 218.22,16.53 C 215.01,6.62 205.84,0 195.49,0 h -0.03 c -10.41,0 -19.51,6.62 -22.69,16.53 0,0 -33.66,103.2 -35.23,108.01 -0.93,0 -113.65,0.03 -113.65,0.03 -10.38,0.03 -19.52,6.67 -22.72,16.48 -0.77,2.45 -1.17,4.9 -1.17,7.4 0,7.5 3.53,14.73 9.85,19.31 0,0 87.8,63.93 91.88,66.92 -0.32,0.88 -35.11,108.07 -35.11,108.07 -3.22,9.95 0.27,20.63 8.66,26.74 8.41,6.11 19.71,6.11 28.09,-0.02 l 92.01,-66.7 92.01,66.78 c 8.42,6.11 19.71,6.16 28.09,0.08 0,0 0.03,-0.03 0.05,-0.03 8.39,-6.11 11.85,-16.82 8.62,-26.71 L 289.1,234.78 381,167.97 c 6.45,-4.64 9.85,-11.96 9.85,-19.36 0,-4.86 -1.47,-9.79 -4.54,-14.04 -7.72,-10.66 -22.71,-13.06 -33.35,-5.31"
       id="path6"
       inkscape:label="hvezda"
       style="fill:#ec118b;fill-opacity:1" />
  </g>
</svg>
