<?xml version="1.0" encoding="UTF-8" standalone="no"?>
<svg
   xmlns:dc="http://purl.org/dc/elements/1.1/"
   xmlns:cc="http://creativecommons.org/ns#"
   xmlns:rdf="http://www.w3.org/1999/02/22-rdf-syntax-ns#"
   xmlns:svg="http://www.w3.org/2000/svg"
   xmlns="http://www.w3.org/2000/svg"
   xmlns:sodipodi="http://sodipodi.sourceforge.net/DTD/sodipodi-0.dtd"
   xmlns:inkscape="http://www.inkscape.org/namespaces/inkscape"
   width="132"
   height="99"
   viewBox="0 0 34.925 26.193751"
   version="1.1"
   id="svg8"
   inkscape:version="1.0.2 (e86c870879, 2021-01-15, custom)"
   sodipodi:docname="LALA_TV.svg">
  <defs
     id="defs2" />
  <sodipodi:namedview
     id="base"
     pagecolor="#ffffff"
     bordercolor="#666666"
     borderopacity="1.0"
     inkscape:pageopacity="0.0"
     inkscape:pageshadow="2"
     inkscape:zoom="0.35"
     inkscape:cx="-65.714286"
     inkscape:cy="560"
     inkscape:document-units="px"
     inkscape:current-layer="svg8"
     inkscape:document-rotation="0"
     showgrid="false"
     units="px"
     inkscape:window-width="1920"
     inkscape:window-height="1001"
     inkscape:window-x="-9"
     inkscape:window-y="-9"
     inkscape:window-maximized="1" />
  <metadata
     id="metadata5">
    <rdf:RDF>
      <cc:Work
         rdf:about="">
        <dc:format>image/svg+xml</dc:format>
        <dc:type
           rdf:resource="http://purl.org/dc/dcmitype/StillImage" />
        <dc:title></dc:title>
      </cc:Work>
    </rdf:RDF>
  </metadata>
  <path
     style="fill:#f48f1d;stroke-width:0.0481343"
     d="m 5.8877652,19.063266 c 0.0347,0 0.07616,0 0.09213,0 0.01597,0 -0.01242,0 -0.06309,0 -0.056,0 -0.06739,0 -0.02904,0 z m 0.624887,0 c 0.0347,0 0.07616,0 0.09213,0 0.01597,0 -0.01242,0 -0.06309,0 -0.056,0 -0.06739,0 -0.02904,0 z m 14.2282058,0 c 0.0347,0 0.07616,0 0.09213,0 0.01597,0 -0.01243,0 -0.06309,0 -0.056,0 -0.06739,0 -0.02904,0 z m 0.573814,0 c 0.03305,0 0.08713,0 0.120171,0 0.03305,0 0.006,0 -0.06009,0 -0.06609,0 -0.09313,0 -0.06009,0 z m 9.120953,-0.16044 c 0.04785,0 0.09782,-0.10028 0.111037,-0.10028 0.01323,0 -0.01512,0 -0.06297,0.10028 -0.04785,0 -0.09782,0.10027 -0.111036,0.10027 -0.01323,0 0.01511,-0.10027 0.06297,-0.10027 z m -2.866193,-0.42116 c -0.05979,-0.10027 -0.05809,-0.10027 0.01815,0 0.04627,0 0.08412,0.10028 0.08412,0.10028 0,0 -0.03947,0 -0.10227,-0.10028 z M 5.6524982,18.381396 c -1.281359,-0.16045 -2.505345,-0.92254 -3.260824,-2.04562 -0.604922,-0.89245 -0.905254,-2.186 -0.778222,-3.36925 0.13846,-1.28352 0.438401,-2.20605 1.215979,-3.7703397 0.533845,-1.06292 0.733328,-1.33366 1.107021,-1.4941 0.232327,-0.10028 0.401344,-0.10028 0.640437,0 0.365295,0.17046 0.567856,0.50137 0.750154,1.23338 0.15084,0.61168 0.15294,2.0255597 0.0039,2.6071597 -0.05472,0.21057 -0.0952,0.39107 -0.08996,0.39107 0.0052,0 0.154365,-0.10028 0.331377,-0.15041 0.91386,-0.46127 2.122113,-0.41113 3.049522,0.14038 0.700554,0.41113 1.267204,1.26347 1.4534238,2.186 0.307432,1.52418 -0.6301638,3.22886 -2.1546598,3.92076 -0.629981,0.2908 -1.5418,0.42116 -2.268118,0.33091 z m 6.7815628,0 c 0,0 0.03785,0 0.08412,-0.10028 0.07624,-0.10028 0.07794,0 0.01815,0 -0.0628,0.10028 -0.102269,0.1103 -0.102269,0.10028 z m 7.950679,0 c -0.995368,-0.11031 -1.918264,-0.5816 -2.703866,-1.3838 -0.512999,-0.52143 -0.483816,-0.38105 -0.279779,-1.34369 0.176251,-0.82226 0.238731,-1.74479 0.174027,-2.56705 -0.0731,-0.92253 -0.269219,-1.90522 -0.50114,-2.5169 -0.06126,-0.16044 -0.05554,-0.20055 0.09059,-0.53146 0.290516,-0.6718497 0.850857,-1.7347597 1.037201,-1.9653997 0.510283,-0.65178 1.249717,-0.56154 1.636337,0.1805 0.122386,0.24066 0.280876,0.93256 0.33925,1.47405 0.06381,0.6016497 0.01306,1.3436797 -0.129061,1.9052197 -0.03714,0.14039 -0.06752,0.28077 -0.06752,0.30083 0,0 0.133333,0 0.296294,-0.1103 0.441057,-0.23064 0.686251,-0.2908 1.217857,-0.32088 1.617757,-0.10028 2.920296,0.90247 3.298682,2.5169 0.08101,0.34094 0.07049,1.24342 -0.01797,1.54424 -0.271805,0.90248 -0.805018,1.66457 -1.491371,2.13586 -0.7978,0.55152 -1.8687,0.80221 -2.899529,0.68188 z m -9.368693,0 c -0.268707,-0.10028 -0.721899,-0.33091 -0.981909,-0.57157 -0.1605448,-0.15042 -0.2918988,-0.2908 -0.2918988,-0.31086 0,0 0.08406,-0.17046 0.186796,-0.32088 0.7582508,-1.12308 0.9230228,-2.37652 0.4756178,-3.61993 -0.239312,-0.66182 -0.7795998,-1.3838 -1.2813328,-1.71471 -0.109033,-0.10027 -0.198242,-0.15041 -0.198242,-0.17047 0,0 0.07327,-0.2206 0.162818,-0.43118 0.631138,-1.4940997 1.8220218,-2.7475397 3.0701258,-3.2188297 2.436299,-0.92253 4.484132,0.88242 5.008316,4.4121097 0.111258,0.75206 0.09997,2.06567 -0.02395,2.78765 -0.103633,0.60165 -0.133758,0.73201 -0.315356,1.32363 -0.258869,0.86237 -0.714905,1.51415 -1.209189,1.74479 -0.487802,0.2206 -1.102622,0.1103 -1.67362,-0.31086 -0.28619,-0.21057 -0.754116,-0.71195 -0.901916,-0.97266 -0.130988,-0.22061 -0.175691,-0.22061 -0.175391,0 5.45e-4,0.46126 -0.388197,1.07294 -0.822448,1.28352 -0.20774,0.1103 -0.316103,0.13036 -0.593225,0.12033 -0.18648,0 -0.382319,0 -0.435194,0 z m 2.381466,-5.9363 c 0.887783,-1.13311 1.012798,-1.36374 1.04575,-1.93531 0.01875,-0.32088 0.0056,-0.4011 -0.112548,-0.6618097 -0.399206,-0.89245 -1.580259,-1.13311 -2.317625,-0.4713 -0.856244,0.7721197 -0.720206,2.1057797 0.393351,3.8505697 l 0.178385,0.28077 0.225045,-0.30082 c 0.123774,-0.16045 0.388213,-0.50138 0.587642,-0.7621 z m -1.824885,-2.05564 c 0.0023,0 0.0137,-0.10027 0.02904,0 0.01388,0 0.01217,0.10028 -0.0038,0.10028 -0.01597,0 -0.02733,0 -0.02525,-0.10028 z m 13.218741,7.97188 c -0.215556,-0.10027 -0.628653,-0.33091 -0.628653,-0.41113 0,0 0.08866,-0.15041 0.197022,-0.27074 0.108362,-0.1103 0.298572,-0.35096 0.422691,-0.54149 0.821024,-1.22335 0.939587,-2.60715 0.331935,-3.87062 -0.107956,-0.23063 -0.277449,-0.52143 -0.376649,-0.66182 -0.281571,-0.38104 -0.79578,-0.82225 -1.157134,-0.99272 -0.179162,-0.10028 -0.326968,-0.1805 -0.328456,-0.21058 -0.01275,-0.23063 0.573675,-1.5943697 0.894141,-2.0857197 0.248186,-0.37102 0.812755,-0.91251 1.172868,-1.13311 0.501662,-0.2908 0.892655,-0.39108 1.511372,-0.39108 0.62174,0 0.972869,0.10028 1.555304,0.37102 1.438033,0.70193 2.664712,2.3564697 3.087683,4.1814797 0.204902,0.88242 0.190296,2.31636 -0.03073,3.02831 -0.01379,0 -0.06116,0 -0.176516,0 -0.180062,-0.1103 -0.31597,-0.12033 -0.493063,0 -0.24713,0.12033 -0.456309,0.63173 -0.457208,1.12308 -3.63e-4,0.1805 -0.01768,0.27074 -0.04467,0.24066 -0.04186,0 -0.388462,-1.29355 -0.388462,-1.40385 0,0 0.192527,-0.10028 0.4927,-0.10028 0.512461,0 0.712038,-0.10027 0.896595,-0.29079 0.138943,-0.15042 0.173007,-0.43119 0.07635,-0.63174 -0.213693,-0.45124 -0.858935,-0.55151 -2.52315,-0.39107 -0.849897,0.10027 -1.17989,0.16044 -1.392509,0.34093 -0.41292,0.35097 -0.375615,0.88243 0.07697,1.10303 0.207007,0.10028 0.720937,0.12033 1.165954,0 h 0.258999 l -0.03066,0.14039 c -0.01686,0.10027 -0.04433,0.58159 -0.06105,1.12308 -0.02814,0.9125 -0.0011,1.35371 0.106153,1.72473 0.0302,0.10028 0.01945,0.11031 -0.250443,0.11031 -0.693239,0 -1.301889,-0.65179 -1.375199,-1.46402 -0.01172,-0.13036 -0.02501,-0.12033 -0.25271,0.19052 -0.691008,0.95261 -1.571868,1.42391 -2.279479,1.21333 z m 3.002481,-5.10401 c 0.739989,-1.17322 1.086855,-2.24616 0.938804,-2.91801 -0.09024,-0.4010997 -0.165981,-0.5515097 -0.420522,-0.8322797 -0.307112,-0.34094 -0.641716,-0.50138 -1.097079,-0.50138 -0.554474,0 -0.984385,0.23064 -1.268285,0.71196 -0.130003,0.21058 -0.167446,0.3309097 -0.186255,0.6016497 -0.03893,0.54149 0.154028,0.9827 0.790892,1.79493 0.179942,0.23063 0.486632,0.6217 0.681533,0.88242 0.1949,0.25069 0.373082,0.46126 0.39596,0.46126 0.02288,0 0.09711,-0.10027 0.164952,-0.20055 z m 0.606463,-2.64726 c 0,-0.10028 0.01092,-0.10028 0.02425,-0.10028 0.01333,0 0.01333,0.10028 0,0.12033 -0.01333,0 -0.02425,0 -0.02425,-0.10027 z m -2.547616,-0.2908 c 0,-0.10028 0.0109,-0.10028 0.02424,-0.10028 0.01333,0 0.01333,0.10028 0,0.12033 -0.01333,0 -0.02424,0 -0.02424,-0.10027 z m -9.477039,7.89166 c 0,0 0.03785,0 0.08412,-0.10028 0.07624,-0.10027 0.07794,0 0.01815,0 -0.0628,0.10028 -0.102269,0.1103 -0.10227,0.10028 z m 10.310643,-0.1805 c 0.103262,-0.10027 0.198566,-0.19052 0.211784,-0.19052 0.01323,0 -0.06045,0.10027 -0.163716,0.19052 -0.103261,0.1103 -0.198564,0.20055 -0.211783,0.20055 -0.01323,0 0.06045,-0.10027 0.163715,-0.20055 z m -23.8239558,-0.2206 c -0.05979,-0.10028 -0.05809,-0.10028 0.01815,0 0.04627,0 0.08412,0.10027 0.08412,0.10027 0,0 -0.03947,0 -0.102268,-0.10027 z m -0.576819,-0.5816 c -0.05979,-0.10027 -0.05809,-0.10027 0.01815,0 0.04626,0 0.08412,0.10028 0.08412,0.10028 0,0 -0.03947,0 -0.102268,-0.10028 z m 29.5952378,-0.27074 c 0.01806,0 0.04493,-0.10028 0.05973,-0.10028 0.01481,0 3.1e-5,0.10028 -0.03282,0.10028 -0.04747,0 -0.05299,0 -0.02691,0 z m 1.94747,-0.73201 c 0.0023,-0.10028 0.0137,-0.10028 0.02904,0 0.01388,0 0.01217,0.10027 -0.0038,0.10027 -0.01597,0 -0.02733,0 -0.02525,-0.10027 z m -1.181469,-0.70193 c 0.04785,0 0.09782,-0.10027 0.111038,-0.10027 0.01323,0 -0.01511,0 -0.06297,0.10027 -0.04785,0.10028 -0.09782,0.10028 -0.111036,0.10028 -0.01323,0 0.01511,0 0.06297,-0.10028 z m 0.956798,-0.10027 -0.09157,-0.10028 0.108154,0.10028 c 0.05948,0 0.108154,0.10027 0.108154,0.1103 0,0 -0.03869,0 -0.124738,-0.10028 z M 1.0583612,13.588236 c 2e-4,-0.2206 0.0086,-0.30082 0.01878,-0.18049 0.01015,0.1103 0.01001,0.28077 -3.45e-4,0.38104 -0.01033,0.10028 -0.01864,0 -0.01846,-0.20055 z m 30.9045068,0.16044 c 0,-0.1103 0.0094,-0.16044 0.02083,-0.10027 0.01146,0.10027 0.01146,0.15041 0,0.21057 -0.01146,0.10028 -0.02083,0 -0.02083,-0.1103 z M 5.7082992,10.590006 c 0.0023,0 0.0137,-0.10027 0.02904,0 0.01389,0 0.01218,0.10028 -0.0038,0.10028 -0.01597,0 -0.02733,0 -0.02525,-0.10028 z m 14.8637028,-0.45124 c 0,-0.1504097 0.009,-0.2105697 0.02002,-0.13035 0.01101,0.10027 0.01101,0.19052 0,0.26071 -0.01101,0.10028 -0.02002,0 -0.02002,-0.13036 z M 5.7082992,9.7677563 c 0.0023,-0.10028 0.0137,-0.10028 0.02904,0 0.01389,0 0.01218,0.10027 -0.0038,0.10027 -0.01597,0 -0.02733,0 -0.02525,-0.10027 z m 4.03394,-0.62171 c 0,0 0.03785,0 0.08412,-0.10028 0.07624,-0.10027 0.07794,-0.10027 0.01815,0 -0.06279,0.10028 -0.102268,0.10028 -0.102268,0.10028 z m 20.3058168,-0.1805 -0.141182,-0.16044 0.156223,0.14039 c 0.08592,0.10027 0.156222,0.15041 0.156222,0.16044 0,0 -0.03966,0 -0.171263,-0.14039 z m -0.361127,-0.37101 -0.116532,-0.13036 0.132187,0.12033 c 0.0727,0.10027 0.132188,0.12033 0.132188,0.13036 0,0 -0.03892,0 -0.147843,-0.12033 z m -5.668417,0 c 0,0 0.03785,0 0.08412,-0.10028 0.07624,-0.10027 0.07794,-0.10027 0.01815,0 -0.06279,0.10028 -0.102269,0.10028 -0.10227,0.10028 z m -13.651385,0 c 0,0 0.03785,0 0.08412,-0.10028 0.07624,-0.10027 0.07794,-0.10027 0.01815,0 -0.06279,0.10028 -0.102267,0.1103 -0.102267,0.10028 z m 13.96383,-0.27075 c 0.04785,-0.10027 0.09782,-0.10027 0.111036,-0.10027 0.01323,0 -0.01511,0 -0.06297,0.10027 -0.04785,0 -0.09782,0.10028 -0.111036,0.10028 -0.01323,0 0.01512,0 0.06297,-0.10028 z m -19.3511148,-0.76209 -0.116532,-0.13036 0.132188,0.11031 c 0.123549,0.1103 0.154231,0.15041 0.116532,0.15041 -0.0086,0 -0.06809,-0.10028 -0.132188,-0.13036 z m 21.3850028,-0.19052 c 0.0347,0 0.07616,0 0.09213,0 0.01597,0 -0.01243,0 -0.06309,0 -0.056,0 -0.06739,0 -0.02904,0 z M 4.1092392,7.1806563 c 0.0347,0 0.07616,0 0.09213,0 0.01597,0 -0.01242,0 -0.06309,0 -0.056,0 -0.06739,0 -0.02904,0 z m 14.8530918,0 c 0.0347,0 0.07616,0 0.09213,0 0.01597,0 -0.01241,0 -0.06309,0 -0.056,0 -0.06739,0 -0.02904,0 z"
     id="path36" />
  <path
     style="fill:#f8d208;stroke-width:0.0481343"
     d="m 29.564817,18.902826 c -0.409407,-0.1805 -0.568075,-0.56154 -0.613908,-1.44397 -0.02288,-0.45123 0.02019,-1.6044 0.08019,-2.14589 0.01174,-0.1103 0.03427,-0.1103 -0.686437,-0.10027 -0.268974,0 -0.48098,0 -0.620467,0 -0.269371,-0.10028 -0.485104,-0.28077 -0.485104,-0.47129 0,-0.1805 0.24229,-0.52144 0.393909,-0.57157 0.06094,0 0.180494,-0.10028 0.265665,-0.10028 0.308707,-0.14038 2.571616,-0.23063 2.983681,-0.12033 0.51104,0.14039 0.539258,0.79218 0.04372,1.00275 -0.07545,0 -0.339106,0.10028 -0.600853,0.10028 -0.256521,0 -0.496338,0 -0.532926,0 -0.07838,0 0.04535,0.60165 0.375884,1.68462 0.109037,0.36099 0.240858,0.79218 0.292937,0.97267 0.114007,0.37102 0.121894,0.77212 0.0194,0.96264 -0.139686,0.27075 -0.551443,0.36099 -0.915684,0.19053 z m 1.874557,0 c -0.309658,-0.10028 -0.644718,-0.51141 -0.82435,-1.03284 -0.217761,-0.64176 -0.257137,-1.16319 -0.131598,-1.76484 0.09202,-0.43119 0.175044,-0.59163 0.363334,-0.68187 0.227937,-0.11031 0.402358,0 0.536869,0.2206 0.06166,0.13036 0.304077,1.06292 0.398681,1.53421 0.03967,0.21058 0.117099,0.14039 0.243289,-0.19052 0.159934,-0.43118 0.544321,-1.16319 0.705392,-1.34369 0.07529,-0.10027 0.212035,-0.18049 0.303883,-0.21058 0.141289,-0.10027 0.194567,0 0.346092,0 0.375372,0.20055 0.451018,0.70193 0.208699,1.40386 -0.13021,0.37102 -0.503477,1.04286 -0.683582,1.22335 -0.04569,0 -0.07096,0.10028 -0.05616,0.11031 0.01481,0 -0.0086,0 -0.05208,0.10027 -0.04344,0 -0.07898,0 -0.07898,0.10028 0,0.10027 -0.271156,0.34093 -0.504718,0.48132 -0.251571,0.14038 -0.485213,0.17047 -0.774776,0.10027 z"
     id="path38" />
  <path
     style="fill:#f8f4ea;stroke-width:0.0481343"
     d="m 29.652994,19.073286 c -0.113199,0 -0.240915,-0.10027 -0.283815,-0.13035 -0.05455,-0.10028 -0.231139,-0.10028 -0.587313,-0.10028 -0.449628,0 -0.540293,0 -0.773688,-0.13036 -0.322307,-0.15041 -0.663509,-0.48132 -0.820459,-0.8022 -0.06428,-0.12033 -0.121962,-0.24066 -0.128181,-0.25069 -0.0062,0 -0.191907,0.16044 -0.412637,0.37102 -0.960268,0.92253 -2.009076,1.06292 -2.800723,0.38105 l -0.18619,-0.16044 -0.193266,0.12033 c -0.769386,0.49135 -1.890911,0.74203 -2.855117,0.64176 -0.67325,-0.10028 -1.16272,-0.21058 -1.76043,-0.5114 -0.61938,-0.31086 -1.039886,-0.61168 -1.481735,-1.08298 -0.175518,-0.19052 -0.32766,-0.34093 -0.33809,-0.34093 -0.01043,0 -0.06776,0.1103 -0.127391,0.25069 -0.272419,0.64176 -0.701477,1.12308 -1.198479,1.35371 -0.747322,0.35096 -1.639509,0.10028 -2.446004,-0.72198 -0.167307,-0.17047 -0.310654,-0.30083 -0.318553,-0.2908 -0.0079,0 -0.06229,0.1103 -0.120867,0.22061 -0.05858,0.12033 -0.20455,0.32088 -0.324383,0.45124 -0.710977,0.76209 -1.914151,0.67184 -2.8597788,-0.20056 -0.183925,-0.17046 -0.348801,-0.29079 -0.366391,-0.26071 -0.146427,0.21058 -0.946257,0.6919 -1.449995,0.88242 -0.657544,0.24066 -1.367824,0.32088 -2.07066,0.24066 -2.215082,-0.24066 -3.938627,-1.75481 -4.519329,-3.9709 -0.101743,-0.39107 -0.113599,-0.54148 -0.114514,-1.44396 -8.9e-4,-0.89245 0.01275,-1.08297 0.111825,-1.52418 0.216511,-0.97267 0.49897,-1.75482 1.036703,-2.8678697 0.640354,-1.33366 0.930928,-1.74479 1.387467,-1.97542 0.480505,-0.24066 0.987548,-0.13036 1.373216,0.29079 0.258198,0.28077 0.378817,0.53146 0.514906,1.06292 0.208644,0.83229 0.255441,1.8651197 0.118184,2.6171797 -0.03616,0.20055 -0.03288,0.21058 0.06464,0.1805 0.692082,-0.21058 0.878128,-0.23063 1.423394,-0.21058 0.304699,0 0.672967,0.10028 0.818374,0.10028 0.145406,0 0.309734,0.10027 0.365172,0.1103 0.08129,0 0.113053,0 0.164114,-0.13036 0.625607,-1.5843497 1.8570608,-2.9881997 3.1420578,-3.5898497 1.186489,-0.55151 2.38792,-0.5114 3.394345,0.10027 0.590261,0.36099 1.162586,0.99273 1.566305,1.73477 l 0.196013,0.36099 0.110175,-0.25069 c 0.221715,-0.51141 0.894884,-1.75482 1.068093,-1.97542 0.118202,-0.14039 0.278681,-0.27075 0.47723,-0.37102 0.894806,-0.45124 1.663225,0.12033 1.969846,1.46402 0.124649,0.54148 0.176564,1.7748697 0.09679,2.2862697 -0.03042,0.19052 -0.04893,0.36099 -0.04114,0.37102 0.0078,0 0.165267,0 0.349949,-0.10028 0.258595,-0.10027 0.479437,-0.10027 0.960673,-0.10027 0.343688,0 0.694109,0 0.778713,0 h 0.153827 l 0.123421,-0.4011 c 0.848231,-2.7876497 2.832734,-4.1112897 5.060495,-3.3692497 0.75552,0.25069 1.339608,0.63173 2.019,1.32363 1.321121,1.3436897 2.030218,3.0684197 2.030788,4.9435697 1.82e-4,0.72198 -0.05427,1.18325 -0.211354,1.80495 l -0.108405,0.43119 0.125129,0.5114 c 0.06882,0.27074 0.140809,0.48132 0.159976,0.47129 0.01917,0 0.03485,-0.10027 0.03485,-0.12033 0,-0.15041 0.491697,-1.07294 0.680515,-1.28352 0.329999,-0.35096 0.707152,-0.39107 0.99024,-0.10027 0.191967,0.20055 0.256898,0.48132 0.201436,0.87239 -0.08028,0.56154 -0.270536,0.99273 -0.759599,1.69465 -0.660281,0.95262 -1.170125,1.2033 -1.792402,0.88242 -0.165413,-0.10027 -0.521898,-0.44121 -0.521898,-0.53145 0,0 -0.01887,0 -0.04192,0 -0.02306,0 -0.05501,0.10027 -0.07099,0.18049 -0.03643,0.23063 -0.272275,0.47129 -0.536006,0.54149 -0.225497,0.10027 -0.18771,0.10027 -0.446154,0 z m 0.588709,-0.14038 c 0.317798,-0.14039 0.40121,-0.5816 0.219402,-1.18325 -0.05208,-0.18049 -0.1839,-0.61168 -0.292937,-0.97267 -0.330536,-1.08297 -0.454266,-1.63448 -0.375884,-1.68462 0.03659,0 0.276405,0 0.532926,0 0.503167,0 0.673344,0 0.843397,-0.24066 0.142154,-0.15041 0.146714,-0.46127 0.0095,-0.64176 -0.141142,-0.1805 -0.402456,-0.23064 -1.146401,-0.23064 -1.057819,0 -1.911542,0.10028 -2.235365,0.21058 -0.501213,0.19052 -0.702203,0.62171 -0.420646,0.90248 0.19454,0.20055 0.478175,0.26071 0.968962,0.2206 0.720709,-0.10027 0.698169,-0.10027 0.686436,0.10028 -0.116512,1.06292 -0.109232,2.49685 0.01493,2.92804 0.164961,0.59162 0.701096,0.89244 1.195676,0.69189 z m 1.972447,-0.12033 c 0.132189,-0.10028 0.29442,-0.20055 0.360513,-0.28077 1.112698,-1.2735 1.4944,-2.72749 0.805429,-3.06842 -0.227645,-0.11031 -0.44856,0 -0.649101,0.18049 -0.161071,0.1805 -0.545458,0.91251 -0.705392,1.34369 -0.12619,0.33091 -0.203622,0.39107 -0.243289,0.19052 -0.0946,-0.47129 -0.33702,-1.40385 -0.398681,-1.53421 -0.134511,-0.26071 -0.308932,-0.33091 -0.536869,-0.2206 -0.18829,0.10027 -0.27131,0.25068 -0.363334,0.68187 -0.12545,0.60165 -0.08625,1.12308 0.131257,1.76484 0.319605,0.93256 0.962218,1.30358 1.599467,0.94259 z M 7.2693972,18.321226 c 1.049909,-0.27074 1.940466,-0.97267 2.440736,-1.91526 0.7067268,-1.35371 0.5137078,-2.84781 -0.506987,-3.94081 -0.88508,-0.95262 -2.451876,-1.22336 -3.630816,-0.62171 -0.177012,0.10028 -0.326132,0.16044 -0.331377,0.15042 -0.0052,0 0.03524,-0.1805 0.08996,-0.39108 0.149073,-0.58159 0.146973,-1.9954697 -0.0039,-2.6071497 -0.182298,-0.73201 -0.384859,-1.06292 -0.750154,-1.23339 -0.439934,-0.20055 -0.853421,0 -1.228175,0.51141 -0.150981,0.2206 -0.838043,1.57432 -1.023686,2.0255497 -0.574936,1.3838 -0.826458,2.72749 -0.712329,3.79041 0.151572,1.4239 0.721875,2.5169 1.757793,3.34919 0.63422,0.5114 1.495913,0.88242 2.282006,0.9827 0.433778,0 1.203775,0 1.616898,-0.10028 z m 14.8150698,0 c 1.350834,-0.39107 2.276288,-1.3136 2.691173,-2.68738 0.08846,-0.30082 0.09898,-1.2033 0.01797,-1.54423 -0.378387,-1.61443 -1.680926,-2.60716 -3.298683,-2.51691 -0.531605,0 -0.7768,0.10027 -1.217857,0.32088 -0.162961,0.10028 -0.296294,0.13036 -0.296294,0.1103 0,0 0.03038,-0.16044 0.06752,-0.30082 0.142126,-0.56154 0.192873,-1.30358 0.12906,-1.9052297 -0.05837,-0.54149 -0.216864,-1.23339 -0.33925,-1.47405 -0.386619,-0.74203 -1.126054,-0.83228 -1.636336,-0.18049 -0.186345,0.23063 -0.746686,1.29355 -1.037201,1.9653897 -0.146133,0.33091 -0.151844,0.37102 -0.09059,0.53146 0.231921,0.61168 0.428045,1.59438 0.501141,2.51691 0.0647,0.82225 0.0022,1.74479 -0.174027,2.56704 -0.204038,0.96264 -0.233221,0.82226 0.279778,1.34369 0.622498,0.63173 1.280375,1.03283 2.07898,1.26347 0.670153,0.19052 1.644597,0.19052 2.324613,0 z m -10.040001,0 c 0.423509,-0.21058 0.823109,-0.82226 0.822448,-1.25344 -3.64e-4,-0.21058 0.05592,-0.20055 0.202862,0 0.185808,0.28077 0.610236,0.73201 0.877001,0.92253 0.393916,0.2908 0.720379,0.41113 1.107004,0.41113 0.9141,0 1.474495,-0.6919 1.937922,-2.4066 0.335143,-1.23339 0.336711,-3.09851 0.0037,-4.43217 -0.555499,-2.2261097 -1.710399,-3.5497397 -3.248389,-3.7402597 -1.77681,-0.22061 -3.727748,1.21333 -4.6591458,3.4294097 -0.08955,0.2206 -0.162818,0.41113 -0.162818,0.43118 0,0 0.08921,0.10028 0.198242,0.17047 0.501733,0.33091 1.0420208,1.05289 1.2813338,1.71471 0.447404,1.24341 0.282632,2.49685 -0.4756188,3.61993 -0.102736,0.15041 -0.186794,0.30083 -0.186794,0.32088 0,0.10028 0.6043858,0.59162 0.8807358,0.72198 0.375791,0.1805 0.41757,0.19053 0.828267,0.19053 0.277122,0 0.385484,0 0.593224,-0.12033 z m 0.361975,-5.0639 c -0.910168,-1.42391 -1.17591,-2.61718 -0.754503,-3.3993297 0.600601,-1.10302 2.180654,-1.093 2.678777,0 0.118184,0.2607197 0.131297,0.3409397 0.112548,0.6618197 -0.03295,0.57157 -0.157967,0.8022 -1.04575,1.93531 -0.199429,0.26072 -0.463868,0.60165 -0.587642,0.76209 l -0.225045,0.30083 z m 1.393068,-1.95536 c 0.518531,-0.81223 0.377863,-1.6344897 -0.339769,-1.9954797 -0.723329,-0.35096 -1.592331,0.10028 -1.817522,0.8623697 -0.110269,0.39107 -0.07308,0.82225 0.122644,1.41388 0.126828,0.38104 0.540555,1.23338 0.678423,1.40385 0.03402,0 0.207304,-0.15041 0.621068,-0.68187 0.315637,-0.41113 0.646457,-0.86237 0.735156,-1.00275 z m 11.760481,7.0694 c 0.524726,-0.15042 1.09684,-0.60165 1.510858,-1.19328 0.105749,-0.15041 0.208496,-0.27074 0.228324,-0.27074 0.01983,0 0.03605,0.10028 0.03605,0.13036 0,0.24066 0.152831,0.61168 0.35581,0.88242 0.264704,0.35096 0.609784,0.53146 1.007724,0.53146 0.269898,0 0.280644,0 0.250443,-0.1103 -0.107178,-0.37102 -0.134291,-0.81223 -0.106153,-1.72474 0.01671,-0.54148 0.04419,-1.04286 0.06105,-1.12308 l 0.03066,-0.14039 h -0.258999 c -0.445017,0.10028 -0.958947,0 -1.165954,0 -0.452589,-0.2206 -0.489894,-0.75206 -0.07697,-1.10302 0.212619,-0.1805 0.542612,-0.26072 1.392509,-0.34094 1.664215,-0.16044 2.309457,-0.10027 2.52315,0.39107 0.09665,0.20056 0.06259,0.48133 -0.07635,0.63174 -0.184557,0.20055 -0.384134,0.27074 -0.896595,0.2908 -0.300173,0 -0.4927,0 -0.4927,0.10027 0,0.1103 0.3466,1.36374 0.388462,1.40385 0.027,0 0.04436,-0.10027 0.04467,-0.24066 9.08e-4,-0.49134 0.210078,-1.00275 0.457208,-1.12308 0.177093,-0.10027 0.313001,-0.10027 0.493063,0 0.11536,0.10028 0.162721,0.10028 0.176516,0 0.221026,-0.71195 0.235632,-2.14589 0.03073,-3.02831 -0.422971,-1.82501 -1.64965,-3.4795497 -3.087683,-4.1814697 -0.582435,-0.28078 -0.933564,-0.361 -1.555304,-0.37102 -0.618717,0 -1.00971,0.10027 -1.511372,0.4011 -0.360113,0.21058 -0.924682,0.75206 -1.172868,1.12308 -0.320466,0.49135 -0.906903,1.8550897 -0.894141,2.0857197 0.0015,0 0.149294,0.12033 0.328456,0.21058 0.361354,0.17047 0.875563,0.61168 1.157134,0.99273 0.635448,0.86236 0.90144,2.06567 0.68016,3.05839 -0.162211,0.73201 -0.573778,1.52418 -1.058137,2.01553 -0.10836,0.12033 -0.19702,0.24066 -0.19702,0.27074 0,0 0.10444,0.13036 0.232089,0.21058 0.397569,0.26072 0.719249,0.31086 1.165183,0.1805 z m 1.672948,-5.34467 c -0.194901,-0.26072 -0.501591,-0.65179 -0.681533,-0.88242 -0.636864,-0.81223 -0.829824,-1.25344 -0.790892,-1.79493 0.05451,-0.7620897 0.669471,-1.3236297 1.45454,-1.3135997 0.455363,0 0.789967,0.16044 1.097079,0.50137 0.254541,0.28077 0.330278,0.43119 0.420522,0.8322897 0.07154,0.32088 0.0071,0.88242 -0.156603,1.35371 -0.192403,0.56154 -0.838402,1.76485 -0.947153,1.76485 -0.02288,0 -0.20106,-0.21058 -0.39596,-0.46127 z m 0.61845,-0.59162 c 0.591937,-1.15317 0.707232,-1.89521 0.395491,-2.5469897 -0.34656,-0.71196 -1.365887,-0.93256 -1.965296,-0.42116 -0.268431,0.23063 -0.406824,0.5414897 -0.403367,0.9124997 0.004,0.43119 0.226809,0.85234 0.90839,1.73477 0.30875,0.39107 0.585329,0.76209 0.61462,0.8022 0.02929,0 0.07742,0.10027 0.106961,0.10027 0.02953,0 0.183976,-0.26071 0.343201,-0.57157 z"
     id="path40" />
</svg>
