<svg
  xmlns="http://www.w3.org/2000/svg"
  xmlns:xlink="http://www.w3.org/1999/xlink"
  viewBox="0 0 1000 328.83">
<defs>
  <linearGradient id="gradientb4Fe8TRKoo" gradientUnits="userSpaceOnUse" x1="413.62" y1="129.39" x2="410.35" y2="318.34">
    <stop style="stop-color: #fefefe;stop-opacity: 1" offset="0%"/>
    <stop style="stop-color: #d5171c;stop-opacity: 1" offset="100%"/>
  </linearGradient>
</defs>
<g>
  <path opacity="1" fill="url(#gradientb4Fe8TRKoo)"
    d="M846.89 205.71C844.3 221.8 837.54 241.46 830.35 253.86C822.41 267.56 798.2 292.07 784.94 299.85C772.43 307.19 755.5 313.37 739.46 316.46C725.81 319.09 694.96 319.4 682.85 317.02C635.1 307.65 595.25 270.79 584.07 225.63C579.93 208.92 579.96 173.41 584.13 157.19C589.3 137.04 600.57 115.84 613.56 101.81C638.62 74.74 667.81 61.36 706.29 59.31C713.04 58.95 717.48 58.75 720.58 58.82C823.98 70.81 858.09 135.36 846.89 205.71ZM280.62 63.91L386.12 64.35L491.62 64.79C502.27 87.17 508.18 99.6 509.36 102.08C519.12 122.6 526.72 140.03 526.23 140.81C525.75 141.59 520.23 144.41 513.99 147.06C513.23 147.38 509.44 148.99 502.62 151.89C500.64 149.37 499.54 147.97 499.32 147.69C475.28 117.15 454.48 104.06 422.88 99.59C405.53 97.14 384.38 99.71 379.18 104.91C375.87 108.21 375.54 110.75 375.04 135.84C375 137.66 374.82 146.77 374.49 163.17C380.98 163.15 384.58 163.14 385.3 163.13C401.51 163.07 409.09 160.8 414.5 154.37C417.08 151.3 419.67 146.25 420.25 143.15C420.32 142.77 420.67 140.89 421.3 137.51L435.68 137.51L450.06 137.51L449.61 186.52L449.16 235.52L435.04 235.71L420.93 235.89C419.79 230.13 419.16 226.92 419.03 226.28C418 221 415.49 213.75 413.47 210.19C407.71 200.02 402.76 197.31 387.86 196.18C386.98 196.12 382.6 195.79 374.72 195.19C374.72 217.46 374.72 229.83 374.72 232.3C374.72 269.14 374.75 269.44 378.81 273.5C381.06 275.75 385.8 278.13 389.35 278.8C398.66 280.55 427.05 278.42 438.03 275.15C461.48 268.18 485.57 250.16 503.73 226.01C504.28 225.27 507.07 221.56 512.1 214.87C519.26 218.3 523.24 220.21 524.03 220.59C530.59 223.74 536.28 226.63 536.67 227.02C537.07 227.41 528.38 247.09 517.37 270.74C516.03 273.61 509.36 287.94 497.35 313.75L388.98 313.75L280.62 313.75L280.62 298.62L280.62 283.49C286.17 282.25 289.26 281.56 289.87 281.42C300.84 278.97 307.37 273.51 308.82 265.59C309.39 262.43 309.64 225.47 309.36 183.46C308.87 111.08 308.68 106.88 305.58 103.46C302.6 100.17 299.09 98.83 285.32 95.72C285.01 95.65 283.44 95.3 280.62 94.66L280.62 79.29L280.62 63.91ZM8.56 63.93L72.72 63.93L136.89 63.93L136.89 79.22L136.89 94.52C132.01 95.23 129.3 95.63 128.76 95.71C116.79 97.45 108.51 101.22 106.38 105.88C104.32 110.42 103.24 267.87 105.24 272.99C107.83 279.62 128.28 281.58 146.21 276.91C159.74 273.39 176.9 264.14 188.13 254.32C197.51 246.1 216.18 222.45 218.14 216.29C219.15 213.09 219.86 213.24 231.95 219.22C238.95 222.68 244.68 226.06 244.68 226.72C244.68 227.37 236.3 247.03 226.04 270.4C224.8 273.24 218.59 287.4 207.4 312.89L107.98 313.33L8.56 313.77L8.56 298.56L8.56 283.34C13.42 282.61 16.12 282.2 16.66 282.12C26.73 280.61 33.46 277.23 36.31 272.24C39.57 266.53 39.47 115 36.2 107.26C33.79 101.54 27.18 97.95 14.97 95.74C14.54 95.66 12.41 95.27 8.56 94.57L8.56 79.25L8.56 63.93ZM718.37 97.18C700.17 97.29 698.4 97.61 689.8 102.38C665.61 115.77 651.53 148.23 651.52 190.55C651.52 234.83 666.17 266.41 692.13 278.08C704.67 283.72 723.08 283.5 735.76 277.57C754.3 268.9 768.89 247.69 774.45 221.35C777.51 206.8 778.14 169.75 775.51 158.6C773.07 116.68 757.9 101.81 737.77 97.07C737.77 97.07 720.31 97.17 718.37 97.18Z"/>
  <path opacity="1" fill="#0b0909" fill-opacity="1"
    d="M671.64 55.36C620.48 70 584.58 108.94 573.98 161.32C571.74 172.43 571.29 180.85 572.01 198.11C573.08 223.97 575.77 235.33 585.63 255.57C591.54 267.73 595.53 272.94 609.91 287.32C624.14 301.55 629.76 305.87 642.51 312.36C659.39 320.96 672.67 325.28 688.59 327.36C705.07 329.51 718.29 329.31 735.76 326.65C768.88 321.61 792.8 309.8 815.5 287.28C837.08 265.87 849.03 243.64 854.84 214.1C855.12 212.66 857.39 201.09 857.67 199.65C858.84 185.91 860.84 171.32 857.79 155.78C862.85 111.76 792.35 48.81 720.12 48.85C715.71 47.74 682.86 52.16 671.64 55.36ZM0 55.38L0 79.18L0 102.99C4.36 103.64 6.79 104.01 7.27 104.08C21.06 106.16 24 107 26.54 109.54C30.33 113.32 30.38 266.06 26.6 269.2C25.22 270.34 18.68 272.11 12.05 273.14C11.25 273.26 7.23 273.88 0 275L0 298.65L0 322.3L106.75 322.3L213.51 322.3C217.9 312.29 220.34 306.73 220.82 305.62C224.85 296.45 234.56 274.32 242.4 256.44C250.24 238.57 256.66 223.4 256.66 222.72C256.66 222.05 247.61 216.86 236.56 211.19C219.8 202.61 216.17 201.31 214.74 203.38C213.8 204.75 210.33 210.69 207.04 216.59C197.87 233.02 176.46 253.73 160.84 261.27C146.99 267.97 129.84 271.52 119.42 269.86C118.98 269.79 116.82 269.44 112.93 268.82C112.93 221.8 112.93 195.68 112.93 190.45C112.93 104.95 112.57 108.02 122.75 106.1C125.35 105.61 131.9 104.72 137.31 104.13C137.97 104.05 141.25 103.69 147.15 103.04L147.15 79.21L147.15 55.38L73.58 55.38L0 55.38ZM270.61 55.38L270.91 78.9L271.2 102.43C278.88 103.97 283.14 104.83 283.99 105C294.54 107.11 297.17 108.31 299 111.84C300.74 115.2 301.12 132.21 300.76 190.92C300.36 255.49 299.94 266.08 297.67 268.34C296.22 269.79 289.68 271.94 283.12 273.13C282.33 273.27 278.35 273.99 271.2 275.29L270.73 298.8L270.25 322.3L387.08 322.28L503.91 322.25C517.26 293.5 524.67 277.53 526.15 274.34C538.39 247.98 548.62 225.41 548.89 224.18C549.3 222.37 518.96 206.33 510.56 203.93C509.52 203.63 504.07 209.54 498.45 217.07C477.18 245.56 453.73 262.53 428.62 267.61C414.95 270.37 388.92 270.46 386.21 267.75C384.8 266.33 383.95 256.41 383.54 236.67C383.5 234.73 383.3 225.06 382.94 207.66C388.1 207.66 390.97 207.66 391.54 207.66C396.87 207.66 401.11 208.63 402.69 210.21C405.8 213.31 410 226.21 411.48 237.18C411.56 237.72 411.92 240.43 412.58 245.31L435.57 245.31L458.57 245.31L458.57 186.27L458.57 127.24L434.61 127.24L410.66 127.24C410.66 132.24 410.66 135.01 410.66 135.57C410.66 141.4 409.59 145.24 407.11 148.4C403.98 152.38 402.36 152.91 393.24 152.91C392.55 152.91 389.11 152.91 382.92 152.91C383.28 140.67 383.49 133.87 383.53 132.52C383.86 121.3 384.75 111.51 385.51 110.76C387.89 108.37 420.94 107.88 431.04 110.09C452.82 114.84 477.23 132.31 491.95 153.67C495.54 158.9 499.24 163.17 500.16 163.17C503.13 163.17 538.99 145.57 538.99 144.12C538.99 143.34 529.62 123.06 518.17 99.04C516.79 96.13 509.85 81.58 497.36 55.38L383.98 55.38L270.61 55.38ZM846.89 205.71C844.3 221.8 837.54 241.46 830.35 253.86C822.41 267.56 798.2 292.07 784.94 299.85C772.43 307.19 755.5 313.37 739.46 316.46C725.81 319.09 694.96 319.4 682.85 317.02C635.1 307.65 595.25 270.79 584.07 225.63C579.93 208.92 579.96 173.41 584.13 157.19C589.3 137.04 600.57 115.84 613.56 101.81C638.62 74.74 667.81 61.36 706.29 59.31C713.04 58.95 717.48 58.75 720.58 58.82C823.98 70.81 858.09 135.36 846.89 205.71ZM280.62 63.91L386.12 64.35L491.62 64.79C502.27 87.17 508.18 99.6 509.36 102.08C519.12 122.6 526.72 140.03 526.23 140.81C525.75 141.59 520.23 144.41 513.99 147.06C513.23 147.38 509.44 148.99 502.62 151.89C500.64 149.37 499.54 147.97 499.32 147.69C475.28 117.15 454.48 104.06 422.88 99.59C405.53 97.14 384.38 99.71 379.18 104.91C375.87 108.21 375.54 110.75 375.04 135.84C375 137.66 374.82 146.77 374.49 163.17C380.98 163.15 384.58 163.14 385.3 163.13C401.51 163.07 409.09 160.8 414.5 154.37C417.08 151.3 419.67 146.25 420.25 143.15C420.32 142.77 420.67 140.89 421.3 137.51L435.68 137.51L450.06 137.51L449.61 186.52L449.16 235.52L435.04 235.71L420.93 235.89C419.79 230.13 419.16 226.92 419.03 226.28C418 221 415.49 213.75 413.47 210.19C407.71 200.02 402.76 197.31 387.86 196.18C386.98 196.12 382.6 195.79 374.72 195.19C374.72 217.46 374.72 229.83 374.72 232.3C374.72 269.14 374.75 269.44 378.81 273.5C381.06 275.75 385.8 278.13 389.35 278.8C398.66 280.55 427.05 278.42 438.03 275.15C461.48 268.18 485.57 250.16 503.73 226.01C504.28 225.27 507.07 221.56 512.1 214.87C519.26 218.3 523.24 220.21 524.03 220.59C530.59 223.74 536.28 226.63 536.67 227.02C537.07 227.41 528.38 247.09 517.37 270.74C516.03 273.61 509.36 287.94 497.35 313.75L388.98 313.75L280.62 313.75L280.62 298.62L280.62 283.49C286.17 282.25 289.26 281.56 289.87 281.42C300.84 278.97 307.37 273.51 308.82 265.59C309.39 262.43 309.64 225.47 309.36 183.46C308.87 111.08 308.68 106.88 305.58 103.46C302.6 100.17 299.09 98.83 285.32 95.72C285.01 95.65 283.44 95.3 280.62 94.66L280.62 79.29L280.62 63.91ZM8.56 63.93L72.72 63.93L136.89 63.93L136.89 79.22L136.89 94.52C132.01 95.23 129.3 95.63 128.76 95.71C116.79 97.45 108.51 101.22 106.38 105.88C104.32 110.42 103.24 267.87 105.24 272.99C107.83 279.62 128.28 281.58 146.21 276.91C159.74 273.39 176.9 264.14 188.13 254.32C197.51 246.1 216.18 222.45 218.14 216.29C219.15 213.09 219.86 213.24 231.95 219.22C238.95 222.68 244.68 226.06 244.68 226.72C244.68 227.37 236.3 247.03 226.04 270.4C224.8 273.24 218.59 287.4 207.4 312.89L107.98 313.33L8.56 313.77L8.56 298.56L8.56 283.34C13.42 282.61 16.12 282.2 16.66 282.12C26.73 280.61 33.46 277.23 36.31 272.24C39.57 266.53 39.47 115 36.2 107.26C33.79 101.54 27.18 97.95 14.97 95.74C14.54 95.66 12.41 95.27 8.56 94.57L8.56 79.25L8.56 63.93ZM718.37 97.18C700.17 97.29 698.4 97.61 689.8 102.38C665.61 115.77 651.53 148.23 651.52 190.55C651.52 234.83 666.17 266.41 692.13 278.08C704.67 283.72 723.08 283.5 735.76 277.57C754.3 268.9 768.89 247.69 774.45 221.35C777.51 206.8 778.14 169.75 775.51 158.6C773.07 116.68 757.9 101.81 737.77 97.07C737.77 97.07 720.31 97.17 718.37 97.18ZM768.27 169.16C768.19 171.47 767.59 189.95 767.51 192.26C766.7 216.87 764.01 230.05 756.95 243.99C751.66 254.42 740.98 265.19 731.76 269.37C720.92 274.29 704.5 273.82 693.36 268.27C671.49 257.37 658.95 225.02 660.97 184.65C663.44 135.29 682.26 107.26 714.12 105.5C729.39 108.85 760.04 93.24 768.27 169.16Z"/>
  <path opacity="1" fill="#d3211f" fill-opacity="1"
    d="M860.57 68.34C864.37 57.11 867.27 47.71 867 47.45C866.74 47.19 858.46 47.43 848.61 47.99C847.42 48.05 841.44 48.39 830.7 49C824.92 56.82 821.71 61.16 821.07 62.03C794.9 97.46 770.54 140.09 761.32 166.6C759.19 172.71 755.52 179.83 753.15 182.4C738.31 198.56 711.22 179.69 717.09 157.28C721.36 141.01 741.22 104.56 767.28 65.18C767.49 64.87 768.54 63.29 770.42 60.45C763.3 61.11 759.34 61.47 758.55 61.55C749.27 62.41 745.5 62.04 741.25 59.84C731.48 54.78 727.82 41.81 733.23 31.35C736.96 24.13 746.25 20.11 770.26 15.29C811.48 7.02 827.27 5.46 860.09 6.43C876.88 6.93 894.85 7.35 900.02 7.37C915.85 7.41 925.45 16.23 923.44 28.85C922.99 31.68 917.92 44.97 912.18 58.39C906.43 71.82 901.73 83.64 901.73 84.66C901.73 85.69 908.47 77.05 916.71 65.48C924.94 53.9 938.99 36.88 947.93 27.64C964.08 10.97 964.24 10.86 972.43 10.87C986.92 10.9 994.03 17.14 994.09 29.89C994.14 38.8 993.72 39.44 963.65 76.42C941.59 103.55 911.55 145.42 899.83 165.38C891.52 179.54 879.78 192.26 875.04 192.26C861.69 200.97 838.33 183.4 840.35 167.31C836.72 149.83 844.82 114.81 860.57 68.34Z"/>
  <path opacity="1" fill="#f3e622" fill-opacity="1"
    d="M851.12 148.19C853.53 121.37 865.4 77.73 878.84 46.35C879.23 45.44 881.18 40.88 884.69 32.69C880.82 33.27 878.67 33.6 878.24 33.67C874.69 34.21 863.32 35.11 852.97 35.67C828.19 37.01 819.6 38.14 819.6 40.04C819.6 40.9 810.02 55.85 798.3 73.25C778.15 103.18 749.46 155.79 749.44 162.84C749.44 164.43 747.91 168.24 746.05 171.3C742 177.93 735.88 178.69 730.43 173.24C720.9 163.72 732.41 136.12 769.94 78.48C782.19 59.65 792.22 43.81 792.22 43.28C792.22 42.74 783.95 44.06 773.83 46.22C745.27 52.31 740.89 51.54 740.89 40.4C740.89 33.44 744.36 31.68 770.47 25.43C795.79 19.37 826.97 15.77 856.96 15.45C882.7 15.17 883.25 15.24 886.51 19.25C889.6 23.06 890.03 23.14 892.92 20.53C896.85 16.98 905.81 16.92 909.31 20.42C912.81 23.92 911.92 27.28 900.66 53.18C895.66 64.67 888.89 82.1 885.61 91.9C877.55 115.98 870.84 149 874.97 144.21C875.31 143.82 883.68 131.18 893.56 116.12C903.45 101.06 916.38 82.2 922.29 74.2C936.04 55.6 960.71 26.97 965.93 23.55C970.79 20.36 978.6 20.98 980.95 24.74C984.05 29.69 980.71 35.79 963.12 57.25C927.12 101.21 906.85 129.03 888.34 159.89C883.5 167.97 878.18 175.8 876.52 177.3C871.99 181.38 865.49 182.24 860.39 179.42C853.04 175.37 849.69 164.1 851.12 148.19Z"/>
  <path opacity="1" fill="#0b0909" fill-opacity="1"
    d="M806.77 3.05C777.83 7.17 746.77 13.94 738.08 18.03C729 22.3 723.58 30.59 722.83 41.35C722.09 49.73 723.29 54.64 729.41 61.88C734.17 66.36 744.52 70.78 750.23 70.78C754.48 70.78 754.42 70.95 746.15 83.92C745.59 84.8 742.8 89.18 737.77 97.07C729.32 112.2 724.62 120.61 723.69 122.3C708.53 152.42 705.3 167.28 711.19 179.69C716.65 191.2 730.97 197.98 744.78 195.61C752.92 194.21 758.97 188.63 764.18 177.72C764.46 177.15 765.82 174.3 768.27 169.16C775.16 152.04 778.98 142.53 779.75 140.63C790.58 120.84 806.28 94.71 807.96 93.67C807.96 93.67 807.96 93.67 807.97 93.67C808.64 92.53 814.06 83.41 814.74 82.28C816.75 77.6 830.51 58.58 833.07 57.21C835.24 56.05 843.47 55.32 849.34 55.35C852.86 55.37 855.53 55.67 855.53 56.31C855.53 56.83 852.55 67.03 848.89 78.98C845.24 90.94 841.71 103.22 841.06 106.28C840.97 106.68 840.89 106.98 840.8 107.34C840.81 107.35 840.85 107.4 840.93 107.48L836.29 126.88L836.31 126.92C835.3 132.4 834.74 135.45 834.63 136.06C831.94 150.72 833.7 174.72 838.09 183.17C840.13 187.1 843.33 191.39 845.2 192.7C848.82 195.95 852.98 198.33 857.67 199.65C858.48 199.73 864.91 200.35 865.71 200.42C880.52 201.85 892.08 192.94 904.49 170.54C915.8 150.12 955.11 96.34 979.28 68.21C995.74 49.05 1000 41.3 1000 30.48C1000 14.87 990.27 5.77 973.57 5.76C960.85 5.75 954.5 9.48 941.19 24.76C935.13 31.72 929.74 37.6 929.21 37.83C928.69 38.06 928.26 33.69 928.26 28.12C928.26 10.7 919.48 3.06 897.27 1.13C888.2 0.34 876.23 -0.02 863.69 0C842.77 0.04 820.23 1.13 806.77 3.05ZM860.09 6.43C876.87 6.93 894.85 7.35 900.02 7.37C915.85 7.42 925.45 16.23 923.44 28.86C922.99 31.68 917.92 44.97 912.18 58.39C906.43 71.82 901.73 83.64 901.73 84.66C901.73 85.69 908.47 77.05 916.71 65.48C924.94 53.9 938.99 36.88 947.93 27.65C964.08 10.97 964.24 10.86 972.43 10.88C986.92 10.9 994.03 17.14 994.09 29.89C994.14 38.8 993.72 39.44 963.65 76.42C941.59 103.55 911.55 145.42 899.83 165.38C891.52 179.54 879.78 192.26 875.04 192.26C873.88 192.26 871.9 192.57 870.65 192.94C865.54 194.45 855.42 189.98 849.76 183.72C841.48 174.55 839.13 162.42 841.71 142.26C844.06 123.99 851.19 96.02 860.57 68.34C864.37 57.11 867.26 47.71 867 47.45C866.74 47.19 858.46 47.43 848.61 47.99C847.42 48.06 841.45 48.39 830.7 49C824.92 56.82 821.71 61.16 821.07 62.03C794.9 97.46 770.54 140.09 761.32 166.6C759.2 172.71 755.52 179.82 753.15 182.4C738.31 198.56 711.22 179.69 717.1 157.28C721.36 141.01 741.22 104.56 767.28 65.18C767.49 64.87 768.54 63.29 770.42 60.45C763.3 61.11 759.34 61.48 758.55 61.55C749.27 62.41 745.51 62.04 741.25 59.84C731.48 54.79 727.82 41.81 733.23 31.35C736.96 24.13 746.25 20.1 770.27 15.29C806.33 8.05 822.93 5.96 848.5 6.2C852.15 6.23 855.98 6.31 860.09 6.43Z"/>
</g>
</svg>
