<?xml version="1.0" encoding="UTF-8" standalone="no"?>
<!DOCTYPE svg PUBLIC "-//W3C//DTD SVG 1.1//EN" "http://www.w3.org/Graphics/SVG/1.1/DTD/svg11.dtd">
<svg version="1.1" xmlns="http://www.w3.org/2000/svg" xmlns:xlink="http://www.w3.org/1999/xlink" preserveAspectRatio="xMidYMid meet" viewBox="0 0 132 99" width="132" height="99"><defs><path d="M41.27 4C41.27 10.46 41.27 14.05 41.27 14.76C23.21 16.02 8.91 31.14 8.91 49.5C8.91 67.88 23.21 82.98 41.27 84.24C41.27 84.95 41.27 88.54 41.27 95C41.77 95 45.73 95 46.22 95C46.22 88.54 46.22 84.95 46.22 84.24C64.28 82.98 78.58 67.88 78.58 49.48C78.58 31.12 64.28 16.02 46.22 14.76C46.22 13.33 46.22 9.74 46.22 4C45.23 4 41.77 4 41.27 4ZM41.27 79.29C25.88 78.03 13.86 65.21 13.86 49.5C13.86 33.81 25.88 20.97 41.27 19.71C41.27 25.67 41.27 73.33 41.27 79.29ZM73.63 49.5C73.63 65.21 61.58 78.05 46.22 79.29C46.22 67.37 46.22 25.67 46.22 19.71C61.61 20.95 73.63 33.79 73.63 49.5Z" id="fKM9vAQKN"></path><path d="M41.27 4C41.27 10.46 41.27 14.05 41.27 14.76C23.21 16.02 8.91 31.14 8.91 49.5C8.91 67.88 23.21 82.98 41.27 84.24C41.27 84.95 41.27 88.54 41.27 95C41.77 95 45.73 95 46.22 95C46.22 88.54 46.22 84.95 46.22 84.24C64.28 82.98 78.58 67.88 78.58 49.48C78.58 31.12 64.28 16.02 46.22 14.76C46.22 13.33 46.22 9.74 46.22 4C45.23 4 41.77 4 41.27 4ZM41.27 79.29C25.88 78.03 13.86 65.21 13.86 49.5C13.86 33.81 25.88 20.97 41.27 19.71C41.27 25.67 41.27 73.33 41.27 79.29ZM73.63 49.5C73.63 65.21 61.58 78.05 46.22 79.29C46.22 67.37 46.22 25.67 46.22 19.71C61.61 20.95 73.63 33.79 73.63 49.5Z" id="alHIxJ52"></path><path d="M110.2 45.31L112.61 45.31L112.61 55.69L115.05 55.69L115.05 45.31L115.05 44.4L115.05 43.07L112.61 43.07L110.2 43.07L110.2 45.31Z" id="f2xdM6dFWR"></path><path d="M110.2 45.31L112.61 45.31L112.61 55.69L115.05 55.69L115.05 45.31L115.05 44.4L115.05 43.07L112.61 43.07L110.2 43.07L110.2 45.31Z" id="djGjRb0bD"></path><path d="M97.11 45.26L97.11 55.69L99.56 55.69L99.56 47.96L102.37 51.98L102.84 51.98L102.85 51.98L103.32 51.98L106.13 47.96L106.13 55.69L108.58 55.69L108.58 45.26L108.58 43.07L107.44 43.07L106.65 43.07L102.84 48.72L99.04 43.07L98.25 43.07L97.11 43.07L97.11 45.26Z" id="b2Kht3CUn"></path></defs><g><g><g><use xlink:href="#fKM9vAQKN" opacity="1" fill="#1a34df" fill-opacity="1"></use><g><use xlink:href="#fKM9vAQKN" opacity="1" fill-opacity="0" stroke="#000000" stroke-width="1" stroke-opacity="0"></use></g></g><g><use xlink:href="#alHIxJ52" opacity="1" fill="#000000" fill-opacity="0"></use><g><use xlink:href="#alHIxJ52" opacity="1" fill-opacity="0" stroke="#000000" stroke-width="1" stroke-opacity="0"></use></g></g><g><use xlink:href="#f2xdM6dFWR" opacity="1" fill="#1a34df" fill-opacity="1"></use><g><use xlink:href="#f2xdM6dFWR" opacity="1" fill-opacity="0" stroke="#000000" stroke-width="1" stroke-opacity="0"></use></g></g><g><use xlink:href="#djGjRb0bD" opacity="1" fill="#000000" fill-opacity="0"></use><g><use xlink:href="#djGjRb0bD" opacity="1" fill-opacity="0" stroke="#000000" stroke-width="28.38" stroke-opacity="0"></use></g></g><g><use xlink:href="#b2Kht3CUn" opacity="1" fill="#1a34df" fill-opacity="1"></use><g><use xlink:href="#b2Kht3CUn" opacity="1" fill-opacity="0" stroke="#000000" stroke-width="1" stroke-opacity="0"></use></g></g></g></g></svg>