<?xml version="1.0" encoding="UTF-8" standalone="no"?>
<!DOCTYPE svg PUBLIC "-//W3C//DTD SVG 1.1//EN" "http://www.w3.org/Graphics/SVG/1.1/DTD/svg11.dtd">
<svg version="1.1" xmlns="http://www.w3.org/2000/svg" xmlns:xlink="http://www.w3.org/1999/xlink" preserveAspectRatio="xMidYMid meet" viewBox="0 0 132 99" width="132" height="99"><defs><path d="M35.82 10.7L35.82 88.3L40.03 88.3L40.03 10.7L35.82 10.7Z" id="g1ibXzZdnk"></path><path d="M27.38 10.7L27.38 88.3L31.6 88.3L31.6 10.7L27.38 10.7Z" id="cdmAjP3NL"></path><path d="M4 49.5C4 65.88 17.33 79.2 33.71 79.2C50.08 79.2 63.41 65.88 63.41 49.5C63.41 33.12 50.08 19.8 33.71 19.8C17.33 19.8 4 33.12 4 49.5ZM59.19 49.5C59.19 63.6 47.8 74.98 33.71 74.98C19.61 74.98 8.22 63.6 8.22 49.5C8.22 35.4 19.61 24.02 33.71 24.02C47.8 24.02 59.19 35.4 59.19 49.5Z" id="amjN0Nz7"></path><path d="M92 47.57C92.19 47.57 93.71 47.57 93.9 47.57C93.82 47.19 93.89 46.71 94.09 46.37C94.32 45.99 94.69 45.81 95.25 45.8C95.82 45.81 96.14 45.99 96.38 46.37C96.66 46.85 96.74 47.59 96.3 48.19C96.3 48.19 96.3 48.19 96.3 48.19C95.67 49.27 94.59 49.85 93.8 50.46C92.87 51.18 91.96 51.83 91.93 52.38C91.93 52.38 91.93 52.38 91.93 52.38C91.93 52.49 91.93 53.04 91.93 54.04L92.25 54.04L92.37 54.04L98.56 54.04L98.56 52.38C95.98 52.38 94.56 52.38 94.27 52.38C94.52 52.09 94.79 51.81 95.28 51.44C96.01 50.88 97.23 50.13 97.82 49.33C98.23 48.78 98.41 48.13 98.47 47.48C98.55 46.64 98.28 45.92 98.01 45.48C97.41 44.51 96.08 44.19 95.25 44.17C93.13 44.17 92 45.36 92 47.57Z" id="b1Pfp3nIi0"></path><path d="M79.99 44.33L79.99 44.33L79.96 44.33L79.96 54.04L81.75 54.04L81.75 47.02L84.07 53.75L84.17 54.04L85.76 54.04L85.86 53.75L88.24 46.84L88.24 54.04L90.03 54.04L90.03 45.36L90.03 44.33L89.94 44.33L87.31 44.33L86.96 45.36L84.97 51.14L82.97 45.36L82.62 44.33L79.99 44.33Z" id="c1V3GvsL6b"></path><path d="M81.76 68.01L81.76 64.48C83.27 64.48 84.1 64.48 84.27 64.48C86.4 64.48 87.58 63.03 87.58 61.31C87.58 59.57 86.41 58.12 84.27 58.12C83.96 58.12 82.43 58.12 79.66 58.12L79.66 68.01L81.76 68.01ZM81.76 62.63L81.76 59.97C83.09 59.97 83.83 59.97 83.98 59.97C84.8 59.97 85.44 60.48 85.44 61.31C85.44 62.12 84.8 62.63 83.98 62.63C83.68 62.63 82.94 62.63 81.76 62.63Z" id="ajTV0aYX4"></path><path d="M95.88 68.01L95.88 66.16L91 66.16L91 63.9L95.77 63.9L95.77 62.05L91 62.05L91 59.97L95.88 59.97L95.88 58.12L88.9 58.12L88.9 68.01L95.88 68.01Z" id="cRUbI0I6b"></path><path d="M101.97 68.01L101.97 59.97L104.84 59.97L104.84 58.12L96.98 58.12L96.98 59.97L99.86 59.97L99.86 68.01L101.97 68.01Z" id="dGwlNCyzU"></path><path d="M110.19 55.08L108.99 57.16L110.1 57.16L111.7 55.08L110.19 55.08ZM112.42 55.08L111.21 57.16L112.32 57.16L113.93 55.08L112.42 55.08ZM105.55 63.07C105.55 66.06 107.72 68.19 110.7 68.19C113.67 68.19 115.85 66.06 115.85 63.07C115.85 60.09 113.67 57.95 110.7 57.95C107.72 57.95 105.55 60.09 105.55 63.07ZM113.69 63.07C113.69 64.91 112.52 66.32 110.7 66.32C108.87 66.32 107.7 64.91 107.7 63.07C107.7 61.22 108.87 59.82 110.7 59.82C112.52 59.82 113.69 61.22 113.69 63.07Z" id="b15McvIy8R"></path><path d="M119.55 68.01L119.55 63.9L124.32 63.9L124.32 62.05L119.55 62.05L119.55 59.97L124.43 59.97L124.43 58.12L117.45 58.12L117.45 68.01L119.55 68.01Z" id="bCu94MAHn"></path><path d="M128 68.01L128 58.12L125.9 58.12L125.9 68.01L128 68.01Z" id="b5jhDkR015"></path></defs><g><g><g><use xlink:href="#g1ibXzZdnk" opacity="1" fill="#7dcb0c" fill-opacity="1"></use><g><use xlink:href="#g1ibXzZdnk" opacity="1" fill-opacity="0" stroke="#000000" stroke-width="20.42" stroke-opacity="0"></use></g></g><g><use xlink:href="#cdmAjP3NL" opacity="1" fill="#7dcb0c" fill-opacity="1"></use><g><use xlink:href="#cdmAjP3NL" opacity="1" fill-opacity="0" stroke="#000000" stroke-width="20.42" stroke-opacity="0"></use></g></g><g><use xlink:href="#amjN0Nz7" opacity="1" fill="#000000" fill-opacity="1"></use><g><use xlink:href="#amjN0Nz7" opacity="1" fill-opacity="0" stroke="#000000" stroke-width="20" stroke-opacity="0"></use></g></g><g><use xlink:href="#b1Pfp3nIi0" opacity="1" fill="#000000" fill-opacity="1"></use><g><use xlink:href="#b1Pfp3nIi0" opacity="1" fill-opacity="0" stroke="#000000" stroke-width="9" stroke-opacity="0"></use></g></g><g><use xlink:href="#c1V3GvsL6b" opacity="1" fill="#000000" fill-opacity="1"></use><g><use xlink:href="#c1V3GvsL6b" opacity="1" fill-opacity="0" stroke="#000000" stroke-width="8.99" stroke-opacity="0"></use></g></g><g><use xlink:href="#ajTV0aYX4" opacity="1" fill="#000000" fill-opacity="1"></use><g><use xlink:href="#ajTV0aYX4" opacity="1" fill-opacity="0" stroke="#000000" stroke-width="1.75" stroke-opacity="0"></use></g></g><g><use xlink:href="#cRUbI0I6b" opacity="1" fill="#000000" fill-opacity="1"></use><g><use xlink:href="#cRUbI0I6b" opacity="1" fill-opacity="0" stroke="#000000" stroke-width="1.75" stroke-opacity="0"></use></g></g><g><use xlink:href="#dGwlNCyzU" opacity="1" fill="#000000" fill-opacity="1"></use><g><use xlink:href="#dGwlNCyzU" opacity="1" fill-opacity="0" stroke="#000000" stroke-width="1.75" stroke-opacity="0"></use></g></g><g><use xlink:href="#b15McvIy8R" opacity="1" fill="#000000" fill-opacity="1"></use><g><use xlink:href="#b15McvIy8R" opacity="1" fill-opacity="0" stroke="#000000" stroke-width="1.75" stroke-opacity="0"></use></g></g><g><use xlink:href="#bCu94MAHn" opacity="1" fill="#000000" fill-opacity="1"></use><g><use xlink:href="#bCu94MAHn" opacity="1" fill-opacity="0" stroke="#000000" stroke-width="1.75" stroke-opacity="0"></use></g></g><g><use xlink:href="#b5jhDkR015" opacity="1" fill="#000000" fill-opacity="1"></use><g><use xlink:href="#b5jhDkR015" opacity="1" fill-opacity="0" stroke="#000000" stroke-width="1.75" stroke-opacity="0"></use></g></g></g></g></svg>