<?xml version="1.0" encoding="UTF-8" standalone="no"?>
<!DOCTYPE svg PUBLIC "-//W3C//DTD SVG 1.1//EN" "http://www.w3.org/Graphics/SVG/1.1/DTD/svg11.dtd">
<svg version="1.1" xmlns="http://www.w3.org/2000/svg" xmlns:xlink="http://www.w3.org/1999/xlink" preserveAspectRatio="xMidYMid meet" viewBox="0 0 132 99" width="132" height="99"><defs><path d="M50.02 47.39L53.92 49.65L36.42 79.96L32.52 77.71L50.02 47.39Z" id="h1zYhUCYp3"></path><path d="M35.3 19.01L39.2 21.26L22.06 50.94L18.16 48.69L35.3 19.01Z" id="a4gC3cd1Lb"></path><path d="M36.13 77.22C20.88 77.22 8.5 64.84 8.5 49.59C8.5 34.33 20.88 21.96 36.13 21.96C51.39 21.96 63.77 34.33 63.77 49.59C63.76 64.84 51.39 77.22 36.13 77.22M36.13 17.46C18.39 17.46 4 31.84 4 49.59C4 67.33 18.39 81.72 36.13 81.72C53.88 81.72 68.26 67.33 68.26 49.59C68.26 31.84 53.87 17.46 36.13 17.46" id="c2KWkJcbB"></path><path d="M20.16 72.13C22.47 68.14 34 48.16 54.76 12.2L50.86 9.95L16.66 69.19C18.17 70.57 19.33 71.55 20.16 72.13Z" id="a2V4nC0f3T"></path><path d="M51.6 26.69C49.28 30.7 37.71 50.73 16.89 86.8L20.79 89.05L55.14 29.54C53.62 28.21 52.44 27.26 51.6 26.69Z" id="d1I7q5GSB4"></path><path d="M93.67 41.88L90.73 49.18L89.76 49.18L86.81 41.87L86.81 49.17L84.59 49.17L84.59 38.74L87.71 38.74L90.24 45.05L92.78 38.74L95.91 38.74L95.91 49.17L93.67 49.17L93.67 41.88Z" id="aazRcCgt6"></path><path d="M99.51 45.06L102.32 45.06L102.32 40.71L99.51 45.06ZM102.32 47.02L97.33 47.02L97.33 45.27L101.48 38.74L104.54 38.74L104.54 45.06L105.89 45.06L105.89 47.02L104.54 47.02L104.54 49.17L102.32 49.17L102.32 47.02Z" id="aNjmIQ16i"></path><path d="M85.96 57.96C86.04 58.14 86.17 58.28 86.32 58.38C86.46 58.49 86.64 58.57 86.84 58.62C87.04 58.67 87.25 58.71 87.47 58.71C87.61 58.71 87.76 58.7 87.93 58.67C88.1 58.65 88.26 58.6 88.4 58.54C88.55 58.46 88.67 58.37 88.77 58.25C88.86 58.13 88.91 57.98 88.91 57.79C88.91 57.59 88.85 57.43 88.72 57.3C88.59 57.17 88.42 57.07 88.21 56.99C88 56.91 87.76 56.83 87.5 56.77C87.23 56.7 86.96 56.64 86.7 56.57C86.42 56.5 86.15 56.42 85.88 56.32C85.62 56.22 85.38 56.08 85.17 55.92C84.96 55.76 84.79 55.56 84.66 55.33C84.53 55.1 84.47 54.81 84.47 54.46C84.47 54.08 84.55 53.75 84.71 53.47C84.87 53.18 85.09 52.95 85.35 52.76C85.62 52.58 85.92 52.44 86.25 52.34C86.58 52.26 86.92 52.21 87.25 52.21C87.63 52.21 88.01 52.25 88.37 52.34C88.72 52.43 89.05 52.56 89.32 52.76C89.6 52.95 89.82 53.2 89.98 53.5C90.15 53.8 90.23 54.17 90.23 54.6C90.07 54.6 88.82 54.6 88.67 54.6C88.65 54.37 88.6 54.19 88.53 54.05C88.45 53.9 88.35 53.79 88.22 53.7C88.09 53.62 87.93 53.56 87.76 53.52C87.58 53.49 87.4 53.47 87.21 53.47C87.08 53.47 86.94 53.49 86.81 53.52C86.68 53.54 86.56 53.59 86.45 53.66C86.34 53.73 86.25 53.82 86.18 53.93C86.11 54.03 86.08 54.16 86.08 54.31C86.08 54.46 86.1 54.58 86.16 54.67C86.21 54.76 86.32 54.85 86.49 54.92C86.65 54.99 86.88 55.07 87.17 55.15C87.46 55.23 87.83 55.33 88.3 55.44C88.43 55.48 88.63 55.53 88.88 55.61C89.13 55.68 89.37 55.79 89.61 55.95C89.85 56.11 90.06 56.32 90.24 56.59C90.42 56.86 90.51 57.2 90.51 57.62C90.51 57.95 90.44 58.27 90.31 58.56C90.18 58.85 89.98 59.1 89.72 59.32C89.46 59.53 89.14 59.7 88.75 59.81C88.36 59.93 87.92 59.99 87.41 59.99C87 59.99 86.6 59.93 86.21 59.83C85.83 59.72 85.49 59.56 85.19 59.35C84.89 59.14 84.66 58.87 84.49 58.53C84.31 58.2 84.23 57.79 84.24 57.34C84.34 57.34 84.87 57.34 85.82 57.34C85.85 57.64 85.9 57.84 85.96 57.96Z" id="baYIaLLyW"></path><path d="M94.26 55.87C94.44 55.87 94.63 55.85 94.8 55.83C94.98 55.81 95.12 55.75 95.26 55.67C95.39 55.59 95.49 55.47 95.57 55.33C95.65 55.18 95.7 54.99 95.7 54.76C95.7 54.52 95.65 54.33 95.57 54.18C95.49 54.04 95.39 53.92 95.26 53.84C95.13 53.76 94.98 53.71 94.8 53.68C94.62 53.66 94.44 53.64 94.26 53.64C94.17 53.64 93.75 53.64 92.99 53.64L92.99 55.87C93.75 55.87 94.17 55.87 94.26 55.87ZM94.71 52.37C95.18 52.37 95.57 52.43 95.9 52.57C96.22 52.71 96.49 52.88 96.7 53.1C96.9 53.33 97.05 53.58 97.14 53.87C97.24 54.16 97.28 54.45 97.28 54.75C97.28 55.05 97.23 55.35 97.14 55.64C97.04 55.92 96.9 56.18 96.7 56.39C96.49 56.62 96.23 56.8 95.9 56.93C95.57 57.06 95.17 57.13 94.71 57.13C94.6 57.13 94.02 57.13 92.99 57.13L92.99 59.79L91.35 59.79L91.35 52.37C93.37 52.37 94.49 52.37 94.71 52.37Z" id="d39eaAY9Xz"></path><path d="M101.51 53.78C101.19 53.78 100.9 53.84 100.63 53.96C100.35 54.08 100.11 54.24 99.91 54.45C99.71 54.66 99.54 54.91 99.42 55.18C99.3 55.45 99.23 55.75 99.23 56.06C99.23 56.37 99.3 56.67 99.42 56.94C99.54 57.21 99.7 57.46 99.91 57.66C100.11 57.86 100.35 58.02 100.63 58.15C100.9 58.27 101.19 58.34 101.51 58.34C101.82 58.34 102.11 58.28 102.38 58.15C102.65 58.03 102.89 57.87 103.09 57.66C103.29 57.46 103.45 57.21 103.57 56.94C103.7 56.67 103.75 56.37 103.75 56.06C103.75 55.75 103.7 55.45 103.57 55.18C103.45 54.91 103.29 54.66 103.09 54.45C102.89 54.24 102.65 54.08 102.38 53.96C102.11 53.83 101.82 53.78 101.51 53.78M105.36 56.05C105.36 56.58 105.25 57.09 105.05 57.55C104.85 58.02 104.57 58.43 104.22 58.76C103.87 59.11 103.46 59.38 102.99 59.58C102.52 59.78 102.02 59.88 101.5 59.88C100.97 59.88 100.47 59.78 100 59.58C99.53 59.38 99.13 59.1 98.78 58.76C98.43 58.42 98.16 58.01 97.96 57.55C97.75 57.09 97.66 56.58 97.66 56.05C97.66 55.52 97.75 55.02 97.96 54.54C98.16 54.07 98.43 53.66 98.78 53.32C99.13 52.97 99.53 52.69 100 52.49C100.47 52.29 100.97 52.19 101.5 52.19C102.02 52.19 102.52 52.29 102.99 52.49C103.46 52.69 103.87 52.97 104.22 53.32C104.57 53.66 104.84 54.07 105.05 54.54C105.26 55.02 105.36 55.52 105.36 56.05" id="arg5B6SNE"></path><path d="M107.85 55.86C108.62 55.86 109.04 55.86 109.13 55.86C109.32 55.86 109.51 55.85 109.69 55.82C109.86 55.8 110.01 55.74 110.14 55.65C110.27 55.57 110.37 55.46 110.44 55.31C110.52 55.17 110.56 54.97 110.56 54.74C110.56 54.5 110.52 54.3 110.44 54.16C110.36 54.01 110.27 53.9 110.14 53.82C110.01 53.74 109.85 53.69 109.69 53.67C109.51 53.64 109.33 53.63 109.13 53.63C109.04 53.63 108.62 53.63 107.85 53.63L107.85 55.86ZM112.38 59.81L110.54 59.81L108.66 57.15L107.85 57.15L107.85 59.81L106.21 59.81L106.21 52.38C108.23 52.38 109.35 52.38 109.57 52.38C110.04 52.38 110.44 52.44 110.77 52.58C111.1 52.71 111.36 52.89 111.57 53.11C111.78 53.34 111.94 53.59 112.03 53.88C112.12 54.17 112.16 54.46 112.16 54.76C112.16 55.01 112.13 55.26 112.06 55.5C111.99 55.75 111.88 55.98 111.74 56.19C111.6 56.4 111.42 56.57 111.19 56.73C110.97 56.88 110.7 56.99 110.4 57.06C110.4 57.06 110.42 57.06 110.45 57.06L112.38 59.81Z" id="a48cWfAn3z"></path><path d="M112.99 53.76L112.99 52.37L119.34 52.37L119.34 53.76L117 53.75L117 59.82L115.36 59.82L115.36 53.75L112.99 53.76Z" id="aZAPbRUWx"></path><path d="M124.76 55.61L124.76 52.36L123.81 52.36L123.81 55.61L120.54 55.61L120.54 56.55L123.81 56.55L123.81 59.82L124.76 59.82L124.76 56.55L128 56.55L128 55.61L124.76 55.61Z" id="ckFkBMt56"></path></defs><g><g><g><use xlink:href="#h1zYhUCYp3" opacity="1" fill="#cc0000" fill-opacity="1"></use><g><use xlink:href="#h1zYhUCYp3" opacity="1" fill-opacity="0" stroke="#000000" stroke-width="1" stroke-opacity="0"></use></g></g><g><use xlink:href="#a4gC3cd1Lb" opacity="1" fill="#cc0000" fill-opacity="1"></use><g><use xlink:href="#a4gC3cd1Lb" opacity="1" fill-opacity="0" stroke="#000000" stroke-width="1" stroke-opacity="0"></use></g></g><g><use xlink:href="#c2KWkJcbB" opacity="1" fill="#000000" fill-opacity="1"></use><g><use xlink:href="#c2KWkJcbB" opacity="1" fill-opacity="0" stroke="#000000" stroke-width="1" stroke-opacity="0"></use></g></g><g><use xlink:href="#a2V4nC0f3T" opacity="1" fill="#cc0000" fill-opacity="1"></use><g><use xlink:href="#a2V4nC0f3T" opacity="1" fill-opacity="0" stroke="#000000" stroke-width="1" stroke-opacity="0"></use></g></g><g><use xlink:href="#d1I7q5GSB4" opacity="1" fill="#cc0000" fill-opacity="1"></use><g><use xlink:href="#d1I7q5GSB4" opacity="1" fill-opacity="0" stroke="#000000" stroke-width="1" stroke-opacity="0"></use></g></g><g><use xlink:href="#aazRcCgt6" opacity="1" fill="#000000" fill-opacity="1"></use><g><use xlink:href="#aazRcCgt6" opacity="1" fill-opacity="0" stroke="#000000" stroke-width="1" stroke-opacity="0"></use></g></g><g><use xlink:href="#aNjmIQ16i" opacity="1" fill="#000000" fill-opacity="1"></use><g><use xlink:href="#aNjmIQ16i" opacity="1" fill-opacity="0" stroke="#000000" stroke-width="1" stroke-opacity="0"></use></g></g><g><use xlink:href="#baYIaLLyW" opacity="1" fill="#000000" fill-opacity="1"></use><g><use xlink:href="#baYIaLLyW" opacity="1" fill-opacity="0" stroke="#000000" stroke-width="1" stroke-opacity="0"></use></g></g><g><use xlink:href="#d39eaAY9Xz" opacity="1" fill="#000000" fill-opacity="1"></use><g><use xlink:href="#d39eaAY9Xz" opacity="1" fill-opacity="0" stroke="#000000" stroke-width="1" stroke-opacity="0"></use></g></g><g><use xlink:href="#arg5B6SNE" opacity="1" fill="#000000" fill-opacity="1"></use><g><use xlink:href="#arg5B6SNE" opacity="1" fill-opacity="0" stroke="#000000" stroke-width="1" stroke-opacity="0"></use></g></g><g><use xlink:href="#a48cWfAn3z" opacity="1" fill="#000000" fill-opacity="1"></use><g><use xlink:href="#a48cWfAn3z" opacity="1" fill-opacity="0" stroke="#000000" stroke-width="1" stroke-opacity="0"></use></g></g><g><use xlink:href="#aZAPbRUWx" opacity="1" fill="#000000" fill-opacity="1"></use><g><use xlink:href="#aZAPbRUWx" opacity="1" fill-opacity="0" stroke="#000000" stroke-width="1" stroke-opacity="0"></use></g></g><g><use xlink:href="#ckFkBMt56" opacity="1" fill="#d40000" fill-opacity="1"></use><g><use xlink:href="#ckFkBMt56" opacity="1" fill-opacity="0" stroke="#000000" stroke-width="1" stroke-opacity="0"></use></g></g></g></g></svg>