<?xml version="1.0" encoding="UTF-8" standalone="no"?>
<svg
   xmlns:dc="http://purl.org/dc/elements/1.1/"
   xmlns:cc="http://creativecommons.org/ns#"
   xmlns:rdf="http://www.w3.org/1999/02/22-rdf-syntax-ns#"
   xmlns:svg="http://www.w3.org/2000/svg"
   xmlns="http://www.w3.org/2000/svg"
   xmlns:sodipodi="http://sodipodi.sourceforge.net/DTD/sodipodi-0.dtd"
   xmlns:inkscape="http://www.inkscape.org/namespaces/inkscape"
   version="1.1"
   id="svg10"
   width="132"
   height="99"
   viewBox="0 0 132 99.000002"
   sodipodi:docname="M4_Sport.svg"
   inkscape:version="1.0.2 (e86c870879, 2021-01-15, custom)">
  <metadata
     id="metadata16">
    <rdf:RDF>
      <cc:Work
         rdf:about="">
        <dc:format>image/svg+xml</dc:format>
        <dc:type
           rdf:resource="http://purl.org/dc/dcmitype/StillImage" />
        <dc:title></dc:title>
      </cc:Work>
    </rdf:RDF>
  </metadata>
  <defs
     id="defs14" />
  <sodipodi:namedview
     pagecolor="#ffffff"
     bordercolor="#666666"
     borderopacity="1"
     objecttolerance="10"
     gridtolerance="10"
     guidetolerance="10"
     inkscape:pageopacity="0"
     inkscape:pageshadow="2"
     inkscape:window-width="1920"
     inkscape:window-height="1001"
     id="namedview12"
     showgrid="false"
     inkscape:zoom="0.70710678"
     inkscape:cx="595.50883"
     inkscape:cy="473.37339"
     inkscape:window-x="-9"
     inkscape:window-y="-9"
     inkscape:window-maximized="1"
     inkscape:current-layer="svg10"
     showguides="true"
     inkscape:measure-start="414.168,885.723"
     inkscape:measure-end="414.168,955.723"
     fit-margin-top="0"
     fit-margin-left="0"
     fit-margin-right="0"
     fit-margin-bottom="0"
     inkscape:lockguides="false"
     inkscape:document-rotation="0">
    <inkscape:grid
       type="xygrid"
       id="grid869"
       originx="2863.9368"
       originy="-556.99138" />
  </sodipodi:namedview>
  <g
     id="g43"
     transform="matrix(0.08443644,0,0,0.08443644,4,6.5314989)">
    <path
       style="color:#000000;font-style:normal;font-variant:normal;font-weight:normal;font-stretch:normal;font-size:medium;line-height:normal;font-family:sans-serif;font-variant-ligatures:normal;font-variant-position:normal;font-variant-caps:normal;font-variant-numeric:normal;font-variant-alternates:normal;font-feature-settings:normal;text-indent:0;text-align:start;text-decoration:none;text-decoration-line:none;text-decoration-style:solid;text-decoration-color:#000000;letter-spacing:normal;word-spacing:normal;text-transform:none;writing-mode:lr-tb;direction:ltr;text-orientation:mixed;dominant-baseline:auto;baseline-shift:baseline;text-anchor:start;white-space:normal;shape-padding:0;clip-rule:nonzero;display:inline;overflow:visible;visibility:visible;opacity:1;isolation:auto;mix-blend-mode:normal;color-interpolation:sRGB;color-interpolation-filters:linearRGB;solid-color:#000000;solid-opacity:1;vector-effect:none;fill:#000000;fill-opacity:1;fill-rule:nonzero;stroke:none;stroke-width:25.0629;stroke-linecap:butt;stroke-linejoin:miter;stroke-miterlimit:4;stroke-dasharray:none;stroke-dashoffset:0;stroke-opacity:1;color-rendering:auto;image-rendering:auto;shape-rendering:auto;text-rendering:auto;enable-background:accumulate"
       d="m 1037.7006,377.01758 v 0.0653 h -0.4346 -3.1801 v 128.68957 h 3.1801 v -0.0653 h 23.646 v -93.00963 -0.0415 l 0.014,0.0415 h 0.086 l 35.5248,93.00963 h 13.5067 l 36.4386,-95.3991 v 95.3991 h 23.646 3.1821 V 377.01758 h -3.1821 -1.2388 -34.6499 l -4.6615,13.60895 -26.2838,67.40778 -26.2801,-67.40778 -4.6635,-13.60895 z"
       id="path31"
       inkscape:connector-curvature="0" />
    <path
       style="color:#000000;font-style:normal;font-variant:normal;font-weight:normal;font-stretch:normal;font-size:medium;line-height:normal;font-family:sans-serif;font-variant-ligatures:normal;font-variant-position:normal;font-variant-caps:normal;font-variant-numeric:normal;font-variant-alternates:normal;font-feature-settings:normal;text-indent:0;text-align:start;text-decoration:none;text-decoration-line:none;text-decoration-style:solid;text-decoration-color:#000000;letter-spacing:normal;word-spacing:normal;text-transform:none;writing-mode:lr-tb;direction:ltr;text-orientation:mixed;dominant-baseline:auto;baseline-shift:baseline;text-anchor:start;white-space:normal;shape-padding:0;clip-rule:nonzero;display:inline;overflow:visible;visibility:visible;opacity:1;isolation:auto;mix-blend-mode:normal;color-interpolation:sRGB;color-interpolation-filters:linearRGB;solid-color:#000000;solid-opacity:1;vector-effect:none;fill:#e10606;fill-opacity:1;fill-rule:nonzero;stroke:none;stroke-width:70;stroke-linecap:butt;stroke-linejoin:miter;stroke-miterlimit:4;stroke-dasharray:none;stroke-dashoffset:0;stroke-opacity:1;color-rendering:auto;image-rendering:auto;shape-rendering:auto;text-rendering:auto;enable-background:accumulate"
       d="m 455.1309,168.80664 c -2.3164,-0.27764 -4.6185,-0.63251 -6.9434,-0.86328 -5.6281,-0.55866 -11.2795,-0.9785 -16.9512,-1.25977 -5.6716,-0.28127 -11.3625,-0.42383 -17.0683,-0.42383 -5.953,0 -11.8706,0.15069 -17.7481,0.44727 -5.8774,0.29658 -11.7149,0.73819 -17.5097,1.32422 -2.0325,0.20554 -4.0292,0.52507 -6.0508,0.76562 l -198.6035,321.54688 50.9941,31.38867 8.6172,5.30469 z"
       id="path117"
       inkscape:connector-curvature="0" />
    <path
       style="color:#000000;font-style:normal;font-variant:normal;font-weight:normal;font-stretch:normal;font-size:medium;line-height:normal;font-family:sans-serif;font-variant-ligatures:normal;font-variant-position:normal;font-variant-caps:normal;font-variant-numeric:normal;font-variant-alternates:normal;font-feature-settings:normal;text-indent:0;text-align:start;text-decoration:none;text-decoration-line:none;text-decoration-style:solid;text-decoration-color:#000000;letter-spacing:normal;word-spacing:normal;text-transform:none;writing-mode:lr-tb;direction:ltr;text-orientation:mixed;dominant-baseline:auto;baseline-shift:baseline;text-anchor:start;white-space:normal;shape-padding:0;clip-rule:nonzero;display:inline;overflow:visible;visibility:visible;opacity:1;isolation:auto;mix-blend-mode:normal;color-interpolation:sRGB;color-interpolation-filters:linearRGB;solid-color:#000000;solid-opacity:1;vector-effect:none;fill:#000000;fill-opacity:1;fill-rule:nonzero;stroke:none;stroke-width:70;stroke-linecap:butt;stroke-linejoin:miter;stroke-miterlimit:4;stroke-dasharray:none;stroke-dashoffset:0;stroke-opacity:1;color-rendering:auto;image-rendering:auto;shape-rendering:auto;text-rendering:auto;enable-background:accumulate"
       d="M 414.168,96.25976 C 185.8433,96.25976 0,282.10502 0,510.42969 c 0,109.831 43.6444,215.19908 121.3067,292.86132 77.6622,77.66225 183.0303,121.3086 292.8613,121.3086 109.831,0 215.201,-43.64635 292.8632,-121.3086 77.6623,-77.66224 121.3067,-183.03032 121.3067,-292.86132 0,-109.83101 -43.6444,-215.19909 -121.3067,-292.86133 C 629.369,139.90611 523.999,96.25976 414.168,96.25976 Z m 0,70 c 91.2927,0 178.8115,36.25097 243.3652,100.80469 64.5537,64.55372 100.8047,152.07249 100.8047,243.36524 0,91.29274 -36.251,178.80956 -100.8047,243.36328 -64.5537,64.55371 -152.0725,100.80664 -243.3652,100.80664 -91.2928,0 -178.8096,-36.25293 -243.3633,-100.80664 C 106.251,689.23925 70,601.72243 70,510.42969 70,319.93583 223.6741,166.25976 414.168,166.25976 Z"
       id="path977"
       inkscape:connector-curvature="0" />
    <path
       style="color:#000000;font-style:normal;font-variant:normal;font-weight:normal;font-stretch:normal;font-size:medium;line-height:normal;font-family:sans-serif;font-variant-ligatures:normal;font-variant-position:normal;font-variant-caps:normal;font-variant-numeric:normal;font-variant-alternates:normal;font-feature-settings:normal;text-indent:0;text-align:start;text-decoration:none;text-decoration-line:none;text-decoration-style:solid;text-decoration-color:#000000;letter-spacing:normal;word-spacing:normal;text-transform:none;writing-mode:lr-tb;direction:ltr;text-orientation:mixed;dominant-baseline:auto;baseline-shift:baseline;text-anchor:start;white-space:normal;shape-padding:0;clip-rule:nonzero;display:inline;overflow:visible;visibility:visible;opacity:1;isolation:auto;mix-blend-mode:normal;color-interpolation:sRGB;color-interpolation-filters:linearRGB;solid-color:#000000;solid-opacity:1;vector-effect:none;fill:#000000;fill-opacity:1;fill-rule:nonzero;stroke:none;stroke-width:26.8165;stroke-linecap:butt;stroke-linejoin:miter;stroke-miterlimit:4;stroke-dasharray:none;stroke-dashoffset:0;stroke-opacity:1;color-rendering:auto;image-rendering:auto;shape-rendering:auto;text-rendering:auto;enable-background:accumulate"
       d="m 1243.04,377.01758 -14.8967,22.35981 -37.0587,55.6226 v 23.18268 h 61.2383 v 27.52449 h 27.0577 v -27.52449 h 17.3435 v -23.18268 h -17.3435 v -77.98241 h -12.161 z m 9.2829,22.35981 v 55.6226 h -37.0586 z"
       id="path933"
       inkscape:connector-curvature="0" />
    <g
       aria-label="SPORT"
       transform="matrix(3.50633,0,0,3.483062,-2107.7617,-2112.9267)"
       style="font-style:normal;font-variant:normal;font-weight:normal;font-stretch:normal;font-size:40px;line-height:1.25;font-family:'Proxima Nova Alt';-inkscape-font-specification:'Proxima Nova Alt';letter-spacing:0px;word-spacing:0px;display:inline;opacity:1;fill:#000000;fill-opacity:1;stroke:none"
       id="flowRoot22">
      <path
         d="m 904.52914,790.98234 c 7.16,0 10.68,-3.68 10.68,-8.56 0,-9.96 -15.32,-7.12 -15.32,-11.32 0,-1.6 1.36,-2.64 3.76,-2.64 2.72,0 5.6,0.92 7.76,2.92 l 3.16,-4.24 c -2.64,-2.44 -6.16,-3.72 -10.4,-3.72 -6.28,0 -10.12,3.68 -10.12,8.12 0,10.04 15.36,6.8 15.36,11.44 0,1.56 -1.48,2.96 -4.64,2.96 -3.68,0 -6.6,-1.68 -8.48,-3.64 l -3.12,4.44 c 2.52,2.52 6.2,4.24 11.36,4.24 z"
         style="fill:#000000"
         id="path30"
         inkscape:connector-curvature="0" />
      <path
         d="m 924.67352,790.50234 v -9.52 h 6.8 c 5.76,0 8.96,-3.92 8.96,-8.56 0,-4.68 -3.16,-8.6 -8.96,-8.6 h -12.48 v 26.68 z m 6,-14.52 h -6 v -7.16 h 6 c 2.24,0 3.96,1.36 3.96,3.6 0,2.2 -1.72,3.56 -3.96,3.56 z"
         style="fill:#000000"
         id="path32"
         inkscape:connector-curvature="0" />
      <path
         d="m 956.67352,790.98234 c 8.04,0 13.92,-5.76 13.92,-13.8 0,-8.04 -5.88,-13.8 -13.92,-13.8 -8.08,0 -13.96,5.76 -13.96,13.8 0,8.04 5.88,13.8 13.96,13.8 z m 0,-5.04 c -4.96,0 -8.12,-3.8 -8.12,-8.76 0,-5 3.16,-8.76 8.12,-8.76 4.92,0 8.08,3.76 8.08,8.76 0,4.96 -3.16,8.76 -8.08,8.76 z"
         style="fill:#000000"
         id="path34"
         inkscape:connector-curvature="0" />
      <path
         d="m 996.25852,790.50234 -6.04,-10.16 c 2.88,-0.68 5.88,-3.24 5.88,-7.92 0,-4.96 -3.44,-8.6 -9,-8.6 h -12.48 v 26.68 h 5.68 v -9.48 h 4.16 l 5.24,9.48 z m -9.96,-14.48 h -6 v -7.2 h 6 c 2.24,0 3.96,1.36 3.96,3.56 0,2.28 -1.72,3.64 -3.96,3.64 z"
         style="fill:#000000"
         id="path36"
         inkscape:connector-curvature="0" />
      <path
         d="m 1012.2016,790.50234 v -21.68 h 7.76 v -5 h -21.27996 v 5 h 7.79996 v 21.68 z"
         style="fill:#000000"
         id="path38"
         inkscape:connector-curvature="0" />
    </g>
    <path
       id="path124"
       style="color:#000000;font-style:normal;font-variant:normal;font-weight:normal;font-stretch:normal;font-size:medium;line-height:normal;font-family:sans-serif;font-variant-ligatures:normal;font-variant-position:normal;font-variant-caps:normal;font-variant-numeric:normal;font-variant-alternates:normal;font-feature-settings:normal;text-indent:0;text-align:start;text-decoration:none;text-decoration-line:none;text-decoration-style:solid;text-decoration-color:#000000;letter-spacing:normal;word-spacing:normal;text-transform:none;writing-mode:lr-tb;direction:ltr;text-orientation:mixed;dominant-baseline:auto;baseline-shift:baseline;text-anchor:start;white-space:normal;shape-padding:0;clip-rule:nonzero;display:inline;overflow:visible;visibility:visible;opacity:1;isolation:auto;mix-blend-mode:normal;color-interpolation:sRGB;color-interpolation-filters:linearRGB;solid-color:#000000;solid-opacity:1;vector-effect:none;fill:#e10606;fill-opacity:1;fill-rule:nonzero;stroke:none;stroke-width:70;stroke-linecap:butt;stroke-linejoin:miter;stroke-miterlimit:4;stroke-dasharray:none;stroke-dashoffset:0;stroke-opacity:1;color-rendering:auto;image-rendering:auto;shape-rendering:auto;text-rendering:auto;enable-background:accumulate"
       d="M 606.34375,224.94531 C 458.97018,477.45819 311.60376,729.97524 164.23047,982.48828 l 60.45703,35.28322 C 370.0607,768.68212 515.43243,519.59188 660.80469,270.50195 c -1.1042,-1.13511 -2.15009,-2.31614 -3.27149,-3.4375 -4.0346,-4.03461 -8.15984,-7.95798 -12.36914,-11.76953 -4.2094,-3.81155 -8.50225,-7.51109 -12.87695,-11.0957 -4.3747,-3.58462 -8.83063,-7.0544 -13.36133,-10.4082 -4.1267,-3.05472 -8.33343,-5.98555 -12.58203,-8.84571 z"
       sodipodi:nodetypes="ccccssssc" />
    <path
       style="color:#000000;font-style:normal;font-variant:normal;font-weight:normal;font-stretch:normal;font-size:medium;line-height:normal;font-family:sans-serif;font-variant-ligatures:normal;font-variant-position:normal;font-variant-caps:normal;font-variant-numeric:normal;font-variant-alternates:normal;font-feature-settings:normal;text-indent:0;text-align:start;text-decoration:none;text-decoration-line:none;text-decoration-style:solid;text-decoration-color:#000000;letter-spacing:normal;word-spacing:normal;text-transform:none;writing-mode:lr-tb;direction:ltr;text-orientation:mixed;dominant-baseline:auto;baseline-shift:baseline;text-anchor:start;white-space:normal;shape-padding:0;clip-rule:nonzero;display:inline;overflow:visible;visibility:visible;opacity:1;isolation:auto;mix-blend-mode:normal;color-interpolation:sRGB;color-interpolation-filters:linearRGB;solid-color:#000000;solid-opacity:1;vector-effect:none;fill:#e10606;fill-opacity:1;fill-rule:nonzero;stroke:none;stroke-width:70;stroke-linecap:butt;stroke-linejoin:miter;stroke-miterlimit:4;stroke-dasharray:none;stroke-dashoffset:0;stroke-opacity:1;color-rendering:auto;image-rendering:auto;shape-rendering:auto;text-rendering:auto;enable-background:accumulate"
       d="m 379.0801,852.7832 c 0.3575,0.0366 0.7106,0.0973 1.0683,0.13281 5.6281,0.55869 11.2796,0.97848 16.9512,1.25977 5.6716,0.28128 11.3626,0.42383 17.0684,0.42383 5.7058,0 11.3967,-0.14255 17.0683,-0.42383 5.6717,-0.28129 11.3231,-0.70108 16.9512,-1.25977 4.0625,-0.40327 8.0972,-0.96174 12.1328,-1.50781 L 653.0059,511.45898 629.7461,498.27734 592.1074,476.94336 Z"
       id="path69"
       inkscape:connector-curvature="0" />
    <path
       id="path133"
       style="color:#000000;font-style:normal;font-variant:normal;font-weight:normal;font-stretch:normal;font-size:medium;line-height:normal;font-family:sans-serif;font-variant-ligatures:normal;font-variant-position:normal;font-variant-caps:normal;font-variant-numeric:normal;font-variant-alternates:normal;font-feature-settings:normal;text-indent:0;text-align:start;text-decoration:none;text-decoration-line:none;text-decoration-style:solid;text-decoration-color:#000000;letter-spacing:normal;word-spacing:normal;text-transform:none;writing-mode:lr-tb;direction:ltr;text-orientation:mixed;dominant-baseline:auto;baseline-shift:baseline;text-anchor:start;white-space:normal;shape-padding:0;clip-rule:nonzero;display:inline;overflow:visible;visibility:visible;opacity:1;isolation:auto;mix-blend-mode:normal;color-interpolation:sRGB;color-interpolation-filters:linearRGB;solid-color:#000000;solid-opacity:1;vector-effect:none;fill:#e10606;fill-opacity:1;fill-rule:nonzero;stroke:none;stroke-width:70;stroke-linecap:butt;stroke-linejoin:miter;stroke-miterlimit:4;stroke-dasharray:none;stroke-dashoffset:0;stroke-opacity:1;color-rendering:auto;image-rendering:auto;shape-rendering:auto;text-rendering:auto;enable-background:accumulate"
       d="m 598.27148,0 -2.63281,4.5097656 C 451.45285,251.5656 307.26746,498.62167 163.08203,745.67773 c 2.5515,2.7231 5.07546,5.46805 7.72266,8.11524 4.0346,4.0346 8.15984,7.95796 12.36914,11.76953 4.2094,3.81156 8.50225,7.51106 12.87695,11.0957 4.3747,3.58464 8.83073,7.05438 13.36133,10.40821 2.4566,1.8185 4.98993,3.51586 7.49023,5.26562 C 363.301,541.48619 509.69626,290.63836 656.0957,39.792969 l 3.07813,-5.273438 -13.29883,-7.537109 z"
       sodipodi:nodetypes="cccssssccccc" />
  </g>
</svg>
