<?xml version="1.0" encoding="UTF-8" standalone="no"?>
<svg
   xmlns:dc="http://purl.org/dc/elements/1.1/"
   xmlns:cc="http://creativecommons.org/ns#"
   xmlns:rdf="http://www.w3.org/1999/02/22-rdf-syntax-ns#"
   xmlns:svg="http://www.w3.org/2000/svg"
   xmlns="http://www.w3.org/2000/svg"
   xmlns:sodipodi="http://sodipodi.sourceforge.net/DTD/sodipodi-0.dtd"
   xmlns:inkscape="http://www.inkscape.org/namespaces/inkscape"
   version="1.1"
   id="Layer_1"
   x="0px"
   y="0px"
   width="132"
   height="99"
   viewBox="0 0 132 99.000001"
   enable-background="new 0 0 1000 509.137"
   xml:space="preserve"
   sodipodi:docname="Man-X.svg"
   inkscape:version="1.0.2 (e86c870879, 2021-01-15, custom)"><metadata
   id="metadata27"><rdf:RDF><cc:Work
       rdf:about=""><dc:format>image/svg+xml</dc:format><dc:type
         rdf:resource="http://purl.org/dc/dcmitype/StillImage" /><dc:title></dc:title></cc:Work></rdf:RDF></metadata><defs
   id="defs25" /><sodipodi:namedview
   pagecolor="#ffffff"
   bordercolor="#666666"
   borderopacity="1"
   objecttolerance="10"
   gridtolerance="10"
   guidetolerance="10"
   inkscape:pageopacity="0"
   inkscape:pageshadow="2"
   inkscape:window-width="1920"
   inkscape:window-height="1001"
   id="namedview23"
   showgrid="false"
   inkscape:zoom="3.2132806"
   inkscape:cx="131.64917"
   inkscape:cy="29.906201"
   inkscape:window-x="-9"
   inkscape:window-y="-9"
   inkscape:window-maximized="1"
   inkscape:current-layer="Layer_1"
   inkscape:document-rotation="0" />

<g
   id="g846"
   transform="matrix(0.45379348,0,0,0.45379348,-290.51357,127.91432)"><path
     style="fill:#1a191e"
     d="m 875.25555,-124.66855 c 0,-2.07877 0.59488,-2.45008 4.82405,-3.0111 2.65323,-0.35197 5.63567,-1.2334 6.62763,-1.95874 1.73784,-1.27074 1.73756,-1.4617 -0.008,-5.2389 -2.37475,-5.13936 -18.42385,-30.43071 -19.28052,-30.38365 -1.15802,0.0636 -6.20212,7.2697 -6.82455,9.74965 -0.83534,3.32824 1.54111,5.33334 7.05809,5.95518 4.0302,0.45424 4.6033,0.8139 4.6033,2.88878 v 2.36995 h -31 c -30.33333,0 -31,-0.043 -31,-2 0,-1.1 0.65917,-2 1.46482,-2 2.74475,0 3.53519,-3.85836 3.52044,-17.18426 -0.0162,-14.65782 -0.84504,-17.69074 -5.25852,-19.24288 -2.18953,-0.77002 -3.27541,-0.55389 -5.47875,1.09048 -2.58159,1.92665 -2.76844,2.58933 -3.08563,10.94375 -0.1857,4.8911 -0.0298,12.20889 0.34646,16.26175 0.56376,6.07269 1.01892,7.45641 2.58764,7.86664 1.04695,0.27378 1.90354,1.3453 1.90354,2.38115 0,1.75751 -0.96464,1.88337 -14.4349,1.88337 -7.9392,0 -15.65401,0.46351 -17.14404,1.03001 -3.37158,1.28188 -8.80665,-0.31473 -10.81055,-3.1757 -1.3734,-1.9608 -1.48439,-1.94259 -6.94545,1.13945 -5.02262,2.83459 -5.91142,3.03165 -9.35741,2.07474 -2.09421,-0.58154 -10.67015,-1.05986 -19.05765,-1.06292 -14.58147,-0.005 -15.25,-0.0933 -15.25,-2.00558 0,-1.1 0.65917,-2 1.46482,-2 0.80564,0 1.93064,-0.87042 2.5,-1.93426 1.31507,-2.45724 1.35967,-27.08206 0.0553,-30.51293 -1.40079,-3.68433 -5.12485,-5.16627 -8.97502,-3.57147 l -3.04506,1.2613 v 16.9723 c 0,16.1313 0.0991,16.99822 2,17.49531 1.10691,0.28947 2,1.36402 2,2.40638 0,1.74791 -0.93502,1.88337 -13,1.88337 -12.06498,0 -13,-0.13546 -13,-1.88337 0,-1.03585 0.8522,-2.10622 1.89377,-2.3786 1.66669,-0.43585 1.98151,-1.89958 2.62555,-12.20721 0.94072,-15.05572 -0.0648,-21.42943 -3.70191,-23.46452 -2.41375,-1.35058 -3.04012,-1.33052 -6.25,0.20017 l -3.56741,1.70117 v 14.45108 c 0,14.8888 0.83281,19.58128 3.47525,19.58128 0.85808,0 1.52475,0.87446 1.52475,2 0,1.90805 -0.66667,2 -14.5,2 -13.27594,0 -14.5,-0.15138 -14.5,-1.7932 0,-1.16017 1.14731,-2.13097 3.25,-2.75 l 3.25,-0.9568 0.27316,-17.77037 0.27316,-17.77037 -3.02316,-0.60463 c -1.87596,-0.37519 -3.02312,-1.22127 -3.02306,-2.22963 9e-5,-1.28763 2.38765,-2.04814 11.5,-3.66312 l 11.4999,-2.03813 v 2.78813 c 0,1.53346 0.3781,2.78812 0.84023,2.78812 0.46213,0 3.27463,-1.34185 6.25,-2.98188 2.97537,-1.64004 6.88672,-2.99004 8.69189,-3 4.42177,-0.0244 9.59637,2.25647 11.59598,5.1113 1.5022,2.1447 1.82715,2.21918 3.88069,0.88957 9.64073,-6.2421 14.56256,-7.19158 21.3351,-4.11581 6.29837,2.86042 7.40611,6.68133 7.40611,25.54563 0,12.67424 0.27884,15.68717 1.57143,16.97976 1.42947,1.42947 3.42857,2.1254 3.42857,1.19355 0,-0.20783 -0.71143,-2.08057 -1.58096,-4.16165 -0.98823,-2.36517 -1.34824,-5.02435 -0.96021,-7.09269 1.09616,-5.84307 4.63764,-8.77787 15.51676,-12.85862 7.62035,-2.85839 10.02441,-4.19409 10.02441,-5.56956 0,-2.5648 -1.9077,-7.26065 -3.31256,-8.15393 -3.65767,-2.32576 -8.68744,0.75469 -8.68744,5.32056 0,6.03707 -5.94658,8.94719 -10,4.89377 -4.5773,-4.5773 -1.88778,-9.37286 7.74739,-13.81399 11.96023,-5.51283 20.96542,-5.22362 26.80024,0.86072 l 2.95237,3.07863 0.26798,14.68732 c 0.33143,18.16455 0.53267,19.18732 3.77525,19.18732 h 2.50513 l -0.27418,-16.75 -0.27418,-16.75 -2.75,-0.31642 c -1.81418,-0.20875 -2.75,-0.90308 -2.75,-2.04037 0,-1.41888 1.99075,-2.05505 11.25,-3.59507 6.1875,-1.02913 11.475,-1.68596 11.75,-1.45964 0.275,0.22633 0.47494,1.424 0.44431,2.6615 -0.0724,2.92477 0.45378,2.85237 6.47548,-0.89092 4.50688,-2.80163 5.60796,-3.07516 10.19293,-2.53214 5.80638,0.68769 9.05272,2.4719 11.62335,6.38828 1.45835,2.22182 1.85055,5.72743 2.26393,20.23607 l 0.5,17.54871 3.43282,0.32699 c 8.9846,0.85583 13.08431,-1.78976 21.68421,-13.99306 l 5.64766,-8.01405 -9.27891,-13.65994 c -13.00454,-19.14464 -14.99672,-21.07987 -23.23578,-22.5716 -3.13047,-0.5668 -3.75,-1.0845 -3.75,-3.13365 v -2.45469 h 22 22 v 2.3237 c 0,1.90527 -0.85531,2.58052 -4.75,3.75 -3.40639,1.02285 -4.83185,1.99756 -5.03935,3.44585 -0.32269,2.25221 10.01942,19.98045 11.65597,19.98045 1.19715,0 12.79859,-16.16518 17.20536,-23.97355 1.7577,-3.11447 2.70662,-5.93983 2.32711,-6.92883 -0.35245,-0.91847 -2.61143,-2.19701 -5.01996,-2.84119 -3.55817,-0.95167 -4.37913,-1.60103 -4.37913,-3.46383 v -2.2926 h 18 18 v 2.5 c 0,1.71216 -0.55149,2.50176 -1.75,2.50558 -3.60828,0.0115 -9.28869,2.1561 -12.20047,4.6062 -3.00478,2.52835 -26.59831,33.04878 -27.63354,35.74656 -0.5732,1.49373 24.35395,38.57195 29.92403,44.5109 3.49466,3.72609 8.25158,6.13076 12.12786,6.13076 2.03426,0 2.53212,0.49154 2.53212,2.5 v 2.5 h -23.5 -23.5 z m -113.21107,-36.87883 c 0.31189,-9.44512 0.0931,-9.77457 -4.80895,-7.23965 -3.57063,1.84645 -4.97998,4.30898 -4.97998,8.7014 0,4.98558 2.49263,7.96855 6.34606,7.59444 l 3.15394,-0.30619 z"
     id="path848"
     sodipodi:nodetypes="ssscsssscssssssssssssssscssssscssssssssscsssssscccssscssssssssssssssssssscsscccssssssssscsscssscccsssssssscccssssssscccssssscs" /><text
     xml:space="preserve"
     style="font-style:normal;font-variant:normal;font-weight:bold;font-stretch:normal;font-size:11px;line-height:1;font-family:sans-serif;-inkscape-font-specification:'sans-serif Bold';letter-spacing:1.08px"
     x="648.94983"
     y="-123.35194"
     id="text854"><tspan
       sodipodi:role="line"
       id="tspan852"
       x="648.94983"
       y="-123.35194">THE EUROPEAN GAY ADULT TV</tspan></text><path
     style="fill:#e10966;fill-opacity:1;stroke:none;stroke-width:1px;stroke-linecap:butt;stroke-linejoin:miter;stroke-opacity:1"
     d="m 863.13656,-171.08683 -31.43205,-11.35911 20.05107,26.51224 0.4588,-31.86368 -19.69295,24.72417 c 10.11799,-2.92256 20.40678,-5.3844 30.61513,-8.01362 z"
     id="path856"
     sodipodi:nodetypes="cccccc" /></g></svg>
