<?xml version="1.0" encoding="UTF-8" standalone="no"?>
<svg
   xmlns:dc="http://purl.org/dc/elements/1.1/"
   xmlns:cc="http://creativecommons.org/ns#"
   xmlns:rdf="http://www.w3.org/1999/02/22-rdf-syntax-ns#"
   xmlns:svg="http://www.w3.org/2000/svg"
   xmlns="http://www.w3.org/2000/svg"
   xmlns:sodipodi="http://sodipodi.sourceforge.net/DTD/sodipodi-0.dtd"
   xmlns:inkscape="http://www.inkscape.org/namespaces/inkscape"
   height="99"
   width="132"
   version="1.1"
   viewBox="0 0 34.925 26.193719"
   id="svg10"
   sodipodi:docname="Markíza.svg"
   inkscape:version="1.0.2 (e86c870879, 2021-01-15, custom)">
  <metadata
     id="metadata16">
    <rdf:RDF>
      <cc:Work
         rdf:about="">
        <dc:format>image/svg+xml</dc:format>
        <dc:type
           rdf:resource="http://purl.org/dc/dcmitype/StillImage" />
        <dc:title></dc:title>
      </cc:Work>
    </rdf:RDF>
  </metadata>
  <defs
     id="defs14" />
  <sodipodi:namedview
     pagecolor="#ffffff"
     bordercolor="#666666"
     borderopacity="1"
     objecttolerance="10"
     gridtolerance="10"
     guidetolerance="10"
     inkscape:pageopacity="0"
     inkscape:pageshadow="2"
     inkscape:window-width="1920"
     inkscape:window-height="1001"
     id="namedview12"
     showgrid="false"
     inkscape:zoom="1.3635152"
     inkscape:cx="300"
     inkscape:cy="299.95999"
     inkscape:window-x="-9"
     inkscape:window-y="-9"
     inkscape:window-maximized="1"
     inkscape:current-layer="svg10" />
  <g
     fill-rule="evenodd"
     transform="matrix(0.15168769,0,0,0.15168769,-0.38856242,-10.785761)"
     id="g8">
    <path
       d="m 197.06,157.45 c 0,43.82 -35.54,79.36 -79.37,79.36 -43.848,0 -79.384,-35.54 -79.384,-79.36 0,-43.83 35.536,-79.368 79.384,-79.368 43.83,0 79.37,35.538 79.37,79.368"
       fill="#facf0b"
       id="path2" />
    <path
       d="m 166.3,157.24 c 0,28.12 -22.8,50.9 -50.9,50.9 -28.119,0 -50.898,-22.78 -50.898,-50.9 0,-28.13 22.779,-50.9 50.898,-50.9 28.1,0 50.9,22.77 50.9,50.9"
       fill="#2755ac"
       id="path4" />
    <path
       d="m 161.83,173.14 c -11.17,-13.36 -21.37,-14.06 -27.58,-12.48 -7.06,1.77 -11.35,6.19 -15.65,10.43 -0.68,0.08 -6.58,-15.01 -14.12,-30.8 -1.73,-3.63 -4.15,-5.87 -6.732,-6.19 -3.676,-0.45 -6.496,3.2 -8.847,7.01 -5.363,8.69 -13.185,21.79 -16.945,27.71 -0.449,0.73 -0.791,-0.32 -0.877,-0.83 -5.107,-30.73 20.087,-56.93 50.991,-53.43 29.04,3.47 47.54,32.14 39.76,58.58 m 5.97,6.98 c 15.32,-37.03 -11.67,-72.2 -44.17,-75.71 -32.442,-3.67 -60.884,20.95 -60.906,54.45 0,10.6 3.12,16.61 6.261,18.38 4.68,2.63 8.505,-3.48 10.856,-6.58 5.513,-7.27 12.095,-17.2 14.531,-20.64 0.683,-0.99 1.41,-0.73 1.901,0.02 2.009,2.97 10.447,22.2 16.457,32.56 1.45,2.5 3.93,4.21 6.86,1.69 2.95,-2.54 9.21,-9.76 15.32,-11.69 7.99,-2.52 16.37,4 21.62,10.71 -8.03,13.29 -22.2,21.5 -38.95,21.97 -38.893,1.11 -50.176,-29.71 -76.268,-35.95 -2.158,-0.51 -3.931,2.18 -0.171,3.44 11.582,3.89 20.28,12.93 30.003,21.48 11.667,10.26 26.241,19.02 46.216,19.12 17.95,0.09 34.6,-8.44 45.26,-23.69 9.3,8.44 24.32,4.16 29.98,-4.64 0.39,-0.6 0.18,-1.39 -0.83,-0.75 -13.4,8.74 -22.97,-2.88 -23.97,-4.17"
       fill="#ffffff"
       id="path6" />
  </g>
</svg>
