<?xml version="1.0" encoding="UTF-8" standalone="no"?>
<svg
   xmlns:dc="http://purl.org/dc/elements/1.1/"
   xmlns:cc="http://creativecommons.org/ns#"
   xmlns:rdf="http://www.w3.org/1999/02/22-rdf-syntax-ns#"
   xmlns:svg="http://www.w3.org/2000/svg"
   xmlns="http://www.w3.org/2000/svg"
   xmlns:xlink="http://www.w3.org/1999/xlink"
   xmlns:sodipodi="http://sodipodi.sourceforge.net/DTD/sodipodi-0.dtd"
   xmlns:inkscape="http://www.inkscape.org/namespaces/inkscape"
   id="svg20"
   width="132"
   height="99"
   version="1.1"
   viewBox="0 0 34.925143 26.194476"
   sodipodi:docname="Markíza_+1.svg"
   inkscape:version="1.0.2 (e86c870879, 2021-01-15, custom)">
  <sodipodi:namedview
     pagecolor="#ffffff"
     bordercolor="#666666"
     borderopacity="1"
     objecttolerance="10"
     gridtolerance="10"
     guidetolerance="10"
     inkscape:pageopacity="0"
     inkscape:pageshadow="2"
     inkscape:window-width="1920"
     inkscape:window-height="1001"
     id="namedview18"
     showgrid="false"
     inkscape:zoom="0.61856292"
     inkscape:cx="671.10219"
     inkscape:cy="484.1188"
     inkscape:window-x="-9"
     inkscape:window-y="-9"
     inkscape:window-maximized="1"
     inkscape:current-layer="svg20" />
  <metadata
     id="metadata26">
    <rdf:RDF>
      <cc:Work
         rdf:about="">
        <dc:format>image/svg+xml</dc:format>
        <dc:type
           rdf:resource="http://purl.org/dc/dcmitype/StillImage" />
        <dc:title></dc:title>
      </cc:Work>
    </rdf:RDF>
  </metadata>
  <defs
     id="defs24">
    <linearGradient
       id="linearGradient4521">
      <stop
         id="stop4517"
         stop-color="#fec910"
         offset="0" />
      <stop
         id="stop4519"
         stop-color="#faab18"
         offset="1" />
    </linearGradient>
    <linearGradient
       id="linearGradient4523"
       x1="39.394001"
       x2="107.95"
       y1="76.565002"
       y2="133.17999"
       gradientTransform="translate(-5.4915e-5,-0.0021842)"
       gradientUnits="userSpaceOnUse"
       xlink:href="#linearGradient4521" />
    <linearGradient
       id="linearGradient4531"
       x2="56.687"
       y1="28.343"
       y2="28.343"
       gradientTransform="translate(-1.9785e-4)"
       gradientUnits="userSpaceOnUse"
       xlink:href="#linearGradient4521" />
  </defs>
  <g
     id="g25"
     transform="matrix(0.14603651,0,0,0.14603651,2.1994196,-0.41238969)">
    <path
       id="path2"
       d="m 158.75,97.606 c 0,42.71 -34.64,77.34 -77.35,77.34 -42.733,0 -77.366,-34.63 -77.366,-77.34 0,-42.72 34.633,-77.351 77.366,-77.351 42.71,0 77.35,34.631 77.35,77.351"
       fill="#085ba6"
       fill-rule="evenodd" />
    <path
       id="path6"
       d="m 128.78,97.394 c 0,27.41 -22.22,49.61 -49.61,49.61 -27.406,0 -49.606,-22.2 -49.606,-49.61 0,-27.4 22.2,-49.6 49.606,-49.6 27.39,0 49.61,22.2 49.61,49.6"
       fill="url(#linearGradient4523)"
       fill-rule="evenodd"
       style="fill:url(#linearGradient4523)" />
    <path
       id="path10"
       d="M 124.42,112.9 C 113.53,99.88 103.6,99.19 97.53,100.74 c -6.87,1.72 -11.05,6.04 -15.24,10.16 -0.67,0.08 -6.41,-14.62 -13.77,-30.01 -1.68,-3.54 -4.04,-5.73 -6.555,-6.04 -3.582,-0.44 -6.331,3.12 -8.622,6.83 -5.227,8.48 -12.85,21.24 -16.515,27.01 -0.437,0.71 -0.771,-0.31 -0.854,-0.81 C 30.997,77.93 55.55,52.4 85.66,55.82 113.97,59.19 132,87.14 124.42,112.9 m 5.81,6.81 C 145.16,83.62 118.86,49.34 87.18,45.92 55.571,42.34 27.852,66.33 27.831,98.99 c 0,10.33 3.041,16.18 6.102,17.91 4.561,2.56 8.289,-3.4 10.58,-6.42 5.373,-7.08 11.787,-16.76 14.161,-20.12 0.667,-0.95 1.375,-0.7 1.854,0.03 1.957,2.89 10.182,21.63 16.032,31.73 1.42,2.44 3.84,4.11 6.69,1.65 2.87,-2.48 8.97,-9.52 14.93,-11.39 7.79,-2.46 15.95,3.89 21.08,10.43 -7.83,12.95 -21.64,20.95 -37.97,21.41 -37.902,1.08 -48.898,-28.95 -74.326,-35.03 -2.103,-0.5 -3.832,2.13 -0.167,3.35 11.288,3.79 19.764,12.6 29.24,20.93 11.37,10 25.574,18.54 45.043,18.64 17.5,0.09 33.72,-8.22 44.11,-23.09 9.06,8.22 23.7,4.06 29.22,-4.52 0.37,-0.58 0.17,-1.36 -0.81,-0.73 -13.06,8.52 -22.39,-2.81 -23.37,-4.06"
       fill="#ffffff"
       fill-rule="evenodd"
       style="display:inline" />
    <path
       id="path4-1"
       d="m 166.18,10.073 12.458,-1.2e-4 v 13.043 h 13.015 v 12.454 h -13.015 l -0.0274,12.983 h -12.43 v -12.983 h -13.014 v -12.454 h 13.014 l 3e-5,-13.043 z"
       fill="#fbbc13"
       stroke-width="0.16154" />
    <path
       id="path13"
       d="m 191.65,10.072 13.348,1.02e-4 v 38.48 l -13.348,2.4e-5 v -25.438 h -13.015 l 13.015,-13.043 z"
       fill="#085ba6"
       stroke-width="0.16154" />
  </g>
</svg>
