<?xml version="1.0" encoding="UTF-8" standalone="no"?>
<svg
   xmlns:dc="http://purl.org/dc/elements/1.1/"
   xmlns:cc="http://creativecommons.org/ns#"
   xmlns:rdf="http://www.w3.org/1999/02/22-rdf-syntax-ns#"
   xmlns:svg="http://www.w3.org/2000/svg"
   xmlns="http://www.w3.org/2000/svg"
   xmlns:sodipodi="http://sodipodi.sourceforge.net/DTD/sodipodi-0.dtd"
   xmlns:inkscape="http://www.inkscape.org/namespaces/inkscape"
   id="svg127612"
   version="1.1"
   viewBox="0 0 34.924999 26.193751"
   height="99"
   width="132"
   sodipodi:docname="Mezzo.svg"
   inkscape:version="1.0.2 (e86c870879, 2021-01-15, custom)">
  <sodipodi:namedview
     pagecolor="#ffffff"
     bordercolor="#666666"
     borderopacity="1"
     objecttolerance="10"
     gridtolerance="10"
     guidetolerance="10"
     inkscape:pageopacity="0"
     inkscape:pageshadow="2"
     inkscape:window-width="1920"
     inkscape:window-height="1001"
     id="namedview19"
     showgrid="false"
     inkscape:zoom="1.648"
     inkscape:cx="500"
     inkscape:cy="94.360313"
     inkscape:window-x="-9"
     inkscape:window-y="-9"
     inkscape:window-maximized="1"
     inkscape:current-layer="svg127612" />
  <defs
     id="defs127606">
    <clipPath
       id="clipPath125877"
       clipPathUnits="userSpaceOnUse">
      <path
         id="path125875"
         d="m 1713.78,1.6531 h 841.8899 v 595.276 H 1713.78 Z" />
    </clipPath>
    <clipPath
       id="clipPath125885"
       clipPathUnits="userSpaceOnUse">
      <path
         id="path125883"
         d="m 1734.457,399.8971 h 792.3289 V 549.4267 H 1734.457 Z" />
    </clipPath>
  </defs>
  <metadata
     id="metadata127609">
    <rdf:RDF>
      <cc:Work
         rdf:about="">
        <dc:format>image/svg+xml</dc:format>
        <dc:type
           rdf:resource="http://purl.org/dc/dcmitype/StillImage" />
        <dc:title></dc:title>
      </cc:Work>
    </rdf:RDF>
  </metadata>
  <g
     transform="matrix(0.124,0,0,0.124,-1.0154587,-8.7202756)"
     id="layer1">
    <g
       id="g125871"
       transform="matrix(0.33393119,0,0,-0.33393119,-562.46516,334.44931)">
      <g
         id="g125873"
         clip-path="url(#clipPath125877)">
        <g
           id="g125879">
          <g
             id="g125881"
             clip-path="url(#clipPath125885)">
            <path
               d="m 2092.6028,490.9322 c 0.4324,3.0272 0.6555,5.8471 0.6555,8.437 0,2.6049 0,5.3173 0,8.1371 0,7.3628 -0.7051,13.4245 -2.1152,18.1974 -1.4092,4.7663 -3.3638,8.5518 -5.8543,11.3716 -2.4936,2.8123 -5.5242,4.8158 -9.0947,6.0039 -3.5762,1.1955 -7.426,1.796 -11.5357,1.796 -7.3645,0 -13.4399,-1.4599 -18.1973,-4.3935 -4.7741,-2.9197 -8.5668,-6.8772 -11.3796,-11.8583 -2.8138,-4.9877 -4.9301,-10.7272 -6.3338,-17.224 -1.4102,-6.4991 -2.3319,-13.3258 -2.7621,-20.4672 z m -66.9395,-4.5515 c 0,-2.1677 -0.064,-4.3935 -0.1606,-6.6622 -0.1188,-2.2753 -0.1671,-5.152 -0.1671,-8.6089 0,-7.1563 0.4355,-14.6275 1.2936,-22.4274 0.869,-7.7935 2.7708,-14.8413 5.6925,-21.1179 2.9171,-6.2909 7.2545,-11.4862 12.9997,-15.6079 5.7387,-4.1151 13.3761,-6.1611 22.9076,-6.1611 9.5325,0 17.3887,1.4025 23.5598,4.2152 6.1809,2.8116 11.0471,6.226 14.6255,10.2399 3.5718,4.0007 6.2183,8.0641 7.9651,12.1869 1.727,4.1085 3.0317,7.4642 3.9019,10.0692 l 4.8674,-0.9733 c -0.6467,-2.3903 -1.8921,-5.7959 -3.7356,-10.2344 -1.8425,-4.4429 -4.762,-8.888 -8.7769,-13.3309 -4.0139,-4.4374 -9.4182,-8.3369 -16.2527,-11.6864 -6.8188,-3.3627 -15.643,-5.0457 -26.4834,-5.0457 -10.8283,0 -20.8461,1.7391 -30.0565,5.2041 -9.2092,3.4628 -17.1644,8.4502 -23.8799,14.949 -6.7198,6.4977 -11.9151,14.2406 -15.6046,23.2359 -3.6816,8.9881 -5.5197,19.0062 -5.5197,30.0481 0,9.5401 1.8919,18.7999 5.6881,27.7879 3.7938,8.9954 8.9814,16.9458 15.5924,23.8873 6.5979,6.9266 14.3518,12.5158 23.2364,16.7311 8.8815,4.2291 18.4206,6.3475 28.6034,6.3475 6.0545,0 12.5598,-1.0871 19.4907,-3.256 6.9378,-2.1613 13.3782,-5.689 19.3392,-10.5627 5.9577,-4.8727 10.9418,-11.3213 14.9501,-19.3285 4.0061,-8.0298 6.0071,-17.9985 6.0071,-29.8988"
               style="fill:#ef3120"
               id="path125887" />
            <path
               d="m 2142.1797,545.205 h 103.0117 l -80.9236,-134.8722 h 45.825 c 6.2788,0 11.4245,1.2452 15.4406,3.7422 4.0096,2.4827 7.2513,5.6309 9.7459,9.4171 2.4893,3.7928 4.4287,7.8573 5.853,12.1946 1.4038,4.3287 2.7544,8.4515 4.0591,12.3445 h 2.6006 l -4.2232,-42.2359 h -113.0886 l 80.9026,134.8583 h -27.9431 c -5.4099,0 -10.1223,-0.1719 -14.1274,-0.4942 -4.0171,-0.3222 -7.6385,-1.4599 -10.8833,-3.4128 -3.2527,-1.9465 -6.2867,-5.0961 -9.107,-9.4252 -2.8115,-4.3366 -5.8464,-10.4983 -9.1025,-18.5206 h -2.5894"
               style="fill:#ef3120"
               id="path125889" />
            <path
               d="m 2265.1816,545.205 h 103.0205 l -80.916,-134.8722 h 45.8152 c 6.271,0 11.428,1.2452 15.4385,3.7422 4.0039,2.4827 7.2456,5.6309 9.7471,9.4171 2.487,3.7928 4.4362,7.8573 5.8464,12.1946 1.4102,4.3287 2.7578,8.4515 4.0688,12.3445 h 2.5928 l -4.2251,-42.2359 h -113.0854 l 80.9082,134.8583 h -27.9422 c -5.4209,0 -10.1254,-0.1719 -14.1328,-0.4942 -4.0073,-0.3222 -7.6394,-1.4599 -10.8879,-3.4128 -3.2537,-1.9465 -6.2908,-5.0961 -9.0991,-9.4252 -2.8238,-4.3366 -5.8509,-10.4983 -9.1035,-18.5206 h -2.5972"
               style="fill:#ef3120"
               id="path125891" />
            <path
               d="m 2407.854,475.3314 c 0,-15.385 1.188,-27.6225 3.5718,-36.7176 2.3857,-9.1036 5.5229,-16.0875 9.4192,-20.9682 3.9116,-4.873 8.4524,-8.0652 13.6574,-9.5898 5.1997,-1.5092 10.7229,-2.2605 16.5738,-2.2605 5.8398,0 11.3696,0.7513 16.5715,2.2605 5.1987,1.5246 9.7493,4.7168 13.6499,9.5898 3.9006,4.8807 7.0313,11.8646 9.4216,20.9682 2.376,9.0951 3.5706,21.3326 3.5706,36.7176 0,12.9959 -0.8613,23.8798 -2.5972,32.6541 -1.7324,8.7732 -4.3835,15.9221 -7.9629,21.4467 -3.5749,5.5312 -8.0752,9.4822 -13.4848,11.8648 -5.4187,2.3837 -11.8074,3.5782 -19.1687,3.5782 -7.3699,0 -13.7566,-1.1945 -19.1773,-3.5782 -5.4175,-2.3826 -9.9121,-6.3336 -13.4829,-11.8648 -3.5815,-5.5246 -6.2324,-12.6735 -7.9648,-21.4467 -1.7349,-8.7743 -2.5972,-19.6582 -2.5972,-32.6541 z m -32.4995,0 c 0,10.6133 2.3252,20.4746 6.9861,29.5689 4.6584,9.103 10.6203,16.9469 17.8772,23.5587 7.2566,6.6055 15.3725,11.7509 24.3681,15.4355 8.9905,3.6856 17.8257,5.5322 26.4903,5.5322 8.6604,0 17.4868,-1.8466 26.487,-5.5322 8.9771,-3.6846 17.106,-8.83 24.366,-15.4355 7.2524,-6.6118 13.2144,-14.4557 17.8762,-23.5587 4.6585,-9.0943 6.9805,-18.9556 6.9805,-29.5689 0,-10.19 -2.168,-19.7721 -6.4932,-28.7676 -4.3342,-8.9807 -10.0266,-16.838 -17.0644,-23.5579 -7.0423,-6.7122 -15.1106,-12.0164 -24.2141,-15.9225 -9.0928,-3.8929 -18.4087,-5.8476 -27.938,-5.8476 -9.5381,0 -18.8518,1.9547 -27.9497,5.8476 -9.1006,3.9061 -17.17,9.2103 -24.21,15.9225 -7.0466,6.7199 -12.7261,14.5772 -17.061,23.5579 -4.3362,8.9955 -6.501,18.5776 -6.501,28.7676"
               style="fill:#ef3120"
               id="path125893" />
            <path
               d="m 1787.4342,482.4803 c 0,11.2643 1.5609,20.7958 4.7127,28.5893 3.1345,7.8074 7.0383,14.141 11.6971,19.0136 4.6589,4.8802 9.6916,8.4595 15.1122,10.7272 5.4118,2.2688 10.3995,3.4063 14.9424,3.4063 6.5064,0 11.7003,-2.2687 15.6019,-6.8191 3.8995,-4.5514 5.8564,-11.5866 5.8564,-21.1181 v -107.743 c -28.0626,-8.0586 -51.0692,-3.9655 -67.9227,3.0338 z m 95.8649,10.7197 c 0,8.6668 1.3519,16.2593 4.0569,22.7497 2.7125,6.4979 6.2292,11.8079 10.5698,15.9232 4.3252,4.1142 9.2026,7.1983 14.6201,9.2673 5.4164,2.0539 10.8306,3.0765 16.2449,3.0765 6.9354,0 12.4002,-2.0539 16.4087,-6.1682 4.0084,-4.1217 6.0191,-9.8612 6.0191,-17.2175 v -84.5932 c -20.603,0.3575 -43.6678,-4.1514 -67.9195,-16.2448 z m -123.8096,-64.6061 c 13.3246,-13.1307 57.213,-47.9743 121.6195,-14.7334 35.6587,18.3975 70.6101,16.3229 98.0541,8.6515 v 77.838 c 0,32.2812 -15.8225,48.4257 -47.4508,48.4257 -6.7144,0 -12.7324,-0.8733 -18.0311,-2.605 -5.3075,-1.7316 -9.9089,-4.0648 -13.8172,-6.9845 -3.884,-2.9273 -7.1401,-6.2262 -9.7449,-9.9118 -2.5915,-3.6922 -4.6596,-7.4701 -6.1732,-11.3782 h -0.6468 c -2.5982,11.0495 -8.0729,18.9567 -16.4087,23.7306 -8.3446,4.7588 -17.9267,7.1489 -28.7615,7.1489 -12.1366,0 -22.477,-3.0347 -31.0365,-9.0954 -8.5593,-6.0758 -15.1067,-15.6009 -19.6582,-28.6107 h -0.6584 v 34.1354 h -52.3188 v -4.5514 h 25.0325"
               style="fill:#ef3120"
               id="path125895" />
          </g>
        </g>
      </g>
    </g>
  </g>
</svg>
