<svg
  xmlns="http://www.w3.org/2000/svg"
  viewBox="0 0 951 500">
<g>
  <path opacity="1" fill="#fcb131" fill-opacity="1"
    d="M215.72 250C215.72 388.03 327.62 499.93 465.65 499.93C603.68 499.93 715.58 388.03 715.58 250C715.58 111.97 603.68 0.07 465.65 0.07C327.62 0.07 215.72 111.97 215.72 250ZM620.61 250C620.61 335.58 551.23 404.95 465.65 404.95C380.07 404.95 310.7 335.58 310.7 250C310.7 164.42 380.07 95.05 465.65 95.05C551.23 95.05 620.61 164.42 620.61 250Z"/>
  <path opacity="1" fill="#e6e6e6" fill-opacity="1" stroke="#C0C0C0" stroke-width="10"
    d="M309.47 258.78C342.7 286.59 361.16 302.05 364.85 305.14C364.85 305.14 370.05 309.38 373.29 311.69C374.99 312.85 375.65 313.12 377.11 312.77C379.66 312.31 379.46 305.91 379.46 305.91C380.11 293.4 385.26 193.38 385.9 180.88C385.9 180.88 387.41 171.63 384.09 167.73C380.47 163.49 370.32 164.18 370.32 164.18C368.2 164.07 357.58 163.52 338.47 162.52L338.12 207.14C306.31 180.3 288.63 165.39 285.1 162.41C285.1 162.41 279.85 158.17 276.61 155.89C274.92 154.7 274.26 154.43 272.79 154.73C270.25 155.24 270.44 161.6 270.44 161.6C269.8 174.13 264.68 274.4 264.04 286.93C264.04 286.93 263.5 295.38 266.59 299.31C269.02 302.51 282.59 303.05 282.59 303.05C284.36 303.13 293.19 303.52 309.08 304.21L309.47 258.78ZM685.32 265.72C672.39 329.98 665.2 365.68 663.76 372.82C663.76 372.82 661.95 381.3 665.65 384.58C669.12 387.59 676.37 386.89 676.37 386.89C678.33 386.89 688.13 386.85 705.76 386.78L709.77 368.31L741.01 363.91L749.42 380.68C768.6 375.76 779.25 373.02 781.39 372.47C781.39 372.47 787.9 371.08 789.25 367.23C790.45 363.83 787.52 358.24 787.52 358.24C782.15 348.11 739.17 267.06 733.8 256.93C733.8 256.93 726.05 239.96 707.15 242.62C687.87 245.28 685.32 265.72 685.32 265.72M843.67 232.67L810.19 209.57C789.18 217.44 777.51 221.81 775.18 222.69C775.18 222.69 766.92 224.61 766.65 229.78C766.5 233.64 771.71 237.11 771.71 237.11C775.7 239.54 795.69 251.7 831.67 273.59C821.96 314.94 816.56 337.91 815.48 342.51C815.48 342.51 813.7 350.03 816.79 352.53C819.56 354.69 825.81 352.69 825.81 352.69C828.61 351.64 842.63 346.38 867.85 336.91L871.97 292.14L904.95 320.45C928.73 308.16 941.95 301.33 944.59 299.97C944.59 299.97 950.03 297.85 951.26 294.72C953.38 289.25 940.93 283.66 940.93 283.66C937.01 281.49 917.4 270.65 882.12 251.15C889.27 212.99 893.24 191.79 894.03 187.55C894.03 187.55 897.31 177.8 893.72 174.56C889.87 171.16 883.7 175.67 883.7 175.67C881.38 176.78 869.77 182.32 848.87 192.3L843.67 232.67ZM114.02 313.89L153.71 345.82C166.73 326.08 173.97 315.12 175.42 312.93C175.42 312.93 178.66 306.52 178.12 302.32C177.5 297.96 172.49 292.6 172.49 292.6C164.13 285.61 97.31 229.64 88.96 222.65C88.96 222.65 84.95 218.6 81.94 219.64C78.97 220.76 78.2 226.62 78.2 226.62C77.54 229.15 74.25 241.78 68.32 264.53C48.82 251.04 37.98 243.54 35.81 242.04C35.81 242.04 31.5 238.03 28.53 239.08C25.56 240.23 24.9 246.02 24.9 246.02C22.58 256.25 3.97 338.1 1.65 348.33C1.65 348.33 -1.21 359.2 2.11 364.64C5.19 369.58 14.91 372.28 14.91 372.28C17.38 372.98 29.69 376.52 51.86 382.88L63.04 332.13C80.26 342.15 89.82 347.72 91.73 348.83C91.73 348.83 95.2 351.45 99.29 349.95C103.11 348.56 104.31 344.28 104.31 344.28C105.6 340.23 108.84 330.1 114.02 313.89ZM458.17 176.6C452.47 174.36 445.29 182.69 443.6 187.05C439.46 198.23 406.36 287.71 402.22 298.89C400.91 302.48 402.8 307.6 406.38 309.11C408.8 310.1 428.14 318.03 430.56 319.02C434.84 320.76 439.82 319.44 441.55 315.16C446.34 304.32 484.63 217.6 489.41 206.76C492.96 198.43 492.84 190.71 482.47 186.01C477.61 184.13 463.03 178.48 458.17 176.6ZM172.06 179.92C165.93 181.81 165.24 192.33 166.47 196.85C170.12 208.2 199.34 298.99 202.99 310.34C204.26 314.82 208.97 317.4 213.44 316.09C215.92 315.38 235.69 309.74 238.16 309.03C242.68 307.72 245.26 303.05 243.99 298.58C241.07 287.12 217.75 195.39 214.83 183.93C212.44 176.41 208.16 169.62 197.09 172.36C192.09 173.87 177.07 178.41 172.06 179.92ZM586.4 333.21L600.59 382.11C622.58 373.43 634.79 368.61 637.23 367.65C637.23 367.65 643.56 364.26 645.52 360.48C647.57 356.58 646.52 349.33 646.52 349.33C643.69 338.81 621.01 254.65 618.18 244.13C618.18 244.13 617.22 238.46 614.13 237.57C611.08 236.84 607.15 241.2 607.15 241.2C605.16 242.89 595.2 251.36 577.26 266.61C569.03 244.35 564.45 231.98 563.53 229.51C563.53 229.51 562.34 223.76 559.29 222.92C556.13 222.11 552.35 226.5 552.35 226.5C544.57 233.55 482.34 289.91 474.56 296.96C474.56 296.96 466 304.29 465.62 310.61C465.31 316.44 471.67 324.23 471.67 324.23C473.29 326.22 481.36 336.17 495.89 354.07L534.15 318.94C542.5 337.01 547.14 347.05 548.07 349.06C548.07 349.06 549.46 353.19 553.62 354.34C557.59 355.35 560.95 352.49 560.95 352.49C564.34 349.92 572.83 343.5 586.4 333.21ZM716.71 297.23L731.29 330.32L711.85 333.17L716.71 297.23Z"/>
</g>
</svg>
