<?xml version="1.0" encoding="UTF-8" standalone="no"?>
<svg
   xmlns:osb="http://www.openswatchbook.org/uri/2009/osb"
   xmlns:dc="http://purl.org/dc/elements/1.1/"
   xmlns:cc="http://creativecommons.org/ns#"
   xmlns:rdf="http://www.w3.org/1999/02/22-rdf-syntax-ns#"
   xmlns:svg="http://www.w3.org/2000/svg"
   xmlns="http://www.w3.org/2000/svg"
   xmlns:xlink="http://www.w3.org/1999/xlink"
   xmlns:sodipodi="http://sodipodi.sourceforge.net/DTD/sodipodi-0.dtd"
   xmlns:inkscape="http://www.inkscape.org/namespaces/inkscape"
   width="132"
   height="99"
   viewBox="0 0 34.924999 26.193751"
   version="1.1"
   id="svg8"
   inkscape:version="1.0.2 (e86c870879, 2021-01-15, custom)"
   sodipodi:docname="Mooz_Dance.svg">
  <defs
     id="defs2">
    <linearGradient
       inkscape:collect="always"
       id="linearGradient933">
      <stop
         style="stop-color:#febf17;stop-opacity:1"
         offset="0"
         id="stop929" />
      <stop
         style="stop-color:#febf17;stop-opacity:0.41714286"
         offset="1"
         id="stop931" />
    </linearGradient>
    <linearGradient
       id="linearGradient915"
       osb:paint="solid">
      <stop
         style="stop-color:#febf17;stop-opacity:1;"
         offset="0"
         id="stop913" />
    </linearGradient>
    <linearGradient
       inkscape:collect="always"
       xlink:href="#linearGradient933"
       id="linearGradient935"
       x1="147.87674"
       y1="209.68787"
       x2="147.93117"
       y2="213.87427"
       gradientUnits="userSpaceOnUse"
       spreadMethod="reflect" />
  </defs>
  <sodipodi:namedview
     id="base"
     pagecolor="#ffffff"
     bordercolor="#666666"
     borderopacity="1.0"
     inkscape:pageopacity="0.0"
     inkscape:pageshadow="2"
     inkscape:zoom="3.959798"
     inkscape:cx="48.485792"
     inkscape:cy="42.544236"
     inkscape:document-units="px"
     inkscape:current-layer="svg8"
     inkscape:document-rotation="0"
     showgrid="false"
     units="px"
     inkscape:window-width="1920"
     inkscape:window-height="1001"
     inkscape:window-x="-9"
     inkscape:window-y="-9"
     inkscape:window-maximized="1" />
  <metadata
     id="metadata5">
    <rdf:RDF>
      <cc:Work
         rdf:about="">
        <dc:format>image/svg+xml</dc:format>
        <dc:type
           rdf:resource="http://purl.org/dc/dcmitype/StillImage" />
        <dc:title />
      </cc:Work>
    </rdf:RDF>
  </metadata>
  <g
     id="g24"
     transform="matrix(0.81233173,0,0,0.81233173,-103.5113,-165.58913)">
    <path
       style="display:inline;fill:url(#linearGradient935);fill-opacity:1;stroke-width:0.0846667"
       d="m 145.55812,218.16673 c -1.03452,-0.33071 -1.9873,-1.18619 -2.47931,-2.22611 -0.68559,-1.44906 -0.5163,-3.26423 0.4235,-4.54085 0.87948,-1.19469 2.37437,-1.84416 3.76849,-1.63724 0.56462,0.0838 1.60948,0.48261 1.60948,0.61432 0,0.0363 -0.18347,0.38348 -0.40771,0.77161 -0.45986,0.79597 -0.32188,0.74282 -1.60056,0.61662 -0.56055,-0.0553 -0.65062,-0.0411 -1.08566,0.17178 -1.39261,0.68134 -1.63339,2.86199 -0.43244,3.91644 0.41285,0.36249 0.81379,0.47375 1.53934,0.42719 1.20468,-0.0773 2.02296,-0.87551 2.13217,-2.07984 0.0364,-0.40126 0.004,-0.59178 -0.17293,-1.03086 -0.14501,-0.35901 -0.19307,-0.58438 -0.14412,-0.67584 0.0404,-0.0755 0.34805,-0.38128 0.68369,-0.67958 0.68453,-0.60837 0.65009,-0.6124 1.02929,0.12036 0.70465,1.36169 0.72467,2.86479 0.0549,4.12141 -0.53906,1.01137 -1.35235,1.68245 -2.52241,2.08134 -0.70421,0.24008 -1.69825,0.25221 -2.39572,0.0292 z m 9.891,0.0696 c -1.01963,-0.23913 -2.14084,-1.11875 -2.65453,-2.08253 -0.87139,-1.63489 -0.62333,-3.70844 0.60738,-5.07729 1.55772,-1.73256 4.19955,-1.79845 5.85863,-0.14612 1.42726,1.42144 1.69725,3.78451 0.62357,5.45769 -0.54907,0.85565 -1.51999,1.56694 -2.49489,1.82775 -0.47642,0.12745 -1.44071,0.13764 -1.94016,0.0205 z m 1.89782,-2.11342 c 0.49593,-0.22449 0.81033,-0.52911 1.08527,-1.05149 0.29796,-0.56612 0.31742,-1.51534 0.0417,-2.0358 -0.37653,-0.71087 -1.29732,-1.30853 -2.01601,-1.30853 -0.71868,0 -1.63947,0.59766 -2.016,1.30853 -0.27568,0.52046 -0.25622,1.46968 0.0417,2.0358 0.42634,0.81005 1.09398,1.22395 1.97426,1.22395 0.32994,0 0.64155,-0.0605 0.889,-0.17246 z m -28.42916,1.99171 -0.18817,-0.1318 v -3.87674 c 0,-4.53269 -0.0872,-4.15699 0.96473,-4.15699 0.75748,0 0.9826,0.0886 0.9826,0.38664 0,0.34386 0.21251,0.33078 0.59085,-0.0364 0.48494,-0.47062 0.96159,-0.63874 1.65347,-0.58321 0.73849,0.0593 1.36022,0.37338 1.89304,0.95637 0.2322,0.25406 0.44485,0.46192 0.47256,0.46192 0.0277,0 0.26057,-0.20685 0.51746,-0.45967 0.76195,-0.74987 1.51141,-1.01144 2.51446,-0.87757 1.29616,0.17299 2.27705,1.22369 2.51308,2.69191 0.0487,0.30268 0.0888,1.6626 0.0891,3.02203 7.6e-4,2.92732 0.0763,2.7353 -1.07653,2.7353 -1.12092,0 -1.06075,0.17052 -1.02599,-2.90749 0.0326,-2.88688 0.0292,-2.90505 -0.61192,-3.32936 -0.74305,-0.49173 -1.89926,-0.1888 -2.31492,0.60652 -0.16628,0.31816 -0.17847,0.4925 -0.2013,2.87867 -0.0215,2.24586 -0.0405,2.55225 -0.16434,2.64583 -0.0859,0.0649 -0.41189,0.10583 -0.84354,0.10583 -0.60688,0 -0.72847,-0.025 -0.88546,-0.18197 -0.17989,-0.17989 -0.18143,-0.20908 -0.13474,-2.55069 0.0531,-2.66378 0.007,-3.01218 -0.4505,-3.39706 -0.34074,-0.28672 -0.83103,-0.42629 -1.23272,-0.35094 -0.42077,0.0789 -0.99451,0.64353 -1.12251,1.10461 -0.0585,0.2107 -0.0941,1.23598 -0.0944,2.7171 -5.6e-4,2.82539 0.061,2.65895 -0.98313,2.65895 -0.47208,0 -0.72917,-0.0393 -0.86117,-0.1318 z m 33.0181,0.0302 c -0.0559,-0.0559 -0.1016,-0.16388 -0.1016,-0.23999 0,-0.0761 0.80728,-1.39248 1.79396,-2.92524 0.98669,-1.53276 1.79631,-2.86303 1.79917,-2.95617 0.005,-0.16258 -0.057,-0.17025 -1.55483,-0.19246 -0.99895,-0.0148 -1.60134,-0.0574 -1.6749,-0.11848 -0.0865,-0.0718 -0.10897,-0.31719 -0.091,-0.99286 l 0.0239,-0.89753 3.175,-0.0236 c 1.74625,-0.013 3.26073,-0.003 3.3655,0.0228 0.10478,0.0255 0.1905,0.10839 0.1905,0.18421 0,0.0758 -0.4711,0.86567 -1.04689,1.75522 -1.69428,2.61753 -2.59377,4.08506 -2.59377,4.23176 0,0.12163 0.17814,0.13728 1.56335,0.13728 1.84053,0 1.73865,-0.062 1.73865,1.05833 0,1.16563 0.33763,1.05833 -3.33038,1.05833 -2.34107,0 -3.1813,-0.0262 -3.25669,-0.1016 z"
       id="path26"
       sodipodi:nodetypes="csssssscssscsssssccssssssssssssssssccsssssssssscssssssssssssssscssssssscscssssssss" />
    <rect
       style="display:inline;fill:#febf17;fill-opacity:1;stroke:none;stroke-width:0.467372"
       id="rect889"
       width="40.387852"
       height="8.6277952"
       x="128.72775"
       y="221.54848" />
    <path
       id="path28"
       style="display:inline;fill:#fefefc;stroke-width:0.32"
       d="m 631.14844,832.88086 v 4.22266 c 0,4.03385 -0.0241,4.19936 -0.57032,3.70507 -1.8387,-1.66397 -6.13064,-2.02601 -8.875,-0.74804 -2.09397,0.97511 -4.42056,3.56507 -5.15039,5.73437 -0.3242,0.96348 -0.55638,2.58297 -0.54882,3.82617 0.0248,4.02724 2.58496,7.74846 6.32031,9.18555 v 0.002 c 2.75516,1.06001 6.56105,0.68881 8.20703,-0.80078 0.59614,-0.54051 0.61719,-0.53117 0.61719,0.30078 v 0.86329 l 2.80078,-0.0938 2.80078,-0.0918 v -12.96094 -12.95898 l -2.80078,-0.0937 z m 54.27148,5.88086 c -1.48741,-0.0194 -2.99534,0.4095 -4.23047,1.35156 -1.29055,0.98517 -1.40039,0.98424 -1.40039,-0.008 0,-0.79242 -0.0307,-0.79883 -2.71875,-0.79883 h -2.7207 v 9.91992 9.91797 h 2.7207 2.71875 v -5.92969 c 0,-6.37976 0.23481,-7.60457 1.63867,-8.58789 1.56507,-1.09617 4.11575,-0.32219 4.72852,1.43555 0.2109,0.60544 0.35352,3.46121 0.35352,7.05078 v 6.03125 h 2.7207 2.71875 l -0.008,-7.75976 c -0.006,-6.88649 -0.0727,-7.90732 -0.60352,-9.07618 -1.01485,-2.23478 -3.43895,-3.51459 -5.91797,-3.54687 z m -31.2793,0.006 c -5.23891,0.2811 -9.57899,5.20081 -9.1582,11.08203 0.29348,4.10169 2.70855,7.63883 6.11133,8.94727 3.05068,1.17301 6.71459,0.80709 8.61523,-0.85938 0.51617,-0.45233 0.56055,-0.42348 0.56055,0.35938 v 0.8496 h 2.7207 2.71875 v -9.91992 -9.91992 h -2.71875 c -2.50681,0 -2.7207,0.0489 -2.7207,0.63867 0,0.79745 -0.13259,0.79805 -1.21289,0 -0.47686,-0.35225 -1.65898,-0.80359 -2.62695,-1.0039 -0.77387,-0.15996 -1.54065,-0.21399 -2.28907,-0.17383 z m 83.3379,0.11133 c -2.03116,0 -2.6215,0.14444 -4.48243,1.09375 -1.52772,0.7793 -2.48059,1.54064 -3.31836,2.65039 -4.32275,5.72613 -2.07572,14.06601 4.41407,16.38086 h 0.002 c 1.70729,0.60888 5.42173,0.57136 7.31641,-0.0742 1.83734,-0.62604 4.62456,-3.22045 5.18359,-4.82422 l 0.36328,-1.03906 h -2.84961 c -2.51138,0 -2.99019,0.0937 -4.0293,0.79882 -2.0982,1.42387 -5.28336,0.84788 -6.51953,-1.17968 -0.35523,-0.58262 -0.64779,-1.16693 -0.64843,-1.29883 -6.8e-4,-0.13191 3.33204,-0.24024 7.40429,-0.24024 h 7.40235 l -0.22071,-2.48046 c -0.53707,-6.0172 -4.39594,-9.78711 -10.01757,-9.78711 z m -27.28907,0.27148 c -2.54381,0.003 -3.26493,0.12226 -4.41406,0.73242 -1.85968,0.98744 -3.63655,2.82723 -4.56836,4.72852 -1.10135,2.24753 -1.24424,6.02427 -0.32226,8.48047 1.16666,3.10805 3.62212,5.39898 6.72851,6.27734 5.08399,1.43754 11.07746,-1.93587 12.19336,-6.86328 l 0.23438,-1.03906 h -2.8379 c -2.69022,0 -2.86613,0.0409 -3.37304,0.81445 -1.07422,1.63956 -3.27222,2.17403 -5.35742,1.30273 -3.96495,-1.65664 -3.38736,-7.72202 0.84375,-8.86132 1.61,-0.43355 3.22228,0.0846 4.14453,1.33203 0.67536,0.91245 0.74578,0.93164 3.69336,0.93164 h 3.00586 l -0.22461,-1.04102 c -0.51961,-2.41277 -2.48705,-4.72222 -5.13086,-6.02343 -1.33452,-0.6567 -2.03998,-0.77497 -4.61524,-0.77149 z m 27.12305,4.96094 c 1.583,-0.0696 3.22082,0.49268 4.0293,1.72656 0.29015,0.44281 0.52734,0.88245 0.52734,0.97656 0,0.0941 -1.94024,0.17188 -4.3125,0.17188 h -4.31445 l 0.36914,-0.8086 c 0.59019,-1.29537 2.11817,-1.99683 3.70117,-2.0664 z m -82.06836,0.24219 c 0.8766,5.4e-4 1.7866,0.20196 2.46875,0.60351 3.05076,1.79592 3.00587,6.54816 -0.0801,8.42969 -2.17825,1.32809 -4.9717,0.46571 -6.23633,-1.92578 -0.40029,-0.75716 -0.72656,-1.75381 -0.72656,-2.2168 0,-1.17286 1.26963,-3.53711 2.30469,-4.29102 0.55026,-0.40081 1.39293,-0.60015 2.26953,-0.5996 z m -28.68164,0.1582 c 1.4266,-0.009 2.87615,0.64638 3.86133,2.12109 1.35742,2.03195 0.74335,5.37301 -1.24805,6.79102 -1.10279,0.78519 -2.98064,1.04969 -4.10547,0.57812 -1.85563,-0.7779 -3.20117,-2.72449 -3.20117,-4.63281 0,-2.98325 2.3157,-4.84244 4.69336,-4.85742 z m 55.13672,18.19922 c -13.862,-1e-5 -27.73815,0.0125 -38.2832,0.0351 -21.09015,0.045 -3.93118,0.082 38.13281,0.082 42.06399,0 59.31958,-0.0367 38.3457,-0.082 -10.48694,-0.0227 -24.33331,-0.0351 -38.19531,-0.0351 z"
       transform="matrix(0.26458333,0,0,0.26458333,-31.40417,1.9377041)"
       inkscape:label="dance" />
  </g>
</svg>
