<?xml version="1.0" encoding="UTF-8" standalone="no"?>
<!DOCTYPE svg PUBLIC "-//W3C//DTD SVG 1.1//EN" "http://www.w3.org/Graphics/SVG/1.1/DTD/svg11.dtd">
<svg version="1.1" xmlns="http://www.w3.org/2000/svg" xmlns:xlink="http://www.w3.org/1999/xlink" preserveAspectRatio="xMidYMid meet" viewBox="0 0 132 99" width="132" height="99"><defs><path d="M4 16L33.43 16L42.97 55.19L43.28 55.19L52.78 16L81.89 16L81.89 68.31L62.66 68.31L62.66 39.61L54.52 68.31C40.88 68.31 33.29 68.31 31.78 68.31C31.78 68.31 23.81 39.64 23.71 39.49C23.71 39.49 23.71 39.49 23.71 39.49L23.71 68.31L4 68.31L4 16Z" id="a1aHP9JImQ"></path><path d="M30.37 78.1C30.28 80.2 32.17 82.65 34.85 82.46C37.28 82.43 39.34 80.57 39.34 78.1C39.26 75.7 37.45 73.84 34.85 73.81C32.53 73.86 30.35 75.7 30.37 78.1ZM33.04 78.1C33.09 76.96 33.69 76.26 34.83 76.23C35.92 76.23 36.7 77.01 36.7 78.1C36.74 79.16 36.19 80.04 34.81 80.2C33.62 80.01 32.99 79.33 33.04 78.1Z" id="b1dQqx9fG"></path><path d="M4 82.34L4 74.05L6.69 74.05C7.43 75.07 7.84 75.64 7.92 75.75C8.6 76.69 9.21 77.44 9.23 77.44C9.28 77.44 9.86 76.67 10.56 75.75C10.65 75.64 11.07 75.07 11.82 74.05L14.46 74.05L14.46 82.34C12.81 82.34 11.89 82.34 11.7 82.34C11.7 80.62 11.7 79.41 11.7 77.52C11.62 77.63 11.22 78.19 10.49 79.21L9.28 80.86C8.61 79.91 8.24 79.39 8.17 79.28C7.56 78.41 6.79 77.52 6.66 77.52C6.66 79.19 6.62 80.93 6.66 82.34C6.58 82.34 6.19 82.34 5.48 82.34L5.48 82.34L4 82.34Z" id="a8Eawvy9K"></path><path d="M55.03 82.34C55.03 82.26 55.03 82.22 55.03 82.22C55.03 82.14 55.93 80.74 57.04 79.11C58.15 77.47 59.1 76.06 59.15 75.97C59.15 75.95 59.18 75.89 59.22 75.77L54.76 75.77L54.76 74.08L63.58 74.08L61.37 77.37L59.17 80.67L63.58 80.67L63.58 82.36L59.29 82.34L55.03 82.34Z" id="a1v9M2bGQt"></path><path d="M79.18 82.34L79.18 74.05L81.86 74.05L81.86 82.34L80.53 82.34L79.18 82.34Z" id="b393Kmb6Hy"></path><path d="M87.87 78.99L128 49.35L87.87 19.58L87.87 78.99ZM105.89 52.64L105.89 58.72L99.33 58.72L99.33 52.64L93 52.64L93 46.08L99.33 46.08L99.33 39.73L105.89 39.73L105.89 46.05L112.21 46.05L112.21 52.64L105.89 52.64Z" id="asb674vIK"></path></defs><g><g><g><use xlink:href="#a1aHP9JImQ" opacity="1" fill="#436e64" fill-opacity="1"></use><g><use xlink:href="#a1aHP9JImQ" opacity="1" fill-opacity="0" stroke="#000000" stroke-width="1" stroke-opacity="0"></use></g></g><g><use xlink:href="#b1dQqx9fG" opacity="1" fill="#29b473" fill-opacity="1"></use><g><use xlink:href="#b1dQqx9fG" opacity="1" fill-opacity="0" stroke="#000000" stroke-width="1" stroke-opacity="0"></use></g></g><g><use xlink:href="#a8Eawvy9K" opacity="1" fill="#29b473" fill-opacity="1"></use><g><use xlink:href="#a8Eawvy9K" opacity="1" fill-opacity="0" stroke="#000000" stroke-width="1" stroke-opacity="0"></use></g></g><g><use xlink:href="#a1v9M2bGQt" opacity="1" fill="#29b473" fill-opacity="1"></use><g><use xlink:href="#a1v9M2bGQt" opacity="1" fill-opacity="0" stroke="#000000" stroke-width="1" stroke-opacity="0"></use></g></g><g><use xlink:href="#b393Kmb6Hy" opacity="1" fill="#29b473" fill-opacity="1"></use><g><use xlink:href="#b393Kmb6Hy" opacity="1" fill-opacity="0" stroke="#000000" stroke-width="1" stroke-opacity="0"></use></g></g><g><use xlink:href="#asb674vIK" opacity="1" fill="#29b473" fill-opacity="1"></use><g><use xlink:href="#asb674vIK" opacity="1" fill-opacity="0" stroke="#000000" stroke-width="1" stroke-opacity="0"></use></g></g></g></g></svg>