<?xml version="1.0" encoding="UTF-8" standalone="no"?>
<svg
   xmlns:dc="http://purl.org/dc/elements/1.1/"
   xmlns:cc="http://creativecommons.org/ns#"
   xmlns:rdf="http://www.w3.org/1999/02/22-rdf-syntax-ns#"
   xmlns:svg="http://www.w3.org/2000/svg"
   xmlns="http://www.w3.org/2000/svg"
   xmlns:sodipodi="http://sodipodi.sourceforge.net/DTD/sodipodi-0.dtd"
   xmlns:inkscape="http://www.inkscape.org/namespaces/inkscape"
   width="132"
   height="99"
   viewBox="0 0 132 98.999997"
   version="1.1"
   id="svg12"
   sodipodi:docname="MTV_hits.svg"
   inkscape:version="1.0.2 (e86c870879, 2021-01-15, custom)">
  <metadata
     id="metadata16">
    <rdf:RDF>
      <cc:Work
         rdf:about="">
        <dc:format>image/svg+xml</dc:format>
        <dc:type
           rdf:resource="http://purl.org/dc/dcmitype/StillImage" />
        <dc:title>MTV Hits Europe</dc:title>
      </cc:Work>
    </rdf:RDF>
  </metadata>
  <sodipodi:namedview
     pagecolor="#ffffff"
     bordercolor="#666666"
     borderopacity="1"
     objecttolerance="10"
     gridtolerance="10"
     guidetolerance="10"
     inkscape:pageopacity="0"
     inkscape:pageshadow="2"
     inkscape:window-width="1920"
     inkscape:window-height="1001"
     id="namedview14"
     showgrid="false"
     inkscape:zoom="0.83786477"
     inkscape:cx="500"
     inkscape:cy="488.1456"
     inkscape:window-x="-9"
     inkscape:window-y="-9"
     inkscape:window-maximized="1"
     inkscape:current-layer="svg12" />
  <defs
     id="defs4">
    <style
       id="style2">.a{fill:#fb2e7b;}</style>
  </defs>
  <title
     id="title6">MTV Hits Europe</title>
  <g
     id="g20"
     transform="matrix(0.0932099,0,0,0.0932099,19.39505,3.9999988)">
    <path
       class="a"
       d="m 712.54016,786.559 q 8.29393,4.55182 14.04937,7.49884 c 3.85154,1.98412 6.5943,3.39927 8.16993,4.28921 a 45.19861,45.19861 0 0 1 16.60248,17.186 48.12755,48.12755 0 0 1 6.15662,23.86788 c 0,9.84769 -1.18172,18.20729 -3.60352,25.09337 a 50.46038,50.46038 0 0 1 -12.16736,18.90757 63.87828,63.87828 0 0 1 -22.7737,14.61834 76.55216,76.55216 0 0 1 -28.4197,5.50012 c -5.15,0 -9.84769,-0.17507 -14.02019,-0.5252 a 76.32279,76.32279 0 0 1 -11.788,-1.882 66.0022,66.0022 0 0 1 -10.70845,-3.60353 86.28094,86.28094 0 0 1 -10.86893,-5.77731 73.01226,73.01226 0 0 1 -11.37955,-7.89273 106.481,106.481 0 0 1 -9.76016,-10.02276 l 24.90372,-37.24615 q 9.62884,12.32055 19.81209,18.09057 a 44.42584,44.42584 0 0 0 22.2339,5.74813 c 5.52929,0 9.92063,-1.4735 13.11566,-4.42052 a 14.70033,14.70033 0 0 0 4.81442,-11.37955 q 0,-5.36153 -4.55182,-9.90605 c -3.00537,-3.03454 -8.28665,-6.52135 -15.80007,-10.44584 a 158.1174,158.1174 0 0 1 -21.4169,-12.70712 43.19159,43.19159 0 0 1 -11.49626,-11.93394 45.15039,45.15039 0 0 1 -5.1208,-11.24825 41.04011,41.04011 0 0 1 -1.85282,-12.05065 q 0,-25.14444 14.98307,-41.24358 a 61.50113,61.50113 0 0 1 21.13971,-14.72047 63,63 0 0 1 25.47269,-5.63142 q 17.66019,0 31.58555,5.325 a 84.90466,84.90466 0 0 1 26.8003,17.02556 L 744.9427,772.0428 q -9.36624,-9.38813 -16.47117,-12.85306 a 37.00823,37.00823 0 0 0 -16.45658,-3.48681 c -4.654,0 -8.3596,1.24008 -11.13154,3.764 a 12.78323,12.78323 0 0 0 -4.14332,9.906 c 0,6.25876 5.2521,12.00689 15.80007,17.186 M 570.99605,898.42877 h -48.20262 l 20.35189,-128.268 c 0.36472,-2.1446 0.62733,-3.66188 0.817,-4.5664 a 22.08614,22.08614 0 0 1 1.32761,-3.99744 25.7997,25.7997 0 0 1 -4.43511,0.51062 h -34.10949 l 6.66725,-42.03139 h 123.19094 l -6.68183,42.03139 h -37.24614 z m -108.31,0 H 414.45427 L 442.874,720.07618 h 48.47981 z m -119.033,0 9.658,-61.85807 c 0.36473,-2.14461 0.65652,-3.66188 0.91912,-4.55182 0.29179,-0.87535 0.6857,-2.23214 1.19632,-4.012 a 26.2314,26.2314 0 0 1 -4.42051,0.5398 h -58.24 l -11.23367,69.88211 H 233.32973 L 261.70566,720.0762 h 48.46522 l -9.36625,58.92565 a 41.083,41.083 0 0 1 -0.93369,4.53723 c -0.27718,0.90453 -0.68571,2.23215 -1.19633,4.02662 a 26.23149,26.23149 0 0 1 4.42052,-0.5398 h 58.24 l 10.70844,-66.9497 h 48.20262 L 391.85565,898.42877 Z M 0.01973,976.29117 H 999.99054 V 641.96577 H 0.01973 Z"
       id="path8" />
    <path
       class="a"
       d="m 374.62067,618.04095 h 46.48109 v -83.07073 l -46.48109,-39.11356 z m 119.17892,-80.503 h 38.90931 l 10.53338,-8.82645 V 495.915 Z M 490.03559,56.25586 458.93147,88.97933 374.76656,0.42308 481.58845,47.35642 Z m 453.5335,173.02751 V 0 L 1000,33.90525 V 159.518 c -13.85972,14.44327 -42.84839,49.70529 -56.43091,69.7654 M 1000,275.04958 V 618.04095 H 943.56909 V 367.07807 C 955.63433,340.99263 984.72509,295.18265 1000,275.04958 M 705.60515,618.04095 c -1.82365,-15.40617 -4.04121,-37.66924 -4.04121,-57.26249 0,-12.13819 1.634,-60.99732 1.634,-100.38807 0,-33.19035 -7.16327,-92.21812 -7.16327,-124.29973 -0.0146,-19.27227 1.41515,-45.41606 -0.71486,-54.63642 15.377,-9.93522 28.81361,-16.33988 71.20974,-41.98763 13.7284,-8.31582 39.93054,-22.37979 39.93054,-39.28864 0,-7.49883 -1.96954,-12.4008 -12.64881,-21.15431 -7.45506,-5.95236 -15.43535,-7.6885 -24.48062,-7.6885 -21.592,0 -31.38132,21.65032 -49.48646,32.73809 -27.63188,16.89424 -42.27943,25.23926 -47.94,28.37593 a 56.28089,56.28089 0 0 0 -26.8003,-6.62349 c -15.7855,0 -34.16782,7.09034 -34.16782,27.61729 -0.0146,9.4246 2.99077,19.59326 -9.58508,26.20214 -7.032,4.4497 -41.41865,24.08673 -77.99371,46.16013 -30.84151,18.61576 -45.21183,17.12768 -58.21078,24.94749 -12.03606,7.26539 -15.17273,16.29611 -15.17273,24.13048 0,6.97363 4.39134,15.72712 5.95238,17.69666 8.27205,10.57715 15.72712,16.33987 28.75524,16.33987 22.1026,0 40.485,-19.33065 74.609,-43.607 21.2856,-15.14356 40.8205,-30.87067 52.22923,-30.87067 10.24159,0 17.33193,7.70308 17.33193,39.39077 0,105.9903 -6.43383,122.797 -6.43383,196.341 0,13.21779 0.496,37.68383 0.9337,47.86706 h -56.1975 V 444.41525 L 458.93147,535.583 350.709,444.41525 v 173.6257 H 0 V 0 H 341.41574 L 458.9315,123.687 576.43266,0 h 343.22479 v 264.28279 c -10.85434,16.74835 -44.03014,73.55859 -66.36613,131.55053 -7.29458,18.95132 -10.66467,32.65055 -20.29354,32.65055 -10.56258,0 -11.46708,-10.41666 -12.44457,-19.7975 -2.15921,-20.30813 -6.72562,-58.25455 -8.82644,-72.231 -4.085,-27.03374 -9.4538,-55.64308 -39.62418,-55.64308 -22.36518,0 -45.81,12.24032 -45.81,45.70786 0,18.92216 9.58508,51.84989 25.99789,95.16514 6.463,17.06933 40.84966,107.20122 45.7954,120.21475 9.07446,23.95542 21.67951,30.47677 41.31654,30.47677 25.12255,0 33.8177,-9.23494 44.14684,-44.497 8.79727,-30.03909 23.722,-79.01494 36.10817,-109.696 v 0 199.857 z"
       id="path10" />
  </g>
</svg>
