<?xml version="1.0" encoding="UTF-8" standalone="no"?>
<svg
   xmlns:dc="http://purl.org/dc/elements/1.1/"
   xmlns:cc="http://creativecommons.org/ns#"
   xmlns:rdf="http://www.w3.org/1999/02/22-rdf-syntax-ns#"
   xmlns:svg="http://www.w3.org/2000/svg"
   xmlns="http://www.w3.org/2000/svg"
   xmlns:sodipodi="http://sodipodi.sourceforge.net/DTD/sodipodi-0.dtd"
   xmlns:inkscape="http://www.inkscape.org/namespaces/inkscape"
   width="132"
   height="99"
   viewBox="0 0 132 98.999999"
   version="1.1"
   id="svg12"
   sodipodi:docname="MTV_music.svg"
   inkscape:version="1.0.2 (e86c870879, 2021-01-15, custom)">
  <metadata
     id="metadata16">
    <rdf:RDF>
      <cc:Work
         rdf:about="">
        <dc:format>image/svg+xml</dc:format>
        <dc:type
           rdf:resource="http://purl.org/dc/dcmitype/StillImage" />
        <dc:title>MTV Music Europe</dc:title>
      </cc:Work>
    </rdf:RDF>
  </metadata>
  <sodipodi:namedview
     pagecolor="#ffffff"
     bordercolor="#666666"
     borderopacity="1"
     objecttolerance="10"
     gridtolerance="10"
     guidetolerance="10"
     inkscape:pageopacity="0"
     inkscape:pageshadow="2"
     inkscape:window-width="1920"
     inkscape:window-height="1001"
     id="namedview14"
     showgrid="false"
     inkscape:zoom="0.837883"
     inkscape:cx="340.66988"
     inkscape:cy="344.91689"
     inkscape:window-x="-9"
     inkscape:window-y="-9"
     inkscape:window-maximized="1"
     inkscape:current-layer="svg12" />
  <defs
     id="defs4">
    <style
       id="style2">.a{fill:#2bd16c;}</style>
  </defs>
  <title
     id="title6">MTV Music Europe</title>
  <path
     id="path8"
     d="M 19.394018,4 V 61.607906 H 52.083744 V 45.424161 l 10.087465,8.49922 10.087646,-8.49922 v 16.183745 h 5.238076 c -0.0408,-0.949185 -0.08702,-3.229573 -0.08702,-4.461612 0,-6.855081 0.599688,-8.421619 0.599688,-18.301041 0,-2.953624 -0.660746,-3.671677 -1.615371,-3.671677 -1.062055,0 -2.884279,1.465931 -4.868323,2.87883 -3.180725,2.261455 -4.89429,4.063277 -6.954486,4.063277 -1.214359,0 -1.909165,-0.535807 -2.680208,-1.523069 -0.144146,-0.183582 -0.554902,-0.999581 -0.554902,-1.649597 0,-0.730246 0.292494,-1.571891 1.414382,-2.249102 1.21164,-0.728888 2.551115,-0.590194 5.42723,-2.325385 3.407829,-2.057477 6.612894,-3.886462 7.268349,-4.301222 1.172203,-0.61602 0.892164,-1.565246 0.893523,-2.443719 0,-1.911971 1.713307,-2.574252 3.184682,-2.574252 a 5.2459693,5.2459693 0 0 1 2.498154,0.617347 c 0.527625,-0.29101 1.892946,-1.070167 4.46853,-2.64489 1.687592,-1.033498 2.600118,-3.051599 4.612718,-3.051599 0.843114,0 1.586796,0.161925 2.281691,0.716749 0.995421,0.81592 1.179167,1.272863 1.179167,1.971834 0,1.576084 -2.442473,2.886905 -3.722106,3.662028 -3.951769,2.392001 -5.204048,2.987657 -6.637347,3.915084 0.19854,0.858073 0.06527,3.294959 0.06663,5.09134 0,2.990346 0.667595,8.492263 0.667595,11.585956 0,3.671636 -0.15238,8.225836 -0.15238,9.357243 0,1.826299 0.20687,3.90146 0.376853,5.337477 h 19.95191 V 42.979167 c -1.15452,2.859797 -2.54564,7.424954 -3.36564,10.224917 -0.96279,3.286794 -1.773379,4.147568 -4.113709,4.147568 -1.831738,0 -3.006622,-0.607967 -3.852458,-2.839506 -0.460995,-1.21436 -3.666213,-9.615512 -4.268634,-11.206554 -1.529848,-4.037438 -2.423329,-7.105324 -2.423329,-8.87043 0,-3.119528 2.185419,-4.260442 4.270091,-4.260442 2.8122,0 3.312579,2.666723 3.693341,5.186554 0.19582,1.302751 0.621444,4.83963 0.822706,6.732562 0.09111,0.874395 0.175508,1.845488 1.160052,1.845488 0.897512,0 1.211614,-1.276942 1.891547,-3.043408 2.081953,-5.404102 5.174293,-10.699437 6.186033,-12.261923 V 4 H 73.123615 L 62.171209,15.528973 51.218985,4 Z M 107.3446,4 v 21.371574 c 1.26604,-1.869814 3.96815,-5.156543 5.26138,-6.50281 V 7.1602861 Z M 54.326294,4.0395058 62.171209,12.295137 65.070611,9.2437191 64.283225,8.4140963 Z M 112.60598,29.637477 c -1.42514,1.876615 -4.13677,6.14661 -5.26138,8.57805 v 23.392379 h 5.26138 z M 54.312639,50.219116 v 11.38879 h 4.332536 v -7.742965 z m 15.717322,0.0055 -4.608531,3.879585 h 3.62671 l 0.981821,-0.822706 z M 19.394018,63.837347 V 95 H 112.60198 V 63.837347 Z m 55.744941,6.782991 c 1.097411,0 2.079227,0.16556 2.945462,0.496463 0.864874,0.329088 1.696729,0.858082 2.495423,1.58697 l -2.02208,3.258232 C 77.975742,75.37862 77.464,74.979213 77.022496,74.763902 a 3.4471872,3.4471872 0 0 0 -1.535448,-0.323694 c -0.432438,0 -0.777701,0.115648 -1.036073,0.349545 a 1.1898684,1.1898684 0 0 0 -0.38632,0.924655 c 0,0.583383 0.491,1.117334 1.472822,1.601899 0.514029,0.282852 0.953235,0.515508 1.309519,0.69909 0.360363,0.183582 0.61331,0.318199 0.761534,0.399792 a 4.2067398,4.2067398 0 0 1 1.548921,1.601899 4.4822744,4.4822744 0 0 1 0.573836,2.224706 c 0,0.917911 -0.112516,1.697086 -0.337347,2.337582 a 4.7081792,4.7081792 0 0 1 -1.134019,1.763745 5.9909342,5.9909342 0 0 1 -2.121481,1.362678 7.170018,7.170018 0 0 1 -2.647621,0.51121 c -0.484114,0 -0.91924,-0.01624 -1.309519,-0.04752 a 7.0920658,7.0920658 0 0 1 -1.097425,-0.176771 5.9703614,5.9703614 0 0 1 -1.000937,-0.335891 8.0944841,8.0944841 0 0 1 -1.010221,-0.537243 6.7678671,6.7678671 0 0 1 -1.060832,-0.735683 10.302798,10.302798 0 0 1 -0.912457,-0.935578 l 2.322652,-3.470325 c 0.598342,0.764244 1.214341,1.32591 1.848037,1.684915 a 4.1096912,4.1096912 0 0 0 2.069779,0.535786 c 0.518109,0 0.924783,-0.136118 1.223953,-0.412171 a 1.3653623,1.3653623 0 0 0 0.448764,-1.059194 c 0,-0.333166 -0.14296,-0.641987 -0.423094,-0.924838 -0.284211,-0.281492 -0.775396,-0.605462 -1.473915,-0.97217 A 14.840572,14.840572 0 0 1 71.12065,79.644421 4.0576613,4.0576613 0 0 1 70.046346,78.533342 4.2024371,4.2024371 0 0 1 69.571729,77.484889 3.8806937,3.8806937 0 0 1 69.397685,76.361794 c 0,-1.563845 0.465487,-2.845397 1.396541,-3.844447 a 5.7366157,5.7366157 0 0 1 1.973108,-1.372145 5.8599407,5.8599407 0 0 1 2.371625,-0.524864 z m 21.426008,0.07482 c 2.147231,0 3.920153,0.441442 5.318543,1.324448 l -0.69909,4.540624 a 5.8192537,5.8192537 0 0 0 -2.008425,-1.344838 6.610517,6.610517 0 0 0 -2.536203,-0.476072 4.477157,4.477157 0 0 0 -1.871157,0.386319 4.2788271,4.2788271 0 0 0 -1.459168,1.086502 4.9441313,4.9441313 0 0 0 -0.947777,1.672719 6.5010488,6.5010488 0 0 0 -0.337164,2.147151 c 0,1.347626 0.394817,2.387445 1.184447,3.119507 0.791441,0.730248 1.92689,1.096433 3.406424,1.098699 a 6.33783,6.33783 0 0 0 1.773212,-0.237946 7.6659868,7.6659868 0 0 0 1.698571,-0.736956 l -0.674515,4.19381 c -0.383482,0.232537 -0.915337,0.411953 -1.599349,0.537061 a 13.438176,13.438176 0 0 1 -2.396021,0.186424 c -1.232037,0 -2.342523,-0.187222 -3.331599,-0.561639 a 6.9772007,6.9772007 0 0 1 -2.522549,-1.597889 7.0565455,7.0565455 0 0 1 -1.596619,-2.50762 C 87.591205,82.543639 87.404165,81.437191 87.405071,80.20606 a 10.357599,10.357599 0 0 1 0.712562,-3.830794 9.1275252,9.1275252 0 0 1 2.0574,-3.157555 c 1.665834,-1.683513 3.795765,-2.524362 6.389934,-2.522549 z M 35.42957,71.118071 h 4.969 l 0.921924,4.495657 c 0.100632,0.499071 0.184875,0.91381 0.250143,1.245618 0.06527,0.334526 0.12509,0.650063 0.174044,0.949233 0.05031,0.30053 0.09521,0.610667 0.138725,0.937035 0.04079,0.323648 0.08576,0.719384 0.134722,1.187178 l 0.126527,0.02312 c 0.165906,-0.450116 0.3086,-0.822746 0.424187,-1.123277 0.116947,-0.29917 0.236539,-0.587507 0.360286,-0.85948 0.126465,-0.277412 0.262502,-0.571213 0.413446,-0.888062 0.149586,-0.315488 0.341298,-0.700181 0.573837,-1.146217 l 2.396202,-4.820806 h 4.91857 l 0.747881,16.625774 h -4.518778 l -0.09795,-5.415032 V 79.55612 c 0,-0.182222 0.01498,-0.535921 0.04897,-1.060833 0.03263,-0.522188 0.07484,-1.093292 0.123798,-1.709311 l -0.123798,-0.02439 c -0.217578,0.549386 -0.402448,1.018457 -0.562913,1.408738 -0.157746,0.393001 -0.314136,0.762954 -0.471885,1.11108 -0.159106,0.350845 -0.330544,0.721069 -0.514123,1.110897 -0.180862,0.390279 -0.414781,0.870428 -0.697633,1.434773 l -2.969857,5.916774 h -2.2968 L 38.750429,82.27857 c -0.133267,-0.583382 -0.239335,-1.078513 -0.31277,-1.486476 -0.07479,-0.40796 -0.141506,-0.798201 -0.198621,-1.173524 -0.06119,-0.373966 -0.112893,-0.761429 -0.161847,-1.15987 -0.05304,-0.40116 -0.108783,-0.88944 -0.176775,-1.472822 h -0.149649 c -0.115582,0.567065 -0.216078,1.048445 -0.30039,1.448245 -0.08159,0.398441 -0.171455,0.77783 -0.273446,1.135474 -0.09927,0.359005 -0.20938,0.73576 -0.324967,1.1342 -0.115583,0.3998 -0.266539,0.892075 -0.448765,1.474097 l -1.722965,5.565955 h -4.566476 z m 19.197296,0 h 4.543173 l -1.54619,9.736645 a 4.0471497,4.0471497 0 0 0 -0.0639,0.573837 c -0.0082,0.199901 -0.0122,0.391613 -0.0122,0.573835 0,1.381623 0.732553,2.07196 2.197581,2.071055 a 3.6291146,3.6291146 0 0 0 1.260546,-0.19844 2.2674164,2.2674164 0 0 0 0.922106,-0.637738 3.3978557,3.3978557 0 0 0 0.637738,-1.147854 10.715162,10.715162 0 0 0 0.424187,-1.733706 l 1.495943,-9.237634 h 4.494382 l -1.646864,10.336338 c -0.300531,1.780063 -0.874863,3.227916 -1.722965,4.343459 a 5.4498882,5.4498882 0 0 1 -2.371626,1.82091 c -0.931506,0.367164 -2.154877,0.550716 -3.670221,0.550715 a 9.5143185,9.5143185 0 0 1 -3.092379,-0.473342 c -0.915189,-0.318209 -1.664446,-0.767909 -2.247828,-1.349025 -0.864877,-0.883912 -1.29769,-2.157026 -1.298596,-3.819687 0,-0.367162 0.01625,-0.74529 0.05025,-1.136932 0.034,-0.388921 0.08293,-0.775121 0.150923,-1.161326 z m 28.276905,0 h 4.518959 l -2.672197,16.625774 h -4.495656 z"
     style="fill:#2bd16c;fill-opacity:1;stroke-width:0.093212" />
</svg>
