<svg
	version="1.1"
	xmlns="http://www.w3.org/2000/svg"
	viewBox="0 0 407 538.83">
<g>
	<path style="opacity:1;fill:#ffea03;fill-opacity:1"
		d="M126.54 0.17L166.04 41.82L183.42 27.17L126.54 0.17ZM339.48 0.17L339.48 285.99L361.48 270.01L361.48 14.06L339.48 0.17ZM126.54 285.99C128.04 284.94 135.49 279.68 148.92 270.21C148.92 258.97 148.92 169.09 148.92 157.86C132.19 152.13 121.74 148.55 117.55 147.12C116.22 241.2 126.54 191.16 126.54 285.99ZM215.22 153.27L164.89 207.97L193.47 207.97L220.05 180.12L215.22 153.27Z"/>
	<path style="opacity:1;fill:#ffea03;fill-opacity:1"
		d="M356.92 318.53C360.58 318.53 363.54 315.56 363.53 311.9C363.52 308.27 360.6 305.33 356.97 305.3C353.3 305.3 350.31 308.26 350.29 311.94C350.3 315.59 353.27 318.55 356.92 318.53ZM295.46 306.7C293.93 307.41 292.57 308.44 291.46 309.72C290.35 311.02 289.5 312.52 288.95 314.15C287.78 317.64 287.78 321.42 288.95 324.91C289.49 326.53 290.34 328.04 291.46 329.34C292.56 330.62 293.93 331.64 295.46 332.33C298.88 333.8 302.74 333.8 306.15 332.33C307.68 331.63 309.05 330.61 310.15 329.34C311.27 328.04 312.12 326.53 312.66 324.91C313.83 321.42 313.83 317.64 312.66 314.15C312.12 312.52 311.26 311.02 310.15 309.72C309.05 308.44 307.68 307.42 306.15 306.7C304.54 305.97 302.8 305.59 301.03 305.58C300.94 305.58 300.86 305.58 300.77 305.58C298.94 305.56 297.13 305.94 295.46 306.7ZM64.03 307.48C63.13 308.12 62.36 308.96 61.82 309.93C61.24 310.99 60.95 312.19 60.98 313.41C60.98 314.1 61.08 314.79 61.27 315.46C61.46 316.14 61.78 316.79 62.21 317.36C62.71 318 63.33 318.55 64.02 318.97C64.9 319.51 65.87 319.9 66.87 320.14C68.67 320.64 70.22 321.04 71.48 321.36C72.6 321.63 73.69 321.95 74.78 322.34C75.36 322.56 75.89 322.91 76.31 323.37C76.82 324 77.07 324.81 77 325.61C77 326.12 76.9 326.62 76.7 327.08C76.49 327.58 76.16 328.03 75.73 328.37C75.22 328.79 74.62 329.09 73.99 329.29C73.15 329.54 72.27 329.66 71.38 329.64C70.5 329.65 69.61 329.54 68.75 329.32C67.98 329.13 67.26 328.79 66.62 328.32C65.99 327.85 65.5 327.25 65.16 326.55C64.8 325.73 64.62 324.84 64.64 323.94C64.18 323.94 60.49 323.94 60.02 323.94C60.01 325.41 60.32 326.88 60.95 328.21C61.51 329.36 62.32 330.38 63.33 331.17C64.38 331.96 65.56 332.54 66.83 332.88C68.23 333.26 69.67 333.44 71.11 333.43C72.41 333.43 73.7 333.28 74.95 332.97C76.16 332.69 77.31 332.19 78.34 331.5C79.33 330.85 80.15 329.99 80.75 328.97C81.39 327.79 81.7 326.47 81.65 325.13C81.66 324.42 81.55 323.71 81.33 323.04C81.16 322.34 80.86 321.67 80.46 321.06C80 320.44 79.46 319.89 78.84 319.43C78.14 318.94 77.36 318.56 76.53 318.32C76.42 318.29 75.84 318.13 74.8 317.86C74.64 317.81 73.81 317.6 72.33 317.2C70.94 316.84 70.18 316.64 70.02 316.59C69.31 316.4 68.93 316.29 68.84 316.27C67.99 316.06 67.2 315.64 66.54 315.06C65.93 314.49 65.62 313.68 65.67 312.85C65.64 312.25 65.8 311.67 66.13 311.18C66.43 310.74 66.83 310.37 67.3 310.11C67.78 309.84 68.3 309.66 68.84 309.55C69.39 309.44 69.95 309.38 70.51 309.38C71.92 309.32 73.32 309.7 74.5 310.45C75.54 311.15 76.12 312.36 76.25 314.08C76.72 314.08 80.43 314.08 80.9 314.08C80.97 311.6 79.84 309.24 77.87 307.74C76.9 307 75.8 306.46 74.62 306.13C73.35 305.77 72.03 305.58 70.71 305.58C69.51 305.59 68.32 305.74 67.17 306.05C66.04 306.34 64.99 306.83 64.03 307.48ZM257.72 307.48C256.8 308.12 256.05 308.95 255.51 309.93C254.93 310.99 254.63 312.19 254.67 313.41C254.67 314.1 254.76 314.79 254.95 315.46C255.14 316.14 255.46 316.79 255.9 317.36C256.4 318 257.01 318.55 257.7 318.97C258.59 319.51 259.54 319.9 260.55 320.14C262.36 320.64 263.91 321.04 265.16 321.36C266.28 321.63 267.38 321.96 268.46 322.34C269.05 322.56 269.57 322.91 269.99 323.37C270.5 324 270.75 324.81 270.68 325.61C270.68 326.12 270.58 326.62 270.39 327.08C270.18 327.58 269.84 328.03 269.42 328.37C268.9 328.79 268.31 329.09 267.67 329.29C266.82 329.54 265.95 329.66 265.06 329.64C264.18 329.65 263.3 329.54 262.44 329.32C261.67 329.13 260.94 328.79 260.3 328.32C259.67 327.85 259.17 327.25 258.84 326.55C258.47 325.73 258.3 324.84 258.33 323.94C257.87 323.94 254.19 323.99 253.74 324C253.72 325.47 254.05 326.92 254.67 328.26C255.23 329.42 256.04 330.43 257.05 331.23C258.1 332.02 259.28 332.6 260.55 332.93C261.94 333.31 263.38 333.5 264.83 333.49C266.12 333.49 267.42 333.33 268.67 333.03C269.89 332.74 271.03 332.24 272.07 331.56C273.05 330.89 273.87 330 274.47 328.97C275.11 327.79 275.42 326.47 275.38 325.13C275.37 324.42 275.27 323.72 275.07 323.04C274.85 322.34 274.53 321.67 274.11 321.06C273.66 320.44 273.11 319.89 272.49 319.43C271.8 318.94 271.03 318.56 270.22 318.32C270.1 318.29 269.53 318.13 268.48 317.86C268.31 317.81 267.49 317.6 266.01 317.2C264.62 316.84 263.85 316.64 263.7 316.59C263 316.4 262.61 316.29 262.53 316.27C261.67 316.06 260.89 315.64 260.23 315.06C259.23 314 259.07 312.42 259.82 311.18C260.12 310.73 260.52 310.37 260.99 310.11C261.47 309.84 261.98 309.66 262.52 309.55C263.08 309.44 263.64 309.38 264.2 309.38C265.61 309.32 266.99 309.7 268.19 310.45C269.23 311.15 269.8 312.36 269.93 314.08C270.4 314.08 274.12 314.08 274.59 314.08C274.61 312.81 274.34 311.55 273.77 310.41C273.23 309.37 272.47 308.46 271.55 307.74C270.58 307 269.49 306.46 268.32 306.13C267.04 305.77 265.72 305.58 264.39 305.58C263.2 305.59 262.01 305.74 260.85 306.05C259.73 306.34 258.67 306.82 257.72 307.48ZM97.7 309.74C96.59 311.05 95.73 312.55 95.19 314.17C94.03 317.66 94.03 321.44 95.19 324.94C95.73 326.56 96.58 328.06 97.7 329.36C98.81 330.64 100.17 331.66 101.7 332.36C103.39 333.12 105.23 333.5 107.09 333.46C108.6 333.48 110.1 333.22 111.52 332.69C112.82 332.2 114.01 331.43 115.01 330.47C116.02 329.5 116.82 328.34 117.38 327.06C117.98 325.68 118.33 324.21 118.41 322.71C117.95 322.71 114.32 322.71 113.87 322.71C113.77 323.64 113.56 324.55 113.23 325.42C112.92 326.24 112.47 326.99 111.89 327.64C111.32 328.28 110.62 328.79 109.84 329.13C108.97 329.51 108.03 329.69 107.09 329.67C105.81 329.7 104.55 329.41 103.42 328.82C102.41 328.26 101.55 327.47 100.9 326.51C100.24 325.51 99.75 324.41 99.47 323.25C98.85 320.8 98.85 318.24 99.47 315.8C99.75 314.64 100.24 313.54 100.9 312.55C101.55 311.58 102.41 310.8 103.42 310.25C104.55 309.64 105.81 309.35 107.09 309.38C107.95 309.37 108.81 309.5 109.63 309.78C110.33 310.02 110.99 310.39 111.55 310.88C112.1 311.35 112.55 311.92 112.9 312.55C113.25 313.22 113.53 313.93 113.71 314.67C114.17 314.67 117.9 314.7 118.37 314.7C118.25 313.35 117.85 312.05 117.22 310.86C116.61 309.75 115.78 308.78 114.78 308.01C113.73 307.21 112.55 306.6 111.3 306.22C109.93 305.8 108.51 305.6 107.09 305.6C106.96 305.6 106.84 305.6 106.72 305.6C104.99 305.63 103.28 306 101.7 306.73C100.18 307.44 98.81 308.47 97.7 309.74ZM1.82 306.22L1.82 332.8L6.26 332.8L6.26 312.28L6.33 312.28L13.69 332.8L17.53 332.8L24.91 312.28L24.99 312.28L24.99 332.8L29.42 332.8L29.42 306.22L22.94 306.22L15.79 327.03L15.72 327.03L8.38 306.22L1.82 306.22ZM34.56 306.22C34.58 316.43 34.59 322.1 34.59 323.24C34.56 324.76 34.82 326.28 35.36 327.7C35.84 328.92 36.6 330.01 37.58 330.89C38.57 331.76 39.75 332.43 41.03 332.8C43.95 333.64 47.04 333.64 49.96 332.8C51.23 332.42 52.4 331.76 53.4 330.89C54.37 330 55.13 328.92 55.61 327.7C56.16 326.28 56.42 324.76 56.38 323.24C56.38 322.1 56.38 316.43 56.38 306.22C55.92 306.22 52.23 306.22 51.77 306.22C51.77 315.52 51.77 320.68 51.77 321.71C51.77 322.61 51.73 323.51 51.64 324.43C51.56 325.3 51.3 326.14 50.87 326.9C50.43 327.66 49.79 328.29 49.01 328.71C46.76 329.65 44.22 329.65 41.97 328.71C41.19 328.29 40.55 327.66 40.11 326.9C39.68 326.14 39.42 325.3 39.34 324.43C39.26 323.51 39.21 322.61 39.21 321.71C39.21 320.68 39.21 315.52 39.21 306.22C38.28 306.22 35.49 306.22 34.56 306.22ZM85.57 306.22L85.57 332.8L90.18 332.8L90.18 306.22L85.57 306.22ZM130.17 306.22L130.17 310.25L138.63 310.25L138.63 332.8L143.24 332.8L143.24 310.25L151.69 310.25L151.69 306.22L130.17 306.22ZM154.63 306.22L154.63 332.8L174.04 332.8L174.04 328.79L159.29 328.79L159.29 321L172.69 321L172.69 317.16L159.29 317.16L159.29 310.25L173.78 310.25L173.78 306.22L154.63 306.22ZM177.94 306.22L177.94 332.8L196.1 332.8L196.1 328.79L182.59 328.79L182.59 306.22L177.94 306.22ZM199.17 306.22L199.17 332.8L218.56 332.8L218.56 328.79L203.81 328.79L203.81 321L217.22 321L217.22 317.16L203.81 317.16L203.81 310.25L218.3 310.25L218.3 306.22L199.17 306.22ZM219.45 306.22L228.31 332.8L233.49 332.8L242.6 306.22L237.88 306.22L231.06 327.25L230.99 327.25L224.32 306.22L219.45 306.22ZM245.08 306.22L245.08 332.8L249.69 332.8L249.69 306.22L245.08 306.22ZM279.25 306.22L279.25 332.8L283.86 332.8L283.86 306.22L279.25 306.22ZM317.41 306.22L317.41 332.8L321.84 332.8L321.84 313.25L321.96 313.25L334.06 332.8L338.97 332.8L338.97 306.22L334.54 306.22L334.54 325.8L334.47 325.8L322.33 306.22L317.41 306.22ZM356.97 317.46C353.92 317.46 351.43 315 351.41 311.95C351.41 311.94 351.41 311.93 351.41 311.92C351.41 308.87 353.88 306.39 356.94 306.38C356.96 306.38 356.96 306.38 356.97 306.38C360.03 306.38 362.5 308.86 362.5 311.92C362.5 314.97 360.03 317.46 356.97 317.46ZM354.34 315.46C355.03 315.46 355.41 315.46 355.49 315.46C355.49 313.66 355.49 312.65 355.49 312.45C356.76 312.35 357.14 312.52 357.79 313.54C358.16 314.11 358.47 314.7 358.81 315.28C358.86 315.36 358.96 315.47 359.03 315.47C359.16 315.47 360.23 315.47 360.36 315.47C359.56 314.35 359.07 313.05 357.89 312.28C357.93 312.28 358.13 312.24 358.16 312.23C359.12 312.08 359.83 311.25 359.85 310.28C359.85 309.31 359.11 308.51 358.15 308.44C357.33 308.34 356.51 308.34 355.7 308.34C355.52 308.34 355.06 308.34 354.34 308.34C354.34 309.29 354.34 311.66 354.34 315.46ZM357.87 309.47C358.34 309.51 358.68 309.91 358.64 310.38C358.64 310.38 358.64 310.38 358.64 310.39C358.69 310.88 358.36 311.31 357.87 311.39C357.59 311.46 357.29 311.51 357 311.52C356.9 311.52 356.4 311.52 355.51 311.52C355.51 310.33 355.51 309.58 355.51 309.29C356.27 309.34 357.04 309.34 357.87 309.47ZM304.44 310.25C305.45 310.8 306.31 311.58 306.95 312.55C307.61 313.54 308.1 314.64 308.38 315.8C309.01 318.24 309.01 320.8 308.38 323.25C308.1 324.41 307.61 325.51 306.95 326.51C306.31 327.47 305.45 328.26 304.44 328.82C302.13 329.96 299.42 329.96 297.1 328.82C296.09 328.26 295.23 327.47 294.59 326.51C293.93 325.51 293.44 324.41 293.15 323.25C292.54 320.8 292.54 318.25 293.15 315.8C293.44 314.64 293.93 313.54 294.59 312.55C295.23 311.58 296.09 310.8 297.1 310.25C298.17 309.68 299.36 309.38 300.57 309.38C300.63 309.38 300.7 309.38 300.77 309.38C302.04 309.35 303.31 309.64 304.44 310.25Z"/>
	<path style="opacity:1;fill:#efa796;fill-opacity:1"
		d="M0.78 285.99L0.78 0.17L126.54 0.17L165.99 41.52L213.53 0.17L339.48 0.17L339.48 285.99L213.72 285.99L213.72 161.22L164.89 207.97L126.54 170.55L126.54 285.99L0.78 285.99Z"/>
	<path style="opacity:1;fill:#82beff;fill-opacity:1"
		d="M376.73 47.72C375.96 48.74 373.13 51.05 372.12 52.33C370.22 54.18 368.45 56.17 366.84 58.28C365.01 60.94 363.4 63.73 362.01 66.64C360.63 68.04 358.31 70.4 357.96 70.87C357.1 72 351.49 79.52 350.75 80.3C350.01 81.08 347.54 84.32 346.67 85.6C345.8 86.88 345.01 88.04 344.29 89.1C344.36 89 344.74 88.52 345.42 87.66C343.93 89.65 343.11 90.77 342.94 90.98C342.94 90.98 338.79 96.59 338.22 97.14C337.65 97.69 335.15 100.28 335.15 100.28C333.85 102.41 332.27 105.09 331.74 106.11C331.63 106.32 329.43 111.64 327.47 114C326 115.74 325.26 118.85 324.9 120.35C324.51 121.54 324.02 122.71 323.45 123.82C322.72 125.25 321.01 129.07 321.01 129.07C321.01 129.07 316.55 136.02 316.39 136.37C315.78 137.44 314.77 138.85 313.69 140.35C312.6 141.85 310.82 144.31 310.61 145.04C310.1 147.22 309.13 149.27 307.77 151.05C307.41 151.48 307.13 151.95 306.91 152.46C305.98 157.47 303.55 161.81 300.87 163.22C299.83 163.84 298.56 163.93 297.43 163.48C293.52 161.83 292.56 158.66 291.55 155.3C291.55 155.3 290.57 149.75 290.44 146.84C290.37 145.23 290.31 143.56 290.14 142.03C289.92 139.8 289.64 137.56 289.37 135.38C289 132.44 288.23 124.62 288.23 124.62C287.66 117.33 287.33 113.31 282.85 110.2C281.64 109.36 278.33 109.32 277.98 109.29C275.36 109 272.7 109.13 270.13 109.69C269.46 109.87 266.38 111.86 265.75 112.21C263.86 113.25 261.53 114.52 260.84 115.91C259.35 118.88 259.3 125.69 260.77 134.14C260.95 135.18 263.36 141.67 264.39 144.44C264.39 144.44 267.13 152.58 267.98 155.51C268.59 157.68 270.5 163.78 270.5 163.78C271.63 166.92 272.57 170.15 273.31 173.41C273.82 176.1 274.47 178.75 275.27 181.37C276.04 184 276.81 186.75 277.35 189.66C277.44 190.14 278.89 194.93 278.98 195.62C279.08 196.32 280.24 200.43 280.77 201.9C281.25 203.24 281.75 204.63 282.1 205.88C283.15 209.58 284.53 213.18 286.22 216.64C287.05 218.53 288 220.36 289.05 222.13C292.31 226.91 294.94 229.17 301.06 229.14C305.57 229.14 308.02 228.53 309.51 227.14C311.12 225.6 312.57 223.9 313.83 222.06C315.76 219.02 317.09 215.65 317.77 212.12C318.07 209.99 318.14 207.84 317.97 205.7C317.82 203.52 317.86 201.33 318.09 199.15C318.56 195.55 319.45 192.01 320.76 188.62C321.45 187.12 322.06 185.58 322.56 184.01C323.25 181.37 324.69 179.21 326.09 177.09C326.69 176.19 327.26 175.34 327.73 174.5C328.55 173.04 331.52 167.95 333.11 165.35C333.32 165.03 334.97 162.52 335.17 162.21C336.64 160.44 337.96 158.55 339.13 156.57C340.13 154.56 340.67 153.26 340.67 153.26C340.68 153.23 340.78 153.07 340.79 153.05C341.12 152.39 342.09 150.05 342.48 148.87C342.83 147.68 343.26 146.51 343.77 145.38C344.06 144.78 347.24 141.73 347.76 140.41C348.01 139.76 350.46 135.68 350.94 134.41C352.01 131.6 354.83 127.56 355.15 126.79C355.92 124.85 356.96 122.44 358.68 120.6C359.77 119.18 360.76 117.68 361.63 116.11C361.84 115.78 362.04 115.46 362.23 115.14C362.48 114.63 364.54 110.53 364.79 110.02C365.31 108.99 370.17 103.1 371.46 101.8C372.76 100.5 373.77 98.72 374.81 97.43C375.84 96.14 376.6 95.64 378.4 93.52C380.2 91.39 379.94 90.51 381.74 89.48C383.53 88.44 385.07 86.91 388.92 85.1C392.77 83.31 398.68 80.23 405.35 66.66C412.02 53.08 396.72 41.51 390.31 41.82C386.26 42.01 381.58 43.61 380.32 44.64C379.06 45.66 377.5 46.69 376.73 47.72ZM277.15 61.05C276.61 61.47 272.77 64.04 271.98 65.09C271.56 65.64 269.53 68.8 268.02 70.12C266.69 71.27 263.21 72.42 261.36 73.72C259.83 74 258.32 74.36 256.83 74.8C255.85 75.17 251.97 77.2 251.12 77.49C250.55 77.69 247.84 78.44 246.98 78.76C246.34 79 244.59 80.13 244.34 80.2C242.58 80.66 240.75 80.75 238.96 80.48C238.19 80.3 232.72 77.2 228.48 77.91C226.86 78.14 225.35 78.81 224.09 79.84C222.93 80.14 221.22 80.96 220.72 81.96C220.21 82.96 219.35 82.89 218.78 83.91C217.91 85.64 217.29 87.48 216.93 89.38C216.74 91.32 217.24 92.98 217.54 94.61C218.41 99.28 216.88 101.16 213.87 102.73C213.17 103.09 210.79 104.81 210.22 105.08C209.37 105.47 206.02 106.62 205.19 107.06C201.97 108.89 199.04 109.98 198.33 110.63C195.93 112.77 193.32 114.63 190.53 116.21C188.93 117.21 186.2 118.76 182.76 120.69C180.69 121.85 177.58 124.57 177.04 124.93C176.5 125.28 173.52 126.73 172.7 127.28C172.16 127.63 169.55 129.59 168.74 130.03C166.81 130.97 164.78 131.7 162.68 132.19C159.04 133.23 155.27 134.3 152.86 136.99C149.19 141.05 147.66 147.35 149.5 152.25C151.05 156.06 154 159.14 157.75 160.84C161.08 162.21 166.56 161.87 169.08 159.99C170.7 158.77 171.56 156.92 172.31 155.29C172.97 153.8 173.88 152.44 174.99 151.27C176.53 149.79 178.84 145.88 179.52 145.21C181.18 143.64 183.07 142.35 185.14 141.36C188.28 139.71 191.16 137.6 193.7 135.12C194.59 134.16 195.58 133.31 196.65 132.58C199.46 131.07 202.14 129.35 204.66 127.4C205.84 126.52 209.32 124.86 211.18 123.88C213.03 122.9 215.34 120.91 216.21 120.51C217.35 119.98 219.34 119.94 220.05 120.43C220.77 120.92 222.6 123.51 223.76 136.99C223.82 137.65 223.88 143.07 223.89 143.91C223.89 145.27 224.42 149.69 224.39 150.12C224.27 152.98 224.35 155.85 224.6 158.7C224.51 160.51 224.6 162.31 224.88 164.09C225.12 166.52 225.12 168.97 224.88 171.4C224.79 172.83 224.79 174.26 224.88 175.68C224.86 178.27 224.69 180.85 224.39 183.43C224.39 184.05 224.32 188.1 224.11 189.63C224.06 189.94 223.47 192.25 223.41 192.99C223.24 194.79 224.11 200.15 223.99 201.28C223.75 202.91 223.36 204.52 222.83 206.08C221.97 208.98 220.98 212.23 221.48 216.16C221.77 218.61 222.32 221.03 223.12 223.37C223.16 223.48 224.02 226.9 224.32 228.49C224.32 228.49 225.5 232.37 225.86 234.75C226.03 236.53 226.04 238.32 225.93 240.09C225.93 241.41 226.89 245.57 226.97 246.2C227.03 246.65 226.74 249.47 226.9 250.51C227.26 252.76 228.13 256.96 230.66 258.49C233.74 260.37 236.52 260.2 238.35 260.75C242.52 261.85 246.92 261.65 250.97 260.17C252.03 259.76 252.95 259.04 253.62 258.13C254.22 257.19 255.49 256.44 256.33 255.16C257.3 253.66 258.69 247.74 259.6 245.25C260.57 242.61 259.5 237.45 258.84 235.3C258.61 234.62 256.22 228.96 255.63 227.67C255.04 226.38 254.59 220.84 254.38 219.63C254.23 218.82 253.23 215.19 253.12 214.48C253.02 213.93 253.22 210.82 253.07 209.87C252.3 205.17 252.85 200.47 253.39 195.93C253.39 195.93 253.29 191.43 253.39 190.77C253.66 188.17 253.76 185.21 253.86 182.36C253.92 180.43 253.99 178.61 254.09 177.03C254.16 176.13 253.56 173.7 253.92 171.71C254.06 170.95 253.42 167.76 253.39 167.39C253.19 165.64 253.93 157.96 253.76 155.94C253.68 155.17 252.81 150.83 252.46 146.86C252.46 146.86 252.27 141.86 252.38 140.4C252.5 138.5 252.2 133.78 252.25 129.48C252.25 128.07 251.75 119.41 251.62 118.46C251.29 115.89 251.28 113.29 251.56 110.72C252.13 106.33 251.69 105.52 252.22 102.41C252.73 99.45 257.78 97.31 258.2 97.22C259.34 96.96 263.28 96.15 264.27 95.29C266.23 93.71 268.52 92.57 270.96 91.96C273.07 91.34 274.22 89.71 274.92 89.32C275.84 88.81 278.69 87.01 279.53 86.61C280.37 86.2 281.39 84.72 283.46 84.17C284.49 83.9 286.05 82.79 287.59 82.27C288.67 81.91 290.47 81.39 290.84 81.17C294.52 78.86 299.36 72.44 298.09 65.96C297.67 63.87 296.02 62.35 295.01 60.85C293.04 57.86 290.4 57.74 288.56 57.77C287.3 57.77 285.45 57.47 284.21 57.43C283.8 57.41 283.46 57.43 283.22 57.49C281.29 58.05 278.42 60.06 277.15 61.05Z"/>
	<path style="display:inline;opacity:1;fill:#efa796;fill-opacity:0.980392;stroke:#ffffff;stroke-width:5.6;stroke-opacity:1"
		d="M2.15 355.33L364.24 355.33L364.24 533.68L2.15 533.68L2.15 355.33Z"/>
	<path style="display:inline;fill:#fce70a;stroke-width:0.762935"
		d="M220.09 467.1C220.07 466.93 219.95 466.04 219.73 464.45L227.69 464.45L235.65 464.45C236.03 465.63 236.25 466.29 236.29 466.42C237.96 471.46 244.82 473.51 250.39 470.63C252.47 469.55 253.59 466.94 252.83 464.94C252.08 462.95 249.65 461.91 241.61 460.11C226.18 456.67 222.71 454.46 220.99 446.99C218.99 438.32 224.52 431.45 235.58 428.85C241.21 427.53 252.44 427.97 256.8 429.68C263.51 432.31 266.86 435.94 267.95 441.74C267.98 441.92 268.15 442.84 268.46 444.48C263.75 444.48 261.13 444.48 260.61 444.48C253.85 444.48 252.76 444.35 252.76 443.55C252.76 443.04 252.01 441.88 251.09 440.96C248.03 437.9 240.4 438.08 238.31 441.27C237.44 442.6 237.44 442.83 238.32 444.17C239.79 446.42 242.15 447.34 251.48 449.28C256.22 450.26 261.02 451.54 262.15 452.13C264.63 453.41 267.51 456.37 268.97 459.16C270.3 461.71 270.33 467.9 269.03 470.99C266.93 476 261.66 479.97 254.7 481.78C250.1 482.98 239.49 482.88 234.56 481.59C226.17 479.4 221.08 474.3 220.09 467.1ZM108.07 474.93C106.04 472.52 103.07 466.39 103.07 464.6C103.07 463.29 103.17 463.28 110.85 463.29C111.37 463.29 113.96 463.29 118.63 463.3C119.16 464.42 119.45 465.04 119.51 465.16C121.03 468.38 123.13 469.44 127.96 469.44C131.49 469.44 132.57 469.2 134.28 468.03C137.83 465.59 140 461.18 140.92 454.47C140.95 454.29 141.07 453.41 141.29 451.82C140.13 453.09 139.48 453.8 139.35 453.94C132.29 461.65 116.76 461.15 108.57 452.95C103.77 448.14 101.53 441.54 102.06 433.75C103.08 418.89 117.03 408.63 133.12 410.91C144.51 412.52 151.85 418.93 155.72 430.63C157.16 434.97 157.3 436.19 157.31 444.77C157.33 455.57 156.55 459.7 153.15 466.77C149.6 474.15 143.58 479.16 135.75 481.25C131.41 482.4 121.74 482.25 117.75 480.97C113.74 479.68 110.23 477.49 108.07 474.93ZM140.5 436.9C141.21 429.57 136.49 424.55 128.87 424.52C120.64 424.49 115.34 433.02 118.85 440.66C120.75 444.8 124.04 446.82 128.86 446.83C130.92 446.83 132.97 446.39 134.62 445.58C137.9 444 140.14 440.69 140.5 436.9ZM169.83 474.46C166.77 471.05 164.06 465.66 162.57 460.05C161.06 454.29 161.02 438.26 162.51 432.73C166.83 416.76 178.33 408.53 192.97 410.93C204.63 412.83 212.31 420.54 215.59 433.63C217.19 440.02 217.03 453.88 215.28 460.02C212.43 470.05 207.62 476.33 200.06 479.9C196.48 481.58 195.51 481.77 189.66 481.91C184.62 482.03 182.47 481.83 179.87 480.97C175.42 479.51 172.9 477.87 169.83 474.46ZM198.83 460.96C199.85 458.3 200.13 456.02 200.36 448.59C200.89 430.66 197.49 423.95 188.22 424.62C180.35 425.19 177.62 430.86 177.62 446.59C177.62 457.48 178.93 462.78 182.41 466.03C185 468.45 189.25 469.24 192.7 467.94C195.32 466.95 197.48 464.5 198.83 460.96Z"/>
</g>
</svg>
