<svg
	xmlns="http://www.w3.org/2000/svg"
	viewBox="0 0 1024 632.83">
<g style="fill:#fcee4f;stroke:Black;stroke-width:2">
<path
	d="M722.94,632.83a490.76,490.76,0,0,1-4.09-58.37c0-12.28,2-62.46,2-102.4,0-33.79-7.17-94.2-7.17-127,0-19.46,1-46.08-1-56.32,15.36-10.24,29.7-16.39,72.71-43,14.33-8.19,41-22.53,41-39.94,0-8.19-2-12.28-13.31-21.5-7.17-6.14-15.36-8.19-24.58-8.19-22.53,0-31.74,22.53-50.18,33.79-28.67,17.41-43,25.6-49.15,28.67a56.94,56.94,0,0,0-27.65-7.17c-16.38,0-34.81,7.17-34.81,28.68,0,9.21,3.07,20.48-10.24,26.62-7.17,4.1-42,24.58-79.87,47.1-31.75,19.46-46.08,17.41-59.4,25.6-12.28,7.17-15.36,16.39-15.36,24.58,0,7.17,4.1,16.38,6.15,18.43,8.19,11.27,16.38,16.39,29.69,16.39,22.53,0,41-19.46,76.8-45.06C596,358.4,616.45,342,627.71,342c10.24,0,17.41,8.19,17.41,39.93,0,108.55-6.14,126-6.14,200.71,0,13.31,1,38.91,1,49.15H582.66V454.66l-110.6,93.18L361.47,454.66V632.83H0V0H349.18L470,127,589.82,0H942.08V270.34C930.82,287.74,897,346.11,874.5,405.5,867.33,425,863.23,439.3,854,439.3c-11.27,0-11.27-10.24-12.29-20.48-2.05-20.48-7.17-59.4-9.22-73.73-4.09-27.65-9.21-57.35-41-57.35-22.53,0-47.1,12.29-47.1,47.11,0,19.45,10.24,53.25,26.62,97.28,6.15,17.41,42,109.57,47.11,122.88,9.21,24.57,22.52,30.72,42,30.72,25.6,0,34.82-9.22,45.06-45.06C914.43,510,929.79,459.78,942.08,428h0v204.8Z"/>
<path
	d="M1024,281.6V632.83H966.66v-257c12.28-26.63,42-73.73,57.34-94.21"/>
<path
	d="M966.66,234.5V0L1024,34.82v129c-14.34,14.34-44,50.18-57.34,70.66"/>
<polygon
	points="501.76 57.34 470.02 91.14 384 0 493.57 48.13 501.76 57.34"/>
<polygon
	points="505.86 550.91 545.79 550.91 557.06 541.7 557.06 507.9 505.86 550.91"/>
<polygon
	points="384 632.83 431.1 632.83 431.1 547.84 384 507.9 384 632.83"/>
</g>
</svg>
