<svg version="1.1"
	xmlns="http://www.w3.org/2000/svg"
	viewBox="0 0 538.83 695.98">
<g>
	<path style="opacity:1;fill:#feb7fe;fill-opacity:1"
		d="M164.61 0L215.93 54.12L238.51 35.09L164.61 0ZM441.29 0L441.29 371.37L469.87 350.61L469.87 18.05L441.29 0ZM152.93 190.94C151.2 313.18 164.61 248.16 164.61 371.37C166.55 370.01 176.24 363.17 193.68 350.87L193.68 204.89C171.95 197.45 158.37 192.8 152.93 190.94ZM279.83 198.93L214.43 270L251.57 270L286.1 233.82L279.83 198.93Z"/>
	<path style="opacity:1;fill:#82beff;fill-opacity:1"
		d="M455.33 405.09C455.34 409.83 459.2 413.68 463.95 413.66C468.7 413.65 472.54 409.79 472.53 405.04C472.52 400.33 468.72 396.51 464.01 396.46C459.24 396.46 455.36 400.31 455.33 405.09ZM390.99 396.83C388.61 396.8 386.26 397.3 384.09 398.29C382.1 399.21 380.33 400.55 378.89 402.21C377.45 403.9 376.34 405.85 375.63 407.96C374.11 412.5 374.11 417.41 375.63 421.94C376.33 424.05 377.44 426.01 378.89 427.7C380.32 429.36 382.1 430.69 384.09 431.59C388.53 433.5 393.55 433.5 397.98 431.59C399.97 430.68 401.75 429.35 403.18 427.7C404.63 426.01 405.73 424.05 406.44 421.94C407.96 417.41 407.96 412.5 406.44 407.96C405.73 405.85 404.62 403.9 403.18 402.21C401.74 400.55 399.97 399.22 397.98 398.29C395.89 397.33 393.62 396.84 391.32 396.83C391.21 396.83 391.1 396.83 390.99 396.83ZM87.46 397.44C86 397.82 84.63 398.45 83.39 399.3C82.21 400.13 81.22 401.22 80.51 402.48C79.76 403.86 79.38 405.42 79.42 407C79.42 407.9 79.55 408.8 79.8 409.66C80.05 410.55 80.46 411.39 81.02 412.13C81.67 412.96 82.47 413.68 83.37 414.23C84.52 414.93 85.77 415.44 87.08 415.75C89.42 416.4 91.43 416.92 93.07 417.33C94.52 417.68 95.94 418.1 97.35 418.61C98.11 418.89 98.79 419.34 99.34 419.94C100.01 420.76 100.33 421.81 100.24 422.86C100.24 423.52 100.11 424.17 99.85 424.77C99.58 425.42 99.14 426 98.59 426.44C97.92 426.98 97.15 427.38 96.33 427.63C95.23 427.96 94.09 428.11 92.94 428.09C91.79 428.1 90.64 427.96 89.52 427.68C88.52 427.43 87.58 426.98 86.75 426.37C85.93 425.77 85.29 424.98 84.86 424.07C84.38 423.01 84.15 421.85 84.18 420.69C83.58 420.69 78.78 420.69 78.18 420.69C78.16 422.6 78.57 424.5 79.39 426.23C80.11 427.73 81.17 429.05 82.48 430.08C83.84 431.11 85.38 431.86 87.03 432.3C88.84 432.79 90.71 433.03 92.59 433.02C94.27 433.02 95.95 432.82 97.58 432.42C99.15 432.05 100.64 431.4 101.98 430.51C103.26 429.66 104.33 428.54 105.11 427.22C105.94 425.69 106.34 423.97 106.28 422.23C106.29 421.31 106.15 420.39 105.87 419.52C105.64 418.6 105.25 417.73 104.73 416.94C104.14 416.13 103.44 415.42 102.63 414.83C101.72 414.19 100.7 413.7 99.63 413.38C99.48 413.34 98.73 413.14 97.38 412.78L94.17 411.93L91.17 411.14C90.25 410.89 89.75 410.75 89.64 410.72C88.53 410.44 87.51 409.9 86.65 409.15C85.86 408.4 85.45 407.35 85.51 406.27C85.48 405.5 85.69 404.74 86.11 404.1C86.51 403.53 87.03 403.05 87.64 402.72C88.26 402.37 88.93 402.13 89.63 401.99C90.35 401.85 91.08 401.77 91.81 401.77C93.64 401.69 95.45 402.18 96.99 403.16C98.34 404.06 99.1 405.64 99.26 407.87C99.87 407.87 104.7 407.87 105.31 407.87C105.4 404.65 103.93 401.59 101.37 399.64C100.11 398.68 98.68 397.97 97.15 397.54C95.5 397.07 93.78 396.83 92.06 396.83C90.51 396.84 88.96 397.04 87.46 397.44ZM339.12 397.44C337.66 397.81 336.28 398.44 335.05 399.3C333.86 400.13 332.88 401.21 332.18 402.48C331.42 403.86 331.04 405.42 331.09 407C331.09 407.9 331.21 408.79 331.45 409.66C331.7 410.55 332.12 411.39 332.68 412.13C333.33 412.96 334.13 413.68 335.03 414.23C336.18 414.93 337.42 415.44 338.73 415.75C341.08 416.4 343.09 416.92 344.72 417.33C346.17 417.68 347.6 418.11 349.01 418.61C349.77 418.89 350.45 419.34 351 419.94C351.66 420.76 351.98 421.81 351.89 422.86C351.89 423.52 351.76 424.17 351.51 424.77C351.24 425.42 350.8 426 350.25 426.44C349.58 426.98 348.81 427.38 347.98 427.63C346.88 427.96 345.74 428.11 344.59 428.09C343.44 428.1 342.3 427.96 341.18 427.68C340.18 427.43 339.23 426.98 338.4 426.37C337.58 425.77 336.94 424.98 336.51 424.07C336.03 423.01 335.81 421.85 335.84 420.69C335.24 420.69 330.47 420.75 329.88 420.76C329.86 422.67 330.28 424.56 331.09 426.3C331.81 427.8 332.87 429.12 334.18 430.15C335.54 431.18 337.08 431.93 338.73 432.37C340.54 432.86 342.41 433.1 344.29 433.09C345.97 433.09 347.65 432.89 349.28 432.49C350.86 432.12 352.35 431.47 353.69 430.58C354.97 429.71 356.04 428.56 356.81 427.22C357.64 425.69 358.05 423.97 358 422.23C357.99 421.31 357.85 420.4 357.59 419.52C357.31 418.6 356.89 417.73 356.35 416.94C355.76 416.13 355.05 415.42 354.24 414.83C353.34 414.19 352.35 413.7 351.29 413.38C351.14 413.34 350.39 413.14 349.03 412.78L345.82 411.93L342.82 411.14C341.91 410.89 341.4 410.75 341.3 410.72C340.19 410.44 339.17 409.9 338.31 409.15C337.01 407.77 336.8 405.71 337.78 404.1C338.17 403.52 338.69 403.05 339.3 402.72C339.92 402.37 340.59 402.13 341.29 401.99C342.01 401.85 342.74 401.77 343.47 401.77C345.3 401.69 347.1 402.18 348.65 403.16C350 404.06 350.75 405.64 350.92 407.87C351.53 407.87 356.36 407.87 356.97 407.87C357 406.22 356.64 404.59 355.91 403.11C355.21 401.75 354.22 400.57 353.02 399.64C351.76 398.68 350.34 397.97 348.82 397.54C347.16 397.07 345.45 396.83 343.72 396.83C342.17 396.84 340.62 397.04 339.12 397.44ZM132.33 398.32C130.35 399.24 128.57 400.58 127.14 402.24C125.69 403.93 124.58 405.88 123.87 407.99C122.36 412.53 122.36 417.44 123.87 421.98C124.57 424.09 125.68 426.04 127.14 427.73C128.57 429.39 130.34 430.72 132.33 431.62C134.53 432.61 136.92 433.1 139.33 433.05C141.29 433.08 143.25 432.74 145.09 432.05C146.78 431.41 148.33 430.42 149.63 429.17C150.94 427.91 151.98 426.4 152.7 424.74C153.48 422.95 153.94 421.03 154.04 419.08C153.45 419.08 148.73 419.08 148.14 419.08C148.02 420.29 147.74 421.48 147.31 422.61C146.91 423.67 146.32 424.65 145.57 425.49C144.83 426.32 143.92 426.98 142.91 427.43C141.78 427.92 140.56 428.15 139.33 428.13C137.67 428.17 136.03 427.79 134.56 427.02C133.25 426.3 132.13 425.27 131.29 424.02C130.43 422.73 129.8 421.3 129.44 419.79C128.63 416.61 128.63 413.28 129.44 410.11C129.8 408.6 130.43 407.17 131.29 405.88C132.13 404.63 133.25 403.61 134.56 402.89C136.03 402.11 137.67 401.73 139.33 401.77C140.45 401.75 141.57 401.92 142.64 402.28C143.55 402.6 144.4 403.08 145.13 403.71C145.84 404.32 146.43 405.06 146.88 405.88C147.34 406.75 147.7 407.68 147.94 408.64C148.54 408.64 153.38 408.68 153.99 408.68C153.83 406.93 153.32 405.23 152.49 403.69C151.7 402.25 150.62 400.99 149.32 399.99C147.96 398.95 146.43 398.16 144.8 397.66C143.03 397.12 141.18 396.85 139.33 396.86C139.17 396.86 139.01 396.86 138.86 396.86C136.61 396.89 134.38 397.38 132.33 398.32ZM2.56 397.66L2.56 432.2L8.33 432.2L8.33 405.53L8.42 405.53L17.98 432.2L22.97 432.2L32.56 405.53L32.66 405.53L32.66 432.2L38.41 432.2L38.41 397.66L30 397.66L20.71 424.7L20.61 424.7L11.08 397.66L2.56 397.66ZM45.09 397.66C45.12 410.93 45.13 418.29 45.13 419.77C45.09 421.75 45.43 423.72 46.13 425.57C46.76 427.15 47.75 428.57 49.02 429.71C50.31 430.85 51.84 431.71 53.5 432.2C57.29 433.29 61.31 433.29 65.1 432.2C66.76 431.7 68.28 430.85 69.58 429.71C70.84 428.56 71.82 427.15 72.45 425.57C73.16 423.72 73.5 421.75 73.45 419.77C73.45 418.29 73.45 410.93 73.45 397.66L67.46 397.66C67.46 409.74 67.46 416.45 67.46 417.79C67.46 418.95 67.4 420.13 67.29 421.32C67.18 422.45 66.84 423.54 66.29 424.53C65.71 425.52 64.88 426.33 63.87 426.88C60.95 428.1 57.65 428.1 54.72 426.88C53.71 426.34 52.88 425.52 52.31 424.53C51.75 423.54 51.41 422.45 51.31 421.32C51.2 420.13 51.14 418.95 51.14 417.79C51.14 416.45 51.14 409.74 51.14 397.66L45.09 397.66ZM111.37 397.66L111.37 432.2L117.36 432.2L117.36 397.66L111.37 397.66ZM169.32 397.66L169.32 402.89L180.31 402.89L180.31 432.2L186.3 432.2L186.3 402.89L197.29 402.89L197.29 397.66L169.32 397.66ZM201.11 397.66L201.11 432.2L226.32 432.2L226.32 426.98L207.16 426.98L207.16 416.87L224.57 416.87L224.57 411.88L207.16 411.88L207.16 402.89L225.98 402.89L225.98 397.66L201.11 397.66ZM231.39 397.66L231.39 432.2L254.99 432.2L254.99 426.98L237.43 426.98L237.43 397.66L231.39 397.66ZM258.97 397.66L258.97 432.2L284.17 432.2L284.17 426.98L265.01 426.98L265.01 416.87L282.43 416.87L282.43 411.88L265.01 411.88L265.01 402.89L283.83 402.89L283.83 397.66L258.97 397.66ZM285.33 397.66L296.84 432.2L303.57 432.2L315.41 397.66L309.27 397.66L300.41 424.99L300.32 424.99L291.66 397.66L285.33 397.66ZM318.63 397.66L318.63 432.2L324.62 432.2L324.62 397.66L318.63 397.66ZM363.03 397.66L363.03 432.2L369.02 432.2L369.02 397.66L363.03 397.66ZM412.61 397.66L412.61 432.2L418.37 432.2L418.37 406.8L418.52 406.8L434.24 432.2L440.62 432.2L440.62 397.66L434.87 397.66L434.87 423.1L434.77 423.1L419 397.66L412.61 397.66ZM471.2 405.06C471.2 409.03 467.99 412.26 464.01 412.26C460.04 412.27 456.81 409.07 456.79 405.1C456.79 405.09 456.79 405.08 456.79 405.07C456.79 401.1 460 397.88 463.97 397.87C463.99 397.87 464 397.87 464.01 397.87C467.98 397.87 471.2 401.09 471.2 405.06ZM460.59 400.41L460.59 409.67L462.08 409.67C462.08 407.33 462.08 406.02 462.08 405.76C463.73 405.63 464.23 405.85 465.08 407.17C465.55 407.91 465.96 408.68 466.4 409.43C466.47 409.53 466.59 409.68 466.69 409.68C466.86 409.68 468.25 409.68 468.42 409.68C467.37 408.22 466.74 406.53 465.21 405.53C465.25 405.53 465.52 405.48 465.55 405.47C466.8 405.27 467.73 404.2 467.75 402.93C467.75 401.68 466.79 400.63 465.54 400.54C464.48 400.41 463.41 400.41 462.36 400.41C462.12 400.41 461.53 400.41 460.59 400.41ZM462.11 401.65C463.1 401.71 464.1 401.71 465.18 401.88C465.79 401.93 466.23 402.46 466.18 403.07C466.18 403.07 466.18 403.07 466.18 403.08C466.25 403.71 465.81 404.28 465.18 404.38C464.81 404.47 464.43 404.53 464.05 404.54C463.92 404.54 463.27 404.54 462.11 404.54C462.11 403 462.11 402.03 462.11 401.65ZM390.99 401.77C392.64 401.73 394.29 402.11 395.75 402.89C397.07 403.61 398.19 404.63 399.02 405.88C399.88 407.17 400.51 408.6 400.88 410.11C401.69 413.28 401.69 416.61 400.88 419.79C400.51 421.3 399.88 422.73 399.02 424.02C398.19 425.27 397.07 426.3 395.75 427.02C392.75 428.5 389.23 428.5 386.22 427.02C384.91 426.3 383.79 425.27 382.96 424.02C382.1 422.73 381.46 421.3 381.09 419.79C380.29 416.61 380.29 413.29 381.09 410.11C381.46 408.6 382.1 407.17 382.96 405.88C383.79 404.63 384.91 403.61 386.22 402.89C387.61 402.15 389.16 401.77 390.73 401.76C390.81 401.76 390.9 401.77 390.99 401.77Z"/>
	<path style="opacity:1;fill:#ff69f1;fill-opacity:1"
		d="M1.2 371.37L1.2 0L164.61 0L215.86 53.73L277.64 0L441.29 0L441.29 371.37L277.88 371.37L277.88 209.26L214.43 270L164.61 221.38L164.61 371.37L1.2 371.37Z"/>
	<path style="opacity:1;fill:#82beff;fill-opacity:1"
		d="M504.14 57.78C502.5 59.11 500.47 60.45 499.47 61.78C498.47 63.11 494.8 66.11 493.48 67.77C491.01 70.18 488.72 72.77 486.62 75.51C484.25 78.96 482.16 82.59 480.35 86.37C478.56 88.19 475.54 91.25 475.08 91.87C473.97 93.33 466.68 103.11 465.72 104.12C464.76 105.13 461.55 109.34 460.42 111C459.29 112.67 458.26 114.18 457.32 115.55C457.42 115.42 457.91 114.8 458.79 113.68C456.86 116.27 455.79 117.72 455.57 118C455.57 118 450.18 125.28 449.44 126C448.7 126.71 445.44 130.08 445.44 130.08C443.76 132.84 441.71 136.33 441.02 137.65C440.87 137.93 438.02 144.84 435.47 147.9C433.56 150.16 432.6 154.2 432.13 156.15C431.62 157.7 430.99 159.22 430.25 160.67C429.3 162.52 427.06 167.48 427.06 167.48C427.06 167.48 421.28 176.52 421.07 176.97C420.28 178.36 418.96 180.19 417.56 182.14C416.15 184.09 413.84 187.29 413.56 188.23C412.9 191.07 411.64 193.73 409.86 196.04C409.41 196.6 409.04 197.21 408.76 197.87C407.55 204.39 404.39 210.03 400.91 211.86C399.55 212.66 397.9 212.78 396.44 212.2C391.36 210.05 390.11 205.93 388.8 201.57C388.8 201.57 387.53 194.35 387.36 190.58C387.27 188.48 387.18 186.31 386.97 184.32C386.68 181.43 386.31 178.51 385.97 175.68C385.49 171.86 384.48 161.7 384.48 161.7C383.74 152.23 383.32 147.01 377.49 142.97C375.91 141.87 371.62 141.83 371.16 141.79C367.75 141.41 364.31 141.58 360.96 142.31C360.1 142.54 356.09 145.12 355.27 145.58C352.82 146.93 349.78 148.58 348.9 150.38C346.96 154.24 346.9 163.09 348.81 174.07C349.04 175.42 352.17 183.86 353.51 187.46C353.51 187.46 357.06 198.03 358.16 201.84C358.96 204.66 361.45 212.58 361.45 212.58C362.92 216.67 364.14 220.86 365.1 225.1C365.76 228.59 366.61 232.04 367.64 235.44C368.64 238.86 369.64 242.43 370.35 246.21C370.47 246.83 372.35 253.06 372.47 253.96C372.59 254.86 374.1 260.2 374.79 262.12C375.4 263.86 376.05 265.66 376.51 267.28C377.88 272.09 379.67 276.77 381.87 281.27C382.95 283.72 384.18 286.1 385.55 288.4C389.78 294.61 393.19 297.55 401.15 297.51C407.01 297.51 410.2 296.72 412.13 294.91C414.23 292.91 416.11 290.7 417.75 288.31C420.25 284.36 421.98 279.98 422.86 275.39C423.25 272.63 423.34 269.83 423.12 267.05C422.93 264.22 422.98 261.37 423.28 258.54C423.89 253.86 425.05 249.27 426.75 244.86C427.65 242.91 428.43 240.91 429.09 238.87C429.99 235.44 431.86 232.63 433.67 229.88C434.45 228.71 435.19 227.61 435.8 226.51C436.86 224.61 440.73 218 442.8 214.62C443.07 214.21 445.21 210.95 445.48 210.55C447.38 208.24 449.09 205.79 450.62 203.22C451.92 200.61 452.62 198.91 452.62 198.91C452.63 198.88 452.76 198.67 452.78 198.64C453.21 197.78 454.47 194.74 454.97 193.21C455.42 191.66 455.98 190.15 456.65 188.68C457.03 187.9 461.15 183.93 461.83 182.22C462.16 181.38 465.34 176.07 465.96 174.42C467.35 170.77 471.01 165.52 471.43 164.52C472.43 162 473.78 158.87 476.02 156.48C477.44 154.63 478.72 152.68 479.85 150.65C480.12 150.22 480.37 149.8 480.62 149.39C480.96 148.72 483.63 143.39 483.96 142.73C484.63 141.39 490.95 133.74 492.63 132.05C494.31 130.36 495.63 128.05 496.97 126.37C498.32 124.7 499.3 124.05 501.64 121.29C503.98 118.53 503.64 117.38 505.97 116.04C508.31 114.7 510.31 112.7 515.31 110.36C520.32 108.03 527.99 104.03 536.66 86.39C545.33 68.75 525.45 53.72 517.12 54.12C511.85 54.37 505.77 56.45 504.14 57.78ZM377.98 74.48C375.45 75.21 371.74 77.82 370.09 79.1C369.39 79.65 364.4 82.99 363.37 84.35C362.82 85.07 360.18 89.18 358.21 90.89C356.5 92.38 351.97 93.88 349.56 95.57C347.58 95.93 345.62 96.4 343.68 96.97C342.41 97.45 337.37 100.09 336.26 100.47C335.53 100.72 332 101.7 330.88 102.12C330.05 102.43 327.78 103.89 327.45 103.99C325.17 104.58 322.79 104.7 320.46 104.35C319.46 104.12 312.36 100.09 306.84 101.01C304.75 101.31 302.78 102.18 301.15 103.52C299.64 103.91 297.41 104.97 296.76 106.27C296.1 107.57 294.99 107.48 294.25 108.81C293.12 111.05 292.31 113.44 291.84 115.91C291.6 118.44 292.25 120.59 292.64 122.71C293.76 128.78 291.78 131.22 287.86 133.26C286.96 133.73 283.86 135.96 283.12 136.32C282.02 136.82 277.66 138.32 276.59 138.89C272.4 141.27 268.6 142.68 267.68 143.53C264.56 146.3 261.16 148.72 257.54 150.78C255.46 152.08 251.92 154.09 247.44 156.6C244.74 158.1 240.71 161.64 240.01 162.1C239.31 162.56 235.44 164.44 234.37 165.16C233.67 165.62 230.28 168.16 229.23 168.73C226.72 169.95 224.08 170.9 221.36 171.54C216.62 172.89 211.72 174.28 208.6 177.77C203.83 183.05 201.83 191.24 204.23 197.6C206.24 202.56 210.08 206.56 214.95 208.76C219.27 210.55 226.39 210.1 229.67 207.66C231.77 206.08 232.89 203.67 233.87 201.55C234.72 199.62 235.9 197.85 237.35 196.33C239.35 194.41 242.35 189.33 243.23 188.45C245.39 186.42 247.85 184.74 250.53 183.46C254.61 181.31 258.36 178.57 261.66 175.34C262.81 174.1 264.1 173 265.49 172.04C269.14 170.09 272.62 167.85 275.9 165.32C277.43 164.17 281.96 162.02 284.37 160.74C286.78 159.47 289.78 156.88 290.9 156.36C292.39 155.67 294.97 155.62 295.9 156.26C296.82 156.9 299.21 160.26 300.72 177.78C300.8 178.63 300.87 185.67 300.89 186.77C300.89 188.54 301.57 194.28 301.53 194.83C301.38 198.55 301.48 202.28 301.81 205.99C301.69 208.33 301.81 210.67 302.17 212.99C302.48 216.15 302.48 219.33 302.17 222.49C302.04 224.34 302.04 226.2 302.17 228.05C302.13 231.41 301.92 234.77 301.53 238.11C301.53 238.92 301.44 244.19 301.17 246.17C301.11 246.57 300.34 249.57 300.26 250.54C300.04 252.88 301.17 259.84 301.01 261.31C300.7 263.43 300.19 265.52 299.51 267.55C298.38 271.31 297.11 275.54 297.75 280.64C298.13 283.83 298.84 286.97 299.88 290.01C299.94 290.16 301.05 294.6 301.45 296.67C301.45 296.67 302.98 301.71 303.45 304.8C303.65 307.11 303.68 309.43 303.53 311.74C303.53 313.45 304.78 318.86 304.89 319.68C304.96 320.26 304.59 323.92 304.8 325.27C305.26 328.2 306.39 333.65 309.68 335.64C313.68 338.08 317.3 337.86 319.67 338.58C325.08 340.01 330.81 339.75 336.07 337.83C337.44 337.29 338.64 336.36 339.51 335.17C340.28 333.96 341.94 332.98 343.03 331.32C344.3 329.37 346.1 321.68 347.29 318.44C348.55 315.01 347.15 308.3 346.29 305.51C346 304.63 342.89 297.28 342.12 295.6C341.35 293.92 340.77 286.73 340.49 285.15C340.3 284.1 339.01 279.38 338.86 278.46C338.74 277.75 339 273.71 338.8 272.47C337.8 266.36 338.52 260.26 339.21 254.36C339.21 254.36 339.08 248.51 339.21 247.65C339.56 244.28 339.69 240.43 339.82 236.73C339.91 234.22 339.99 231.85 340.13 229.8C340.21 228.63 339.44 225.48 339.91 222.89C340.08 221.9 339.26 217.75 339.21 217.27C338.95 215 339.91 205.02 339.68 202.4C339.59 201.4 338.46 195.76 338.01 190.6C338.01 190.6 337.76 184.1 337.9 182.21C338.06 179.74 337.67 173.6 337.73 168.02C337.73 166.18 337.09 154.93 336.92 153.7C336.49 150.36 336.47 146.98 336.84 143.64C337.58 137.94 337.01 136.89 337.7 132.85C338.36 129 344.92 126.22 345.46 126.1C346.95 125.76 352.07 124.71 353.35 123.59C355.9 121.54 358.87 120.06 362.05 119.27C364.79 118.46 366.28 116.34 367.18 115.84C368.38 115.18 372.09 112.84 373.18 112.31C374.27 111.78 375.59 109.86 378.28 109.15C379.63 108.79 381.65 107.35 383.64 106.68C385.06 106.21 387.39 105.54 387.87 105.25C392.65 102.25 398.95 93.91 397.29 85.48C396.75 82.77 394.6 80.79 393.29 78.85C390.73 74.96 387.3 74.8 384.9 74.85C383.28 74.85 380.87 74.46 379.26 74.4C378.73 74.38 378.28 74.4 377.98 74.48Z"/>
	<path style="opacity:1;fill:#82beff;fill-opacity:1;stroke:#a1f6ff;stroke-width:1.59;stroke-opacity:1"
		d="M494.35 57.78C492.71 59.11 490.68 60.45 489.68 61.78C488.68 63.11 485.01 66.11 483.69 67.77C481.22 70.18 478.93 72.77 476.83 75.51C474.46 78.96 472.37 82.59 470.56 86.37C468.77 88.19 465.75 91.25 465.29 91.87C464.18 93.33 456.89 103.11 455.93 104.12C454.97 105.13 451.76 109.34 450.63 111C449.5 112.67 448.47 114.18 447.53 115.55C447.63 115.42 448.12 114.8 449 113.68C447.07 116.27 446 117.72 445.78 118C445.78 118 440.39 125.28 439.65 126C438.91 126.71 435.66 130.08 435.66 130.08C433.97 132.84 431.92 136.33 431.23 137.65C431.08 137.93 428.23 144.84 425.68 147.9C423.77 150.16 422.81 154.2 422.34 156.15C421.83 157.7 421.2 159.22 420.46 160.67C419.51 162.52 417.28 167.48 417.28 167.48C417.28 167.48 411.49 176.52 411.28 176.97C410.49 178.36 409.18 180.19 407.77 182.14C406.36 184.09 404.05 187.29 403.77 188.23C403.11 191.07 401.85 193.73 400.08 196.04C399.62 196.6 399.25 197.21 398.97 197.87C397.76 204.39 394.6 210.03 391.12 211.86C389.76 212.66 388.11 212.78 386.65 212.2C381.57 210.05 380.32 205.93 379.01 201.57C379.01 201.57 377.74 194.35 377.57 190.58C377.48 188.48 377.39 186.31 377.18 184.32C376.89 181.43 376.52 178.51 376.18 175.68C375.7 171.86 374.7 161.7 374.7 161.7C373.95 152.23 373.53 147.01 367.7 142.97C366.13 141.87 361.83 141.83 361.37 141.79C357.97 141.41 354.52 141.58 351.17 142.31C350.31 142.54 346.3 145.12 345.48 145.58C343.03 146.93 340 148.58 339.11 150.38C337.17 154.24 337.11 163.09 339.02 174.07C339.25 175.42 342.38 183.86 343.72 187.46C343.72 187.46 347.28 198.03 348.38 201.84C349.17 204.66 351.66 212.58 351.66 212.58C353.13 216.67 354.35 220.86 355.31 225.1C355.97 228.59 356.82 232.04 357.85 235.44C358.85 238.86 359.85 242.43 360.56 246.21C360.68 246.83 362.56 253.06 362.68 253.96C362.8 254.86 364.31 260.2 365 262.12C365.62 263.86 366.27 265.66 366.73 267.28C368.09 272.09 369.89 276.77 372.08 281.27C373.16 283.72 374.39 286.1 375.76 288.4C379.99 294.61 383.41 297.55 391.36 297.51C397.22 297.51 400.41 296.72 402.34 294.91C404.44 292.91 406.32 290.7 407.96 288.31C410.46 284.36 412.19 279.98 413.07 275.39C413.47 272.63 413.55 269.83 413.33 267.05C413.14 264.22 413.19 261.37 413.49 258.54C414.1 253.86 415.26 249.27 416.96 244.86C417.86 242.91 418.65 240.91 419.3 238.87C420.2 235.44 422.07 232.63 423.88 229.88C424.66 228.71 425.4 227.61 426.02 226.51C427.08 224.61 430.94 218 433.01 214.62C433.28 214.21 435.43 210.95 435.69 210.55C437.59 208.24 439.31 205.79 440.83 203.22C442.13 200.61 442.83 198.91 442.83 198.91C442.84 198.88 442.97 198.67 442.99 198.64C443.42 197.78 444.68 194.74 445.18 193.21C445.63 191.66 446.19 190.15 446.86 188.68C447.24 187.9 451.36 183.93 452.04 182.22C452.37 181.38 455.55 176.07 456.17 174.42C457.56 170.77 461.23 165.52 461.65 164.52C462.64 162 463.99 158.87 466.23 156.48C467.65 154.63 468.93 152.68 470.07 150.65C470.34 150.22 470.59 149.8 470.84 149.39C471.17 148.72 473.84 143.39 474.17 142.73C474.84 141.39 481.16 133.74 482.84 132.05C484.52 130.36 485.84 128.05 487.19 126.37C488.53 124.7 489.51 124.05 491.85 121.29C494.19 118.53 493.85 117.38 496.19 116.04C498.52 114.7 500.52 112.7 505.52 110.36C510.53 108.03 518.2 104.03 526.87 86.39C535.54 68.75 515.66 53.72 507.33 54.12C502.06 54.37 495.99 56.45 494.35 57.78ZM368.19 74.48C365.67 75.21 361.95 77.82 360.3 79.1C359.6 79.65 354.61 82.99 353.58 84.35C353.03 85.07 350.39 89.18 348.43 90.89C346.71 92.38 342.18 93.88 339.78 95.57C337.79 95.93 335.83 96.4 333.89 96.97C332.62 97.45 327.58 100.09 326.47 100.47C325.74 100.72 322.21 101.7 321.09 102.12C320.26 102.43 317.99 103.89 317.66 103.99C315.38 104.58 313 104.7 310.67 104.35C309.67 104.12 302.57 100.09 297.06 101.01C294.96 101.31 292.99 102.18 291.36 103.52C289.85 103.91 287.63 104.97 286.97 106.27C286.31 107.57 285.2 107.48 284.46 108.81C283.33 111.05 282.52 113.44 282.05 115.91C281.81 118.44 282.46 120.59 282.85 122.71C283.97 128.78 281.99 131.22 278.07 133.26C277.17 133.73 274.07 135.96 273.33 136.32C272.23 136.82 267.87 138.32 266.8 138.89C262.61 141.27 258.81 142.68 257.89 143.53C254.77 146.3 251.37 148.72 247.75 150.78C245.67 152.08 242.13 154.09 237.65 156.6C234.96 158.1 230.92 161.64 230.22 162.1C229.52 162.56 225.65 164.44 224.58 165.16C223.88 165.62 220.49 168.16 219.44 168.73C216.93 169.95 214.29 170.9 211.57 171.54C206.83 172.89 201.93 174.28 198.81 177.77C194.04 183.05 192.05 191.24 194.44 197.6C196.45 202.56 200.29 206.56 205.16 208.76C209.49 210.55 216.6 210.1 219.88 207.66C221.98 206.08 223.1 203.67 224.08 201.55C224.93 199.62 226.11 197.85 227.56 196.33C229.56 194.41 232.56 189.33 233.44 188.45C235.6 186.42 238.06 184.74 240.74 183.46C244.82 181.31 248.57 178.57 251.87 175.34C253.02 174.1 254.31 173 255.7 172.04C259.35 170.09 262.83 167.85 266.11 165.32C267.64 164.17 272.17 162.02 274.58 160.74C276.99 159.47 279.99 156.88 281.11 156.36C282.6 155.67 285.18 155.62 286.11 156.26C287.04 156.9 289.42 160.26 290.93 177.78C291.01 178.63 291.08 185.67 291.1 186.77C291.1 188.54 291.78 194.28 291.74 194.83C291.59 198.55 291.69 202.28 292.02 205.99C291.9 208.33 292.02 210.67 292.38 212.99C292.69 216.15 292.69 219.33 292.38 222.49C292.26 224.34 292.26 226.2 292.38 228.05C292.35 231.41 292.13 234.77 291.74 238.11C291.74 238.92 291.65 244.19 291.38 246.17C291.32 246.57 290.55 249.57 290.47 250.54C290.25 252.88 291.38 259.84 291.22 261.31C290.91 263.43 290.41 265.52 289.72 267.55C288.6 271.31 287.32 275.54 287.97 280.64C288.34 283.83 289.05 286.97 290.09 290.01C290.15 290.16 291.26 294.6 291.66 296.67C291.66 296.67 293.19 301.71 293.66 304.8C293.87 307.11 293.89 309.43 293.74 311.74C293.74 313.45 294.99 318.86 295.1 319.68C295.17 320.26 294.8 323.92 295.01 325.27C295.48 328.2 296.61 333.65 299.89 335.64C303.89 338.08 307.51 337.86 309.88 338.58C315.3 340.01 321.02 339.75 326.28 337.83C327.66 337.29 328.85 336.36 329.72 335.17C330.5 333.96 332.16 332.98 333.24 331.32C334.51 329.37 336.31 321.68 337.5 318.44C338.76 315.01 337.36 308.3 336.5 305.51C336.21 304.63 333.1 297.28 332.34 295.6C331.57 293.92 330.99 286.73 330.71 285.15C330.52 284.1 329.22 279.38 329.07 278.46C328.95 277.75 329.21 273.71 329.01 272.47C328.01 266.36 328.73 260.26 329.42 254.36C329.42 254.36 329.29 248.51 329.42 247.65C329.77 244.28 329.9 240.43 330.03 236.73C330.12 234.22 330.2 231.85 330.34 229.8C330.42 228.63 329.65 225.48 330.12 222.89C330.29 221.9 329.47 217.75 329.42 217.27C329.16 215 330.13 205.02 329.9 202.4C329.8 201.4 328.67 195.76 328.22 190.6C328.22 190.6 327.97 184.1 328.11 182.21C328.27 179.74 327.88 173.6 327.94 168.02C327.94 166.18 327.3 154.93 327.13 153.7C326.7 150.36 326.68 146.98 327.05 143.64C327.79 137.94 327.22 136.89 327.91 132.85C328.57 129 335.13 126.22 335.67 126.1C337.16 125.76 342.28 124.71 343.56 123.59C346.11 121.54 349.08 120.06 352.26 119.27C355 118.46 356.49 116.34 357.4 115.84C358.59 115.18 362.3 112.84 363.39 112.31C364.48 111.78 365.81 109.86 368.49 109.15C369.84 108.79 371.86 107.35 373.86 106.68C375.27 106.21 377.6 105.54 378.08 105.25C382.87 102.25 389.16 93.91 387.5 85.48C386.96 82.77 384.81 80.79 383.5 78.85C380.94 74.96 377.51 74.8 375.12 74.85C373.49 74.85 371.08 74.46 369.47 74.4C368.94 74.38 368.49 74.4 368.19 74.48Z"/>
	<path style="opacity:1;fill:#ffffff;fill-opacity:1;stroke:#fe6ecb;stroke-width:5.6;stroke-opacity:1"
		d="M2.99 461.47L473.45 461.47L473.45 693.2L2.99 693.2L2.99 461.47Z"/>
	<path style="opacity:1;fill:#12fefe;fill-opacity:1"
		d="M290.17 609.51C289.04 604.09 290.51 603.31 301.81 603.31C302.47 603.31 305.77 603.31 311.71 603.31C312.96 605.43 313.65 606.6 313.79 606.84C314.94 608.78 317.15 611.03 318.7 611.83C327.09 616.17 339.26 610.01 333.95 604.12C331.58 601.49 329.95 600.9 316.8 597.94C310.8 596.59 304.1 594.57 301.93 593.46C296.08 590.48 291.92 585.25 291.12 579.88C288.57 562.93 300.99 552.99 324.62 553.05C343.27 553.09 355.04 559.57 357.17 570.97C358.22 576.54 356.77 577.34 345.5 577.34C344.85 577.34 341.57 577.34 335.66 577.34C334.72 575.51 334.19 574.5 334.09 574.3C333.23 572.63 331.39 570.83 330 570.3C323.73 567.91 316.22 570.41 316.83 574.69C317.26 577.72 322.38 579.93 334.64 582.36C340.39 583.51 347.02 585.36 349.37 586.48C364.79 593.86 363.64 617.1 347.45 625.36C338.97 629.68 324.56 631.31 313.64 629.18C300.74 626.67 292.27 619.57 290.17 609.51ZM115.89 592.19C116.95 587.76 118.18 585.84 122.93 581.18C123.32 580.81 125.24 578.93 128.69 575.54C127.18 574.13 126.34 573.35 126.18 573.19C121.52 568.85 119.42 563.49 119.39 555.86C119.36 549.96 119.8 548.12 122.17 544.08C125.78 537.94 131.47 533.86 140.06 531.25C150.01 528.23 166.93 528.84 174.8 532.51C185.19 537.35 190.32 543.72 191.44 553.18C192.18 559.44 190.45 565.31 186.25 570.81C184.35 573.31 182.79 575.62 182.79 575.94C182.79 576.27 185.03 578.55 187.78 581.02C191.74 584.58 193.11 586.66 194.39 591.09C196.52 598.39 195.74 605.75 192.15 612.35C186.35 623 175.1 628.35 157.32 628.89C149.97 629.12 144.43 628.75 140.59 627.78C121.1 622.85 111.77 609.41 115.89 592.19ZM170.39 596.46C169.65 591.46 167.16 588.37 162.09 586.13C148.99 580.33 134.85 592.63 141.71 603.87C145.44 609.99 156.54 612.3 163.82 608.47C168.23 606.15 171.07 600.96 170.39 596.46ZM169.25 555.99C166.52 545.14 144.13 545.06 141.41 555.9C140.51 559.49 143.35 564.86 147.15 566.74C151.25 568.76 159.11 568.78 163.33 566.77C167.21 564.93 170.15 559.58 169.25 555.99ZM209.75 609.55C201.6 593.78 201.65 564.26 209.86 548.17C212.85 542.31 219.46 535.58 225.2 532.55C229.84 530.1 231.17 529.89 242.22 529.89C252.96 529.89 254.72 530.15 259.2 532.36C273.65 539.52 281.67 556.29 281.67 579.33C281.67 602.88 273.63 618.97 258.43 625.84C250.23 629.55 237.85 630.26 230.05 627.48C220.19 623.96 214.69 619.11 209.75 609.55ZM257.52 576.51C257.22 565.16 256.79 562.06 255 558.14C249.66 546.45 235.77 546.45 230.44 558.14C228.67 562.02 228.22 565.19 227.91 576.16C227.36 595.49 229.92 604.12 237.15 607.41C242.15 609.68 242.69 609.69 247.63 607.72C255.4 604.61 258.05 596.25 257.52 576.51Z"/>
</g>
</svg>
