<?xml version="1.0" encoding="UTF-8" standalone="no"?>
<svg
   xmlns:dc="http://purl.org/dc/elements/1.1/"
   xmlns:cc="http://creativecommons.org/ns#"
   xmlns:rdf="http://www.w3.org/1999/02/22-rdf-syntax-ns#"
   xmlns:svg="http://www.w3.org/2000/svg"
   xmlns="http://www.w3.org/2000/svg"
   xmlns:xlink="http://www.w3.org/1999/xlink"
   xmlns:sodipodi="http://sodipodi.sourceforge.net/DTD/sodipodi-0.dtd"
   xmlns:inkscape="http://www.inkscape.org/namespaces/inkscape"
   width="132"
   height="99"
   viewBox="0 0 34.925 26.193751"
   version="1.1"
   id="svg8"
   inkscape:version="1.0.2 (e86c870879, 2021-01-15, custom)"
   sodipodi:docname="Muzsika_TV.svg">
  <defs
     id="defs2">
    <linearGradient
       inkscape:collect="always"
       id="linearGradient865">
      <stop
         style="stop-color:#c74425;stop-opacity:0.99809524"
         offset="0"
         id="stop861" />
      <stop
         style="stop-color:#f28328;stop-opacity:1"
         offset="1"
         id="stop863" />
    </linearGradient>
    <linearGradient
       inkscape:collect="always"
       id="linearGradient853">
      <stop
         style="stop-color:#3c3c3c;stop-opacity:0.88235295"
         offset="0"
         id="stop849" />
      <stop
         style="stop-color:#0a0a0b;stop-opacity:0.90980393"
         offset="1"
         id="stop851" />
    </linearGradient>
    <linearGradient
       inkscape:collect="always"
       xlink:href="#linearGradient853"
       id="linearGradient855"
       x1="54.969688"
       y1="3.8415668"
       x2="54.525333"
       y2="22.944674"
       gradientUnits="userSpaceOnUse"
       gradientTransform="translate(-4.1629868e-6)" />
    <linearGradient
       inkscape:collect="always"
       xlink:href="#linearGradient865"
       id="linearGradient867"
       x1="97.540855"
       y1="15.241596"
       x2="113.01474"
       y2="15.430584"
       gradientUnits="userSpaceOnUse"
       spreadMethod="reflect" />
  </defs>
  <sodipodi:namedview
     id="base"
     pagecolor="#ffffff"
     bordercolor="#666666"
     borderopacity="1.0"
     inkscape:pageopacity="0.0"
     inkscape:pageshadow="2"
     inkscape:zoom="2"
     inkscape:cx="335.43553"
     inkscape:cy="40.698083"
     inkscape:document-units="px"
     inkscape:current-layer="svg8"
     inkscape:document-rotation="0"
     showgrid="false"
     units="px"
     showguides="false"
     inkscape:window-width="1920"
     inkscape:window-height="1001"
     inkscape:window-x="-9"
     inkscape:window-y="-9"
     inkscape:window-maximized="1" />
  <metadata
     id="metadata5">
    <rdf:RDF>
      <cc:Work
         rdf:about="">
        <dc:format>image/svg+xml</dc:format>
        <dc:type
           rdf:resource="http://purl.org/dc/dcmitype/StillImage" />
        <dc:title></dc:title>
      </cc:Work>
    </rdf:RDF>
  </metadata>
  <g
     inkscape:label="Vrstva 1"
     id="layer1"
     transform="matrix(0.27313666,0,0,0.27313666,0.13331178,8.9338367)">
    <path
       style="display:inline;fill:url(#linearGradient855);fill-opacity:1;stroke-width:0.0846667"
       d="m 33.146996,23.056486 c -0.500391,-0.112065 -1.31588,-0.422198 -1.690489,-0.642897 -1.165744,-0.686792 -1.814428,-1.60506 -2.166774,-3.067253 -0.152422,-0.632531 -0.163256,-1.037149 -0.16381,-6.117166 l -5.94e-4,-5.4398338 h 0.832948 0.832948 l 0.05592,2.9844998 c 0.03076,1.641475 0.05643,4.03225 0.05706,5.312834 8.55e-4,1.746698 0.03136,2.44189 0.122126,2.782912 0.49138,1.846189 1.858225,2.829754 3.940999,2.835897 0.527276,0.0016 0.979318,-0.04917 1.312334,-0.147249 1.391866,-0.409945 2.615577,-1.570558 3.448015,-3.270227 l 0.228067,-0.465667 0.02463,-4.995333 0.02463,-4.9953328 0.854187,-0.02398 0.854186,-0.02398 0.05598,2.175545 c 0.03079,1.1965498 0.05598,4.6077648 0.05598,7.5804778 v 5.404933 h -0.762 -0.762 l -0.0027,-0.232834 c -0.0015,-0.128058 -0.02472,-0.823383 -0.05165,-1.545166 -0.04505,-1.207534 -0.08757,-1.536564 -0.169394,-1.310892 -0.102024,0.28137 -0.814913,1.248806 -1.214031,1.647519 -0.608677,0.608057 -1.137926,0.952125 -1.982569,1.288876 -0.6712,0.267602 -0.717038,0.27381 -2.125328,0.287869 -0.791634,0.0079 -1.515534,-0.0027 -1.608667,-0.02356 z m 26.035,-0.003 c -0.920369,-0.155221 -2.28285,-0.652913 -2.963304,-1.082464 l -0.338696,-0.21381 v -0.801563 -0.801564 l 0.57784,0.373803 c 0.911517,0.589657 1.972413,0.996777 3.09363,1.187183 0.619393,0.105185 2.361953,0.05621 2.890197,-0.08122 2.007186,-0.522227 2.909592,-1.882866 2.247113,-3.388176 -0.353689,-0.803666 -1.265568,-1.39817 -3.62348,-2.362343 -2.687428,-1.098916 -3.678694,-1.787937 -4.276157,-2.972325 -0.199054,-0.394597 -0.409704,-1.360287 -0.359995,-1.650332 0.01197,-0.06985 0.04926,-0.3161 0.08287,-0.547222 0.183347,-1.2608888 1.256337,-2.3524398 2.796982,-2.8453688 1.650822,-0.528181 4.108264,-0.362419 6.007773,0.405243 l 0.583158,0.235676 -0.02098,0.634289 c -0.01154,0.348858 -0.03473,0.648043 -0.05154,0.664855 -0.01682,0.01681 -0.247495,-0.06874 -0.512623,-0.190123 -1.663205,-0.6700628 -4.365244,-0.9323767 -5.627245,-0.381856 -1.069255,0.507986 -1.504035,1.1900368 -1.411987,2.2150208 0.100401,1.118004 0.889651,1.797536 3.07109,2.644159 2.64012,1.024638 3.447616,1.44271 4.177124,2.162658 1.607304,1.586241 1.579036,4.059633 -0.06298,5.510322 -0.539491,0.47663 -1.115857,0.797166 -1.918462,1.066917 -0.640423,0.215242 -0.771917,0.228363 -2.413,0.240774 -0.954616,0.0072 -1.830916,-0.0029 -1.947333,-0.02257 z m 27.389667,-0.02053 c -1.670753,-0.360493 -2.940469,-1.511295 -3.366922,-3.051596 -0.583203,-2.106472 0.218774,-3.829194 2.318918,-4.981252 1.10948,-0.60862 2.375018,-0.901215 4.436516,-1.025736 0.790617,-0.04776 1.799438,-0.108804 2.241821,-0.135664 1.280109,-0.07772 1.18557,-0.01202 1.18386,-0.822794 -0.0036,-1.681652 -0.505765,-2.714296 -1.683503,-3.4615808 -0.704706,-0.447163 -1.351628,-0.592463 -2.633024,-0.59141 -1.65089,0.0014 -3.040236,0.260723 -4.220057,0.787814 -0.295384,0.131963 -0.554043,0.239933 -0.574798,0.239933 -0.02076,0 -0.02673,-0.333375 -0.01327,-0.740834 l 0.02446,-0.740833 0.677333,-0.228084 c 1.684917,-0.567376 3.775024,-0.838004 5.233501,-0.677637 2.591215,0.284918 4.357023,1.632382 4.792878,3.6573878 0.04733,0.219885 0.08842,2.761919 0.09716,6.011333 l 0.01516,5.630333 -0.717651,0.02428 -0.717652,0.02428 -0.05427,-0.574614 c -0.02985,-0.316037 -0.05453,-0.812738 -0.05486,-1.10378 0,-0.291042 -0.03097,-0.529167 -0.06809,-0.529167 -0.03711,0 -0.218085,0.155984 -0.402167,0.346632 -0.685478,0.709958 -1.731865,1.346662 -2.874679,1.749187 -0.514968,0.181384 -0.770255,0.212558 -1.947333,0.2378 -0.745067,0.01598 -1.507067,-0.0038 -1.693333,-0.04402 z m 3.095379,-1.45386 c 1.47889,-0.373053 2.774992,-1.169899 3.480164,-2.139606 l 0.240123,-0.330203 v -2.070763 -2.070763 l -0.867833,0.05559 c -3.625156,0.23221 -4.423224,0.334626 -5.362524,0.688178 -1.025288,0.385918 -1.757325,0.976778 -2.172293,1.753352 -0.164016,0.306943 -0.190686,0.483157 -0.188688,1.246479 0.002,0.793433 0.02631,0.934924 0.225493,1.316198 0.250596,0.47972 0.816042,1.082818 1.206474,1.28681 0.914383,0.477756 2.20174,0.576851 3.439084,0.264728 z M 43.56233,22.688113 c 0.07298,-0.141119 0.441091,-0.779294 0.818034,-1.418167 0.376942,-0.638871 1.017618,-1.733086 1.423724,-2.431586 0.406105,-0.6985 1.605972,-2.7559 2.66637,-4.572 1.060398,-1.8161 1.994335,-3.4163 2.075417,-3.556 0.08108,-0.1397 0.303212,-0.5207 0.493623,-0.8466658 l 0.346203,-0.592691 -3.637186,-0.02207 -3.637186,-0.02207 v -0.718759 -0.718768 h 4.995334 c 2.747433,0 4.995333,0.01788 4.995333,0.03974 0,0.02186 -0.186071,0.35523 -0.413492,0.740833 -0.227419,0.385604 -0.489439,0.834448 -0.582265,0.997431 -0.09282,0.162984 -0.5016,0.8678338 -0.908389,1.5663338 -1.492654,2.563054 -3.790734,6.525776 -4.910026,8.466666 -0.456528,0.791634 -0.88175,1.514486 -0.944939,1.60634 -0.06319,0.09185 -0.114889,0.196627 -0.114889,0.232833 0,0.0362 1.8669,0.06583 4.148667,0.06583 h 4.148666 v 0.719664 0.719667 h -5.547841 -5.54784 z m 24.961572,-1.965919 c 0.03066,-1.222375 0.05583,-4.632325 0.05592,-7.577667 l 1.74e-4,-5.3551908 h 0.889 0.889 v 7.5776668 7.577667 h -0.944921 -0.944921 z m 3.802244,-7.704691 0.02152,-9.9271668 0.867833,-0.02413 0.867833,-0.02413 v 5.971962 c 0,4.7233678 0.02213,5.9710828 0.105834,5.9677568 0.05821,-0.0023 0.524933,-0.54306 1.037166,-1.20166 1.706086,-2.193586 2.765546,-3.545903 4.013539,-5.1229678 l 0.686751,-0.867834 h 0.888355 c 0.488596,0 0.888355,0.01826 0.888355,0.04057 0,0.04392 -0.474483,0.653223 -3.620202,4.6488638 -1.132361,1.438308 -2.047786,2.648262 -2.034279,2.688786 0.01351,0.04052 1.529417,1.755036 3.368688,3.810027 1.83927,2.05499 3.374595,3.788262 3.411834,3.851714 0.0556,0.09474 -0.110969,0.114977 -0.931334,0.113177 l -0.99904,-0.0022 -0.811475,-0.907975 c -0.446311,-0.499387 -1.943864,-2.174801 -3.327894,-3.723142 -1.384032,-1.548342 -2.552393,-2.815167 -2.596359,-2.815167 -0.04893,0 -0.07994,1.445115 -0.07994,3.725333 v 3.725334 h -0.889349 -0.88935 z m -68.9393412,4.953 c 7.8e-5,-2.642658 0.02528,-6.033558 0.05602,-7.535333 l 0.05587,-2.7304998 h 0.705984 0.705983 v 0.494707 c 0,0.843573 0.108042,2.5534248 0.161178,2.5507748 0.02777,-0.0014 0.183839,-0.238082 0.346822,-0.525993 0.162984,-0.2879108 0.589499,-0.8180678 0.947811,-1.1781258 0.510138,-0.512622 0.804036,-0.727801 1.354667,-0.99182 1.001074,-0.48 1.320384,-0.547943 2.6081892,-0.554972 1.344448,-0.0073 1.736068,0.04678 2.456285,0.33943 1.193358,0.484905 2.020993,1.242516 2.512765,2.3001648 0.156976,0.337609 0.316213,0.613834 0.353858,0.613834 0.03765,0 0.226511,-0.246187 0.4197,-0.547083 0.751178,-1.1699738 1.818122,-1.9967338 3.189726,-2.4716728 0.630191,-0.218213 0.771617,-0.234555 2.032,-0.234798 1.275529,-2.46e-4 1.394234,0.01386 2.032,0.241407 1.333859,0.475914 2.275484,1.2938 2.834265,2.4618128 0.634665,1.326635 0.618217,1.147236 0.657896,7.1755 l 0.03553,5.3975 h -0.93193 -0.931928 l 0.01475,-5.1435 c 0.01608,-5.607191 0.0095,-5.702843 -0.462274,-6.691297 -0.511827,-1.0724358 -1.62407,-1.8962878 -2.715138,-2.0111328 -0.246677,-0.02597 -0.537041,-0.06593 -0.645252,-0.08882 -0.108212,-0.02289 -0.508262,5.08e-4 -0.889,0.05197 -1.667999,0.225477 -3.080976,1.4042408 -4.005781,3.3417848 l -0.242472,0.508 -0.02312,5.0165 -0.02312,5.0165 h -0.887045 -0.887048 v -5.041236 c 0,-5.588599 -0.02162,-5.867687 -0.533405,-6.884954 -0.747232,-1.4852688 -2.460649,-2.2520718 -4.3165832,-1.9317948 -1.63271,0.281755 -2.902334,1.3421258 -3.813419,3.1849098 l -0.353593,0.715187 0.02196,4.978944 0.02195,4.978943 h -0.932121 -0.932122 l 1.44e-4,-4.804833 z M 68.579996,3.9370032 v -0.804333 h 0.889 0.889 v 0.804333 0.804333 h -0.889 -0.889 z"
       id="path24"
       sodipodi:nodetypes="ssssccccssccscccccssccccssssssscscccsscsssscsscssccsssssccccsssscssssscsssscccscscssccsscccssscssssssssccccccssssssssscccccssscccccccsccccsssscssssssscssssccccsscccscssssssssssssscccscsscscccccssssccccccsccccccccc" />
    <path
       style="display:inline;fill:url(#linearGradient867);fill-opacity:1;stroke:none;stroke-width:0.264583px;stroke-linecap:butt;stroke-linejoin:miter;stroke-opacity:1"
       d="M 97.540852,20.458648 105.25456,2.2265161 123.50358,9.9891987 115.77293,28.256675 Z"
       id="path859" />
    <path
       style="fill:#ffffff;stroke-width:0.0846667"
       d="m 115.21264,22.4155 c 0.0477,-0.05821 1.19909,-2.620433 2.55867,-5.693833 1.35958,-3.0734 2.48952,-5.616575 2.51098,-5.6515 0.0215,-0.03492 -0.67922,-0.0635 -1.55709,-0.0635 h -1.59611 l -1.30017,3.221645 c -0.71509,1.771906 -1.32831,3.191131 -1.3627,3.153833 -0.0344,-0.0373 -0.64785,-1.486218 -1.36322,-3.219825 l -1.30067,-3.152014 -2.20133,-0.02299 -2.20133,-0.02299 -0.0231,-1.502833 c -0.018,-1.1729751 -0.0475,-1.5028333 -0.13434,-1.5028333 -0.0612,0 -1.09853,1.0525887 -2.30522,2.3390873 -1.86356,1.98681 -2.19793,2.382095 -2.22026,2.624666 l -0.0263,0.28558 h 0.84542 0.84543 l 0.0329,3.153833 c 0.0276,2.644814 0.0555,3.222159 0.17301,3.577167 0.34624,1.046317 1.10526,1.874093 2.06365,2.250601 0.40687,0.159835 0.69982,0.200452 1.64888,0.228609 1.21524,0.03605 1.93726,-0.08831 2.84639,-0.49026 l 0.35983,-0.159095 v -1.147761 c 0,-0.733348 -0.0316,-1.147761 -0.0875,-1.147761 -0.0481,0 -0.27608,0.09557 -0.50658,0.212372 -1.21721,0.616805 -2.41117,0.607881 -3.06976,-0.02294 -0.43588,-0.417491 -0.48485,-0.797367 -0.48485,-3.760795 V 13.208 h 1.09031 c 0.7725,0 1.11395,0.03085 1.17145,0.105833 0.0654,0.08522 1.50316,3.260933 3.90993,8.636 l 0.2559,0.5715 h 0.6705 c 0.43372,0 0.70114,-0.03737 0.75722,-0.105833 z"
       id="path899"
       sodipodi:nodetypes="cscscsssccccssscccscssscssssscscscscc" />
  </g>
</svg>
