<?xml version="1.0" encoding="UTF-8" standalone="no"?>
<svg
   xmlns:dc="http://purl.org/dc/elements/1.1/"
   xmlns:cc="http://creativecommons.org/ns#"
   xmlns:rdf="http://www.w3.org/1999/02/22-rdf-syntax-ns#"
   xmlns:svg="http://www.w3.org/2000/svg"
   xmlns="http://www.w3.org/2000/svg"
   xmlns:sodipodi="http://sodipodi.sourceforge.net/DTD/sodipodi-0.dtd"
   xmlns:inkscape="http://www.inkscape.org/namespaces/inkscape"
   version="1.1"
   id="Layer_1"
   x="0px"
   y="0px"
   width="132"
   height="99"
   viewBox="0 0 132 99.000001"
   enable-background="new 0 0 1000 509.137"
   xml:space="preserve"
   sodipodi:docname="Mňam_TV.svg"
   inkscape:version="1.0.2 (e86c870879, 2021-01-15, custom)"><metadata
   id="metadata27"><rdf:RDF><cc:Work
       rdf:about=""><dc:format>image/svg+xml</dc:format><dc:type
         rdf:resource="http://purl.org/dc/dcmitype/StillImage" /><dc:title></dc:title></cc:Work></rdf:RDF></metadata><defs
   id="defs25" /><sodipodi:namedview
   pagecolor="#ffffff"
   bordercolor="#666666"
   borderopacity="1"
   objecttolerance="10"
   gridtolerance="10"
   guidetolerance="10"
   inkscape:pageopacity="0"
   inkscape:pageshadow="2"
   inkscape:window-width="1920"
   inkscape:window-height="1001"
   id="namedview23"
   showgrid="false"
   inkscape:zoom="0.80332016"
   inkscape:cx="-64.897422"
   inkscape:cy="388.76658"
   inkscape:window-x="-9"
   inkscape:window-y="-9"
   inkscape:window-maximized="1"
   inkscape:current-layer="Layer_1"
   inkscape:document-rotation="0" />

<g
   id="g852"
   transform="matrix(0.12638889,0,0,0.12638889,65.685336,5.4467187)"><path
     style="display:inline;fill:#fd894e"
     d="m -357.51035,-11.446567 h 720 V 708.55343 h -720 z"
     id="path854"
     sodipodi:nodetypes="ccccc" /><path
     style="display:inline;fill:#fdfcfb"
     d="m -18.51035,644.96133 c -48.65685,-4.18106 -90.82441,-17.51662 -131.26527,-41.51287 -22.14262,-13.13868 -41.32135,-28.49943 -61.33177,-49.12225 -45.07914,-46.45873 -73.26741,-106.16307 -80.89046,-171.33057 -1.95409,-16.70497 -1.977,-50.99973 -0.0451,-67.44834 8.1523,-69.40895 38.48658,-130.85495 88.5404,-179.35001 37.88909,-36.709157 83.94603,-62.326116 134.2972,-74.696361 91.24415,-22.416807 186.29182,-1.174161 259.14271,57.917011 18.30275,14.84582 43.55225,41.5866 43.55225,46.12453 0,3.98298 -2.23211,6.34429 -5.99714,6.34429 -2.74799,0 -4.01224,-0.87888 -7.7917,-5.41666 -7.97644,-9.57686 -31.42415,-32.25441 -41.21116,-39.85753 -32.20043,-25.01519 -70.57455,-43.805864 -108.5,-53.129253 -24.07719,-5.919006 -37.14172,-7.33957 -67.5,-7.33957 -23.41907,0 -29.57756,0.32634 -41.5,2.199096 -50.98764,8.009052 -95.69112,27.47049 -135.5,58.989257 -11.54819,9.1433 -35.10613,32.61676 -44.38049,44.22133 -27.91443,34.92802 -47.98825,77.8378 -56.60555,121 -4.39137,21.9954 -5.39466,32.46468 -5.41447,56.5 -0.0191,23.15376 0.95072,33.72941 5.02981,54.84977 20.51698,106.23109 103.08741,193.64993 207.8707,220.07657 41.34503,10.42734 86.97576,11.4792 128,2.9506 74.16196,-15.41765 137.76625,-58.82756 180.10129,-122.91908 32.89836,-49.80522 49.81453,-113.8067 45.50904,-172.18116 -0.68057,-9.22718 -2.38865,-23.3017 -3.79575,-31.2767 -3.85298,-21.83752 -3.77304,-20.54154 -1.41255,-22.90203 2.6494,-2.6494 6.25563,-2.68623 8.60709,-0.0879 2.21497,2.44751 5.77242,19.85531 8.07014,39.48992 2.25001,19.22693 1.52131,57.23462 -1.4667,76.5 -6.77574,43.6871 -22.13945,83.22703 -46.62741,120 -10.91573,16.39189 -19.35832,26.79604 -33.98267,41.87827 -47.0141,48.48609 -106.24585,78.32227 -174.06775,87.68131 -10.42254,1.43826 -49.91453,2.66639 -59.43473,1.84833 z M -166.93791,414.21678 c -3.45991,-3.45991 -4.57143,-10.72993 -4.58099,-29.96257 -0.0101,-20.287 -1.44834,-38.46517 -3.41593,-43.17428 -5.18636,-12.4127 -17.0193,0.20753 -30.1582,32.16472 -4.83992,11.77195 -6.80557,14.7906 -10.89468,16.73101 -6.09193,2.89081 -11.40707,-0.25937 -13.36677,-7.92223 -1.71607,-6.71019 -4.43556,-31.2495 -3.76098,-33.93722 0.70815,-2.82151 5.17057,-5.56278 9.05545,-5.56278 4.05821,0 6.04061,2.9337 7.47023,11.055 0.72081,4.09475 1.60186,7.98588 1.95787,8.64697 0.37563,0.6975 3.08355,-2.90523 6.45204,-8.58406 10.99152,-18.53022 18.1279,-25.74175 28.44004,-28.73958 7.65583,-2.22561 11.75542,-1.21567 16.92285,4.16896 3.23192,3.36776 4.77955,6.22522 6.75,12.46279 1.40615,4.45124 2.55663,9.39338 2.55663,10.98252 0,5.10558 1.78216,4.21374 5.44238,-2.72349 14.14244,-26.80424 34.39991,-37.80296 46.24984,-25.11118 3.58888,3.84384 7.11203,12.75552 8.83274,22.34207 1.8613,10.3698 2.25714,47.05286 0.5882,54.50869 -1.31196,5.86105 -5.95305,10.2361 -10.39454,9.7987 -6.72494,-0.66227 -8.54387,-10.15107 -8.68507,-45.30739 -0.0969,-24.13734 -2.61173,-34.5 -8.37238,-34.5 -1.12296,0 -4.16173,2.21283 -6.80574,4.95594 -8.66184,8.98651 -19.9137,35.52623 -24.89125,58.71091 -3.14871,14.66623 -3.77389,16.2517 -7.59272,19.2556 -3.39227,2.66836 -4.92239,2.61753 -7.79902,-0.2591 z M 30.97106,410.15986 C 23.35029,406.83928 18.41683,396.4551 16.49594,379.6919 c -2.99546,-26.1407 0.49536,-42.26861 11.62823,-53.72348 16.74457,-17.22891 43.48156,-11.0954 54.01062,12.39013 4.81274,10.73503 9.16914,30.74284 9.61542,44.16112 0.21648,6.50882 0.0131,7.38296 -2.12134,9.11644 -1.29844,1.05452 -3.85327,1.91732 -5.67742,1.91732 -4.60659,0 -7.01623,-3.42966 -8.47151,-12.05758 l -1.18183,-7.00668 -3.37218,5.60006 c -8.81724,14.64248 -21.60533,27.54602 -29.67437,29.94226 -6.10253,1.81226 -6.40723,1.81607 -10.2805,0.12837 z m 18.55389,-15.44901 c 6.14588,-6.37624 16.70738,-22.4929 18.09031,-27.6055 1.63896,-6.05909 0.60828,-17.22469 -2.08174,-22.55192 -9.58105,-18.97397 -21.56405,-17.6979 -28.17168,3 -3.89074,12.18744 -3.5185,40.98193 0.6336,49.01119 2.37919,4.60086 5.84523,4.04357 11.52951,-1.85377 z m -64.28167,11.09258 c -2.93633,-3.30169 -3.75106,-9.79613 -4.61667,-36.80073 -0.77156,-24.07098 -1.09605,-27.56837 -2.94579,-31.75 -2.29581,-5.19007 -4.3873,-5.92732 -8.73451,-3.07891 -4.25371,2.78713 -11.77229,15.31891 -17.92663,29.87964 -6.06375,14.34638 -9.22456,18.88326 -13.98895,20.07904 -3.1725,0.79625 -7.31811,-1.78657 -9.27978,-5.78155 -1.29535,-2.63801 -4.08491,-21.74749 -4.47144,-30.63095 -0.26925,-6.18825 1.21091,-8.0887 6.89348,-8.85089 5.29558,-0.71029 6.76603,0.9446 8.33709,9.38283 2.07644,11.15256 2.33833,11.48384 4.9705,6.28741 9.7609,-19.26997 21.21182,-30.95521 32.376,-33.03851 11.61179,-2.16683 19.67015,8.01576 22.59613,28.55262 1.17462,8.24443 1.26292,39.90159 0.13049,46.78542 -1.39389,8.47317 -9.1447,13.68181 -13.33992,8.96458 z m 180.53516,-0.0504 c -0.66617,-0.42335 -1.96923,-2.55396 -2.8957,-4.73469 -1.36545,-3.214 -1.83072,-9.17338 -2.45658,-31.46495 -0.78289,-27.88435 -1.54541,-33.6089 -4.92723,-36.99072 -2.63625,-2.63625 -5.30378,-1.58782 -10.40992,4.09143 -4.44834,4.94762 -9.00486,13.50284 -16.72334,31.39929 -5.75697,13.3484 -9.24831,16.41293 -16.1564,14.18134 -4.21475,-1.36153 -5.61315,-5.31989 -7.75586,-21.95393 -2.41646,-18.7592 -2.45103,-17.33105 0.49079,-20.27286 2.79732,-2.79733 8.51104,-3.34611 10.81811,-1.03903 0.77854,0.77854 2.00178,4.84283 2.71832,9.03177 0.71654,4.18893 1.63762,7.82317 2.04683,8.07608 0.40922,0.25291 3.12785,-3.60139 6.04141,-8.5651 9.88111,-16.83408 17.67273,-24.65999 26.95957,-27.07823 12.1094,-3.15321 19.6663,4.07957 23.54944,22.53941 0.80616,3.83232 1.64834,7.15045 1.87152,7.37363 0.22318,0.22318 1.62157,-2.00146 3.10754,-4.94365 14.94539,-29.59162 38.47901,-39.24134 47.77563,-19.58989 4.68928,9.91234 6.15815,20.13113 6.14357,42.74046 -0.007,11.275 -0.3618,22.16999 -0.78786,24.21109 -0.92061,4.41031 -5.93199,9.78891 -9.12057,9.78891 -2.639,0 -4.95236,-2.27125 -6.62237,-6.50183 -0.72452,-1.83538 -1.50577,-13.66354 -2.01443,-30.49817 -0.84853,-28.08346 -1.6018,-33.66054 -5.00619,-37.06493 -2.58957,-2.58957 -3.24859,-2.47521 -7.57731,1.31493 -5.68489,4.97756 -10.81952,13.72562 -16.20872,27.6154 -5.6919,14.66993 -7.58214,20.96061 -9.2052,30.6346 -1.4043,8.3702 -4.54347,16.21536 -7.01841,17.53991 -2.14761,1.14936 -4.97242,1.21735 -6.63664,0.15973 z m 65.71121,-154.7931 c -5.72224,-3.64314 -6.47421,-5.86315 -6.82748,-20.1565 -0.28857,-11.67554 -0.52949,-13.25 -2.02749,-13.25 -3.08636,0 -6.14503,-2.95376 -6.14503,-5.93426 0,-3.23245 1.43044,-4.7261 4.99904,-5.21992 2.2424,-0.31031 2.57441,-0.95196 3.23309,-6.2484 0.79819,-6.41818 2.86251,-9.59742 6.23173,-9.59742 4.18139,0 5.85971,2.32514 6.32539,8.76318 0.41239,5.70125 0.59313,6.0633 3.29687,6.60404 5.26069,1.05214 4.79053,8.87268 -0.61498,10.22938 -2.43986,0.61237 -2.47114,0.75873 -2.47114,11.56369 0,9.4845 0.29638,11.45844 2.22308,14.80617 1.80413,3.13474 2.0363,4.39705 1.23195,6.69812 -1.19316,3.41336 -5.5647,4.21874 -9.45503,1.74192 z m 38.19593,0.91319 c -0.71724,-0.28732 -3.69824,-5.59815 -6.62443,-11.80183 -2.9262,-6.20369 -7.35108,-14.41859 -9.83306,-18.25535 -5.90201,-9.12357 -6.23661,-10.35948 -3.68338,-13.60538 4.53775,-5.76881 8.84851,-2.55287 17.98939,13.42054 l 5.3617,9.36941 4.77975,-10.23716 c 5.25362,-11.25204 7.67934,-13.50361 12.28651,-11.40444 4.41178,2.01014 4.23466,5.33281 -0.86186,16.16789 -2.5497,5.4206 -5.77457,12.93161 -7.16638,16.69113 -3.34926,9.04694 -6.85941,11.81396 -12.24824,9.65519 z"
     id="path858" /><path
     style="display:inline;fill:#fcd5aa"
     d="m -67.01035,306.71264 c -17.96816,-14.95816 -19.1159,-16.6547 -9.32415,-13.78253 6.87972,2.018 16.95313,7.99635 22.47092,13.33602 2.39428,2.31698 4.35323,3.59448 4.35323,2.83889 0,-2.20003 5.87748,-6.55464 14.4471,-10.70382 7.64441,-3.70121 12.5529,-4.85065 12.5529,-2.93955 0,1.70652 -8.80013,9.96588 -17.08221,16.03252 -11.56397,8.47062 -11.48171,8.48497 -27.41779,-4.78153 z"
     id="path856"
     sodipodi:nodetypes="ssssssss" /></g></svg>
