<?xml version="1.0" encoding="UTF-8" standalone="no"?>
<svg
   xmlns:dc="http://purl.org/dc/elements/1.1/"
   xmlns:cc="http://creativecommons.org/ns#"
   xmlns:rdf="http://www.w3.org/1999/02/22-rdf-syntax-ns#"
   xmlns:svg="http://www.w3.org/2000/svg"
   xmlns="http://www.w3.org/2000/svg"
   xmlns:sodipodi="http://sodipodi.sourceforge.net/DTD/sodipodi-0.dtd"
   xmlns:inkscape="http://www.inkscape.org/namespaces/inkscape"
   version="1.1"
   id="Слой_1"
   x="0px"
   y="0px"
   viewBox="0 0 132 98.999997"
   xml:space="preserve"
   sodipodi:docname="Nautical.svg"
   width="132"
   height="99"
   inkscape:version="1.0.2 (e86c870879, 2021-01-15, custom)"><metadata
   id="metadata63"><rdf:RDF><cc:Work
       rdf:about=""><dc:format>image/svg+xml</dc:format><dc:type
         rdf:resource="http://purl.org/dc/dcmitype/StillImage" /><dc:title></dc:title></cc:Work></rdf:RDF></metadata><defs
   id="defs61" /><sodipodi:namedview
   pagecolor="#ffffff"
   bordercolor="#666666"
   borderopacity="1"
   objecttolerance="10"
   gridtolerance="10"
   guidetolerance="10"
   inkscape:pageopacity="0"
   inkscape:pageshadow="2"
   inkscape:window-width="1920"
   inkscape:window-height="1001"
   id="namedview59"
   showgrid="false"
   inkscape:zoom="2.276"
   inkscape:cx="235.40997"
   inkscape:cy="84.521741"
   inkscape:window-x="-9"
   inkscape:window-y="-9"
   inkscape:window-maximized="1"
   inkscape:current-layer="Слой_1" />
<style
   type="text/css"
   id="style2">
	.st0{display:none;fill:#FFFFFF;}
	.st1{display:none;opacity:0.26;fill:#004157;}
	.st2{display:none;fill:#004157;}
	.st3{fill:#004157;}
</style>









<g
   id="g56"
   style="display:inline"
   transform="matrix(0.2421875,0,0,0.2421875,4,35.606622)">
	<g
   id="g38"
   style="display:inline">
		<path
   class="st3"
   d="m 357.4,54.2 c -8,5.1 -19.9,3.8 -26,-3.7 -5.2,-6.5 -5.7,-16.1 -2.2,-23.5 2.7,-5.7 8.6,-9.5 14.8,-10 7.3,-1.1 14.7,2.4 19.3,8.1 4.4,-3.7 8.5,-7.7 12.8,-11.5 -13.8,-17 -42.4,-17.8 -58.2,-3 -13.3,12.2 -14.7,34.7 -3.8,48.9 2.7,3.5 6,6.8 10.1,8.7 6.5,1.8 13.2,2.9 19.9,3.4 7.6,0.2 15.2,-1.2 22.6,-3.1 3.8,-1.6 6.6,-4.8 9.4,-7.7 -4.3,-3.9 -8.5,-7.8 -12.8,-11.6 -1.8,1.7 -3.6,3.7 -5.9,5 z"
   id="path22" />
		<path
   class="st3"
   d="m 67.2,1.4 v 0 H 47.6 v 0 c 0,0 0,0 0,0 0,12.6 0.1,25.4 0,38 C 37.3,26.7 26.7,14 16.3,1.4 c -1.2,0 -2.3,0 -3.2,0 H 11 c -0.4,0 -0.7,0 -1,0 H 9.1 c -0.2,0 -0.3,0 -0.4,0 H 8.6 c -0.1,0 -0.2,0 -0.2,0 H 8.3 c 0,0 0,0 0,0 v 0 c 0,0 -0.1,0 -0.1,0 H 8 c 0,0 -0.1,0 -0.1,0 H 7.5 c -0.2,0 -0.5,0 -0.9,0 h -1 c -0.6,0 -1.3,0 -2.1,0 L 0,1.3 v 52 18.2 c 6.6,-0.5 13.2,-1.6 19.6,-3.2 0,-11.2 0,-22.4 0,-33.7 7.4,9 14.8,18 22.2,27 8.5,-2.8 16.8,-5.8 25.4,-8.4 0,-17.1 0,-34.6 0,-51.8 0,0 0,0 0,0 z"
   id="path24" />
		<path
   class="st3"
   d="m 97.9,1.4 c 0,0 -14.6,32.9 -21.6,49.4 6.6,-1.9 13.6,-1.4 20.2,0.4 16.8,4.5 33,11.3 49.8,15.8 C 136.7,45.2 117.4,1.4 117.4,1.4 Z m 0.5,42.5 9,-22.2 9,22.2 z"
   id="path26" />
		<path
   class="st3"
   d="m 190.1,44.8 c 0,6.9 -5.6,12.6 -12.6,12.6 h -1.2 c -6.9,0 -12.6,-5.6 -12.6,-12.6 0,0 0,-29.6 0,-39.7 V 1.4 1.3 h -20 c 0,0 0,42.1 0,42.6 0.3,10.2 5.3,20.9 14.7,25.7 12.2,3.4 25.1,1.1 37.2,-2 1.9,-0.6 3.5,-1 5.6,-2.2 5.8,-5.5 8.6,-13.7 8.9,-21.5 V 1.3 h -20 z"
   id="path28" />
		<path
   class="st3"
   d="m 256.1,1.4 h -20 v 0 h -21.5 v 16.1 h 21.5 c 0,0.7 0,37.3 0,37.3 6.5,-2.2 13.1,-4.2 20,-5.2 0,-0.2 0,-32.1 0,-32.1 h 21.7 V 1.4 Z"
   id="path30" />
		<polygon
   class="st3"
   points="282.6,1.5 282.6,54.9 302.6,61.6 302.6,1.5 "
   id="polygon32" />
		<path
   class="st3"
   d="M 405.1,1.5 376.9,65.6 C 393.3,60.9 409,54.1 425.7,50.3 432.8,48.5 440.2,50 447,52 L 424.7,1.5 Z m 0.7,42.4 9,-22.4 9,22.4 z"
   id="path34" />
		<path
   class="st3"
   d="m 478.4,56.6 c 0,-0.8 0,-55.1 0,-55.1 h -20 c 0,0 0,42.3 0,54.1 17.7,5.7 35.1,12.7 53.6,15.4 V 56.6 Z"
   id="path36" />
	</g>
	<g
   id="g54"
   style="display:inline">
		<path
   class="st3"
   d="m 17.1,101.9 c -0.3,-1.9 -2.6,-3.3 -5.2,-3.3 -4.7,0 -6.5,3.1 -6.5,6.4 0,3.1 1.8,6.2 6.5,6.2 3.2,0 5,-1.7 5.4,-4.2 h 5.1 c -0.5,4.7 -4.7,7.6 -10.6,7.6 C 4.4,114.6 0,110.3 0,104.9 0,99.4 4.4,95 11.8,95 c 5.3,0 9.7,2.4 10.4,6.7 h -5.1 z"
   id="path40" />
		<path
   class="st3"
   d="m 84,95.6 h 5.3 v 7.1 H 99 v -7.1 h 5.3 v 18.5 H 99 v -8 h -9.7 v 8 H 84 Z"
   id="path42" />
		<path
   class="st3"
   d="m 174,95.6 h 5.4 l 9,18.5 h -5.5 l -1.8,-4.1 h -9 l -1.9,4.1 h -5.3 z m -0.5,11.3 h 6.2 l -3,-6.8 h -0.1 z"
   id="path44" />
		<path
   class="st3"
   d="m 248.7,95.6 h 5.2 l 10,12.5 H 264 V 95.6 h 4.9 v 18.7 h -5.3 l -10,-12.5 h -0.1 v 12.5 h -4.9 V 95.6 Z"
   id="path46" />
		<path
   class="st3"
   d="m 332.3,95.4 h 5.2 l 10,12.5 h 0.1 V 95.4 h 4.9 v 18.7 h -5.3 l -10,-12.5 h -0.1 v 12.5 h -4.9 V 95.4 Z"
   id="path48" />
		<path
   class="st3"
   d="m 415.3,95.4 h 18 v 3.5 h -12.7 v 4 h 11.6 v 3.2 h -11.6 v 4.6 h 12.9 v 3.5 h -18.2 z"
   id="path50" />
		<path
   class="st3"
   d="m 495,95.4 h 5.3 v 15.2 H 512 v 3.5 h -17 z"
   id="path52" />
	</g>
</g>
</svg>
