<svg
	xmlns="http://www.w3.org/2000/svg"
   viewBox="0 0 965.44598 171.19001">
<g>
	<g fill="#449de8">
		<path d="m 933.967,104.101 c -16.318,-7.251 -24.922,-9.942 -25.205,-15.854 -0.264,-5.263 5.426,-6.216 7.43,-6.216 11.498,0 12.391,11.642 12.391,14.336 h 35.105 c 0,-19.964 -18,-40.532 -48.73,-40.513 -26.42,-0.021 -44.316,17.998 -44.316,35.044 0,6.459 2.916,19.355 31.482,32.028 16.316,7.245 24.92,9.96 25.203,15.87 0.264,5.244 -5.426,6.743 -7.43,6.743 -11.498,0 -12.391,-12.188 -12.391,-14.862 H 872.4 c 0,19.943 17.998,40.513 48.73,40.513 26.42,0 44.316,-18.017 44.316,-35.063 10e-4,-6.459 -2.915,-19.353 -31.479,-32.026"/>
		<path d="M 846.736,72.083 C 836.449,61.758 821.996,55.299 806.263,55.32 c -15.729,-0.021 -30.164,6.438 -40.471,16.763 -10.324,10.284 -16.764,24.72 -16.764,40.471 v 52.271 h 43.467 v -22.876 -28.506 c 0,-6.277 1.5,-11.62 4.029,-15.771 2.572,-4.088 5.871,-6.499 9.736,-6.519 3.891,0.02 7.189,2.431 9.762,6.519 2.529,4.15 4.01,9.493 4.025,15.771 v 51.383 h 43.447 v -52.272 c 0.024,-15.751 -6.435,-30.187 -16.758,-40.471"/>
		<path d="m 696.18,130.81 c -2.572,4.734 -5.871,7.509 -9.738,7.527 -3.887,-0.02 -7.188,-2.793 -9.736,-7.527 -2.533,-4.781 -4.029,-10.953 -4.049,-18.201 0.02,-7.248 1.516,-13.423 4.049,-18.2 2.549,-4.719 5.852,-7.513 9.736,-7.552 3.867,0.039 7.166,2.833 9.738,7.552 2.531,4.777 4.031,10.952 4.049,18.2 -0.022,7.225 -1.518,13.42 -4.049,18.201 M 726.91,72.137 C 716.625,61.814 702.172,55.375 686.441,55.375 c -15.75,0 -30.184,6.438 -40.469,16.763 -10.303,10.284 -16.766,24.74 -16.766,40.472 0,15.73 6.463,30.185 16.766,40.47 v 0 0 c 0.951,0.951 3.219,2.976 3.34,3.077 9.961,8.503 23.02,13.685 37.129,13.685 14.07,0 27.129,-5.162 37.09,-13.664 0.143,-0.122 2.43,-2.166 3.381,-3.098 10.324,-10.285 16.764,-24.739 16.764,-40.47 0,-15.732 -6.44,-30.188 -16.766,-40.473"/>
		<path d="m 578.385,130.81 c -2.549,4.734 -5.871,7.509 -9.736,7.527 -3.867,-0.02 -7.188,-2.793 -9.738,-7.527 -2.529,-4.781 -4.029,-10.953 -4.049,-18.201 0.021,-7.248 1.52,-13.423 4.049,-18.2 2.553,-4.719 5.871,-7.513 9.738,-7.552 3.865,0.039 7.188,2.833 9.736,7.552 2.531,4.777 4.031,10.952 4.031,18.2 0,7.225 -1.5,13.42 -4.031,18.201 M 609.096,72.137 C 598.834,61.814 584.381,55.375 568.649,55.375 c -15.752,0 -30.186,6.438 -40.469,16.763 -10.327,10.284 -16.767,24.74 -16.767,40.472 0,15.73 6.438,30.185 16.767,40.47 h 0.018 -0.018 c 0.949,0.951 3.218,2.976 3.34,3.077 9.959,8.503 23.02,13.685 37.129,13.685 14.068,0 27.129,-5.162 37.088,-13.664 0.164,-0.122 2.43,-2.166 3.359,-3.098 10.348,-10.285 16.807,-24.739 16.785,-40.47 0.023,-15.732 -6.438,-30.188 -16.785,-40.473"/>
		<path d="m 491.733,55.185 h -68.025 c -11.963,0.02 -21.681,9.718 -21.661,21.702 0,11.965 9.718,21.683 21.703,21.663 h 12.269 l 0.04,66.162 43.366,-0.021 -0.04,-66.141 h 12.309 c 11.985,0.021 21.703,-9.697 21.703,-21.663 0.021,-11.984 -9.701,-21.683 -21.664,-21.702"/>
	</g>
	<g fill="#ff6701">
		<path d="m 392.054,87.214 c 6.074,-10.307 2.651,-23.607 -7.652,-29.682 -10.325,-6.092 -23.626,-2.671 -29.7,7.654 L 335.064,100.29 V 76.887 c 0,-11.965 -9.718,-21.683 -21.683,-21.683 -11.984,0 -21.703,9.718 -21.703,21.683 v 87.925 h 43.386 v -34.599 l 22.979,35.328 c 0,0 27.856,-0.021 35.812,-0.021 6.338,0 9.273,-6.354 4.089,-14.169 l -22.33,-34.299 z"/>
		<path d="m 238.629,130.566 c -2.571,4.718 -5.871,7.512 -9.738,7.53 -3.867,-0.02 -7.167,-2.813 -9.718,-7.53 -2.531,-4.778 -4.028,-10.953 -4.028,-18.183 0,-7.228 1.498,-13.383 4.028,-18.156 2.551,-4.72 5.851,-7.492 9.718,-7.532 3.867,0.04 7.167,2.813 9.738,7.532 1.862,3.543 3.178,7.853 3.725,12.792 h 43.407 C 284.485,93.415 278.411,81.085 269.301,71.996 259.015,61.692 244.6,55.254 228.891,55.254 c -15.711,0 -30.124,6.438 -40.389,16.743 -10.305,10.264 -16.743,24.678 -16.743,40.388 0,15.711 6.438,30.128 16.743,40.41 0.02,0.021 0,0.063 0,0.063 10.265,10.303 24.678,16.74 40.389,16.74 15.709,0 30.125,-6.438 40.409,-16.74 0,0 -0.04,-0.042 0,-0.063 9.11,-9.109 15.184,-21.438 16.46,-35.023 h -43.407 c -0.546,4.918 -1.862,9.23 -3.724,12.794"/>
		<path d="M 160.934,41.158 C 165.308,36.784 168,30.774 168,24.112 168,17.452 165.309,11.439 160.935,7.046 156.58,2.694 150.548,0 143.888,0 c -6.66,0 -12.693,2.693 -17.047,7.066 -4.352,4.372 -7.064,10.385 -7.064,17.045 0,6.662 2.712,12.673 7.064,17.047 l 5.325,5.325 c 8.887,8.887 9.515,11.256 1.073,19.697 l -4.839,4.84 c -3.968,3.967 -6.417,9.454 -6.417,15.508 v 78.286 h 43.831 V 86.529 c 0,-6.054 -2.45,-11.541 -6.438,-15.508 l -4.839,-4.84 c -8.441,-8.44 -7.814,-10.811 1.073,-19.697 z"/>
		<path d="m 57.132,55.201 c -15.709,0 -30.124,6.438 -40.389,16.741 C 6.438,82.207 0,96.621 0,112.332 v 52.495 h 43.385 l -0.02,-23.14 v -28.463 c 0.02,-6.258 1.518,-11.601 4.048,-15.733 2.551,-4.088 5.851,-6.496 9.718,-6.52 3.867,0.022 7.167,2.432 9.718,6.52 2.531,4.134 4.029,9.477 4.048,15.733 v 51.604 h 43.366 v -52.495 c 0,-15.711 -6.438,-30.125 -16.743,-40.39 C 87.256,61.639 72.841,55.201 57.132,55.201"/>
	</g>
</g>
</svg>
