<svg
	xmlns="http://www.w3.org/2000/svg"
	viewBox="0 0 1000 279.043">
<g>
	<g fill="#F26831">
		<path d="M188.687,271.64h-71.754v-85.421c0-9.997-2.215-18.571-6.644-25.723 c-4.431-7.148-9.746-10.725-15.945-10.725c-6.329,0-11.674,3.576-16.041,10.725c-4.366,7.151-6.549,15.726-6.549,25.723v85.421H0 v-86.751c0-26.068,9.237-48.215,27.714-66.438c18.223-18.476,40.433-27.714,66.629-27.714c26.069,0,48.278,9.239,66.628,27.714 c18.476,18.223,27.715,40.37,27.715,66.438V271.64z"/>
		<path d="M257.403,76.5c-7.848,7.593-11.77,13.288-11.77,17.084c0,3.796,3.353,8.986,10.061,15.565l7.973,7.973 c7.086,7.213,10.63,15.755,10.63,25.626V271.64h-72.324V142.749c0-10.124,3.542-18.666,10.63-25.626l8.163-7.973 c6.579-6.579,9.871-11.832,9.871-15.755c0-3.922-3.924-9.617-11.769-17.084l-8.542-8.542c-7.848-7.718-11.77-17.084-11.77-28.094 s3.922-20.312,11.77-27.904C217.919,3.923,227.221,0,238.231,0c11.135,0,20.501,3.861,28.094,11.579 c7.845,7.72,11.769,17.084,11.769,28.094c0,11.264-3.924,20.628-11.769,28.094L257.403,76.5z"/>
		<path d="M378.892,279.043c-26.323,0-48.596-9.143-66.819-27.43c-18.223-18.286-27.334-40.591-27.334-66.914 c0-26.195,9.174-48.405,27.524-66.628c18.349-18.223,40.496-27.335,66.439-27.335c25.941,0,48.088,9.176,66.439,27.525 c15.945,15.82,24.93,34.992,26.955,57.517h-70.995c-1.014-8.098-3.102-15.121-6.264-21.07c-4.556-8.098-9.871-12.148-15.945-12.148 c-6.075,0-11.327,4.146-15.756,12.434c-4.43,8.289-6.644,18.192-6.644,29.707c0,11.518,2.246,21.451,6.739,29.803 c4.491,8.353,9.776,12.528,15.85,12.528c6.327,0,11.705-4.111,16.135-12.339c3.163-6.074,5.188-13.033,6.075-20.881h70.995 c-2.025,22.527-11.01,41.699-26.956,57.518C426.98,269.806,404.833,279.043,378.892,279.043z"/>
		<path d="M621.108,193.052l36.258,55.239c3.037,4.684,4.555,8.797,4.555,12.338c0,1.52-0.254,2.975-0.758,4.367 c-1.52,4.43-5.064,6.644-10.631,6.644h-59.036l-37.206-56.948v56.948h-71.563V126.613c0-9.871,3.542-18.349,10.63-25.437 c6.959-6.959,15.376-10.44,25.247-10.44c9.996,0,18.413,3.481,25.247,10.44c7.086,7.088,10.63,15.565,10.63,25.437v38.725 l32.271-57.897c5.061-8.605,12.4-14.11,22.02-16.515c3.162-0.759,6.264-1.139,9.301-1.139c6.328,0,12.275,1.646,17.844,4.936 c8.605,5.063,14.109,12.466,16.516,22.209c0.76,3.038,1.139,6.075,1.139,9.112c0,6.202-1.646,12.149-4.936,17.843L621.108,193.052z"/>
	</g>
	<g fill="#1CBAC9">
		<path d="M738.042,279.043c-19.238,0-35.877-4.113-49.924-12.339c-17.465-10.755-26.197-23.411-26.197-37.966 c0-6.199,1.961-12.653,5.885-19.361c6.455-10.631,16.389-15.945,29.803-15.945c17.465,0,28.156,9.176,32.08,27.524 c1.266,5.949,2.973,8.922,5.127,8.922c2.656,0,3.986-3.163,3.986-9.491v-93.584c0-9.112,3.512-17.399,10.535-24.867 c7.023-7.466,15.533-11.2,25.531-11.2c10.123,0,18.633,3.512,25.531,10.535c6.896,7.024,10.346,15.536,10.346,25.532v79.916 c0,14.682-2.5,27.43-7.498,38.25c-5,10.82-12.846,19.205-23.539,25.152C769.012,276.069,755.125,279.043,738.042,279.043z M774.868,79.537c-9.871,0-18.225-3.417-25.057-10.25c-6.834-6.834-10.379-15.312-10.631-25.437 c0-9.871,3.479-18.286,10.439-25.247c6.959-6.959,15.377-10.44,25.248-10.44s18.254,3.481,25.15,10.44 c6.896,6.961,10.346,15.376,10.346,25.247c0,9.871-3.449,18.288-10.346,25.247C793.122,76.057,784.739,79.537,774.868,79.537z"/>
		<path d="M895.786,271.64h-71.754V126.613c0-9.871,3.512-18.318,10.535-25.342 c7.023-7.023,15.471-10.535,25.342-10.535c7.973,0,15.057,2.31,21.26,6.929c6.201,4.62,10.502,10.663,12.908,18.128l6.455-5.505 c9.236-7.593,18.033-12.908,26.385-15.946c6.58-2.403,12.969-3.606,19.174-3.606c4.68,0,9.551,0.507,14.615,1.519 c9.996,2.025,17.654,7.023,22.969,14.996c4.047,5.949,6.074,12.466,6.074,19.552c0,2.405-0.189,4.81-0.568,7.213 c-1.898,10.125-7.973,18.003-18.223,23.633c-10.252,5.632-23.857,5.095-40.813-1.614c-3.926-1.643-7.658-2.847-11.201-3.605 c-3.545-0.76-7.152-0.381-10.818,1.139c-4.053,1.646-7.119,4.777-9.207,9.396c-2.088,4.62-3.133,8.701-3.133,12.243V271.64z"/>
		<path d="M964.502,273.538c-9.746,0-18.098-3.479-25.057-10.439c-6.963-6.959-10.441-15.312-10.441-25.057 c0-9.744,3.479-18.097,10.441-25.058c6.959-6.959,15.311-10.44,25.057-10.44c9.742,0,18.094,3.481,25.057,10.44 c6.959,6.961,10.441,15.313,10.441,25.058c0,9.745-3.482,18.098-10.441,25.057C982.596,270.059,974.245,273.538,964.502,273.538z"/>
	</g>
</g>
</svg>
