<svg
	xmlns="http://www.w3.org/2000/svg"
	viewBox="0 0 995.79 147">
<g opacity="1" fill="#ff6701" fill-opacity="1">
	<path d="M84.53 62.29C94.19 71.83 99.02 83.49 99.02 97.27C99.02 100.3 99.02 115.46 99.02 142.76L61.46 142.76C61.46 115.91 61.46 100.99 61.46 98C61.46 92.71 60.29 88.19 57.96 84.44C55.61 80.69 52.79 78.81 49.47 78.81C46.2 78.81 43.41 80.69 41.07 84.44C38.73 88.19 37.56 92.71 37.56 98C37.56 100.99 37.56 115.91 37.56 142.76L0 142.76C0 115.46 0 100.3 0 97.27C0 83.49 4.83 71.83 14.49 62.29C24.09 52.64 35.75 47.8 49.47 47.8C63.18 47.8 74.87 52.64 84.53 62.29Z"/>
	<path d="M135.17 40.33C131.17 44.27 129.11 47.19 128.99 49.1C128.99 49.12 128.99 49.26 128.99 49.28C128.99 51.25 130.74 53.96 134.25 57.4C134.67 57.82 137.99 61.14 138.4 61.56C142.09 65.31 143.94 69.8 143.94 75.03C143.94 79.54 143.94 102.12 143.94 142.76L106.01 142.76C106.01 102.12 106.01 79.54 106.01 75.03C106.01 69.74 107.86 65.24 111.55 61.55C111.97 61.14 115.37 57.82 115.8 57.4C119.24 53.96 120.96 51.22 120.96 49.19C120.96 49.17 120.96 49.02 120.96 49C120.78 47.16 118.72 44.27 114.78 40.33C114.33 39.87 110.71 36.18 110.26 35.71C106.14 31.65 104.08 26.73 104.08 20.95C104.08 15.17 106.14 10.28 110.26 6.28C114.26 2.15 119.15 0.09 124.93 0.09C130.78 0.09 135.7 2.12 139.7 6.19C143.82 10.25 145.88 15.17 145.88 20.95C145.88 26.79 143.82 31.71 139.7 35.71C138.79 36.64 136.08 39.41 135.17 40.33Z"/>
	<path d="M209.96 102.15C213.71 102.15 243.68 102.15 247.42 102.15C246.38 114.02 241.64 124.11 233.21 132.42C233.21 132.43 233.21 132.5 233.21 132.51C223.62 142.17 212.05 147 198.52 147C198.47 147 198.1 147 198.06 147C184.46 147 172.86 142.17 163.27 132.51C163.27 132.5 163.27 132.43 163.27 132.42C153.61 122.89 148.78 111.32 148.78 97.72C148.78 97.68 148.78 97.31 148.78 97.26C148.78 83.67 153.61 72.1 163.27 62.56C172.86 52.91 184.52 48.08 198.24 48.08C211.9 48.08 223.55 52.91 233.21 62.56C241.64 70.93 246.38 81.02 247.43 92.83C243.68 92.83 213.71 92.83 209.96 92.83C209.47 88.59 208.39 84.9 206.73 81.76C204.33 77.45 201.5 75.3 198.24 75.3C194.98 75.3 192.18 77.45 189.84 81.76C187.5 86.13 186.33 91.39 186.33 97.54C186.33 103.63 187.5 108.86 189.84 113.23C192.18 117.53 194.98 119.72 198.24 119.78C201.5 119.72 204.33 117.53 206.73 113.23C208.39 110.09 209.47 106.4 209.96 102.15Z"/>
	<path d="M326.14 101.42C337.54 118.86 343.88 128.55 345.15 130.49C346.75 132.89 347.55 135.04 347.55 136.95C347.55 137.75 347.42 138.48 347.18 139.16C346.31 141.56 344.47 142.76 341.64 142.76C339.57 142.76 329.24 142.76 310.63 142.76L291.07 112.77L291.07 142.67L253.51 142.67C253.51 96.99 253.51 71.61 253.51 66.54C253.51 61.37 255.36 56.94 259.05 53.25C262.68 49.62 267.08 47.8 272.25 47.8C277.47 47.8 281.9 49.62 285.53 53.25C289.23 56.94 291.07 61.37 291.07 66.54C291.07 67.89 291.07 74.66 291.07 86.84C301.26 68.62 306.92 58.5 308.05 56.48C310.7 51.99 314.54 49.1 319.59 47.8C321.25 47.37 322.88 47.16 324.48 47.16C327.74 47.16 330.84 48.02 333.8 49.74C338.29 52.45 341.18 56.32 342.47 61.37C342.9 62.97 343.12 64.57 343.12 66.17C343.12 69.43 342.22 72.53 340.44 75.49C338.53 78.94 333.76 87.59 326.14 101.42Z"/>
	<path d="M426.29 62.84C432.93 69.49 436.9 78.13 438.19 88.77C438.5 91.36 438.65 93.75 438.65 95.97C438.65 98.43 438.47 100.65 438.1 102.62C432.28 102.62 385.7 102.62 379.87 102.62C380.37 106.49 381.41 109.88 383.01 112.77C385.35 117.07 388.15 119.26 391.41 119.32C394.73 119.32 397.84 117.38 400.73 113.51C402.14 111.54 403.25 109.57 404.05 107.6C407.4 107.6 434.2 107.6 437.55 107.6C437.18 116.09 433.55 124.27 426.66 132.15C416.88 141.99 405.22 146.91 391.69 146.91C377.84 146.91 366.09 142.08 356.43 132.42C346.78 122.83 341.95 111.17 341.95 97.45C341.95 83.79 346.78 72.14 356.43 62.48C366.09 52.87 377.75 48.08 391.41 48.08C404.88 48.08 416.51 53 426.29 62.84ZM402.3 88.68C401.62 85.54 400.82 83.14 399.9 81.48C397.44 77.05 394.61 74.84 391.41 74.84C387.84 74.84 385.04 76.99 383.01 81.3C381.97 83.51 381.13 85.97 380.52 88.68C384.87 88.68 397.94 88.68 402.3 88.68Z"/>
	<path d="M474.87 5.54C478.56 9.17 480.41 13.6 480.41 18.83C480.41 27.09 480.41 68.4 480.41 142.76L442.85 142.76C442.85 68.4 442.85 27.09 442.85 18.83C442.85 13.6 444.66 9.17 448.29 5.54C451.99 1.85 456.41 0 461.58 0C466.81 0 471.24 1.85 474.87 5.54Z"/>
	<path d="M584.55 97.35C584.55 111.07 579.72 122.76 570.07 132.42C569.75 132.73 569.17 133.28 568.31 134.08C567.57 134.76 567.21 135.13 567.21 135.19C557.92 143 547.24 146.91 535.19 146.91C535.14 146.91 534.77 146.91 534.72 146.91C522.73 146.91 512.12 142.97 502.89 135.1C502.27 134.73 501.29 133.84 499.93 132.42C490.28 122.76 485.45 111.07 485.45 97.35C485.45 83.7 490.28 72.04 499.93 62.38C509.59 52.66 521.28 47.8 535 47.8C548.72 47.8 560.41 52.66 570.07 62.38C579.72 72.04 584.55 83.7 584.55 97.35ZM547 97.35C547 91.26 545.79 86.03 543.4 81.67C541.06 77.3 538.26 75.11 535 75.11C531.74 75.11 528.91 77.3 526.51 81.67C524.23 86.1 523.09 91.32 523.09 97.35C523.09 103.44 524.23 108.7 526.51 113.13C528.91 117.51 531.74 119.69 535 119.69C538.26 119.69 541.06 117.5 543.4 113.13C545.79 108.77 547 103.51 547 97.35Z"/>
	<path d="M638.04 147C624.32 147 612.67 142.17 603.07 132.51C593.41 122.85 588.58 111.19 588.58 97.54C588.58 83.88 593.41 72.22 603.07 62.57C612.67 52.91 624.32 48.08 638.04 48.08C642.1 48.08 646.07 48.57 649.95 49.56C649.95 46.48 649.95 21.9 649.95 18.82C649.95 13.6 651.79 9.17 655.48 5.53C659.17 1.85 663.6 0 668.77 0C673.94 0 678.37 1.85 682.06 5.54C685.69 9.17 687.53 13.56 687.6 18.73C687.6 26.61 687.6 89.66 687.6 97.54C687.6 111.2 682.73 122.85 673.02 132.51C663.42 142.17 651.76 147 638.04 147ZM646.44 113.23C648.78 108.92 649.95 103.66 649.95 97.45C649.95 91.29 648.77 86.07 646.44 81.76C644.1 77.39 641.3 75.21 638.04 75.21C634.72 75.21 631.92 77.39 629.64 81.76C627.3 86.07 626.14 91.29 626.14 97.45C626.14 103.6 627.31 108.86 629.64 113.23C631.92 117.59 634.72 119.78 638.04 119.78C641.3 119.78 644.1 117.6 646.44 113.23Z"/>
	<path d="M776.23 62.84C782.88 69.49 786.84 78.13 788.13 88.77C788.44 91.36 788.59 93.75 788.59 95.97C788.59 98.43 788.41 100.65 788.04 102.62C782.22 102.62 735.64 102.62 729.81 102.62C730.31 106.49 731.35 109.88 732.95 112.77C735.29 117.07 738.09 119.26 741.35 119.32C744.67 119.32 747.78 117.38 750.67 113.51C752.08 111.54 753.19 109.57 753.99 107.6C757.34 107.6 784.14 107.6 787.49 107.6C787.12 116.09 783.48 124.27 776.6 132.15C766.82 141.99 755.16 146.91 741.62 146.91C727.78 146.91 716.03 142.08 706.37 132.42C696.72 122.83 691.88 111.17 691.88 97.45C691.88 83.79 696.72 72.14 706.37 62.48C716.03 52.87 727.69 48.08 741.35 48.08C754.82 48.08 766.45 53 776.23 62.84ZM752.24 88.68C751.56 85.54 750.76 83.14 749.84 81.48C747.38 77.05 744.55 74.84 741.35 74.84C737.78 74.84 734.98 76.99 732.95 81.3C731.9 83.51 731.07 85.97 730.46 88.68C734.82 88.68 747.88 88.68 752.24 88.68Z"/>
	<path d="M892.39 97.35C892.39 111.07 887.56 122.76 877.9 132.42C877.59 132.73 877.01 133.28 876.15 134.08C875.41 134.76 875.04 135.13 875.04 135.19C865.76 143 855.07 146.91 843.02 146.91C842.98 146.91 842.61 146.91 842.56 146.91C830.57 146.91 819.95 142.97 810.73 135.1C810.11 134.73 809.13 133.84 807.77 132.42C798.11 122.76 793.28 111.07 793.28 97.35C793.28 83.7 798.11 72.04 807.77 62.38C817.43 52.66 829.12 47.8 842.84 47.8C856.56 47.8 868.25 52.66 877.9 62.38C887.56 72.04 892.39 83.7 892.39 97.35ZM854.83 97.35C854.83 91.26 853.63 86.03 851.24 81.67C848.9 77.3 846.1 75.11 842.84 75.11C839.58 75.11 836.75 77.3 834.35 81.67C832.07 86.1 830.93 91.32 830.93 97.35C830.93 103.44 832.07 108.7 834.35 113.13C836.75 117.51 839.58 119.69 842.84 119.69C846.1 119.69 848.9 117.5 851.24 113.13C853.63 108.77 854.83 103.51 854.83 97.35Z"/>
	<path d="M981.31 62.29C990.97 71.83 995.8 83.49 995.8 97.27C995.8 100.3 995.8 115.46 995.8 142.76L958.24 142.76C958.24 115.91 958.24 100.99 958.24 98C958.24 92.71 957.07 88.19 954.73 84.44C952.39 80.69 949.57 78.81 946.24 78.81C942.98 78.81 940.18 80.69 937.85 84.44C935.51 88.19 934.34 92.71 934.34 98C934.34 100.99 934.34 115.91 934.34 142.76L896.78 142.76C896.78 115.46 896.78 100.3 896.78 97.27C896.78 83.49 901.61 71.83 911.27 62.29C920.86 52.64 932.52 47.8 946.24 47.8C959.96 47.8 971.65 52.64 981.31 62.29Z"/>
</g>
</svg>
