<svg
	xmlns="http://www.w3.org/2000/svg"
	xmlns:xlink="http://www.w3.org/1999/xlink"
	viewBox="0 0 1000 449.4606018">
<g>
	<rect fill="#D2333A" width="1000" height="449.4606018"/>
	<g>
		<defs>
			<path id="SVGID_1_"
				d="M499.3068848,189.9223175c4.4601135,5.4851074,8.618988,10.6685486,12.3559875,15.5503235 l14.5260315,5.2441559l5.2436523-1.5671844c0.0604858-0.1213989,0.1207275-0.2409515,0.1207275-0.4212189 c0.0602417-0.2427979,0.1204834-0.5426178,0.1204834-0.9049835c0-0.6621857-0.1807251-1.6278839-0.5424194-2.8326874l0,0 c-0.0602417-0.3016663-0.1809082-0.6033325-0.3013916-0.9638519c-0.0602417-0.1820984-0.1204834-0.3623657-0.1807251-0.5426178 c-0.0604858-0.1820984-0.1207275-0.3623657-0.2412109-0.5426331c0-0.0606995,0-0.1213989-0.0602417-0.1820984 c0-0.0588531-0.0602417-0.1195679-0.0602417-0.1802673c-0.1207275-0.2409515-0.2412109-0.4819183-0.3616943-0.7835846l0,0 c-2.7124023-6.1472931-9.402771-16.6355743-24.5916748-34.4152679 c-11.6328735-5.2441559-30.9204102-19.5289764-35.0793152-22.6026306 c-16.6355896-12.5980835-49.7860413-38.2743454-49.7860413-38.2743454S479.29599,165.5722656,499.3068848,189.9223175"/>
		</defs>
		<clipPath id="SVGID_2_">
			<use xlink:href="#SVGID_1_"  overflow="visible"/>
		</clipPath>
		<linearGradient id="SVGID_3_" gradientUnits="userSpaceOnUse" x1="289.3780823" y1="1254.3641357" x2="349.6517029" y2="1254.3641357"
			gradientTransform="matrix(2.779187 2.40923 2.40923 -2.779187 -3435.9299316 2873.2426758)">
			<stop offset="0" style="stop-color:#732728"/>
			<stop offset="0.0174977" style="stop-color:#772829"/>
			<stop offset="0.0985008" style="stop-color:#8A2B2E"/>
			<stop offset="0.1912082" style="stop-color:#992D31"/>
			<stop offset="0.3048481" style="stop-color:#A12E32"/>
			<stop offset="0.5" style="stop-color:#A42F33"/>
			<stop offset="0.6951519" style="stop-color:#A12E32"/>
			<stop offset="0.8087918" style="stop-color:#992D31"/>
			<stop offset="0.9014992" style="stop-color:#8A2B2E"/>
			<stop offset="0.9825023" style="stop-color:#772829"/>
			<stop offset="1" style="stop-color:#732728"/>
		</linearGradient>
		<polygon clip-path="url(#SVGID_2_)" fill="url(#SVGID_3_)"
			points="468.1802368,51.466568 583.2527466,151.2193756 483.9616394,265.7591553 368.8891296,166.0045166"/>
	</g>
	<g>
		<defs>
			<path id="SVGID_4_"
				d="M431.499054,211.9822998c22.1806946,23.3862,38.3338928,43.5773621,49.2434082,58.8278809 c3.0740967,1.6260376,10.1259155,5.1227417,17.3589172,7.9554138c5.6656189,2.1705017,11.512146,3.9179382,15.7313232,3.9179382 c2.5919189,0,4.5205688-0.664032,5.4246216-2.2312012c0.2411499-0.4212036,0.3616333-1.0245361,0.3616333-1.8670044 c0.0602417-2.5917053-1.265686-7.4753418-6.5093994-16.3946228 c-5.7260742-9.5832825-15.2493591-22.2420807-25.8574524-35.2613983 c-9.4028015-5.1227417-22.1204529-12.837204-37.5505371-23.8681183 c-46.0490723-33.149765-101.1994934-77.2697525-101.1994934-77.2697525 C348.6830139,125.9716949,381.953949,159.965744,431.499054,211.9822998"/>
		</defs>
		<clipPath id="SVGID_5_">
			<use xlink:href="#SVGID_4_"  overflow="visible"/>
		</clipPath>
		<linearGradient id="SVGID_6_" gradientUnits="userSpaceOnUse" x1="289.3726807" y1="1237.7995605" x2="349.6463318" y2="1237.7995605"
			gradientTransform="matrix(2.7791882 2.4092312 2.4092312 -2.7791882 -3436.6191406 2874.0358887)">
			<stop offset="0" style="stop-color:#732728"/>
			<stop offset="0.0174977" style="stop-color:#772829"/>
			<stop offset="0.0985008" style="stop-color:#8A2B2E"/>
			<stop offset="0.1912082" style="stop-color:#992D31"/>
			<stop offset="0.3048481" style="stop-color:#A12E32"/>
			<stop offset="0.5" style="stop-color:#A42F33"/>
			<stop offset="0.6951519" style="stop-color:#A12E32"/>
			<stop offset="0.8087918" style="stop-color:#992D31"/>
			<stop offset="0.9014992" style="stop-color:#8A2B2E"/>
			<stop offset="0.9825023" style="stop-color:#772829"/>
			<stop offset="1" style="stop-color:#732728"/>
		</linearGradient>
		<polygon clip-path="url(#SVGID_5_)" fill="url(#SVGID_6_)"
			points="421.9435425,41.0702477 597.3292847,193.1081543 446.2336121,367.4065552 270.8478699,215.366806"/>
	</g>
	<g>
		<defs>
			<path id="SVGID_7_"
				d="M302.2722778,184.4372101c2.230072,2.109787,44.9038086,43.5773468,80.8269348,83.8401031 c17.7806091,19.8913269,30.4985046,35.923584,38.6353455,47.7969666 c9.1616211,6.02771,20.9149475,12.5980835,30.0765686,15.5503235c3.0741272,1.0263977,5.9067993,1.6278687,8.2575684,1.6278687 c1.5671692,0,2.893158-0.3016663,3.9779358-0.9031372c0.6028748-0.4819336,1.5069275-1.5671692,1.5069275-3.8572388 c0.0602417-3.3164368-1.7478943-9.2834778-8.6794434-19.6503601 c-4.3998718-6.6292419-10.3066711-14.7667542-17.0572815-23.5664673 c-4.7015076-2.8934021-10.3068848-6.5703735-17.2987061-11.0897827 c-16.5751038-10.6685486-43.2763672-30.5598907-67.3859253-48.8822021 c-28.268219-21.5173798-52.8599243-40.9874878-52.8599243-40.9874878V184.4372101z"/>
		</defs>
		<clipPath id="SVGID_8_">
			<use xlink:href="#SVGID_7_"  overflow="visible"/>
		</clipPath>
		<linearGradient id="SVGID_9_" gradientUnits="userSpaceOnUse" x1="289.309845" y1="1218.0362549" x2="349.5834961" y2="1218.0362549"
			gradientTransform="matrix(2.7776916 2.407934 2.407934 -2.7776916 -3435.329834 2873.776123)">
			<stop offset="0" style="stop-color:#732728"/>
			<stop offset="0.0174977" style="stop-color:#772829"/>
			<stop offset="0.0985008" style="stop-color:#8A2B2E"/>
			<stop offset="0.1912082" style="stop-color:#992D31"/>
			<stop offset="0.3048481" style="stop-color:#A12E32"/>
			<stop offset="0.5" style="stop-color:#A42F33"/>
			<stop offset="0.6951519" style="stop-color:#A12E32"/>
			<stop offset="0.8087918" style="stop-color:#992D31"/>
			<stop offset="0.9014992" style="stop-color:#8A2B2E"/>
			<stop offset="0.9825023" style="stop-color:#772829"/>
			<stop offset="1" style="stop-color:#732728"/>
		</linearGradient>
		<polygon clip-path="url(#SVGID_8_)" fill="url(#SVGID_9_)"
			points="372.3557129,103.472084 539.3282471,248.2167511 395.5296936,414.0980225 228.5569611,269.351532"/>
	</g>
	<g>
		<defs>
			<path id="SVGID_10_"
				d="M300.7653503,257.9104309l-0.1807251,0.4819031v0.3016663l0.0602417,0.1213989 c0.3616638,2.4703369,4.3396301,10.0652466,26.7012634,32.3661804 c15.7312927,15.6717529,28.4491882,28.6303711,32.0052185,34.1154785 c8.1370544,5.906311,21.3368835,13.3798218,29.1725159,15.1879578h1.5671692 c1.2657471-0.1802673,1.7478943-1.0245361,1.7478943-2.2900696c-0.0602417-4.219574-5.967041-13.2602539-10.4876099-19.4075623 l-0.1809387-0.0606995c-7.7149353-5.2441406-14.82724-10.0045166-25.375061-17.7208252 c-0.9645386-0.6622009-1.9288635-1.3850708-2.8329163-2.1098022 c-24.5917053-18.4437256-47.4955139-41.1051941-51.7751465-41.1051941 C301.0667725,257.790863,300.8860779,257.790863,300.7653503,257.9104309"/>
		</defs>
		<clipPath id="SVGID_11_">
			<use xlink:href="#SVGID_10_"  overflow="visible"/>
		</clipPath>
		<linearGradient id="SVGID_12_" gradientUnits="userSpaceOnUse" x1="289.0222168" y1="1203.4321289" x2="349.2958374" y2="1203.4321289"
			gradientTransform="matrix(2.7698779 2.4011605 2.4011605 -2.7698779 -3425.0004883 2868.2739258)">
			<stop offset="0" style="stop-color:#732728"/>
			<stop offset="0.0174977" style="stop-color:#772829"/>
			<stop offset="0.0985008" style="stop-color:#8A2B2E"/>
			<stop offset="0.1912082" style="stop-color:#992D31"/>
			<stop offset="0.3048481" style="stop-color:#A12E32"/>
			<stop offset="0.5" style="stop-color:#A42F33"/>
			<stop offset="0.6951519" style="stop-color:#A12E32"/>
			<stop offset="0.8087918" style="stop-color:#992D31"/>
			<stop offset="0.9014992" style="stop-color:#8A2B2E"/>
			<stop offset="0.9825023" style="stop-color:#772829"/>
			<stop offset="1" style="stop-color:#732728"/>
		</linearGradient>
		<polygon clip-path="url(#SVGID_11_)" fill="url(#SVGID_12_)"
			points="339.736145,212.6260986 432.7670898,293.2729797 352.6853333,385.6516113 259.6544189,305.0047302"/>
	</g>
	<g fill="#FFFFFF">
		<path
			d="M301.910614,264.0945129l-1.3262024-5.7242432c0,2.0491028,2.8329163,8.919281,26.8217468,32.7874146 c20.0108948,20.0108948,35.3204956,35.6219177,32.6683044,37.0088501 c-2.6519775,1.3869019-14.7067566-5.6065369-25.8572083-15.6717529 C319.8117065,299.4165955,308.4200439,282.7203369,301.910614,264.0945129"/>
		<path
			d="M427.2858887,342.5175476c-12.8383789,1.4476318-26.0986328,0.7247314-38.6958008-2.0490723 c8.1972961,1.3262024-0.9040833-13.0193176-7.2930298-21.6369324 c-9.3425598-12.5980835-23.506897-28.9927063-36.4655151-42.9758911 c-21.578064-23.3254852-49.6655579-50.568924-49.6655579-50.568924 c-0.0602417-14.3455353,2.4109802-28.1484222,7.0520325-40.9874878c0,0,43.9997253,42.6135101,80.8871765,83.9615021 c23.8081055,26.7026672,38.5751038,46.4707642,45.3257141,58.4655151 C432.2281189,333.4180298,434.5788879,341.4341431,427.2858887,342.5175476"/>
		<path
			d="M496.7029724,157.5966034c-21.578064-23.927002-43.336853-44.9035797-43.336853-44.9035797 c40.7449036,14.1652679,71.3638611,49.4248352,78.2954407,92.8826294l-0.2411499,3.5555725 C532.3849487,207.0214233,531.480835,196.2333069,496.7029724,157.5966034"/>
		<path
			d="M531.9812012,241.7144623c-1.8084106,13.8635864-6.8713379,28.1484222-12.7178955,38.7562714 c0.843811-1.6260376,0.843811-6.4489441-6.1480103-18.2616272c-13.440979-22.6633148-48.3995667-62.5655365-68.5309448-83.9008026 c-28.630127-30.3796234-65.5778198-66.9047012-65.5778198-66.9047012s9.5835571-3.0129471,19.2273254-4.2195969 c15.1888733-1.8669968,22.1806946-0.6621857,22.1806946-0.6621857s58.8874207,59.0081329,78.8378601,83.4188843 C519.2633057,214.3514557,533.0057373,233.7590179,531.9812012,241.7144623"/>
		<path
			d="M496.1966858,310.6020203c-9.4630432,8.9211426-20.9754333,16.6962891-32.1861572,21.7601929 c1.5669556-1.1459656,4.5203552-6.0277405-7.17276-23.5075989c-12.0545349-18.0813599-34.9585876-47.315033-55.9338074-69.6766968 c-25.0136108-26.5205536-82.6352844-84.6844025-82.6352844-84.6844025s5.7863159-8.1963806,14.5260315-16.3339233 c8.3780212-7.7144623,15.7315063-12.3552856,15.7315063-12.3552856s33.2709351,34.0547638,82.9364929,86.1908722 c32.2463989,33.8744965,51.6544189,61.1786194,60.7557983,76.0649414 C497.1007385,296.0762634,501.1389465,305.9023438,496.1966858,310.6020203"/>
		<path
			d="M114.8874359,141.1431122h41.9504089v21.9404297 c11.6328583-15.4896393,30.0161133-25.1336365,52.3175201-25.1336365c40.0215607,0,67.446167,28.9908752,67.446167,68.7109985 v100.7184906h-41.9503937v-93.3038483c0-22.2420959-16.1534271-38.0940857-38.7560425-38.0940857 s-39.057251,15.8519897-39.057251,38.0940857v93.3038483h-41.9504089V141.1431122z"/>
		<polygon
			points="530.0102539,141.1431122 575.2154541,141.1431122 621.0233765,263.5003662 667.1928711,141.1431122 709.5049438,141.1431122 643.3245239,307.3793945 596.1906738,307.3793945"/>
		<path
			d="M843.083313,286.7283936c-13.1998291,14.8274536-31.6435547,23.8681335-53.8847046,23.8681335 c-45.5064697,0-80.4050293-37.4300842-80.4050293-86.4925385c0-48.7626495,34.8985596-86.1927185,80.4050293-86.1927185 c22.2411499,0,40.6848755,9.0425262,53.8847046,24.2304993v-20.9747467h41.9503784v166.234436H843.083313V286.7283936z M797.5768433,272.2007751c25.8572388,0,45.5064697-20.6730957,45.5064697-48.0967865 c0-27.1238861-19.649231-47.7969513-45.5064697-47.7969513c-25.7971802,0-45.2052002,20.6730652-45.2052002,47.7969513 C752.3716431,251.5276794,771.7796631,272.2007751,797.5768433,272.2007751"/>
	</g>
</g>
</svg>
