<?xml version="1.0" encoding="UTF-8" standalone="no"?>
<svg
   xmlns:dc="http://purl.org/dc/elements/1.1/"
   xmlns:cc="http://creativecommons.org/ns#"
   xmlns:rdf="http://www.w3.org/1999/02/22-rdf-syntax-ns#"
   xmlns:svg="http://www.w3.org/2000/svg"
   xmlns="http://www.w3.org/2000/svg"
   xmlns:sodipodi="http://sodipodi.sourceforge.net/DTD/sodipodi-0.dtd"
   xmlns:inkscape="http://www.inkscape.org/namespaces/inkscape"
   version="1.1"
   id="Layer_1"
   x="0px"
   y="0px"
   width="132"
   height="99"
   viewBox="0 0 132 99"
   enable-background="new 0 0 1000 449.62323"
   xml:space="preserve"
   sodipodi:docname="Nova_sport_1.svg"
   inkscape:version="1.0.2 (e86c870879, 2021-01-15, custom)"><metadata
   id="metadata33"><rdf:RDF><cc:Work
       rdf:about=""><dc:format>image/svg+xml</dc:format><dc:type
         rdf:resource="http://purl.org/dc/dcmitype/StillImage" /><dc:title></dc:title></cc:Work></rdf:RDF></metadata><defs
   id="defs31" /><sodipodi:namedview
   pagecolor="#ffffff"
   bordercolor="#666666"
   borderopacity="1"
   objecttolerance="10"
   gridtolerance="10"
   guidetolerance="10"
   inkscape:pageopacity="0"
   inkscape:pageshadow="2"
   inkscape:window-width="1920"
   inkscape:window-height="1001"
   id="namedview29"
   showgrid="false"
   inkscape:zoom="1.648"
   inkscape:cx="500"
   inkscape:cy="224.81161"
   inkscape:window-x="-9"
   inkscape:window-y="-9"
   inkscape:window-maximized="1"
   inkscape:current-layer="Layer_1" />
<g
   id="g26"
   transform="matrix(0.124,0,0,0.124,4,21.62336)">
	<rect
   fill="#1f1f1d"
   width="1000"
   height="449.62323"
   id="rect2"
   x="0"
   y="0" />
	<g
   id="g24">
		<path
   fill="#ffffff"
   d="m 92.6922,91.956635 h 20.13866 v 10.551885 c 5.60739,-7.47621 14.47078,-12.118704 25.1432,-12.118704 19.23425,0 32.43884,13.988224 32.43884,33.041234 v 48.4178 h -20.13865 v -44.86002 c 0,-10.67242 -7.77822,-18.26915 -18.63118,-18.26915 -10.85321,0 -18.81221,7.59673 -18.81221,18.26915 v 44.86002 H 92.6922 Z"
   id="path4" />
		<path
   fill="#ffffff"
   d="m 224.5885,90.431213 c 24.1783,0 42.68897,17.968297 42.68897,41.422757 0,23.57592 -18.51067,41.54421 -42.68897,41.54421 -24.17853,0 -42.68919,-17.96829 -42.68919,-41.54421 0,-23.45446 18.51066,-41.422757 42.68919,-41.422757 m 0,64.515657 c 12.42072,0 21.88719,-9.94835 21.88719,-23.0929 0,-13.02401 -9.46647,-22.97236 -21.88719,-22.97236 -12.42094,0 -21.70639,9.94835 -21.70639,22.97236 0,13.14455 9.28545,23.0929 21.70639,23.0929"
   id="path6" />
		<polygon
   fill="#ffffff"
   points="288.18802,91.956635 310.25623,150.74507 332.3847,91.956635 352.76465,91.956635 320.92865,171.84885 298.25735,171.84885 266.48187,91.956635 "
   id="polygon8" />
		<path
   fill="#ffffff"
   d="m 416.96103,161.94189 c -6.39124,7.11464 -15.19461,11.45629 -25.92706,11.45629 -21.88718,0 -38.6493,-17.96829 -38.6493,-41.54421 0,-23.45446 16.76212,-41.422757 38.6493,-41.422757 10.73245,0 19.53582,4.341652 25.92706,11.636617 V 91.938232 h 20.13867 v 79.952008 h -20.13867 z m -21.88718,-6.99502 c 12.42072,0 21.88718,-9.94835 21.88718,-23.0929 0,-13.02401 -9.46646,-22.97236 -21.88718,-22.97236 -12.42093,0 -21.70639,9.94835 -21.70639,22.97236 0,13.14455 9.28546,23.0929 21.70639,23.0929"
   id="path10" />
		<polygon
   fill="#d32339"
   points="907.38599,356.93701 907.38599,324.67871 883.2077,324.67871 883.2077,204.26906 817.60614,225.19159 817.60614,257.44986 846.66846,251.05838 846.66846,324.67871 817.60614,324.67871 817.60614,356.93701 "
   id="polygon12" />
		<path
   fill="#ffffff"
   d="m 124.58247,309.31503 c 2.35139,10.73316 9.22521,16.34076 22.36953,16.34076 11.15474,0 18.2696,-4.28091 18.2696,-11.81787 0,-25.80698 -74.40466,-8.3815 -74.40466,-63.25059 0,-26.40871 24.29906,-46.18579 55.04964,-46.18579 31.41392,0 52.45721,16.94245 56.13505,42.32716 l -37.02131,7.53693 c -2.35161,-11.21523 -8.80313,-16.33983 -20.37993,-16.33983 -9.88832,0 -15.918,4.28093 -15.918,11.57681 0,23.69551 74.40465,6.45128 74.40465,63.24968 0,26.46942 -24.96241,46.42776 -57.22046,46.42776 -32.43885,0 -55.04964,-17.60672 -58.24538,-42.56912 z"
   id="path14" />
		<path
   fill="#ffffff"
   d="m 226.71678,206.5121 h 66.44567 c 35.69482,0 58.24536,22.36975 58.24536,52.6978 0,30.32898 -22.55054,51.61307 -58.24536,51.61307 h -29.90668 v 46.24652 h -36.53899 z m 66.44567,72.0526 c 12.48095,0 20.43997,-8.38062 20.43997,-19.77619 0,-11.63751 -7.95902,-20.01812 -20.43997,-20.01812 h -29.90668 v 39.79431 z"
   id="path16" />
		<path
   fill="#ffffff"
   d="m 444.96231,204.40247 c 44.92004,0 79.52951,33.7653 79.52951,77.35842 0,43.65384 -34.60947,77.42008 -79.52951,77.42008 -44.92026,0 -79.59021,-33.76624 -79.59021,-77.42008 0,-43.59312 34.66995,-77.35842 79.59021,-77.35842 m 0,121.25332 c 23.63571,0 41.72431,-19.11282 41.72431,-43.8949 0,-24.72042 -18.0886,-43.83418 -41.72431,-43.83418 -23.63592,0 -41.72452,19.11376 -41.72452,43.83418 0,24.78208 18.0886,43.8949 41.72452,43.8949"
   id="path18" />
		<path
   fill="#ffffff"
   d="m 597.41937,307.60928 h -14.83258 v 49.44181 H 546.04755 V 206.55443 h 66.62671 c 34.18731,0 55.89373,21.46443 55.89373,50.52742 0,21.04306 -11.57678,38.04623 -30.75055,46.00546 l 35.09174,53.96378 h -43.47284 z m 15.25489,-33.34393 c 10.97369,0 18.08856,-7.53693 18.08856,-17.60577 0,-10.37065 -7.11487,-17.9076 -18.08856,-17.9076 h -30.08747 v 35.51337 z"
   id="path20" />
		<polygon
   fill="#ffffff"
   points="721.47119,238.77591 677.39502,238.77591 677.39502,206.51854 802.08606,206.51854 802.08606,238.77591 758.01019,238.77591 758.01019,357.07593 721.47119,357.07593 "
   id="polygon22" />
	</g>
</g>
</svg>
