<?xml version="1.0" encoding="UTF-8" standalone="no"?>
<svg
   xmlns:dc="http://purl.org/dc/elements/1.1/"
   xmlns:cc="http://creativecommons.org/ns#"
   xmlns:rdf="http://www.w3.org/1999/02/22-rdf-syntax-ns#"
   xmlns:svg="http://www.w3.org/2000/svg"
   xmlns="http://www.w3.org/2000/svg"
   xmlns:sodipodi="http://sodipodi.sourceforge.net/DTD/sodipodi-0.dtd"
   xmlns:inkscape="http://www.inkscape.org/namespaces/inkscape"
   version="1.1"
   id="Layer_1"
   x="0px"
   y="0px"
   width="132"
   height="99"
   viewBox="0 0 132 99"
   enable-background="new 0 0 1000 432.0895081"
   xml:space="preserve"
   sodipodi:docname="Nova_Cinema.svg"
   inkscape:version="1.0.2 (e86c870879, 2021-01-15, custom)"><metadata
   id="metadata33"><rdf:RDF><cc:Work
       rdf:about=""><dc:format>image/svg+xml</dc:format><dc:type
         rdf:resource="http://purl.org/dc/dcmitype/StillImage" /><dc:title></dc:title></cc:Work></rdf:RDF></metadata><defs
   id="defs31" /><sodipodi:namedview
   pagecolor="#ffffff"
   bordercolor="#666666"
   borderopacity="1"
   objecttolerance="10"
   gridtolerance="10"
   guidetolerance="10"
   inkscape:pageopacity="0"
   inkscape:pageshadow="2"
   inkscape:window-width="1920"
   inkscape:window-height="1001"
   id="namedview29"
   showgrid="false"
   inkscape:zoom="1.648"
   inkscape:cx="500"
   inkscape:cy="216.04475"
   inkscape:window-x="-9"
   inkscape:window-y="-9"
   inkscape:window-maximized="1"
   inkscape:current-layer="Layer_1" />
<g
   id="g26"
   transform="matrix(0.124,0,0,0.124,4,22.710451)">
	<rect
   fill="#65388b"
   width="1000"
   height="432.08951"
   id="rect2"
   x="0"
   y="0" />
	<g
   id="g24">
		<path
   fill="#ffffff"
   d="M 89.071571,88.445808 H 108.4249 v 10.141289 c 5.38871,-7.184669 13.90647,-11.646126 24.16269,-11.646126 18.4842,0 31.17384,13.442739 31.17384,31.751859 v 46.52967 h -19.35332 v -43.10975 c 0,-10.25622 -7.47488,-17.55759 -17.90463,-17.55759 -10.42996,0 -18.07858,7.30137 -18.07858,17.55759 V 165.2225 H 89.071571 Z"
   id="path4" />
		<path
   fill="#ffffff"
   d="m 215.83035,86.981644 c 23.23545,0 41.02423,17.267596 41.02423,39.806536 0,22.65742 -17.78878,39.92502 -41.02423,39.92502 -23.23565,0 -41.02446,-17.2676 -41.02446,-39.92502 0,-22.53894 17.78881,-39.806536 41.02446,-39.806536 m 0,61.998886 c 11.93634,0 21.03366,-9.55951 21.03366,-22.19235 0,-12.57272 -9.09732,-22.07564 -21.03366,-22.07564 -11.93657,0 -20.85992,9.50292 -20.85992,22.07564 0,12.63284 8.92335,22.19235 20.85992,22.19235"
   id="path6" />
		<polygon
   fill="#ffffff"
   points="286.62042,165.2225 256.08405,88.445808 276.94376,88.445808 298.15137,144.9417 319.4169,88.445808 339.00211,88.445808 308.40762,165.2225 "
   id="polygon8" />
		<path
   fill="#ffffff"
   d="m 400.70105,155.70366 c -6.14203,6.83632 -14.60208,11.00954 -24.91602,11.00954 -21.03366,0 -37.14212,-17.2676 -37.14212,-39.92502 0,-22.53894 16.10846,-39.806536 37.14212,-39.806536 10.31394,0 18.77399,4.171455 24.91602,11.182823 v -9.734573 h 19.35333 v 76.833286 h -19.35333 z m -21.03366,-6.72313 c 11.93634,0 21.03366,-9.55951 21.03366,-22.19235 0,-12.57272 -9.09732,-22.07564 -21.03366,-22.07564 -11.93659,0 -20.85993,9.50292 -20.85993,22.07564 0,12.63284 8.92334,22.19235 20.85993,22.19235"
   id="path10" />
		<path
   fill="#ffffff"
   d="m 152.94929,196.52875 c 34.24497,0 58.40767,20.62916 68.14225,41.89493 l -32.62255,12.39941 c -6.0262,-12.16777 -18.83189,-22.07564 -35.5197,-22.07564 -22.71423,0 -40.03951,18.36749 -40.03951,42.06645 0,23.7573 17.32528,42.12479 40.03951,42.12479 16.68781,0 29.4935,-9.90787 35.5197,-22.07565 l 32.62255,12.39944 c -9.73458,21.26575 -33.89728,41.89313 -68.14225,41.89313 -43.16854,0 -76.370425,-32.3902 -76.370425,-74.34171 0,-41.89315 33.201885,-74.28515 76.370425,-74.28515"
   id="path12" />
		<rect
   x="240.87367"
   y="198.57469"
   fill="#ffffff"
   width="35.114094"
   height="144.51201"
   id="rect14" />
		<polygon
   fill="#ffffff"
   points="401.2457,343.10614 338.31842,257.63818 338.31842,343.10614 303.20435,343.10614 303.20435,198.59238 337.27536,198.59238 400.20282,284.06033 400.20282,198.59238 435.31693,198.59238 435.31693,343.10614 "
   id="polygon16" />
		<polygon
   fill="#ffffff"
   points="559.862,286.32025 497.9776,286.32025 497.9776,312.1058 561.94794,312.1058 561.94794,343.10614 462.86349,343.10614 462.86349,198.59238 561.94794,198.59238 561.94794,229.53612 497.9776,229.53612 497.9776,255.37828 559.862,255.37828 "
   id="polygon18" />
		<polygon
   fill="#ffffff"
   points="722.8761,343.10614 722.8761,254.74168 687.81989,343.10614 656.64606,343.10614 621.76361,254.97333 621.76361,343.10614 587.69263,343.10614 587.69263,198.59238 635.61243,198.59238 673.33386,298.25638 711.11346,198.59238 756.94733,198.59238 756.94733,343.10614 "
   id="polygon20" />
		<path
   fill="#ffffff"
   d="m 827.44232,198.58 h 39.22809 l 56.7854,144.51201 h -37.60583 l -10.8935,-28.50702 h -58.00207 l -10.77765,28.50702 h -35.51972 z m 1.04309,85.06127 h 34.65058 l -17.32532,-46.00626 z"
   id="path22" />
	</g>
</g>
</svg>
