<?xml version="1.0" encoding="UTF-8" standalone="no"?>
<svg
   xmlns:dc="http://purl.org/dc/elements/1.1/"
   xmlns:cc="http://creativecommons.org/ns#"
   xmlns:rdf="http://www.w3.org/1999/02/22-rdf-syntax-ns#"
   xmlns:svg="http://www.w3.org/2000/svg"
   xmlns="http://www.w3.org/2000/svg"
   xmlns:sodipodi="http://sodipodi.sourceforge.net/DTD/sodipodi-0.dtd"
   xmlns:inkscape="http://www.inkscape.org/namespaces/inkscape"
   version="1.1"
   id="Layer_1"
   x="0px"
   y="0px"
   width="132"
   height="99"
   viewBox="0 0 132 99"
   enable-background="new 0 0 1000 441.007782"
   xml:space="preserve"
   sodipodi:docname="Nova_sport_2.svg"
   inkscape:version="1.0.2 (e86c870879, 2021-01-15, custom)"><metadata
   id="metadata33"><rdf:RDF><cc:Work
       rdf:about=""><dc:format>image/svg+xml</dc:format><dc:type
         rdf:resource="http://purl.org/dc/dcmitype/StillImage" /><dc:title></dc:title></cc:Work></rdf:RDF></metadata><defs
   id="defs31" /><sodipodi:namedview
   pagecolor="#ffffff"
   bordercolor="#666666"
   borderopacity="1"
   objecttolerance="10"
   gridtolerance="10"
   guidetolerance="10"
   inkscape:pageopacity="0"
   inkscape:pageshadow="2"
   inkscape:window-width="1920"
   inkscape:window-height="1001"
   id="namedview29"
   showgrid="false"
   inkscape:zoom="1.648"
   inkscape:cx="500"
   inkscape:cy="220.50389"
   inkscape:window-x="-9"
   inkscape:window-y="-9"
   inkscape:window-maximized="1"
   inkscape:current-layer="Layer_1" />
<g
   id="g26"
   transform="matrix(0.124,0,0,0.124,4,22.157518)">
	<rect
   fill="#1f1f1d"
   width="1000"
   height="441.00778"
   id="rect2"
   x="0"
   y="0" />
	<g
   id="g24">
		<path
   fill="#ffffff"
   d="m 90.951508,90.188293 h 19.752772 v 10.349697 c 5.49994,-7.33295 14.19349,-11.886493 24.66141,-11.886493 18.86571,0 31.81726,13.720183 31.81726,32.408123 v 47.49003 h -19.75276 v -44.00043 c 0,-10.46791 -7.62918,-17.91909 -18.27418,-17.91909 -10.64524,0 -18.45173,7.45118 -18.45173,17.91909 v 44.00043 H 90.951508 Z"
   id="path4" />
		<path
   fill="#ffffff"
   d="m 220.32634,88.693008 c 23.71501,0 41.87099,17.623992 41.87099,40.629042 0,23.12416 -18.15598,40.74816 -41.87099,40.74816 -23.71524,0 -41.8712,-17.624 -41.8712,-40.74816 0,-23.00505 18.15596,-40.629042 41.8712,-40.629042 m 0,63.279432 c 12.18271,0 21.4678,-9.75772 21.4678,-22.65039 0,-12.83312 -9.28509,-22.53219 -21.4678,-22.53219 -12.18294,0 -21.29047,9.69907 -21.29047,22.53219 0,12.89267 9.10753,22.65039 21.29047,22.65039"
   id="path6" />
		<polygon
   fill="#ffffff"
   points="314.82047,168.54965 292.58359,168.54965 261.41696,90.188294 282.70721,90.188294 304.35254,147.85025 326.05701,90.188294 346.04645,90.188294 "
   id="polygon8" />
		<path
   fill="#ffffff"
   d="m 409.01883,158.83344 c -6.2688,6.97831 -14.90347,11.23677 -25.43027,11.23677 -21.4678,0 -37.90872,-17.624 -37.90872,-40.74816 0,-23.00505 16.44092,-40.629042 37.90872,-40.629042 10.5268,0 19.16147,4.258454 25.43027,11.413632 v -9.93549 h 19.75278 v 78.42001 h -19.75278 z m -21.4678,-6.861 c 12.1827,0 21.4678,-9.75772 21.4678,-22.65039 0,-12.83312 -9.2851,-22.53219 -21.4678,-22.53219 -12.18293,0 -21.29047,9.69907 -21.29047,22.53219 0,12.89267 9.10754,22.65039 21.29047,22.65039"
   id="path10" />
		<path
   fill="#31bad4"
   d="m 799.44403,318.56387 61.38733,-51.03738 c 5.49994,-4.6131 10.11304,-10.76392 10.11304,-19.16171 0,-8.04314 -5.26349,-15.02146 -17.74225,-15.02146 -10.29035,0 -17.68286,6.15081 -17.68286,19.39814 l -37.1399,-4.1989 c 2.12903,-31.64017 23.0055,-48.08112 54.82276,-48.08112 32.29059,0 54.88214,17.50578 54.88214,46.8394 0,19.1608 -11.17743,35.01065 -24.72052,45.53723 l -32.05396,25.7258 h 57.77973 v 31.64017 H 799.44403 Z"
   id="path12" />
		<path
   fill="#ffffff"
   d="m 122.23658,303.37637 c 2.30632,10.52747 9.04842,16.02765 21.94088,16.02765 10.94099,0 17.91954,-4.19891 17.91954,-11.59143 0,-25.31247 -72.978958,-8.22092 -72.978958,-62.03862 0,-25.90266 23.833448,-45.3008 53.994798,-45.3008 30.812,0 51.45206,16.61782 55.05943,41.51612 l -36.31193,7.3925 c -2.30655,-10.94077 -8.63445,-16.02673 -19.98943,-16.02673 -9.69884,0 -15.61298,4.19889 -15.61298,11.41363 0,23.18282 72.97895,6.32858 72.97895,61.97908 0,25.96222 -24.48409,45.53812 -56.12404,45.53812 -31.81726,0 -53.994798,-17.26935 -57.129312,-41.75342 z"
   id="path14" />
		<path
   fill="#ffffff"
   d="m 222.41406,202.55502 h 65.17246 c 35.01089,0 57.12933,21.94112 57.12933,51.68804 0,29.74782 -22.11844,50.6241 -57.12933,50.6241 H 258.2529 v 45.36035 h -35.83884 z m 65.17246,70.67197 c 12.24182,0 20.04831,-8.22003 20.04831,-19.39723 0,-11.41454 -7.80649,-19.63455 -20.04831,-19.63455 H 258.2529 v 39.03178 z"
   id="path16" />
		<path
   fill="#ffffff"
   d="m 436.48334,200.48581 c 44.05932,0 78.00561,33.05876 78.00561,75.87613 0,42.81737 -33.94629,75.93658 -78.00561,75.93658 -44.05954,0 -78.06513,-33.1192 -78.06513,-75.93658 0,-42.81738 34.00559,-75.87613 78.06513,-75.87613 m 0,118.92993 c 23.18283,0 40.9248,-18.74658 40.9248,-43.0538 0,-24.24675 -17.74197,-42.99425 -40.9248,-42.99425 -23.18305,0 -40.92502,18.7475 -40.92502,42.99425 0,24.30722 17.74197,43.0538 40.92502,43.0538"
   id="path18" />
		<path
   fill="#ffffff"
   d="M 586.01904,301.70963 H 571.4707 v 48.49441 H 535.57251 V 202.59113 h 65.40912 c 33.53229,0 54.82275,21.05313 54.82275,49.55925 0,20.63984 -11.35498,37.31721 -30.16131,45.12391 l 34.41931,52.92975 h -42.63977 z m 14.96259,-32.70502 c 10.76349,0 17.742,-7.39249 17.742,-17.26843 0,-10.17193 -6.97851,-17.56444 -17.742,-17.56444 H 571.4707 v 34.83287 z"
   id="path20" />
		<polygon
   fill="#ffffff"
   points="743.53882,234.20061 743.53882,350.17517 707.70001,350.17517 707.70001,234.20061 664.46838,234.20061 664.46838,202.56134 786.7702,202.56134 786.7702,234.20061 "
   id="polygon22" />
	</g>
</g>
</svg>
