<?xml version="1.0" encoding="UTF-8" standalone="no"?>
<svg
   xmlns:dc="http://purl.org/dc/elements/1.1/"
   xmlns:cc="http://creativecommons.org/ns#"
   xmlns:rdf="http://www.w3.org/1999/02/22-rdf-syntax-ns#"
   xmlns:svg="http://www.w3.org/2000/svg"
   xmlns="http://www.w3.org/2000/svg"
   xmlns:sodipodi="http://sodipodi.sourceforge.net/DTD/sodipodi-0.dtd"
   xmlns:inkscape="http://www.inkscape.org/namespaces/inkscape"
   version="1.1"
   id="Layer_1"
   x="0px"
   y="0px"
   width="132"
   height="99"
   viewBox="0 0 132 99"
   enable-background="new 0 0 1000 444.1598816"
   xml:space="preserve"
   sodipodi:docname="Nova_Action.svg"
   inkscape:version="1.0.2 (e86c870879, 2021-01-15, custom)"><metadata
   id="metadata33"><rdf:RDF><cc:Work
       rdf:about=""><dc:format>image/svg+xml</dc:format><dc:type
         rdf:resource="http://purl.org/dc/dcmitype/StillImage" /><dc:title></dc:title></cc:Work></rdf:RDF></metadata><defs
   id="defs31" /><sodipodi:namedview
   pagecolor="#ffffff"
   bordercolor="#666666"
   borderopacity="1"
   objecttolerance="10"
   gridtolerance="10"
   guidetolerance="10"
   inkscape:pageopacity="0"
   inkscape:pageshadow="2"
   inkscape:window-width="1920"
   inkscape:window-height="1001"
   id="namedview29"
   showgrid="false"
   inkscape:zoom="0.824"
   inkscape:cx="388.36527"
   inkscape:cy="393.02339"
   inkscape:window-x="-9"
   inkscape:window-y="-9"
   inkscape:window-maximized="1"
   inkscape:current-layer="Layer_1" />
<g
   id="g26"
   transform="matrix(0.124,0,0,0.124,4,21.962087)">
	<rect
   fill="#f6a733"
   width="1000"
   height="444.15988"
   id="rect2"
   x="0"
   y="0" />
	<g
   id="g24">
		<path
   fill="#ffffff"
   d="m 91.542275,90.923798 h 19.893955 v 10.424582 c 5.53925,-7.385367 14.29495,-11.971457 24.83768,-11.971457 19.00055,0 32.04468,13.818257 32.04468,32.638847 v 47.82948 h -19.89395 v -44.31402 c 0,-10.54273 -7.6837,-18.04807 -18.4048,-18.04807 -10.72132,0 -18.58361,7.50533 -18.58361,18.04807 v 44.31402 H 91.542275 Z"
   id="path4" />
		<path
   fill="#ffffff"
   d="m 221.84181,89.411461 c 23.88452,0 42.17024,17.749959 42.17024,40.918529 0,23.29034 -18.28572,41.04031 -42.17024,41.04031 -23.88473,0 -42.17047,-17.74997 -42.17047,-41.04031 0,-23.16857 18.28574,-40.918529 42.17047,-40.918529 m 0,63.730809 c 12.26979,0 21.62125,-9.82655 21.62125,-22.81228 0,-12.86577 -9.35146,-22.69233 -21.62125,-22.69233 -12.27,0 -21.44264,9.82656 -21.44264,22.69233 0,12.98573 9.17264,22.81228 21.44264,22.81228"
   id="path6" />
		<polygon
   fill="#ffffff"
   points="263.22589,90.923798 284.66834,90.923798 306.46838,148.99789 328.32797,90.923798 348.46027,90.923798 317.01111,169.84525 294.6153,169.84525 "
   id="polygon8" />
		<path
   fill="#ffffff"
   d="m 411.88275,160.05322 c -6.3136,7.02729 -15.00998,11.31708 -25.61203,11.31708 -21.62121,0 -38.17969,-17.74997 -38.17969,-41.04031 0,-23.16857 16.55848,-40.918529 38.17969,-40.918529 10.60205,0 19.29843,4.287987 25.61203,11.495219 V 90.900169 h 19.89395 v 78.979611 h -19.89395 z m -21.62124,-6.91095 c 12.2698,0 21.62124,-9.82655 21.62124,-22.81228 0,-12.86577 -9.35144,-22.69233 -21.62124,-22.69233 -12.27002,0 -21.44263,9.82656 -21.44263,22.69233 0,12.98573 9.17261,22.81228 21.44263,22.81228"
   id="path10" />
		<path
   fill="#ffffff"
   d="m 139.63304,204.10548 h 40.32391 l 58.37174,148.54894 h -38.65637 l -11.1978,-29.30335 h -59.62233 l -11.07873,29.30335 H 81.321053 Z m 1.07222,87.43743 h 35.61853 l -17.80926,-47.29143 z"
   id="path12" />
		<path
   fill="#ffffff"
   d="m 317.48779,202.00784 c 35.2016,0 60.03928,21.20543 70.04578,43.06525 l -33.53384,12.74579 c -6.19452,-12.50768 -19.35795,-22.69231 -36.51194,-22.69231 -23.34872,0 -41.15799,18.88057 -41.15799,43.24156 0,24.42096 17.80927,43.30155 41.15799,43.30155 17.15399,0 30.31742,-10.18463 36.51194,-22.69232 l 33.53384,12.74578 c -10.0065,21.85984 -34.84418,43.06345 -70.04578,43.06345 -44.37445,0 -78.50381,-33.29504 -78.50381,-76.41846 0,-43.06343 34.12936,-76.36029 78.50381,-76.36029"
   id="path14" />
		<polygon
   fill="#ffffff"
   points="442.2063,352.63803 442.2063,235.95363 398.72525,235.95363 398.72525,204.14729 521.7821,204.14729 521.7821,235.95363 478.30127,235.95363 478.30127,352.63803 "
   id="polygon16" />
		<rect
   x="536.66101"
   y="204.12184"
   fill="#ffffff"
   width="36.094997"
   height="148.54892"
   id="rect18" />
		<path
   fill="#ffffff"
   d="m 672.61316,202.01512 c 44.3147,0 78.5036,33.29503 78.5036,76.35848 0,43.12341 -34.1889,76.42025 -78.5036,76.42025 -44.37445,0 -78.50385,-33.29684 -78.50385,-76.42025 0,-43.06345 34.1294,-76.35848 78.50385,-76.35848 m 0,119.66002 c 23.34851,0 41.15778,-18.88058 41.15778,-43.30154 0,-24.361 -17.80927,-43.24158 -41.15778,-43.24158 -23.34876,0 -41.15802,18.88058 -41.15802,43.24158 0,24.42096 17.80926,43.30154 41.15802,43.30154"
   id="path20" />
		<polygon
   fill="#ffffff"
   points="808.70801,264.82434 808.70801,352.67984 772.61304,352.67984 772.61304,204.12912 807.6358,204.12912 872.32117,291.98462 872.32117,204.12912 908.41614,204.12912 908.41614,352.67984 873.39313,352.67984 "
   id="polygon22" />
	</g>
</g>
</svg>
