<?xml version="1.0" encoding="UTF-8" standalone="no"?>
<svg
   xmlns:dc="http://purl.org/dc/elements/1.1/"
   xmlns:cc="http://creativecommons.org/ns#"
   xmlns:rdf="http://www.w3.org/1999/02/22-rdf-syntax-ns#"
   xmlns:svg="http://www.w3.org/2000/svg"
   xmlns="http://www.w3.org/2000/svg"
   xmlns:sodipodi="http://sodipodi.sourceforge.net/DTD/sodipodi-0.dtd"
   xmlns:inkscape="http://www.inkscape.org/namespaces/inkscape"
   version="1.1"
   id="Layer_1"
   x="0px"
   y="0px"
   width="132"
   height="99"
   viewBox="0 0 132 99.000001"
   enable-background="new 0 0 1000 582.2597656"
   xml:space="preserve"
   sodipodi:docname="Nova_Gold.svg"
   inkscape:version="1.0.2 (e86c870879, 2021-01-15, custom)"><metadata
   id="metadata29"><rdf:RDF><cc:Work
       rdf:about=""><dc:format>image/svg+xml</dc:format><dc:type
         rdf:resource="http://purl.org/dc/dcmitype/StillImage" /><dc:title></dc:title></cc:Work></rdf:RDF></metadata><defs
   id="defs27" /><sodipodi:namedview
   pagecolor="#ffffff"
   bordercolor="#666666"
   borderopacity="1"
   objecttolerance="10"
   gridtolerance="10"
   guidetolerance="10"
   inkscape:pageopacity="0"
   inkscape:pageshadow="2"
   inkscape:window-width="1920"
   inkscape:window-height="1001"
   id="namedview25"
   showgrid="false"
   inkscape:zoom="1.4048712"
   inkscape:cx="500"
   inkscape:cy="234.18516"
   inkscape:window-x="-9"
   inkscape:window-y="-9"
   inkscape:window-maximized="1"
   inkscape:current-layer="Layer_1" />
<g
   id="g22"
   transform="matrix(0.124,0,0,0.124,4,13.4)">
	<rect
   fill="#9a7325"
   width="1000"
   height="582.25977"
   id="rect2"
   x="0"
   y="0" />
	<g
   id="g20">
		<path
   fill="#ffffff"
   d="m 119.80956,119.27758 h 26.07946 v 13.66584 c 7.26154,-9.68166 18.73958,-15.69367 32.56031,-15.69367 24.90827,0 42.00813,18.11468 42.00813,42.78704 v 62.70079 h -26.07945 v -58.09229 c 0,-13.82072 -10.07274,-23.65965 -24.12729,-23.65965 -14.05484,0 -24.3617,9.83893 -24.3617,23.65965 v 58.09229 h -26.07946 z"
   id="path4" />
		<path
   fill="#ffffff"
   d="m 290.62234,117.30456 c 31.3108,0 55.28199,23.26885 55.28199,53.64107 0,30.53188 -23.97119,53.80072 -55.28199,53.80072 -31.31109,0 -55.28228,-23.26884 -55.28228,-53.80072 0,-30.37222 23.97119,-53.64107 55.28228,-53.64107 m 0,83.54625 c 16.08475,0 28.34379,-12.88186 28.34379,-29.90518 0,-16.86604 -12.25904,-29.74791 -28.34379,-29.74791 -16.08505,0 -28.10968,12.88187 -28.10968,29.74791 0,17.02332 12.02463,29.90518 28.10968,29.90518"
   id="path6" />
		<polygon
   fill="#ffffff"
   points="386.03088,222.73758 344.88177,119.27758 372.99115,119.27758 401.56937,195.40831 430.22562,119.27758 456.61752,119.27758 415.39008,222.73758 "
   id="polygon8" />
		<path
   fill="#ffffff"
   d="m 539.75958,209.91052 c -8.27661,9.21224 -19.67694,14.83583 -33.57541,14.83583 -28.34378,0 -50.05066,-23.26884 -50.05066,-53.80072 0,-30.37222 21.70688,-53.64107 50.05066,-53.64107 13.89847,0 25.2988,5.62121 33.57541,15.06934 v -13.11777 h 26.07947 v 103.53626 h -26.07947 z m -28.34378,-9.05971 c 16.08475,0 28.34378,-12.88186 28.34378,-29.90518 0,-16.86604 -12.25903,-29.74791 -28.34378,-29.74791 -16.08505,0 -28.10968,12.88187 -28.10968,29.74791 0,17.02332 12.02463,29.90518 28.10968,29.90518"
   id="path10" />
		<path
   fill="#ffffff"
   d="m 205.89537,264.83835 c 46.14661,0 78.70692,27.79873 91.82469,56.45526 l -43.96032,16.70877 c -8.12056,-16.39661 -25.37681,-29.74789 -47.86437,-29.74789 -30.60843,0 -53.95502,24.751 -53.95502,56.6864 0,32.01404 23.34659,56.76504 53.95502,56.76504 25.29848,0 42.00813,-14.44504 47.3178,-28.89007 h -63.71531 v -41.77433 h 116.81131 c 7.49594,70.43085 -44.50689,114.07813 -100.4138,114.07813 -58.17152,0 -102.91254,-43.64728 -102.91254,-100.17877 0,-56.45288 44.74102,-100.10254 102.91254,-100.10254"
   id="path12" />
		<path
   fill="#ffffff"
   d="m 430.49905,264.85028 c 58.17124,0 102.91227,43.64725 102.91227,100.10013 0,56.53152 -44.74103,100.18115 -102.91227,100.18115 -58.17154,0 -102.91253,-43.64963 -102.91253,-100.18115 0,-56.45288 44.74099,-100.10013 102.91253,-100.10013 m 0,156.86517 c 30.60813,0 53.95472,-24.751 53.95472,-56.76504 0,-31.9354 -23.34659,-56.6864 -53.95472,-56.6864 -30.60843,0 -53.95501,24.751 -53.95501,56.6864 0,32.01404 23.34658,56.76504 53.95501,56.76504"
   id="path14" />
		<polygon
   fill="#ffffff"
   points="561.59125,267.61917 608.90906,267.61917 608.90906,420.58359 695.11194,420.58359 695.11194,462.35791 561.59125,462.35791 "
   id="polygon16" />
		<path
   fill="#ffffff"
   d="m 715.78046,267.64301 h 80.89318 c 57.85914,0 99.86725,42.24136 99.86725,97.36935 0,55.047 -42.00811,97.29074 -99.86725,97.29074 h -80.89318 z m 76.75506,152.962 c 33.10688,0 55.04785,-23.34509 55.04785,-55.59265 0,-32.56207 -21.94097,-55.67368 -55.04785,-55.67368 H 763.0202 v 111.26633 z"
   id="path18" />
	</g>
</g>
</svg>
