<?xml version="1.0" encoding="UTF-8" standalone="no"?>
<!DOCTYPE svg PUBLIC "-//W3C//DTD SVG 1.1//EN" "http://www.w3.org/Graphics/SVG/1.1/DTD/svg11.dtd">
<svg version="1.1" xmlns="http://www.w3.org/2000/svg" xmlns:xlink="http://www.w3.org/1999/xlink" preserveAspectRatio="xMidYMid meet" viewBox="0 0 132 99" width="132" height="99"><defs><path d="M101.11 74.5L100.63 75.56L99.84 77.37L98.88 77.37L98.59 77.99L99.58 77.99C98.87 79.57 98.47 80.45 98.39 80.63C97.54 82.48 96.2 84.32 95.42 84.32C95.26 84.32 95.16 84.25 95.16 84.07C95.16 83.92 95.2 83.74 95.4 83.28C95.65 82.71 96.04 81.9 96.34 81.3C96.76 80.44 97.44 79.08 97.44 78.42C97.44 77.74 97.01 77.22 96.17 77.22C95.22 77.22 94.37 77.79 93.58 78.61C93.62 78.53 93.79 78.11 94.1 77.37L92.16 77.37C91.21 79.52 90.68 80.71 90.58 80.95C89.95 82.22 88.66 84.32 87.86 84.32C87.7 84.32 87.63 84.22 87.63 84.05C87.63 83.96 87.67 83.78 87.75 83.61C87.82 83.45 88.76 81.27 88.76 81.27C88.87 81.01 89.44 79.7 90.47 77.36L88.39 77.36C87.4 79.64 86.84 80.9 86.73 81.16C86.21 82.34 84.91 84.32 84.08 84.32C83.91 84.32 83.8 84.24 83.8 84.03C83.8 83.82 83.95 83.44 84.07 83.17C84.13 83.04 84.42 82.41 84.94 81.27L86.74 77.36L84.67 77.36C84.42 77.88 84.29 78.17 84.26 78.23C83.96 78.83 83.44 79.53 82.63 79.53C82.24 79.53 82.05 79.37 81.96 79.22C81.84 77.9 81.01 77.2 79.77 77.2C78.05 77.2 76.83 78.21 76.03 79.44C75.49 80.25 75.13 81.14 74.81 82.16C74.07 83.37 73.3 84.31 72.7 84.31C72.54 84.31 72.45 84.22 72.45 84.02C72.45 83.79 72.65 83.35 72.72 83.19C72.86 82.9 73.93 80.61 74.07 80.33C74.44 79.44 74.71 78.85 74.71 78.28C74.71 77.66 74.28 77.22 73.57 77.22C72.59 77.22 71.53 77.78 70.7 78.71C70.73 78.58 70.75 78.42 70.75 78.26C70.75 77.58 70.41 77.22 69.7 77.22C68.8 77.22 67.89 77.75 67.05 78.71C67.08 78.62 67.27 78.17 67.61 77.36L65.71 77.36C64.76 79.51 64.23 80.7 64.12 80.94C63.37 82.62 62.16 84.31 61.46 84.31C61.3 84.31 61.21 84.23 61.21 84.03C61.21 83.7 61.56 82.9 61.7 82.58C61.91 82.11 63.59 78.29 63.8 77.81C63.96 77.46 62.95 77.24 61.67 77.24C60.35 77.24 59 77.89 58 78.72C57.31 79.29 56.79 79.58 56.52 79.58C56.39 79.58 56.33 79.51 56.33 79.43C56.33 79.14 57.03 78.31 57.03 77.69C57.03 77.41 56.88 77.22 56.48 77.22C55.73 77.22 54.84 77.94 54.18 78.69C54.22 78.6 54.4 78.16 54.74 77.37L52.9 77.37C51.95 79.52 51.43 80.71 51.32 80.95C50.56 82.63 49.32 84.39 48.63 84.39C48.46 84.39 48.37 84.31 48.37 84.1C48.37 83.78 48.71 82.99 48.9 82.58C49.11 82.11 50.79 78.29 51 77.81C51.16 77.46 50.15 77.24 48.86 77.24C46.97 77.24 45.13 78.52 44.13 79.82C43.05 81.25 42.32 82.75 42.3 83.98C42.28 84.97 42.8 85.59 43.83 85.59C44.98 85.59 45.89 84.67 46.44 84C46.43 84.07 46.38 84.32 46.38 84.41C46.38 85.09 46.65 85.59 47.48 85.59C48.21 85.59 49.2 84.98 50 83.99C49.95 84.09 49.74 84.57 49.36 85.44L51.37 85.44C52.55 82.77 53.2 81.29 53.33 80.99C53.97 79.54 54.72 78.79 54.92 78.79C54.99 78.79 55.01 78.82 55.01 78.87C55.01 79.03 54.71 79.43 54.71 79.81C54.71 80.21 54.92 80.47 55.46 80.47C55.89 80.47 56.37 80.26 56.79 80C55.79 81.37 55.1 82.8 55.1 83.98C55.09 84.97 55.6 85.59 56.62 85.59C57.71 85.59 58.7 84.57 59.25 83.89C59.23 84 59.22 84.23 59.22 84.36C59.22 85.03 59.59 85.59 60.37 85.59C61.22 85.59 61.91 85.06 62.77 84.02C62.73 84.11 62.52 84.59 62.14 85.44L64.17 85.44C65.29 82.89 65.92 81.47 66.04 81.18C66.87 79.33 67.97 78.36 68.53 78.36C68.69 78.36 68.8 78.45 68.8 78.63C68.8 78.75 68.76 78.95 68.64 79.24C68.45 79.65 67.54 81.72 65.89 85.44L67.99 85.43C69.14 82.83 69.78 81.39 69.91 81.1C70.73 79.25 71.64 78.33 72.33 78.33C72.53 78.33 72.62 78.44 72.62 78.66C72.62 78.79 72.59 78.99 72.42 79.34C72.24 79.73 70.77 82.87 70.58 83.26C70.43 83.6 70.28 84.07 70.28 84.45C70.28 85.04 70.61 85.57 71.53 85.57C72.72 85.57 73.64 84.67 74.66 83.31C74.66 83.34 74.67 83.58 74.67 83.61C74.74 84.68 75.35 85.62 76.94 85.62C78.83 85.62 80.35 84.31 81.28 82.25C81.69 81.33 81.89 80.54 81.94 79.94C82.12 80.03 82.34 80.09 82.61 80.09C82.87 80.09 83.18 80.03 83.5 79.87C83.46 79.94 83.2 80.51 83.17 80.58C82.79 81.37 82.37 82.24 82.06 82.97C81.83 83.51 81.7 84.02 81.7 84.35C81.7 85.09 82.1 85.62 82.94 85.62C83.78 85.62 84.93 84.83 85.74 83.72C85.75 83.72 85.77 83.72 85.77 83.72C85.73 83.94 85.68 84.25 85.68 84.42C85.68 85.02 85.86 85.61 86.72 85.61C87.72 85.61 88.49 84.88 89.23 83.99C89.19 84.09 88.98 84.57 88.6 85.43L90.67 85.43C91.66 83.18 92.21 81.93 92.32 81.68C93.26 79.56 94.21 78.29 95.08 78.29C95.27 78.29 95.37 78.42 95.37 78.6C95.37 78.95 94.86 79.92 94.39 80.91C93.96 81.8 93.64 82.47 93.41 83.01C93.21 83.49 93.05 84.05 93.05 84.43C93.05 85.08 93.42 85.58 94.22 85.58C95.41 85.58 96.64 84.43 97.28 83.54C97.13 83.95 97.04 84.45 97.04 84.84C97.04 86.04 97.77 86.63 98.77 86.63C99.47 86.63 100.09 86.38 100.63 86.01C101.42 85.46 102.05 84.65 102.59 83.89C102.55 83.85 102.26 83.58 102.23 83.55C101.74 84.25 101.19 84.92 100.63 85.33C100.28 85.59 99.93 85.75 99.57 85.75C99.14 85.75 98.87 85.53 98.87 84.98C98.87 84.43 99.12 83.69 99.52 82.71C99.53 82.66 100.09 81.41 100.63 80.21C101.09 79.18 101.53 78.2 101.61 78C101.7 78 102.15 78 102.95 78L103.23 77.38L101.88 77.38L103.15 74.5L101.11 74.5ZM44.28 83.84C44.29 82.83 45.13 81.04 46.19 79.61C46.92 78.63 47.88 77.89 48.91 77.89C48.78 78.19 47.73 80.51 47.6 80.8C46.62 82.99 45.56 84.33 44.78 84.33C44.48 84.33 44.28 84.23 44.28 83.84ZM57.06 83.84C57.08 82.83 57.91 81.04 58.96 79.61C59.69 78.63 60.65 77.89 61.68 77.89C61.55 78.19 60.51 80.51 60.38 80.8C59.4 83.02 58.38 84.33 57.56 84.33C57.27 84.33 57.07 84.23 57.06 83.84ZM76.93 84.91C76.45 84.91 76.31 84.52 76.37 83.94C76.47 82.93 77.3 80.59 78.47 78.96C79 78.22 79.37 77.92 79.77 77.92C80.16 77.92 80.3 78.26 80.29 78.68C80.26 79.78 79.28 82.46 78.13 84.07C77.67 84.72 77.27 84.91 76.93 84.91Z" id="c18pJeFWGD"></path><linearGradient id="gradiente1SCn1GyQy" gradientUnits="userSpaceOnUse" x1="20.31" y1="80.56" x2="111.69" y2="80.56"><stop style="stop-color: #0264a2;stop-opacity: 1" offset="0%"></stop><stop style="stop-color: #164b82;stop-opacity: 1" offset="100%"></stop></linearGradient><path d="M39.52 79.43C40.23 79.34 41.37 79.12 41.81 78.96C44.5 78.21 47.57 76.4 47.57 73.19C47.57 69.5 43.65 67.73 38.98 67.73C34 67.73 29.44 69.93 27.75 73.35C27.3 74.25 27.05 75.24 27.05 76.29C27.05 77.24 27.28 78.1 27.75 78.79C28.47 79.85 29.75 80.52 31.64 80.52C33.94 80.52 35.78 79.25 35.78 77.06C35.78 77.06 35.81 76.44 35.09 76.44C34.5 76.44 34.35 76.84 34.36 77.06C34.44 78.79 33.43 80.17 31.59 80.17C29.55 80.17 28.69 78.43 28.69 76.57C28.69 72.76 31.56 70.23 34.55 69.15C36.09 68.59 37.32 68.39 38.93 68.39C42.31 68.39 45.08 69.69 45.08 73.17C45.08 76.07 42.64 78.55 39.7 78.76C39.71 78.72 39.8 78.4 39.82 78.36C40.42 76.23 41.14 73.9 42.34 72.16C42.41 72.05 42.53 71.89 42.67 71.71C42.65 71.69 42.52 71.53 42.5 71.51C42.29 71.63 41.91 71.92 41.75 72.03C36.13 76.41 35.97 88.69 28.49 88.69C28.21 88.69 27.96 88.67 27.73 88.64C26.16 88.38 25.35 87.34 25.35 85.88C25.35 85.59 25.45 85.19 25.45 84.97C25.45 84.6 25.2 84.21 24.64 84.21C23.97 84.21 23.7 84.73 23.69 85.49C23.65 87.68 25.26 88.95 27.74 89.18C28.01 89.2 28.28 89.21 28.58 89.21C34.43 89.17 38.02 84.77 39.52 79.43" id="c2sCKvtbH"></path><linearGradient id="gradientc1w2MCjKpC" gradientUnits="userSpaceOnUse" x1="20.31" y1="78.47" x2="111.69" y2="78.47"><stop style="stop-color: #0264a2;stop-opacity: 1" offset="0%"></stop><stop style="stop-color: #164b82;stop-opacity: 1" offset="100%"></stop></linearGradient><path d="M42.5 94.92L42.5 89.9L41.47 89.9L41.47 93.02L39.25 89.9L38.37 89.9L38.37 94.92L39.41 94.92L39.41 91.81L41.63 94.92L42.5 94.92Z" id="ea9plY0NlF"></path><linearGradient id="gradientf9haUKQNs" gradientUnits="userSpaceOnUse" x1="20.31" y1="92.41" x2="111.69" y2="92.41"><stop style="stop-color: #0264a2;stop-opacity: 1" offset="0%"></stop><stop style="stop-color: #164b82;stop-opacity: 1" offset="100%"></stop></linearGradient><path d="M46.8 89.9L46.8 94.92L50.04 94.92L50.04 94L47.85 94L47.85 92.8L49.74 92.8L49.74 91.9L47.85 91.9L47.85 90.82L50.03 90.82L50.03 89.9L46.8 89.9Z" id="c4KRSU3CO"></path><linearGradient id="gradientblxokxthD" gradientUnits="userSpaceOnUse" x1="20.31" y1="92.41" x2="111.69" y2="92.41"><stop style="stop-color: #0264a2;stop-opacity: 1" offset="0%"></stop><stop style="stop-color: #164b82;stop-opacity: 1" offset="100%"></stop></linearGradient><path d="M56.58 94.92L56.58 90.82L58.28 90.82L58.28 89.9L53.86 89.9L53.86 90.82L55.55 90.82L55.55 94.92L56.58 94.92Z" id="d13h5QTWp7"></path><linearGradient id="gradientf14fGwn0r" gradientUnits="userSpaceOnUse" x1="20.31" y1="92.41" x2="111.69" y2="92.41"><stop style="stop-color: #0264a2;stop-opacity: 1" offset="0%"></stop><stop style="stop-color: #164b82;stop-opacity: 1" offset="100%"></stop></linearGradient><path d="M61.57 89.9L63.33 94.92L64.22 94.92L65.28 91.74L66.35 94.92L67.23 94.92L68.99 89.9L67.85 89.9L66.78 93.16L65.7 89.9L64.85 89.9L63.79 93.16L62.71 89.9L61.57 89.9Z" id="bNnGZ74Bd"></path><linearGradient id="gradientg1K9XQCy7D" gradientUnits="userSpaceOnUse" x1="20.31" y1="92.41" x2="111.69" y2="92.41"><stop style="stop-color: #0264a2;stop-opacity: 1" offset="0%"></stop><stop style="stop-color: #164b82;stop-opacity: 1" offset="100%"></stop></linearGradient><path d="M76.43 90.54C75.94 90.07 75.32 89.83 74.56 89.83C73.79 89.83 73.16 90.07 72.68 90.54C72.18 91.01 71.95 91.64 71.95 92.41C71.95 93.19 72.18 93.82 72.68 94.3C73.17 94.76 73.79 95 74.56 95C75.32 95 75.95 94.76 76.43 94.3C76.93 93.82 77.16 93.2 77.16 92.41C77.16 91.63 76.92 91.01 76.43 90.54M75.67 93.63C75.39 93.93 75.02 94.08 74.56 94.08C74.09 94.08 73.72 93.93 73.43 93.63C73.13 93.33 73 92.93 73 92.41C73 91.89 73.13 91.49 73.43 91.2C73.72 90.9 74.09 90.75 74.56 90.75C75.03 90.75 75.39 90.9 75.67 91.2C75.97 91.49 76.1 91.89 76.1 92.41C76.1 92.93 75.96 93.33 75.67 93.63" id="bckQ1AE0B"></path><linearGradient id="gradienta4TT8YToC" gradientUnits="userSpaceOnUse" x1="20.31" y1="92.42" x2="111.69" y2="92.42"><stop style="stop-color: #0264a2;stop-opacity: 1" offset="0%"></stop><stop style="stop-color: #164b82;stop-opacity: 1" offset="100%"></stop></linearGradient><path d="M84.78 91.51C84.78 91.01 84.63 90.61 84.33 90.33C84.04 90.04 83.64 89.9 83.15 89.9C83.01 89.9 82.29 89.9 80.99 89.9L80.99 94.92L82.03 94.92L82.03 93.11L82.87 93.11L83.86 94.92L85.03 94.92C84.39 93.73 84.03 93.08 83.96 92.94C84.47 92.7 84.78 92.2 84.78 91.51M83.02 92.19L82.03 92.19L82.03 90.82C82.63 90.82 82.96 90.82 83.02 90.82C83.43 90.82 83.72 91.06 83.72 91.51C83.72 91.94 83.43 92.19 83.02 92.19" id="a7x6V5DL48"></path><linearGradient id="gradientc1F0Qr5eA4" gradientUnits="userSpaceOnUse" x1="20.31" y1="92.41" x2="111.69" y2="92.41"><stop style="stop-color: #0264a2;stop-opacity: 1" offset="0%"></stop><stop style="stop-color: #164b82;stop-opacity: 1" offset="100%"></stop></linearGradient><path d="M90.61 92.79L92 94.92L93.23 94.92L91.3 91.96L93.03 89.9L91.69 89.9L89.98 91.98L89.98 89.9L88.94 89.9L88.94 94.92L89.98 94.92L89.98 93.53L90.61 92.79Z" id="a7k0rmZWh"></path><linearGradient id="gradientd1aAjG0ydy" gradientUnits="userSpaceOnUse" x1="20.31" y1="92.41" x2="111.69" y2="92.41"><stop style="stop-color: #0264a2;stop-opacity: 1" offset="0%"></stop><stop style="stop-color: #164b82;stop-opacity: 1" offset="100%"></stop></linearGradient><path d="M39.52 62.48L43.3 56.26L45.45 52.89L47.9 50.33L45.24 55.71L43.78 56.84L39.65 62.68L39.52 62.48ZM52.2 56.05L53.04 55.83L55.6 50.96L55.9 47.8L57.3 44.67L57.19 44.26L55.02 46.99L54.48 47.18L50.55 53.15L51.11 53.73L47.05 62.78L49.78 59.96L51.29 57.33L52.2 56.05ZM56.23 57.57L52.75 63.86L51.93 67.39L52.61 67.39L54.83 64.74L55.73 60.61L56.64 58.26L56.23 57.57ZM67.5 28.14L67.5 37.17L65.18 43.5L68.34 45.51L62.97 59.97L64 60.85L61.22 67.16L64.71 70.95L69.97 70.95L69.07 68.66L77.03 71.58L86.05 71.58L84.15 68.29L83.17 65.7L82.78 63.75L87.48 69.58L93.26 69.58L91.57 66.06L88.93 63.43L82.38 49.07L79.47 48.18L78.63 49.13L78.11 49.13L76.65 45.26L75.19 42.67L73.17 39.41L70.29 30.88L67.5 28.14ZM29.65 49.07C29.65 54.57 30.87 59.77 33.05 64.44C33.97 63.39 38.57 58.1 46.84 48.58L48.03 48.2L53.34 40.7L55.66 38.7L59.14 33.25L61.24 31.25L64.62 26.5L66.75 24.88L70.7 27.72L72.67 31.37L75.18 38.86L78.11 44.06L84.26 46.8L89.84 58.2L91.19 62.75L92.51 63.72L93.67 65.07C94.96 67.53 95.67 68.9 95.81 69.17C99.64 63.42 101.88 56.5 101.88 49.07C101.87 29.06 85.71 12.84 65.76 12.84C45.81 12.84 29.65 29.06 29.65 49.07Z" id="bUTtItWKK"></path><linearGradient id="gradientk2bHYi9yo2" gradientUnits="userSpaceOnUse" x1="20.31" y1="42.21" x2="111.69" y2="42.21"><stop style="stop-color: #0264a2;stop-opacity: 1" offset="0%"></stop><stop style="stop-color: #164b82;stop-opacity: 1" offset="100%"></stop></linearGradient><path d="M86.65 8.72L86.29 10.81L88.24 11.8L86.04 12.15L85.69 14.29L84.72 12.37L82.56 12.7L84.14 11.19L83.16 9.23L85.13 10.22L86.65 8.72Z" id="aqJM9vhW4"></path><linearGradient id="gradienta3iIiyNW1" gradientUnits="userSpaceOnUse" x1="20.31" y1="11.51" x2="111.69" y2="11.51"><stop style="stop-color: #0264a2;stop-opacity: 1" offset="0%"></stop><stop style="stop-color: #164b82;stop-opacity: 1" offset="100%"></stop></linearGradient><path d="M78.97 7.54L81.07 8.15L78.98 8.9L79.07 11.08L77.73 9.37L75.67 10.11L76.92 8.31L75.59 6.6L77.7 7.19L78.91 5.44L78.97 7.54Z" id="iOvsxibDy"></path><linearGradient id="gradientdnJ1vVJp" gradientUnits="userSpaceOnUse" x1="20.31" y1="8.26" x2="111.69" y2="8.26"><stop style="stop-color: #0264a2;stop-opacity: 1" offset="0%"></stop><stop style="stop-color: #164b82;stop-opacity: 1" offset="100%"></stop></linearGradient><path d="M93.78 12.94L93.03 14.92L94.75 16.24L92.52 16.19L91.75 18.22L91.18 16.16L88.99 16.08L90.83 14.88L90.27 12.79L91.99 14.12L93.78 12.94Z" id="abmhKxhdC"></path><linearGradient id="gradienta3EX1C9z3I" gradientUnits="userSpaceOnUse" x1="20.31" y1="15.51" x2="111.69" y2="15.51"><stop style="stop-color: #0264a2;stop-opacity: 1" offset="0%"></stop><stop style="stop-color: #164b82;stop-opacity: 1" offset="100%"></stop></linearGradient><path d="M70.93 6.07L73.1 6.27L71.2 7.4L71.7 9.51L70.06 8.09L68.18 9.2L69.06 7.21L67.43 5.75L69.61 5.95L70.44 4L70.93 6.07Z" id="abQNQFpfC"></path><linearGradient id="gradientd1WtdUbj8d" gradientUnits="userSpaceOnUse" x1="20.31" y1="6.76" x2="111.69" y2="6.76"><stop style="stop-color: #0264a2;stop-opacity: 1" offset="0%"></stop><stop style="stop-color: #164b82;stop-opacity: 1" offset="100%"></stop></linearGradient><path d="M103.04 26.15L105.13 25.71L103.67 27.27L104.77 29.13L102.72 28.25L101.25 29.86L101.49 27.74L99.49 26.86L101.67 26.43L101.94 24.28L103.04 26.15Z" id="d2UptQEZF"></path><linearGradient id="gradienta5z86OfEJ" gradientUnits="userSpaceOnUse" x1="20.31" y1="27.07" x2="111.69" y2="27.07"><stop style="stop-color: #0264a2;stop-opacity: 1" offset="0%"></stop><stop style="stop-color: #164b82;stop-opacity: 1" offset="100%"></stop></linearGradient><path d="M106.5 33.6L108.66 33.55L106.92 34.81L107.63 36.84L105.8 35.61L104.02 36.91L104.69 34.87L102.88 33.64L105.11 33.61L105.8 31.56L106.5 33.6Z" id="agpWVwTMO"></path><linearGradient id="gradientav48gs507" gradientUnits="userSpaceOnUse" x1="20.31" y1="34.24" x2="111.69" y2="34.24"><stop style="stop-color: #0264a2;stop-opacity: 1" offset="0%"></stop><stop style="stop-color: #164b82;stop-opacity: 1" offset="100%"></stop></linearGradient><path d="M99.88 18.92L98.76 20.72L100.19 22.34L98.02 21.86L96.87 23.72L96.71 21.59L94.57 21.1L96.62 20.28L96.47 18.11L97.91 19.74L99.88 18.92Z" id="b3OQl5u3WP"></path><linearGradient id="gradiente5uLjenpgm" gradientUnits="userSpaceOnUse" x1="20.31" y1="20.91" x2="111.69" y2="20.91"><stop style="stop-color: #0264a2;stop-opacity: 1" offset="0%"></stop><stop style="stop-color: #164b82;stop-opacity: 1" offset="100%"></stop></linearGradient><path d="M108.91 41.41L111.05 41.77L109.1 42.69L109.39 44.81L107.83 43.25L105.84 44.2L106.89 42.33L105.37 40.78L107.55 41.17L108.63 39.29L108.91 41.41Z" id="d1VZUexD"></path><linearGradient id="gradienta1F6ReC6d5" gradientUnits="userSpaceOnUse" x1="20.31" y1="42.05" x2="111.69" y2="42.05"><stop style="stop-color: #0264a2;stop-opacity: 1" offset="0%"></stop><stop style="stop-color: #164b82;stop-opacity: 1" offset="100%"></stop></linearGradient><path d="M109.69 49.56L111.69 50.31L109.6 50.84L109.48 52.97L108.25 51.16L106.1 51.73L107.51 50.07L106.31 48.28L108.38 49.07L109.8 47.42L109.69 49.56Z" id="b3sATqL5XC"></path><linearGradient id="gradientc2wPOMkzJv" gradientUnits="userSpaceOnUse" x1="20.31" y1="50.19" x2="111.69" y2="50.19"><stop style="stop-color: #0264a2;stop-opacity: 1" offset="0%"></stop><stop style="stop-color: #164b82;stop-opacity: 1" offset="100%"></stop></linearGradient><path d="M104.72 68.45L104.28 66.32L102.08 66.06L104.01 65.04L103.6 62.94L105.2 64.43L107.16 63.42L106.22 65.36L107.8 66.79L105.66 66.52L104.72 68.45Z" id="d3b54lXRY"></path><linearGradient id="gradientfEFGIXVNf" gradientUnits="userSpaceOnUse" x1="20.31" y1="65.69" x2="111.69" y2="65.69"><stop style="stop-color: #0264a2;stop-opacity: 1" offset="0%"></stop><stop style="stop-color: #164b82;stop-opacity: 1" offset="100%"></stop></linearGradient><path d="M108.4 58.71L107.88 60.79L107.03 58.77L104.8 58.92L106.5 57.57L105.68 55.58L107.55 56.74L109.28 55.38L108.74 57.47L110.57 58.58L108.4 58.71Z" id="e5w30eh3Wv"></path><linearGradient id="gradientbLpHv4oEL" gradientUnits="userSpaceOnUse" x1="20.31" y1="58.08" x2="111.69" y2="58.08"><stop style="stop-color: #0264a2;stop-opacity: 1" offset="0%"></stop><stop style="stop-color: #164b82;stop-opacity: 1" offset="100%"></stop></linearGradient><path d="M45.95 12.15L46.31 14.29L47.28 12.37L49.44 12.7L47.86 11.19L48.84 9.23L46.87 10.22L45.35 8.72L45.71 10.81L43.76 11.8L45.95 12.15Z" id="nngtGEl0D"></path><linearGradient id="gradientamCVIP92c" gradientUnits="userSpaceOnUse" x1="20.31" y1="11.51" x2="111.69" y2="11.51"><stop style="stop-color: #0264a2;stop-opacity: 1" offset="0%"></stop><stop style="stop-color: #164b82;stop-opacity: 1" offset="100%"></stop></linearGradient><path d="M52.93 11.08L54.27 9.37L56.33 10.11L55.07 8.31L56.4 6.6L54.29 7.19L53.09 5.44L53.03 7.54L50.93 8.15L53.01 8.9L52.93 11.08Z" id="aVQV6FQJv"></path><linearGradient id="gradienth7PuhTIV6k" gradientUnits="userSpaceOnUse" x1="20.31" y1="8.26" x2="111.69" y2="8.26"><stop style="stop-color: #0264a2;stop-opacity: 1" offset="0%"></stop><stop style="stop-color: #164b82;stop-opacity: 1" offset="100%"></stop></linearGradient><path d="M39.48 16.19L40.25 18.22L40.82 16.16L43 16.08L41.16 14.88L41.73 12.79L40.01 14.12L38.22 12.94L38.97 14.92L37.25 16.24L39.48 16.19Z" id="a12ALh7EHW"></path><linearGradient id="gradientc2z2q8P0rF" gradientUnits="userSpaceOnUse" x1="20.31" y1="15.51" x2="111.69" y2="15.51"><stop style="stop-color: #0264a2;stop-opacity: 1" offset="0%"></stop><stop style="stop-color: #164b82;stop-opacity: 1" offset="100%"></stop></linearGradient><path d="M60.3 9.51L61.94 8.09L63.82 9.2L62.94 7.21L64.57 5.75L62.39 5.95L61.56 4L61.07 6.07L58.9 6.27L60.8 7.4L60.3 9.51Z" id="ifbIQB23D"></path><linearGradient id="gradientc3qHlmFJ49" gradientUnits="userSpaceOnUse" x1="20.31" y1="6.76" x2="111.69" y2="6.76"><stop style="stop-color: #0264a2;stop-opacity: 1" offset="0%"></stop><stop style="stop-color: #164b82;stop-opacity: 1" offset="100%"></stop></linearGradient><path d="M27.23 29.13L29.28 28.25L30.75 29.86L30.51 27.74L32.51 26.86L30.33 26.43L30.06 24.28L28.96 26.15L26.87 25.71L28.32 27.27L27.23 29.13Z" id="bRD1YKjtu"></path><linearGradient id="gradientepqPMtbZk" gradientUnits="userSpaceOnUse" x1="20.31" y1="27.07" x2="111.69" y2="27.07"><stop style="stop-color: #0264a2;stop-opacity: 1" offset="0%"></stop><stop style="stop-color: #164b82;stop-opacity: 1" offset="100%"></stop></linearGradient><path d="M24.37 36.84L26.2 35.61L27.98 36.91L27.31 34.87L29.12 33.64L26.89 33.61L26.2 31.56L25.5 33.6L23.34 33.55L25.08 34.81L24.37 36.84Z" id="d4bpDi5ZCu"></path><linearGradient id="gradientczutBItnl" gradientUnits="userSpaceOnUse" x1="20.31" y1="34.24" x2="111.69" y2="34.24"><stop style="stop-color: #0264a2;stop-opacity: 1" offset="0%"></stop><stop style="stop-color: #164b82;stop-opacity: 1" offset="100%"></stop></linearGradient><path d="M33.98 21.86L35.13 23.72L35.29 21.59L37.43 21.1L35.38 20.28L35.53 18.11L34.09 19.74L32.12 18.92L33.24 20.72L31.81 22.34L33.98 21.86Z" id="a4ozfuLsyp"></path><linearGradient id="gradientajcsmcu7" gradientUnits="userSpaceOnUse" x1="20.31" y1="20.91" x2="111.69" y2="20.91"><stop style="stop-color: #0264a2;stop-opacity: 1" offset="0%"></stop><stop style="stop-color: #164b82;stop-opacity: 1" offset="100%"></stop></linearGradient><path d="M22.61 44.81L24.17 43.25L26.16 44.2L25.11 42.33L26.63 40.78L24.45 41.17L23.37 39.29L23.08 41.41L20.95 41.77L22.9 42.69L22.61 44.81Z" id="bwFBDy8r"></path><linearGradient id="gradientgceVA3eka" gradientUnits="userSpaceOnUse" x1="20.31" y1="42.05" x2="111.69" y2="42.05"><stop style="stop-color: #0264a2;stop-opacity: 1" offset="0%"></stop><stop style="stop-color: #164b82;stop-opacity: 1" offset="100%"></stop></linearGradient><path d="M22.52 52.98L23.75 51.16L25.9 51.73L24.49 50.07L25.69 48.28L23.62 49.07L22.19 47.42L22.31 49.56L20.31 50.31L22.4 50.84L22.52 52.98Z" id="a1HJZOelVd"></path><linearGradient id="gradientbJWFt42KP" gradientUnits="userSpaceOnUse" x1="20.31" y1="50.19" x2="111.69" y2="50.19"><stop style="stop-color: #0264a2;stop-opacity: 1" offset="0%"></stop><stop style="stop-color: #164b82;stop-opacity: 1" offset="100%"></stop></linearGradient><path d="M27.99 65.04L28.4 62.94L26.8 64.43L24.84 63.42L25.78 65.36L24.2 66.79L26.34 66.52L27.28 68.45L27.72 66.32L29.92 66.06L27.99 65.04Z" id="f46raB2NVM"></path><linearGradient id="gradientdqZNr8t9X" gradientUnits="userSpaceOnUse" x1="20.31" y1="65.69" x2="111.69" y2="65.69"><stop style="stop-color: #0264a2;stop-opacity: 1" offset="0%"></stop><stop style="stop-color: #164b82;stop-opacity: 1" offset="100%"></stop></linearGradient><path d="M27.19 58.92L25.5 57.57L26.32 55.58L24.45 56.74L22.72 55.38L23.26 57.47L21.42 58.58L23.59 58.71L24.12 60.79L24.97 58.77L27.19 58.92Z" id="aox7OJisi"></path><linearGradient id="gradientavgEMwQK6" gradientUnits="userSpaceOnUse" x1="20.31" y1="58.08" x2="111.69" y2="58.08"><stop style="stop-color: #0264a2;stop-opacity: 1" offset="0%"></stop><stop style="stop-color: #164b82;stop-opacity: 1" offset="100%"></stop></linearGradient></defs><g><g><g><use xlink:href="#c18pJeFWGD" opacity="1" fill="url(#gradiente1SCn1GyQy)"></use><g><use xlink:href="#c18pJeFWGD" opacity="1" fill-opacity="0" stroke="#000000" stroke-width="1" stroke-opacity="0"></use></g></g><g><use xlink:href="#c2sCKvtbH" opacity="1" fill="url(#gradientc1w2MCjKpC)"></use><g><use xlink:href="#c2sCKvtbH" opacity="1" fill-opacity="0" stroke="#000000" stroke-width="1" stroke-opacity="0"></use></g></g><g><use xlink:href="#ea9plY0NlF" opacity="1" fill="url(#gradientf9haUKQNs)"></use><g><use xlink:href="#ea9plY0NlF" opacity="1" fill-opacity="0" stroke="#000000" stroke-width="1" stroke-opacity="0"></use></g></g><g><use xlink:href="#c4KRSU3CO" opacity="1" fill="url(#gradientblxokxthD)"></use><g><use xlink:href="#c4KRSU3CO" opacity="1" fill-opacity="0" stroke="#000000" stroke-width="1" stroke-opacity="0"></use></g></g><g><use xlink:href="#d13h5QTWp7" opacity="1" fill="url(#gradientf14fGwn0r)"></use><g><use xlink:href="#d13h5QTWp7" opacity="1" fill-opacity="0" stroke="#000000" stroke-width="1" stroke-opacity="0"></use></g></g><g><use xlink:href="#bNnGZ74Bd" opacity="1" fill="url(#gradientg1K9XQCy7D)"></use><g><use xlink:href="#bNnGZ74Bd" opacity="1" fill-opacity="0" stroke="#000000" stroke-width="1" stroke-opacity="0"></use></g></g><g><use xlink:href="#bckQ1AE0B" opacity="1" fill="url(#gradienta4TT8YToC)"></use><g><use xlink:href="#bckQ1AE0B" opacity="1" fill-opacity="0" stroke="#000000" stroke-width="1" stroke-opacity="0"></use></g></g><g><use xlink:href="#a7x6V5DL48" opacity="1" fill="url(#gradientc1F0Qr5eA4)"></use><g><use xlink:href="#a7x6V5DL48" opacity="1" fill-opacity="0" stroke="#000000" stroke-width="1" stroke-opacity="0"></use></g></g><g><use xlink:href="#a7k0rmZWh" opacity="1" fill="url(#gradientd1aAjG0ydy)"></use><g><use xlink:href="#a7k0rmZWh" opacity="1" fill-opacity="0" stroke="#000000" stroke-width="1" stroke-opacity="0"></use></g></g><g><use xlink:href="#bUTtItWKK" opacity="1" fill="url(#gradientk2bHYi9yo2)"></use><g><use xlink:href="#bUTtItWKK" opacity="1" fill-opacity="0" stroke="#000000" stroke-width="1" stroke-opacity="0"></use></g></g><g><use xlink:href="#aqJM9vhW4" opacity="1" fill="url(#gradienta3iIiyNW1)"></use><g><use xlink:href="#aqJM9vhW4" opacity="1" fill-opacity="0" stroke="#000000" stroke-width="1" stroke-opacity="0"></use></g></g><g><use xlink:href="#iOvsxibDy" opacity="1" fill="url(#gradientdnJ1vVJp)"></use><g><use xlink:href="#iOvsxibDy" opacity="1" fill-opacity="0" stroke="#000000" stroke-width="1" stroke-opacity="0"></use></g></g><g><use xlink:href="#abmhKxhdC" opacity="1" fill="url(#gradienta3EX1C9z3I)"></use><g><use xlink:href="#abmhKxhdC" opacity="1" fill-opacity="0" stroke="#000000" stroke-width="1" stroke-opacity="0"></use></g></g><g><use xlink:href="#abQNQFpfC" opacity="1" fill="url(#gradientd1WtdUbj8d)"></use><g><use xlink:href="#abQNQFpfC" opacity="1" fill-opacity="0" stroke="#000000" stroke-width="1" stroke-opacity="0"></use></g></g><g><use xlink:href="#d2UptQEZF" opacity="1" fill="url(#gradienta5z86OfEJ)"></use><g><use xlink:href="#d2UptQEZF" opacity="1" fill-opacity="0" stroke="#000000" stroke-width="1" stroke-opacity="0"></use></g></g><g><use xlink:href="#agpWVwTMO" opacity="1" fill="url(#gradientav48gs507)"></use><g><use xlink:href="#agpWVwTMO" opacity="1" fill-opacity="0" stroke="#000000" stroke-width="1" stroke-opacity="0"></use></g></g><g><use xlink:href="#b3OQl5u3WP" opacity="1" fill="url(#gradiente5uLjenpgm)"></use><g><use xlink:href="#b3OQl5u3WP" opacity="1" fill-opacity="0" stroke="#000000" stroke-width="1" stroke-opacity="0"></use></g></g><g><use xlink:href="#d1VZUexD" opacity="1" fill="url(#gradienta1F6ReC6d5)"></use><g><use xlink:href="#d1VZUexD" opacity="1" fill-opacity="0" stroke="#000000" stroke-width="1" stroke-opacity="0"></use></g></g><g><use xlink:href="#b3sATqL5XC" opacity="1" fill="url(#gradientc2wPOMkzJv)"></use><g><use xlink:href="#b3sATqL5XC" opacity="1" fill-opacity="0" stroke="#000000" stroke-width="1" stroke-opacity="0"></use></g></g><g><use xlink:href="#d3b54lXRY" opacity="1" fill="url(#gradientfEFGIXVNf)"></use><g><use xlink:href="#d3b54lXRY" opacity="1" fill-opacity="0" stroke="#000000" stroke-width="1" stroke-opacity="0"></use></g></g><g><use xlink:href="#e5w30eh3Wv" opacity="1" fill="url(#gradientbLpHv4oEL)"></use><g><use xlink:href="#e5w30eh3Wv" opacity="1" fill-opacity="0" stroke="#000000" stroke-width="1" stroke-opacity="0"></use></g></g><g><use xlink:href="#nngtGEl0D" opacity="1" fill="url(#gradientamCVIP92c)"></use><g><use xlink:href="#nngtGEl0D" opacity="1" fill-opacity="0" stroke="#000000" stroke-width="1" stroke-opacity="0"></use></g></g><g><use xlink:href="#aVQV6FQJv" opacity="1" fill="url(#gradienth7PuhTIV6k)"></use><g><use xlink:href="#aVQV6FQJv" opacity="1" fill-opacity="0" stroke="#000000" stroke-width="1" stroke-opacity="0"></use></g></g><g><use xlink:href="#a12ALh7EHW" opacity="1" fill="url(#gradientc2z2q8P0rF)"></use><g><use xlink:href="#a12ALh7EHW" opacity="1" fill-opacity="0" stroke="#000000" stroke-width="1" stroke-opacity="0"></use></g></g><g><use xlink:href="#ifbIQB23D" opacity="1" fill="url(#gradientc3qHlmFJ49)"></use><g><use xlink:href="#ifbIQB23D" opacity="1" fill-opacity="0" stroke="#000000" stroke-width="1" stroke-opacity="0"></use></g></g><g><use xlink:href="#bRD1YKjtu" opacity="1" fill="url(#gradientepqPMtbZk)"></use><g><use xlink:href="#bRD1YKjtu" opacity="1" fill-opacity="0" stroke="#000000" stroke-width="1" stroke-opacity="0"></use></g></g><g><use xlink:href="#d4bpDi5ZCu" opacity="1" fill="url(#gradientczutBItnl)"></use><g><use xlink:href="#d4bpDi5ZCu" opacity="1" fill-opacity="0" stroke="#000000" stroke-width="1" stroke-opacity="0"></use></g></g><g><use xlink:href="#a4ozfuLsyp" opacity="1" fill="url(#gradientajcsmcu7)"></use><g><use xlink:href="#a4ozfuLsyp" opacity="1" fill-opacity="0" stroke="#000000" stroke-width="1" stroke-opacity="0"></use></g></g><g><use xlink:href="#bwFBDy8r" opacity="1" fill="url(#gradientgceVA3eka)"></use><g><use xlink:href="#bwFBDy8r" opacity="1" fill-opacity="0" stroke="#000000" stroke-width="1" stroke-opacity="0"></use></g></g><g><use xlink:href="#a1HJZOelVd" opacity="1" fill="url(#gradientbJWFt42KP)"></use><g><use xlink:href="#a1HJZOelVd" opacity="1" fill-opacity="0" stroke="#000000" stroke-width="1" stroke-opacity="0"></use></g></g><g><use xlink:href="#f46raB2NVM" opacity="1" fill="url(#gradientdqZNr8t9X)"></use><g><use xlink:href="#f46raB2NVM" opacity="1" fill-opacity="0" stroke="#000000" stroke-width="1" stroke-opacity="0"></use></g></g><g><use xlink:href="#aox7OJisi" opacity="1" fill="url(#gradientavgEMwQK6)"></use><g><use xlink:href="#aox7OJisi" opacity="1" fill-opacity="0" stroke="#000000" stroke-width="1" stroke-opacity="0"></use></g></g></g></g></svg>