<?xml version="1.0" encoding="UTF-8" standalone="no"?>
<svg
   xmlns:dc="http://purl.org/dc/elements/1.1/"
   xmlns:cc="http://creativecommons.org/ns#"
   xmlns:rdf="http://www.w3.org/1999/02/22-rdf-syntax-ns#"
   xmlns:svg="http://www.w3.org/2000/svg"
   xmlns="http://www.w3.org/2000/svg"
   xmlns:sodipodi="http://sodipodi.sourceforge.net/DTD/sodipodi-0.dtd"
   xmlns:inkscape="http://www.inkscape.org/namespaces/inkscape"
   version="1.0"
   width="132"
   height="99"
   viewBox="0 0 99 74.25"
   preserveAspectRatio="xMidYMid meet"
   id="svg8"
   sodipodi:docname="safari-pinned-tab.svg"
   inkscape:version="1.0.2 (e86c870879, 2021-01-15, custom)">
  <defs
     id="defs12" />
  <sodipodi:namedview
     pagecolor="#ffffff"
     bordercolor="#666666"
     borderopacity="1"
     objecttolerance="10"
     gridtolerance="10"
     guidetolerance="10"
     inkscape:pageopacity="0"
     inkscape:pageshadow="2"
     inkscape:window-width="1920"
     inkscape:window-height="1001"
     id="namedview10"
     showgrid="false"
     units="px"
     inkscape:zoom="2"
     inkscape:cx="227.61795"
     inkscape:cy="104.02756"
     inkscape:window-x="-9"
     inkscape:window-y="-9"
     inkscape:window-maximized="1"
     inkscape:current-layer="svg8" />
  <metadata
     id="metadata2">
Created by potrace 1.11, written by Peter Selinger 2001-2013
<rdf:RDF>
  <cc:Work
     rdf:about="">
    <dc:format>image/svg+xml</dc:format>
    <dc:type
       rdf:resource="http://purl.org/dc/dcmitype/StillImage" />
    <dc:title></dc:title>
  </cc:Work>
</rdf:RDF>
</metadata>
  <g
     id="g48"
     transform="matrix(0.20840336,0,0,0.20840336,-13.060434,6.340517)">
    <path
       style="display:inline;fill:#22294c;stroke-width:0.75"
       d="m 117.07029,187.51299 -31.61889,-0.42161 -2.802161,-2.26879 c -3.659741,-2.96314 -5.585061,-6.66951 -5.585061,-10.75162 0,-1.8116 1.881988,-14.47311 4.182195,-28.1367 4.543505,-26.98913 5.485628,-30.01102 10.564063,-33.88453 6.133837,-4.67851 -9.144934,-4.31031 184.378744,-4.44332 96.9375,-0.0666 190.28165,0.0715 207.43144,0.30691 l 31.18145,0.42805 2.71609,1.86212 c 3.66433,2.51222 5.79602,6.50027 5.79602,10.84345 0,4.02485 -7.85363,51.77924 -9.02013,54.84738 -1.43669,3.77878 -5.25373,7.72339 -9.46943,9.78595 l -4.17643,2.04333 -175.97951,0.10549 c -96.78873,0.058 -190.208,-0.0842 -207.59839,-0.31611 z"
       id="path50"
       sodipodi:nodetypes="ccsssssscsssscsc" />
    <path
       style="display:inline;fill:#962537;stroke-width:0.75"
       d="m 340.31418,114.555 c 0,-0.59314 164.29516,-0.83602 173.48528,-0.22593 0.63259,1.92456 3.47718,3.15105 3.31321,5.4302 -1.32535,18.42224 -4.4484,49.39846 -14.00766,61.99573 l -174.84046,3.3e-4 z"
       id="path52"
       sodipodi:nodetypes="ccsccc" />
    <path
       style="display:inline;fill:#f5f4f6;stroke-width:0.75"
       d="m 138.9057,183.77247 c -47.501767,-0.40126 -51.176364,-0.52474 -53.098302,-1.78434 -2.751763,-1.80345 -4.986964,-5.60482 -4.990416,-8.48713 -0.0036,-3.03387 8.782076,-51.04831 9.812088,-53.62366 1.025546,-2.56418 4.989476,-6.35378 7.72511,-7.38537 1.541463,-0.58127 61.32941,-0.8168 207.59074,-0.81779 191.74325,-0.001 205.60459,0.0835 208.11104,1.27288 3.35783,1.5934 5.50177,5.01946 5.50541,8.7978 0.004,4.15203 -8.90663,52.12499 -10.10916,54.42556 -1.37741,2.63511 -4.80758,5.76665 -7.51303,6.85894 -1.73257,0.69952 -37.86654,0.93898 -157.125,1.04131 -85.18125,0.0731 -177.84006,-0.0611 -205.90848,-0.2982 z m 355.06893,-2.80443 c 7.19797,-0.43406 7.97267,-0.63388 10.2667,-2.64806 1.3647,-1.19822 2.83302,-3.25858 3.26293,-4.57859 1.54491,-4.74346 9.78717,-51.7295 9.36761,-53.40119 -0.23598,-0.9402 -1.43658,-2.67456 -2.66799,-3.85414 l -2.23895,-2.14468 H 305.81947 99.674014 l -2.071076,1.54634 c -4.745103,3.54287 -4.565172,2.88564 -11.958655,43.68099 -2.8944,15.97055 -2.83497,16.81064 1.411693,19.95522 2.09261,1.54954 2.705374,1.56967 53.625004,1.76141 28.32951,0.10668 54.03945,0.31671 57.1332,0.46674 9.40873,0.45626 287.81484,-0.28078 296.16045,-0.78404 z M 346.68918,169.71762 c -3.29816,-0.88168 -4.875,-3.29 -4.875,-7.44564 0,-5.93837 0.2891,-6.3056 4.96411,-6.3056 h 4.05362 l -0.47972,3 -0.47973,3 h 5.62903 c 6.34622,0 6.893,-0.35812 7.66127,-5.01787 l 0.51819,-3.14287 -2.87089,-0.76763 c -1.57898,-0.42219 -4.57586,-1.13089 -6.65972,-1.57489 -4.91721,-1.04769 -8.42574,-3.22145 -9.01979,-5.58833 -0.58774,-2.34174 0.89498,-11.17472 2.34722,-13.98305 2.04312,-3.95095 3.54797,-4.42536 14.03738,-4.42536 9.21087,0 9.69499,0.0778 11.45812,1.84091 1.88821,1.88821 2.25263,4.16299 1.37216,8.56534 -0.45605,2.28027 -0.57924,2.34375 -4.54798,2.34375 h -4.07923 l 0.23548,-2.4375 0.23548,-2.4375 -4.875,-0.19341 c -2.68125,-0.10637 -5.33363,0.10501 -5.89418,0.46974 -0.56054,0.36473 -1.18937,2.17321 -1.3974,4.01883 l -0.37824,3.35569 7.07589,1.63509 c 11.32649,2.61731 12.54854,4.17932 10.73778,13.72483 -1.92615,10.1539 -3.56634,11.42319 -15.01885,11.62272 -4.5375,0.0791 -8.925,-0.0367 -9.75,-0.25725 z m 63.57745,-0.0286 c -2.29633,-0.44356 -4.70245,-3.71428 -4.70245,-6.39221 0,-3.14278 4.39164,-28.2846 5.37778,-30.78741 1.29164,-3.27816 4.39456,-5.04304 8.86642,-5.04304 h 3.88765 l -0.52745,3.1875 c -0.62938,3.80361 -0.88684,4.3125 -2.18183,4.3125 -0.5439,0 -1.37707,0.46771 -1.8515,1.03936 -0.95417,1.1497 -5.34086,24.94085 -4.71422,25.56749 0.21623,0.21623 1.04946,0.39315 1.85162,0.39315 1.27395,0 1.3954,0.35581 0.96001,2.8125 -1.02364,5.7758 -1.33786,5.99729 -6.96603,4.91016 z m 12.8052,-1.69838 c 0.27079,-1.35398 0.49235,-3.10295 0.49235,-3.88659 0,-0.8297 0.78314,-1.72257 1.875,-2.13769 1.03125,-0.39208 1.87522,-0.8056 1.87549,-0.91894 2.8e-4,-0.11333 0.99726,-5.74778 2.2155,-12.521 1.21826,-6.77322 2.04186,-12.5951 1.83024,-12.9375 -0.21162,-0.34241 -0.8979,-0.62256 -1.52508,-0.62256 -0.88716,0 -1.03142,-0.54116 -0.64975,-2.4375 1.01287,-5.0325 1.03908,-5.0625 4.4234,-5.0625 4.19738,0 6.4552,2.25355 6.4552,6.44299 0,4.02842 -4.36859,28.7151 -5.4825,30.98133 -1.3539,2.75449 -4.24399,4.5132 -8.32235,5.0644 l -3.67986,0.49734 z m -321.05242,-0.58678 c 0.21601,-1.13438 1.86132,-10.58365 3.65625,-20.99839 l 3.26352,-18.9359 11.87019,-0.002 11.87019,-0.002 2.19231,2.19231 c 2.5905,2.5905 2.66086,3.8038 0.77895,13.43134 -2.00347,10.2494 -2.80136,10.89174 -14.13143,11.37635 l -8.76735,0.375 -0.87927,4.5 c -0.4836,2.475 -1.10366,5.76563 -1.37792,7.3125 l -0.49864,2.8125 h -4.18477 c -4.1604,0 -4.18248,-0.012 -3.79203,-2.0625 z m 23.69127,-21.10767 c 0.99151,-0.62819 2.25454,-5.46754 2.32083,-8.89233 0.0312,-1.61023 -0.2384,-1.6875 -5.88709,-1.6875 -6.71159,0 -6.47667,-0.21681 -7.25914,6.69936 l -0.51485,4.55064 5.15937,-0.0115 c 2.83766,-0.006 5.61906,-0.30273 6.18088,-0.65868 z m 8.0534,21.85767 c 0.37322,-1.58287 7.0501,-39.7502 7.0501,-40.3008 0,-0.77823 23.36083,-0.38016 24.8628,0.42367 3.07399,1.64515 3.63485,4.85079 2.221,12.69425 -1.49145,8.27404 -2.31303,10.05828 -5.35603,11.63188 -1.22528,0.63361 -2.22777,1.57201 -2.22777,2.08534 0,0.78301 2.05728,8.79517 3.45757,13.46566 0.34388,1.14696 -0.16893,1.3125 -4.06585,1.3125 h -4.45936 l -1.25479,-5.0625 c -2.88903,-11.65595 -2.34734,-10.6875 -5.97786,-10.6875 h -3.24246 l -1.34982,7.875 -1.34982,7.875 h -4.30859 c -3.72132,0 -4.26641,-0.1789 -3.99912,-1.3125 z m 24.76415,-24.1875 c 0.46982,-1.03125 1.06784,-3.30938 1.32894,-5.0625 l 0.47474,-3.1875 h -6.28193 -6.28192 l -0.46252,3.37448 c -0.25439,1.85597 -0.6781,4.23339 -0.94157,5.28317 l -0.47905,1.90867 5.89456,-0.22066 c 5.45998,-0.20439 5.95753,-0.3589 6.74875,-2.09566 z m 8.57967,24.5625 c 0.0241,-0.51562 1.62727,-9.88125 3.56271,-20.8125 l 3.51897,-19.875 13.74328,-0.20464 c 12.84829,-0.1913 13.71947,-0.11804 13.37779,1.125 -0.20102,0.7313 -0.57901,2.59527 -0.83996,4.14214 l -0.47448,2.8125 h -9.29048 c -10.26362,0 -9.50101,-0.39548 -10.48504,5.4375 l -0.47448,2.8125 h 7.57994 7.57994 l -0.51652,3.5625 c -0.28408,1.95937 -0.66218,3.81562 -0.84021,4.125 -0.17804,0.30937 -3.65197,0.5625 -7.71985,0.5625 h -7.39615 l -0.40894,2.0625 c -0.22492,1.13437 -0.62679,3.32813 -0.89306,4.875 l -0.48412,2.8125 h 9.50901 c 8.69698,0 9.47745,0.11208 9.13946,1.3125 -0.20325,0.72187 -0.59031,2.40937 -0.86013,3.75 l -0.49058,2.4375 h -13.44042 c -10.27564,0 -13.4301,-0.22075 -13.39668,-0.9375 z m 30.39462,-0.375 c 0.16386,-0.72188 1.65838,-9.24375 3.32117,-18.9375 1.66278,-9.69375 3.2148,-18.56845 3.44893,-19.72155 0.41658,-2.05164 0.52384,-2.0918 5.00772,-1.875 l 4.58201,0.22155 2.9256,12.2564 2.92561,12.2564 7.46483,-12.4439 7.46484,-12.4439 h 4.89507 4.89506 l -0.43138,2.0625 c -0.23727,1.13437 -1.77711,9.825 -3.42186,19.3125 -1.64476,9.4875 -3.17139,18.00937 -3.3925,18.9375 -0.35028,1.47033 -0.88277,1.6875 -4.13773,1.6875 -2.65641,0 -3.73571,-0.29577 -3.73571,-1.02374 0,-0.56306 0.99682,-6.54123 2.21517,-13.28483 1.21834,-6.7436 2.12354,-12.35272 2.01155,-12.46471 -0.11199,-0.11199 -2.84218,4.34744 -6.06709,9.90983 l -5.86347,10.11345 h -3.14742 -3.14743 l -2.09027,-9.1875 c -1.14964,-5.05313 -2.32899,-9.63173 -2.62077,-10.17467 -0.29177,-0.54295 -1.46157,4.3508 -2.59956,10.875 -2.95458,16.93898 -2.1921,15.23717 -6.8268,15.23717 -3.39776,0 -3.93032,-0.19017 -3.67557,-1.3125 z m 44.76659,-0.75 c 0.21583,-1.13438 1.85914,-10.58438 3.65178,-21 l 3.25936,-18.9375 h 4.33125 c 4.10693,0 4.31111,0.0874 3.94227,1.6875 -0.21394,0.92812 -1.57899,8.60625 -3.03345,17.0625 -1.45446,8.45625 -2.99727,17.14687 -3.42848,19.3125 l -0.78401,3.9375 h -4.16558 c -4.1394,0 -4.1631,-0.013 -3.77314,-2.0625 z m 13.27081,1.5 c -0.0134,-0.30938 1.56974,-9.75938 3.51798,-21 l 3.54224,-20.4375 h 13.63519 13.63519 l -0.63988,3.42511 c -0.35193,1.88382 -0.83453,3.74007 -1.07244,4.125 -0.2379,0.38494 -4.44271,0.69989 -9.34402,0.69989 -4.90131,0 -9.05714,0.25312 -9.23518,0.5625 -0.17803,0.30937 -0.55613,2.16562 -0.84022,4.125 l -0.51651,3.5625 h 7.57994 7.57994 l -0.47448,2.8125 c -0.97306,5.76795 -0.45081,5.4375 -8.59349,5.4375 -8.25824,0 -7.742,-0.36853 -8.66744,6.1875 l -0.50288,3.5625 h 9.35225 9.35224 l -0.74147,3.75 -0.74147,3.75 H 268.9648 c -7.37034,0 -13.41154,-0.25313 -13.42488,-0.5625 z m 30.26106,-1.08485 c 0.23076,-0.95021 1.78953,-9.6589 3.46393,-19.35265 1.67441,-9.69375 3.22066,-18.38438 3.43611,-19.3125 0.38592,-1.66246 0.56795,-1.6875 12.26793,-1.6875 11.56676,0 11.9279,0.0479 13.86071,1.83919 2.35998,2.18716 2.52448,4.71267 0.87009,13.35837 -1.27512,6.66361 -2.56395,9.03014 -5.60365,10.28922 l -2.14496,0.88847 2.10494,7.84618 2.10493,7.84617 -4.60357,-0.2213 -4.60358,-0.2213 -1.79394,-7.6875 -1.79394,-7.6875 h -3.24192 c -3.06739,0 -3.26557,0.13121 -3.68139,2.4375 -0.2417,1.34062 -0.86613,4.8 -1.38762,7.6875 l -0.94816,5.25 -4.36274,0.22765 c -4.22146,0.22029 -4.34916,0.17171 -3.94317,-1.5 z m 24.3126,-22.54015 c 0.88565,-1.13265 2.38833,-8.62476 1.83987,-9.17324 -0.2141,-0.21409 -2.99838,-0.38926 -6.18728,-0.38926 h -5.79801 l -0.82699,4.74893 c -0.45485,2.61192 -0.82699,4.97442 -0.82699,5.25 0,0.95104 11.0336,0.54293 11.7994,-0.43643 z m 62.81991,21.78866 c 0.24849,-1.36189 1.88917,-10.74491 3.64596,-20.85116 l 3.19418,-18.375 10.83277,-0.2153 c 12.21688,-0.24281 13.55069,-0.0523 15.68702,2.2408 1.83659,1.97135 1.92657,4.85242 0.4006,12.82703 -2.01534,10.53191 -2.93136,11.27512 -14.51004,11.77247 l -8.73028,0.375 -1.13889,7.125 -1.1389,7.125 -4.3471,0.22616 -4.34711,0.22616 z m 23.49743,-20.75293 c 1.07613,-0.68231 2.3367,-5.23123 2.36536,-8.53573 l 0.0179,-2.0625 h -5.89646 -5.89647 l -0.85353,4.25009 c -1.44465,7.19341 -1.56022,7.00151 4.20896,6.98843 2.78437,-0.006 5.50878,-0.29445 6.05424,-0.64029 z m 41.58021,21.08927 c 0.21145,-1.13438 1.85515,-10.58438 3.65267,-21 l 3.26822,-18.9375 h 11.64921 c 12.89899,0 14.24699,0.39915 16.15526,4.78373 0.97083,2.23064 1.02085,2.25267 1.05857,0.46627 0.0217,-1.03125 0.24311,-2.63438 0.49184,-3.5625 0.44979,-1.67842 0.53265,-1.6875 15.39873,-1.6875 h 14.94652 l -0.46742,2.8125 c -0.79396,4.77731 -0.67376,4.6875 -6.27384,4.6875 h -5.22036 l -0.78251,3.9375 c -0.43038,2.16562 -1.64683,9 -2.70322,15.1875 -1.05639,6.1875 -2.105,12.17812 -2.33026,13.3125 -0.38641,1.94597 -0.63925,2.0625 -4.47496,2.0625 -2.82221,0 -4.0654,-0.29623 -4.0654,-0.96873 0,-0.5328 1.18125,-7.61921 2.625,-15.74757 1.44375,-8.12837 2.625,-15.45494 2.625,-16.28128 0,-1.3585 -0.49721,-1.50242 -5.19041,-1.50242 -5.87662,0 -5.0328,-1.09933 -6.90822,9 -0.69311,3.73239 -1.44684,5.41805 -3.21583,7.19196 -1.27079,1.27433 -2.71979,2.45558 -3.21999,2.625 -0.67322,0.22803 -0.43361,2.15877 0.92247,7.43304 1.00755,3.91875 1.83868,7.37812 1.84695,7.6875 0.008,0.30937 -1.94168,0.5625 -4.33322,0.5625 h -4.34826 l -1.86553,-7.6875 -1.86553,-7.6875 h -3.32854 -3.32853 l -1.28607,7.5 c -0.70733,4.125 -1.30704,7.58437 -1.33267,7.6875 -0.0256,0.10312 -1.94506,0.1875 -4.26537,0.1875 -4.19547,0 -4.21663,-0.0114 -3.8343,-2.0625 z m 24.48362,-22.55777 c 0.40334,-0.75365 0.96494,-3.11615 1.24801,-5.25 l 0.51466,-3.87973 h -6.01638 c -6.75624,0 -6.51168,-0.20907 -7.31962,6.25742 l -0.53008,4.24258 h 5.68503 c 4.73803,0 5.80719,-0.22826 6.41838,-1.37027 z"
       id="path54"
       sodipodi:nodetypes="ssssscssssssssssscccssssssssscccsscsssssssscccssscsssssssscssssssssssssssssssscscscccssscsscsccssssccsssssssssscsscccsssscccsscsscscssscsscccssscsscssscscsssscccccccsssssssscccssssssscsssscsssscccssssscccssscccccssssssssscccccccssscssssscssssscsssscccccssscccscssscssssscsscsssssssssssscscccccsssssscsscss" />
  </g>
</svg>
