<?xml version="1.0" encoding="UTF-8" standalone="no"?>
<svg
   xmlns:dc="http://purl.org/dc/elements/1.1/"
   xmlns:cc="http://creativecommons.org/ns#"
   xmlns:rdf="http://www.w3.org/1999/02/22-rdf-syntax-ns#"
   xmlns:svg="http://www.w3.org/2000/svg"
   xmlns="http://www.w3.org/2000/svg"
   xmlns:sodipodi="http://sodipodi.sourceforge.net/DTD/sodipodi-0.dtd"
   xmlns:inkscape="http://www.inkscape.org/namespaces/inkscape"
   version="1.1"
   id="Layer_1"
   x="0px"
   y="0px"
   width="132"
   height="99"
   viewBox="0 0 132 99"
   enable-background="new 0 0 1000 456.7281799"
   xml:space="preserve"
   sodipodi:docname="Prima.svg"
   inkscape:version="1.0.2 (e86c870879, 2021-01-15, custom)"><metadata
   id="metadata11"><rdf:RDF><cc:Work
       rdf:about=""><dc:format>image/svg+xml</dc:format><dc:type
         rdf:resource="http://purl.org/dc/dcmitype/StillImage" /><dc:title></dc:title></cc:Work></rdf:RDF></metadata><defs
   id="defs9" /><sodipodi:namedview
   pagecolor="#ffffff"
   bordercolor="#666666"
   borderopacity="1"
   objecttolerance="10"
   gridtolerance="10"
   guidetolerance="10"
   inkscape:pageopacity="0"
   inkscape:pageshadow="2"
   inkscape:window-width="1920"
   inkscape:window-height="1001"
   id="namedview7"
   showgrid="false"
   inkscape:zoom="1.648"
   inkscape:cx="500"
   inkscape:cy="228.36409"
   inkscape:window-x="-9"
   inkscape:window-y="-9"
   inkscape:window-maximized="1"
   inkscape:current-layer="Layer_1" />
<g
   id="g4"
   transform="matrix(0.124,0,0,0.124,4,21.182853)">
	<path
   fill="#ee7500"
   d="m 577.38727,307.34399 c -24.07062,0 -34.36029,14.0261 -34.36029,56.53238 v 92.79013 h 59.59448 V 347.03162 c 0,-24.43723 -7.10486,-39.68763 -25.23419,-39.68763 m 121.02643,0 c -28.84797,0 -31.60407,22.41669 -31.60407,56.10248 v 93.22003 h 59.59454 V 342.99051 c 0,-22.41669 -10.65716,-35.64652 -27.99047,-35.64652 M 210.26512,274.75916 c 0,-27.31574 -14.33192,-40.17922 -33.74769,-42.62781 l -43.97615,-5.57379 v 77.84628 l 43.97615,3.79809 c 19.72207,1.65235 33.74769,-6.92144 33.74769,-33.44277 m 685.49037,104.36761 c -15.00573,3.55136 -27.62292,9.98309 -27.62292,26.39795 0,16.78122 12.98474,23.58118 27.99048,23.58118 31.97155,0 42.62872,-18.37558 41.09765,-61.24823 -9.49365,6.00183 -26.88818,7.16442 -41.46521,11.2691 m -436.7612,-140.259 -47.95742,-6.98128 v -53.71556 l 47.95742,8.57564 z M 459.11694,103.87603 0.0612146,0 0,456.72818 63.085613,456.6665 V 152.07948 l 123.047887,19.6597 c 44.16001,7.04482 83.72636,37.42409 83.72636,104.18443 0,69.8837 -31.84911,95.42374 -83.72636,92.60694 l -53.59223,-2.8168 V 456.6665 H 282.66073 V 230.9052 l 56.22583,7.5962 v 39.7493 l 0.67362,0.0617 c 8.14621,-27.8073 28.23556,-36.87267 51.14245,-33.74745 4.10346,0.48971 11.02469,1.46914 11.02469,1.46914 v 63.76039 l -14.57724,-1.34765 c -18.68075,-1.83737 -46.60977,1.71399 -46.60977,44.5885 V 456.6665 h 70.68042 V 250.62845 L 459.6069,257.12 v 199.5465 h 19.2319 V 257.24335 h 62.22815 v 28.48022 h 0.79627 c 12.24969,-20.88586 33.93152,-34.48392 58.79821,-34.48392 25.66315,0 45.69135,8.45231 56.71601,33.62598 16.16955,-21.98865 36.25891,-33.62598 63.88189,-33.62598 65.1681,0 69.39423,50.10251 69.39423,89.72846 V 456.6665 h 31.7879 c -13.22961,-10.35134 -21.37561,-26.3363 -21.37561,-48.32495 0,-67.7398 72.57904,-62.47253 119.12781,-72.14911 11.45349,-2.38879 17.76184,-6.43176 17.76184,-19.17187 0,-15.67841 -18.49689,-21.6821 -32.33905,-21.6821 -18.49689,0 -30.31781,8.3906 -33.50262,26.03162 h -62.77954 c 1.16375,-27.19425 13.84198,-44.89508 31.97155,-55.67444 18.12958,-10.41303 41.83246,-14.456 65.10688,-14.456 42.81256,0 84.4002,8.45231 93.58728,50.89878 v -198.2624 z"
   id="path2" />
</g>
</svg>
