<?xml version="1.0" encoding="UTF-8" standalone="no"?>
<svg
   xmlns:dc="http://purl.org/dc/elements/1.1/"
   xmlns:cc="http://creativecommons.org/ns#"
   xmlns:rdf="http://www.w3.org/1999/02/22-rdf-syntax-ns#"
   xmlns:svg="http://www.w3.org/2000/svg"
   xmlns="http://www.w3.org/2000/svg"
   xmlns:sodipodi="http://sodipodi.sourceforge.net/DTD/sodipodi-0.dtd"
   xmlns:inkscape="http://www.inkscape.org/namespaces/inkscape"
   width="132"
   height="99"
   version="1.1"
   viewBox="0 0 34.925395 26.194741"
   id="svg14"
   sodipodi:docname="Prima_PLUS.svg"
   inkscape:version="1.0.2 (e86c870879, 2021-01-15, custom)">
  <metadata
     id="metadata20">
    <rdf:RDF>
      <cc:Work
         rdf:about="">
        <dc:format>image/svg+xml</dc:format>
        <dc:type
           rdf:resource="http://purl.org/dc/dcmitype/StillImage" />
        <dc:title></dc:title>
      </cc:Work>
    </rdf:RDF>
  </metadata>
  <defs
     id="defs18" />
  <sodipodi:namedview
     pagecolor="#ffffff"
     bordercolor="#666666"
     borderopacity="1"
     objecttolerance="10"
     gridtolerance="10"
     guidetolerance="10"
     inkscape:pageopacity="0"
     inkscape:pageshadow="2"
     inkscape:window-width="1920"
     inkscape:window-height="1001"
     id="namedview16"
     showgrid="false"
     inkscape:zoom="3.3328614"
     inkscape:cx="247.235"
     inkscape:cy="96.705002"
     inkscape:window-x="-9"
     inkscape:window-y="-9"
     inkscape:window-maximized="1"
     inkscape:current-layer="svg14" />
  <g
     transform="matrix(0.25077624,0,0,0.25077624,0.1644697,-2.9224138)"
     fill="#ee7219"
     id="g12">
    <path
       d="m 87.044,72.728 c -2.6974,0 -3.8527,1.5707 -3.8527,6.3353 v 10.398 h 6.6838 v -12.284 c 0,-2.7404 -0.79728,-4.4495 -2.8311,-4.4495 m 13.559,0 c -3.2273,0 -3.5424,2.5112 -3.5424,6.2828 v 10.451 h 6.6838 v -12.737 c 0,-2.5112 -1.1983,-3.996 -3.1414,-3.996 M 45.911,69.0764 c 0,-3.0602 -1.6089,-4.502 -3.7811,-4.7741 L 37.203,63.68166 v 8.7223 l 4.9269,0.42012 c 2.2104,0.19096 3.7811,-0.77341 3.7811,-3.7477 m 76.802,11.697 c -1.6757,0.40103 -3.0936,1.1171 -3.0936,2.9552 0,1.8858 1.4609,2.6496 3.1414,2.6496 3.5806,0 4.7741,-2.0624 4.6023,-6.8652 -1.0646,0.66838 -3.0125,0.80206 -4.65,1.2604 M 73.7781,65.05738 68.4072,64.2792 V 58.259 l 5.3709,0.9596 z m 0.01432,-15.124 -51.432,-11.639 -0.0095,51.174 7.0705,-0.0048 v -34.13 l 13.783,2.2056 c 4.946,0.79251 9.3859,4.1965 9.3859,11.673 0,7.8296 -3.5711,10.689 -9.3859,10.374 l -6.0011,-0.31509 v 10.193 h 16.819 v -25.293 l 6.2971,0.84502 v 4.459 l 0.07639,0.0048 c 0.91663,-3.1127 3.1652,-4.1296 5.7337,-3.7811 0.45354,0.05729 1.2317,0.16232 1.2317,0.16232 v 7.1469 l -1.6328,-0.15277 c -2.0911,-0.20051 -5.2229,0.19097 -5.2229,4.9937 v 11.615 h 7.9203 v -23.083 l 5.4282,0.72567 v 22.357 h 2.1484 v -22.343 h 6.975 v 3.1891 h 0.08116 c 1.3797,-2.3393 3.8098,-3.867 6.5931,-3.867 2.874,0 5.1179,0.95005 6.3544,3.7763 1.8142,-2.4682 4.0676,-3.7763 7.1612,-3.7763 7.2996,0 7.7723,5.6144 7.7723,10.059 v 12.962 h 3.5615 c -1.48,-1.1553 -2.3918,-2.9504 -2.3918,-5.4186 0,-7.5861 8.1304,-6.9989 13.348,-8.0778 1.2795,-0.27212 1.9908,-0.72567 1.9908,-2.1531 0,-1.7569 -2.0768,-2.4253 -3.6283,-2.4253 -2.0768,0 -3.3992,0.9405 -3.7572,2.9122 h -7.0323 c 0.13368,-3.0507 1.5516,-5.0272 3.5806,-6.2398 2.0338,-1.1601 4.6882,-1.6184 7.2949,-1.6184 4.8028,0 9.4576,0.95005 10.489,5.7051 v -22.214 z"
       id="path2" />
    <path
       d="m 3.8514,89.456 v -6.5597 c 0,-2.5733 1.1792,-4.9937 4.4495,-4.9937 3.4278,0 4.7646,1.9526 4.7646,4.9937 v 2.96 h 4.6023 v 3.5997 z m 6.426,-3.5997 v -2.4205 c 0,-1.141 -0.46309,-1.9335 -1.7235,-1.9335 -1.3177,0 -1.8189,0.8307 -1.8189,1.9335 v 2.4205 z"
       id="path4" />
    <path
       d="m 3.8518,75.712 v -3.5997 h 10.723 v -6.4451 h 3.0936 v 10.045 z"
       id="path6" />
    <path
       d="m 11.961,52.43 c 4.0055,0 6.0011,1.838 6.0011,6.0202 0,4.1774 -1.9956,6.0154 -6.0011,6.0154 H 3.8497 v -3.5997 h 8.3261 c 1.7808,0 2.6878,-0.63496 2.6878,-2.4157 0,-1.78074 -0.90709,-2.4205 -2.6878,-2.4205 H 3.8497 V 52.43 Z"
       id="path8" />
    <path
       d="m 13.025,46.71 c 1.628,-0.07639 2.1484,-1.0646 2.1484,-2.6115 0,-1.0837 -0.3867,-2.2056 -1.4131,-2.2056 -1.2365,0 -1.4513,1.9717 -2.0147,3.9673 -0.55857,1.9526 -1.4322,4.0437 -3.9864,4.0437 -3.0173,0 -4.1965,-3.0411 -4.1965,-5.6335 0,-2.726 1.3511,-5.5332 4.4495,-5.5332 v 3.5997 c -1.2365,-0.05729 -1.6662,1.141 -1.6662,2.2247 0,0.77341 0.27213,1.7426 1.184,1.7426 1.0837,0 1.2556,-1.9956 1.8189,-4.0055 0.55857,-1.9956 1.4895,-4.0055 3.9864,-4.0055 3.5042,0 4.6261,2.9791 4.6261,6.0154 0,3.1557 -1.394,6.0011 -4.9365,6.0011 z"
       id="path10" />
  </g>
</svg>
