<?xml version="1.0" encoding="UTF-8" standalone="no"?>
<svg
   xmlns:dc="http://purl.org/dc/elements/1.1/"
   xmlns:cc="http://creativecommons.org/ns#"
   xmlns:rdf="http://www.w3.org/1999/02/22-rdf-syntax-ns#"
   xmlns:svg="http://www.w3.org/2000/svg"
   xmlns="http://www.w3.org/2000/svg"
   xmlns:sodipodi="http://sodipodi.sourceforge.net/DTD/sodipodi-0.dtd"
   xmlns:inkscape="http://www.inkscape.org/namespaces/inkscape"
   width="132"
   height="99"
   version="1.1"
   id="svg12"
   sodipodi:docname="Prima_ZOOM.svg"
   inkscape:version="1.0.2 (e86c870879, 2021-01-15, custom)">
  <metadata
     id="metadata18">
    <rdf:RDF>
      <cc:Work
         rdf:about="">
        <dc:format>image/svg+xml</dc:format>
        <dc:type
           rdf:resource="http://purl.org/dc/dcmitype/StillImage" />
        <dc:title></dc:title>
      </cc:Work>
    </rdf:RDF>
  </metadata>
  <defs
     id="defs16" />
  <sodipodi:namedview
     pagecolor="#ffffff"
     bordercolor="#666666"
     borderopacity="1"
     objecttolerance="10"
     gridtolerance="10"
     guidetolerance="10"
     inkscape:pageopacity="0"
     inkscape:pageshadow="2"
     inkscape:window-width="1920"
     inkscape:window-height="1001"
     id="namedview14"
     showgrid="false"
     inkscape:zoom="0.90888889"
     inkscape:cx="750"
     inkscape:cy="450"
     inkscape:window-x="-9"
     inkscape:window-y="-9"
     inkscape:window-maximized="1"
     inkscape:current-layer="svg12" />
  <g
     id="g25"
     transform="matrix(0.0889787,0,0,0.0889787,-0.79667045,9.5485637)">
    <path
       d="M 927.6,84.94 C 936.816,74.86 940.15,66 940.04,53 939.9177,38.91 931.132,25 918.04,25 848.79,25 780.64,24.7005 711.94,24.7754 689.04,24.80038 666.09,24.86679 643,25 c -13,0 -24,15 -24,28 0,13 11,28 24,28 79.18,0.1662 136,-1.14 210,0 L 626.9,326.8 c -9.216,10.08 -12.55,18.94 -12.44,31.94 0.1223,14.09 8.908,28 22,28 92.33,0 187.2,0.5329 279.5,0 13,0 24,-15 24,-28 0,-13 -11,-28 -24,-28 -79.18,-0.1662 -137,1.14 -211,0 z"
       id="path2" />
    <path
       d="m 1258,22 c -52.33,0 -100.3,20.44 -134.6,54.46 -34.29,34.02 -54.9,81.62 -54.9,133.5 0,51.88 20.61,99.62 54.9,133.6 34.29,34.02 82.27,54.36 134.6,54.36 52.33,0 100.3,-20.44 134.6,-54.46 34.29,-34.02 54.9,-81.62 54.9,-133.5 0,-51.88 -20.61,-99.52 -54.9,-133.5 C 1358.31,42.44 1310.33,22 1258,22 Z m 0,59 c 33.97,0 65.11,14.03 87.37,37.37 22.26,23.34 35.63,56.01 35.63,91.63 0,35.62 -13.38,68.28 -35.63,91.63 -22.26,23.34 -53.4,37.37 -87.37,37.37 -33.97,0 -65.11,-13.96 -87.37,-37.3 C 1148.37,278.36 1135,245.63 1135,210 c 0,-35.63 13.38,-68.28 35.63,-91.63 C 1192.89,95.03 1224.03,81 1258,81 Z"
       id="path4" />
    <path
       d="m 395,134.5 c -4.626,-2.079 -6.853,-4.207 -9.187,-8.781 -2.24,-4.388 -5.399,-14.36 -6.395,-20.19 -1.423,-8.323 -4.685,-21.06 -6.088,-23.77 l -1.458,-2.82 11.98,0.155 c 19.54,0.2528 29.8,4.979 35.47,16.34 2.118,4.247 2.981,7.687 3.366,13.4 0.7759,11.53 -2.13,19.48 -8.976,24.55 -3.649,2.703 -13.82,3.306 -18.71,1.109 z m -46.03,171.2 c -7.242,-0.5945 -10.97,-1.466 -15.68,-3.664 -8.54,-3.987 -11.45,-8.464 -12.11,-18.59 -0.8215,-12.8 3.128,-19.38 14.4,-23.98 l 5.887,-2.402 52.25,-0.0583 52.25,-0.0583 v 49.53 h -43.75 c -24.06,4e-5 -48.02,-0.3509 -53.25,-0.7799 z m -2.237,104.2 c -8.844,-1.489 -14.86,-4.089 -19.27,-8.331 -5.234,-5.033 -6.838,-10.19 -6.326,-20.33 0.3456,-6.844 0.58,-7.468 4.195,-11.17 2.676,-2.741 5.762,-4.555 10.25,-6.03 6.202,-2.036 8.226,-2.109 58.4,-2.109 h 51.98 v 49 l -47.25,-0.1176 c -25.99,-0.0647 -49.38,-0.4765 -51.99,-0.9152 z m -88.21,305.3 c 2.25,-7.958 6.804,-13.24 14.92,-17.32 6.253,-3.137 7.249,-3.5 19,-3.495 10.44,0.005 12.56,0.2928 16.12,2.191 8.325,4.444 11.75,10.61 11.86,21.3 0.0557,5.798 -2.544,39.26 -3.127,40.25 -0.2439,0.4125 -15.09,0.75 -32.99,0.75 h -32.55 z M 256.971,523 c 0,-1.805 5.096,-36.7 5.604,-38.38 0.4946,-1.63 -1.002,-1.75 -21.92,-1.75 h -22.45 l -1.06,4.25 c -0.973,3.902 -4.576,24.09 -5.888,33 l -0.5527,3.75 h 23.13 c 12.72,0 23.13,-0.3921 23.13,-0.8714 z m -203,324.7 c 27.22,-116.1 63.31,-242.1 94,-360.9 v -462 h 164 l -5.848,2.541 c -16.91,7.347 -26.51,21.85 -31.35,45.82 -3.061,15.15 -3.006,44.14 0.1114,58.48 7.284,33.5 23.46,50.42 52.29,54.68 4.377,0.6468 4.744,0.5312 5.282,-1.661 0.3176,-1.296 0.4507,-13.37 0.2958,-26.83 l -0.2816,-24.47 -5,-1.855 c -7.391,-2.741 -11.41,-6.28 -14.32,-12.6 -5.246,-11.39 -2.643,-29.39 5.376,-37.16 3.354,-3.251 3.951,-3.449 10.42,-3.449 5.943,0 7.222,0.3353 9.532,2.5 4.08,3.823 5.397,8.088 8.031,26 1.334,9.075 3.16,21 4.057,26.5 5.917,36.28 19.21,54.5 43.09,59.07 9.494,1.816 15.4,1.809 24.15,-0.0321 9.167,-1.928 17.12,-5.788 23.21,-11.27 l 4.953,-4.454 v 25.19 l -57.25,0.0179 c -44.23,0.0138 -59.36,0.3396 -66.54,1.432 -33.84,5.151 -49.45,22.97 -49.58,56.55 -0.0739,19.88 5.24,32.89 19.14,46.87 4.577,4.603 8.188,8.428 8.025,8.5 -17.81,7.834 -27.16,23.86 -27.21,46.63 -0.0279,11.89 2.141,20.02 8.022,30.05 3.678,6.275 13.06,16.16 17.81,18.76 1.015,0.5561 3.321,2.1 4.125,2.612 l -25.05,0.0748 -0.2666,26.25 -0.2666,26.25 h 169 v 16 h -168.8 l -0.7111,6.75 c -0.3911,3.712 -1.566,12.6 -2.612,19.75 -1.045,7.15 -1.903,13.56 -1.905,14.25 -0.004,0.9905 18.06,1.25 87,1.25 h 87 v 59 l -46.25,-0.0174 c -48.9,-0.0184 -54.97,-0.4799 -63.39,-4.821 -5.252,-2.706 -9.805,-7.673 -12.52,-13.66 -2.054,-4.526 -2.252,-6.35 -2.088,-19.25 l 0.1809,-14.25 h -53.68 l -0.6337,3.168 c -3.971,19.85 1.025,34.75 14.72,43.9 3.353,2.239 9.94,5.703 11.61,6.078 l -32.38,0.356 -1.288,9.5 c -3.986,29.41 -4.964,37.57 -4.582,38.25 0.2334,0.4125 43.15,0.75 95.37,0.75 l 94.94,1.2e-4 v 126 h -76.04 l 0.7678,-11.25 c 0.4223,-6.188 0.7678,-21.82 0.7678,-34.75 v -23.5 l -2.885,-7.5 c -8.229,-21.39 -23.69,-32.79 -51,-37.59 -10.93,-1.922 -33.6,-2.194 -42.35,-0.508 -3.432,0.6613 -7.419,1.421 -8.86,1.689 -4.854,0.9008 -14.86,4.663 -20.4,7.671 -12.69,6.89 -22.28,16.18 -29.64,28.72 -8.143,13.87 -9.146,18.35 -21.49,96.02 -4.461,28.06 -5.872,38.71 -5.872,40 h 257 v 53 h -392 z"
       fill="#0096eb"
       id="path6" />
    <path
       d="m 771.5,495 c -52.33,0 -100.3,20.44 -134.6,54.46 -34.29,34.02 -54.9,81.62 -54.9,133.5 0,51.88 20.61,99.62 54.9,133.6 34.29,34.02 82.27,54.36 134.6,54.36 52.33,0 100.3,-20.44 134.6,-54.46 34.29,-34.02 54.9,-81.62 54.9,-133.5 0,-51.88 -20.61,-99.52 -54.9,-133.5 C 871.81,515.44 823.83,495 771.5,495 Z m 0,59 c 33.97,0 65.11,14.03 87.37,37.37 22.26,23.34 35.63,56.01 35.63,91.63 0,35.62 -13.38,68.28 -35.63,91.63 C 836.61,797.97 805.47,812 771.5,812 737.53,812 706.39,798.04 684.13,774.7 661.87,751.36 648.5,718.63 648.5,683 c 0,-35.63 13.38,-68.28 35.63,-91.63 C 706.39,568.03 737.53,554 771.5,554 Z"
       id="path8" />
    <path
       d="m 1162,537 c -16.23,-23.5 -14.79,-29.06 -44,-29.06 -18,0 -32,13.85 -32,29.06 v 311 c 0,16 14,28 32,28 18,0 32,-12 32,-28 V 627 l 84,126 c 5.385,8.439 14.99,14 24,14 9.01,0 18.62,-5.561 24,-14 l 84,-126 v 221 c 0,16 14,28 32,28 18,0 32,-12 32,-28 V 537 c 0,-15.21 -14,-29.06 -32,-29.06 -29.21,0 -27.77,5.568 -44,29.06 l -96,150 z"
       id="path10" />
  </g>
</svg>
