<?xml version="1.0" encoding="UTF-8" standalone="no"?>
<svg
   xmlns:dc="http://purl.org/dc/elements/1.1/"
   xmlns:cc="http://creativecommons.org/ns#"
   xmlns:rdf="http://www.w3.org/1999/02/22-rdf-syntax-ns#"
   xmlns:svg="http://www.w3.org/2000/svg"
   xmlns="http://www.w3.org/2000/svg"
   xmlns:sodipodi="http://sodipodi.sourceforge.net/DTD/sodipodi-0.dtd"
   xmlns:inkscape="http://www.inkscape.org/namespaces/inkscape"
   version="1.1"
   id="Layer_1"
   x="0px"
   y="0px"
   width="132"
   height="99"
   viewBox="0 0 132 98.999999"
   enable-background="new 0 0 1000 278.9925537"
   xml:space="preserve"
   sodipodi:docname="Prima_COOL.svg"
   inkscape:version="1.0.2 (e86c870879, 2021-01-15, custom)"><metadata
   id="metadata31"><rdf:RDF><cc:Work
       rdf:about=""><dc:format>image/svg+xml</dc:format><dc:type
         rdf:resource="http://purl.org/dc/dcmitype/StillImage" /><dc:title></dc:title></cc:Work></rdf:RDF></metadata><defs
   id="defs29" /><sodipodi:namedview
   pagecolor="#ffffff"
   bordercolor="#666666"
   borderopacity="1"
   objecttolerance="10"
   gridtolerance="10"
   guidetolerance="10"
   inkscape:pageopacity="0"
   inkscape:pageshadow="2"
   inkscape:window-width="1920"
   inkscape:window-height="1001"
   id="namedview27"
   showgrid="false"
   inkscape:zoom="1.165312"
   inkscape:cx="481.90329"
   inkscape:cy="108.55338"
   inkscape:window-x="-9"
   inkscape:window-y="-9"
   inkscape:window-maximized="1"
   inkscape:current-layer="Layer_1" />
<g
   id="g24"
   transform="matrix(0.124,0,0,0.124,4,32.202461)">
	<path
   fill="#5eb130"
   d="m 337.92813,223.69365 c 1.71381,0.858 2.57071,1.99991 2.57071,3.42824 0,2.28508 -1.59146,6.28366 -4.73343,11.99698 -3.142,5.71208 -8.40591,12.28215 -15.83243,19.70895 -12.85357,13.13892 -31.29748,19.70898 -55.29095,19.70898 h -21.01465 c -11.99681,0 -22.89172,-1.79571 -32.76659,-5.34597 -9.83409,-3.59137 -18.28064,-8.69202 -25.29916,-15.42398 -6.97774,-6.73319 -12.32324,-14.73035 -16.03648,-23.99395 -3.71326,-9.30345 -5.5902,-19.62677 -5.5902,-31.09326 V 75.857147 c 0,-11.425392 1.91773,-21.789814 5.79427,-31.093262 3.83575,-9.263599 9.22203,-17.179807 16.07727,-23.789726 C 192.66173,14.445185 201.0267,9.3034467 210.86079,5.550188 220.73566,1.83678 231.63057,0 243.62738,0 h 21.01465 c 9.71158,0 18.56625,1.143162 26.56418,3.428241 7.99777,2.2850788 15.30194,5.875206 21.87155,10.690682 4.28451,3.182923 8.12012,6.609917 11.54788,10.323326 3.42761,3.672316 6.28397,7.263688 8.56906,10.691929 2.28507,3.426995 4.08045,6.568821 5.38626,9.425484 1.2649,2.856659 1.91788,4.855324 1.91788,5.998486 0,1.428329 -0.8569,2.570247 -2.57071,3.426994 l -37.29596,18.445011 c -0.57129,0.285164 -1.26504,0.407204 -2.12195,0.407204 -1.42819,0 -2.44821,-0.611435 -3.0195,-1.917725 -0.57126,-1.305046 -1.55066,-3.059639 -2.97885,-5.345962 -3.71322,-6.568825 -7.71213,-11.669468 -11.99664,-15.219746 -4.28455,-3.591373 -9.58923,-5.345966 -15.8732,-5.345966 h -21.01465 c -8.56905,0 -15.83241,2.978699 -21.83075,8.977184 -5.99834,5.998486 -9.01796,13.303272 -9.01796,21.872006 V 202.67964 c 0,8.56874 3.01962,15.87352 9.01796,21.87201 5.99834,5.99849 13.2617,9.01703 21.83075,9.01703 h 21.01465 c 6.28397,0 11.50696,-1.7135 15.62833,-5.18159 4.1622,-3.42824 8.07949,-8.56873 11.79275,-15.42397 2.57071,-5.38705 4.73331,-8.12044 6.44711,-8.12044 0.85691,0 1.55066,0.12204 2.12195,0.40721 z"
   id="path2" />
	<path
   fill="#5eb130"
   d="M 421.48886,68.559837 V 210.3991 c 0,7.99841 1.91773,13.58844 5.79425,16.73027 3.8356,3.14183 7.63059,4.6922 11.34384,4.6922 0.57126,0 1.30582,0.16313 2.16272,0.44954 1.4282,0.85675 2.1218,2.12195 2.1218,3.83545 v 38.60103 c 0,2.24521 -0.8569,3.55026 -2.57071,3.83667 -1.71381,0.28518 -3.71326,0.4483 -5.99832,0.4483 -8.28342,-0.32626 -16.28134,-2.24399 -23.9935,-5.79425 -7.71213,-3.59137 -14.56738,-8.48779 -20.56571,-14.81256 -5.99847,-6.28365 -10.8135,-13.46513 -14.36346,-21.62666 -3.59091,-8.1603 -5.34549,-16.9345 -5.34549,-26.35999 V 68.559837 c 0,-9.425483 1.75458,-18.198444 5.34549,-26.359974 3.54996,-8.11919 8.36499,-15.341781 14.36346,-21.626682 5.99833,-6.283655 12.85358,-11.2211694 20.56571,-14.8112954 7.71216,-3.5502779 15.71008,-5.4680009 23.9935,-5.7544141 2.28506,0 4.28451,0.1232822 5.99832,0.4084501 1.71381,0.2851679 2.57071,1.5914609 2.57071,3.8765397 V 42.853634 c 0,1.998665 -0.6936,3.263866 -2.1218,3.835445 -0.8569,0.285168 -1.59146,0.4483 -2.16272,0.4483 -3.71325,0 -7.50824,1.550365 -11.34384,4.693439 -3.87652,3.182922 -5.79425,8.731865 -5.79425,16.729019"
   id="path4" />
	<path
   fill="#5eb130"
   d="m 507.19193,68.559837 c 0,-7.997154 -1.91788,-13.546097 -5.79441,-16.729019 -3.8356,-3.143074 -7.63058,-4.693439 -11.34384,-4.693439 -0.8569,0 -1.59146,-0.163132 -2.16272,-0.4483 -1.42819,-0.571579 -2.1218,-1.83678 -2.1218,-3.835445 V 4.2924614 c 0,-2.2850788 0.85691,-3.5913718 2.57071,-3.8765397 1.71381,-0.2851679 3.71326,-0.4084501 5.99833,-0.4084501 7.99777,0.2864132 15.8732,2.2041361 23.58532,5.7544141 7.71234,3.590126 14.56757,8.5276403 20.56592,14.8112953 5.99829,6.284901 10.85413,13.507492 14.56732,21.626682 3.71326,8.16153 5.54962,16.934491 5.54962,26.359974 V 210.3991 c 0,9.42549 -1.83636,18.19969 -5.54962,26.35999 -3.71319,8.16153 -8.56903,15.34301 -14.56732,21.62666 -5.99835,6.32477 -12.85358,11.22119 -20.56592,14.81256 -7.71213,3.55026 -15.58755,5.46799 -23.58532,5.79425 -2.28507,0 -4.28452,-0.16312 -5.99833,-0.4483 -1.7138,-0.28641 -2.57071,-1.59146 -2.57071,-3.83667 v -38.60103 c 0,-1.99991 0.69361,-3.26511 2.1218,-3.83545 0.57126,-0.28641 1.30582,-0.44954 2.16272,-0.44954 3.71326,0 7.50824,-1.55037 11.34384,-4.6922 3.87653,-3.14183 5.79441,-8.73186 5.79441,-16.73027 z"
   id="path6" />
	<path
   fill="#5eb130"
   d="M 652.89496,68.559837 V 210.3991 c 0,7.99841 1.91772,13.58844 5.79425,16.73027 3.83563,3.14183 7.63061,4.6922 11.34387,4.6922 0.57123,0 1.30579,0.16313 2.16272,0.44954 1.42816,0.85675 2.12177,2.12195 2.12177,3.83545 v 38.60103 c 0,2.24521 -0.85688,3.55026 -2.57068,3.83667 -1.71381,0.28518 -3.71326,0.4483 -5.99835,0.4483 -8.28339,-0.32626 -16.28132,-2.24399 -23.99347,-5.79425 -7.71216,-3.59137 -14.56739,-8.48779 -20.56574,-14.81256 -5.99847,-6.28365 -10.81348,-13.46513 -14.36346,-21.62666 -3.59088,-8.1603 -5.34546,-16.9345 -5.34546,-26.35999 V 68.559837 c 0,-9.425483 1.75458,-18.198444 5.34546,-26.359974 3.54998,-8.11919 8.36499,-15.341781 14.36346,-21.626682 5.99835,-6.283655 12.85358,-11.2211694 20.56574,-14.8112954 7.71215,-3.5502779 15.71008,-5.4680009 23.99347,-5.7544141 2.28509,0 4.28454,0.1232822 5.99835,0.4084501 1.7138,0.2851679 2.57068,1.5914609 2.57068,3.8765397 V 42.853634 c 0,1.998665 -0.69361,3.263866 -2.12177,3.835445 -0.85693,0.285168 -1.59149,0.4483 -2.16272,0.4483 -3.71326,0 -7.50824,1.550365 -11.34387,4.693439 -3.87653,3.182922 -5.79425,8.731865 -5.79425,16.729019"
   id="path8" />
	<path
   fill="#5eb130"
   d="m 738.59802,68.559837 c 0,-7.997154 -1.91784,-13.546097 -5.79443,-16.729019 -3.83557,-3.143074 -7.63056,-4.693439 -11.34381,-4.693439 -0.85687,0 -1.59143,-0.163132 -2.16272,-0.4483 -1.42816,-0.571579 -2.12177,-1.83678 -2.12177,-3.835445 V 4.2924614 c 0,-2.2850788 0.85688,-3.5913718 2.57068,-3.8765397 1.71381,-0.2851679 3.71326,-0.4084501 5.99835,-0.4084501 7.99775,0.2864132 15.87317,2.2041361 23.58533,5.7544141 7.71228,3.590126 14.56757,8.5276403 20.56586,14.8112953 5.99835,6.284901 10.85412,13.507492 14.56738,21.626682 3.71326,8.16153 5.54956,16.934491 5.54956,26.359974 V 210.3991 c 0,9.42549 -1.8363,18.19969 -5.54956,26.35999 -3.71326,8.16153 -8.56903,15.34301 -14.56738,21.62666 -5.99829,6.32477 -12.85358,11.22119 -20.56586,14.81256 -7.71216,3.55026 -15.58758,5.46799 -23.58533,5.79425 -2.28509,0 -4.28454,-0.16312 -5.99835,-0.4483 -1.7138,-0.28641 -2.57068,-1.59146 -2.57068,-3.83667 v -38.60103 c 0,-1.99991 0.69361,-3.26511 2.12177,-3.83545 0.57129,-0.28641 1.30585,-0.44954 2.16272,-0.44954 3.71325,0 7.50824,-1.55037 11.34381,-4.6922 3.87659,-3.14183 5.79443,-8.73186 5.79443,-16.73027 z"
   id="path10"
   style="display:inline" />
	<path
   fill="#5eb130"
   d="m 1000,269.97427 c 0,2.85666 -1.42834,4.28501 -4.28467,4.28501 H 844.45074 c -2.85638,0 -4.28466,-1.42835 -4.28466,-4.28501 V 8.5774517 c 0,-2.8566604 1.42828,-4.2849903 4.28466,-4.2849903 h 40.68262 c 2.85639,0 4.28455,1.4283299 4.28455,4.2849903 V 224.96632 c 0,2.85666 1.42816,4.28499 4.28454,4.28499 h 102.01288 c 2.85633,0 4.28467,1.42833 4.28467,4.28499 z"
   id="path12"
   style="display:inline" />
	<path
   fill="#5eb130"
   d="m 70.592903,131.34409 h 7.58979 v -0.20423 c -5.549408,-3.30495 -9.221878,-9.05937 -9.221878,-15.71038 0,-6.85524 2.28508,-12.19996 9.017815,-15.1388 -5.875832,-4.324837 -9.017815,-9.670807 -9.017815,-17.056526 0,-17.38279 13.384056,-18.484856 23.952546,-18.484856 h 30.889499 v -8.486549 c -2.77478,3.509185 -7.01852,5.670982 -12.89435,5.670982 -18.076715,0 -16.689325,-19.341606 -19.260034,-31.786879 -0.652993,-3.060884 -1.713814,-4.733289 -5.141434,-4.733289 -4.162171,0 -5.753632,4.937515 -5.753632,8.650924 0,4.937512 2.244293,8.079338 6.936959,8.936089 V 59.730839 C 80.426994,59.444427 75.734489,56.058525 72.837196,51.201954 70.062569,46.387722 68.960815,40.062973 68.960815,33.86026 c 0,-11.466488 2.28508,-22.524525 13.588127,-25.0138283 H 29.665398 V 153.21484 L 0,268.65305 v 7.05944 h 123.80286 v -7.05944 -9.753 H 42.518967 l 5.223148,-32.84785 c 1.917877,-11.79275 9.997219,-22.36139 27.829082,-22.36139 18.647988,0 25.462443,8.52889 24.727893,22.36139 l -0.775187,14.28206 H 123.80286 V 200.3049 H 63.574535 l 1.999447,-15.01675 H 76.18325 v -0.16313 c -7.385719,-2.20415 -9.834083,-7.54886 -8.97718,-13.66939 0.122505,-1.10207 0.367355,-2.93885 0.367355,-2.93885 h 17.01574 l -0.326416,3.87655 c -0.489701,5.01969 0.448768,12.44651 11.874313,12.44651 H 123.80286 V 165.98763 H 68.83831 l 1.713814,-12.93592 h 53.250736 v -5.10065 H 70.592903 Z m -6.773514,34.68339 H 49.496708 l 2.285076,-12.81264 h 13.914543 z"
   id="path14"
   style="display:inline" />
	<path
   fill="#5eb130"
   d="m 110.14547,44.056568 c 4.48843,0 6.32475,-3.46809 6.32475,-7.466667 0,-8.528883 -4.93751,-11.384298 -16.3629,-10.977093 1.59146,2.530398 1.91787,7.182743 2.97885,11.058037 0.97924,3.999821 2.69306,7.385723 7.0593,7.385723"
   id="path16"
   style="display:inline" />
	<path
   fill="#5eb130"
   d="m 83.948631,121.63966 c 0,6.44803 3.754036,9.18142 15.097862,9.18142 H 123.81516 V 114.90771 H 94.5579 c -6.528817,0 -10.609269,1.87663 -10.609269,6.73195"
   id="path18"
   style="display:inline" />
	<path
   fill="#5eb130"
   d="m 63.876514,228.61497 -1.469112,11.7529 h 20.769936 l 0.979255,-11.7529 c 0.448921,-5.26377 -1.836159,-9.01702 -8.895469,-9.01702 -7.304154,0 -10.731774,3.83545 -11.38461,9.01702"
   id="path20"
   style="display:inline" />
	<path
   fill="#5eb130"
   d="m 93.464394,81.870575 c -5.99849,0 -9.507668,2.856659 -9.507668,7.467911 0,7.71199 5.998329,8.446701 14.97551,8.446701 H 123.82341 V 81.870575 Z"
   id="path22"
   style="display:inline" />
</g>
</svg>
