<?xml version="1.0" encoding="UTF-8" standalone="no"?>
<svg
   xmlns:dc="http://purl.org/dc/elements/1.1/"
   xmlns:cc="http://creativecommons.org/ns#"
   xmlns:rdf="http://www.w3.org/1999/02/22-rdf-syntax-ns#"
   xmlns:svg="http://www.w3.org/2000/svg"
   xmlns="http://www.w3.org/2000/svg"
   xmlns:sodipodi="http://sodipodi.sourceforge.net/DTD/sodipodi-0.dtd"
   xmlns:inkscape="http://www.inkscape.org/namespaces/inkscape"
   height="99"
   viewBox="0 0 132.00003 99.000351"
   width="132"
   version="1.1"
   id="svg10"
   sodipodi:docname="Prima_Love.svg"
   inkscape:version="1.0.2 (e86c870879, 2021-01-15, custom)">
  <metadata
     id="metadata16">
    <rdf:RDF>
      <cc:Work
         rdf:about="">
        <dc:format>image/svg+xml</dc:format>
        <dc:type
           rdf:resource="http://purl.org/dc/dcmitype/StillImage" />
        <dc:title></dc:title>
      </cc:Work>
    </rdf:RDF>
  </metadata>
  <defs
     id="defs14" />
  <sodipodi:namedview
     pagecolor="#ffffff"
     bordercolor="#666666"
     borderopacity="1"
     objecttolerance="10"
     gridtolerance="10"
     guidetolerance="10"
     inkscape:pageopacity="0"
     inkscape:pageshadow="2"
     inkscape:window-width="1920"
     inkscape:window-height="1001"
     id="namedview12"
     showgrid="false"
     inkscape:zoom="2.7466667"
     inkscape:cx="236.59553"
     inkscape:cy="95.245003"
     inkscape:window-x="-9"
     inkscape:window-y="-9"
     inkscape:window-maximized="1"
     inkscape:current-layer="svg10" />
  <g
     fill="#7837f5"
     id="g8"
     transform="matrix(0.2066674,0,0,0.2066674,3.9997952,29.815692)">
    <path
       d="m 72.359,19.518 c 0.671,2.814 1.859,5.188 4.956,5.188 3.149,0 4.414,-2.452 4.414,-5.265 0,-5.989 -3.459,-7.976 -11.461,-7.692 1.11,1.781 1.316,5.033 2.091,7.769 M 69.494,85.572 H 86.892 V 74.395 H 66.344 c -4.568,0 -7.434,1.342 -7.434,4.724 0,4.517 2.633,6.453 10.584,6.453 M 69.416,62.393 H 86.891 V 51.216 H 65.596 c -4.182,0 -6.685,2.013 -6.685,5.265 0,5.395 4.207,5.911 10.506,5.911 m -11.048,100.02 0.722,-8.23 c 0.31,-3.69 -1.29,-6.3 -6.272,-6.3 -5.111,0 -7.511,2.68 -7.976,6.3 l -1.032,8.23 z M 44.792,110.272 H 34.751 l 1.6,-8.98 h 9.757 z m 42.1,72.02 v -6.87 H 29.847 l 3.691,-23.02 c 1.316,-8.26 6.995,-15.7 19.488,-15.7 13.087,0 17.888,5.96 17.346,15.7 l -0.516,10.01 h 17.036 v -28.11 H 44.611 l 1.419,-10.5 h 7.434 l 0.026,-0.13 c -5.214,-1.53 -6.918,-5.3 -6.324,-9.58 l 0.284,-2.07 h 11.925 l -0.258,2.72 c -0.336,3.51 0.336,8.75 8.363,8.75 h 19.411 v -13.25 H 48.302 l 1.213,-9.06 h 37.376 v -3.61 H 49.541 V 85.931 h 5.344 v -0.155 c -3.924,-2.297 -6.479,-6.35 -6.479,-10.996 0,-4.827 1.6,-8.57 6.324,-10.635 -4.13,-3.02 -6.324,-6.789 -6.324,-11.951 0,-12.209 9.395,-13.009 16.83,-13.009 h 21.657 v -5.937 c -1.936,2.478 -4.931,4.001 -9.06,4.001 -12.674,0 -11.693,-13.603 -13.5,-22.302 -0.465,-2.168 -1.214,-3.33 -3.614,-3.33 -2.917,0 -4.053,3.459 -4.053,6.04 0,3.485 1.575,5.679 4.879,6.299 V 35.7 c -5.085,-0.232 -8.389,-2.581 -10.428,-5.988 -1.936,-3.407 -2.71,-7.821 -2.71,-12.183 0,-8.0276 1.6,-15.823 9.55,-17.527 H 20.839 v 101.26 l -20.831,81.02 h 86.884 z"
       id="path2" />
    <path
       d="M 86.859,187.4 H 0 v -5.11 h 86.859 z"
       id="path4" />
    <path
       d="m 507.02,107.17 c 2.53,-14.999 11.18,-24.885 23.88,-24.885 13.22,0 22.1,9.628 23.88,24.885 z m 27.96,83.32 c 27.41,0 46.46,-11.18 59.68,-27.95 l -26.67,-22.1 c -9.91,9.65 -19.05,13.96 -30.48,13.96 -15,0 -25.92,-7.61 -29.74,-22.58 h 91.97 c 0.26,-3.31 0.26,-6.87 0.26,-9.91 0,-40.4 -21.84,-75.195 -69.36,-75.195 -40.63,0 -69.33,31.749 -69.33,71.885 v 0.49 c 0,42.7 30.48,71.4 73.67,71.4 m -166.64,-2.3 h 43.93 L 467.15,49.76 417.1,49.762 390.69,130.04 364.26,49.762 h -50.8 l 54.88,138.43 z M 243.1,149.58 c -17.01,0 -29.22,-14.23 -29.22,-30.98 v -0.51 c 0,-16.52 11.18,-30.488 28.7,-30.488 17.04,0 29.22,14.228 29.22,30.998 v 0.49 c 0,16.52 -11.18,30.49 -28.7,30.49 m -0.52,40.91 c 44.22,0 76.23,-32.78 76.23,-71.89 v -0.51 c 0,-39.109 -31.75,-71.374 -75.71,-71.374 -44.19,0 -76.2,32.756 -76.2,71.884 v 0.49 c 0,39.14 31.75,71.4 75.68,71.4 m -137.66,-3.3 h 48.27 V 1.75 L 104.92,1.7467 v 185.44 z"
       id="path6" />
  </g>
</svg>
