<?xml version="1.0" encoding="UTF-8" standalone="no"?>
<svg
   xmlns:dc="http://purl.org/dc/elements/1.1/"
   xmlns:cc="http://creativecommons.org/ns#"
   xmlns:rdf="http://www.w3.org/1999/02/22-rdf-syntax-ns#"
   xmlns:svg="http://www.w3.org/2000/svg"
   xmlns="http://www.w3.org/2000/svg"
   xmlns:sodipodi="http://sodipodi.sourceforge.net/DTD/sodipodi-0.dtd"
   xmlns:inkscape="http://www.inkscape.org/namespaces/inkscape"
   version="1.1"
   viewBox="0 0 132 99"
   id="svg14"
   sodipodi:docname="Prima_Krimi.svg"
   width="132"
   height="99"
   inkscape:version="1.0.2 (e86c870879, 2021-01-15, custom)">
  <metadata
     id="metadata20">
    <rdf:RDF>
      <cc:Work
         rdf:about="">
        <dc:format>image/svg+xml</dc:format>
        <dc:type
           rdf:resource="http://purl.org/dc/dcmitype/StillImage" />
        <dc:title></dc:title>
      </cc:Work>
    </rdf:RDF>
  </metadata>
  <defs
     id="defs18" />
  <sodipodi:namedview
     pagecolor="#ffffff"
     bordercolor="#666666"
     borderopacity="1"
     objecttolerance="10"
     gridtolerance="10"
     guidetolerance="10"
     inkscape:pageopacity="0"
     inkscape:pageshadow="2"
     inkscape:window-width="1920"
     inkscape:window-height="1001"
     id="namedview16"
     showgrid="false"
     inkscape:zoom="4.9376796"
     inkscape:cx="95.990888"
     inkscape:cy="-5.2283177"
     inkscape:window-x="-9"
     inkscape:window-y="-9"
     inkscape:window-maximized="1"
     inkscape:current-layer="svg14" />
  <desc
     id="desc2">Created with Sketch.</desc>
  <g
     transform="matrix(0.32872343,0,0,0.32872343,3.889483,34.497556)"
     fill="none"
     fill-rule="evenodd"
     id="g12">
    <g
       fill="#bfa301"
       id="g10">
      <g
         transform="translate(0,0.276)"
         id="g8">
        <path
           d="m 9.7432,49.06 -9.407,41.504 41.355,0.006 -0.001,-5.705 h -27.583 l 1.78,-11.122 c 0.64,-3.992 3.391,-7.575 9.433,-7.575 6.327,0 8.64,2.884 8.386,7.575 l -0.256,4.841 h 8.24 V 65.012 h -20.444 l 0.684,-5.079 h 3.602 l 0.004,-0.062 c -2.515,-0.739 -3.337,-2.557 -3.055,-4.628 0.047,-0.366 0.133,-0.993 0.133,-0.993 h 5.773 l -0.122,1.315 c -0.164,1.691 0.156,4.216 4.036,4.216 h 9.389 v -6.392 h -18.656 l 0.587,-4.377 h 18.069 v -1.737 h -18.06 v -5.626 h 2.578 v -0.068 c -1.889,-1.111 -3.124,-3.071 -3.124,-5.32 0,-2.32 0.766,-4.128 3.05,-5.127 -1.993,-1.463 -3.05,-3.282 -3.05,-5.779 0,-5.89 4.539,-6.271 8.129,-6.271 h 10.477 V 16.21 c -0.938,1.194 -2.385,1.93 -4.379,1.93 -6.134,0 -5.659,-6.562 -6.531,-10.771 -0.219,-1.036 -0.584,-1.607 -1.74,-1.607 -1.417,0 -1.962,1.675 -1.962,2.925 0,1.675 0.762,2.744 2.358,3.033 v 5.676 c -2.464,-0.108 -4.064,-1.253 -5.043,-2.892 -0.942,-1.64 -1.309,-3.781 -1.309,-5.886 0,-3.873 0.767,-7.631 4.609,-8.463 h -17.95 z m 12.222,0.01 -0.63,4.335 h -4.863 l 0.774,-4.335 z M 34.6632,9.582 c 0.326,1.354 0.904,2.498 2.392,2.498 1.523,0 2.139,-1.178 2.139,-2.535 0,-2.89 -1.666,-3.853 -5.547,-3.714 0.54,0.86 0.648,2.43 1.016,3.751 z m -9.448,61.977 c -2.475,0 -3.639,1.298 -3.86,3.051 l -0.502,3.974 h 7.048 l 0.341,-3.974 c 0.153,-1.784 -0.625,-3.051 -3.027,-3.051 z m 2.95,-44.134 c 0,2.604 2.031,2.857 5.078,2.857 h 8.447 v -5.391 h -10.296 c -2.029,0 -3.229,0.965 -3.229,2.534 z m 0,10.94 c 0,2.179 1.271,3.109 5.119,3.109 h 8.406 v -5.392 h -9.929 c -2.215,0 -3.596,0.644 -3.596,2.283 z"
           id="path4" />
        <path
           d="m 185.97,34.26 h -18.573 v 6.761 h 18.573 c 3.478,0 4.72,-1.427 4.72,-3.35 v -0.062 c 0,-1.923 -1.242,-3.349 -4.72,-3.349 z m 149.04,34.176 h 20.871 V 22.288 H 335.01 Z m -7.666,0 H 306.535 V 42.944 L 292.434,68.436 H 282.185 L 268.147,42.944 V 68.436 H 247.525 V 22.288 h 28.014 L 287.9,45.177 300.572,22.288 h 26.772 z m -108.11,0 h 20.871 V 22.288 h -20.871 z m -5.926,0 h -21.493 c -0.31,-0.31 -0.434,-0.93 -0.434,-1.86 v -5.521 c 0,-4.962 -2.361,-7.878 -9.131,-7.878 H 167.404 V 68.436 H 146.471 V 22.288 h 47.021 c 11.616,0 18.76,3.288 18.76,11.723 v 0.621 c 0,6.947 -6.212,9.552 -10.063,10.545 6.522,1.302 10.249,5.333 10.249,11.289 v 6.946 c 0,2.729 0.372,3.846 0.87,4.652 z m -97.765,0 -20.56,-19.475 V 68.436 H 74.05 V 22.288 H 94.983 V 39.47 l 21.74,-17.182 h 25.716 L 115.232,43.13 142.874,68.436 Z M 377.223,0.155 h -20.788 c 0.692,1.52 1.08,3.205 1.08,4.982 0,6.659 -5.406,12.058 -12.075,12.058 -6.669,0 -12.075,-5.399 -12.075,-12.058 0,-1.777 0.389,-3.462 1.08,-4.982 h -94.002 c 0.692,1.52 1.08,3.205 1.08,4.982 0,6.659 -5.406,12.058 -12.075,12.058 -6.669,0 -12.074,-5.399 -12.074,-12.058 0,-1.777 0.388,-3.462 1.079,-4.982 H 52.373 V 90.57 h 325.18 z"
           id="path6" />
      </g>
    </g>
  </g>
</svg>
