<?xml version="1.0" encoding="UTF-8" standalone="no"?>
<svg
   xmlns:dc="http://purl.org/dc/elements/1.1/"
   xmlns:cc="http://creativecommons.org/ns#"
   xmlns:rdf="http://www.w3.org/1999/02/22-rdf-syntax-ns#"
   xmlns:svg="http://www.w3.org/2000/svg"
   xmlns="http://www.w3.org/2000/svg"
   xmlns:sodipodi="http://sodipodi.sourceforge.net/DTD/sodipodi-0.dtd"
   xmlns:inkscape="http://www.inkscape.org/namespaces/inkscape"
   version="1.1"
   id="Слой_1"
   x="0px"
   y="0px"
   viewBox="0 0 132 99.000001"
   xml:space="preserve"
   sodipodi:docname="Prime_Hungary.svg"
   width="132"
   height="99"
   inkscape:version="1.0.2 (e86c870879, 2021-01-15, custom)"><metadata
   id="metadata31"><rdf:RDF><cc:Work
       rdf:about=""><dc:format>image/svg+xml</dc:format><dc:type
         rdf:resource="http://purl.org/dc/dcmitype/StillImage" /><dc:title></dc:title></cc:Work></rdf:RDF></metadata><defs
   id="defs29" /><sodipodi:namedview
   pagecolor="#ffffff"
   bordercolor="#666666"
   borderopacity="1"
   objecttolerance="10"
   gridtolerance="10"
   guidetolerance="10"
   inkscape:pageopacity="0"
   inkscape:pageshadow="2"
   inkscape:window-width="1288"
   inkscape:window-height="480"
   id="namedview27"
   showgrid="false"
   inkscape:zoom="1.6680261"
   inkscape:cx="256"
   inkscape:cy="53.356479"
   inkscape:window-x="0"
   inkscape:window-y="0"
   inkscape:window-maximized="0"
   inkscape:current-layer="Слой_1" />
<style
   type="text/css"
   id="style2">
	.st0{fill:#EE5D33;}
	.st1{fill:#424244;}
</style>
<g
   transform="matrix(0.18556281,0,0,0.18556281,371.21379,90.861951)"
   id="g24">
	<path
   class="st0"
   d="m -1900.8,-78.1 6,23.3 18.1,-4.5 v 81.6 h 29.4 V -86.9 h -21.8 c 0,0 -26.9,7.5 -31.7,8.8 z"
   id="path4" />
	<g
   id="g18">
		<rect
   x="-1659"
   y="-86.900002"
   class="st1"
   width="30.1"
   height="108.6"
   id="rect6" />
		<path
   class="st1"
   d="M -1610.1,-86.9 V 21.7 h 29.1 v -62.6 l 28.5,43.5 28.5,-43.5 v 62.6 h 29.1 V -86.9 h -31.8 l -25.8,41.9 -25.8,-41.9 h -15.4 z"
   id="path8" />
		<path
   class="st1"
   d="M -1476.7,-86.9 V 21.7 h 87.9 V -3.8 h -58.2 v -17.4 h 52.6 v -23.2 h -52.6 v -17 h 58.2 v -25.5 h -58.2 z"
   id="path10" />
		<path
   class="st1"
   d="m -1842.2,-86.9 v 25.5 c 5.6,-0.1 11.2,0.1 16.7,0 8.2,0 14.4,5.6 14.4,14.4 0,7.9 -6.4,14.4 -14.4,14.4 -5.6,-0.1 -11.6,0 -16.7,0 v 23.2 c 0,0 0.4,0 16.8,0 16.4,0 44,-6.8 44,-38.7 0,-31.7 -27.6,-38.7 -44,-38.7 -16.4,-0.1 -16.8,-0.1 -16.8,-0.1 z"
   id="path12" />
		<path
   class="st1"
   d="M -1768.7,-86.9 V 21.7 h 30 v -32.8 c 5.3,0 8.9,0 13.5,0 l 21.7,32.8 h 34.3 l -25.5,-37.7 c 11.6,-5.1 22.5,-15 22.5,-32.9 0,-32.4 -30.1,-37.9 -45.8,-37.9 -18.3,-0.2 -33.7,-0.1 -50.7,-0.1 z m 49.5,25.5 c 9.4,0 16.8,5 16.8,13.6 0,7.8 -5.5,13.4 -16.8,13.4 -3.1,-0.1 -11.3,-0.1 -19.5,0 v -26.9 c 8.1,-0.1 16.7,-0.1 19.5,-0.1 z"
   id="path14" />
		<path
   class="st1"
   d="m -1643.9,-468.1 c -79.9,0 -144.6,64.7 -144.6,144.6 0,79.9 64.8,144.6 144.6,144.6 79.9,0 144.6,-64.8 144.6,-144.6 0,-79.8 -64.8,-144.6 -144.6,-144.6 z m 0,14.3 c 72,0 130.3,58.4 130.3,130.3 0,71.9 -58.4,130.3 -130.3,130.3 -72,0 -130.3,-58.4 -130.3,-130.3 0,-71.9 58.3,-130.3 130.3,-130.3 z"
   id="path16" />
	</g>
	<path
   class="st0"
   d="m -1728.8,-383.8 9,34.8 27,-6.6 V -234 h 43.8 v -163 h -32.5 c 0,0 -40.2,11.2 -47.3,13.2 z"
   id="path20" />
	<path
   class="st1"
   d="m -1641.4,-397 v 38.1 c 8.3,-0.1 16.7,0.2 24.9,0 12.2,0 21.5,8.4 21.5,21.5 0,11.9 -9.6,21.5 -21.5,21.5 -8.3,-0.2 -17.2,0 -24.9,0 v 34.6 c 0,0 0.5,0 25.1,0 24.6,0 65.6,-10.2 65.6,-57.8 0,-47.3 -41.2,-57.8 -65.6,-57.8 -24.5,-0.1 -25.1,-0.1 -25.1,-0.1 z"
   id="path22" />
</g>
</svg>
