<?xml version="1.0" encoding="UTF-8" standalone="no"?>
<svg
   xmlns:dc="http://purl.org/dc/elements/1.1/"
   xmlns:cc="http://creativecommons.org/ns#"
   xmlns:rdf="http://www.w3.org/1999/02/22-rdf-syntax-ns#"
   xmlns:svg="http://www.w3.org/2000/svg"
   xmlns="http://www.w3.org/2000/svg"
   xmlns:sodipodi="http://sodipodi.sourceforge.net/DTD/sodipodi-0.dtd"
   xmlns:inkscape="http://www.inkscape.org/namespaces/inkscape"
   width="132"
   height="99"
   viewBox="0 0 34.924999 26.193751"
   version="1.1"
   id="svg8"
   inkscape:version="1.0.2 (e86c870879, 2021-01-15, custom)"
   sodipodi:docname="Private.svg">
  <defs
     id="defs2" />
  <sodipodi:namedview
     id="base"
     pagecolor="#ffffff"
     bordercolor="#666666"
     borderopacity="1.0"
     inkscape:pageopacity="0.0"
     inkscape:pageshadow="2"
     inkscape:zoom="1.979899"
     inkscape:cx="162.94436"
     inkscape:cy="112.60456"
     inkscape:document-units="px"
     inkscape:current-layer="layer1"
     inkscape:document-rotation="0"
     showgrid="false"
     units="px"
     inkscape:window-width="1920"
     inkscape:window-height="1001"
     inkscape:window-x="-9"
     inkscape:window-y="-9"
     inkscape:window-maximized="1" />
  <metadata
     id="metadata5">
    <rdf:RDF>
      <cc:Work
         rdf:about="">
        <dc:format>image/svg+xml</dc:format>
        <dc:type
           rdf:resource="http://purl.org/dc/dcmitype/StillImage" />
        <dc:title></dc:title>
      </cc:Work>
    </rdf:RDF>
  </metadata>
  <g
     inkscape:label="Vrstva 1"
     inkscape:groupmode="layer"
     id="layer1">
    <path
       style="fill:#dc0000;stroke-width:0.0105561"
       d="m 12.80781,25.126021 c -0.10364,-0.01791 -0.24823,-0.08928 -0.30229,-0.149065 -0.0857,-0.09475 -0.13147,-0.223566 -0.14554,-0.410208 -0.016,-0.230379 -0.0547,-0.328784 -0.14459,-0.38002 -0.0461,-0.02623 -0.048,-0.02655 -0.35398,-0.02975 -0.28022,-0.0029 -0.30933,-0.0048 -0.32484,-0.02207 -0.016,-0.01663 -0.016,-0.04849 -0.0128,-0.244838 l 0.003,-0.225901 0.32724,-0.0064 c 0.4019,-0.008 0.4685,-0.02047 0.5272,-0.09724 0.0224,-0.03007 0.0256,-0.04645 0.0256,-0.10732 0,-0.06097 -0.003,-0.07732 -0.0256,-0.107513 -0.0617,-0.0808 -0.15771,-0.09833 -0.53875,-0.09833 -0.2156,0 -0.29877,-0.0035 -0.30805,-0.01279 -0.01,-0.009 -0.0128,-0.07876 -0.0128,-0.246789 0,-0.192537 0.003,-0.236393 0.016,-0.246917 0.0192,-0.01695 1.0925,-0.0099 1.14045,0.0077 0.016,0.0064 0.0601,0.01951 0.095,0.02943 0.10844,0.03039 0.21528,0.08963 0.29333,0.163076 0.0899,0.08419 0.1222,0.131024 0.1609,0.232587 0.0256,0.07089 0.0288,0.09241 0.0288,0.205844 2.3e-4,0.131823 -0.0128,0.194552 -0.0592,0.260256 -0.01,0.01535 -0.0192,0.03215 -0.0192,0.0372 0,0.01631 -0.16154,0.16845 -0.21912,0.206229 l -0.0553,0.0365 0.0608,0.03071 c 0.0637,0.03231 0.17914,0.138861 0.19929,0.183804 0.047,0.105881 0.0566,0.164644 0.0566,0.344571 0,0.08525 0.006,0.161989 0.01,0.173376 0.01,0.01599 0.0224,0.02047 0.064,0.02047 0.0505,0 0.0537,-0.0017 0.0681,-0.0366 0.01,-0.02591 0.016,-0.07901 0.016,-0.182621 0,-0.09948 0.003,-0.150056 0.0128,-0.158693 0.01,-0.0086 0.0589,-0.01279 0.15675,-0.01279 0.18649,0 0.17913,-0.0074 0.17849,0.175007 -3.2e-4,0.123443 -0.016,0.263327 -0.0387,0.34752 -0.0403,0.148394 -0.20441,0.290102 -0.37299,0.322058 -0.064,0.01216 -0.43603,0.01184 -0.50618,-2.85e-4 z m -5.8823799,-0.04933 c -0.016,-0.0045 -0.0192,-0.02463 -0.0192,-0.236297 0,-0.213106 10e-4,-0.231531 0.0192,-0.232203 0.0445,-0.0018 0.18041,-0.01951 0.21912,-0.02847 0.0669,-0.01567 0.16122,-0.0635 0.20696,-0.105018 0.0739,-0.06673 0.0726,-0.05729 0.0726,-0.573948 v -0.462893 l -0.0256,-0.04514 c -0.0499,-0.0897 -0.14843,-0.141772 -0.34445,-0.181981 -0.0435,-0.009 -0.0947,-0.01631 -0.11356,-0.01631 l -0.0342,-6e-6 v -0.230988 c 0,-0.230635 3e-5,-0.231019 0.0224,-0.237352 0.0432,-0.01152 1.33778,-0.0074 1.35982,0.0042 0.0192,0.01056 0.0192,0.03071 0.0192,0.811529 0,0.87237 -0.002,0.834355 0.0598,0.916754 0.0528,0.06993 0.18618,0.121555 0.36249,0.1403 0.0646,0.0067 0.0934,0.01471 0.10301,0.02751 0.01,0.01311 0.0128,0.07613 0.0128,0.226829 0,0.195576 -10e-4,0.209427 -0.0192,0.219663 -0.0192,0.01088 -1.86255,0.01439 -1.90343,0.0035 z m 3.1130599,-0.01216 c -0.016,-0.01663 -0.016,-0.04805 -0.016,-0.219664 0,-0.143979 0.003,-0.20546 0.0128,-0.218479 0.01,-0.01312 0.0384,-0.02079 0.10301,-0.02751 0.0493,-0.0051 0.10876,-0.01407 0.13179,-0.01951 0.0387,-0.009 0.0569,-0.01567 0.13179,-0.04789 0.0525,-0.02271 0.096,-0.06231 0.12667,-0.11599 l 0.032,-0.05476 1e-4,-0.449981 c 9e-5,-0.387675 -0.002,-0.455644 -0.016,-0.49086 -0.032,-0.077 -0.10012,-0.132463 -0.21016,-0.170337 -0.0681,-0.02335 -0.21784,-0.05524 -0.26006,-0.05524 -0.0128,0 -0.032,-0.0058 -0.0387,-0.01279 -0.016,-0.01631 -0.0192,-0.401315 -0.002,-0.431384 0.01,-0.01983 0.0288,-0.02047 0.7016,-0.02047 0.67207,0 0.69098,5.5e-4 0.70163,0.02047 0.006,0.01344 0.01,0.288022 0.01,0.816807 0,0.887878 -0.003,0.838101 0.0745,0.909202 0.0771,0.06957 0.17498,0.105273 0.33552,0.122387 0.0486,0.0051 0.0947,0.01503 0.10301,0.02175 0.0192,0.01631 0.0224,0.431227 0.002,0.450893 -0.01,0.0096 -0.23704,0.01279 -0.95895,0.01279 -0.90338,0 -0.94711,-8.76e-4 -0.96377,-0.01919 z m 3.76396,0.0029 c -0.0224,-0.01599 -0.0224,-0.02175 -0.0224,-0.220047 0,-0.243783 -0.003,-0.23457 0.12795,-0.248677 0.12252,-0.01311 0.16186,-0.02335 0.24439,-0.06314 0.08,-0.03883 0.14907,-0.10812 0.15963,-0.160229 0.003,-0.01823 0.006,-0.234569 0.006,-0.480898 0,-0.424423 -0.001,-0.450305 -0.0224,-0.493933 -0.032,-0.06974 -0.10172,-0.121108 -0.21528,-0.157926 -0.0467,-0.01503 -0.214,-0.04824 -0.24407,-0.04824 -0.056,0 -0.0579,-0.0074 -0.0579,-0.229067 0,-0.189659 10e-4,-0.205205 0.0224,-0.224846 0.0224,-0.02079 0.0352,-0.02111 0.96528,-0.02111 h 0.94417 l 0.016,0.02335 c 0.0128,0.01919 0.016,0.05966 0.016,0.224846 0,0.215153 -0.003,0.2267 -0.0521,0.226732 -0.032,10e-6 -0.1641,0.02559 -0.22743,0.04357 -0.1254,0.03557 -0.22072,0.111767 -0.24631,0.197176 -0.0192,0.0642 -0.016,0.890572 0.003,0.946784 0.0192,0.05828 0.0684,0.112503 0.12347,0.138797 0.111,0.0532 0.14907,0.06388 0.2767,0.07741 0.12699,0.01344 0.12316,0.0064 0.12316,0.248261 0,0.182844 -0.002,0.204276 -0.0192,0.220047 -0.0192,0.01599 -0.0995,0.01759 -0.95824,0.01759 -0.83275,0 -0.9416,-0.0019 -0.9624,-0.01631 z m 3.5181,0.0064 c -0.0128,-0.0048 -0.0361,-0.0342 -0.0544,-0.06532 -0.0192,-0.03103 -0.0621,-0.105434 -0.0976,-0.165156 -0.0355,-0.05972 -0.0643,-0.110679 -0.0643,-0.11327 0,-0.0026 -0.016,-0.03071 -0.0368,-0.06247 -0.0192,-0.03167 -0.0368,-0.06033 -0.0368,-0.06343 0,-0.0031 -0.0224,-0.03902 -0.0473,-0.07978 -0.0256,-0.04075 -0.0473,-0.0769 -0.0473,-0.08029 0,-0.0035 -0.01,-0.01887 -0.0192,-0.03419 -0.016,-0.02463 -0.0365,-0.05758 -0.0934,-0.159973 -0.01,-0.01439 -0.0224,-0.04063 -0.0339,-0.05806 -0.01,-0.01727 -0.0288,-0.0483 -0.0403,-0.06861 -0.0128,-0.02047 -0.0509,-0.08682 -0.0873,-0.147786 -0.0361,-0.06097 -0.0781,-0.132207 -0.0924,-0.158341 -0.016,-0.02623 -0.0352,-0.06011 -0.0461,-0.07552 -0.01,-0.01535 -0.0192,-0.03103 -0.0192,-0.0348 0,-0.0038 -0.016,-0.03279 -0.0368,-0.06455 -0.0192,-0.03167 -0.0368,-0.06007 -0.0368,-0.06292 0,-0.0028 -0.0256,-0.0443 -0.0563,-0.09216 -0.0761,-0.117685 -0.13883,-0.172896 -0.26039,-0.228524 -0.0288,-0.01248 -0.12955,-0.04286 -0.19001,-0.05652 l -0.0582,-0.01312 -0.003,-0.210035 c -0.002,-0.184316 -7.1e-4,-0.212434 0.016,-0.229612 0.016,-0.01887 0.055,-0.01951 0.92261,-0.01951 0.75581,0 0.90686,0.0024 0.91694,0.01439 0.01,0.01024 0.0128,0.07988 0.01,0.229612 l -0.003,0.215057 -0.14235,0.0064 c -0.2124,0.0093 -0.2639,0.03509 -0.2639,0.132016 0,0.05748 0.016,0.09369 0.11068,0.257537 0.0224,0.03775 0.0518,0.08998 0.0665,0.116117 0.016,0.02623 0.0345,0.05937 0.0438,0.07389 0.01,0.0144 0.0256,0.04063 0.0326,0.05806 0.01,0.01727 0.032,0.05668 0.0499,0.0873 0.0192,0.03071 0.0345,0.05751 0.0345,0.05982 0,0.0023 0.0224,0.04037 0.0474,0.08455 0.0256,0.04417 0.0473,0.08269 0.0473,0.08554 0,0.0029 0.0128,0.02463 0.0256,0.04824 0.016,0.02367 0.0393,0.06516 0.0544,0.09216 0.016,0.02687 0.0368,0.0657 0.0483,0.08605 0.0128,0.02047 0.0326,0.05831 0.0473,0.08445 0.016,0.02623 0.0352,0.06011 0.0461,0.07552 0.01,0.01535 0.0192,0.03103 0.0192,0.0348 0,0.0038 0.016,0.03279 0.0368,0.06455 0.0192,0.03167 0.0368,0.05979 0.0368,0.06225 0,0.0025 0.016,0.03288 0.0368,0.06756 0.0192,0.03468 0.0368,0.06772 0.0368,0.07348 0,0.01919 -0.10748,0.196823 -0.13372,0.220879 -0.0256,0.02367 -0.0288,0.02367 -0.34454,0.02303 -0.1753,-3.68e-4 -0.32823,-0.0045 -0.33984,-0.0093 z m 1.1638,-0.0013 c -0.016,-0.0096 -0.0192,-0.03199 -0.0192,-0.219727 0,-0.185852 0.002,-0.210739 0.0192,-0.225037 0.0128,-0.0112 0.0537,-0.01823 0.13339,-0.02303 0.20952,-0.01279 0.26582,-0.06091 0.49722,-0.422686 0.0812,-0.127121 0.15003,-0.236265 0.15291,-0.242503 0.006,-0.01247 0.0717,-0.114166 0.11771,-0.181981 0.016,-0.02431 0.0288,-0.04728 0.0288,-0.05137 0,-0.0042 0.016,-0.03007 0.0368,-0.05774 0.0192,-0.02783 0.0368,-0.0531 0.0368,-0.05649 0,-0.0035 0.0192,-0.03362 0.0403,-0.06721 0.0729,-0.110136 0.12252,-0.187355 0.13403,-0.20882 0.006,-0.01152 0.0288,-0.04657 0.0502,-0.07773 0.0224,-0.03103 0.039,-0.06027 0.039,-0.06478 0,-0.0045 0.0128,-0.01567 0.0256,-0.02495 l 0.0256,-0.01663 0.0669,0.112759 c 0.0368,0.06202 0.0781,0.131919 0.0915,0.155335 0.0128,0.02335 0.032,0.0531 0.0397,0.06599 0.0486,0.07632 0.0684,0.121556 0.0617,0.142092 -0.003,0.01216 -0.0326,0.06183 -0.064,0.110327 -0.032,0.0485 -0.0569,0.09082 -0.0569,0.09408 0,0.0032 -0.016,0.03199 -0.0368,0.06366 -0.0192,0.03167 -0.0368,0.05998 -0.0368,0.06273 0,0.0027 -0.0224,0.03832 -0.0473,0.07908 -0.0256,0.04075 -0.0473,0.07636 -0.0473,0.07908 0,0.0027 -0.016,0.03103 -0.0368,0.06273 -0.0192,0.03167 -0.0368,0.06027 -0.0368,0.06334 0,0.0031 -0.016,0.03103 -0.0361,0.06199 -0.0694,0.108792 -0.0825,0.138125 -0.0832,0.188923 -0.001,0.09404 0.0531,0.126321 0.22488,0.132943 0.0668,0.0026 0.12987,0.009 0.13979,0.01439 0.016,0.0086 0.0192,0.03071 0.0192,0.225965 v 0.216305 l -0.0256,0.01024 c -0.0378,0.01439 -1.42872,0.01343 -1.45342,-0.0011 z m 1.80983,-0.0013 c -0.0192,-0.01791 -0.0192,-0.431783 0,-0.449687 0.01,-0.0083 0.0505,-0.01279 0.11995,-0.01279 0.16378,0 0.20185,-0.0077 0.24343,-0.04945 0.0256,-0.02687 0.0358,-0.04472 0.0358,-0.07271 0,-0.03656 -0.0387,-0.128208 -0.0892,-0.210322 -0.0128,-0.02335 -0.0326,-0.05409 -0.0406,-0.06861 -0.0521,-0.09408 -0.0761,-0.135118 -0.0912,-0.158342 -0.01,-0.01439 -0.032,-0.05252 -0.0477,-0.08445 -0.016,-0.03199 -0.039,-0.07066 -0.0496,-0.08608 -0.01,-0.01535 -0.0192,-0.03103 -0.0192,-0.0348 0,-0.0038 -0.016,-0.03279 -0.0368,-0.06455 -0.0192,-0.03167 -0.0368,-0.05991 -0.0368,-0.06254 0,-0.0026 -0.0224,-0.04091 -0.0473,-0.08512 -0.0256,-0.04421 -0.0473,-0.08195 -0.0473,-0.08387 0,-0.0019 -0.0192,-0.03835 -0.0454,-0.08093 -0.0256,-0.04258 -0.0489,-0.08454 -0.0528,-0.09324 -0.003,-0.0086 -0.0192,-0.03484 -0.0339,-0.05806 -0.016,-0.02335 -0.0288,-0.04936 -0.0336,-0.05806 -0.003,-0.0086 -0.0288,-0.05041 -0.0525,-0.09267 -0.0256,-0.04226 -0.0454,-0.07917 -0.0454,-0.08202 0,-0.0029 -0.0128,-0.02399 -0.0256,-0.04699 -0.0349,-0.05505 -0.0333,-0.07421 0.01,-0.149225 0.0192,-0.03467 0.0368,-0.06644 0.0368,-0.07063 0,-0.0042 0.016,-0.02527 0.0323,-0.04693 l 0.0323,-0.03934 h 0.33754 0.33754 l 0.0256,0.02783 c 0.0128,0.01535 0.0256,0.03221 0.0256,0.03746 0,0.0051 0.016,0.03551 0.0368,0.06727 0.0192,0.03167 0.0368,0.05985 0.0368,0.06241 0,0.0026 0.0256,0.04821 0.0582,0.101435 0.032,0.05323 0.0579,0.09875 0.0579,0.10121 0,0.0024 0.016,0.03039 0.0368,0.06218 0.0192,0.03167 0.0368,0.05995 0.0368,0.06263 0,0.0027 0.016,0.03071 0.0368,0.06263 0.0192,0.03167 0.0368,0.06027 0.0368,0.06334 0,0.0031 0.016,0.03167 0.0368,0.06334 0.0192,0.03167 0.0368,0.0603 0.0368,0.06343 0,0.0031 0.0192,0.03778 0.0454,0.07703 0.0256,0.03925 0.0486,0.0785 0.0525,0.0872 0.003,0.0086 0.0192,0.03484 0.0329,0.05806 0.0128,0.02335 0.0326,0.05409 0.0406,0.06862 0.0557,0.100219 0.0761,0.135342 0.0934,0.159973 0.01,0.01535 0.0192,0.03103 0.0192,0.0348 0,0.0038 0.016,0.03279 0.0368,0.06455 0.0192,0.03167 0.0368,0.05995 0.0368,0.06263 0,0.0027 0.016,0.03071 0.0368,0.06263 0.0192,0.03167 0.0368,0.0603 0.0368,0.06343 0,0.01216 0.0934,0.150185 0.12252,0.180701 0.0361,0.03819 0.15546,0.120596 0.17529,0.121076 0.006,1.79e-4 0.0224,0.0074 0.0342,0.01567 0.0128,0.0086 0.032,0.01535 0.0442,0.01535 0.0128,0 0.0256,0.0042 0.0288,0.0093 0.003,0.0051 0.032,0.01152 0.0643,0.01407 0.0323,0.0027 0.063,0.0093 0.0685,0.01471 0.016,0.01535 0.016,0.434925 -4.2e-4,0.453446 -0.01,0.01312 -0.14011,0.01535 -0.91182,0.01535 -0.68526,0 -0.90217,-0.003 -0.91183,-0.0128 z m 2.04686,-0.0019 c -0.01,-0.01024 -0.0128,-0.07984 -0.01,-0.22942 l 0.003,-0.214865 0.0422,-0.008 c 0.0224,-0.0045 0.0733,-0.01248 0.11067,-0.01759 0.096,-0.01376 0.13244,-0.02463 0.21241,-0.06314 0.0758,-0.03663 0.10108,-0.05915 0.13499,-0.12034 0.0224,-0.03957 0.0224,-0.04706 0.0224,-0.851111 0,-0.672905 0.002,-0.813243 0.016,-0.823173 0.01,-0.0086 0.13467,-0.0112 0.4407,-0.0093 l 0.42631,0.0028 0.006,0.818096 c 0.006,0.773437 0.006,0.820278 0.0256,0.85803 0.0192,0.04088 0.0816,0.09996 0.12475,0.120564 0.0608,0.02879 0.10237,0.04536 0.11484,0.04536 0.006,0 0.0288,0.0045 0.0461,0.0099 0.0192,0.0054 0.0704,0.01535 0.11675,0.02207 0.0464,0.0067 0.0883,0.01599 0.0931,0.02047 0.0128,0.01376 0.01,0.421647 -0.003,0.439231 -0.0192,0.02239 -1.90109,0.02271 -1.91955,6.01e-4 z m 2.59783,0.0019 c -0.0192,-0.01951 -0.0192,-0.434435 0.002,-0.450893 0.01,-0.0067 0.0544,-0.01631 0.103,-0.02143 0.10812,-0.0112 0.15962,-0.02431 0.23671,-0.05947 0.0688,-0.03135 0.15227,-0.103834 0.15227,-0.131888 0,-0.01056 0.003,-0.02207 0.01,-0.02559 0.006,-0.0042 0.01,-0.172577 0.01,-0.470483 0,-0.452548 -5.8e-4,-0.465145 -0.0224,-0.512177 -0.0224,-0.04856 -0.1158,-0.130992 -0.14779,-0.130992 -0.01,0 -0.0192,-0.0042 -0.0256,-0.0093 -0.016,-0.01407 -0.22232,-0.06126 -0.29493,-0.06721 l -0.032,-0.0026 -0.003,-0.220335 c -0.002,-0.153607 8e-4,-0.224749 0.01,-0.234857 0.01,-0.01216 0.12571,-0.01439 0.68042,-0.01439 0.40868,0 0.67886,0.0042 0.69539,0.01024 l 0.0256,0.01024 v 1.161691 1.161691 l -0.0256,0.01024 c -0.0422,0.01599 -1.35863,0.01376 -1.37475,-0.0024 z m 1.50984,0.0017 -0.0224,-0.0096 0.003,-0.229867 0.003,-0.229868 0.41696,-0.0061 c 0.22936,-0.0035 0.43597,-0.01088 0.45919,-0.01663 0.0816,-0.02015 0.14715,-0.07466 0.18138,-0.151336 0.0224,-0.04984 0.0256,-0.06881 0.039,-0.16362 l 0.0128,-0.09501 0.23991,-0.0028 0.23991,-0.0028 v 0.459386 0.459386 l -0.77322,-6.65e-4 c -0.4392,-3.78e-4 -0.78358,-0.0048 -0.79718,-0.01024 z m -8.27762,-0.440078 c -0.0192,-0.02175 -0.0323,-0.04325 -0.0323,-0.04801 0,-0.0048 -0.016,-0.03464 -0.0368,-0.06641 -0.0192,-0.03167 -0.0368,-0.05998 -0.0368,-0.06273 0,-0.0027 -0.0224,-0.03832 -0.0474,-0.07907 -0.0256,-0.04075 -0.0473,-0.0769 -0.0473,-0.08029 0,-0.0035 -0.01,-0.02047 -0.0224,-0.03768 -0.0256,-0.03711 -0.0323,-0.02239 0.0883,-0.22363 0.0451,-0.07508 0.0819,-0.138125 0.0819,-0.140108 0,-0.002 0.0224,-0.03698 0.0473,-0.07773 0.0256,-0.04075 0.0473,-0.07668 0.0473,-0.07978 0,-0.0031 0.016,-0.03167 0.0368,-0.06343 0.0192,-0.03167 0.0368,-0.05998 0.0368,-0.06273 0,-0.0027 0.0192,-0.03707 0.0454,-0.07632 0.0998,-0.156998 0.11164,-0.211506 0.0592,-0.271292 -0.0419,-0.04763 -0.0835,-0.06017 -0.22616,-0.06807 l -0.11612,-0.0064 V 22.962217 22.73526 h 0.73893 0.7389 v 0.226957 0.226956 l -0.095,0.0064 c -0.16986,0.01152 -0.25111,0.0444 -0.33591,0.13595 -0.032,0.03387 -0.22967,0.332607 -0.46501,0.699928 -0.22552,0.352469 -0.41415,0.640852 -0.41882,0.640852 -0.003,0 -0.0224,-0.01759 -0.0409,-0.03934 z m 8.66807,-0.247557 c -0.006,-0.007 -0.0128,-0.02559 -0.0128,-0.04114 0,-0.06692 -0.0521,-0.137293 -0.12668,-0.170657 -0.0349,-0.01567 -0.15034,-0.03666 -0.23223,-0.04235 l -0.0368,-0.0026 v -0.221678 -0.221679 l 0.0528,-0.0024 c 0.13595,-0.0061 0.24759,-0.04066 0.28662,-0.08854 0.0256,-0.03266 0.0563,-0.09596 0.0563,-0.119828 0,-0.01407 0.003,-0.03755 0.01,-0.05246 l 0.01,-0.02719 h 0.21112 c 0.19865,0 0.21176,0.0012 0.222,0.02047 0.006,0.01376 0.01,0.18115 0.01,0.498774 l -0.003,0.478154 -0.21656,0.0028 c -0.15962,0.0021 -0.22008,-5.38e-4 -0.22968,-0.0099 z m -7.06345,-0.02335 c -0.0128,-0.01695 -0.003,-0.04776 0.0518,-0.138285 0.016,-0.02911 0.0349,-0.05991 0.0387,-0.06861 0.0128,-0.02975 0.10108,-0.174112 0.1174,-0.192665 0.0128,-0.01567 0.0352,-0.01855 0.14394,-0.01823 0.13979,2.52e-4 0.15611,0.0061 0.19033,0.06839 0.01,0.01727 0.0256,0.0459 0.0381,0.06334 0.0128,0.01727 0.0256,0.0435 0.032,0.058 0.006,0.01439 0.0224,0.04062 0.0352,0.05806 0.0128,0.01759 0.0377,0.05662 0.0547,0.08707 0.0531,0.09529 0.0649,0.09197 -0.34099,0.09523 -0.29109,0.0023 -0.3505,3.07e-4 -0.36092,-0.01216 z M 8.4083401,24.163175 c -0.01,-0.01216 -0.0128,-0.06718 -0.01,-0.220655 l 0.003,-0.204469 0.1689,-0.0067 c 0.29941,-0.01216 0.40977,-0.0436 0.4692,-0.133839 0.0224,-0.03304 0.0256,-0.05201 0.0256,-0.128497 8.3e-4,-0.106073 -0.016,-0.140844 -0.0908,-0.175999 -0.0758,-0.03618 -0.13883,-0.04574 -0.34464,-0.05259 -0.10844,-0.0035 -0.20537,-0.01088 -0.2156,-0.01599 -0.016,-0.0086 -0.0192,-0.03103 -0.0192,-0.240039 0,-0.195161 0.002,-0.232651 0.016,-0.244103 0.0288,-0.02303 0.69277,-0.0058 0.86618,0.02271 0.0748,0.01216 0.15386,0.02463 0.17593,0.02751 0.0224,0.0029 0.0422,0.0093 0.0454,0.01471 0.003,0.0051 0.0192,0.0096 0.0361,0.0096 0.016,0 0.0333,0.0048 0.0368,0.01056 0.003,0.0058 0.0128,0.01056 0.0224,0.01056 0.01,0 0.0518,0.01791 0.0963,0.0396 0.15259,0.07498 0.28118,0.236425 0.3118899,0.392127 0.016,0.08403 0.0224,0.266622 0.01,0.328324 -0.0522,0.247301 -0.1557899,0.365111 -0.4173599,0.475016 -0.14458,0.06075 -0.40071,0.09081 -0.8656,0.101659 -0.26806,0.0064 -0.30772,0.0051 -0.31956,-0.009 z M 21.78278,23.63583 c -0.016,-0.01695 -0.0192,-0.864837 -0.002,-0.896042 0.01,-0.01983 0.0256,-0.02047 0.48322,-0.02047 0.41041,0 0.47537,0.0022 0.49578,0.01631 0.0224,0.01599 0.0224,0.02111 0.0224,0.230603 0,0.19081 -0.002,0.21592 -0.0192,0.230251 -0.0128,0.01088 -0.0509,0.01791 -0.11612,0.02207 -0.19928,0.01216 -0.33047,0.08682 -0.35644,0.202646 -0.003,0.01727 -0.01,0.07444 -0.0128,0.126673 l -0.006,0.09501 -0.238,0.0028 c -0.17625,0.0021 -0.24119,-5.05e-4 -0.25078,-0.0099 z m 2.55848,0.0035 c -0.003,-0.0051 -0.01,-0.05502 -0.0128,-0.111191 -0.003,-0.0562 -0.0128,-0.104665 -0.016,-0.107704 -0.006,-0.0031 -0.01,-0.01376 -0.01,-0.02399 0,-0.01024 -0.016,-0.03784 -0.0365,-0.06135 -0.0605,-0.07082 -0.1497,-0.104409 -0.30644,-0.115509 -0.0522,-0.0038 -0.10333,-0.01088 -0.11356,-0.01631 -0.016,-0.0086 -0.0192,-0.03071 -0.0192,-0.229164 0,-0.199415 0.002,-0.221294 0.0192,-0.237129 0.016,-0.01567 0.0668,-0.01759 0.49028,-0.01759 h 0.47093 l 0.016,0.02335 c 0.0128,0.02015 0.016,0.08048 0.016,0.444048 0,0.269725 -0.003,0.42791 -0.01,0.441006 -0.01,0.01919 -0.0256,0.02047 -0.24727,0.02047 -0.13019,0 -0.23895,-0.0042 -0.24215,-0.009 z m 3.20516,-0.0042 c -0.006,-0.0074 -0.0128,-0.04171 -0.016,-0.07655 -0.0192,-0.178174 -0.0825,-0.281496 -0.19673,-0.320026 -0.0368,-0.01248 -0.13691,-0.01695 -0.4741,-0.02207 l -0.42752,-0.0064 v -0.237512 -0.237513 l 0.79433,-0.0027 0.79433,-0.0027 v 0.459258 0.459255 h -0.23095 c -0.1721,0 -0.23384,-0.0035 -0.24183,-0.01311 z M 6.9069701,20.988193 v -1.203391 h 6.6455599 6.64559 l -0.006,-1.512157 c -0.003,-0.831688 -0.006,-1.513085 -0.01,-1.514218 -8.3e-4,-0.0011 -0.0704,-0.0048 -0.15418,-0.0083 -0.16666,-0.0067 -0.33751,-0.02079 -0.46946,-0.03896 -0.0464,-0.0064 -0.11996,-0.01568 -0.16378,-0.02079 -0.0435,-0.0051 -0.11004,-0.01408 -0.14779,-0.01983 -0.0377,-0.0058 -0.0995,-0.01503 -0.13723,-0.02047 -0.0377,-0.0054 -0.10428,-0.01759 -0.14778,-0.02719 -0.10972,-0.02431 -0.16634,-0.03596 -0.22168,-0.04632 -0.0256,-0.0048 -0.0736,-0.01663 -0.10556,-0.02623 -0.032,-0.0096 -0.0761,-0.02015 -0.0979,-0.02367 -0.0224,-0.0035 -0.0422,-0.01056 -0.0454,-0.01567 -0.003,-0.0051 -0.016,-0.0093 -0.032,-0.0093 -0.0128,0 -0.0361,-0.0042 -0.0496,-0.0093 -0.0128,-0.0051 -0.0432,-0.01471 -0.0665,-0.02175 -0.0224,-0.007 -0.0589,-0.01887 -0.0793,-0.02655 -0.0192,-0.0077 -0.0582,-0.02015 -0.0845,-0.02751 -0.0256,-0.0074 -0.0521,-0.01663 -0.0579,-0.02015 -0.006,-0.0035 -0.0288,-0.01279 -0.0528,-0.02047 -0.0224,-0.0077 -0.0589,-0.02111 -0.0793,-0.02975 -0.0192,-0.0086 -0.0464,-0.01951 -0.0579,-0.02399 -0.10396,-0.04136 -0.24759,-0.108217 -0.32196,-0.149865 -0.0256,-0.01471 -0.0665,-0.03714 -0.0899,-0.05006 -0.23735,-0.131887 -0.51517,-0.363972 -0.66446,-0.554817 -0.12379,-0.158149 -0.22712,-0.343662 -0.2703,-0.485578 -0.006,-0.02335 -0.016,-0.05172 -0.0224,-0.06334 -0.032,-0.08151 -0.0489,-0.176671 -0.0627,-0.327239 -0.006,-0.06247 -0.01,-2.322724 -0.01,-5.5393013 l -5.7e-4,-5.433739 H 11.69679 6.9043501 V 2.3883447 1.0582807 H 17.46043 28.01649 v 2.8356 c 0,2.519333 -0.002,2.834132 -0.016,2.822457 -0.01,-0.0074 -0.016,-0.01887 -0.016,-0.02559 0,-0.007 -0.01,-0.03135 -0.0192,-0.05412 -0.01,-0.02271 -0.0288,-0.06055 -0.0381,-0.08381 -0.0384,-0.08845 -0.14619,-0.298802 -0.19161,-0.374739 -0.0256,-0.04354 -0.0531,-0.08861 -0.0601,-0.100091 -0.0128,-0.02015 -0.12667,-0.186492 -0.17082,-0.248037 -0.10876,-0.151145 -0.39108,-0.442321 -0.57527,-0.592972 -0.0966,-0.07904 -0.39381,-0.29394 -0.40648,-0.29394 -0.003,0 -0.0368,-0.02079 -0.0761,-0.0459 -0.103,-0.06609 -0.16666,-0.100763 -0.35657,-0.194937 -0.20825,-0.103066 -0.23991,-0.117269 -0.45657,-0.203605 -0.0128,-0.0051 -0.0345,-0.01376 -0.0477,-0.01855 -0.0128,-0.0051 -0.0374,-0.01471 -0.0541,-0.02143 -0.016,-0.0067 -0.088,-0.03135 -0.15834,-0.05467 -0.0704,-0.02335 -0.13755,-0.04638 -0.14907,-0.05121 -0.0128,-0.0048 -0.0425,-0.01471 -0.0688,-0.02175 -0.0256,-0.007 -0.0569,-0.01631 -0.0685,-0.02079 -0.0649,-0.02367 -0.13211,-0.04267 -0.1513,-0.04267 -0.0128,0 -0.0256,-0.0042 -0.0288,-0.0093 -0.003,-0.0051 -0.0224,-0.01184 -0.0403,-0.01503 -0.0368,-0.0061 -0.0819,-0.01695 -0.18233,-0.04446 -0.0349,-0.0096 -0.0835,-0.02175 -0.10812,-0.02687 -0.0256,-0.0054 -0.0662,-0.01439 -0.0924,-0.02015 -0.0256,-0.0058 -0.0678,-0.01472 -0.0924,-0.02015 -0.0256,-0.0051 -0.0781,-0.01759 -0.11868,-0.02719 -0.0406,-0.0099 -0.10012,-0.02207 -0.13211,-0.02751 -0.0665,-0.0112 -0.12476,-0.02143 -0.25847,-0.0459 -0.16218,-0.02975 -0.2751,-0.04686 -0.44598,-0.06769 -0.048,-0.0058 -0.0953,-0.01311 -0.10556,-0.01631 -0.0224,-0.0067 -0.15834,-0.02463 -0.29301,-0.03832 -0.12219,-0.01247 -0.24375,-0.02495 -0.45391,-0.04693 -0.27382,-0.02847 -0.49048,-0.04414 -0.9395,-0.0674 -0.11611,-0.0061 -0.23255,-0.01376 -0.25846,-0.01695 -0.0614,-0.008 -0.51789,-0.02559 -0.987,-0.03845 -0.20312,-0.0054 -0.98578,-0.01248 -1.7391,-0.01567 l -1.36964,-0.0058 v 1.62999 1.629989 l 0.44508,0.007 c 0.24471,0.0038 0.57374,0.0074 0.731,0.0077 0.61698,0.0012 1.47766,0.05876 1.73491,0.116085 0.0256,0.0054 0.0592,0.0099 0.0764,0.0099 0.016,0 0.0515,0.0045 0.0764,0.0099 0.13339,0.02943 0.2927,0.06577 0.3274,0.07482 0.12476,0.03237 0.19321,0.05294 0.24535,0.07367 0.0128,0.0045 0.0377,0.01407 0.0582,0.02111 0.0563,0.01919 0.0701,0.02527 0.19513,0.0856 0.31956,0.153639 0.54674,0.365171 0.66491,0.619033 0.0668,0.143435 0.0883,0.215473 0.11164,0.372103 0.0499,0.335166 0.006,0.778283 -0.10557,1.039774 -0.0886,0.209587 -0.18585,0.356413 -0.3296,0.498323 -0.0918,0.09065 -0.26902,0.2353373 -0.2879,0.2353373 -0.003,0 -0.032,0.01567 -0.0611,0.03461 -0.032,0.01919 -0.0675,0.03986 -0.0819,0.04629 -0.0368,0.01631 -0.19129,0.08845 -0.21369,0.09977 -0.01,0.0051 -0.0256,0.0093 -0.0374,0.0093 -0.01,0 -0.0224,0.0042 -0.0288,0.009 -0.006,0.0051 -0.0361,0.01759 -0.0681,0.02751 -0.032,0.01024 -0.0662,0.02271 -0.0764,0.02783 -0.01,0.0051 -0.0256,0.0093 -0.0361,0.0093 -0.01,0 -0.0323,0.0045 -0.0502,0.0099 -0.16825,0.05102 -0.27126,0.07303 -0.56552,0.121107 -0.2623,0.04283 -0.49927,0.06283 -1.20336,0.101467 -0.10748,0.0058 -0.49339,0.01056 -0.8577,0.01056 l -0.66238,-1.6e-4 v 1.431557 1.431556 l 0.7046,-0.0064 c 0.38754,-0.0035 1.04902,-0.009 1.46993,-0.01216 0.42093,-0.0031 0.78671,-0.008 0.81282,-0.01088 0.0256,-0.0029 0.22104,-0.01024 0.4328,-0.01599 0.57441,-0.01599 1.09262,-0.04021 1.24034,-0.05803 0.0288,-0.0035 0.12412,-0.01088 0.21112,-0.01663 0.27414,-0.01759 0.63385,-0.04837 0.65899,-0.05611 0.01,-0.0028 0.0665,-0.01024 0.12732,-0.01663 0.16282,-0.01695 0.26966,-0.02911 0.3589,-0.04104 0.0435,-0.0058 0.11964,-0.01567 0.1689,-0.02175 0.0493,-0.0061 0.0966,-0.01375 0.10524,-0.01695 0.01,-0.0032 0.0489,-0.01056 0.0899,-0.01663 0.19545,-0.02847 0.29749,-0.04542 0.40136,-0.06644 0.0464,-0.0093 0.11068,-0.02175 0.14235,-0.02783 0.13754,-0.02527 0.14394,-0.02687 0.34307,-0.07476 0.0224,-0.0058 0.0611,-0.01439 0.0844,-0.01951 0.0729,-0.01631 0.19289,-0.04738 0.29013,-0.0753 0.0192,-0.0058 0.0489,-0.01311 0.0633,-0.01599 0.016,-0.0029 0.0358,-0.009 0.0473,-0.01376 0.0128,-0.0045 0.0496,-0.01663 0.0845,-0.02655 0.0349,-0.01024 0.0717,-0.02271 0.0816,-0.02783 0.01,-0.0051 0.0288,-0.0096 0.039,-0.0096 0.0128,0 0.0224,-0.0048 0.0256,-0.01056 0.003,-0.0058 0.016,-0.01056 0.0256,-0.01056 0.0192,0 0.15162,-0.04632 0.18425,-0.06398 0.01,-0.0054 0.0256,-0.0099 0.0345,-0.0099 0.01,0 0.0256,-0.0042 0.0345,-0.0096 0.01,-0.0051 0.0397,-0.01759 0.0659,-0.02751 0.10364,-0.03967 0.13147,-0.05089 0.19513,-0.07898 0.0288,-0.0128 0.0694,-0.03039 0.0899,-0.03935 0.10045,-0.04398 0.39183,-0.190394 0.44019,-0.22123 0.0288,-0.01919 0.0576,-0.035 0.0608,-0.035 0.003,0 0.0464,-0.02623 0.096,-0.05806 0.0496,-0.03199 0.0921,-0.05806 0.095,-0.05806 0.006,0 0.13563,-0.09254 0.27862,-0.201302 0.29685,-0.225517 0.64773,-0.611065 0.82082,-0.901828 0.006,-0.01152 0.0323,-0.05435 0.0563,-0.09497 0.0633,-0.107385 0.23191,-0.455557 0.23191,-0.479299 0,-0.0048 0.006,-0.01503 0.016,-0.02207 0.0128,-0.01184 0.016,0.635638 0.016,5.815106 v 5.828247 H 17.45963 6.9035401 Z m 0,-9.236213 V 6.7480477 l 0.0659,4.86e-4 c 0.2108,0.0016 0.67581,0.0428 0.88409,0.07843 0.055,0.0093 0.12891,0.02175 0.16378,0.02751 0.0797,0.01312 0.15962,0.02751 0.20057,0.03589 0.0969,0.02015 0.18233,0.04066 0.20376,0.04888 0.0128,0.0051 0.0355,0.0093 0.0496,0.0093 0.0128,0 0.0365,0.0045 0.0496,0.0096 0.0128,0.0051 0.0528,0.01759 0.0876,0.02719 0.0349,0.0096 0.0752,0.02143 0.0899,0.02623 0.016,0.0048 0.0477,0.01439 0.0739,0.02143 0.0256,0.007 0.0557,0.01695 0.0659,0.02239 0.01,0.0051 0.0256,0.0096 0.0339,0.0096 0.0128,0 0.0694,0.02111 0.11388,0.0435 0.01,0.0051 0.0256,0.0093 0.0345,0.0093 0.01,0 0.0256,0.0045 0.0345,0.0096 0.0413,0.02175 0.14107,0.06423 0.15066,0.06423 0.006,0 0.0192,0.0045 0.0288,0.01024 0.01,0.0054 0.0681,0.03413 0.12923,0.0634 0.0608,0.02943 0.13691,0.06817 0.1689,0.0864 0.032,0.01823 0.0675,0.03839 0.0793,0.04478 0.0128,0.0064 0.0355,0.02111 0.0528,0.03272 0.016,0.01152 0.0394,0.02591 0.0489,0.03167 0.01,0.0058 0.0499,0.03404 0.0896,0.06276 0.2488699,0.179902 0.4260499,0.369499 0.5699999,0.609376 0.032,0.05169 0.0563,0.09766 0.0563,0.10217 0,0.0045 0.0128,0.03167 0.0256,0.0603 0.0224,0.04706 0.0547,0.135854 0.08,0.221007 0.0128,0.04203 0.039,0.173024 0.0528,0.25984 0.016,0.09977 0.016,5.8385123 -4.1e-4,5.9442973 -0.0224,0.139885 -0.055,0.290933 -0.0739,0.327291 -0.006,0.01024 -0.01,0.02559 -0.01,0.03445 0,0.009 -0.003,0.02431 -0.01,0.03445 -0.006,0.01024 -0.0192,0.03733 -0.0288,0.06055 -0.11612,0.282968 -0.3734,0.589882 -0.6645199,0.79327 -0.0755,0.05272 -0.15163,0.103833 -0.1689,0.113558 -0.016,0.0096 -0.0601,0.03397 -0.095,0.0539 -0.0665,0.03807 -0.24503,0.127057 -0.31668,0.15799 -0.0541,0.02335 -0.0889,0.03723 -0.18457,0.07396 -0.0256,0.0099 -0.0557,0.02239 -0.0659,0.02751 -0.01,0.0051 -0.0256,0.0096 -0.0345,0.0096 -0.01,0 -0.0256,0.0045 -0.0345,0.0099 -0.01,0.0054 -0.0541,0.02143 -0.0976,0.03554 -0.0739,0.02399 -0.0976,0.03071 -0.21368,0.06145 -0.0256,0.0064 -0.0662,0.01791 -0.0924,0.02495 -0.12508,0.03484 -0.14331,0.03922 -0.24279,0.05758 -0.0256,0.0048 -0.0854,0.01695 -0.1318,0.02655 -0.0464,0.0099 -0.11291,0.02207 -0.14778,0.02751 -0.16826,0.02559 -0.21688,0.03237 -0.29045,0.04098 -0.0435,0.0051 -0.11964,0.01439 -0.1689,0.02047 -0.17498,0.02175 -0.30261,0.03244 -0.45657,0.03819 l -0.15578,0.0058 z M 21.08905,6.1041277 c 0.003,-0.0058 0.01,-0.01056 0.0128,-0.01056 0.003,0 0.003,0.0048 0.003,0.01056 0,0.0058 -0.006,0.01056 -0.01,0.01056 -0.006,0 -0.01,-0.0048 -0.003,-0.01056 z"
       id="path24" />
  </g>
</svg>
