<?xml version="1.0" encoding="UTF-8" standalone="no"?>
<svg
   xmlns:dc="http://purl.org/dc/elements/1.1/"
   xmlns:cc="http://creativecommons.org/ns#"
   xmlns:rdf="http://www.w3.org/1999/02/22-rdf-syntax-ns#"
   xmlns:svg="http://www.w3.org/2000/svg"
   xmlns="http://www.w3.org/2000/svg"
   xmlns:sodipodi="http://sodipodi.sourceforge.net/DTD/sodipodi-0.dtd"
   xmlns:inkscape="http://www.inkscape.org/namespaces/inkscape"
   version="1.1"
   id="Слой_1"
   x="0px"
   y="0px"
   viewBox="0 0 132 98.999998"
   xml:space="preserve"
   sodipodi:docname="Publika_TV_Moldova.svg"
   width="132"
   height="99"
   inkscape:version="1.0.2 (e86c870879, 2021-01-15, custom)"><metadata
   id="metadata37"><rdf:RDF><cc:Work
       rdf:about=""><dc:format>image/svg+xml</dc:format><dc:type
         rdf:resource="http://purl.org/dc/dcmitype/StillImage" /><dc:title></dc:title></cc:Work></rdf:RDF></metadata><defs
   id="defs35" /><sodipodi:namedview
   pagecolor="#ffffff"
   bordercolor="#666666"
   borderopacity="1"
   objecttolerance="10"
   gridtolerance="10"
   guidetolerance="10"
   inkscape:pageopacity="0"
   inkscape:pageshadow="2"
   inkscape:window-width="1920"
   inkscape:window-height="1001"
   id="namedview33"
   showgrid="false"
   inkscape:zoom="1.2658619"
   inkscape:cx="256"
   inkscape:cy="323.10001"
   inkscape:window-x="-9"
   inkscape:window-y="-9"
   inkscape:window-maximized="1"
   inkscape:current-layer="Слой_1" />
<style
   type="text/css"
   id="style2">
	.st0{fill:#134455;}
</style>
<g
   id="g30"
   transform="matrix(0.14080149,0,0,0.14080149,29.954819,3.9999985)">
	<g
   id="g18">
		<path
   class="st0"
   d="m 72.6,569.7 c 0,23.3 -12.4,36 -34,36 H 25.3 v 38.9 H 9.3 V 534 h 29.2 c 21.7,0 34.1,13.1 34.1,35.7 z m -16.2,0 C 56.4,556.1 50.6,549 38.7,549 H 25.5 v 41.3 h 13.1 c 11.9,0.3 17.8,-6.3 17.8,-20.6 z"
   id="path4" />
		<path
   class="st0"
   d="M 87.5,610.5 V 534 H 104 v 76.6 c 0,13.9 6.1,20.2 16.3,20.2 10,0 16,-6.6 16,-20.2 V 534 h 16.5 v 76.6 c 0,22.8 -12.9,35.7 -32.6,35.7 -19.9,-0.1 -32.7,-12.9 -32.7,-35.8 z"
   id="path6" />
		<path
   class="st0"
   d="m 237.7,612.9 c 0,19.7 -12.6,31.6 -31.8,31.6 H 174.3 V 534 h 29.9 c 17.7,0 29.4,11.4 29.4,30.1 0,10.7 -4.4,19.4 -11.2,23.8 9.4,3.9 15.3,13.1 15.3,25 z M 190,549 v 31.8 h 12.6 c 9.7,0 14.6,-5.6 14.6,-16.3 0,-10.4 -4.9,-15.6 -15.1,-15.6 H 190 Z m 31.4,63.9 c 0,-11.4 -7,-17.3 -18.2,-17.3 h -12.9 v 33.8 h 13.6 c 11.4,0.3 17.5,-5 17.5,-16.5 z"
   id="path8" />
		<path
   class="st0"
   d="m 307.6,629.5 v 15.1 H 255.1 V 534 h 16 v 95.5 z"
   id="path10" />
		<path
   class="st0"
   d="M 336.6,534 V 644.6 H 320.8 V 534 Z"
   id="path12" />
		<path
   class="st0"
   d="m 382.7,596.4 -7.3,10.9 v 37.4 H 359.6 V 534 h 15.8 v 48.1 l 7.3,-12.9 22.1,-35 h 18.7 l -31.5,48.1 36.2,62.5 H 410 Z"
   id="path14" />
		<path
   class="st0"
   d="M 481.2,622.4 H 452 l -5.1,22.4 h -16.8 l 27.7,-110.6 h 17.3 l 27.7,110.6 h -16.5 z m -3.4,-14.8 -7,-29.6 c -1.7,-7.3 -3.4,-17.7 -4.1,-23.8 h -0.5 c -0.7,5.8 -2.4,16.5 -4.1,23.8 l -6.6,29.6 z"
   id="path16" />
	</g>
	<g
   id="g28">
		<path
   class="st0"
   d="m 246,29.1 v 183.4 c 0,16.1 -13,29.1 -29.1,29.1 H 29.1 C 13,241.6 0,228.6 0,212.5 V 29.1 C 0,13 13,0 29.1,0 H 216.9 C 233,0 246,13 246,29.1 Z"
   id="path20" />
		<path
   class="st0"
   d="m 246,288.2 v 183.4 c 0,16.1 -13,29.1 -29.1,29.1 H 29.1 C 13,500.7 0,487.7 0,471.6 V 288.2 c 0,-16 13,-29.1 29.1,-29.1 h 187.8 c 16.1,0 29.1,13.1 29.1,29.1 z"
   id="path22" />
		<path
   class="st0"
   d="m 512,288.2 v 183.4 c 0,16.1 -13,29.1 -29.1,29.1 H 295.1 C 279,500.7 266,487.7 266,471.6 V 288.2 c 0,-16.1 13,-29.1 29.1,-29.1 h 187.8 c 16.1,0 29.1,13 29.1,29.1 z"
   id="path24" />
		<path
   class="st0"
   d="M 512,192.9 V 213 c 0,15.8 -12.8,28.6 -28.6,28.6 H 294.6 C 278.8,241.6 266,228.8 266,213 V 28.7 C 266,12.8 278.8,0 294.6,0 h 24.5 C 425.7,0 512,86.4 512,192.9 Z"
   id="path26" />
	</g>
</g>
</svg>
