<?xml version="1.0" encoding="UTF-8" standalone="no"?>
<svg
   xmlns:dc="http://purl.org/dc/elements/1.1/"
   xmlns:cc="http://creativecommons.org/ns#"
   xmlns:rdf="http://www.w3.org/1999/02/22-rdf-syntax-ns#"
   xmlns:svg="http://www.w3.org/2000/svg"
   xmlns="http://www.w3.org/2000/svg"
   xmlns:sodipodi="http://sodipodi.sourceforge.net/DTD/sodipodi-0.dtd"
   xmlns:inkscape="http://www.inkscape.org/namespaces/inkscape"
   version="1.1"
   id="Layer_1"
   x="0px"
   y="0px"
   width="132"
   height="99"
   viewBox="0 0 132 99.000001"
   enable-background="new 0 0 1000 509.137"
   xml:space="preserve"
   sodipodi:docname="Rebel.svg"
   inkscape:version="1.0.2 (e86c870879, 2021-01-15, custom)"><metadata
   id="metadata27"><rdf:RDF><cc:Work
       rdf:about=""><dc:format>image/svg+xml</dc:format><dc:type
         rdf:resource="http://purl.org/dc/dcmitype/StillImage" /><dc:title></dc:title></cc:Work></rdf:RDF></metadata><defs
   id="defs25" /><sodipodi:namedview
   pagecolor="#ffffff"
   bordercolor="#666666"
   borderopacity="1"
   objecttolerance="10"
   gridtolerance="10"
   guidetolerance="10"
   inkscape:pageopacity="0"
   inkscape:pageshadow="2"
   inkscape:window-width="1920"
   inkscape:window-height="1001"
   id="namedview23"
   showgrid="false"
   inkscape:zoom="0.40166008"
   inkscape:cx="-126.8583"
   inkscape:cy="91.373784"
   inkscape:window-x="-9"
   inkscape:window-y="-9"
   inkscape:window-maximized="1"
   inkscape:current-layer="Layer_1"
   inkscape:document-rotation="0" />

<path
   style="fill:#191917;stroke-width:0.270846"
   d="m 4.0802215,64.038133 c -0.0733,-0.191448 -0.10158,-6.868715 -0.0629,-14.838372 l 0.0704,-14.490286 7.5836985,-0.07783 c 4.500193,-0.04619 8.269273,0.03916 9.269823,0.209902 4.897982,0.835834 7.367512,3.478349 7.596621,8.128748 0.09409,1.909898 0.01008,2.576382 -0.493055,3.911264 -0.738468,1.959254 -2.557968,3.880718 -4.387417,4.633285 -0.707029,0.290844 -1.285963,0.642506 -1.286521,0.781471 -5.42e-4,0.138964 1.222972,1.860282 2.718957,3.825151 l 2.719976,3.572488 -0.07922,2.268894 -0.07922,2.268895 -1.197085,0.08553 c -0.658395,0.04704 -1.458598,0.01991 -1.778226,-0.06033 -0.350573,-0.08799 -2.271654,-2.350628 -4.842004,-5.702891 -2.343472,-3.056368 -4.500043,-5.685042 -4.792381,-5.841496 -0.292339,-0.156455 -1.535879,-0.249083 -2.763425,-0.20584 l -2.2319,0.07862 -0.1354235,5.823199 -0.135423,5.823199 -2.781025,0.07724 c -2.07317,0.05758 -2.81494,-0.01135 -2.91428,-0.270846 z M 20.87094,46.918903 c 1.169385,-0.488601 1.769792,-1.644408 1.769792,-3.406918 0,-1.751566 -0.534713,-2.785753 -1.73478,-3.355222 -0.794214,-0.376878 -1.741873,-0.437095 -5.902841,-0.37508 l -4.95674,0.07387 L 9.9699,43.22611 c -0.04206,1.853807 -0.01541,3.529669 0.059211,3.724139 0.202691,0.528209 9.567421,0.501129 10.841827,-0.03135 z m 10.833219,17.112966 c -0.07197,-0.188003 -0.09918,-6.862451 -0.06046,-14.832108 l 0.07039,-14.490286 H 42.006254 52.29842 v 2.437618 2.437619 l -7.312855,0.135423 -7.312854,0.135423 v 3.250158 3.250157 l 6.834878,0.07235 6.834878,0.07235 0.153207,0.610427 c 0.08427,0.335736 0.116532,1.461045 0.07171,2.500688 l -0.0815,1.89026 -6.906585,0.135423 -6.906585,0.135423 v 3.656428 3.656427 l 7.312854,0.135423 7.312855,0.135423 v 2.437619 2.437618 l -10.231702,0.07098 c -8.04015,0.05577 -10.259729,-0.0022 -10.362559,-0.270847 z m 23.833238,-0.0033 c -0.07128,-0.186207 -0.09793,-6.859187 -0.05921,-14.828844 l 0.07039,-14.490286 h 8.260818 8.260817 l 1.507688,0.7071 c 3.129829,1.467877 4.486383,3.834407 4.255979,7.424613 -0.166021,2.586958 -1.047753,4.155966 -2.944185,5.239063 l -1.35397,0.773283 1.521448,0.744375 c 2.720986,1.331254 3.792955,3.522147 3.593775,7.344957 -0.09418,1.807477 -0.257762,2.447174 -0.935043,3.656427 -0.951877,1.699532 -2.848328,3.01701 -5.010251,3.480659 -2.008516,0.430748 -17.00087,0.38591 -17.168256,-0.05135 z m 15.440139,-5.192458 c 1.169385,-0.4886 1.769792,-1.644407 1.769792,-3.406918 0,-1.752221 -0.53477,-2.785779 -1.736416,-3.355998 -0.783149,-0.371629 -1.690672,-0.436767 -5.225725,-0.37508 l -4.277987,0.07465 -0.07647,3.370557 c -0.04206,1.853807 -0.01541,3.529669 0.05921,3.724139 0.201136,0.524148 8.221531,0.497645 9.487597,-0.03135 z m 0.04784,-13.207516 c 0.922284,-0.92322 1.200793,-3.205157 0.545778,-4.471812 -0.658423,-1.273252 -1.476498,-1.460691 -6.007965,-1.376563 l -4.055991,0.0753 -0.07739,2.961905 c -0.04256,1.629048 -0.0127,3.130484 0.06637,3.336525 0.11605,0.30242 0.978162,0.357974 4.473222,0.288252 4.285652,-0.08549 4.336818,-0.09373 5.055972,-0.813609 z m 10.785377,18.403237 c -0.07197,-0.188002 -0.09918,-6.86245 -0.06046,-14.832107 l 0.07039,-14.490286 h 10.292165 10.292162 v 2.437618 2.437619 l -7.312851,0.135423 -7.312854,0.135423 v 3.250158 3.250157 l 6.906585,0.135423 6.90658,0.135423 v 2.437618 2.437619 l -6.90658,0.135423 -6.906585,0.135423 v 3.656424 3.656427 l 7.312854,0.135423 7.312851,0.135423 v 2.437619 2.437618 l -10.231698,0.07098 c -8.04015,0.05577 -10.259729,-0.0022 -10.362559,-0.270847 z m 24.916627,-0.0033 c -0.0713,-0.186207 -0.0979,-6.859186 -0.0592,-14.828844 l 0.0704,-14.490286 h 2.84389 2.84388 l 0.13543,12.188084 0.13542,12.188091 0.77756,0.08886 c 1.59034,0.181746 1.93266,-0.134857 6.35174,-5.874451 2.39575,-3.111646 4.55449,-5.733744 4.79721,-5.826884 0.74836,-0.287173 2.70846,-0.187173 3.0513,0.155669 0.19323,0.193233 0.32502,1.124085 0.32502,2.295749 v 1.970732 l -4.67211,6.234674 -4.6721,6.234676 -5.89941,0.0014 c -4.47077,8.17e-4 -5.93079,-0.08074 -6.02901,-0.337313 z"
   id="path846" /></svg>
