<?xml version="1.0" encoding="UTF-8" standalone="no"?>
<svg
   xmlns:dc="http://purl.org/dc/elements/1.1/"
   xmlns:cc="http://creativecommons.org/ns#"
   xmlns:rdf="http://www.w3.org/1999/02/22-rdf-syntax-ns#"
   xmlns:svg="http://www.w3.org/2000/svg"
   xmlns="http://www.w3.org/2000/svg"
   xmlns:sodipodi="http://sodipodi.sourceforge.net/DTD/sodipodi-0.dtd"
   xmlns:inkscape="http://www.inkscape.org/namespaces/inkscape"
   version="1.1"
   id="Layer_1"
   x="0px"
   y="0px"
   width="132"
   height="99"
   viewBox="0 0 132 99.000001"
   enable-background="new 0 0 1000 509.137"
   xml:space="preserve"
   sodipodi:docname="Relax.svg"
   inkscape:version="1.0.2 (e86c870879, 2021-01-15, custom)"><metadata
   id="metadata27"><rdf:RDF><cc:Work
       rdf:about=""><dc:format>image/svg+xml</dc:format><dc:type
         rdf:resource="http://purl.org/dc/dcmitype/StillImage" /><dc:title></dc:title></cc:Work></rdf:RDF></metadata><defs
   id="defs25" /><sodipodi:namedview
   pagecolor="#ffffff"
   bordercolor="#666666"
   borderopacity="1"
   objecttolerance="10"
   gridtolerance="10"
   guidetolerance="10"
   inkscape:pageopacity="0"
   inkscape:pageshadow="2"
   inkscape:window-width="1920"
   inkscape:window-height="1001"
   id="namedview23"
   showgrid="false"
   inkscape:zoom="1.6066403"
   inkscape:cx="518.21331"
   inkscape:cy="-14.96842"
   inkscape:window-x="-9"
   inkscape:window-y="-9"
   inkscape:window-maximized="1"
   inkscape:current-layer="Layer_1"
   inkscape:document-rotation="0" />

<path
   style="fill:#cbd302;stroke-width:0.274132"
   d="m 106.00345,64.184633 c -2.8076,-1.274498 -3.06254,-5.270448 -0.43968,-6.891464 1.29381,-0.79962 3.61254,-0.637246 4.64267,0.325114 2.22345,2.077153 1.88057,5.152697 -0.72331,6.487899 -1.45848,0.747867 -1.97916,0.759608 -3.47968,0.07845 z m 16.74422,0.247387 c -2.25709,-0.676145 -3.29842,-3.523742 -2.12112,-5.80039 1.25838,-2.433428 5.28096,-2.467065 6.85986,-0.05736 0.67311,1.027295 0.63614,3.198829 -0.0706,4.145397 -1.19264,1.597417 -2.92751,2.233795 -4.66816,1.712355 z M 4.0779578,63.557919 c -0.0722,-0.188466 -0.0992,-6.633987 -0.0599,-14.32338 l 0.0713,-13.980716 7.6583702,-0.07296 c 4.2121,-0.04013 8.30132,0.0459 9.08717,0.191169 3.0561,0.564951 5.40833,2.244033 6.52063,4.654589 0.45565,0.98749 0.58081,1.792942 0.5819,3.744665 10e-4,2.227494 -0.0848,2.655103 -0.82588,4.104153 -0.88493,1.730353 -2.9045,3.532043 -4.30363,3.839344 -0.41616,0.0914 -0.81937,0.267676 -0.89603,0.391718 -0.0767,0.124043 1.09383,1.836286 2.6011,3.804986 l 2.7405,3.579454 v 2.204821 2.20482 h -1.76489 -1.76489 l -4.19747,-5.458774 c -2.30862,-3.002326 -4.48084,-5.592871 -4.82717,-5.756765 -0.85654,-0.405339 -4.24727,-0.382812 -4.66105,0.03097 -0.2337102,0.233704 -0.3289602,1.900646 -0.3289602,5.756765 v 5.427807 h -2.74992 c -1.94719,0 -2.78823,-0.100028 -2.88115,-0.342664 z M 20.498798,47.075211 c 1.2645,-0.528344 1.9377,-2.017273 1.72481,-3.814804 -0.32748,-2.765073 -1.3714,-3.20928 -7.54207,-3.20928 -3.97793,0 -4.66345,0.06185 -4.8061102,0.433618 -0.22648,0.590179 -0.21209,6.556737 0.0164,6.785183 0.3716702,0.371669 9.6595302,0.201168 10.6070102,-0.194717 z m 10.93272,2.501992 0.071,-14.32338 h 10.00581 10.0058 v 2.330119 2.33012 l -7.12742,0.137065 -7.12743,0.137066 v 3.152514 3.152515 l 6.71623,0.137066 6.71623,0.137065 0.0792,2.398653 0.0792,2.398652 h -6.55627 c -5.2669,0 -6.61854,0.07503 -6.87292,0.381544 -0.21063,0.253796 -0.29071,1.469949 -0.23916,3.632245 l 0.0775,3.2507 7.12743,0.137066 7.12742,0.137066 0.0792,2.398652 0.0792,2.398652 h -10.15599 -10.15599 z m 23.84945,0.0035 0.071,-14.326889 h 2.74131 2.74132 l 0.0714,11.856195 0.0715,11.856195 h 6.54268 c 5.29019,0 6.60398,0.07386 6.8629,0.38584 0.19854,0.239226 0.28942,1.150684 0.23917,2.398653 l -0.0811,2.012811 -9.66559,0.07204 -9.66558,0.07204 0.071,-14.326891 z m 20.67655,14.137115 c -0.10052,-0.100513 -0.17693,-1.056547 -0.16981,-2.12452 0.0125,-1.865656 0.20475,-2.41991 4.90641,-14.140625 l 4.89347,-12.19886 h 2.97487 2.97488 l 4.85388,12.061794 4.853892,12.061794 0.012,2.272673 0.0119,2.272672 -2.254422,-0.07962 -2.25443,-0.07962 -1.01049,-2.604251 c -0.55577,-1.432338 -1.14981,-2.75845 -1.32009,-2.946915 -0.22781,-0.252136 -1.74137,-0.342665 -5.72904,-0.342665 -3.92298,0 -5.53841,0.09462 -5.85031,0.342665 -0.23698,0.188465 -0.8901,1.545417 -1.45137,3.015448 l -1.0205,2.672784 h -2.11904 c -1.16547,0 -2.20128,-0.08224 -2.3018,-0.182755 z m 16.38962,-11.036262 c 0.21229,-0.343498 -3.47942,-10.187154 -3.78263,-10.086083 -0.29034,0.09678 -3.73623,9.180446 -3.74043,9.860103 -0.003,0.433239 0.35411,0.47973 3.68163,0.47973 2.02653,0 3.75517,-0.114187 3.84143,-0.25375 z m 21.865872,0.34611 c -2.73246,-1.346777 -2.933,-5.154074 -0.36194,-6.871654 1.62631,-1.08644 3.71945,-0.742261 5.21377,0.857309 0.99176,1.061611 1.11169,3.268833 0.24728,4.551327 -1.1821,1.753854 -3.28493,2.357191 -5.09911,1.463018 z m -8.49186,-11.330277 c -2.70716,-1.650576 -2.58794,-5.515356 0.21356,-6.922879 1.21104,-0.608447 2.34553,-0.608447 3.53877,0 1.27016,0.647674 1.97417,1.683745 2.12057,3.120772 0.32467,3.187116 -3.17042,5.449833 -5.8729,3.802107 z m 16.45211,0.09593 c -1.89005,-0.931759 -2.71241,-3.932314 -1.51667,-5.533883 2.01459,-2.698325 5.53588,-2.512893 6.92899,0.364881 1.656,3.420855 -1.95767,6.872076 -5.41232,5.169002 z"
   id="path892" /></svg>
