<?xml version="1.0" encoding="UTF-8" standalone="no"?>
<svg
   xmlns:dc="http://purl.org/dc/elements/1.1/"
   xmlns:cc="http://creativecommons.org/ns#"
   xmlns:rdf="http://www.w3.org/1999/02/22-rdf-syntax-ns#"
   xmlns:svg="http://www.w3.org/2000/svg"
   xmlns="http://www.w3.org/2000/svg"
   xmlns:sodipodi="http://sodipodi.sourceforge.net/DTD/sodipodi-0.dtd"
   xmlns:inkscape="http://www.inkscape.org/namespaces/inkscape"
   version="1.1"
   id="Layer_1"
   x="0px"
   y="0px"
   width="132"
   height="99"
   viewBox="0 0 132 99.000001"
   enable-background="new 0 0 1000 509.137"
   xml:space="preserve"
   sodipodi:docname="Retro.svg"
   inkscape:version="1.0.2 (e86c870879, 2021-01-15, custom)"><metadata
   id="metadata27"><rdf:RDF><cc:Work
       rdf:about=""><dc:format>image/svg+xml</dc:format><dc:type
         rdf:resource="http://purl.org/dc/dcmitype/StillImage" /><dc:title></dc:title></cc:Work></rdf:RDF></metadata><defs
   id="defs25" /><sodipodi:namedview
   pagecolor="#ffffff"
   bordercolor="#666666"
   borderopacity="1"
   objecttolerance="10"
   gridtolerance="10"
   guidetolerance="10"
   inkscape:pageopacity="0"
   inkscape:pageshadow="2"
   inkscape:window-width="1920"
   inkscape:window-height="1001"
   id="namedview23"
   showgrid="false"
   inkscape:zoom="0.80332016"
   inkscape:cx="498.39639"
   inkscape:cy="74.845059"
   inkscape:window-x="-9"
   inkscape:window-y="-9"
   inkscape:window-maximized="1"
   inkscape:current-layer="Layer_1"
   inkscape:document-rotation="0" />

<path
   style="fill:#019cac;stroke-width:0.141902"
   d="m 20.461645,71.815359 c -0.64804,-0.28102 -1.093209,-0.70695 -1.469318,-1.40582 -0.285153,-0.52986 -0.308432,-0.80167 -0.349995,-4.08669 l -0.04453,-3.51908 0.895938,0.0425 0.895937,0.0425 0.07095,3.29682 0.07095,3.29681 0.46391,0.46359 c 0.405587,0.4053 0.557228,0.46359 1.206168,0.46359 0.928828,0 1.527563,-0.39207 1.893344,-1.23981 0.218168,-0.50564 0.269125,-1.0776 0.310478,-3.48493 l 0.04947,-2.88002 0.876354,0.042 0.87635,0.042 v 4.46991 4.46992 l -0.75439,0.0432 c -0.726368,0.0416 -0.760463,0.0271 -0.917995,-0.39023 -0.193923,-0.51377 -0.256085,-0.52751 -0.611192,-0.13512 -0.148494,0.16408 -0.44257,0.38758 -0.653505,0.49666 -0.508515,0.26296 -2.176584,0.2465 -2.808934,-0.0277 z m 8.928786,-0.16418 c -0.89799,-0.45484 -1.37321,-1.17151 -1.43851,-2.16941 l -0.0414,-0.63315 h 0.83875 c 0.82956,0 0.84055,0.005 1.00334,0.48882 0.26582,0.78951 0.77848,1.07225 1.94228,1.0712 0.91371,-8.5e-4 1.02352,-0.0335 1.33715,-0.39814 0.80266,-0.93314 0.26311,-1.51863 -1.9005,-2.06236 -1.69671,-0.42639 -2.17289,-0.68131 -2.68889,-1.43946 -0.38032,-0.55882 -0.43675,-1.77501 -0.11152,-2.40393 0.28747,-0.55591 0.97747,-1.10619 1.6059,-1.28072 0.70466,-0.19571 2.56625,-0.18786 3.16721,0.0134 1.11051,0.37181 1.83043,1.2264 1.83043,2.17283 v 0.50371 h -0.83753 c -0.79808,0 -0.84435,-0.0195 -0.9821,-0.41471 -0.0795,-0.2281 -0.26933,-0.48149 -0.42182,-0.56309 -0.89398,-0.47845 -2.5141,-0.26937 -2.66813,0.34433 -0.22994,0.91617 0.26763,1.30309 2.18107,1.69607 1.86663,0.38335 2.77059,1.08389 2.951,2.28689 0.13497,0.90006 -0.13968,1.72118 -0.77995,2.33189 -0.67733,0.64604 -1.37385,0.84611 -2.94564,0.84611 -1.10483,0 -1.37124,-0.0509 -2.04111,-0.39023 z m 13.27787,0.0515 c -0.87651,-0.41508 -1.51684,-1.07475 -1.94389,-2.00262 -0.28073,-0.60997 -0.32655,-0.93846 -0.32655,-2.34139 0,-1.40363 0.0457,-1.7311 0.32689,-2.34138 0.39583,-0.85914 0.88324,-1.39217 1.72874,-1.89052 0.5499,-0.32412 0.83016,-0.38222 2.05758,-0.42657 1.38166,-0.0499 1.44635,-0.0382 2.33836,0.42513 1.02607,0.53294 1.66993,1.36451 1.73955,2.24672 l 0.0392,0.49665 -0.80954,0.0424 -0.80953,0.0424 -0.2916,-0.57158 c -0.46278,-0.90713 -1.70144,-1.35126 -2.79302,-1.00146 -1.18078,0.37839 -1.74485,1.32855 -1.74974,2.94736 -0.003,1.15265 0.23316,1.875 0.81229,2.47962 1.00964,1.05409 3.08015,0.80284 3.72002,-0.45141 0.2912,-0.57079 0.30514,-0.57828 1.07705,-0.57828 0.94632,0 1.0529,0.16565 0.70042,1.08861 -0.32797,0.85877 -1.14188,1.65309 -1.98992,1.94205 -1.07323,0.36569 -2.93981,0.31414 -3.82631,-0.10567 z m 19.86628,0 c -0.87651,-0.41508 -1.51684,-1.07475 -1.94389,-2.00262 -0.28129,-0.61119 -0.32625,-0.93566 -0.32442,-2.34139 0.002,-1.39563 0.0491,-1.73458 0.32655,-2.34138 0.72262,-1.58036 1.9503,-2.33861 3.78648,-2.33861 1.40483,0 2.32463,0.38143 3.09769,1.28458 0.63832,0.74573 1.08842,2.09625 1.08842,3.26574 v 0.83376 l -3.15732,0.0382 -3.15732,0.0382 0.0232,0.4818 c 0.044,0.91621 0.87769,1.67808 1.97884,1.8085 0.88478,0.10479 1.67147,-0.22061 1.98115,-0.81947 0.19581,-0.37866 0.26843,-0.40657 1.05801,-0.40657 0.81409,0 0.84777,0.0144 0.84777,0.3618 0,0.48606 -0.30256,1.03327 -0.87478,1.58216 -0.71968,0.69033 -1.35356,0.89428 -2.77464,0.89269 -1.01444,-0.001 -1.37815,-0.0639 -1.95571,-0.33737 z m 3.99822,-5.28025 c 0.0479,-0.1247 -0.0345,-0.5238 -0.18296,-0.88689 -0.21481,-0.52526 -0.39911,-0.72539 -0.90199,-0.97943 -0.34761,-0.1756 -0.82846,-0.31928 -1.06855,-0.31928 -0.24008,0 -0.72093,0.14368 -1.06854,0.31928 -0.50288,0.25404 -0.68718,0.45417 -0.90199,0.97943 -0.44561,1.08967 -0.40322,1.11362 1.97053,1.11362 1.76221,0 2.0793,-0.0334 2.1535,-0.22673 z m 9.80146,5.41655 c -1.24942,-0.44587 -2.23669,-1.63367 -2.5297,-3.04353 -0.2235,-1.0754 -0.0955,-2.9283 0.25736,-3.72604 0.71076,-1.6068 1.95617,-2.39073 3.79808,-2.39073 2.52285,0 3.98211,1.47853 4.15235,4.20719 l 0.0738,1.18231 h -3.13347 c -1.88658,0 -3.16757,0.0552 -3.21915,0.13863 -0.18059,0.2922 0.2254,1.26379 0.70348,1.68355 0.96628,0.8484 2.66662,0.74016 3.22444,-0.20527 0.28811,-0.48832 0.30217,-0.4938 1.16079,-0.45252 0.83696,0.0402 0.86729,0.0549 0.81885,0.39654 -0.12195,0.86004 -0.822,1.69672 -1.79443,2.14464 -0.68965,0.31768 -2.70032,0.35502 -3.51236,0.0652 z m 3.67923,-5.41655 c 0.0479,-0.1247 -0.0345,-0.5238 -0.18296,-0.88689 -0.21481,-0.52526 -0.39911,-0.72539 -0.90199,-0.97943 -0.34761,-0.1756 -0.82846,-0.31928 -1.06854,-0.31928 -0.24009,0 -0.72094,0.14368 -1.06855,0.31928 -0.50288,0.25404 -0.68718,0.45417 -0.90199,0.97943 -0.44561,1.08967 -0.40321,1.11362 1.97054,1.11362 1.7622,0 2.07929,-0.0334 2.15349,-0.22673 z m 17.76447,5.22191 c -0.88936,-0.46396 -1.36523,-1.18398 -1.42927,-2.16254 l -0.0414,-0.63315 h 0.83875 c 0.82956,0 0.84055,0.005 1.00334,0.48882 0.26582,0.78951 0.77849,1.07225 1.942279,1.0712 0.91371,-8.5e-4 1.02352,-0.0335 1.33716,-0.39814 0.80265,-0.93314 0.2631,-1.51863 -1.900509,-2.06236 -1.69671,-0.42639 -2.17289,-0.68131 -2.68889,-1.43946 -0.38032,-0.55882 -0.43675,-1.77501 -0.11152,-2.40393 0.28747,-0.55591 0.97747,-1.10619 1.6059,-1.28072 0.70466,-0.19571 2.566249,-0.18786 3.167209,0.0134 1.07433,0.3597 1.75352,1.13354 1.85156,2.10962 l 0.0498,0.49597 -0.85868,0.0415 c -0.84951,0.0411 -0.86088,0.0365 -1.06426,-0.4257 -0.25502,-0.57957 -1.04225,-0.88408 -1.968989,-0.76163 -0.76079,0.10053 -1.14558,0.41789 -1.14558,0.94482 0,0.68871 0.40616,0.90244 2.798479,1.4726 1.57081,0.37438 2.2516,1.03149 2.40428,2.32066 0.14868,1.25531 -0.6344,2.41267 -1.92472,2.84468 -0.26529,0.0888 -1.07216,0.1615 -1.793039,0.1615 -1.1594,0 -1.39856,-0.0458 -2.07188,-0.3971 z m 13.287099,0.0583 c -0.87651,-0.41508 -1.51683,-1.07475 -1.94388,-2.00262 -0.28073,-0.60997 -0.32655,-0.93846 -0.32655,-2.34139 0,-1.50155 0.0319,-1.69674 0.39888,-2.44415 0.79941,-1.62793 2.10429,-2.31557 4.19313,-2.20969 1.46526,0.0743 2.13508,0.37051 2.96202,1.30996 0.81662,0.92774 1.07604,1.87295 1.00758,3.67138 -0.0437,1.14777 -0.12311,1.5861 -0.38484,2.12369 -0.42769,0.87851 -1.04427,1.48452 -1.9301,1.89703 -1.02707,0.47827 -2.9617,0.47622 -3.97624,-0.004 z m 3.20248,-1.55104 c 0.88833,-0.46976 1.31182,-1.33536 1.31795,-2.69388 0.006,-1.31096 -0.21709,-1.94679 -0.89879,-2.56266 -0.65249,-0.58948 -1.53502,-0.78072 -2.36935,-0.51341 -1.18755,0.38048 -1.74271,1.32882 -1.74271,2.97698 0,1.17843 0.27581,1.97117 0.87887,2.52608 0.709,0.65239 1.87577,0.76305 2.81403,0.26689 z M 3.9999985,67.358319 v -4.55471 l 0.814558,0.0426 c 0.685157,0.0358 0.8226,0.0876 0.865185,0.32636 0.08037,0.45051 0.304222,0.60366 0.465235,0.31829 0.266494,-0.47233 1.18582,-0.81494 2.186709,-0.81494 1.034334,0 1.341387,0.11367 2.0065255,0.74284 l 0.449279,0.42497 0.480722,-0.36666 c 0.766191,-0.5844 1.441517,-0.80115 2.496148,-0.80115 1.330049,0 2.084688,0.39621 2.577631,1.35333 0.350867,0.68126 0.359189,0.76937 0.404469,4.28293 l 0.04623,3.58737 h -0.925949 -0.925952 l -0.04264,-3.3945 c -0.042,-3.34365 -0.04766,-3.39984 -0.377396,-3.75055 -0.772273,-0.82139 -2.408322,-0.50798 -2.938609,0.56293 -0.237924,0.48049 -0.27918,0.93853 -0.321255,3.5667 l -0.04827,3.01542 H 10.388581 9.5645425 l -0.05609,-3.22827 c -0.0467,-2.68817 -0.09631,-3.30345 -0.296515,-3.67763 -0.57502,-1.07472 -2.439329,-0.90562 -3.119776,0.28298 -0.11926,0.20833 -0.199486,1.32049 -0.247432,3.43012 l -0.07095,3.12185 -0.886887,0.0422 -0.886888,0.0422 z m 32.8437325,4.36234 c -0.0378,-0.0984 -0.0517,-2.12579 -0.031,-4.50539 l 0.0376,-4.32655 0.88689,-0.0422 0.88689,-0.0422 v 4.54763 4.54764 h -0.85587 c -0.55753,0 -0.87978,-0.0623 -0.92449,-0.17884 z m 19.43633,-0.10771 c -0.36,-0.1782 -0.69491,-0.49357 -0.88688,-0.83515 -0.28724,-0.51106 -0.30846,-0.73835 -0.30846,-3.30368 0,-1.95347 -0.0495,-2.8044 -0.17028,-2.92514 -0.0937,-0.0937 -0.48013,-0.17029 -0.85883,-0.17029 h -0.68854 l 0.0429,-0.74498 0.0429,-0.74499 0.78046,-0.071 0.78046,-0.0709 0.0421,-0.96444 0.0421,-0.96444 0.88025,0.0421 0.88026,0.0421 0.071,0.92237 0.0709,0.92236 1.09974,0.0414 1.09974,0.0414 v 0.77449 0.77449 h -0.91076 c -1.45876,0 -1.35967,-0.20735 -1.35967,2.84518 0,3.12461 -0.005,3.11471 1.45059,3.11471 h 0.81984 v 0.78046 0.78046 l -1.17069,-1.1e-4 c -0.88825,-8e-5 -1.31025,-0.0692 -1.74913,-0.28644 z m 13.98818,-6.09904 v -6.38559 h 0.85141 0.85141 v 6.38559 6.38559 h -0.85141 -0.85141 z m 15.83077,6.25776 c -0.0477,-0.0771 -0.75558,-1.74751 -1.57313,-3.71196 -1.31964,-3.17088 -1.48646,-3.66632 -1.48646,-4.41461 v -0.84288 l 0.67403,0.0433 0.67404,0.0433 1.28664,3.1928 c 0.70766,1.75603 1.34149,3.18132 1.40851,3.16729 0.067,-0.014 0.66936,-1.38728 1.33854,-3.05167 0.66917,-1.66438 1.26834,-3.10563 1.33148,-3.20276 0.0632,-0.0971 0.39839,-0.17661 0.74499,-0.17661 h 0.63018 v 0.82337 c 0,0.72482 -0.18324,1.2641 -1.53089,4.50539 l -1.53089,3.68202 -0.94018,0.0417 c -0.5171,0.0229 -0.97919,-0.0214 -1.02686,-0.0986 z m 6.73165,-4.41304 v -4.5544 l 0.88689,0.0422 0.88688,0.0422 v 4.46991 4.46992 l -0.88688,0.0422 -0.88689,0.0422 z m 12.409839,4.36203 c -0.0378,-0.0984 -0.0517,-2.12579 -0.031,-4.50539 l 0.0376,-4.32655 0.88688,-0.0422 0.88688,-0.0422 v 4.54763 4.54764 H 106.165 c -0.55753,0 -0.87978,-0.0623 -0.92449,-0.17884 z m 13.87552,-4.32655 0.0375,-4.50539 0.74973,-0.043 c 0.7233,-0.0415 0.75504,-0.0278 0.90076,0.39023 0.0831,0.2383 0.18048,0.43328 0.21644,0.43328 0.036,0 0.32243,-0.20656 0.63659,-0.45902 0.50768,-0.40798 0.68919,-0.46499 1.63226,-0.51261 1.26674,-0.064 2.05598,0.18828 2.7143,0.86749 0.79453,0.81975 0.88358,1.32611 0.88358,5.02437 v 3.32363 l -0.88688,-0.0422 -0.8869,-0.0422 -0.0737,-3.26375 c -0.0405,-1.79506 -0.12573,-3.37166 -0.18929,-3.50356 -0.3648,-0.75693 -2.10148,-1.03254 -2.88707,-0.45817 -0.84672,0.61905 -0.96044,1.10865 -1.01083,4.35196 l -0.0458,2.94447 h -0.91407 -0.91409 z m -82.275909,-6.18363 c -0.0428,-0.1114 -0.0579,-0.51371 -0.0338,-0.89403 l 0.044,-0.69148 0.89384,-0.0424 0.89384,-0.0424 -0.0424,0.89384 -0.0424,0.89384 -0.81766,0.0426 c -0.60696,0.0316 -0.83768,-0.01 -0.89537,-0.15993 z m 56.09134,0.0999 c -0.0554,-0.0554 -0.10079,-0.47633 -0.10079,-0.93533 v -0.83453 l 0.88689,0.0422 0.88688,0.0422 v 0.85142 0.85141 l -0.78609,0.0417 c -0.43235,0.0229 -0.83145,-0.004 -0.88689,-0.0591 z m 12.305429,-0.0999 c -0.0427,-0.1114 -0.0579,-0.51371 -0.0338,-0.89403 l 0.044,-0.69148 0.89383,-0.0424 0.89384,-0.0424 -0.0424,0.89384 -0.0424,0.89384 -0.81765,0.0426 c -0.60696,0.0316 -0.83769,-0.01 -0.89538,-0.15993 z m 7.38514,-6.335 c -3.62015,-0.51646 -6.71292,-2.36167 -8.58908,-5.12445 -1.92413,-2.8334 -2.80579,-6.62486 -2.43077,-10.45318 0.21568,-2.20174 0.59999,-3.62978 1.44696,-5.37672 2.07062,-4.27075 5.82091,-6.67393 10.85398,-6.9552 2.70896,-0.15139 4.86181,0.26073 7.0951,1.35821 2.45709,1.20747 4.28016,3.03581 5.45885,5.47467 1.03708,2.14582 1.41462,3.72633 1.52533,6.38559 0.30297,7.27769 -3.32196,12.78859 -9.43767,14.34788 -1.5375,0.39202 -4.41271,0.55862 -5.9227,0.3432 z m 3.81188,-4.75551 c 3.90896,-0.82823 6.09028,-4.10725 6.09028,-9.15511 0,-2.78364 -0.58947,-4.82468 -1.90566,-6.59846 -2.00184,-2.69779 -6.18379,-3.54164 -9.45377,-1.90762 -1.05501,0.5272 -2.40329,1.91454 -2.98982,3.07644 -0.86123,1.70611 -1.08312,2.8184 -1.08312,5.42964 0,2.0103 0.0454,2.49788 0.32076,3.4481 0.48636,1.67809 1.09007,2.74634 2.14614,3.79755 1.80381,1.79552 4.23118,2.46967 6.87519,1.90946 z M 4.1734265,54.420319 c -0.134168,-0.13417 -0.173428,-3.18268 -0.173428,-13.46647 0,-11.30679 0.03009,-13.318 0.201395,-13.46017 0.15084,-0.12519 2.136732,-0.15391 7.9110365,-0.11443 8.474998,0.0579 8.387877,0.0496 10.25857,0.97774 2.197458,1.09023 3.545421,2.78179 4.031031,5.05857 0.22342,1.04748 0.19655,3.19201 -0.0533,4.25153 -0.50083,2.1242 -2.096086,4.12877 -4.019125,5.05036 -0.552268,0.26467 -1.14316,0.51757 -1.313096,0.56201 -0.212843,0.0557 -0.281598,0.15215 -0.220984,0.3101 0.0484,0.12612 1.206095,1.68999 2.572666,3.47527 l 2.484679,3.24596 v 1.96805 c 0,1.3415 -0.0542,2.02226 -0.17029,2.13833 -0.2194,0.21941 -2.527917,0.22791 -3.003842,0.0111 -0.193743,-0.0883 -2.076069,-2.40559 -4.224598,-5.20086 -2.131335,-2.7729 -4.068372,-5.15946 -4.304525,-5.30348 -0.361645,-0.22054 -0.733654,-0.26192 -2.358529,-0.26237 -1.683716,-4.2e-4 -1.9588105,0.0322 -2.1622075,0.25699 -0.205635,0.22722 -0.237433,0.86569 -0.270322,5.42775 l -0.03727,5.17023 -2.487235,0.0386 c -1.814761,0.0282 -2.534124,-0.008 -2.660663,-0.1348 z M 19.512156,38.570809 c 1.248346,-0.61462 1.863376,-2.16316 1.543114,-3.88528 -0.210569,-1.13228 -0.690784,-1.83343 -1.543114,-2.25308 -0.668396,-0.32908 -0.781088,-0.33741 -5.13379,-0.3795 -4.034953,-0.039 -4.4753955,-0.0204 -4.7182415,0.19937 -0.246345,0.22294 -0.26785,0.48183 -0.26785,3.22466 0,2.60844 0.03026,3.01568 0.241389,3.24898 0.228148,0.2521 0.4869685,0.26439 4.7182425,0.22403 4.380912,-0.0418 4.491498,-0.0499 5.16025,-0.37918 z m 9.632875,15.84636 c -0.11634,-0.11634 -0.17028,-0.80411 -0.17028,-2.1711 0,-1.36699 0.0539,-2.05476 0.17028,-2.1711 0.12747,-0.12747 1.79885,-0.17028 6.64741,-0.17028 6.09471,0 6.49098,-0.0153 6.71196,-0.25951 0.18373,-0.20301 0.23485,-0.55203 0.23485,-1.60349 0,-0.85612 0.0618,-1.4058 0.17028,-1.51427 0.11876,-0.11877 0.88295,-0.17028 2.52586,-0.17028 1.64291,0 2.40709,0.0515 2.52585,0.17028 0.24262,0.24262 0.24262,7.64713 0,7.88975 -0.24616,0.24616 -18.57005,0.24616 -18.81621,0 z m 30.36704,0 c -0.1295,-0.1295 -0.17029,-2.79074 -0.17029,-11.11093 0,-8.32019 -0.0408,-10.98143 -0.17028,-11.11093 -0.12421,-0.12421 -1.22982,-0.17028 -4.08678,-0.17028 -2.85696,0 -3.96256,-0.0461 -4.08678,-0.17028 -0.23728,-0.23729 -0.23728,-4.10491 0,-4.3422 0.24654,-0.24654 21.97532,-0.24654 22.22186,0 0.23729,0.23729 0.23729,4.10491 0,4.3422 -0.12422,0.12422 -1.22982,0.17028 -4.08678,0.17028 -2.85696,0 -3.96256,0.0461 -4.08678,0.17028 -0.12949,0.1295 -0.17028,2.79074 -0.17028,11.11093 0,8.32019 -0.0408,10.98143 -0.17028,11.11093 -0.11917,0.11917 -0.89871,0.17028 -2.59681,0.17028 -1.69809,0 -2.47764,-0.0511 -2.5968,-0.17028 z m 16.74758,0.003 c -0.13417,-0.13417 -0.17343,-3.18268 -0.17343,-13.46647 0,-11.30679 0.0301,-13.318 0.2014,-13.46017 0.15084,-0.12519 2.13673,-0.15391 7.91103,-0.11443 8.475,0.0579 8.38788,0.0496 10.25857,0.97774 2.19746,1.09023 3.54542,2.78179 4.03103,5.05857 0.22342,1.04748 0.19656,3.19201 -0.0532,4.25153 -0.57075,2.42075 -2.29294,4.3785 -4.7191,5.36457 -0.44477,0.18076 -0.82909,0.38993 -0.85405,0.46482 -0.025,0.0749 1.10721,1.64011 2.51595,3.47827 l 2.56133,3.34212 v 1.96501 c 0,1.33914 -0.0542,2.01924 -0.17028,2.13529 -0.22072,0.22072 -2.52921,0.22733 -3.00922,0.009 -0.20058,-0.0914 -2.05646,-2.37342 -4.26926,-5.24958 -2.40209,-3.12219 -4.07406,-5.17046 -4.32758,-5.30156 -0.30759,-0.15906 -0.89875,-0.21364 -2.31387,-0.21364 -1.65584,0 -1.93076,0.0332 -2.13378,0.25751 -0.20563,0.22723 -0.23743,0.8657 -0.27032,5.42775 l -0.0373,5.17024 -2.48724,0.0386 c -1.81476,0.0282 -2.53412,-0.008 -2.66066,-0.1348 z m 15.33873,-15.84951 c 1.24834,-0.61462 1.86337,-2.16316 1.54311,-3.88528 -0.21057,-1.13228 -0.69078,-1.83343 -1.54311,-2.25308 -0.6684,-0.32908 -0.78109,-0.33741 -5.13379,-0.3795 -4.03495,-0.039 -4.4754,-0.0204 -4.71824,0.19937 -0.24635,0.22294 -0.26785,0.48183 -0.26785,3.22466 0,2.60844 0.0302,3.01568 0.24139,3.24898 0.22814,0.2521 0.48697,0.26439 4.71824,0.22403 4.38091,-0.0418 4.4915,-0.0499 5.16025,-0.37918 z m -56.34589,4.54733 c -2.77619,-1.58685 -3.14679,-1.84028 -3.14882,-2.15328 -0.002,-0.31417 0.35728,-0.56084 3.14101,-2.15623 2.52774,-1.44869 3.19422,-1.77424 3.40326,-1.66236 0.24174,0.12938 0.25995,0.39689 0.25995,3.81859 0,3.39271 -0.0198,3.69008 -0.25444,3.81564 -0.20171,0.10795 -0.90651,-0.23655 -3.40096,-1.66236 z m 7.65704,-7.71584 c -0.1089,-0.1089 -0.17028,-0.66363 -0.17028,-1.53893 0,-1.14571 -0.0423,-1.4069 -0.2595,-1.60349 -0.23346,-0.21128 -0.90702,-0.23485 -6.71197,-0.23485 -4.82938,0 -6.4953,-0.0428 -6.62275,-0.17028 -0.23728,-0.23729 -0.23728,-4.10491 0,-4.3422 0.24616,-0.24616 18.57005,-0.24616 18.81621,0 0.24262,0.24262 0.24262,7.64713 0,7.88975 -0.239,0.239 -4.81271,0.239 -5.05171,0 z"
   id="path876" /></svg>
