<?xml version="1.0" encoding="UTF-8" standalone="no"?>
<svg
   xmlns:dc="http://purl.org/dc/elements/1.1/"
   xmlns:cc="http://creativecommons.org/ns#"
   xmlns:rdf="http://www.w3.org/1999/02/22-rdf-syntax-ns#"
   xmlns:svg="http://www.w3.org/2000/svg"
   xmlns="http://www.w3.org/2000/svg"
   xmlns:sodipodi="http://sodipodi.sourceforge.net/DTD/sodipodi-0.dtd"
   xmlns:inkscape="http://www.inkscape.org/namespaces/inkscape"
   viewBox="0 0 132 99"
   version="1.1"
   id="svg10"
   sodipodi:docname="România TV.svg"
   width="132"
   height="99"
   inkscape:version="1.0.2 (e86c870879, 2021-01-15, custom)">
  <metadata
     id="metadata16">
    <rdf:RDF>
      <cc:Work
         rdf:about="">
        <dc:format>image/svg+xml</dc:format>
        <dc:type
           rdf:resource="http://purl.org/dc/dcmitype/StillImage" />
        <dc:title></dc:title>
      </cc:Work>
    </rdf:RDF>
  </metadata>
  <defs
     id="defs14" />
  <sodipodi:namedview
     pagecolor="#ffffff"
     bordercolor="#666666"
     borderopacity="1"
     objecttolerance="10"
     gridtolerance="10"
     guidetolerance="10"
     inkscape:pageopacity="0"
     inkscape:pageshadow="2"
     inkscape:window-width="1920"
     inkscape:window-height="1001"
     id="namedview12"
     showgrid="false"
     inkscape:zoom="1.9052023"
     inkscape:cx="360.06675"
     inkscape:cy="185.93083"
     inkscape:window-x="-9"
     inkscape:window-y="-9"
     inkscape:window-maximized="1"
     inkscape:current-layer="svg10" />
  <g
     id="g844"
     transform="matrix(0.16719026,0,0,0.16719026,3.9999999,37.714926)">
    <path
       d="m 741.67,137.78 a 2.836,2.836 0 0 1 -2.83,2.826 H 530.027 c -1.56,0 -2.615,-1.254 -2.355,-2.788 L 550.597,3.161 c 0.26,-1.534 1.744,-2.788 3.303,-2.788 h 184.94 a 2.838,2.838 0 0 1 2.83,2.829 v 134.577 z"
       fill="#312f30"
       id="path4" />
    <path
       d="m 510.293,137.818 c -0.26,1.534 -1.748,2.788 -3.304,2.788 H 2.831 A 2.84,2.84 0 0 1 0,137.78 V 3.204 A 2.841,2.841 0 0 1 2.831,0.372 h 528.027 c 1.56,0 2.62,1.255 2.357,2.79 z"
       fill="#a51628"
       id="path6" />
    <path
       d="m 641.414,61.231 h -0.1 l 14.916,43.11 c 1.819,5.277 7.18,9.598 11.904,9.598 4.723,0 10.061,-4.328 11.858,-9.61 l 14.66,-43.098 11.728,-34.187 h -12.886 c -4.717,0 -7.576,2.19 -8.59,6.568 l -8.011,27.62 h -0.098 l -6.085,20.98 c -1.557,5.364 -4.078,5.355 -5.605,-0.017 l -5.952,-20.964 h 0.098 l -9.708,-34.187 h -68.039 c -2.524,0 -4.673,0.886 -6.44,2.653 -1.767,1.766 -2.655,3.915 -2.655,6.44 v 6.319 h 25.768 v 71.482 h 17.931 V 42.457 h 15.027 c 2.514,0 4.165,2.025 5.194,4.077 l 5.085,14.698 z m -245.757,52.708 h -8.776 c -2.51,0 -4.56,-0.792 -6.147,-2.385 -1.587,-1.585 -2.38,-3.632 -2.38,-6.144 v -34.1 c 0,-4.012 -1.21,-6.934 -3.636,-8.776 -2.425,-1.837 -5.14,-2.755 -8.149,-2.755 -3.01,0 -5.685,0.918 -8.024,2.755 -2.34,1.842 -3.508,4.764 -3.508,8.776 v 42.629 H 337.48 v -39.12 c 0,-11.363 2.965,-18.966 8.905,-22.815 5.928,-3.843 12.492,-5.933 19.682,-6.269 7.356,0 14.123,1.924 20.31,5.767 6.181,3.849 9.28,11.62 9.28,23.318 z m -286.614,-7.411 c -3.515,-3.007 -6.02,-7.056 -7.527,-12.16 -1.5,-5.093 -2.256,-10.406 -2.256,-15.922 0,-4.514 0.627,-9.026 1.884,-13.54 1.251,-4.515 3.213,-8.275 5.889,-11.283 4.347,-5.017 9.947,-7.98 16.8,-8.903 6.853,-0.914 13.038,-0.372 18.555,1.632 6.35,2.507 11.035,6.853 14.042,13.037 2.841,5.516 4.266,11.954 4.266,19.31 0,5.35 -0.59,9.944 -1.756,13.787 -1.175,3.849 -2.676,7.109 -4.513,9.784 -4.016,5.515 -9.115,8.943 -15.3,10.278 -5.513,1.508 -11.072,1.632 -16.671,0.377 -5.603,-1.257 -10.074,-3.385 -13.413,-6.397 z m 12.032,-44.13 c -3.51,3.848 -5.1,9.575 -4.765,17.175 0.333,7.612 1.758,12.913 4.263,15.927 1.004,1.337 2.758,2.465 5.27,3.383 2.505,0.918 5.053,1 7.644,0.25 2.593,-0.752 4.891,-2.632 6.898,-5.643 2.003,-3.007 3.09,-7.855 3.257,-14.542 0,-6.019 -0.962,-10.533 -2.885,-13.54 -1.92,-3.01 -4.134,-4.93 -6.644,-5.765 -2.505,-0.838 -5.013,-0.879 -7.522,-0.127 -2.505,0.752 -4.348,1.717 -5.516,2.883 z m 104.695,51.541 h -17.304 v -42.63 c 0,-4.01 -1.21,-6.933 -3.636,-8.775 -2.425,-1.837 -5.14,-2.755 -8.148,-2.755 -3.01,0 -5.686,0.918 -8.023,2.755 -2.343,1.842 -3.51,4.764 -3.51,8.776 v 42.629 h -17.553 v -39.12 c 0,-11.363 2.965,-18.966 8.903,-22.815 5.929,-3.843 12.494,-5.933 19.682,-6.269 3.846,0 7.602,0.416 11.284,1.253 3.674,0.838 7.02,2.508 10.032,5.016 2.505,-2.171 5.473,-3.72 8.898,-4.641 3.48422,-0.925531 7.05835,-1.471374 10.66,-1.628 7.353,0 14.124,1.924 20.307,5.767 6.186,3.849 9.277,11.62 9.277,23.318 v 39.119 h -8.774 c -2.509,0 -4.553,-0.792 -6.143,-2.385 -1.59,-1.585 -2.38,-3.632 -2.38,-6.144 v -34.1 c 0,-4.012 -1.217,-6.934 -3.64,-8.776 -2.422,-1.837 -5.139,-2.755 -8.148,-2.755 -3.01,0 -5.727,0.918 -8.15,2.755 -2.423,1.842 -3.635,4.764 -3.635,8.776 v 42.629 z M 402.558,27.68 h 9.028 c 2.337,0 4.344,0.841 6.014,2.508 1.67,1.674 2.513,3.677 2.513,6.018 v 5.267 H 402.558 V 27.679 Z m 0,19.558 h 9.028 c 2.337,0 4.344,0.84 6.014,2.51 1.67,1.673 2.513,3.676 2.513,6.013 v 58.178 h -17.555 v -66.7 z m 81.428,21.8 c -0.166,-5.21 -1.407,-9.504 -3.817,-12.8 -1.138,-1.707 -2.62,-3.212 -4.461,-4.513 -4.824,-3.4 -11.667,-5.102 -20.53,-5.102 -8.438,0 -16.65,1.838 -24.637,5.515 l 5.77,13.79 c 0.822,-0.353 1.59,-0.639 2.385,-0.96 1.43601,-0.583593 2.88434,-1.136386 4.344,-1.658 0.62,-0.234 1.222,-0.43 1.826,-0.636 0.422,-0.14 0.873,-0.312 1.286,-0.442 0.208,-0.066 0.416,-0.086 0.624,-0.146 3.626,-1.07 6.979,-1.67 9.988,-1.67 4.76,0 7.777,1.695 9.123,5.03 0.532,1.316 0.828,2.862 0.828,4.698 v 2.8 l -11.099,0.344 c -9.574,0.346 -16.735,2.125 -21.481,5.35 -4.75,3.226 -7.122,8.23 -7.122,15.02 0,6.484 1.762,11.478 5.289,14.989 3.532,3.508 8.366,5.263 14.5,5.263 4.997,0 9.61,-0.423 12.717,-1.855 3.106,-1.43 6.387,-3.048 10.149,-6.367 v 0.438 c 0,2.29 0.656,4.161 1.982,5.61 1.319,1.45 3.022,2.174 5.108,2.174 h 7.297 v -44.9 l -0.069,0.03 z m -17.271,19.353 c 0,3.853 -1.212,6.944 -3.632,9.273 -2.42,2.326 -5.657,3.487 -9.698,3.487 -5.647,0 -8.464,-2.46 -8.464,-7.38 0,-3.432 1.234,-5.987 3.717,-7.664 2.48,-1.681 6.254,-2.596 11.329,-2.75 l 6.748,-0.228 z m -136.2,-19.353 c -0.162,-5.21 -1.404,-9.504 -3.817,-12.8 -1.136,-1.707 -2.622,-3.212 -4.46,-4.513 -4.824,-3.4 -11.668,-5.102 -20.531,-5.102 -8.438,0 -16.651,1.838 -24.637,5.515 l 5.771,13.79 c 0.821,-0.353 1.59,-0.639 2.385,-0.96 1.43618,-0.584013 2.88485,-1.136809 4.345,-1.658 0.618,-0.234 1.22,-0.43 1.826,-0.636 0.423,-0.14 0.873,-0.312 1.284,-0.442 0.206,-0.066 0.416,-0.086 0.622,-0.146 3.628,-1.07 6.98,-1.67 9.989,-1.67 4.76,0 7.781,1.695 9.125,5.03 0.533,1.316 0.827,2.862 0.827,4.698 v 2.8 l -11.097,0.344 c -9.576,0.346 -16.734,2.125 -21.482,5.35 -4.75,3.226 -7.124,8.23 -7.124,15.02 0,6.484 1.765,11.478 5.291,14.989 3.53,3.508 8.363,5.263 14.502,5.263 4.997,0 9.609,-0.423 12.711,-1.855 3.111,-1.43 6.388,-3.048 10.155,-6.367 v 0.438 c 0,2.29 0.655,4.161 1.979,5.61 1.316,1.45 3.024,2.174 5.107,2.174 h 7.296 v -44.9 l -0.067,0.03 z m -17.27,19.353 c 0,3.853 -1.21,6.944 -3.632,9.273 -2.423,2.326 -5.656,3.487 -9.698,3.487 -5.647,0 -8.465,-2.46 -8.465,-7.38 0,-3.432 1.236,-5.987 3.716,-7.664 2.48,-1.681 6.256,-2.596 11.33,-2.75 l 6.748,-0.228 v 5.262 z m -0.939,-55.697 8.027,9.526 H 310.05 l -7.523,-8.273 -5.263,5.518 c -1.005,0.999 -1.883,1.714 -2.635,2.13 -0.755,0.419 -1.883,0.625 -3.387,0.625 h -6.017 l 8.023,-9.526 c 2.51,-3.343 5.68,-5.013 9.529,-5.013 3.676,0 6.85,1.67 9.53,5.013 z M 77.193,82.085 C 86.68,77.058 93.1,67.544 93.1,56.653 93.1,40.533 79.059,27.419 61.795,27.419 h -26.37 c -2.511,0 -4.651,0.882 -6.41,2.64 -1.761,1.763 -2.641,3.899 -2.641,6.414 v 77.443 H 44.365 V 85.888 h 13.943 l 3.98,6.475 7.56,12.607 c 0.421,0.733 0.926,1.422 1.469,2.094 1.279,1.573 2.867,2.989 4.807,4.217 2.768,1.751 5.38,2.635 7.836,2.635 H 98.85 Z M 61.796,67.898 h -17.43 v -22.49 h 17.43 c 7.216,0 13.314,5.15 13.314,11.245 0,6.095 -6.098,11.245 -13.314,11.245 z"
       fill="#ffffff"
       id="path8"
       style="display:inline"
       sodipodi:nodetypes="cccscccsccccccccscscccccsccccscsscscsccscccscccscccccscccccccccccccccccccscscsccscccccccscscsscscscccscscccccscsccccsccscccccccscscccscsccscscccsscsscccssccscccccccscscccscsccscscccsccsscccccccccccsccscccssscsccccccccsccsccsss" />
  </g>
</svg>
