<?xml version="1.0" encoding="UTF-8" standalone="no"?>
<svg
   xmlns:dc="http://purl.org/dc/elements/1.1/"
   xmlns:cc="http://creativecommons.org/ns#"
   xmlns:rdf="http://www.w3.org/1999/02/22-rdf-syntax-ns#"
   xmlns:svg="http://www.w3.org/2000/svg"
   xmlns="http://www.w3.org/2000/svg"
   xmlns:sodipodi="http://sodipodi.sourceforge.net/DTD/sodipodi-0.dtd"
   xmlns:inkscape="http://www.inkscape.org/namespaces/inkscape"
   version="1.1"
   id="Слой_1"
   x="0px"
   y="0px"
   viewBox="0 0 132 99.000002"
   xml:space="preserve"
   sodipodi:docname="RTL_Gold_Hungary.svg"
   width="132"
   height="99"
   inkscape:version="1.0.2 (e86c870879, 2021-01-15, custom)"><metadata
   id="metadata20"><rdf:RDF><cc:Work
       rdf:about=""><dc:format>image/svg+xml</dc:format><dc:type
         rdf:resource="http://purl.org/dc/dcmitype/StillImage" /><dc:title></dc:title></cc:Work></rdf:RDF></metadata><defs
   id="defs18" /><sodipodi:namedview
   pagecolor="#ffffff"
   bordercolor="#666666"
   borderopacity="1"
   objecttolerance="10"
   gridtolerance="10"
   guidetolerance="10"
   inkscape:pageopacity="0"
   inkscape:pageshadow="2"
   inkscape:window-width="1920"
   inkscape:window-height="1001"
   id="namedview16"
   showgrid="false"
   inkscape:zoom="3.1114493"
   inkscape:cx="169.99357"
   inkscape:cy="54.315524"
   inkscape:window-x="-9"
   inkscape:window-y="-9"
   inkscape:window-maximized="1"
   inkscape:current-layer="Слой_1" />
<style
   type="text/css"
   id="style2">
	.st0{fill:url(#SVGID_1_);}
</style>
<radialGradient
   id="SVGID_1_"
   cx="19.552"
   cy="899.14319"
   r="4.0412002"
   gradientTransform="matrix(14.009699,10.4893,10.4893,-14.009699,-9636.194,12415.689)"
   gradientUnits="userSpaceOnUse">
	<stop
   offset="0"
   style="stop-color:#ECAA20"
   id="stop4" />
	<stop
   offset="0.6129"
   style="stop-color:#7B451F"
   id="stop6" />
	<stop
   offset="0.8226"
   style="stop-color:#471F1A"
   id="stop8" />
	<stop
   offset="1"
   style="stop-color:#210000"
   id="stop10" />
</radialGradient>
<path
   class="st0"
   d="m 26.939637,17.658 c -1.065834,0 -1.962102,0.872045 -1.962102,1.962102 v 13.734714 c 0,1.065833 0.872045,1.962102 1.962102,1.962102 h 78.072283 c 1.06583,0 1.9621,-0.872046 1.9621,-1.962102 V 19.620102 c 0,-1.065833 -0.87205,-1.962102 -1.9621,-1.962102 z m 53.485446,2.71303 h 10.658332 v 9.592498 h 13.783165 v 2.349678 H 80.425083 Z m -27.663215,0 h 24.829068 v 2.349678 H 70.59035 v 9.592498 H 60.440711 v -9.592498 h -7.678843 z m -25.701114,0 h 20.493065 c 0.726705,0.169564 1.235398,0.436022 1.550303,0.702481 1.04161,0.775151 1.550303,2.010549 1.550303,3.439734 0,1.380739 -0.654034,2.422348 -1.937879,3.100606 -0.387575,0.193788 -1.041609,0.363352 -1.913655,0.55714 l 4.965814,4.142215 H 42.83024 L 38.688025,28.09832 h -2.277007 v 4.214886 h -9.350264 z m 9.25337,2.349678 v 2.979488 h 5.01426 c 0.218012,-0.145341 0.363353,-0.290682 0.436023,-0.411799 0.290682,-0.363353 0.436023,-0.702481 0.436023,-1.162727 0,-0.4118 -0.145341,-0.823599 -0.387576,-1.114281 -0.09689,-0.09689 -0.193788,-0.193787 -0.460246,-0.290681 z m 45.637038,17.174448 v 31.151396 c 0,0.799375 0.654034,1.453409 1.453409,1.453409 h 23.642119 c 6.68568,0 12.13596,-5.450283 12.13596,-12.135964 0,-6.685681 -5.45028,-12.135964 -12.13596,-12.135964 v 0 c -0.79938,0 -1.45341,0.654034 -1.45341,1.453409 0,0.02422 0,0.04845 0,0.07267 V 69.56892 h -1.33229 V 46.67773 h 2.80992 c 7.55773,0 13.68627,6.152765 13.68627,13.686267 0,7.533503 -6.12854,13.662044 -13.63782,13.686267 -0.0242,0 -0.0242,0 -0.0485,0 H 80.618871 V 39.895156 c 0,-0.799375 -0.654034,-1.453409 -1.453409,-1.453409 -0.799375,0 -1.453409,0.654034 -1.453409,1.453409 v 20.444618 c 0,0 0,0.02422 0,0.02422 0,4.263333 -1.477632,8.163313 -3.948427,11.239696 -0.07267,0.07267 -0.145341,0.169564 -0.193788,0.266458 -3.318617,3.996874 -8.308654,6.54034 -13.904278,6.54034 -6.54034,0 -12.475093,-3.488182 -15.696816,-9.132253 0.266458,-0.55714 0.508693,-1.138503 0.726704,-1.719867 2.688807,5.571401 8.381325,9.398711 14.970112,9.398711 9.156476,0 16.617308,-7.460832 16.617308,-16.617308 0,-9.156476 -7.460832,-16.617308 -16.617308,-16.617308 -3.633522,0 -7.09748,1.162727 -10.004298,3.34284 -2.519242,1.889432 -4.457121,4.505568 -5.547177,7.436609 h -1.52608 c 0.266459,-0.799375 0.605587,-1.574526 0.96894,-2.325454 0.07267,-0.09689 0.121117,-0.193788 0.145341,-0.290682 3.052158,-5.813636 9.108029,-9.592499 15.963274,-9.592499 5.377612,0 10.44032,2.373901 13.880054,6.516117 0.145341,0.242235 0.363353,0.436022 0.629811,0.581363 0.508693,0.242235 1.138504,0.169565 1.574526,-0.193788 0.411799,-0.339128 0.508693,-0.823598 0.508693,-1.356514 v -7.945302 c 0,-0.799375 -0.654034,-1.453409 -1.453409,-1.453409 -0.799374,0 -1.453408,0.654034 -1.453408,1.453409 v 4.554014 C 69.572963,41.203221 64.752491,39.38646 59.689783,39.38646 c -4.772026,0 -9.447157,1.647196 -13.15335,4.650908 -1.622973,1.308068 -3.027935,2.834147 -4.166439,4.529791 C 38.494237,42.85042 32.050791,39.410686 25.025982,39.410686 13.398711,39.386463 4,48.785173 4,60.363997 c 0,11.578824 9.398711,20.977535 20.977535,20.977535 7.194374,0 13.540926,-3.633522 17.319789,-9.180699 3.875757,5.716741 10.319203,9.180699 17.344012,9.180699 5.208049,0 10.004298,-1.913655 13.662044,-5.086931 v 3.633522 c 0,0.799375 0.654034,1.453409 1.453408,1.453409 h 32.265682 c 11.57882,0 20.97753,-9.422934 20.97753,-20.977535 0,-11.5546 -9.39871,-20.977534 -20.97753,-20.977534 h -8.647787 c -0.799375,0 -1.453409,0.654034 -1.453409,1.453408 V 69.56892 H 84.85798 V 39.895156 c 0,-0.799375 -0.654034,-1.453409 -1.453409,-1.453409 -0.799375,0 -1.453409,0.62981 -1.453409,1.453409 m 17.925376,2.422348 h 7.170152 c 9.95585,0 18.04649,8.090643 18.04649,18.046493 0,9.955851 -8.09064,18.046494 -18.04649,18.046494 H 76.234421 v -5.232272 c 0.532916,-0.678258 1.017386,-1.404962 1.453409,-2.131667 v 4.457121 c 0,0.387576 0.145341,0.775151 0.436022,1.065833 0.290682,0.290682 0.654034,0.436023 1.04161,0.436023 0.02422,0 0.02422,0 0.04845,0 h 27.784328 c 0.0242,0 0.0242,0 0.0485,0 9.15647,0 16.61731,-7.460832 16.61731,-16.617308 0,-9.156476 -7.46084,-16.617308 -16.61731,-16.617308 h -4.26333 c -0.79938,0 -1.45341,0.654034 -1.45341,1.453409 0,0.02422 0,0.02422 0,0.04845 V 69.593144 H 99.876538 Z M 6.9310412,60.363997 c 0,-9.95585 8.0906428,-18.046493 18.0464938,-18.046493 6.54034,0 12.475092,3.488181 15.696815,9.132252 -0.266458,0.55714 -0.508693,1.138504 -0.726704,1.719867 -1.138504,-2.373901 -2.858371,-4.481344 -4.965814,-6.05587 -2.906817,-2.180113 -6.370775,-3.34284 -10.004297,-3.34284 -9.156476,0 -16.6173084,7.460832 -16.6173084,16.617308 0,9.156476 7.4608324,16.617308 16.6173084,16.617308 9.156476,0 16.617308,-7.460832 16.617308,-16.617308 0,-0.799375 -0.654034,-1.453409 -1.453409,-1.453409 v 0 H 26.212932 c -0.799375,0 -1.453409,0.654034 -1.453409,1.453409 0,0.799375 0.654034,1.453409 1.453409,1.453409 h 12.378199 c -0.726704,6.855245 -6.564563,12.232858 -13.613596,12.232858 -7.557726,0 -13.686267,-6.152765 -13.686267,-13.686267 0,-7.557726 6.152764,-13.686267 13.686267,-13.686267 5.304942,0 10.149638,3.149052 12.378199,7.848408 H 35.611643 C 33.5042,50.698828 29.410432,48.252257 24.977535,48.252257 c -6.685681,0 -12.135964,5.450283 -12.135964,12.135964 0,6.685681 5.450283,12.135964 12.135964,12.135964 4.699355,0 8.962688,-2.71303 10.973237,-6.952139 0.218011,-0.242235 0.339128,-0.581364 0.339128,-0.920493 0,-0.605587 -0.387575,-1.138503 -0.920492,-1.356515 0,0 0,0 -0.02422,0 -0.266459,-0.121117 -0.55714,-0.14534 -0.823599,-0.09689 h -8.308654 c -0.799375,0 -1.453409,0.654034 -1.453409,1.453408 0,0.799375 0.654034,1.453409 1.453409,1.453409 h 5.958977 c -1.719868,2.15589 -4.360227,3.488182 -7.218598,3.488182 -5.086931,0 -9.204923,-4.142216 -9.204923,-9.204923 0,-5.086931 4.142216,-9.204923 9.204923,-9.204923 2.785701,0 5.377613,1.259621 7.09748,3.367064 h -5.837859 c -0.799375,0 -1.453409,0.654034 -1.453409,1.453409 0,0.799375 0.654034,1.453409 1.453409,1.453409 H 40.60168 c 0,0 0,0 0,0 0,0 0,0 0,0 h 2.640359 c -0.169564,0.968939 -0.266458,1.937878 -0.266458,2.906817 0,0.02422 0,0.02422 0,0.04845 -0.02422,9.931627 -8.114866,17.998047 -18.046493,17.998047 -9.907404,0 -17.9980468,-8.090643 -17.9980468,-18.046494 m 39.0240278,0 c 0,0 0,0 0,0 0,-0.02422 0,-0.04845 0,-0.07267 0,-1.332292 0.193788,-2.616136 0.581364,-3.875757 0,0 0,0 0,-0.02422 0,0 0,0 0,-0.02422 1.719867,-5.740965 7.121703,-9.73784 13.104903,-9.73784 7.557726,0 13.686267,6.152765 13.686267,13.686267 0,7.557726 -6.152764,13.686267 -13.686267,13.686267 -7.533502,0.04845 -13.686267,-6.080094 -13.686267,-13.63782 m 62.569251,-9.108029 c 4.38445,0.702481 7.75152,4.505568 7.75152,9.083806 0,4.578238 -3.36707,8.381324 -7.75152,9.083805 z M 47.505372,60.36401 c 0,6.685681 5.450283,12.135964 12.135964,12.135964 6.685681,0 12.135964,-5.450283 12.135964,-12.135964 0,-6.685681 -5.450283,-12.135964 -12.135964,-12.135964 -6.685681,0 -12.135964,5.450283 -12.135964,12.135964 m 2.931041,0 c 0,-5.086931 4.142216,-9.204923 9.204923,-9.204923 5.062708,0 9.204923,4.142216 9.204923,9.204923 0,5.086931 -4.142215,9.204923 -9.204923,9.204923 -5.062707,0 -9.204923,-4.142215 -9.204923,-9.204923"
   id="path13"
   style="fill:url(#SVGID_1_);stroke-width:0.242235" />
</svg>
