<?xml version="1.0" encoding="UTF-8" standalone="no"?>
<svg
   xmlns:dc="http://purl.org/dc/elements/1.1/"
   xmlns:cc="http://creativecommons.org/ns#"
   xmlns:rdf="http://www.w3.org/1999/02/22-rdf-syntax-ns#"
   xmlns:svg="http://www.w3.org/2000/svg"
   xmlns="http://www.w3.org/2000/svg"
   xmlns:sodipodi="http://sodipodi.sourceforge.net/DTD/sodipodi-0.dtd"
   xmlns:inkscape="http://www.inkscape.org/namespaces/inkscape"
   width="132"
   height="99"
   id="svg2"
   sodipodi:version="0.32"
   inkscape:version="1.0.2 (e86c870879, 2021-01-15, custom)"
   version="1.0"
   inkscape:output_extension="org.inkscape.output.svg.inkscape"
   sodipodi:docname="RTL_Klub_Hungary.svg">
  <metadata
     id="metadata23">
    <rdf:RDF>
      <cc:Work
         rdf:about="">
        <dc:format>image/svg+xml</dc:format>
        <dc:type
           rdf:resource="http://purl.org/dc/dcmitype/StillImage" />
        <dc:title></dc:title>
      </cc:Work>
    </rdf:RDF>
  </metadata>
  <defs
     id="defs21" />
  <sodipodi:namedview
     pagecolor="#ffffff"
     bordercolor="#666666"
     borderopacity="1"
     objecttolerance="10"
     gridtolerance="10"
     guidetolerance="10"
     inkscape:pageopacity="0"
     inkscape:pageshadow="2"
     inkscape:window-width="1920"
     inkscape:window-height="1001"
     id="namedview19"
     showgrid="false"
     inkscape:zoom="1.3171701"
     inkscape:cx="328.36592"
     inkscape:cy="244.05844"
     inkscape:window-x="-9"
     inkscape:window-y="-9"
     inkscape:window-maximized="1"
     inkscape:current-layer="svg2" />
  <g
     id="g42"
     transform="matrix(0.21108074,0,0,0.21108074,-58.530457,-26.860584)">
    <g
       id="g3752"
       transform="matrix(11.817977,0,0,-11.817977,296.23952,253.39988)"
       style="display:inline">
      <path
         id="path3754"
         d="m 0,0 c 11.775,0 23.548,0 35.324,0 4.448,0 8.898,0 13.346,0 0.336,0 0.674,0 1.012,0 0,-3.819 0,-7.638 0,-11.455 -2.167,0 -4.333,0 -6.5,0 -10.088,0 -20.175,0 -30.261,0 -4.307,0 -8.613,0 -12.921,0 C 0,-7.636 0,-3.819 0,0"
         style="fill:#000000;fill-rule:evenodd;stroke:none" />
    </g>
    <g
       id="g3756"
       transform="matrix(11.817977,0,0,-11.817977,422.52644,315.86969)"
       style="display:inline">
      <path
         id="path3758"
         d="M 0,0 C 0.296,0.169 0.44,0.534 0.435,0.884 0.429,1.213 0.237,1.559 -0.069,1.683 -0.234,1.749 -0.68,1.71 -0.895,1.71 l -2.274,0.006 c 0,0 0.01,-1.347 0.01,-1.764 0.81,0 1.617,0.001 2.425,0.001 C -0.621,-0.046 -0.089,-0.049 0,0 Z m 16.273,-3.781 c -0.249,0 -0.47,0.003 -0.544,0.003 H 11.2 c 0,1.838 0,3.677 0,5.515 H 6.832 c 0,0.454 0,0.905 0,1.358 h 14.571 c 0,-0.355 -10e-4,-0.71 -10e-4,-1.065 0,-0.121 -0.004,-0.425 -0.004,-0.425 0,0 -0.804,0.002 -1.14,-10e-4 H 18.18 c -0.266,-0.005 -0.944,10e-4 -0.944,10e-4 0,0 0.011,-0.494 0.011,-0.668 0,-0.257 0,-0.515 0,-0.772 0,-0.959 0,-1.918 0,-2.877 0,-0.209 0,-1.047 0,-1.047 0,0 -0.558,-0.022 -0.974,-0.022 z m 6.463,0.003 c 0,2.318 0,4.636 0,6.953 l 6.369,0.029 c 0,0 -0.004,-0.961 -0.004,-1.361 0,-1.403 0,-2.806 0,-4.208 h 8.312 c 0,-0.188 -0.007,-1.382 -0.007,-1.382 z M 1.29,-3.884 c -0.141,0 -0.32,-0.014 -0.445,0.024 -0.017,0.008 -0.033,0.015 -0.049,0.023 -0.009,0.006 -0.019,0.014 -0.027,0.021 -0.01,0.007 -0.02,0.015 -0.028,0.022 -0.496,0.437 -1.013,0.953 -1.483,1.423 -0.238,0.239 -0.712,0.884 -1.028,0.904 -0.176,0.012 -1.348,-0.007 -1.35,-0.025 -10e-4,-0.012 0,-2.392 0,-2.392 0,0 -0.341,0 -0.49,0 -0.302,-10e-4 -0.604,-10e-4 -0.906,-10e-4 h -4.289 c 0,1.644 0.011,6.952 0.011,6.952 L 2.703,3.068 C 3.12,3.068 3.615,3.106 3.981,3.013 4.739,2.825 5.365,2.128 5.517,1.362 5.552,1.176 5.552,0.961 5.552,0.751 5.552,0.445 5.509,0.158 5.404,-0.094 5.307,-0.325 5.165,-0.532 5.007,-0.73 4.77,-1.025 4.405,-1.185 4.08,-1.341 3.794,-1.48 3.277,-1.495 3.263,-1.513 c 0.908,-0.671 3.195,-2.383 3.195,-2.383 0,0 -4.874,0.012 -5.168,0.012"
         style="fill:#ffffff;fill-rule:evenodd;stroke:none" />
    </g>
    <g
       id="g3760"
       clip-path="url(#id593)"
       transform="matrix(11.817977,0,0,-11.817977,-2828.209,8985.0527)"
       style="display:inline">
      <g
         id="g3762"
         transform="translate(293.115,725.361)">
        <path
           id="path3764"
           d="m 0,0 c 0.505,0 1.011,0 1.519,0 0,-0.738 0,-1.474 0,-2.211 0.002,-0.329 0.007,-0.656 0.012,-0.983 0.032,-0.195 0.121,-0.367 0.262,-0.499 0.344,-0.325 0.92,-0.303 1.43,-0.303 0.07,0.009 0.142,0.017 0.212,0.026 0.079,0.023 0.158,0.046 0.235,0.069 0.132,0.046 0.254,0.105 0.366,0.186 0.441,0.332 0.311,1.135 0.311,1.743 0,0.191 0,1.95 0,1.95 0,0 1.228,0.004 1.484,0.004 0,-0.763 0.003,-1.511 0.003,-2.274 0,-0.372 0.035,-0.806 -0.037,-1.142 C 5.744,-3.672 5.633,-3.888 5.476,-4.066 4.546,-5.121 0.972,-5.179 0.216,-3.861 -0.066,-3.371 0,-2.672 0,-2.025 0,-1.35 0,-0.675 0,0"
           style="fill:#000000;fill-rule:evenodd;stroke:none" />
      </g>
    </g>
    <g
       id="g3766"
       transform="matrix(11.817977,0,0,-11.817977,299.584,413.07255)"
       style="display:inline">
      <path
         id="path3768"
         d="m 0,0 c 0.496,0 0.995,0 1.492,0 0,-0.631 0,-1.262 0,-1.892 0.033,0 0.053,-0.017 0.053,0.027 0.672,0.448 1.345,0.895 2.016,1.344 0.199,0.132 0.554,0.429 0.763,0.497 C 4.47,0.023 4.705,0 4.875,0 c 0.436,0 0.871,0 1.306,0 0,-0.01 0,-0.019 0,-0.028 -0.01,0 -0.018,0 -0.027,0 C 5.276,-0.604 4.397,-1.181 3.517,-1.759 3.478,-1.785 3.375,-1.856 3.383,-1.91 c 0.014,-0.024 0.028,-0.049 0.042,-0.073 0.963,-0.848 1.926,-1.696 2.887,-2.545 0.039,-0.029 0.135,-0.088 0.135,-0.134 0.009,0 0.019,0 0.026,0 0,-0.01 0,-0.019 0,-0.027 -0.453,0 -0.906,0 -1.358,0.001 C 4.972,-4.688 4.768,-4.71 4.65,-4.66 4.482,-4.588 4.344,-4.392 4.198,-4.276 3.712,-3.837 3.228,-3.4 2.742,-2.961 2.635,-2.866 2.412,-2.608 2.281,-2.58 2.191,-2.561 2.033,-2.686 1.963,-2.731 1.84,-2.812 1.609,-2.904 1.529,-3.036 1.47,-3.129 1.492,-3.34 1.492,-3.464 c 0,-0.409 0,-0.816 0,-1.225 -0.497,0 -0.994,0 -1.492,0 0,1.563 0,3.125 0,4.689"
         style="fill:#000000;fill-rule:evenodd;stroke:none" />
    </g>
    <g
       id="g3770"
       transform="matrix(11.817977,0,0,-11.817977,475.2464,413.07255)"
       style="display:inline">
      <path
         id="path3772"
         d="m 0,0 c 0.496,0 0.994,0 1.492,0 0,-1.27 0,-2.541 0,-3.811 1.189,0 2.38,0 3.569,0 0,-0.293 0,-0.585 0,-0.878 -1.687,0 -3.374,0 -5.061,0 0,1.563 0,3.125 0,4.689"
         style="fill:#000000;fill-rule:evenodd;stroke:none" />
    </g>
    <g
       id="g3774"
       clip-path="url(#id594)"
       transform="matrix(11.817977,0,0,-11.817977,-2828.209,8985.0527)"
       style="display:inline">
      <g
         id="g3776"
         transform="translate(309.603,723.522)">
        <path
           id="path3778"
           d="M 0,0 H 1.864 C 1.941,0.039 2.396,-0.037 2.623,0.204 2.707,0.293 2.763,0.401 2.762,0.534 2.758,0.728 2.609,0.855 2.443,0.914 2.137,1.024 1.723,1.012 1.359,1.012 H 0 C 0,0.676 0,0.337 0,0 Z m 2.132,-2.024 c 0.069,0.008 0.141,0.017 0.211,0.026 0.078,0.024 0.156,0.047 0.234,0.07 0.229,0.086 0.403,0.245 0.399,0.516 C 2.974,-1.239 2.9,-1.073 2.757,-0.976 2.428,-0.758 1.885,-0.799 1.438,-0.799 H 0 c 0,-0.409 0,-0.818 0,-1.225 z m -3.631,-0.853 c 0,1.563 0,3.125 0,4.69 h 2.611 c 0.864,0 1.781,0.053 2.47,-0.256 C 4.312,1.231 4.471,0.324 3.783,-0.141 3.686,-0.206 3.501,-0.32 3.376,-0.32 c 0,-0.009 0,-0.018 0,-0.026 C 4.286,-0.497 4.87,-1.428 4.191,-2.2 4.041,-2.368 3.838,-2.471 3.647,-2.565 2.949,-2.905 2.019,-2.877 1.139,-2.877 h -2.638"
           style="fill:#000000;fill-rule:evenodd;stroke:none" />
      </g>
    </g>
  </g>
</svg>
