<svg
	xmlns="http://www.w3.org/2000/svg"
	viewBox="0 0 814.24 432">
<g fill="#2C1EA0">
	<path d="M377.16,269.45c20.26-11.71,99.74-48.23,99.74-132.25C476.9,59.22,403.92,0,320.71,0 C242.23,0,174,56.41,174,56.41s0.73,2.4,19.78,50.54c7.31,18.48,25.41,26.97,44.39,17.61c25.55-12.6,57.45-29.48,82.56-29.48 c33.94,0,57.6,22.64,57.6,47.04c0,32.36-33.95,46.27-90.86,77.94c-55.12,30.68-119.33,78.65-119.33,162.05v19.48 c0,16.8,13.62,30.41,30.41,30.41h274.71v-66.62c0-13.64-11.06-24.7-24.69-24.7c-0.01,0-173.79-0.08-173.79-0.08 C274.78,321.47,330.17,296.6,377.16,269.45z"/>
	<path d="M57.65,83.91C25.87,83.91,0,110.01,0,142.1c0,32.09,25.87,58.2,57.65,58.2c31.78,0,57.64-26.11,57.64-58.2 C115.29,110.01,89.43,83.91,57.65,83.91z"/>
	<path d="M57.65,260.02C25.87,260.02,0,286.12,0,318.2c0,32.1,25.87,58.2,57.65,58.2c31.78,0,57.64-26.11,57.64-58.2 C115.29,286.12,89.43,260.02,57.65,260.02z"/>
	<path d="M789.55,250.66c0,0-5.92,0-15.57-0.01v-71.49h-66.62c-13.64,0-24.7,11.06-24.7,24.69c0,0-0.04,6.09-0.04,16.7 v30.07h-3.96h-85.33l82.74-187.66c5.46-12.49-0.24-27.05-12.74-32.52L602.3,3.77L493.65,250.3c0,0,0,0,0,0l-0.02,0.05l0,0h0v0.52h0 v36.34c-0.05,1.61-0.08,3.23-0.08,4.87v19.48c0,0.57,0.05,1.12,0.08,1.68v0.48h0.02c1.11,15.78,14.24,28.25,30.3,28.25h158.68V432 h66.62c13.64,0,24.7-11.06,24.7-24.69c0,0,0.01-30.15,0.03-65.33h40.27v-66.62C814.24,261.72,803.18,250.66,789.55,250.66z"/>
</g>
</svg>
