<svg
	xmlns="http://www.w3.org/2000/svg"
	viewBox="0 0 967.89 244.77">
<g fill="#ED2024">
	<path d="M35.73,128.37c19.7,0,35.73-16.37,35.73-36.5c0-20.12-16.03-36.49-35.73-36.49C16.04,55.37,0,71.74,0,91.86 C0,112,16.04,128.37,35.73,128.37z M35.73,165.82C16.04,165.82,0,182.19,0,202.31c0,20.13,16.04,36.5,35.73,36.5 c19.7,0,35.73-16.37,35.73-36.5C71.46,182.19,55.43,165.82,35.73,165.82z"/>
	<path d="M539.39,51.36c-26.29,0-50.6,10.05-68.44,28.29c-17.66,18.05-27.39,42.35-27.39,68.42v0.56 c0,26.06,9.63,50.26,27.12,68.14c17.67,18.06,41.89,28.01,68.18,28.01c26.29,0,50.6-10.05,68.44-28.29 c17.66-18.05,27.38-42.35,27.38-68.42v-0.56c0-26.07-9.63-50.27-27.12-68.14C589.9,61.31,565.69,51.36,539.39,51.36z M591.12,148.62c0,32.18-22.24,56.45-51.72,56.45c-14.62,0-28.01-6.14-37.69-17.28c-9.22-10.62-14.3-24.72-14.3-39.72v-0.56 c0-32.18,22.12-56.45,51.46-56.45c14.73,0,28.2,6.14,37.92,17.28c9.24,10.6,14.34,24.71,14.34,39.72V148.62z"/>
	<path d="M805.11,117.21c0-17.71-4.99-31.91-14.82-42.2c-11.98-13.12-30.78-19.76-55.91-19.76h-74.46v185.62h29.67 c6.49,0,11.77-5.34,11.77-11.91v-45.35c0-0.92,0.74-1.67,1.65-1.67h19.43c0.57,0,1.09,0.29,1.4,0.78l0.82,1.31l35.24,56.83h36.1 c2.31,0,4.34-1.22,5.45-3.27c1.1-2.05,1.02-4.45-0.24-6.41l-32.7-51.24l-1.75-2.74c-0.26-0.41-0.33-0.91-0.2-1.38 c0.14-0.47,0.47-0.85,0.9-1.05l2.94-1.34c22.71-10.36,34.71-29.62,34.71-55.68V117.21z M763.42,121.1 c0,16.99-12.02,27.54-31.37,27.54h-29.04c-0.91,0-1.65-0.75-1.65-1.67v-52.3c0-0.92,0.74-1.67,1.65-1.67h28.78 c20.1,0,31.63,10.04,31.63,27.54V121.1z"/>
	<path d="M901.7,240.88c6.49,0,11.77-5.34,11.77-11.91V95.23c0-0.92,0.74-1.67,1.65-1.67h52.77v-26.4 c0-6.57-5.28-11.91-11.77-11.91H817.62v26.4c0,6.57,5.28,11.91,11.77,11.91h41c0.91,0,1.65,0.75,1.65,1.67v145.65H901.7z"/>
	<path d="M240.19,0h-34.02c-1.37,0-2.65,0.61-3.53,1.67l-3.68,4.48c-1.81,2.21-4.5,3.47-7.37,3.47 c-0.15,0-0.3,0-0.44-0.01c0,0.01-0.15,0.01-0.3,0.01c-2.87,0-5.56-1.27-7.37-3.47l-3.68-4.48C178.92,0.61,177.64,0,176.27,0 h-34.02c-0.41,0-0.59,0.27-0.67,0.42c-0.08,0.16-0.17,0.47,0.08,0.8l15.28,19.85c7.49,9.74,18.79,15.32,30.98,15.32h6.59 c12.2,0,23.49-5.58,30.98-15.32l15.28-19.86c0.25-0.32,0.16-0.64,0.08-0.8C240.79,0.27,240.6,0,240.19,0z"/>
	<path d="M355.04,185.29c21.8,0,40.15-5.8,53.07-16.78c13.42-11.4,20.51-28.27,20.51-48.8v-0.55 c0-19.64-6.57-35.89-19.01-46.99c-12.4-11.07-30.37-16.91-51.98-16.91H284.3v185.63h29.67c6.49,0,11.77-5.34,11.77-11.91v-42.01 c0-0.92,0.74-1.67,1.65-1.67H355.04z M325.74,150.31V93.29c0-0.92,0.74-1.67,1.65-1.67h26.35c10.2,0,18.34,2.56,24.18,7.6 c6.06,5.23,9.26,12.99,9.26,22.44v0.55c0,18.08-13.02,29.76-33.18,29.76h-26.61C326.48,151.98,325.74,151.23,325.74,150.31z"/>
	<path d="M261.89,184.75c0-16.08-5.24-27.77-16.5-36.8c-10.1-8.1-24.82-14.1-47.71-19.44 c-23.65-5.75-34.78-9.92-34.78-23.26v-0.55c0-10.31,8.85-16.98,22.56-16.98c12.92,0,26.88,3.98,40.36,11.52 c1.79,1,3.8,1.52,5.82,1.52c3.94,0,7.6-1.97,9.77-5.26l14.08-21.32c-18.78-14.98-41.28-22.27-68.73-22.27 c-19.93,0-36.69,5.68-48.48,16.43c-11.34,10.34-17.33,24.64-17.33,41.36v0.56c0,37.81,29.45,48.09,65.03,56.8 c26.02,6.46,33.96,11.83,33.96,22.97v0.55c0,11.15-9.4,17.81-25.15,17.81c-17.32,0-33.98-5.14-49.53-15.27 c-1.88-1.23-4.05-1.88-6.29-1.88c-3.63,0-7,1.65-9.25,4.54L114,215.95c20.56,18.24,48.54,28.27,78.98,28.27 c42.51,0,68.92-22.57,68.92-58.9V184.75z"/>
</g>
</svg>
