<svg
	xmlns="http://www.w3.org/2000/svg"
	xmlns:xlink="http://www.w3.org/1999/xlink"
	viewBox="0 0 1000 600">
<g>
	<path opacity="1" fill="#996d28" fill-opacity="1"
		d="M962.45 4.01C945.08 12.51 932.67 33.84 929.07 53.26C925.85 67.16 928.25 77.7 936.49 85.39C944.95 93.3 952.9 94.03 965.24 87.99C982.61 79.49 995.02 58.16 998.63 38.75C1001.84 24.85 999.44 14.31 991.2 6.61C986.97 2.65 982.86 0.49 978.28 0.07C973.69 -0.34 968.62 1 962.45 4.01ZM231.56 19.6C207.51 31.46 186.52 46.93 161.97 70.9C111.8 119.89 86.37 170.75 86.61 221.63C86.72 245.12 89.81 258.35 99.94 278.74C108.71 296.37 120.6 311.43 156.81 350.77C191.64 388.61 196.01 394.54 200.04 409.44C205.87 430.95 200.96 446.69 182.99 464.24C162.51 484.23 134.13 496.61 105.56 498.01C88.84 498.82 87.19 498.57 77.57 493.58C64.6 486.85 58.79 476.87 58.8 461.33C58.81 447.95 63.15 440.68 76.08 432.36C96.41 419.28 102.12 407.56 95.25 393.07C91.26 384.68 83.61 380.71 71.4 380.71C49.16 380.71 19.89 403.3 6.9 430.5C0.09 444.78 -0.14 445.87 0.04 464.89C0.24 487.45 3.47 498.06 14.81 513.52C26.25 529.09 49.85 543.79 71.73 548.98C83.18 551.69 117.86 551.14 133.03 548.01C178.94 538.53 220.43 511.92 243.78 477.01C265.59 444.4 268.05 415.39 251.74 383.08C243.99 367.73 232.92 353.61 203.59 321.66C156.48 270.34 147.15 256.32 143.08 230.72C138.82 203.98 149.05 169.91 171.07 137.5C195.98 100.84 250.12 60.54 278.39 57.62C292.06 56.21 296.38 60.27 296.38 74.57C296.38 102.72 257.27 150.1 206.25 183.75C173.57 205.31 166.93 216.1 177.12 231.07C192.26 253.31 213.43 249.36 254.22 216.68C295.05 183.98 329.84 138.3 343.67 99.24C362.04 47.4 341.34 7.26 294.35 3.6C292.08 3.42 289.78 3.34 287.47 3.36C271.26 3.52 253.79 8.65 231.56 19.6ZM890.6 194.75C877.53 223.92 866.3 253.82 859.3 278.12C851.69 304.53 842.6 355.14 841.31 378.32C841.24 379.59 840.88 385.97 840.23 397.45C844.75 401.97 847.26 404.48 847.76 404.98C854.54 411.76 856.24 412.51 864.63 412.51C871.25 412.51 875.39 411.38 878.92 408.61C886.84 402.38 889.03 395.98 894.11 364.51C903.77 304.66 915.42 263.51 939.67 203.63C945.98 188.03 951.15 173.04 951.15 170.32C951.15 158.55 940.9 148.74 928.62 148.74C915.19 148.74 906.52 159.22 890.6 194.75ZM804.99 167.17C776.88 177.86 757.03 182.52 731.98 184.29C708.29 185.97 702.39 188.23 697.57 197.55C688.08 215.89 704.5 236.73 728.34 236.62C734.4 236.6 750.29 233.71 764.75 230.02C769.8 228.73 769.41 229.57 757.79 244.8C712.52 304.14 668.65 384.68 668.67 408.42C668.68 418.08 674.72 427.01 684.13 431.28C693.79 435.66 698.51 435.82 707.54 432.06C711.36 430.46 721.39 424.53 729.8 418.87C738.21 413.22 752.09 405.98 760.66 402.77C774.35 397.63 778.85 396.89 798.01 396.48C822.18 395.98 826.59 394.36 833.25 383.57C840.28 372.2 836.55 355.43 825.33 348.08C812.9 339.94 785.53 340.98 758.3 350.61C757.32 350.96 752.44 352.69 743.65 355.8C747.73 348.4 750 344.28 750.45 343.46C770 308.06 795.46 273.82 837.18 226.76C847.4 215.23 857.55 202.15 859.73 197.71C866.33 184.23 862.24 170.32 849.43 162.68C846.08 160.68 842.12 159.62 837.32 159.53C829.31 159.37 818.94 161.87 804.99 167.17ZM656.62 207.13C652.98 207.43 649.11 208.46 645.13 210.27C636.39 214.24 616.77 231.99 601.49 249.75C600.79 250.56 597.3 254.62 591.03 261.91C591.03 255.53 591.03 251.98 591.03 251.27C591.03 242.08 590.3 239.87 585.58 234.94C568.32 216.93 550.55 227.15 535.03 264.03C524.51 289.01 500.94 361.04 492.57 393.7C481.13 438.4 482.22 453.58 497.57 463.07C502.6 466.17 506.11 466.97 511.5 466.25C526.08 464.3 532.96 455.45 544.32 424C548.74 411.77 555.4 395.15 559.13 387.09C566.92 370.22 578.91 348.32 579.84 349.25C580.19 349.6 579.19 358.3 577.63 368.57C572.86 399.79 576.49 430.5 587.7 453.67C595.91 470.62 613.63 485.89 626.57 487.14C627.6 487.23 631.53 486.46 635.3 485.41C645.1 482.69 653.7 472.32 653.7 463.21C653.7 457.57 651.74 453.41 644.46 443.54C630.33 424.4 628.42 417.79 628.64 389.13C628.77 370.47 629.76 361.34 632.86 349.92C638.95 327.56 651.71 297.54 666.57 270.72C680.91 244.83 683.81 234.51 679.99 222.92C676.78 213.21 669.63 207.69 660.59 207.08C659.3 206.99 657.98 207.01 656.62 207.13ZM315.48 308.44C303.02 327.63 291.55 351.81 286.01 370.57C277.27 400.2 277.68 437.33 286.98 458.58C293.38 473.21 308.44 486.32 324.45 491.2C332.41 493.64 351.21 493.09 362.71 490.1C362.71 490.09 362.71 490.08 362.71 490.08C396.7 481.23 439.55 445.53 469.98 400.74C485.26 378.24 490.21 368.93 492.65 358.07C495.83 343.94 487.62 332.07 474.69 332.07C466.41 332.07 457.84 339.97 446.8 357.83C424.73 393.51 399.65 420.57 379.47 430.44C364.56 437.74 347.71 438.14 340.49 431.36C337.84 428.87 335.68 425.5 335.7 423.88C335.72 422.23 342.68 416.57 351.46 411.06C380.68 392.72 405.16 366.6 420.94 336.94C443.75 294.06 446.39 260.29 428.17 244.29C421.42 238.37 413.52 235.55 404.83 235.61C378.77 235.79 345.66 261.95 315.48 308.44ZM390.73 295.77C390.96 295.75 391.12 295.78 391.18 295.94C392.58 299.59 383.72 319.35 374.48 333.17C364.92 347.48 343.15 370.03 343.15 365.63C343.15 364.09 347.79 353.4 353.45 341.88C361.77 324.97 366.31 318.31 377.03 307.32C383.55 300.63 389.12 295.97 390.73 295.75C390.73 295.75 390.73 295.77 390.73 295.77Z"/>
	<text x="489.142" y="600"
		style="font-style:normal;font-variant:normal;font-weight:normal;font-stretch:normal;font-size:107px;font-family:'Arial Nova';fill:#996d28;fill-opacity:1">
		<tspan>TELEVÍZIA</tspan>
	</text>
</g>
</svg>
