<?xml version="1.0" encoding="UTF-8" standalone="no"?>
<svg
   xmlns:dc="http://purl.org/dc/elements/1.1/"
   xmlns:cc="http://creativecommons.org/ns#"
   xmlns:rdf="http://www.w3.org/1999/02/22-rdf-syntax-ns#"
   xmlns:svg="http://www.w3.org/2000/svg"
   xmlns="http://www.w3.org/2000/svg"
   xmlns:xlink="http://www.w3.org/1999/xlink"
   xmlns:sodipodi="http://sodipodi.sourceforge.net/DTD/sodipodi-0.dtd"
   xmlns:inkscape="http://www.inkscape.org/namespaces/inkscape"
   width="132"
   height="99"
   id="svg2"
   version="1.1"
   inkscape:version="1.0.2 (e86c870879, 2021-01-15, custom)"
   sodipodi:docname="Sky_News.svg">
  <defs
     id="defs4">
    <linearGradient
       id="linearGradient3117"
       gradientUnits="userSpaceOnUse"
       x1="-8599.1621"
       y1="-4719.377"
       x2="-8599.1621"
       y2="-4553.606"
       gradientTransform="rotate(180,-4107.903,-2290.35)">
      <stop
         offset="0"
         stop-color="#a80002"
         id="stop3119"
         style="stop-color:#0080db;stop-opacity:1" />
      <stop
         offset="1"
         stop-color="#ea021a"
         id="stop3121"
         style="stop-color:#0080d9;stop-opacity:1" />
    </linearGradient>
    <linearGradient
       y2="-27.096001"
       x2="99.850998"
       y1="138.674"
       x1="99.850998"
       gradientUnits="userSpaceOnUse"
       id="b-7">
      <stop
         id="stop4013"
         stop-color="#00043b"
         offset="0" />
      <stop
         id="stop4015"
         stop-color="#002672"
         offset="1" />
    </linearGradient>
    <linearGradient
       gradientTransform="rotate(180,-4107.903,-2290.35)"
       y2="-4553.606"
       x2="-8599.1621"
       y1="-4719.377"
       x1="-8599.1621"
       gradientUnits="userSpaceOnUse"
       id="a-1">
      <stop
         id="stop4006"
         stop-color="#a80002"
         offset="0" />
      <stop
         id="stop4008"
         stop-color="#ea021a"
         offset="1" />
    </linearGradient>
    <linearGradient
       y2="-27.096001"
       x2="99.850998"
       y1="138.674"
       x1="99.850998"
       gradientUnits="userSpaceOnUse"
       id="b">
      <stop
         id="stop3502"
         stop-color="#00043b"
         offset="0" />
      <stop
         id="stop3504"
         stop-color="#002672"
         offset="1" />
    </linearGradient>
    <linearGradient
       gradientTransform="rotate(180,-4107.903,-2290.35)"
       y2="-4553.606"
       x2="-8599.1621"
       y1="-4719.377"
       x1="-8599.1621"
       gradientUnits="userSpaceOnUse"
       id="a">
      <stop
         id="stop3495"
         stop-color="#a80002"
         offset="0" />
      <stop
         id="stop3497"
         stop-color="#ea021a"
         offset="1" />
    </linearGradient>
    <linearGradient
       y2="-27.096001"
       x2="99.850998"
       y1="138.674"
       x1="99.850998"
       gradientUnits="userSpaceOnUse"
       id="b-0">
      <stop
         id="stop4348"
         stop-color="#00043b"
         offset="0" />
      <stop
         id="stop4350"
         stop-color="#002672"
         offset="1" />
    </linearGradient>
    <linearGradient
       gradientTransform="rotate(180,-4107.903,-2290.35)"
       y2="-4553.606"
       x2="-8599.1621"
       y1="-4719.377"
       x1="-8599.1621"
       gradientUnits="userSpaceOnUse"
       id="a-4">
      <stop
         id="stop4341"
         stop-color="#a80002"
         offset="0" />
      <stop
         id="stop4343"
         stop-color="#ea021a"
         offset="1" />
    </linearGradient>
    <linearGradient
       y2="-27.096001"
       x2="99.850998"
       y1="138.674"
       x1="99.850998"
       gradientUnits="userSpaceOnUse"
       id="b-7-1">
      <stop
         id="stop4013-7"
         stop-color="#00043b"
         offset="0" />
      <stop
         id="stop4015-1"
         stop-color="#002672"
         offset="1" />
    </linearGradient>
    <linearGradient
       gradientTransform="rotate(180,-4107.903,-2290.35)"
       y2="-4553.606"
       x2="-8599.1621"
       y1="-4719.377"
       x1="-8599.1621"
       gradientUnits="userSpaceOnUse"
       id="a-1-4">
      <stop
         id="stop4006-5"
         stop-color="#a80002"
         offset="0" />
      <stop
         id="stop4008-5"
         stop-color="#ea021a"
         offset="1" />
    </linearGradient>
    <linearGradient
       y2="-27.096001"
       x2="99.850998"
       y1="138.674"
       x1="99.850998"
       gradientUnits="userSpaceOnUse"
       id="b-8">
      <stop
         id="stop3502-8"
         stop-color="#00043b"
         offset="0" />
      <stop
         id="stop3504-2"
         stop-color="#002672"
         offset="1" />
    </linearGradient>
    <linearGradient
       gradientTransform="rotate(180,-4107.903,-2290.35)"
       y2="-4553.606"
       x2="-8599.1621"
       y1="-4719.377"
       x1="-8599.1621"
       gradientUnits="userSpaceOnUse"
       id="a-40">
      <stop
         id="stop3495-9"
         stop-color="#a80002"
         offset="0" />
      <stop
         id="stop3497-4"
         stop-color="#ea021a"
         offset="1" />
    </linearGradient>
    <linearGradient
       inkscape:collect="always"
       xlink:href="#a-1"
       id="linearGradient3249"
       gradientUnits="userSpaceOnUse"
       gradientTransform="rotate(180,-4107.903,-2290.35)"
       x1="-8599.1621"
       y1="-4719.377"
       x2="-8599.1621"
       y2="-4553.606" />
    <linearGradient
       inkscape:collect="always"
       xlink:href="#b-7"
       id="linearGradient3251"
       gradientUnits="userSpaceOnUse"
       x1="99.850998"
       y1="138.674"
       x2="99.850998"
       y2="-27.096001" />
    <linearGradient
       gradientTransform="rotate(180,-4107.903,-2290.35)"
       y2="-4553.606"
       x2="-8599.1621"
       y1="-4719.377"
       x1="-8599.1621"
       gradientUnits="userSpaceOnUse"
       id="linearGradient4051">
      <stop
         id="stop4053"
         stop-color="#a80002"
         offset="0" />
      <stop
         id="stop4055"
         stop-color="#ea021a"
         offset="1" />
    </linearGradient>
    <linearGradient
       y2="-27.096001"
       x2="99.850998"
       y1="138.674"
       x1="99.850998"
       gradientUnits="userSpaceOnUse"
       id="linearGradient4058">
      <stop
         id="stop4060"
         stop-color="#00043b"
         offset="0" />
      <stop
         id="stop4062"
         stop-color="#002672"
         offset="1" />
    </linearGradient>
    <linearGradient
       id="a-9"
       gradientUnits="userSpaceOnUse"
       x1="-8599.1621"
       y1="-4719.377"
       x2="-8599.1621"
       y2="-4553.606"
       gradientTransform="rotate(180,-4107.903,-2290.35)">
      <stop
         offset="0"
         stop-color="#a80002"
         id="stop5442" />
      <stop
         offset="1"
         stop-color="#ea021a"
         id="stop5444" />
    </linearGradient>
    <linearGradient
       id="b-4"
       gradientUnits="userSpaceOnUse"
       x1="99.850998"
       y1="138.674"
       x2="99.850998"
       y2="-27.096001">
      <stop
         offset="0"
         stop-color="#00043b"
         id="stop5449" />
      <stop
         offset="1"
         stop-color="#002672"
         id="stop5451" />
    </linearGradient>
    <linearGradient
       y2="-27.096001"
       x2="99.850998"
       y1="138.674"
       x1="99.850998"
       gradientUnits="userSpaceOnUse"
       id="b-9">
      <stop
         id="stop3502-4"
         stop-color="#00043b"
         offset="0" />
      <stop
         id="stop3504-8"
         stop-color="#002672"
         offset="1" />
    </linearGradient>
    <linearGradient
       gradientTransform="rotate(180,-4107.903,-2290.35)"
       y2="-4553.606"
       x2="-8599.1621"
       y1="-4719.377"
       x1="-8599.1621"
       gradientUnits="userSpaceOnUse"
       id="a-17">
      <stop
         id="stop3495-4"
         stop-color="#a80002"
         offset="0" />
      <stop
         id="stop3497-0"
         stop-color="#ea021a"
         offset="1" />
    </linearGradient>
    <linearGradient
       y2="-27.096001"
       x2="99.850998"
       y1="138.674"
       x1="99.850998"
       gradientUnits="userSpaceOnUse"
       id="b-7-14">
      <stop
         id="stop4013-2"
         stop-color="#00043b"
         offset="0" />
      <stop
         id="stop4015-3"
         stop-color="#002672"
         offset="1" />
    </linearGradient>
    <linearGradient
       gradientTransform="rotate(180,-4107.903,-2290.35)"
       y2="-4553.606"
       x2="-8599.1621"
       y1="-4719.377"
       x1="-8599.1621"
       gradientUnits="userSpaceOnUse"
       id="a-1-2">
      <stop
         id="stop4006-7"
         stop-color="#a80002"
         offset="0" />
      <stop
         id="stop4008-6"
         stop-color="#ea021a"
         offset="1" />
    </linearGradient>
    <linearGradient
       y2="-27.096001"
       x2="99.850998"
       y1="138.674"
       x1="99.850998"
       gradientUnits="userSpaceOnUse"
       id="b-71">
      <stop
         id="stop3502-1"
         stop-color="#00043b"
         offset="0" />
      <stop
         id="stop3504-5"
         stop-color="#002672"
         offset="1" />
    </linearGradient>
    <linearGradient
       gradientTransform="rotate(180,-4107.903,-2290.35)"
       y2="-4553.606"
       x2="-8599.1621"
       y1="-4719.377"
       x1="-8599.1621"
       gradientUnits="userSpaceOnUse"
       id="a-45">
      <stop
         id="stop3495-5"
         stop-color="#a80002"
         offset="0" />
      <stop
         id="stop3497-1"
         stop-color="#ea021a"
         offset="1" />
    </linearGradient>
  </defs>
  <sodipodi:namedview
     id="base"
     pagecolor="#ffffff"
     bordercolor="#666666"
     borderopacity="1.0"
     inkscape:pageopacity="0.0"
     inkscape:pageshadow="2"
     inkscape:zoom="2.295335"
     inkscape:cx="238.5782"
     inkscape:cy="63.05772"
     inkscape:document-units="px"
     inkscape:current-layer="layer1"
     showgrid="false"
     fit-margin-left="0"
     fit-margin-bottom="0"
     fit-margin-top="0"
     fit-margin-right="0"
     inkscape:window-width="1920"
     inkscape:window-height="1001"
     inkscape:window-x="-9"
     inkscape:window-y="-9"
     inkscape:window-maximized="1"
     inkscape:document-rotation="0">
    <inkscape:grid
       type="xygrid"
       id="grid2996"
       empspacing="5"
       visible="true"
       enabled="true"
       snapvisiblegridlinesonly="true"
       originx="-499.88498"
       originy="1574"
       spacingx="1"
       spacingy="1" />
  </sodipodi:namedview>
  <metadata
     id="metadata7">
    <rdf:RDF>
      <cc:Work
         rdf:about="">
        <dc:format>image/svg+xml</dc:format>
        <dc:type
           rdf:resource="http://purl.org/dc/dcmitype/StillImage" />
        <dc:title></dc:title>
      </cc:Work>
    </rdf:RDF>
  </metadata>
  <g
     inkscape:label="Layer 1"
     inkscape:groupmode="layer"
     id="layer1"
     transform="translate(-499.88498,-2390.4639)">
    <path
       id="path4017"
       d="m 552.56416,2454.5903 h -46.72909 c -1.07255,0 -1.95009,-0.9016 -1.95009,-1.9033 v -25.4448 c 0,-1.0017 0.85317,-1.9033 1.92572,-1.9033 h 46.75346 z"
       inkscape:connector-curvature="0"
       style="fill:#a9a9a9;fill-opacity:0.94902;stroke:none;stroke-width:0.124109" />
    <path
       sodipodi:nodetypes="cssssccc"
       style="fill:#ffffff;stroke:none;stroke-width:0.124109"
       inkscape:connector-curvature="0"
       d="m 552.88112,2453.8891 h -46.80228 c -1.00675,0 -1.46257,-0.5009 -1.46257,-1.5027 v -24.8436 c 0,-1.0018 0.45541,-1.5027 1.46257,-1.5027 h 46.80228 l 9.50671,14.6257 z"
       id="path3269" />
    <path
       id="path4010"
       d="m 621.64371,2430.6482 6.24127,6.812 v 15.2268 c 0,1.1019 -0.87883,1.9033 -1.92999,1.9033 h -73.39083 v -14.0246 l 7.51943,-7.8138 z"
       inkscape:connector-curvature="0"
       style="fill:#ab0000;fill-opacity:1;stroke:none;stroke-width:0.124109"
       sodipodi:nodetypes="cccccccc" />
    <path
       style="fill:#000000;fill-opacity:1;stroke-width:0.124109"
       d="m 536.79279,2451.3847 c 0.31689,0.1001 0.95067,0.3005 1.77946,0.3005 1.38944,0.1002 2.1451,-0.5009 2.70575,-1.703 l 7.45911,-16.6292 c -0.31689,-0.2004 -0.99943,-0.4007 -1.5357,-0.4007 -0.95067,0 -2.24261,0.2003 -3.0714,2.1037 l -2.41323,5.71 -4.75335,-7.6134 c -0.3169,-0.1001 -1.04818,-0.3005 -1.60883,-0.3005 -1.65758,0 -2.60825,0.7012 -3.5833,1.703 l -4.58272,5.0088 3.70518,5.8102 c 0.68253,1.1019 1.58445,1.703 3.04702,1.703 0.95067,0 1.75508,-0.3005 2.12073,-0.4007 l -4.46084,-6.812 3.1689,-3.3058 5.19212,8.1143 z"
       id="path3228"
       inkscape:connector-curvature="0" />
    <path
       style="fill:#000000;fill-opacity:1;stroke-width:0.124109"
       d="m 527.01795,2445.0736 c 0,1.2021 -0.48752,1.9033 -2.87639,1.9033 -0.31689,0 -0.58503,0 -0.85316,-0.1002 v -16.2285 c 0,-1.2021 0.41439,-2.5044 2.82763,-2.5044 0.29252,0 0.60941,0 0.90192,0.1002 z"
       id="path3226"
       inkscape:connector-curvature="0" />
    <path
       style="fill:#000000;fill-opacity:1;stroke-width:0.124109"
       d="m 522.06959,2442.5692 c 0,2.304 -1.48694,4.007 -4.53396,4.3075 -2.19386,0.3006 -5.38713,0 -6.89845,-0.2003 -0.0488,-0.2004 -0.0975,-0.5009 -0.0975,-0.8014 0,-2.0035 1.07255,-2.4042 2.09635,-2.4042 1.04817,0 2.70575,0.1001 3.94894,0.1001 1.36506,0 1.75508,-0.4007 1.75508,-0.9015 0,-0.6011 -0.53628,-0.8015 -1.60883,-1.0018 l -2.85201,-0.5009 c -2.38886,-0.5009 -3.65642,-2.1037 -3.65642,-3.9069 0,-2.1036 1.51132,-3.9068 4.48521,-4.3075 2.24261,-0.2004 4.99712,0.1002 6.48406,0.3005 0.0488,0.2004 0.0731,0.5009 0.0731,0.7012 0,2.0036 -1.04818,2.5044 -2.07197,2.5044 -0.78004,0 -1.97447,-0.2003 -3.36391,-0.2003 -1.41382,0 -1.97447,0.4007 -1.97447,0.9016 0,0.4007 0.56065,0.7012 1.43819,0.8014 l 2.75451,0.5009 c 2.82763,0.601 4.02206,2.2038 4.02206,4.1072"
       id="path3224"
       inkscape:connector-curvature="0" />
    <path
       id="path4021"
       d="m 505.83507,2425.3389 h 46.72909 v 15.2268 l -45.87592,1.5026 c -1.56008,0 -2.80326,1.3023 -2.80326,2.9051 v -17.7312 c 0,-1.1019 0.87754,-1.9033 1.95009,-1.9033 z"
       inkscape:connector-curvature="0"
       style="opacity:0.2;fill:#ffffff;fill-opacity:1;stroke-width:0.124109"
       sodipodi:nodetypes="sccccss" />
    <path
       sodipodi:nodetypes="cccccc"
       style="fill:#cb0000;fill-opacity:1;stroke-width:0.124109"
       inkscape:connector-curvature="0"
       d="m 552.56416,2425.3389 h 73.36745 c 1.16907,0 1.95139,0.9016 1.95139,1.9033 v 10.218 l -75.31785,3.1055 z"
       id="path3114" />
    <g
       transform="matrix(0.24366818,0,0,0.2440971,618.23686,2431.3495)"
       id="layer1-5"
       inkscape:label="Layer 1"
       style="fill:#ffffff">
      <g
         transform="matrix(1.0825748,0,0,1.0825748,-994.27241,-31.446776)"
         id="g4334"
         style="fill:#ffffff">
        <path
           id="path4336"
           d="m 799.89167,65.263486 h -39.92052 c 1.39373,9.756137 8.1633,15.530177 18.4172,15.530177 4.28075,0 7.76508,-1.095077 11.05031,-2.190153 2.19016,-0.79642 3.38479,-1.095077 4.18121,-1.095077 2.2897,0 3.88254,2.190153 3.38478,6.769564 -4.47986,2.090601 -11.64763,4.280754 -19.01451,4.280754 -15.92839,0 -27.07826,-11.050318 -27.07826,-27.177809 C 750.91188,46.04987 761.9622,34.9 776.49685,34.9 c 15.92839,0 23.79303,12.444052 23.79303,24.888103 0,1.692391 -0.0996,3.583887 -0.39821,5.475383 M 759.8716,58.095712 h 31.65766 c -0.29865,-8.760612 -5.97314,-15.530176 -15.03241,-15.530176 -8.1633,0 -15.33107,5.37583 -16.62525,15.530176"
           inkscape:connector-curvature="0"
           sodipodi:nodetypes="ccscscsssscccsc"
           style="fill:#ffffff" />
      </g>
    </g>
    <g
       id="g5435"
       transform="matrix(0.2642804,0,0,0.26474561,387.16259,2221.5809)"
       style="fill:#ffffff">
      <path
         style="fill:#ffffff"
         inkscape:connector-curvature="0"
         d="m 652.40579,850.49163 v -51.14248 c 0.9,-0.2 2.6,-0.4 4.2,-0.4 3.4,0 4.4,1.4 4.4,3.5 v 3.8 c 4,-4.4 9.8,-7.9 17.5,-7.9 10.6,0 19.4,6.7 19.4,22.1 v 27.24248 c 0,2.1 -1.2,3.4 -4.8,3.4 -1.5,0 -3.2,-0.2 -4.1,-0.4 v -29.14248 c 0,-10.4 -5.1,-15.4 -12.8,-15.4 -6.1,0 -12.4,4.1 -15.1,9 v 32.44248 c 0,2.1 -1.1,3.4 -4.7,3.4 -1.4,-0.1 -3.2,-0.3 -4,-0.5"
         id="path5437"
         sodipodi:nodetypes="ccsscsssscsscscc" />
    </g>
    <path
       style="fill:#ffffff;stroke:none;stroke-width:0.124109"
       d="m 592.20274,2446.6764 -3.87242,-13.3234 c 0,0 0.57824,-0.3005 1.42233,-0.3005 0.82833,0 1.0047,0.4007 1.17481,0.9015 l 2.74704,10.4183 3.44752,-11.0193 c 0,0 0.61282,-0.3005 1.41597,-0.3005 0.90083,0 1.36141,0.3005 1.60691,1.2021 l 3.12348,10.1177 2.67543,-10.4183 c 0.13465,-0.5008 0.42629,-0.9015 1.12027,-0.9015 0.83784,0 1.43773,0.3005 1.43773,0.3005 l -3.6322,12.522 c -0.30776,0.7012 -0.58756,1.0017 -1.60007,1.0017 -0.72601,0 -1.33647,-0.2003 -1.33647,-0.2003 l -3.47514,-11.0194 -3.25615,10.218 c -0.24231,0.601 -0.50086,1.0017 -1.63399,1.0017 -0.81086,0 -1.36505,-0.2003 -1.36505,-0.2003 z"
       id="path3110"
       inkscape:connector-curvature="0"
       sodipodi:nodetypes="ccccccccccccccccccc" />
    <path
       style="fill:#ffffff;stroke:none;stroke-width:0.124109"
       d="m 610.25708,2445.6746 c 0,0.4007 0.0716,0.5009 0.0716,0.5009 0,0 2.26068,0.9016 5.20088,0.9016 3.54658,0 5.62159,-1.6028 5.62159,-4.007 0,-5.0088 -8.66353,-3.5062 -8.66353,-6.4113 0,-1.1019 1.04777,-1.8032 3.04511,-1.8032 2.09726,0 3.10422,0.6011 4.11107,0.6011 0.87356,0 0.89197,-1.2021 0.79332,-1.703 0,0 -2.1003,-0.9016 -4.93621,-0.9016 -3.29132,0 -5.23962,1.6028 -5.23962,3.9069 0,4.9086 8.60839,3.3058 8.60839,6.3111 0,1.1019 -0.87999,2.1037 -3.30296,2.1037 -2.25059,0 -3.78388,-0.8015 -4.42344,-0.8015 -0.70739,0 -0.8862,0.6011 -0.8862,1.3023 z"
       id="path3112"
       inkscape:connector-curvature="0"
       sodipodi:nodetypes="cccccccccccccc" />
  </g>
</svg>
