<?xml version="1.0" encoding="UTF-8" standalone="no"?>
<svg
   xmlns:dc="http://purl.org/dc/elements/1.1/"
   xmlns:cc="http://creativecommons.org/ns#"
   xmlns:rdf="http://www.w3.org/1999/02/22-rdf-syntax-ns#"
   xmlns:svg="http://www.w3.org/2000/svg"
   xmlns="http://www.w3.org/2000/svg"
   xmlns:sodipodi="http://sodipodi.sourceforge.net/DTD/sodipodi-0.dtd"
   xmlns:inkscape="http://www.inkscape.org/namespaces/inkscape"
   version="1.1"
   id="Слой_1"
   x="0px"
   y="0px"
   viewBox="0 0 132 99.000002"
   xml:space="preserve"
   sodipodi:docname="Sláger_TV_Hungary.svg"
   width="132"
   height="99"
   inkscape:version="1.0.2 (e86c870879, 2021-01-15, custom)"><metadata
   id="metadata15"><rdf:RDF><cc:Work
       rdf:about=""><dc:format>image/svg+xml</dc:format><dc:type
         rdf:resource="http://purl.org/dc/dcmitype/StillImage" /><dc:title></dc:title></cc:Work></rdf:RDF></metadata><defs
   id="defs13" /><sodipodi:namedview
   pagecolor="#ffffff"
   bordercolor="#666666"
   borderopacity="1"
   objecttolerance="10"
   gridtolerance="10"
   guidetolerance="10"
   inkscape:pageopacity="0"
   inkscape:pageshadow="2"
   inkscape:window-width="1920"
   inkscape:window-height="1001"
   id="namedview11"
   showgrid="false"
   inkscape:zoom="3.21875"
   inkscape:cx="256"
   inkscape:cy="90.599998"
   inkscape:window-x="-9"
   inkscape:window-y="-9"
   inkscape:window-maximized="1"
   inkscape:current-layer="Слой_1" />
<style
   type="text/css"
   id="style2">
	.st0{fill-rule:evenodd;clip-rule:evenodd;fill:#BD0D0D;}
</style>
<g
   transform="matrix(0.32290993,0,0,-0.32290993,4.0002575,47.533661)"
   id="g8">
	<g
   transform="matrix(0.025055,0,0,0.025055,0.56759,16.009)"
   id="g6">
		<path
   class="st0"
   d="m 6933.2,2262.7 c 199.9,18.7 399.7,44.4 599.6,61.9 -122.7,-183.4 -264.1,-354.1 -410.2,-520.1 -111,-122.7 -222.1,-247.8 -351.8,-350.6 -130.9,-22.2 -263,-32.7 -395,-46.7 194.1,248.9 367,516.6 507.3,800.6 12.7,21 18.6,57.2 50.1,54.9 z m 5591.2,-2811.3 1025.1,126.5 c -80.6,-189.4 -153.4,-308.7 -239.9,-495.7 l -126.4,-15.6 c -368.1,-555.1 -788.2,-1213.2 -1155.2,-1769.5 -11.7,-21 -37.4,-18.7 -57.3,-22.2 -306.2,-30.4 -624.9,-84.5 -931.1,-114.9 l 411.1,1692.8 c -52.6,-4.7 -96.3,-12.4 -147.7,-18.2 -51.4,-111 -147.4,-302.8 -197.7,-415 l -557.5,-68.8 c 46.8,113.4 143.4,300.8 191.3,414.2 l -82.8,-10.2 c -157.8,-362.3 -439.1,-890.5 -596.9,-1252.8 46.8,3.5 102.3,14.2 149,17.7 l -237,-492 c -336.6,-38.6 -706.7,-91.3 -1043.3,-127.5 73.6,177.7 156.3,314.9 231.1,491.4 l 149,17.7 c 160.1,362.3 440.3,889.3 596.9,1252.8 l -73.6,-9 -199.4,-418.6 c -190.5,-19.9 -405.5,-50.3 -596,-70.1 136.2,296.8 305.9,601.9 424.1,898.8 931.5,102.9 1891.1,259.1 2822.6,358.5 -94.7,-396.1 -229.1,-845.8 -322.6,-1242 142.6,219.7 340.4,571.2 477.2,794.4 l -149,-17.7 z M 4933.6,2130.6 c 78.3,11.7 156.6,14 233.8,25.7 43.2,10.5 94.7,-5.8 111,-50.2 22.2,-59.6 15.2,-126.2 1.1,-187 -25.7,-108.7 -80.6,-205.7 -127.4,-306.2 C 4772.3,815.7 4390.1,21 4012.6,-777.3 c 208,24.6 417.2,52.6 625.3,78.3 148.5,307.4 293.4,617.1 441.8,924.5 43.2,91.2 82.9,184.7 137.9,270 59.6,97 135.6,183.5 220.9,258.3 44.4,36.2 92.3,70.1 148.4,84.1 715.2,110.6 1445.8,193 2164.5,285.2 -73.6,-157.8 -150.7,-313.2 -225.6,-471 -68.9,-9.3 -137.9,-16.4 -206.9,-25.7 -19.9,-1.1 -24.5,-24.6 -32.7,-37.4 -157.8,-336.6 -320.2,-672 -478,-1008.6 153.2,15.2 306.2,38.6 459.3,56.1 163.7,340.1 325,681.4 487.5,1021.4 84.1,182.4 203.4,355.3 369.3,472.2 32.3,24.5 69.3,37.4 107.9,45.4 184.7,38.3 399.1,54.3 587.5,79.7 445.3,56.1 890.6,111 1334.7,167.2 C 9916,918.6 9674.1,417.1 9436.8,-86.6 c 136.8,17.6 274.6,35.1 412.6,52.6 174.2,360 343.6,722.3 516.6,1083.5 71.3,142.6 169.5,272.3 292.2,375.2 44.4,36.3 94.7,68.9 151.9,80.7 327.3,50.2 655.7,86.5 984.1,129.7 238.4,30.4 475.7,63.1 714.1,85.3 45.6,4.7 83,-33.9 88.8,-78.3 14,-90 -15.2,-181.2 -45.6,-265.3 -79.5,-198.7 -181.2,-388 -272.3,-580.9 -45.6,-94.7 -90,-190.5 -136.7,-285.2 -414.9,-57.3 -829.8,-107.5 -1243.6,-164.8 -28,-63.1 -61.9,-122.7 -85.3,-187 -8.2,-18.7 -2.3,-37.4 0,-56.1 22.2,-4.7 45.6,-8.2 67.8,-4.7 557.5,72.5 1113.8,141.4 1670.2,213.9 162.4,336.6 324.9,674.4 485,1012.1 -133.2,-12.9 -265.3,-33.9 -397.4,-47.9 77.1,165.9 158.9,329.6 236.1,494.4 443,62 888.2,114.5 1331.2,173 -26.9,-66.6 -61.9,-130.9 -88.8,-197.5 65.5,73.6 133.3,148.5 223.2,191.7 66.6,35.1 143.8,36.2 216.2,50.2 185.8,22.2 370.5,51.4 557.5,66.6 43.3,3.5 88.8,18.7 132,4.7 44.5,-16.3 56.1,-68.9 57.3,-111 1.2,-137.9 -64.3,-263 -119.2,-386.9 -77.1,-158.9 -153.1,-321.4 -231.4,-480.4 -306.1,-38.5 -612.4,-81.8 -919.8,-115.7 51.4,113.4 108.7,223.2 162.5,334.2 21.1,50.3 46.7,101.7 44.4,156.6 -69,16.4 -140.3,9.4 -208.1,-5.8 -74.8,-21 -111,-95.8 -144.9,-157.8 -113.4,-226.7 -218.6,-458.2 -329.6,-687.2 -19.9,-45.6 -43.3,-91.2 -50.3,-140.2 3.5,-31.5 39.7,-24.6 62,-23.4 141.4,16.4 281.7,33.9 423.1,51.4 C 13915.5,330.7 13837.2,168.2 13760,4.5 12251.6,-187.3 10689.7,-343.3 9192.7,-578.7 9082.9,-804.2 8973,-1031 8866.6,-1258.9 c -62,-123.9 -112.2,-254.8 -192.9,-369.3 -54.9,-80.6 -119.2,-153.1 -192.8,-216.2 -50.2,-43.2 -107.5,-81.8 -174.1,-91.1 -548.2,-70.1 -1096.3,-140.2 -1643.3,-210.4 -35.1,-3.5 -76,-9.4 -104,17.6 -31.5,32.7 -32.7,83 -30.4,126.2 10.5,126.3 63.1,243.1 118,355.3 59.6,133.3 125.1,265.3 189.4,396.2 307.4,43.3 614.8,79.5 922.1,119.2 -56.1,-134.4 -139.1,-259.4 -173,-403.2 12.9,-5.8 24.5,-17.6 39.8,-17.6 57.3,-3.5 114.5,7 170.6,17.6 29.2,4.7 53.8,23.4 72.5,45.6 61.9,72.5 99.3,161.3 140.2,245.4 86.5,184.7 176.5,367 261.8,551.7 -503.7,-63.1 -1006.3,-133.2 -1510,-195.2 -2192.6,-279.4 -4385,-559.9 -6577.6,-839.3 -63.1,-4.6 -140.3,-4.7 -183.5,50.3 -38.6,58.5 -17.5,133.2 -4.7,196.3 60.8,233.8 182.3,446.5 278.2,666.2 12.8,22.2 17.5,59.6 50.2,58.4 339,42.2 678,87.7 1016.9,127.5 -38.6,-75.9 -80.6,-149.6 -111,-229.1 -14,-37.4 -26.9,-79.5 -12.8,-118.1 17.5,-33.9 62,-26.9 93.5,-22.2 69,11.7 148.4,15.2 197.5,72.5 87.7,95.8 141.4,216.2 187,335.4 8.2,30.4 31.6,69 5.9,97 -42.1,38.6 -99.3,46.7 -151.9,57.3 -128.6,21 -253.6,56.1 -382.2,78.3 -112.2,26.9 -225.6,51.4 -337.8,81.8 -65.4,30.4 -126.2,85.3 -150.8,155.5 -18.7,100.5 22.2,199.9 59.6,291 148.4,323.8 298,645.2 447.7,966.5 84.2,175.3 195.2,339 334.3,473.3 60.8,55 129.7,111.1 213.9,122.7 91.1,12.9 183.5,21 274.7,36.2 52.6,12.9 106.4,17.5 158.9,24.5 444.1,56.1 889.4,113.4 1333.6,169.4 49.1,2.4 99.3,10.5 148.4,8.2 47.9,-3.5 73.6,-52.6 79.5,-95.8 18.7,-129.7 -23.4,-258.3 -73.6,-377.5 -69,-149.6 -134.4,-300.4 -206.9,-447.7 -347.1,-42.1 -693.1,-87.6 -1039,-130.9 42.1,85.3 105.2,168.3 107.5,266.4 3.5,43.3 -47.9,59.6 -83,51.4 -70.1,-12.8 -151.9,-11.7 -205.7,-65.4 -65.4,-64.3 -107.5,-146.1 -147.3,-227.9 -26.9,-57.2 -56.1,-114.5 -67.8,-177.6 -7,-32.7 26.9,-53.8 52.6,-64.3 72.5,-31.5 153.1,-35.1 230.3,-52.6 212.7,-49.1 427.8,-86.5 640.5,-129.7 45.6,-7 84.2,-42.1 98.2,-86.5 28.1,-99.4 10.5,-204.5 -23.4,-300.4 -33.9,-99.3 -83,-190.5 -127.4,-284 -134.4,-278.2 -268.8,-557.5 -403.2,-834.5 51.4,3.5 102.9,14 153.1,29.2 142.6,19.9 286.4,36.2 430.1,54.9 15.2,0 29.2,8.2 33.9,23.4 390.1,818.4 782.8,1635.4 1172,2454.7 -116.9,-12.8 -233.7,-30.4 -350.6,-43.2 77.1,165.9 158.9,329.6 237.2,495.5 259.5,36.2 518.9,66.6 778.4,100.5 z m 6406,-1021.5 c -42,-7 -72.5,-38.6 -97,-70.2 -46.8,-61.9 -78.3,-132 -109.9,-201 107.5,10.5 213.9,26.9 320.2,38.6 29.2,65.5 65.5,129.7 81.8,199.9 7,23.4 -5.8,57.3 -33.9,52.6 -53.7,-4.7 -108.6,-11.7 -161.2,-19.9 z M 8760.2,783 c -76,-18.7 -118.1,-94.7 -154.3,-159 -114.5,-236 -224.4,-475.6 -337.8,-712.9 -19.9,-44.4 -47.9,-88.8 -43.2,-139.1 21,-5.8 43.2,-9.4 65.4,-4.7 72.5,10.5 146.1,16.3 217.4,29.2 11.7,10.5 16.4,25.7 24.6,38.6 151.9,326.1 309.7,648.7 461.7,974.8 -78.4,-8.1 -156.7,-14 -233.8,-26.9 z M 6118.8,445.3 c -77.1,-31.6 -119.2,-109.9 -154.3,-181.2 -118,-241.9 -232.6,-486.2 -345.9,-730.5 -14,-31.5 -29.2,-64.3 -21,-100.5 74.8,-8.2 148.4,14 223.2,18.7 24.5,7 63.1,-1.2 72.5,29.2 156.6,331.9 315.6,662.7 473.3,993.4 -83,-10.4 -166,-12.8 -247.8,-29.1"
   id="path4" />
	</g>
</g>
</svg>
