<?xml version="1.0" encoding="UTF-8" standalone="no"?>
<svg
   xmlns:dc="http://purl.org/dc/elements/1.1/"
   xmlns:cc="http://creativecommons.org/ns#"
   xmlns:rdf="http://www.w3.org/1999/02/22-rdf-syntax-ns#"
   xmlns:svg="http://www.w3.org/2000/svg"
   xmlns="http://www.w3.org/2000/svg"
   xmlns:sodipodi="http://sodipodi.sourceforge.net/DTD/sodipodi-0.dtd"
   xmlns:inkscape="http://www.inkscape.org/namespaces/inkscape"
   id="Слой_1"
   data-name="Слой 1"
   viewBox="0 0 132 98.999998"
   version="1.1"
   sodipodi:docname="Sorozat+.svg"
   width="132"
   height="99"
   inkscape:version="1.0.2 (e86c870879, 2021-01-15, custom)">
  <metadata
     id="metadata100">
    <rdf:RDF>
      <cc:Work
         rdf:about="">
        <dc:format>image/svg+xml</dc:format>
        <dc:type
           rdf:resource="http://purl.org/dc/dcmitype/StillImage" />
        <dc:title></dc:title>
      </cc:Work>
    </rdf:RDF>
  </metadata>
  <sodipodi:namedview
     pagecolor="#ffffff"
     bordercolor="#666666"
     borderopacity="1"
     objecttolerance="10"
     gridtolerance="10"
     guidetolerance="10"
     inkscape:pageopacity="0"
     inkscape:pageshadow="2"
     inkscape:window-width="1920"
     inkscape:window-height="1001"
     id="namedview98"
     showgrid="false"
     inkscape:zoom="3.21875"
     inkscape:cx="256"
     inkscape:cy="46.380001"
     inkscape:window-x="-9"
     inkscape:window-y="-9"
     inkscape:window-maximized="1"
     inkscape:current-layer="Слой_1" />
  <defs
     id="defs57">
    <style
       id="style2">.cls-1{clip-path:url(#clip-path);}.cls-2{fill:none;}.cls-3{fill:url(#Безымянный_градиент);}.cls-4{fill:#f80176;}.cls-5{fill:#fff;}.cls-6{mask:url(#mask);}.cls-7{fill:url(#Безымянный_градиент_32);}.cls-8{fill:url(#Безымянный_градиент_3);}.cls-9{fill:url(#Безымянный_градиент_4);}.cls-10{fill:url(#Безымянный_градиент_5);}.cls-11{fill:url(#Безымянный_градиент_6);}</style>
    <clipPath
       id="clip-path">
      <rect
         class="cls-2"
         x="-134249.52"
         y="-134390.42"
         width="268468.06"
         height="268468.06"
         id="rect4" />
    </clipPath>
    <radialGradient
       id="Безымянный_градиент"
       cx="-655.45001"
       cy="608.46002"
       r="4.0999999"
       gradientTransform="matrix(60.17,0,0,60.17,42278.95,-35534.45)"
       gradientUnits="userSpaceOnUse">
      <stop
         offset="0"
         stop-color="#fff"
         stop-opacity="0"
         id="stop7" />
      <stop
         offset="0.17"
         stop-color="#fff"
         stop-opacity="0"
         id="stop9" />
      <stop
         offset="0.62"
         stop-color="#fff"
         stop-opacity="0"
         id="stop11" />
      <stop
         offset="1"
         stop-color="#fff"
         id="stop13" />
    </radialGradient>
    <mask
       id="mask"
       x="-134249.51"
       y="-134390.42"
       width="268468.07"
       height="268468.07"
       maskUnits="userSpaceOnUse">
      <g
         id="g">
        <g
           class="cls-1"
           clip-path="url(#clip-path)"
           id="g18">
          <path
             class="cls-3"
             d="M -134249.51,134077.65 H 134218.56 V -134390.42 H -134249.51 Z"
             id="path16" />
        </g>
      </g>
    </mask>
    <radialGradient
       id="Безымянный_градиент_32"
       cx="-609.89001"
       cy="544.09998"
       r="4.0999999"
       gradientTransform="matrix(11.32,0,0,-11.32,7370.29,6206.21)"
       gradientUnits="userSpaceOnUse">
      <stop
         offset="0"
         stop-color="#fff"
         id="stop22" />
      <stop
         offset="0.17"
         stop-color="#fbfbfb"
         id="stop24" />
      <stop
         offset="0.35"
         stop-color="#eee"
         id="stop26" />
      <stop
         offset="0.53"
         stop-color="#dadada"
         id="stop28" />
      <stop
         offset="0.72"
         stop-color="#bdbdbd"
         id="stop30" />
      <stop
         offset="0.9"
         stop-color="#989898"
         id="stop32" />
      <stop
         offset="1"
         stop-color="#818181"
         id="stop34" />
    </radialGradient>
    <radialGradient
       id="Безымянный_градиент_3"
       cx="-612.21997"
       cy="184.5"
       r="4.0999999"
       gradientTransform="matrix(0.74835946,-0.75078133,-0.45773443,-0.45773443,656.82132,-327.82802)"
       gradientUnits="userSpaceOnUse">
      <stop
         offset="0"
         stop-color="#ffc283"
         id="stop37" />
      <stop
         offset="1"
         stop-color="#ff8200"
         id="stop39" />
    </radialGradient>
    <radialGradient
       id="Безымянный_градиент_4"
       cx="-951.98999"
       cy="443.92001"
       r="4.0999999"
       gradientTransform="matrix(-0.75078133,-0.74835946,-0.45773443,0.45773443,-396.5685,-863.90767)"
       gradientUnits="userSpaceOnUse">
      <stop
         offset="0"
         stop-color="#c3005b"
         id="stop42" />
      <stop
         offset="1"
         stop-color="#f80176"
         id="stop44" />
    </radialGradient>
    <radialGradient
       id="Безымянный_градиент_5"
       cx="-793.40002"
       cy="999.75"
       r="4.0999999"
       gradientTransform="matrix(-0.74835946,0.75078133,0.45773443,0.45773443,-932.61423,189.5136)"
       gradientUnits="userSpaceOnUse">
      <stop
         offset="0"
         stop-color="#da4300"
         id="stop47" />
      <stop
         offset="1"
         stop-color="#ff5700"
         id="stop49" />
    </radialGradient>
    <radialGradient
       id="Безымянный_градиент_6"
       cx="-453.64001"
       cy="740.29999"
       r="4.0999999"
       gradientTransform="matrix(0.75078133,0.74835946,0.45773443,-0.45773443,120.81189,725.58844)"
       gradientUnits="userSpaceOnUse">
      <stop
         offset="0"
         stop-color="#b67699"
         id="stop52" />
      <stop
         offset="1"
         stop-color="#c20176"
         id="stop54" />
    </radialGradient>
  </defs>
  <path
     class="cls-4"
     d="m 14.213047,46.593907 a 11.922892,11.922892 0 0 0 -2.615625,-1.1625 4.6645316,4.6645316 0 0 0 -1.399844,-0.225234 1.9375002,1.9375002 0 0 0 -0.8864057,0.171953 0.59335941,0.59335941 0 0 0 -0.3317969,0.576406 0.66601567,0.66601567 0 0 0 0.191328,0.484375 1.8236721,1.8236721 0 0 0 0.5570316,0.351172 6.9580475,6.9580475 0 0 0 0.886406,0.31 q 0.523125,0.147735 1.184296,0.363281 a 15.793049,15.793049 0 0 1 1.889063,0.712032 5.9214848,5.9214848 0 0 1 1.453125,0.908202 3.5432035,3.5432035 0 0 1 0.917891,1.271484 4.6185159,4.6185159 0 0 1 0.319687,1.816409 4.7928911,4.7928911 0 0 1 -0.511014,2.298359 4.1171878,4.1171878 0 0 1 -1.322345,1.477344 5.5896878,5.5896878 0 0 1 -1.86,0.80164 9.0796103,9.0796103 0 0 1 -2.082813,0.242188 A 11.574142,11.574142 0 0 1 8.892188,56.862658 14.640236,14.640236 0 0 1 7.1484376,56.509065 15.095549,15.095549 0 0 1 5.4846096,55.94719 10.566641,10.566641 0 0 1 4,55.220628 l 1.7946096,-3.647345 a 12.499298,12.499298 0 0 0 1.5596876,0.833125 10.961406,10.961406 0 0 0 1.5500002,0.578829 6.2217973,6.2217973 0 0 0 1.7631246,0.242187 1.8115627,1.8115627 0 0 0 0.949375,-0.179219 0.55945317,0.55945317 0 0 0 0.268828,-0.484375 0.68781256,0.68781256 0 0 0 -0.268828,-0.544922 2.421875,2.421875 0 0 0 -0.726563,-0.394765 C 10.577813,51.510315 10.216953,51.396485 9.8100787,51.282658 9.4032035,51.168828 8.9745318,51.04047 8.5192193,50.875781 A 11.305312,11.305312 0 0 1 6.7875784,50.14922 4.7008598,4.7008598 0 0 1 5.5911721,49.250704 3.1992973,3.1992973 0 0 1 4.8960938,48.107579 4.444141,4.444141 0 0 1 4.6732812,46.632657 a 5.102891,5.102891 0 0 1 0.4577344,-2.220859 4.5797659,4.5797659 0 0 1 1.2496879,-1.603282 5.6090632,5.6090632 0 0 1 1.8067187,-0.96875 6.887813,6.887813 0 0 1 2.1482028,-0.329375 8.1762508,8.1762508 0 0 1 1.622656,0.159844 13.201641,13.201641 0 0 1 1.528203,0.404453 q 0.726563,0.242188 1.378047,0.535235 0.651485,0.293046 1.152813,0.544921 z"
     id="path59"
     style="stroke-width:0.242187" />
  <path
     class="cls-4"
     d="m 21.195314,49.243438 a 5.141641,5.141641 0 0 0 0.213125,1.48461 3.8604691,3.8604691 0 0 0 0.634532,1.271485 3.2501565,3.2501565 0 0 0 1.089843,0.898516 3.6642972,3.6642972 0 0 0 3.109688,0 3.2017188,3.2017188 0 0 0 1.080156,-0.920314 4.0009379,4.0009379 0 0 0 0.62,-1.29328 5.5339849,5.5339849 0 0 0 0.201015,-1.472502 5.1707034,5.1707034 0 0 0 -0.225235,-1.499139 3.6328129,3.6328129 0 0 0 -0.651484,-1.259375 3.223516,3.223516 0 0 0 -2.618046,-1.210938 3.257422,3.257422 0 0 0 -1.547578,0.343906 3.1968753,3.1968753 0 0 0 -1.080156,0.915469 3.8483598,3.8483598 0 0 0 -0.629688,1.283594 5.3281255,5.3281255 0 0 0 -0.203437,1.453125 m 3.441484,7.699142 a 7.3043754,7.3043754 0 0 1 -3.148437,-0.663594 7.7233601,7.7233601 0 0 1 -2.421875,-1.741328 7.8323446,7.8323443 0 0 1 -1.545157,-2.460625 7.5950005,7.5950005 0 0 1 -0.557031,-2.862659 7.5078132,7.5078132 0 0 1 0.576405,-2.886874 7.6797663,7.6797663 0 0 1 1.61297,-2.446094 7.9195321,7.9195317 0 0 1 2.458203,-1.695312 7.5998444,7.5998444 0 0 1 3.109688,-0.629688 7.3116412,7.3116412 0 0 1 3.148436,0.661172 7.7354695,7.7354695 0 0 1 2.421878,1.753438 7.883204,7.883204 0 0 1 1.547577,2.477578 7.7306257,7.7306257 0 0 1 0.544921,2.843281 7.3697661,7.3697661 0 0 1 -0.576406,2.874767 7.76211,7.76211 0 0 1 -1.603282,2.433984 7.8662505,7.8662505 0 0 1 -2.446093,1.695313 7.4860162,7.4860162 0 0 1 -3.107265,0.641797"
     id="path61"
     style="stroke-width:0.242187" />
  <path
     class="cls-4"
     d="m 38.073362,48.516875 h 2.627737 a 0.92273445,0.92273445 0 0 0 0.726562,-0.426249 1.9157033,1.9157033 0 0 0 0.329375,-1.196406 1.7316408,1.7316408 0 0 0 -0.382656,-1.210938 1.085,1.085 0 0 0 -0.770159,-0.416563 h -2.530859 z m -4.168048,8.292502 V 41.63875 h 6.967736 a 4.6306254,4.6306254 0 0 1 2.051328,0.457735 5.357188,5.357188 0 0 1 1.612971,1.196406 5.6332818,5.6332816 0 0 1 1.058358,1.695313 5.105313,5.105313 0 0 1 0.382657,1.913282 5.393516,5.393516 0 0 1 -0.564299,2.460624 5.0181255,5.0181255 0 0 1 -1.603279,1.869689 l 3.206562,5.570314 h -4.71297 l -2.664065,-4.659689 h -1.559688 v 4.666953 z"
     id="path63"
     style="stroke-width:0.242187" />
  <path
     class="cls-4"
     d="m 51.195083,49.243438 a 5.1440631,5.1440631 0 0 0 0.215545,1.48461 3.8556253,3.8556253 0 0 0 0.639377,1.271485 3.257422,3.257422 0 0 0 1.080155,0.898516 3.6642972,3.6642972 0 0 0 3.109689,0 3.1702348,3.1702348 0 0 0 1.077733,-0.920314 3.9525004,3.9525004 0 0 0 0.620001,-1.29328 5.4419535,5.4419535 0 0 0 0.203438,-1.472502 5.2554691,5.2554691 0 0 0 -0.213126,-1.48703 3.6860942,3.6860942 0 0 0 -0.651485,-1.259375 3.3082816,3.3082816 0 0 0 -1.089844,-0.876719 3.3421879,3.3421879 0 0 0 -1.528203,-0.331797 3.274375,3.274375 0 0 0 -1.549999,0.343906 3.1896098,3.1896098 0 0 0 -1.077736,0.900938 3.8532036,3.8532036 0 0 0 -0.632108,1.283594 5.3281255,5.3281255 0 0 0 -0.203437,1.453125 m 3.441484,7.694298 a 7.3116412,7.3116412 0 0 1 -3.148437,-0.663594 7.7500005,7.7500005 0 0 1 -2.421876,-1.741328 7.875938,7.875938 0 0 1 -1.545155,-2.455781 7.6434381,7.6434381 0 0 1 -0.557032,-2.862659 7.4569535,7.4569535 0 0 1 0.578827,-2.886874 7.6797663,7.6797663 0 0 1 1.612969,-2.446094 7.8638289,7.8638289 0 0 1 2.458202,-1.695312 7.5974224,7.5974224 0 0 1 3.107269,-0.629688 7.3043754,7.3043754 0 0 1 3.148437,0.661172 7.7088289,7.7088289 0 0 1 2.421875,1.753438 7.8444539,7.8444539 0 0 1 1.549999,2.477578 7.7306257,7.7306257 0 0 1 0.525546,2.843281 7.4133598,7.4133598 0 0 1 -0.576406,2.874767 7.7814853,7.7814853 0 0 1 -4.049375,4.134142 7.5078132,7.5078132 0 0 1 -3.109687,0.641796"
     id="path65"
     style="stroke-width:0.242187" />
  <path
     class="cls-4"
     d="m 62.747427,53.711799 7.093672,-8.440236 h -6.78125 V 41.63875 h 11.581407 v 3.097579 l -6.657735,8.440236 h 6.793359 v 3.632812 H 62.747427 Z"
     id="path67"
     style="stroke-width:0.242187" />
  <path
     class="cls-4"
     d="m 83.810475,51.059846 -1.341719,-4.700861 -1.409531,4.700861 z m -3.247734,-9.423517 h 3.802342 l 5.257894,15.173048 H 85.39196 l -0.920311,-2.97164 h -4.037268 l -0.898515,2.97164 h -4.25039 z"
     id="path69"
     style="stroke-width:0.242187" />
  <path
     class="cls-4"
     d="M 100.68852,45.269141 H 96.32915 V 56.809377 H 92.15626 V 45.269141 h -4.373909 v -3.632812 h 12.906169 z"
     id="path71"
     style="stroke-width:0.242187" />
  <path
     class="cls-5"
     d="M 127.95642,60.689221 H 105.57345 V 38.303828 h 22.38297 z"
     id="path73"
     style="stroke-width:0.242187" />
  <path
     class="cls-2"
     d="M 105.53469,49.500156 A 11.232656,11.232656 0 1 0 116.76493,38.2675 11.232656,11.232656 0 0 0 105.53469,49.500156"
     id="path75"
     style="stroke-width:0.242187" />
  <g
     class="cls-6"
     mask="url(#mask)"
     id="g79"
     transform="matrix(0.2421875,0,0,0.2421875,4,38.267501)">
    <path
       class="cls-7"
       d="M 419.24,46.38 A 46.38,46.38 0 1 0 465.61,0 46.38,46.38 0 0 0 419.24,46.38"
       id="path77"
       style="fill:url(#%D0%91%D0%B5%D0%B7%D1%8B%D0%BC%D1%8F%D0%BD%D0%BD%D1%8B%D0%B9_%D0%B3%D1%80%D0%B0%D0%B4%D0%B8%D0%B5%D0%BD%D1%82_32)" />
  </g>
  <path
     class="cls-2"
     d="m 105.53469,38.2675 v 11.109141 c 0,0 5.36445,0.121095 9.24915,-1.838202 l 0.0194,-0.0218 c 1.95926,-3.882266 1.83817,-9.249142 1.83817,-9.249142 z"
     id="path81"
     style="stroke-width:0.242187" />
  <path
     class="cls-8"
     d="m 105.53469,38.2675 v 11.109141 c 0,0 5.36445,0.121095 9.24915,-1.838202 l 0.0194,-0.0218 c 1.95926,-3.882266 1.83817,-9.249142 1.83817,-9.249142 z"
     id="path83"
     style="fill:url(#%D0%91%D0%B5%D0%B7%D1%8B%D0%BC%D1%8F%D0%BD%D0%BD%D1%8B%D0%B9_%D0%B3%D1%80%D0%B0%D0%B4%D0%B8%D0%B5%D0%BD%D1%82_3);stroke-width:0.242187" />
  <path
     class="cls-2"
     d="m 105.53469,49.618828 v 11.109143 h 11.10672 c 0,0 0.12352,-5.366875 -1.8382,-9.251565 l -0.0194,-0.01938 c -3.45603,-1.743752 -8.09634,-1.838203 -9.06508,-1.838203 h -0.18407"
     id="path85"
     style="stroke-width:0.242187" />
  <path
     class="cls-9"
     d="m 105.53469,49.618828 v 11.109143 h 11.10672 c 0,0 0.12352,-5.366875 -1.8382,-9.251565 l -0.0194,-0.01938 c -3.45603,-1.743752 -8.09634,-1.838203 -9.06508,-1.838203 h -0.18407"
     id="path87"
     style="fill:url(#%D0%91%D0%B5%D0%B7%D1%8B%D0%BC%D1%8F%D0%BD%D0%BD%D1%8B%D0%B9_%D0%B3%D1%80%D0%B0%D0%B4%D0%B8%D0%B5%D0%BD%D1%82_4);stroke-width:0.242187" />
  <path
     class="cls-2"
     d="m 118.74844,51.457031 -0.0194,0.0218 c -1.95929,3.875 -1.83821,9.249141 -1.83821,9.249141 H 128 V 49.62125 h -0.18648 c -0.96874,0 -5.60907,0.09687 -9.06508,1.838203"
     id="path89"
     style="stroke-width:0.242187" />
  <path
     class="cls-10"
     d="m 118.74844,51.457031 -0.0194,0.0218 c -1.95929,3.875 -1.83821,9.249141 -1.83821,9.249141 H 128 V 49.62125 h -0.18648 c -0.96874,0 -5.60907,0.09687 -9.06508,1.838203"
     id="path91"
     style="fill:url(#%D0%91%D0%B5%D0%B7%D1%8B%D0%BC%D1%8F%D0%BD%D0%BD%D1%8B%D0%B9_%D0%B3%D1%80%D0%B0%D0%B4%D0%B8%D0%B5%D0%BD%D1%82_5);stroke-width:0.242187" />
  <path
     class="cls-2"
     d="m 116.89087,38.2675 c 0,0 -0.1211,5.366876 1.8382,9.249142 l 0.0218,0.0218 C 122.62588,49.497736 128,49.376641 128,49.376641 V 38.2675 Z"
     id="path93"
     style="stroke-width:0.242187" />
  <path
     class="cls-11"
     d="m 116.89087,38.2675 c 0,0 -0.1211,5.366876 1.8382,9.249142 l 0.0218,0.0218 C 122.62588,49.497736 128,49.376641 128,49.376641 V 38.2675 Z"
     id="path95"
     style="fill:url(#%D0%91%D0%B5%D0%B7%D1%8B%D0%BC%D1%8F%D0%BD%D0%BD%D1%8B%D0%B9_%D0%B3%D1%80%D0%B0%D0%B4%D0%B8%D0%B5%D0%BD%D1%82_6);stroke-width:0.242187" />
</svg>
