<?xml version="1.0" encoding="UTF-8" standalone="no"?>
<!DOCTYPE svg PUBLIC "-//W3C//DTD SVG 1.1//EN" "http://www.w3.org/Graphics/SVG/1.1/DTD/svg11.dtd">
<svg version="1.1" xmlns="http://www.w3.org/2000/svg" xmlns:xlink="http://www.w3.org/1999/xlink" preserveAspectRatio="xMidYMid meet" viewBox="0 0 132 99" width="132" height="99"><defs><path d="M16.74 52.74C16.74 49.93 14.9 48.76 11.63 47.92C8.84 47.21 8.17 46.85 8.17 45.81C8.17 45.8 8.17 45.77 8.17 45.76C8.17 44.99 8.87 44.36 10.22 44.36C11.58 44.36 12.99 44.96 14.41 45.93C14.6 45.66 16.07 43.53 16.25 43.27C14.61 41.96 12.62 41.23 10.27 41.23C6.98 41.23 4.65 43.17 4.65 46.08C4.65 46.08 4.65 46.12 4.65 46.12C4.65 49.32 6.74 50.22 9.98 51.04C12.67 51.74 13.2 52.2 13.2 53.1C13.2 53.1 13.2 53.14 13.2 53.15C13.2 54.09 12.33 54.67 10.88 54.67C9.04 54.67 7.51 53.92 6.08 52.71C5.87 52.96 4.21 54.96 4 55.21C5.94 56.93 8.38 57.77 10.83 57.77C14.29 57.77 16.74 55.98 16.74 52.78C16.74 52.77 16.74 52.74 16.74 52.74Z" id="c3PAIErXBT"></path><linearGradient id="gradientbVhxRPULi" gradientUnits="userSpaceOnUse" x1="4" y1="49.5" x2="128" y2="49.5"><stop style="stop-color: #45358c;stop-opacity: 1" offset="0%"></stop><stop style="stop-color: #9786bc;stop-opacity: 1" offset="100%"></stop></linearGradient><path d="M17.85 41.45L17.85 57.53L21.39 57.53L21.39 52.71C23 52.71 23.9 52.71 24.08 52.71C27.69 52.71 30.57 50.77 30.57 47.07C30.57 47.06 30.57 47.03 30.57 47.02C30.59 43.73 28.27 41.45 24.44 41.45C23.56 41.45 21.37 41.45 17.85 41.45ZM24.2 49.59C24.01 49.59 23.07 49.59 21.39 49.59L21.39 44.65C23.03 44.65 23.94 44.65 24.13 44.65C25.89 44.65 27.01 45.49 27.01 47.09C27.01 47.1 27.01 47.11 27.01 47.14C26.31 48.77 25.38 49.59 24.2 49.59Z" id="b2TYKgI4e7"></path><linearGradient id="gradientb82X5vYmD" gradientUnits="userSpaceOnUse" x1="4" y1="49.5" x2="128" y2="49.5"><stop style="stop-color: #45358c;stop-opacity: 1" offset="0%"></stop><stop style="stop-color: #9786bc;stop-opacity: 1" offset="100%"></stop></linearGradient><path d="M42.75 51.02L42.75 47.87L35.17 47.87L35.17 44.6L43.79 44.6L43.79 41.45L31.66 41.45L31.66 57.55L43.89 57.55L43.89 54.41L35.17 54.41L35.17 51.02L42.75 51.02Z" id="cjnoDPxjb"></path><linearGradient id="gradienta2rJcTbhrn" gradientUnits="userSpaceOnUse" x1="4" y1="49.5" x2="128" y2="49.5"><stop style="stop-color: #45358c;stop-opacity: 1" offset="0%"></stop><stop style="stop-color: #9786bc;stop-opacity: 1" offset="100%"></stop></linearGradient><path d="M48.64 48.5L48.64 41.45L45.1 41.45L45.1 57.55L48.64 57.55L48.64 52.64L50.5 50.7L55.49 57.55L59.73 57.55L52.9 48.28L59.32 41.57L59.32 41.57L59.32 44.72L64.21 44.72L64.21 57.55L67.77 57.55L67.77 44.72L72.66 44.72L72.66 41.45L55.17 41.45L48.64 48.5Z" id="b1GNanl0T1"></path><linearGradient id="gradientapTgCNlCF" gradientUnits="userSpaceOnUse" x1="4" y1="49.5" x2="128" y2="49.5"><stop style="stop-color: #45358c;stop-opacity: 1" offset="0%"></stop><stop style="stop-color: #9786bc;stop-opacity: 1" offset="100%"></stop></linearGradient><path d="M87.22 46.78C87.22 45.25 86.73 43.99 85.84 43.1C84.77 42.03 83.2 41.47 81.14 41.47C80.65 41.47 78.19 41.47 73.77 41.47L73.77 57.55L77.31 57.55L77.31 52.4L80.1 52.4L83.53 57.55L87.68 57.55C85.32 54.11 84.01 52.2 83.75 51.82C85.81 51.04 87.22 49.42 87.22 46.83C87.22 46.82 87.22 46.78 87.22 46.78ZM80.92 49.27C80.68 49.27 79.49 49.27 77.33 49.27L77.33 44.65C79.44 44.65 80.61 44.65 80.85 44.65C82.57 44.65 83.63 45.42 83.63 46.95C83.63 46.95 83.63 46.97 83.63 47C82.97 48.51 82.07 49.27 80.92 49.27Z" id="ag2lxtNzg"></path><linearGradient id="gradientb2GQuHiMX" gradientUnits="userSpaceOnUse" x1="4" y1="49.5" x2="128" y2="49.5"><stop style="stop-color: #45358c;stop-opacity: 1" offset="0%"></stop><stop style="stop-color: #9786bc;stop-opacity: 1" offset="100%"></stop></linearGradient><path d="M95.23 54.53C93.08 54.53 91.77 53.17 91.77 50.56C91.77 49.95 91.77 46.91 91.77 41.45L88.23 41.45C88.23 46.96 88.23 50.02 88.23 50.63C88.23 55.35 90.87 57.77 95.18 57.77C99.49 57.77 102.23 55.38 102.23 50.51C102.23 49.9 102.23 46.88 102.23 41.45L98.7 41.45L98.7 50.68C97.82 53.24 96.67 54.53 95.23 54.53Z" id="c8VemBLasU"></path><linearGradient id="gradientdAXrbfeHI" gradientUnits="userSpaceOnUse" x1="4" y1="49.63" x2="128" y2="49.63"><stop style="stop-color: #45358c;stop-opacity: 1" offset="0%"></stop><stop style="stop-color: #9786bc;stop-opacity: 1" offset="100%"></stop></linearGradient><path d="M115.79 43.17C114.58 41.89 112.81 41.23 110.59 41.23C106.28 41.23 103.54 43.63 103.54 48.5C103.54 49.1 103.54 52.13 103.54 57.58L107.08 57.58C107.08 52.06 107.08 48.99 107.08 48.38C107.08 45.83 108.38 44.53 110.54 44.53C112.69 44.53 114 45.88 114 48.5C114 49.1 114 52.14 114 57.6L117.54 57.6C117.54 52.08 117.54 49.01 117.54 48.4C117.54 45.86 118.85 44.55 121 44.55C123.16 44.55 124.46 45.91 124.46 48.52C124.46 49.13 124.46 52.16 124.46 57.63L128 57.63C128 52.08 128 48.99 128 48.38C128 48.38 128 48.38 128 48.38C128 43.65 125.36 41.23 121.05 41.23C118.82 41.23 117 41.89 115.79 43.17Z" id="e4Z4fC7SAo"></path><linearGradient id="gradientcazNtjB7H" gradientUnits="userSpaceOnUse" x1="4" y1="49.4" x2="128" y2="49.4"><stop style="stop-color: #45358c;stop-opacity: 1" offset="0%"></stop><stop style="stop-color: #9786bc;stop-opacity: 1" offset="100%"></stop></linearGradient></defs><g><g><g><use xlink:href="#c3PAIErXBT" opacity="1" fill="url(#gradientbVhxRPULi)"></use><g><use xlink:href="#c3PAIErXBT" opacity="1" fill-opacity="0" stroke="#000000" stroke-width="1" stroke-opacity="0"></use></g></g><g><use xlink:href="#b2TYKgI4e7" opacity="1" fill="url(#gradientb82X5vYmD)"></use><g><use xlink:href="#b2TYKgI4e7" opacity="1" fill-opacity="0" stroke="#000000" stroke-width="1" stroke-opacity="0"></use></g></g><g><use xlink:href="#cjnoDPxjb" opacity="1" fill="url(#gradienta2rJcTbhrn)"></use><g><use xlink:href="#cjnoDPxjb" opacity="1" fill-opacity="0" stroke="#000000" stroke-width="1" stroke-opacity="0"></use></g></g><g><use xlink:href="#b1GNanl0T1" opacity="1" fill="url(#gradientapTgCNlCF)"></use><g><use xlink:href="#b1GNanl0T1" opacity="1" fill-opacity="0" stroke="#000000" stroke-width="1" stroke-opacity="0"></use></g></g><g><use xlink:href="#ag2lxtNzg" opacity="1" fill="url(#gradientb2GQuHiMX)"></use><g><use xlink:href="#ag2lxtNzg" opacity="1" fill-opacity="0" stroke="#000000" stroke-width="1" stroke-opacity="0"></use></g></g><g><use xlink:href="#c8VemBLasU" opacity="1" fill="url(#gradientdAXrbfeHI)"></use><g><use xlink:href="#c8VemBLasU" opacity="1" fill-opacity="0" stroke="#000000" stroke-width="1" stroke-opacity="0"></use></g></g><g><use xlink:href="#e4Z4fC7SAo" opacity="1" fill="url(#gradientcazNtjB7H)"></use><g><use xlink:href="#e4Z4fC7SAo" opacity="1" fill-opacity="0" stroke="#000000" stroke-width="1" stroke-opacity="0"></use></g></g></g></g></svg>