<?xml version="1.0" encoding="UTF-8" standalone="no"?>
<!DOCTYPE svg PUBLIC "-//W3C//DTD SVG 1.1//EN" "http://www.w3.org/Graphics/SVG/1.1/DTD/svg11.dtd">
<svg version="1.1" xmlns="http://www.w3.org/2000/svg" xmlns:xlink="http://www.w3.org/1999/xlink" preserveAspectRatio="xMidYMid meet" viewBox="0 0 132 99" width="132" height="99"><defs><path d="M6.76 31.12C6.01 31.12 5.36 31.39 4.82 31.92C4.27 32.45 4 33.13 4 33.88C4 36.89 4 60.99 4 64C4 64.77 4.27 65.43 4.82 65.93C5.38 66.49 6.01 66.76 6.76 66.76C6.77 66.76 6.83 66.76 6.83 66.76C7.58 66.76 8.24 66.47 8.77 65.93C9.33 65.4 9.59 64.77 9.59 64C9.59 62.75 9.59 52.75 9.59 51.5C9.59 50 10.13 48.72 11.17 47.63C12.23 46.57 13.52 46.03 15.04 46.03C16.54 46.03 17.83 46.57 18.89 47.63C19.93 48.7 20.47 49.98 20.47 51.5C20.47 52.75 20.47 62.75 20.47 64C20.47 64.77 20.73 65.43 21.29 65.93C21.85 66.49 22.5 66.76 23.25 66.76C23.25 66.76 23.29 66.76 23.3 66.76C24.07 66.76 24.73 66.47 25.24 65.93C25.79 65.4 26.06 64.77 26.06 64C26.06 62.75 26.06 52.75 26.06 51.5C26.06 48.48 24.99 45.86 22.81 43.68C20.64 41.53 18.04 40.46 15.02 40.46C12.6 40.46 10.78 40.92 9.59 41.82C9.59 41.03 9.59 34.67 9.59 33.88C9.59 33.13 9.33 32.45 8.77 31.92C8.21 31.39 7.58 31.12 6.83 31.12C6.83 31.12 6.8 31.12 6.76 31.12" id="c1eiVd7QK7"></path><linearGradient id="gradienta2Cq5M7ZWW" gradientUnits="userSpaceOnUse" x1="15.02" y1="31.11" x2="15.02" y2="66.76"><stop style="stop-color: #fe4b01;stop-opacity: 1" offset="0%"></stop><stop style="stop-color: #ffae01;stop-opacity: 1" offset="100%"></stop></linearGradient><path d="M48.41 48.33C49.89 49.81 50.61 51.6 50.61 53.71C50.61 55.79 49.89 57.58 48.41 59.06C46.93 60.54 45.14 61.26 43.06 61.26C40.95 61.26 39.18 60.54 37.68 59.06C36.23 57.58 35.5 55.79 35.5 53.71C35.5 51.6 36.23 49.83 37.68 48.33C39.18 46.83 40.97 46.11 43.06 46.11C45.14 46.11 46.91 46.83 48.41 48.33ZM43.06 40.46C39.43 40.46 36.35 41.75 33.76 44.31C31.19 46.9 29.91 49.98 29.91 53.61C29.91 57.24 31.19 60.34 33.76 62.91C36.33 65.47 39.43 66.76 43.06 66.76C46.69 66.76 49.76 65.47 52.36 62.91C54.92 60.34 56.21 57.24 56.21 53.61C56.21 49.98 54.92 46.9 52.36 44.31C49.79 41.75 46.69 40.46 43.06 40.46" id="d96ldF1EDP"></path><linearGradient id="gradientcGCa6Wuud" gradientUnits="userSpaceOnUse" x1="43.07" y1="40.46" x2="43.07" y2="66.76"><stop style="stop-color: #fe6700;stop-opacity: 1" offset="0%"></stop><stop style="stop-color: #ffae01;stop-opacity: 1" offset="100%"></stop></linearGradient><path d="M65.7 51.43C65.7 49.96 66.23 48.67 67.27 47.61C68.31 46.54 69.6 46.03 71.07 46.03C72.55 46.03 73.83 46.57 74.87 47.61C75.92 48.65 76.45 49.93 76.45 51.43C76.45 52.69 76.45 62.72 76.45 63.97C76.45 64.75 76.71 65.4 77.27 65.91C77.83 66.47 78.48 66.73 79.23 66.73C79.24 66.73 79.28 66.73 79.28 66.73C80.06 66.73 80.71 66.44 81.22 65.91C81.78 65.38 82.04 64.75 82.04 63.97C82.04 62.72 82.04 52.69 82.04 51.43C82.04 49.96 82.57 48.67 83.62 47.61C84.66 46.57 85.94 46.03 87.44 46.03C88.94 46.03 90.23 46.57 91.29 47.61C92.36 48.65 92.87 49.93 92.87 51.43C92.87 52.69 92.87 62.72 92.87 63.97C92.87 64.75 93.13 65.4 93.69 65.91C94.22 66.47 94.85 66.73 95.63 66.73C95.63 66.73 95.67 66.73 95.67 66.73C96.42 66.73 97.08 66.44 97.64 65.91C98.17 65.38 98.43 64.72 98.43 63.97C98.43 62.72 98.43 52.69 98.43 51.43C98.43 48.43 97.37 45.84 95.21 43.66C93.08 41.53 90.49 40.44 87.47 40.44C83.83 40.44 81.12 41.65 79.28 44.05C77.42 41.67 74.7 40.46 71.07 40.46C68.05 40.46 65.46 41.53 63.32 43.68C61.19 45.86 60.1 48.43 60.1 51.46C60.1 52.71 60.1 62.74 60.1 64C60.1 64.77 60.37 65.43 60.93 65.93C61.48 66.49 62.11 66.76 62.86 66.76C62.87 66.76 62.93 66.76 62.94 66.76C63.69 66.76 64.34 66.47 64.87 65.93C65.43 65.4 65.7 64.77 65.7 64C65.7 63.16 65.7 58.97 65.7 51.43" id="cd8dJ6mHi"></path><linearGradient id="gradientc2gq0FyJO0" gradientUnits="userSpaceOnUse" x1="79.25" y1="40.46" x2="79.25" y2="66.76"><stop style="stop-color: #fe6700;stop-opacity: 1" offset="0%"></stop><stop style="stop-color: #ffae01;stop-opacity: 1" offset="100%"></stop></linearGradient><path d="M120.59 48.12C119.74 48.5 115.5 50.41 107.85 53.85C107.85 53.75 107.85 53.69 107.85 53.68C107.85 51.58 108.58 49.81 110.03 48.31C111.51 46.83 113.28 46.11 115.38 46.11C115.38 46.11 115.38 46.11 115.38 46.11C118.11 46.54 119.85 47.21 120.59 48.12ZM127.32 48.14C126.31 45.86 124.71 44 122.55 42.62C120.4 41.19 118.02 40.46 115.38 40.46C111.75 40.46 108.68 41.75 106.11 44.31C103.54 46.9 102.26 49.98 102.26 53.61C102.26 57.24 103.54 60.34 106.11 62.91C108.68 65.47 111.78 66.76 115.41 66.76C118.24 66.76 120.78 65.93 123.06 64.26C125.31 62.67 126.89 60.58 127.78 57.97C127.9 57.63 127.95 57.32 127.95 56.98C127.95 56.44 127.78 55.94 127.42 55.45C126.84 54.65 126.09 54.26 125.17 54.26C123.84 54.26 122.94 54.89 122.53 56.15C121.99 57.63 121.1 58.86 119.82 59.81C118.48 60.78 117.01 61.24 115.38 61.24C112.94 61.24 111.15 60.51 109.98 59.06C110.74 58.72 113.25 57.56 117.56 55.62C118.4 55.24 125.13 52.2 125.97 51.82C126.67 51.5 127.18 50.97 127.42 50.27C127.54 49.96 127.59 49.64 127.59 49.3C127.59 48.91 127.49 48.53 127.32 48.14" id="b94wHx8MT"></path><linearGradient id="gradienth12EQT6irH" gradientUnits="userSpaceOnUse" x1="115.12" y1="40.46" x2="115.12" y2="66.76"><stop style="stop-color: #fe6700;stop-opacity: 1" offset="0%"></stop><stop style="stop-color: #ffae01;stop-opacity: 1" offset="100%"></stop></linearGradient><path d="M32.96 37.75C34.49 37.75 35.58 37.03 35.58 35.91C35.58 35.91 35.58 35.89 35.58 35.89C35.58 34.9 34.8 34.36 33.08 34.05C31.41 33.73 31 33.39 31 32.79C31 32.78 31 32.75 31 32.74C31 32.16 31.63 31.68 32.62 31.68C33.4 31.68 34.12 31.89 34.82 32.38C34.88 32.32 35.28 31.85 35.33 31.8C34.56 31.26 33.76 31 32.65 31C31.19 31 30.13 31.75 30.13 32.79C30.13 32.79 30.13 32.81 30.13 32.81C30.13 33.88 30.93 34.36 32.69 34.7C34.29 34.99 34.68 35.33 34.68 35.94C34.68 35.94 34.68 35.96 34.68 35.96C34.68 36.61 34 37.07 32.98 37.07C31.92 37.07 31.17 36.76 30.37 36.15C30.32 36.21 29.89 36.63 29.84 36.69C30.76 37.41 31.75 37.75 32.96 37.75" id="aqafgcSsq"></path><linearGradient id="gradientagwjDuby9" gradientUnits="userSpaceOnUse" x1="32.69" y1="31.02" x2="32.69" y2="37.75"><stop style="stop-color: #ff5e07;stop-opacity: 1" offset="0%"></stop><stop style="stop-color: #ffa300;stop-opacity: 1" offset="100%"></stop></linearGradient><path d="M43.59 37.66L43.59 35.36C44.71 35.36 45.33 35.36 45.45 35.36C47.08 35.36 48.46 34.63 48.46 33.23C48.46 33.22 48.46 33.2 48.46 33.2C48.46 31.92 47.32 31.12 45.6 31.12C45.41 31.12 44.46 31.12 42.74 31.12L42.74 37.66L43.59 37.66ZM43.57 34.68L43.57 31.8C44.73 31.8 45.37 31.8 45.5 31.8C46.74 31.8 47.56 32.28 47.56 33.23C47.56 33.23 47.56 33.25 47.56 33.25C47.56 34.12 46.74 34.68 45.48 34.68C45.35 34.68 44.71 34.68 43.57 34.68" id="b2373fKHUQ"></path><linearGradient id="gradientcb2MTSyYF" gradientUnits="userSpaceOnUse" x1="45.57" y1="31.12" x2="45.57" y2="37.66"><stop style="stop-color: #ff5e07;stop-opacity: 1" offset="0%"></stop><stop style="stop-color: #ffa300;stop-opacity: 1" offset="100%"></stop></linearGradient><path d="M55.41 37.66L60.98 37.66L60.98 36.98L56.25 36.98L56.25 34.68L60.42 34.68L60.42 34L56.25 34L56.25 31.8L60.9 31.8L60.9 31.12L55.38 31.12L55.38 37.66" id="a2aUdkixXJ"></path><linearGradient id="gradientfYRLlau5Q" gradientUnits="userSpaceOnUse" x1="58.19" y1="31.12" x2="58.19" y2="37.66"><stop style="stop-color: #ff5e07;stop-opacity: 1" offset="0%"></stop><stop style="stop-color: #ffa300;stop-opacity: 1" offset="100%"></stop></linearGradient><path d="M68.09 37.66L68.97 37.66L68.97 35.89L70.59 34.48L73.52 37.66L74.61 37.66L71.19 33.98L74.46 31.12L73.35 31.12L68.97 35.02L68.97 31.12L68.09 31.12L68.09 37.66" id="a1SlAqRqD1"></path><linearGradient id="gradientj1JuIlzE0s" gradientUnits="userSpaceOnUse" x1="71.35" y1="31.12" x2="71.35" y2="37.66"><stop style="stop-color: #ff5e07;stop-opacity: 1" offset="0%"></stop><stop style="stop-color: #ffa300;stop-opacity: 1" offset="100%"></stop></linearGradient><path d="M83.25 37.66L84.12 37.66L84.12 31.8L86.69 31.8L86.69 31.12L80.69 31.12L80.69 31.8L83.25 31.8L83.25 37.66" id="c3JttKxZp4"></path><linearGradient id="gradienta6MelgPBSz" gradientUnits="userSpaceOnUse" x1="83.69" y1="31.12" x2="83.69" y2="37.66"><stop style="stop-color: #ff5e07;stop-opacity: 1" offset="0%"></stop><stop style="stop-color: #ffa300;stop-opacity: 1" offset="100%"></stop></linearGradient><path d="M94.58 37.66L94.58 35.11L96.76 35.11L98.97 37.66L100.03 37.66C98.62 36.06 97.84 35.17 97.68 34.99C98.89 34.8 99.77 34.17 99.77 33.08C99.77 33.08 99.77 33.06 99.77 33.06C99.77 32.55 99.55 32.09 99.19 31.77C98.7 31.36 97.95 31.12 97.01 31.12C96.79 31.12 95.69 31.12 93.71 31.12L93.71 37.66L94.58 37.66ZM94.56 34.46L94.56 31.8C95.97 31.8 96.75 31.8 96.91 31.8C98.14 31.8 98.87 32.28 98.87 33.08C98.87 33.08 98.87 33.1 98.87 33.1C98.87 33.95 98.05 34.46 96.91 34.46C96.75 34.46 95.97 34.46 94.56 34.46" id="cUBOxiSwv"></path><linearGradient id="gradientc4JEXptuU1" gradientUnits="userSpaceOnUse" x1="96.86" y1="31.12" x2="96.86" y2="37.66"><stop style="stop-color: #ff5e07;stop-opacity: 1" offset="0%"></stop><stop style="stop-color: #ffa300;stop-opacity: 1" offset="100%"></stop></linearGradient><path d="M110.03 37.75C111.95 37.75 113.23 36.76 113.23 34.85C113.23 34.6 113.23 33.36 113.23 31.12L112.36 31.12C112.36 33.4 112.36 34.67 112.36 34.92C112.36 36.35 111.46 37.07 110.06 37.07C108.6 37.07 107.73 36.28 107.73 34.87C107.73 34.62 107.73 33.37 107.73 31.12L106.86 31.12C106.86 33.4 106.86 34.67 106.86 34.92C106.86 36.76 108.14 37.75 110.03 37.75" id="g3TMV7FnR"></path><linearGradient id="gradienth1KVHtdHvq" gradientUnits="userSpaceOnUse" x1="110.05" y1="31.12" x2="110.05" y2="37.76"><stop style="stop-color: #ff5e07;stop-opacity: 1" offset="0%"></stop><stop style="stop-color: #ffa300;stop-opacity: 1" offset="100%"></stop></linearGradient><path d="M120.66 37.66L121.51 37.66L121.51 32.38L124.3 35.86L124.34 35.86L127.13 32.35L127.13 37.66L128 37.66L128 31.12L127.13 31.12L124.34 34.68L121.53 31.12L120.66 31.12L120.66 37.66" id="a6vf48zuUY"></path><linearGradient id="gradientgdGB8R4Wi" gradientUnits="userSpaceOnUse" x1="124.32" y1="31.12" x2="124.32" y2="37.66"><stop style="stop-color: #ff5e07;stop-opacity: 1" offset="0%"></stop><stop style="stop-color: #ffa300;stop-opacity: 1" offset="100%"></stop></linearGradient></defs><g><g><g><use xlink:href="#c1eiVd7QK7" opacity="1" fill="url(#gradienta2Cq5M7ZWW)"></use><g><use xlink:href="#c1eiVd7QK7" opacity="1" fill-opacity="0" stroke="#000000" stroke-width="1" stroke-opacity="0"></use></g></g><g><use xlink:href="#d96ldF1EDP" opacity="1" fill="url(#gradientcGCa6Wuud)"></use><g><use xlink:href="#d96ldF1EDP" opacity="1" fill-opacity="0" stroke="#000000" stroke-width="1" stroke-opacity="0"></use></g></g><g><use xlink:href="#cd8dJ6mHi" opacity="1" fill="url(#gradientc2gq0FyJO0)"></use><g><use xlink:href="#cd8dJ6mHi" opacity="1" fill-opacity="0" stroke="#000000" stroke-width="1" stroke-opacity="0"></use></g></g><g><use xlink:href="#b94wHx8MT" opacity="1" fill="url(#gradienth12EQT6irH)"></use><g><use xlink:href="#b94wHx8MT" opacity="1" fill-opacity="0" stroke="#000000" stroke-width="1" stroke-opacity="0"></use></g></g><g><use xlink:href="#aqafgcSsq" opacity="1" fill="url(#gradientagwjDuby9)"></use><g><use xlink:href="#aqafgcSsq" opacity="1" fill-opacity="0" stroke="#000000" stroke-width="1" stroke-opacity="0"></use></g></g><g><use xlink:href="#b2373fKHUQ" opacity="1" fill="url(#gradientcb2MTSyYF)"></use><g><use xlink:href="#b2373fKHUQ" opacity="1" fill-opacity="0" stroke="#000000" stroke-width="1" stroke-opacity="0"></use></g></g><g><use xlink:href="#a2aUdkixXJ" opacity="1" fill="url(#gradientfYRLlau5Q)"></use><g><use xlink:href="#a2aUdkixXJ" opacity="1" fill-opacity="0" stroke="#000000" stroke-width="1" stroke-opacity="0"></use></g></g><g><use xlink:href="#a1SlAqRqD1" opacity="1" fill="url(#gradientj1JuIlzE0s)"></use><g><use xlink:href="#a1SlAqRqD1" opacity="1" fill-opacity="0" stroke="#000000" stroke-width="1" stroke-opacity="0"></use></g></g><g><use xlink:href="#c3JttKxZp4" opacity="1" fill="url(#gradienta6MelgPBSz)"></use><g><use xlink:href="#c3JttKxZp4" opacity="1" fill-opacity="0" stroke="#000000" stroke-width="1" stroke-opacity="0"></use></g></g><g><use xlink:href="#cUBOxiSwv" opacity="1" fill="url(#gradientc4JEXptuU1)"></use><g><use xlink:href="#cUBOxiSwv" opacity="1" fill-opacity="0" stroke="#000000" stroke-width="1" stroke-opacity="0"></use></g></g><g><use xlink:href="#g3TMV7FnR" opacity="1" fill="url(#gradienth1KVHtdHvq)"></use><g><use xlink:href="#g3TMV7FnR" opacity="1" fill-opacity="0" stroke="#000000" stroke-width="1" stroke-opacity="0"></use></g></g><g><use xlink:href="#a6vf48zuUY" opacity="1" fill="url(#gradientgdGB8R4Wi)"></use><g><use xlink:href="#a6vf48zuUY" opacity="1" fill-opacity="0" stroke="#000000" stroke-width="1" stroke-opacity="0"></use></g></g></g></g></svg>