<?xml version="1.0" encoding="UTF-8" standalone="no"?>
<!DOCTYPE svg PUBLIC "-//W3C//DTD SVG 1.1//EN" "http://www.w3.org/Graphics/SVG/1.1/DTD/svg11.dtd">
<svg version="1.1" xmlns="http://www.w3.org/2000/svg" xmlns:xlink="http://www.w3.org/1999/xlink" preserveAspectRatio="xMidYMid meet" viewBox="0 0 132 99" width="132" height="99"><defs><path d="M84.66 92.8C84.23 92.8 83.91 92.36 83.91 91.8C83.91 90.3 86.04 91.05 86.29 92.61C86.42 93.49 86.04 94.24 85.23 94.67C84.48 95.05 83.91 95.11 83.91 94.8C83.91 94.55 84.23 93.99 84.66 93.55C85.23 92.99 85.23 92.8 84.66 92.8Z" id="aA3JPM4CM"></path><path d="M84.66 92.8C84.23 92.8 83.91 92.36 83.91 91.8C83.91 90.3 86.04 91.05 86.29 92.61C86.42 93.49 86.04 94.24 85.23 94.67C84.48 95.05 83.91 95.11 83.91 94.8C83.91 94.55 84.23 93.99 84.66 93.55C85.23 92.99 85.23 92.8 84.66 92.8Z" id="b2c47cvEqh"></path><path d="M103.31 74.66C101.49 74.66 100.8 74.41 100.8 73.72C100.8 72.97 101.99 72.78 107.87 72.78C108.34 72.78 110.68 72.78 114.88 72.78C116.01 76.57 116.63 78.68 116.76 79.1C117.76 82.54 118.76 85.48 118.95 85.6C119.13 85.73 120.13 82.98 121.14 79.54C122.7 74.03 123.95 71.9 124.95 72.9C125.08 73.09 124.08 76.78 122.7 81.16C119.32 91.67 118.63 91.73 115.38 81.85C115.23 81.37 114.45 78.97 113.07 74.66C112.89 74.66 111.99 74.66 110.38 74.66C108.77 74.66 107.87 74.66 107.69 74.66C107.69 78.97 107.69 81.37 107.69 81.85C107.69 87.86 107.5 89.04 106.75 89.04C106 89.04 105.81 87.86 105.81 81.85C105.81 80.89 105.81 78.49 105.81 74.66C104.31 74.66 103.47 74.66 103.31 74.66Z" id="a8w7GDiDK4"></path><path d="M103.31 74.66C101.49 74.66 100.8 74.41 100.8 73.72C100.8 72.97 101.99 72.78 107.87 72.78C108.34 72.78 110.68 72.78 114.88 72.78C116.01 76.57 116.63 78.68 116.76 79.1C117.76 82.54 118.76 85.48 118.95 85.6C119.13 85.73 120.13 82.98 121.14 79.54C122.7 74.03 123.95 71.9 124.95 72.9C125.08 73.09 124.08 76.78 122.7 81.16C119.32 91.67 118.63 91.73 115.38 81.85C115.23 81.37 114.45 78.97 113.07 74.66C112.89 74.66 111.99 74.66 110.38 74.66C108.77 74.66 107.87 74.66 107.69 74.66C107.69 78.97 107.69 81.37 107.69 81.85C107.69 87.86 107.5 89.04 106.75 89.04C106 89.04 105.81 87.86 105.81 81.85C105.81 80.89 105.81 78.49 105.81 74.66C104.31 74.66 103.47 74.66 103.31 74.66Z" id="c7iFhpyCA"></path><path d="M24.92 76.66C30.05 76.59 31.11 77.16 31.93 80.1C33.3 84.98 30.43 89.48 26.36 88.92C24.54 88.67 24.48 88.73 24.48 91.05C24.48 93.3 24.36 93.42 22.61 93.42C22.48 93.42 21.85 93.42 20.73 93.42C20.73 92.86 20.73 90.07 20.73 85.04L20.73 76.66C23.34 76.66 24.73 76.66 24.92 76.66ZM24.48 83.23C24.48 85.85 24.54 85.98 26.23 85.79C27.74 85.6 27.92 85.29 28.11 83.04C28.24 81.35 27.99 80.22 27.3 79.66C25.73 78.41 24.48 79.97 24.48 83.23Z" id="e1vm1pILVl"></path><path d="M24.92 76.66C30.05 76.59 31.11 77.16 31.93 80.1C33.3 84.98 30.43 89.48 26.36 88.92C24.54 88.67 24.48 88.73 24.48 91.05C24.48 93.3 24.36 93.42 22.61 93.42C22.48 93.42 21.85 93.42 20.73 93.42C20.73 92.86 20.73 90.07 20.73 85.04L20.73 76.66C23.34 76.66 24.73 76.66 24.92 76.66ZM24.48 83.23C24.48 85.85 24.54 85.98 26.23 85.79C27.74 85.6 27.92 85.29 28.11 83.04C28.24 81.35 27.99 80.22 27.3 79.66C25.73 78.41 24.48 79.97 24.48 83.23Z" id="ehwdr6ol8"></path><path d="M10.91 85.35C12.1 85.79 13.53 85.92 14.1 85.73C15.97 84.98 15.1 83.66 11.85 82.1C8.28 80.47 7.09 78.6 7.84 75.66C8.47 73.22 12.03 71.78 15.22 72.72C17.91 73.53 18.6 74.34 17.66 75.53C17.16 76.09 16.04 76.28 14.16 76.03C11.85 75.78 11.34 75.91 11.34 76.78C11.34 77.41 12.47 78.28 14.35 79.1C17.85 80.6 18.85 81.72 18.85 84.41C18.85 88.42 13.1 90.48 8.72 88.04C6.72 86.98 6.59 86.42 7.9 85.29C8.59 84.73 9.28 84.73 10.91 85.35Z" id="aJiCE5xyS"></path><path d="M10.91 85.35C12.1 85.79 13.53 85.92 14.1 85.73C15.97 84.98 15.1 83.66 11.85 82.1C8.28 80.47 7.09 78.6 7.84 75.66C8.47 73.22 12.03 71.78 15.22 72.72C17.91 73.53 18.6 74.34 17.66 75.53C17.16 76.09 16.04 76.28 14.16 76.03C11.85 75.78 11.34 75.91 11.34 76.78C11.34 77.41 12.47 78.28 14.35 79.1C17.85 80.6 18.85 81.72 18.85 84.41C18.85 88.42 13.1 90.48 8.72 88.04C6.72 86.98 6.59 86.42 7.9 85.29C8.59 84.73 9.28 84.73 10.91 85.35Z" id="dG8qkSquX"></path><path d="M80.47 79.91C79.28 79.41 79.22 76.53 80.41 76.53C80.91 76.53 81.41 75.91 81.54 75.16C81.66 74.09 82.22 73.65 83.48 73.53C84.91 73.34 85.16 73.53 85.16 74.91C85.16 76.09 85.48 76.53 86.42 76.53C87.35 76.53 87.67 76.97 87.67 78.1C87.67 79.22 87.35 79.66 86.42 79.66C85.35 79.66 85.16 80.1 85.16 82.79C85.16 85.42 85.35 85.92 86.35 85.92C87.6 85.92 88.54 87.48 87.92 88.48C87.35 89.42 83.48 89.11 82.41 88.04C81.72 87.42 81.41 85.92 81.41 83.66C81.41 81.22 81.16 80.16 80.47 79.91Z" id="baPJWdqpN"></path><path d="M80.47 79.91C79.28 79.41 79.22 76.53 80.41 76.53C80.91 76.53 81.41 75.91 81.54 75.16C81.66 74.09 82.22 73.65 83.48 73.53C84.91 73.34 85.16 73.53 85.16 74.91C85.16 76.09 85.48 76.53 86.42 76.53C87.35 76.53 87.67 76.97 87.67 78.1C87.67 79.22 87.35 79.66 86.42 79.66C85.35 79.66 85.16 80.1 85.16 82.79C85.16 85.42 85.35 85.92 86.35 85.92C87.6 85.92 88.54 87.48 87.92 88.48C87.35 89.42 83.48 89.11 82.41 88.04C81.72 87.42 81.41 85.92 81.41 83.66C81.41 81.22 81.16 80.16 80.47 79.91Z" id="fOgMEnL5e"></path><path d="M93.48 81.16C94.42 80.97 95.11 80.47 94.99 80.04C94.74 79.28 92.98 79.22 91.3 79.91C90.61 80.22 90.17 79.97 89.86 79.03C89.29 77.35 89.54 77.1 92.61 76.72C98.11 75.97 99.74 77.85 99.43 84.73C99.42 84.99 99.35 86.33 99.24 88.73C96.73 88.81 95.33 88.85 95.05 88.86C91.98 88.98 90.54 88.73 89.86 88.04C89.36 87.48 88.92 86.23 88.92 85.29C88.92 83.29 90.42 81.91 93.48 81.16ZM92.92 85.6C93.36 86.73 94.05 86.79 95.05 85.79C96.17 84.66 95.92 83.41 94.61 83.41C93.17 83.41 92.42 84.35 92.92 85.6Z" id="d1NlUwPcit"></path><path d="M93.48 81.16C94.42 80.97 95.11 80.47 94.99 80.04C94.74 79.28 92.98 79.22 91.3 79.91C90.61 80.22 90.17 79.97 89.86 79.03C89.29 77.35 89.54 77.1 92.61 76.72C98.11 75.97 99.74 77.85 99.43 84.73C99.42 84.99 99.35 86.33 99.24 88.73C96.73 88.81 95.33 88.85 95.05 88.86C91.98 88.98 90.54 88.73 89.86 88.04C89.36 87.48 88.92 86.23 88.92 85.29C88.92 83.29 90.42 81.91 93.48 81.16ZM92.92 85.6C93.36 86.73 94.05 86.79 95.05 85.79C96.17 84.66 95.92 83.41 94.61 83.41C93.17 83.41 92.42 84.35 92.92 85.6Z" id="e1ieoi18Wl"></path><path d="M43.25 78.22C44.06 79.28 44.5 80.6 44.38 81.79C44.19 83.66 44.06 83.73 40.94 83.91C39.12 84.04 37.62 84.35 37.62 84.66C37.62 85.6 39.81 86.48 41.75 86.35C42.94 86.29 43.56 86.54 43.75 87.23C44.13 89.11 38.25 89.73 35.99 88.11C34.12 86.79 33.05 83.85 33.49 81.29C34.37 76.72 40.5 74.78 43.25 78.22ZM37.37 80.97C37.87 81.85 41.5 81.66 41.25 80.79C40.75 79.35 39.06 78.72 38 79.6C37.43 80.04 37.18 80.66 37.37 80.97Z" id="b30EVTJS8"></path><path d="M43.25 78.22C44.06 79.28 44.5 80.6 44.38 81.79C44.19 83.66 44.06 83.73 40.94 83.91C39.12 84.04 37.62 84.35 37.62 84.66C37.62 85.6 39.81 86.48 41.75 86.35C42.94 86.29 43.56 86.54 43.75 87.23C44.13 89.11 38.25 89.73 35.99 88.11C34.12 86.79 33.05 83.85 33.49 81.29C34.37 76.72 40.5 74.78 43.25 78.22ZM37.37 80.97C37.87 81.85 41.5 81.66 41.25 80.79C40.75 79.35 39.06 78.72 38 79.6C37.43 80.04 37.18 80.66 37.37 80.97Z" id="aOMpAmsK"></path><path d="M47.94 76.53C48.82 76.53 49.51 76.84 49.51 77.16C49.51 77.6 49.88 77.6 50.69 77.16C51.38 76.84 52.51 76.53 53.2 76.53C53.95 76.53 54.51 76.84 54.51 77.16C54.51 77.6 54.89 77.6 55.7 77.16C56.39 76.84 58.2 76.53 59.7 76.53C63.83 76.53 64.83 77.97 64.83 83.98C64.83 84.29 64.83 85.88 64.83 88.73C62.24 88.81 60.8 88.85 60.52 88.86C55.51 89.04 54.51 88.48 54.51 85.54C54.51 83.29 55.89 81.97 59.08 81.22C60.02 80.97 60.77 80.54 60.77 80.22C60.77 79.22 59.2 78.97 57.39 79.6C56.07 80.16 55.64 80.1 55.39 79.35C55.07 78.66 54.76 78.6 53.7 79.16C52.95 79.54 51.88 80.04 51.38 80.29C50.76 80.6 50.32 82.04 50.13 84.73C49.82 88.54 49.76 88.73 48.13 88.92C48.01 88.93 47.43 88.99 46.38 89.11C46.38 88.69 46.38 86.61 46.38 82.85L46.38 76.53C47.35 76.53 47.87 76.53 47.94 76.53ZM57.95 85.92C58.45 86.73 59.7 86.73 60.64 85.79C61.77 84.66 61.52 83.41 60.2 83.41C58.83 83.41 57.39 84.98 57.95 85.92Z" id="b1lrM7N6c0"></path><path d="M47.94 76.53C48.82 76.53 49.51 76.84 49.51 77.16C49.51 77.6 49.88 77.6 50.69 77.16C51.38 76.84 52.51 76.53 53.2 76.53C53.95 76.53 54.51 76.84 54.51 77.16C54.51 77.6 54.89 77.6 55.7 77.16C56.39 76.84 58.2 76.53 59.7 76.53C63.83 76.53 64.83 77.97 64.83 83.98C64.83 84.29 64.83 85.88 64.83 88.73C62.24 88.81 60.8 88.85 60.52 88.86C55.51 89.04 54.51 88.48 54.51 85.54C54.51 83.29 55.89 81.97 59.08 81.22C60.02 80.97 60.77 80.54 60.77 80.22C60.77 79.22 59.2 78.97 57.39 79.6C56.07 80.16 55.64 80.1 55.39 79.35C55.07 78.66 54.76 78.6 53.7 79.16C52.95 79.54 51.88 80.04 51.38 80.29C50.76 80.6 50.32 82.04 50.13 84.73C49.82 88.54 49.76 88.73 48.13 88.92C48.01 88.93 47.43 88.99 46.38 89.11C46.38 88.69 46.38 86.61 46.38 82.85L46.38 76.53C47.35 76.53 47.87 76.53 47.94 76.53ZM57.95 85.92C58.45 86.73 59.7 86.73 60.64 85.79C61.77 84.66 61.52 83.41 60.2 83.41C58.83 83.41 57.39 84.98 57.95 85.92Z" id="a1Eub22PM3"></path><path d="M68.46 76.53C69.27 76.53 70.21 76.84 70.59 77.22C71.09 77.72 71.4 77.72 71.65 77.22C72.34 76.16 76.16 76.41 77.28 77.53C78.03 78.28 78.28 79.79 78.28 83.79C78.28 84.14 78.28 85.92 78.28 89.11C77.27 88.99 76.71 88.93 76.59 88.92C74.9 88.73 74.84 88.61 74.65 84.66C74.47 80.16 74.03 79.35 72.09 79.97C70.9 80.35 70.78 80.85 70.78 84.73C70.78 88.86 70.71 89.04 69.34 89.04C68.52 89.04 67.65 88.86 67.46 88.61C67.21 88.42 67.02 85.6 67.02 82.35C67.02 76.72 67.08 76.53 68.46 76.53Z" id="a1PWGvkYrU"></path><path d="M68.46 76.53C69.27 76.53 70.21 76.84 70.59 77.22C71.09 77.72 71.4 77.72 71.65 77.22C72.34 76.16 76.16 76.41 77.28 77.53C78.03 78.28 78.28 79.79 78.28 83.79C78.28 84.14 78.28 85.92 78.28 89.11C77.27 88.99 76.71 88.93 76.59 88.92C74.9 88.73 74.84 88.61 74.65 84.66C74.47 80.16 74.03 79.35 72.09 79.97C70.9 80.35 70.78 80.85 70.78 84.73C70.78 88.86 70.71 89.04 69.34 89.04C68.52 89.04 67.65 88.86 67.46 88.61C67.21 88.42 67.02 85.6 67.02 82.35C67.02 76.72 67.08 76.53 68.46 76.53Z" id="aCmRWhhBB"></path><path d="M25.73 19.98C24.29 13.47 23.29 7.53 23.48 6.78C23.67 5.96 24.36 5.09 24.92 4.84C25.55 4.53 41.62 4.21 60.64 4.09C95.17 3.9 95.24 3.9 97.61 5.28C100.49 6.84 100.62 7.22 104.56 18.66C106.25 23.48 108.62 30.24 109.81 33.68C112.25 40.56 112.5 42.44 111.13 44.38C110.25 45.75 108.5 46.32 92.05 51.13C87.73 52.45 83.73 53.57 83.16 53.76C82.22 54.01 56.51 61.64 55.14 61.89C54.64 61.96 51.45 62.89 48 63.96C41.12 66.15 39.12 66.33 37.24 64.96C35.37 63.71 34.93 62.33 31.43 46.19C29.74 38.31 27.17 26.48 25.73 19.98ZM66.33 14.28C62.77 15.1 58.89 19.54 58.89 22.92C58.89 24.98 61.96 29.42 64.21 30.55C66.83 31.93 70.46 31.36 72.72 29.24C75.16 26.92 76.59 23.61 76.09 21.6C75.03 17.23 70.03 13.47 66.33 14.28Z" id="f9qd0uoSxm"></path><path d="M25.73 19.98C24.29 13.47 23.29 7.53 23.48 6.78C23.67 5.96 24.36 5.09 24.92 4.84C25.55 4.53 41.62 4.21 60.64 4.09C95.17 3.9 95.24 3.9 97.61 5.28C100.49 6.84 100.62 7.22 104.56 18.66C106.25 23.48 108.62 30.24 109.81 33.68C112.25 40.56 112.5 42.44 111.13 44.38C110.25 45.75 108.5 46.32 92.05 51.13C87.73 52.45 83.73 53.57 83.16 53.76C82.22 54.01 56.51 61.64 55.14 61.89C54.64 61.96 51.45 62.89 48 63.96C41.12 66.15 39.12 66.33 37.24 64.96C35.37 63.71 34.93 62.33 31.43 46.19C29.74 38.31 27.17 26.48 25.73 19.98ZM66.33 14.28C62.77 15.1 58.89 19.54 58.89 22.92C58.89 24.98 61.96 29.42 64.21 30.55C66.83 31.93 70.46 31.36 72.72 29.24C75.16 26.92 76.59 23.61 76.09 21.6C75.03 17.23 70.03 13.47 66.33 14.28Z" id="a2aiZqX8fZ"></path><path d="M39.37 19.04C45 21.17 52.07 26.42 60.83 34.93C66.65 40.5 68.27 41.5 69.9 40.37C70.28 40.12 74.9 34.43 80.16 27.74C88.42 17.23 94.67 9.53 97.49 6.65C98.3 5.78 99.93 6.15 100.37 7.28C100.49 7.72 98.8 11.66 96.68 16.16C92.98 23.67 89.17 32.55 86.85 38.68C86.35 40.06 85.41 43.94 84.79 47.38C83.54 54.01 83.6 54.01 78.6 55.26C77.59 55.51 72.34 57.01 67.02 58.58C61.7 60.14 56.64 61.58 55.76 61.71C55.66 61.73 55.14 61.83 54.2 62.02C54.19 61.38 54.15 56.28 54.14 55.64C51.59 42.08 47.07 31.57 40.56 24.11C36.87 19.85 36.43 17.91 39.37 19.04Z" id="b1EcebDUwF"></path><path d="M39.37 19.04C45 21.17 52.07 26.42 60.83 34.93C66.65 40.5 68.27 41.5 69.9 40.37C70.28 40.12 74.9 34.43 80.16 27.74C88.42 17.23 94.67 9.53 97.49 6.65C98.3 5.78 99.93 6.15 100.37 7.28C100.49 7.72 98.8 11.66 96.68 16.16C92.98 23.67 89.17 32.55 86.85 38.68C86.35 40.06 85.41 43.94 84.79 47.38C83.54 54.01 83.6 54.01 78.6 55.26C77.59 55.51 72.34 57.01 67.02 58.58C61.7 60.14 56.64 61.58 55.76 61.71C55.66 61.73 55.14 61.83 54.2 62.02C54.19 61.38 54.15 56.28 54.14 55.64C51.59 42.08 47.07 31.57 40.56 24.11C36.87 19.85 36.43 17.91 39.37 19.04Z" id="b5F5738Cm"></path><path d="M64.9 12.16C68.4 11.03 73.4 12.72 76.03 16.04C77.78 18.23 77.97 18.91 77.97 22.73C77.97 26.55 77.78 27.23 76.03 29.42C72.9 33.3 68.27 34.8 64.02 33.18C59.7 31.55 56.76 27.3 56.83 22.67C56.89 17.73 59.89 13.85 64.9 12.16Z" id="aTyMGH2PZ"></path><path d="M64.9 12.16C68.4 11.03 73.4 12.72 76.03 16.04C77.78 18.23 77.97 18.91 77.97 22.73C77.97 26.55 77.78 27.23 76.03 29.42C72.9 33.3 68.27 34.8 64.02 33.18C59.7 31.55 56.76 27.3 56.83 22.67C56.89 17.73 59.89 13.85 64.9 12.16Z" id="b1COehJMp"></path></defs><g><g><g><use xlink:href="#aA3JPM4CM" opacity="1" fill="#0a509c" fill-opacity="1"></use><g><use xlink:href="#aA3JPM4CM" opacity="1" fill-opacity="0" stroke="#000000" stroke-width="1" stroke-opacity="0"></use></g></g><g><use xlink:href="#b2c47cvEqh" opacity="1" fill="#000000" fill-opacity="0"></use><g><use xlink:href="#b2c47cvEqh" opacity="1" fill-opacity="0" stroke="#000000" stroke-width="1" stroke-opacity="0"></use></g></g><g><use xlink:href="#a8w7GDiDK4" opacity="1" fill="#0a509c" fill-opacity="1"></use><g><use xlink:href="#a8w7GDiDK4" opacity="1" fill-opacity="0" stroke="#000000" stroke-width="1" stroke-opacity="0"></use></g></g><g><use xlink:href="#c7iFhpyCA" opacity="1" fill="#000000" fill-opacity="0"></use><g><use xlink:href="#c7iFhpyCA" opacity="1" fill-opacity="0" stroke="#000000" stroke-width="1" stroke-opacity="0"></use></g></g><g><use xlink:href="#e1vm1pILVl" opacity="1" fill="#0a509c" fill-opacity="1"></use><g><use xlink:href="#e1vm1pILVl" opacity="1" fill-opacity="0" stroke="#000000" stroke-width="1" stroke-opacity="0"></use></g></g><g><use xlink:href="#ehwdr6ol8" opacity="1" fill="#000000" fill-opacity="0"></use><g><use xlink:href="#ehwdr6ol8" opacity="1" fill-opacity="0" stroke="#000000" stroke-width="1" stroke-opacity="0"></use></g></g><g><use xlink:href="#aJiCE5xyS" opacity="1" fill="#0a509c" fill-opacity="1"></use><g><use xlink:href="#aJiCE5xyS" opacity="1" fill-opacity="0" stroke="#000000" stroke-width="1" stroke-opacity="0"></use></g></g><g><use xlink:href="#dG8qkSquX" opacity="1" fill="#000000" fill-opacity="0"></use><g><use xlink:href="#dG8qkSquX" opacity="1" fill-opacity="0" stroke="#000000" stroke-width="1" stroke-opacity="0"></use></g></g><g><use xlink:href="#baPJWdqpN" opacity="1" fill="#0a509c" fill-opacity="1"></use><g><use xlink:href="#baPJWdqpN" opacity="1" fill-opacity="0" stroke="#000000" stroke-width="1" stroke-opacity="0"></use></g></g><g><use xlink:href="#fOgMEnL5e" opacity="1" fill="#000000" fill-opacity="0"></use><g><use xlink:href="#fOgMEnL5e" opacity="1" fill-opacity="0" stroke="#000000" stroke-width="1" stroke-opacity="0"></use></g></g><g><use xlink:href="#d1NlUwPcit" opacity="1" fill="#0a509c" fill-opacity="1"></use><g><use xlink:href="#d1NlUwPcit" opacity="1" fill-opacity="0" stroke="#000000" stroke-width="1" stroke-opacity="0"></use></g></g><g><use xlink:href="#e1ieoi18Wl" opacity="1" fill="#000000" fill-opacity="0"></use><g><use xlink:href="#e1ieoi18Wl" opacity="1" fill-opacity="0" stroke="#000000" stroke-width="1" stroke-opacity="0"></use></g></g><g><use xlink:href="#b30EVTJS8" opacity="1" fill="#0a509c" fill-opacity="1"></use><g><use xlink:href="#b30EVTJS8" opacity="1" fill-opacity="0" stroke="#000000" stroke-width="1" stroke-opacity="0"></use></g></g><g><use xlink:href="#aOMpAmsK" opacity="1" fill="#000000" fill-opacity="0"></use><g><use xlink:href="#aOMpAmsK" opacity="1" fill-opacity="0" stroke="#000000" stroke-width="1" stroke-opacity="0"></use></g></g><g><use xlink:href="#b1lrM7N6c0" opacity="1" fill="#0a509c" fill-opacity="1"></use><g><use xlink:href="#b1lrM7N6c0" opacity="1" fill-opacity="0" stroke="#000000" stroke-width="1" stroke-opacity="0"></use></g></g><g><use xlink:href="#a1Eub22PM3" opacity="1" fill="#000000" fill-opacity="0"></use><g><use xlink:href="#a1Eub22PM3" opacity="1" fill-opacity="0" stroke="#000000" stroke-width="1" stroke-opacity="0"></use></g></g><g><use xlink:href="#a1PWGvkYrU" opacity="1" fill="#0a509c" fill-opacity="1"></use><g><use xlink:href="#a1PWGvkYrU" opacity="1" fill-opacity="0" stroke="#000000" stroke-width="1" stroke-opacity="0"></use></g></g><g><use xlink:href="#aCmRWhhBB" opacity="1" fill="#000000" fill-opacity="0"></use><g><use xlink:href="#aCmRWhhBB" opacity="1" fill-opacity="0" stroke="#000000" stroke-width="1" stroke-opacity="0"></use></g></g><g><use xlink:href="#f9qd0uoSxm" opacity="1" fill="#0a509c" fill-opacity="1"></use><g><use xlink:href="#f9qd0uoSxm" opacity="1" fill-opacity="0" stroke="#000000" stroke-width="1" stroke-opacity="0"></use></g></g><g><use xlink:href="#a2aiZqX8fZ" opacity="1" fill="#000000" fill-opacity="0"></use><g><use xlink:href="#a2aiZqX8fZ" opacity="1" fill-opacity="0" stroke="#000000" stroke-width="1" stroke-opacity="0"></use></g></g><g><use xlink:href="#b1EcebDUwF" opacity="1" fill="#fdd404" fill-opacity="1"></use><g><use xlink:href="#b1EcebDUwF" opacity="1" fill-opacity="0" stroke="#000000" stroke-width="1" stroke-opacity="0"></use></g></g><g><use xlink:href="#b5F5738Cm" opacity="1" fill="#000000" fill-opacity="0"></use><g><use xlink:href="#b5F5738Cm" opacity="1" fill-opacity="0" stroke="#000000" stroke-width="1" stroke-opacity="0"></use></g></g><g><use xlink:href="#aTyMGH2PZ" opacity="1" fill="#fdd404" fill-opacity="1"></use><g><use xlink:href="#aTyMGH2PZ" opacity="1" fill-opacity="0" stroke="#000000" stroke-width="1" stroke-opacity="0"></use></g></g><g><use xlink:href="#b1COehJMp" opacity="1" fill="#000000" fill-opacity="0"></use><g><use xlink:href="#b1COehJMp" opacity="1" fill-opacity="0" stroke="#000000" stroke-width="1" stroke-opacity="0"></use></g></g></g></g></svg>