<?xml version="1.0" encoding="UTF-8" standalone="no"?>
<!DOCTYPE svg PUBLIC "-//W3C//DTD SVG 1.1//EN" "http://www.w3.org/Graphics/SVG/1.1/DTD/svg11.dtd">
<svg version="1.1" xmlns="http://www.w3.org/2000/svg" xmlns:xlink="http://www.w3.org/1999/xlink" preserveAspectRatio="xMidYMid meet" viewBox="0 0 132 99" width="132" height="99"><defs><path d="M17.63 47.46C16.56 45.46 16.18 44.54 13.49 44.54C11.55 44.54 9.91 46.03 9.91 47.81C9.91 49.52 10.91 50.44 14.7 52.01C18.06 53.43 18.99 53.86 20.35 54.85C22.5 56.42 23.64 58.63 23.64 61.33C23.64 66.74 19.2 70.94 13.49 70.94C4.97 70.94 4.41 64.16 4 60.3C4.51 60.3 8.61 60.3 9.12 60.3C8.98 64.15 10.84 66.31 13.56 66.31C16.35 66.31 18.42 64.32 18.42 61.61C18.42 59.41 17.35 58.34 13.63 56.78C6.77 53.86 5.05 52.08 5.05 48.17C5.05 43.47 8.77 39.91 13.7 39.91C19.5 39.91 21.71 43.08 22.54 47.49C22.22 47.48 20.58 47.47 17.63 47.46" id="a3M2uk2ei"></path><path d="M124.04 70.08L118.96 70.08L118.96 45.25L115.89 45.25L115.89 40.55L118.96 40.55L118.96 29.88L124.04 29.88L124.04 40.55L128 40.55L128 45.25L124.04 45.25L124.04 70.08" id="b1dHeWPc0"></path><path d="M67.52 54.1C67.52 48.92 71.74 44.73 76.93 44.73C82.13 44.73 86.34 48.92 86.34 54.1C86.34 59.27 82.13 63.47 76.93 63.47C71.74 63.47 67.52 59.27 67.52 54.1" id="b1lmU4da6h"></path><path d="M77.21 34.81C73.02 34.81 69.14 36.14 65.94 38.39C66.98 33.06 68.34 26.05 68.68 24.34C71.64 24.34 91.88 24.34 91.88 24.34C91.88 24.06 91.88 22.69 91.88 20.21L65.26 20.21C62.49 34.44 60.95 42.34 60.64 43.92C60.59 44.01 60.53 44.09 60.47 44.18C60.92 44.25 64.52 44.85 64.98 44.93C67.81 41.29 72.24 38.94 77.21 38.94C85.76 38.94 92.71 45.86 92.71 54.37C92.71 62.88 85.76 69.8 77.21 69.8C69.05 69.8 62.36 63.49 61.76 55.52C61.35 55.53 58.04 55.59 57.62 55.6C58.26 65.81 66.79 73.93 77.21 73.93C88.04 73.93 96.86 65.16 96.86 54.37C96.86 43.59 88.04 34.81 77.21 34.81" id="f3AgJonr"></path><path d="M112.04 39.86C111.6 39.76 109.82 39.51 105.23 41.33C104.78 41.51 104.37 41.71 103.99 41.94C103.99 41.84 103.99 41.33 103.99 40.43L98.98 40.43C98.98 47.04 98.98 50.7 98.98 51.44C98.93 52.24 98.96 52.78 98.96 52.86C98.96 52.86 98.97 52.86 98.98 52.86L98.98 70.05L103.99 70.05C103.99 58.96 103.99 52.81 103.99 51.57C104.1 49.97 104.65 46.93 107.09 45.96C110.2 44.72 111.13 44.87 111.14 44.87C111.2 44.86 111.47 44.83 111.96 44.79L112.04 39.86" id="amO9v9lqx"></path><path d="M31.24 55.18C31.24 49.47 35.91 44.82 41.65 44.82C47.38 44.82 52.05 49.47 52.05 55.18C52.05 60.89 47.38 65.54 41.65 65.54C35.91 65.54 31.24 60.89 31.24 55.18ZM41.65 39.84C37.61 39.84 33.93 41.4 31.17 43.94C31.17 43.73 31.17 42.69 31.17 40.82L26.17 40.82L26.17 78.8L31.17 78.8C31.17 71.37 31.17 67.25 31.17 66.42C33.93 68.96 37.61 70.52 41.65 70.52C50.15 70.52 57.06 63.64 57.06 55.18C57.06 46.72 50.15 39.84 41.65 39.84" id="b91hfeD4ST"></path></defs><g><g><g><use xlink:href="#a3M2uk2ei" opacity="1" fill="#231f20" fill-opacity="1"></use><g><use xlink:href="#a3M2uk2ei" opacity="1" fill-opacity="0" stroke="#000000" stroke-width="1" stroke-opacity="0"></use></g></g><g><use xlink:href="#b1dHeWPc0" opacity="1" fill="#231f20" fill-opacity="1"></use><g><use xlink:href="#b1dHeWPc0" opacity="1" fill-opacity="0" stroke="#000000" stroke-width="1" stroke-opacity="0"></use></g></g><g><use xlink:href="#b1lmU4da6h" opacity="1" fill="#0077c0" fill-opacity="1"></use><g><use xlink:href="#b1lmU4da6h" opacity="1" fill-opacity="0" stroke="#000000" stroke-width="1" stroke-opacity="0"></use></g></g><g><use xlink:href="#f3AgJonr" opacity="1" fill="#0077c0" fill-opacity="1"></use><g><use xlink:href="#f3AgJonr" opacity="1" fill-opacity="0" stroke="#000000" stroke-width="1" stroke-opacity="0"></use></g></g><g><use xlink:href="#amO9v9lqx" opacity="1" fill="#231f20" fill-opacity="1"></use><g><use xlink:href="#amO9v9lqx" opacity="1" fill-opacity="0" stroke="#000000" stroke-width="1" stroke-opacity="0"></use></g></g><g><use xlink:href="#b91hfeD4ST" opacity="1" fill="#231f20" fill-opacity="1"></use><g><use xlink:href="#b91hfeD4ST" opacity="1" fill-opacity="0" stroke="#000000" stroke-width="1" stroke-opacity="0"></use></g></g></g></g></svg>