<?xml version="1.0" encoding="UTF-8" standalone="no"?>
<svg
   xmlns:dc="http://purl.org/dc/elements/1.1/"
   xmlns:cc="http://creativecommons.org/ns#"
   xmlns:rdf="http://www.w3.org/1999/02/22-rdf-syntax-ns#"
   xmlns:svg="http://www.w3.org/2000/svg"
   xmlns="http://www.w3.org/2000/svg"
   xmlns:sodipodi="http://sodipodi.sourceforge.net/DTD/sodipodi-0.dtd"
   xmlns:inkscape="http://www.inkscape.org/namespaces/inkscape"
   width="132"
   height="99"
   viewBox="0 0 132 98.999999"
   version="1.1"
   id="svg32"
   sodipodi:docname="Stingray_CMusic.svg"
   inkscape:version="1.0.2 (e86c870879, 2021-01-15, custom)">
  <metadata
     id="metadata38">
    <rdf:RDF>
      <cc:Work
         rdf:about="">
        <dc:format>image/svg+xml</dc:format>
        <dc:type
           rdf:resource="http://purl.org/dc/dcmitype/StillImage" />
        <dc:title>Stingray Cmusic</dc:title>
      </cc:Work>
    </rdf:RDF>
  </metadata>
  <defs
     id="defs36" />
  <sodipodi:namedview
     pagecolor="#ffffff"
     bordercolor="#666666"
     borderopacity="1"
     objecttolerance="10"
     gridtolerance="10"
     guidetolerance="10"
     inkscape:pageopacity="0"
     inkscape:pageshadow="2"
     inkscape:window-width="1920"
     inkscape:window-height="1001"
     id="namedview34"
     showgrid="false"
     inkscape:zoom="1.648"
     inkscape:cx="357.93598"
     inkscape:cy="147.26245"
     inkscape:window-x="-9"
     inkscape:window-y="-9"
     inkscape:window-maximized="1"
     inkscape:current-layer="svg32" />
  <title
     id="title2">Stingray Cmusic</title>
  <g
     id="g54"
     transform="matrix(0.124,0,0,0.124,3.9999991,31.239454)">
    <polygon
       points="574.819,15.439 574.819,1.601 516.279,1.601 516.279,15.439 538.275,15.439 538.275,77.183 552.989,77.183 552.989,15.439 "
       id="polygon4" />
    <polygon
       points="597.621,1.6 590.107,1.6 590.107,39.391 590.107,77.182 597.621,77.182 605.136,77.182 605.136,39.391 605.136,1.6 "
       id="polygon6" />
    <polygon
       points="640.498,27.942 677.457,77.183 691.769,77.183 691.769,1.601 677.055,1.601 677.055,50.965 640.098,1.601 625.778,1.601 625.778,77.183 640.498,77.183 "
       id="polygon8" />
    <path
       d="m 752.02619,51.7001 h 14.0833 c -2.43826,8.44406 -9.492,13.2546 -19.50654,13.2546 -16.888,0 -24.57532,-13.14949 -24.57532,-25.34706 0,-12.50389 8.29689,-25.77947 23.67148,-25.77947 8.68131,0 15.85808,4.43225 17.44959,10.76823 l 0.5525,2.126 h 14.636 l -0.48349,-3.24011 C 775.78473,9.87345 762.17576,0 745.498,0 c -24.92973,0 -38.3765,20.45244 -38.3765,39.70074 0,19.42242 13.44677,39.0731 39.16923,39.0731 18.13424,0 31.599,-10.35085 35.29846,-27.07374 h 7.98467 V 37.872 h -37.54767 z"
       id="path10" />
    <polygon
       points="945.681,77.175 961.993,77.175 1000,1.602 983.695,1.602 968.695,31.372 950.024,1.602 932.787,1.602 961.023,46.735 "
       id="polygon12" />
    <path
       d="M 843.8993,48.50682 A 25.22889,25.22889 0 0 0 831.2093,1.6113 H 802.01854 V 77.079 h 14.696 V 52.08925 h 12.22457 l 11.47394,25.10385 h 16.57572 z M 831.1883,38.23405 H 816.71454 V 15.43947 h 14.35061 a 11.39831,11.39831 0 0 1 0.12317,22.79458"
       id="path14" />
    <path
       d="m 907.14332,2.25067 -0.22223,-0.63964 h -13.04437 l -26.12183,75.5818 h 16.00818 l 5.59736,-16.867 h 22.107 l 5.59434,16.867 h 15.99912 z M 892.45639,47.945 900.40193,23.92218 908.37148,47.945 Z"
       id="path16" />
    <path
       d="M 488.42317,33.73554 474.80523,30.5736 c -5.61235,-1.33629 -8.402,-3.88873 -8.402,-8.15878 0,-5.35708 4.74451,-8.74729 11.79519,-8.74729 7.7864,0 12.05347,3.88571 13.75009,8.87943 h 15.4677 C 504.97786,9.87492 495.1225,0.86939 478.0753,0.86939 c -15.70491,0 -26.8845,9.501 -26.8845,23.01387 0,12.28165 8.26985,18.00208 18.972,20.44942 l 13.38972,3.03281 c 6.47417,1.46542 9.12265,3.88572 9.12265,8.402 0,5.96667 -4.9847,9.36889 -12.52189,9.36889 -7.30291,0 -12.78911,-3.03887 -14.82805,-9.61513 h -16.08632 c 2.54342,14.24853 14.35964,22.50939 31.02851,22.50939 15.828,0 27.74935,-8.75031 27.74935,-23.2541 0,-11.29969 -7.423,-18.24828 -19.5936,-21.041"
       id="path18" />
    <path
       d="M 187.90336,124.42228 H 233.838 v 17.48566 a 38.66486,38.66486 0 0 1 10.07458,-11.558 c 7.11373,-5.92768 18.6717,-11.558 35.86,-11.558 11.26074,0 25.48526,2.96386 37.63477,15.705 a 55.79589,55.79589 0 0 1 9.7803,13.63595 67.20679,67.20679 0 0 1 11.85228,-14.22753 c 9.77728,-8.89145 23.116,-15.11338 40.30126,-15.11338 11.561,0 29.93244,2.66956 43.27112,16.5968 15.40763,16.29946 17.77688,27.26288 17.77688,63.71454 v 89.79128 h -49.19272 v -87.422 c 0,-6.81649 0,-15.70793 -3.2611,-23.11595 -2.96079,-7.70233 -9.1857,-13.33268 -21.92683,-13.33268 -13.63294,0 -20.44943,6.22189 -23.70749,13.63 -3.55842,7.411 -3.55842,15.70789 -3.55842,20.44943 v 89.79128 h -49.1927 v -89.497 c 0,-4.44118 0,-13.0414 -2.96382,-20.4464 -3.25811,-7.70534 -9.18574,-13.92723 -21.63258,-13.92723 -13.92723,0 -20.74368,6.51916 -24.3021,14.51877 -3.55535,8.00263 -3.55535,16.891 -3.55535,21.92986 v 87.422 h -49.19272 z"
       id="path20" />
    <path
       d="M 606.76021,288.89455 H 560.82856 V 271.412 c -5.63338,7.9996 -16.00219,23.11293 -45.63736,23.11293 -55.71195,0 -61.3423,-45.04577 -61.3423,-67.26687 V 124.42233 h 49.19275 v 89.79431 c 0,18.07714 3.84965,34.07635 26.07977,34.07635 24.59337,0 28.446,-17.48258 28.446,-34.37363 v -89.497 h 49.19275 z"
       id="path22" />
    <path
       d="m 697.62295,170.65419 c -0.29738,-3.55837 -0.88891,-12.44679 -15.4107,-12.44679 -10.37189,0 -13.92724,6.51619 -13.92724,10.96342 0,7.41105 12.14658,12.44679 25.18794,16.30249 27.86051,7.70228 57.4926,15.99916 57.4926,51.559 0,36.15735 -30.52393,57.49261 -66.97558,57.49261 -24.89368,0 -62.52538,-11.2607 -66.97261,-54.52582 h 48.89538 c 2.075,15.11035 16.59679,15.11035 18.67179,15.11035 8.29688,0 17.18832,-4.73846 17.18832,-12.73807 0,-11.26372 -12.15253,-12.74412 -43.56235,-24.89367 -21.33832,-6.81947 -39.11819,-20.74368 -39.11819,-42.9738 0,-34.0764 29.63512,-55.712 63.71147,-55.712 21.63561,0 58.97305,8.59417 63.12305,51.86226 z"
       id="path24" />
    <polygon
       points="785.349,288.895 760.753,288.895 760.753,206.659 760.753,124.423 785.349,124.423 809.945,124.423 809.945,206.659 809.945,288.895 "
       id="polygon26" />
    <path
       d="m 176.65737,204.48344 c 0.50148,38.37948 -23.94177,76.01122 -67.04771,86.87255 C 61.33281,303.51756 14.70751,274.92136 2.76216,227.50633 -9.036,180.66483 17.90255,133.541 65.60586,121.52363 c 42.24114,-10.64209 83.46129,8.61821 101.35229,45.67341 L 118.68129,179.3586 C 110.75977,169.74343 98.379,160.63279 78.55115,165.62954 A 35.31867,35.31867 0 0 0 53.78664,183.7848 c -4.72951,9.13768 -5.85858,20.42541 -2.96381,31.91732 5.86455,23.27811 25.43717,36.68588 48.13873,30.96541 19.83082,-4.99373 26.41908,-18.87592 29.13066,-29.95045 z"
       id="path28" />
    <path
       d="m 996.23379,204.48344 c 0.49843,38.37948 -23.94484,76.01122 -67.04771,86.87255 -48.27685,12.16157 -94.9052,-16.43463 -106.84751,-63.84966 -11.80128,-46.8415 15.14036,-93.96529 62.84364,-105.9827 42.24118,-10.64209 83.46131,8.61821 101.35233,45.67341 l -48.27988,12.16156 c -7.9185,-9.61517 -20.29931,-18.72581 -40.13016,-13.72906 A 35.32463,35.32463 0 0 0 873.36,183.7848 c -4.7265,9.13768 -5.8556,20.42541 -2.96079,31.91732 5.86449,23.27811 25.4371,36.68584 48.13866,30.96541 19.82783,-4.99373 26.41911,-18.87592 29.12771,-29.95045 z"
       id="path30" />
  </g>
</svg>
