<?xml version="1.0" encoding="UTF-8" standalone="no"?>
<svg
   xmlns:dc="http://purl.org/dc/elements/1.1/"
   xmlns:cc="http://creativecommons.org/ns#"
   xmlns:rdf="http://www.w3.org/1999/02/22-rdf-syntax-ns#"
   xmlns:svg="http://www.w3.org/2000/svg"
   xmlns="http://www.w3.org/2000/svg"
   xmlns:sodipodi="http://sodipodi.sourceforge.net/DTD/sodipodi-0.dtd"
   xmlns:inkscape="http://www.inkscape.org/namespaces/inkscape"
   width="132"
   height="99"
   version="1.1"
   id="svg34"
   sodipodi:docname="Stingray_Classica.svg"
   inkscape:version="1.0.2 (e86c870879, 2021-01-15, custom)">
  <metadata
     id="metadata40">
    <rdf:RDF>
      <cc:Work
         rdf:about="">
        <dc:format>image/svg+xml</dc:format>
        <dc:type
           rdf:resource="http://purl.org/dc/dcmitype/StillImage" />
        <dc:title></dc:title>
      </cc:Work>
    </rdf:RDF>
  </metadata>
  <defs
     id="defs38" />
  <sodipodi:namedview
     pagecolor="#ffffff"
     bordercolor="#666666"
     borderopacity="1"
     objecttolerance="10"
     gridtolerance="10"
     guidetolerance="10"
     inkscape:pageopacity="0"
     inkscape:pageshadow="2"
     inkscape:window-width="1920"
     inkscape:window-height="1001"
     id="namedview36"
     showgrid="false"
     inkscape:zoom="1.648"
     inkscape:cx="500"
     inkscape:cy="125.01952"
     inkscape:window-x="-9"
     inkscape:window-y="-9"
     inkscape:window-maximized="1"
     inkscape:current-layer="svg34" />
  <g
     id="g58"
     transform="matrix(0.12399999,0,0,0.12399999,4.00001,33.997466)">
    <polygon
       points="589.337,1.359 589.337,13.107 608.01,13.107 608.01,65.525 620.502,65.525 620.502,13.107 639.037,13.107 639.037,1.359 "
       fill="#494949"
       id="polygon2" />
    <rect
       x="652.01392"
       y="1.3587101"
       width="12.75909"
       height="64.166222"
       fill="#494949"
       id="rect4" />
    <polygon
       points="738.323,65.525 738.323,1.359 725.832,1.359 725.832,43.267 694.457,1.359 682.296,1.359 682.296,65.525 694.796,65.525 694.796,23.721 726.171,65.525 "
       fill="#494949"
       id="polygon6" />
    <path
       d="m 789.47887,43.89051 h 11.95795 c -2.071,7.1685 -8.0585,11.25368 -16.56166,11.25368 -14.33594,0 -20.865,-11.16447 -20.865,-21.52012 0,-10.61492 7.04688,-21.88462 20.09694,-21.88462 7.36991,0 13.46231,3.76214 14.8137,9.14191 l 0.4687,1.80441 h 12.427 l -0.41259,-2.75122 C 809.64865,8.38154 798.09493,0 783.93706,0 c -21.16467,0 -32.58073,17.3621 -32.58073,33.70457 0,16.48882 11.41606,33.1707 33.25193,33.1707 15.39632,0 26.82807,-8.78577 29.96713,-22.98476 h 6.7803 V 32.15106 h -31.87682 z"
       fill="#494949"
       id="path8" />
    <polygon
       points="1000,1.359 986.157,1.359 973.423,26.634 957.574,1.359 942.938,1.359 966.91,39.675 953.884,65.517 967.736,65.517 "
       fill="#494949"
       id="polygon10" />
    <path
       d="M 867.47853,41.18042 A 21.41963,21.41963 0 0 0 856.70262,1.36707 h -24.7808 v 64.0683 h 12.47473 V 44.22261 h 10.38 l 9.74095,21.30964 h 14.0697 z m -10.79229,-8.7213 H 844.39655 V 13.10652 H 856.581 a 9.67716,9.67716 0 0 1 0.10524,19.3526"
       fill="#494949"
       id="path12" />
    <path
       d="M 921.16679,1.90965 920.9814,1.36707 H 909.90475 L 887.7295,65.53225 h 13.5916 l 4.74867,-14.31991 h 18.77065 l 4.74868,14.31991 h 13.58427 z m -12.46742,38.7937 6.74789,-20.39593 6.76359,20.39593 z"
       fill="#494949"
       id="path14" />
    <path
       d="m 565.68886,28.64017 -11.56105,-2.68605 c -4.76541,-1.13255 -7.13539,-3.30041 -7.13539,-6.92491 0,-4.54761 4.02873,-7.42741 10.01591,-7.42741 6.60952,0 10.234,3.30076 11.67394,7.54 h 13.13124 C 579.74217,8.38154 571.37631,0.736 556.90307,0.736 543.57,0.736 534.08,8.8025 534.08,20.27432 c 0,10.42848 7.02179,15.28344 16.1076,17.3628 l 11.36727,2.57244 c 5.49372,1.24615 7.74278,3.30042 7.74278,7.13539 0,5.06544 -4.23154,7.95326 -10.63058,7.95326 -6.198,0 -10.85782,-2.58046 -12.5894,-8.16374 h -13.65641 c 2.15985,12.09559 12.19247,19.11041 26.34267,19.11041 13.43757,0 23.55905,-7.42741 23.55905,-19.7408 0,-9.59528 -6.30219,-15.49393 -16.63412,-17.86391"
       fill="#494949"
       id="path16" />
    <path
       d="M 218.939,237.60078 V 33.97051 h -5.05528 l -0.51727,0.75889 A 65.0449,65.0449 0 0 1 194.282,53.08733 56.05691,56.05691 0 0 1 169.18256,61.59844 l -1.58243,0.14633 v 5.60658 h 3.5375 c 1.54671,0 2.44342,0.45942 2.44342,2.80754 v 167.44189 c 0,1.85468 -0.616,2.48085 -2.44342,2.48085 h -3.5375 v 5.76142 h 57.02206 v -5.76142 h -3.53581 c -1.39186,0 -2.14738,-0.39476 -2.14738,-2.48085 z"
       fill="#bb9c66"
       id="path18" />
    <path
       d="m 381.7204,123.50222 a 69.25764,69.25764 0 0 1 -20.92215,-18.5468 l -0.52408,-0.69764 h -4.89023 v 20.558 a 68.62616,68.62616 0 0 0 -21.94648,-14.8953 71.99832,71.99832 0 0 0 -28.3,-5.66273 68.8449,68.8449 0 0 0 -27.66707,5.66954 71.90969,71.90969 0 0 0 -22.64071,15.48573 76.35169,76.35169 0 0 0 -15.29515,22.44333 64.93923,64.93923 0 0 0 -5.67635,26.7091 67.92327,67.92327 0 0 0 5.838,28.00737 73.92375,73.92375 0 0 0 15.64057,22.62369 72.62244,72.62244 0 0 0 22.80236,15.14372 69.82839,69.82839 0 0 0 55.50428,-0.50365 78.836,78.836 0 0 0 21.74059,-14.63326 v 12.39743 c 0,1.85468 -0.62616,2.48085 -2.48084,2.48085 h -3.69235 v 5.76142 H 410.861 v -5.76142 h -3.69234 c -2.34813,0 -2.80755,-0.90863 -2.80755,-2.48085 v -97.15628 c 0,-1.57223 0.45942,-2.48255 2.80755,-2.48255 h 3.69234 v -5.58787 l -1.562,-0.16334 a 69.02745,69.02745 0 0 1 -27.5786,-8.70849 z m -95.80359,92.19292 c -0.75208,-9.62392 -1.02432,-20.72138 -0.80823,-33.00991 V 167.385 c -0.21609,-12.04011 0.0562,-23.08141 0.80823,-32.81933 0.71976,-9.3789 3.11723,-16.16975 7.12946,-20.18368 2.93856,-2.93687 6.68025,-4.36446 11.44117,-4.36446 h 0.65 a 65.21,65.21 0 0 1 47.182,19.95908 10.58276,10.58276 0 0 1 3.06447,7.86963 V 212.258 a 9.561,9.561 0 0 1 -3.40988,7.88494 66.63564,66.63564 0 0 1 -20.90514,14.5686 62.99859,62.99859 0 0 1 -25.93149,5.37007 h -0.65 a 16.66936,16.66936 0 0 1 -11.41224,-4.00883 c -4.02916,-4.22661 -6.43859,-11.08042 -7.15835,-20.37764 z"
       fill="#bb9c66"
       id="path20" />
    <path
       d="m 683.66233,237.60078 v -133.343 h -4.80175 l -0.52067,0.764 a 62.62033,62.62033 0 0 1 -45.13849,27.19063 l -1.545,0.17526 v 5.57425 h 3.57324 c 1.44291,0 2.22562,0.39646 2.22562,2.48255 v 97.15631 c 0,2.08609 -0.78271,2.48085 -2.22562,2.48085 h -3.57324 v 5.76142 h 58.10764 v -5.76142 h -3.57324 c -1.89211,0 -2.52849,-0.62617 -2.52849,-2.48085 z"
       fill="#bb9c66"
       id="path22" />
    <path
       d="m 988.57856,137.96192 h 3.69234 v -5.58787 l -1.562,-0.16334 a 68.30705,68.30705 0 0 1 -48.50074,-27.25529 l -0.52407,-0.69764 h -4.88683 v 20.56143 a 68.62293,68.62293 0 0 0 -21.94988,-14.8987 72.01058,72.01058 0 0 0 -28.3,-5.66273 68.83525,68.83525 0 0 0 -27.66706,5.67124 71.93474,71.93474 0 0 0 -22.64071,15.484 76.341,76.341 0 0 0 -15.29346,22.445 64.91009,64.91009 0 0 0 -5.67634,26.7074 67.9493,67.9493 0 0 0 5.83629,28.00737 73.89407,73.89407 0 0 0 15.64056,22.62369 72.72126,72.72126 0 0 0 22.80066,15.14712 68.9633,68.9633 0 0 0 27.00006,5.49939 68.23608,68.23608 0 0 0 28.50422,-6.00644 78.78762,78.78762 0 0 0 21.7457,-14.63326 v 12.39743 c 0,1.85468 -0.62617,2.48085 -2.48425,2.48085 h -3.69234 v 5.76142 h 61.65019 v -5.76142 h -3.69234 c -2.34813,0 -2.80754,-0.90863 -2.80754,-2.48085 v -97.15625 c -2e-5,-1.57223 0.45941,-2.48255 2.80754,-2.48255 z M 874.4868,236.0728 c -4.02925,-4.22663 -6.43863,-11.08044 -7.16008,-20.37766 -0.75208,-9.62392 -1.02433,-20.72138 -0.80653,-33.00991 V 167.385 c -0.2178,-12.04011 0.0545,-23.08141 0.80653,-32.81933 0.72145,-9.3806 3.12062,-16.17145 7.12946,-20.18368 2.93686,-2.93687 6.68025,-4.36446 11.44116,-4.36446 h 0.65 a 65.21,65.21 0 0 1 47.18374,19.95908 10.58538,10.58538 0 0 1 3.06618,7.86963 V 212.258 a 9.5752,9.5752 0 0 1 -3.40989,7.88494 66.76642,66.76642 0 0 1 -20.90514,14.5686 63.0087,63.0087 0 0 1 -25.93489,5.37007 h -0.65 A 16.665,16.665 0 0 1 874.4868,236.0728 Z"
       fill="#bb9c66"
       id="path24" />
    <path
       d="M 153.22891,76.48863 A 103.53186,103.53186 0 0 0 126.76314,62.63638 92.46665,92.46665 0 0 0 95.84953,57.54877 92.68412,92.68412 0 0 0 58.47687,65.24654 98.85307,98.85307 0 0 0 28.01418,85.83354 96.89354,96.89354 0 0 0 7.55655,116.3098 a 96.7469,96.7469 0 0 0 0,74.96822 96.86659,96.86659 0 0 0 20.45763,30.4746 98.78771,98.78771 0 0 0 30.4644,20.58865 93.01321,93.01321 0 0 0 37.63979,7.69778 92.08989,92.08989 0 0 0 30.64647,-5.08761 103.65511,103.65511 0 0 0 26.48959,-13.871 2.06252,2.06252 0 0 1 0.60916,-0.26884 l 1.22681,-0.38115 v -7.53782 l -2.81435,2.19158 a 96.40392,96.40392 0 0 1 -25.35637,14.167 86.53174,86.53174 0 0 1 -30.53076,5.4143 h -1.61817 c -10.13948,0 -18.52468,-1.40207 -24.92418,-4.17218 -6.3995,-2.77011 -10.55466,-5.16588 -12.3651,-7.14307 A 26.97414,26.97414 0 0 1 51.67071,222.828 80.3005,80.3005 0 0 1 48.64026,207.2623 C 48.0192,201.32392 47.65847,194.80021 47.5717,187.87153 Q 47.43131,177.36622 47.43727,165.78212 V 141.804 q 0,-11.5773 0.13443,-22.08941 c 0.08677,-6.927 0.4475,-13.45069 1.06856,-19.39077 a 80.38955,80.38955 0 0 1 3.03045,-15.5691 27.035,27.035 0 0 1 5.82438,-10.53255 c 1.79682,-1.96187 5.952,-4.36105 12.34978,-7.12945 6.4046,-2.76671 14.7915,-4.17048 24.92588,-4.17048 h 1.61817 a 86.52628,86.52628 0 0 1 30.52906,5.4143 96.436,96.436 0 0 1 25.35977,14.16533 l 2.81265,2.19159 v -7.53953 l -1.22681,-0.37944 a 2.01,2.01 0 0 1 -0.63468,-0.28586 z"
       fill="#bb9c66"
       id="path26" />
    <path
       d="m 513.26317,190.51573 a 79.2181,79.2181 0 0 0 -11.02259,-15.47042 c -4.36275,-4.829 -9.09306,-9.55926 -14.06494,-14.06834 -4.89363,-4.43082 -9.55926,-8.89907 -13.871,-13.28224 a 78.69563,78.69563 0 0 1 -10.54956,-13.05933 23.97392,23.97392 0 0 1 -3.98161,-12.91129 8.78937,8.78937 0 0 1 3.774,-7.22645 14.33416,14.33416 0 0 1 9.12026,-3.0951 49.70894,49.70894 0 0 1 13.85055,1.90913 45.2653,45.2653 0 0 1 11.904,5.33092 21.07767,21.07767 0 0 1 3.92376,3.0866 q 1.169,1.24553 1.562,1.659 c 0.41518,0.68913 1.106,1.82576 2.08269,3.40139 a 10.65516,10.65516 0 0 1 1.3238,5.61508 v 9.85023 h 5.06719 v -28.20646 h -5.06719 l -0.0102,5.63551 -1.56542,-1.56712 a 28.21176,28.21176 0 0 0 -4.60437,-3.57154 44.76715,44.76715 0 0 0 -13.16993,-5.97071 57.66892,57.66892 0 0 0 -15.49764,-2.04185 60.5102,60.5102 0 0 0 -17.10389,2.34643 47.22387,47.22387 0 0 0 -13.95945,6.57816 33.59026,33.59026 0 0 0 -9.59329,10.21946 25.886,25.886 0 0 0 -3.60727,13.45238 29.28662,29.28662 0 0 0 4.82557,15.97067 82.67378,82.67378 0 0 0 11.71341,14.2419 c 4.59417,4.53291 9.61031,9.15089 14.91912,13.728 5.1931,4.48186 10.14459,9.16791 14.71153,13.92541 a 77.208,77.208 0 0 1 11.22,14.79321 32.00506,32.00506 0 0 1 4.31851,16.14082 15.573,15.573 0 0 1 -1.90572,8.26949 12.99891,12.99891 0 0 1 -4.80175,4.6418 19.88146,19.88146 0 0 1 -6.459,2.178 43.1998,43.1998 0 0 1 -6.64963,0.57512 52.93337,52.93337 0 0 1 -13.6872,-1.71856 47.72893,47.72893 0 0 1 -11.64194,-4.77112 37.62718,37.62718 0 0 1 -8.98414,-7.18391 28.07051,28.07051 0 0 1 -2.5353,-3.28057 l -0.51727,-0.7725 h -5.58105 l 1.71855,2.68163 a 37.32378,37.32378 0 0 0 9.03179,9.675 50.60342,50.60342 0 0 0 14.538,7.48 55.81089,55.81089 0 0 0 17.65859,2.7565 63.72806,63.72806 0 0 0 18.60806,-2.6442 45.8428,45.8428 0 0 0 15.205,-7.82028 36.19629,36.19629 0 0 0 10.17522,-12.66628 38.5037,38.5037 0 0 0 3.6379,-16.978 37.30352,37.30352 0 0 0 -4.458,-17.83215 z"
       fill="#bb9c66"
       id="path28" />
    <path
       d="m 603.86344,175.04531 c -4.38657,-4.84939 -9.12026,-9.58308 -14.06834,-14.06834 -4.86981,-4.4138 -9.53544,-8.882 -13.86756,-13.28224 A 78.80027,78.80027 0 0 1 565.378,134.6354 a 23.93934,23.93934 0 0 1 -3.98161,-12.91129 8.7827,8.7827 0 0 1 3.774,-7.22645 14.33416,14.33416 0 0 1 9.12026,-3.0951 49.72655,49.72655 0 0 1 13.85055,1.90913 45.155,45.155 0 0 1 11.904,5.33092 20.76946,20.76946 0 0 1 3.92036,3.0866 c 0.7759,0.827 1.29657,1.38 1.56882,1.66071 q 0.62275,1.03623 2.07928,3.398 a 10.68671,10.68671 0 0 1 1.3238,5.61679 v 9.85023 h 5.06379 v -28.20649 h -5.06379 l -0.0102,5.63721 -1.56882,-1.57052 a 28.21749,28.21749 0 0 0 -4.60443,-3.56814 44.58688,44.58688 0 0 0 -13.16653,-5.97241 57.66892,57.66892 0 0 0 -15.49764,-2.04185 60.58615,60.58615 0 0 0 -17.1073,2.34643 47.24134,47.24134 0 0 0 -13.956,6.57646 33.52865,33.52865 0 0 0 -9.58989,10.22116 25.82169,25.82169 0 0 0 -3.61067,13.45238 29.32361,29.32361 0 0 0 4.82217,15.97067 82.85925,82.85925 0 0 0 11.71686,14.24531 c 4.635,4.56693 9.65794,9.18492 14.91911,13.72123 5.23735,4.52269 10.18543,9.20874 14.71153,13.92881 a 77.208,77.208 0 0 1 11.22,14.79321 32.00852,32.00852 0 0 1 4.31511,16.14082 15.52829,15.52829 0 0 1 -1.90913,8.27289 13.11026,13.11026 0 0 1 -4.79494,4.6384 19.90037,19.90037 0 0 1 -6.46246,2.178 43.15817,43.15817 0 0 1 -6.64622,0.57512 52.97868,52.97868 0 0 1 -13.6906,-1.71856 47.75007,47.75007 0 0 1 -11.63854,-4.77112 37.58307,37.58307 0 0 1 -8.98414,-7.18051 28.33168,28.33168 0 0 1 -2.5353,-3.284 l -0.51727,-0.7725 h -5.58786 l 1.722,2.68163 a 37.44029,37.44029 0 0 0 9.03178,9.675 50.69232,50.69232 0 0 0 14.538,7.48 55.84757,55.84757 0 0 0 17.662,2.7565 63.72806,63.72806 0 0 0 18.60806,-2.6442 45.84251,45.84251 0 0 0 15.205,-7.82028 36.24366,36.24366 0 0 0 10.17865,-12.66628 38.55539,38.55539 0 0 0 3.63449,-16.978 37.24836,37.24836 0 0 0 -4.46144,-17.83215 79.0339,79.0339 0 0 0 -11.01939,-15.47385 z"
       fill="#bb9c66"
       id="path30" />
    <path
       d="m 771.13518,105.61221 a 69.14185,69.14185 0 0 0 -27.41524,5.62359 74.80141,74.80141 0 0 0 -23.11374,15.46532 73.75983,73.75983 0 0 0 -15.81072,22.95209 69.07817,69.07817 0 0 0 -5.71037,25.19132 H 699 l 0.0102,2.22221 -0.0102,1.01752 0.034,1.74238 h 0.0511 a 69.09309,69.09309 0 0 0 5.71037,25.18962 73.79,73.79 0 0 0 15.81072,22.95039 74.9151,74.9151 0 0 0 23.11374,15.467 69.16979,69.16979 0 0 0 27.41524,5.6219 70.42477,70.42477 0 0 0 39.20351,-11.51944 l 0.78952,-0.51727 v -7.03417 l -2.71907,1.84447 a 65.28215,65.28215 0 0 1 -37.274,11.41734 c -4.87662,0 -8.70849,-1.46332 -11.71682,-4.47165 -4.10752,-4.10752 -6.56114,-10.94431 -7.29961,-20.3198 -0.76569,-9.7056 -1.04475,-20.87792 -0.82355,-33.23791 V 169.42 c -0.2212,-12.32936 0.0579,-23.50169 0.82355,-33.20558 0.73847,-9.37549 3.19209,-16.21228 7.29961,-20.3198 3.01173,-3.01 6.8436,-4.47336 11.71682,-4.47336 a 65.28054,65.28054 0 0 1 37.274,11.41564 l 2.71907,1.84277 v -7.03077 l -0.78952,-0.51556 a 70.41266,70.41266 0 0 0 -39.20345,-11.52113 z"
       fill="#bb9c66"
       id="path32" />
  </g>
</svg>
