<?xml version="1.0" encoding="UTF-8" standalone="no"?>
<svg
   xmlns:dc="http://purl.org/dc/elements/1.1/"
   xmlns:cc="http://creativecommons.org/ns#"
   xmlns:rdf="http://www.w3.org/1999/02/22-rdf-syntax-ns#"
   xmlns:svg="http://www.w3.org/2000/svg"
   xmlns="http://www.w3.org/2000/svg"
   xmlns:sodipodi="http://sodipodi.sourceforge.net/DTD/sodipodi-0.dtd"
   xmlns:inkscape="http://www.inkscape.org/namespaces/inkscape"
   width="132"
   height="99"
   version="1.1"
   id="svg36"
   sodipodi:docname="Stingray_iConcerts.svg"
   inkscape:version="1.0.2 (e86c870879, 2021-01-15, custom)">
  <metadata
     id="metadata42">
    <rdf:RDF>
      <cc:Work
         rdf:about="">
        <dc:format>image/svg+xml</dc:format>
        <dc:type
           rdf:resource="http://purl.org/dc/dcmitype/StillImage" />
        <dc:title></dc:title>
      </cc:Work>
    </rdf:RDF>
  </metadata>
  <defs
     id="defs40" />
  <sodipodi:namedview
     pagecolor="#ffffff"
     bordercolor="#666666"
     borderopacity="1"
     objecttolerance="10"
     gridtolerance="10"
     guidetolerance="10"
     inkscape:pageopacity="0"
     inkscape:pageshadow="2"
     inkscape:window-width="1920"
     inkscape:window-height="1001"
     id="namedview38"
     showgrid="false"
     inkscape:zoom="0.824"
     inkscape:cx="345.61115"
     inkscape:cy="250.52109"
     inkscape:window-x="-9"
     inkscape:window-y="-9"
     inkscape:window-maximized="1"
     inkscape:current-layer="svg36" />
  <g
     id="g61"
     transform="matrix(0.1240021,0,0,0.1240021,4.0000012,28.246943)">
    <polygon
       points="476.226,1.348 476.226,13.006 494.756,13.006 494.756,65.025 507.152,65.025 507.152,13.006 525.545,13.006 525.545,1.348 "
       fill="#494949"
       id="polygon2" />
    <rect
       x="538.42352"
       y="1.34833"
       width="12.66169"
       height="63.67638"
       fill="#494949"
       id="rect4" />
    <polygon
       points="624.074,65.025 624.074,1.348 611.678,1.348 611.678,42.937 580.542,1.348 568.475,1.348 568.475,65.025 580.879,65.025 580.879,23.54 612.014,65.025 "
       fill="#494949"
       id="polygon6" />
    <path
       d="m 674.83908,43.55545 h 11.86666 c -2.05518,7.11377 -7.997,11.16777 -16.43523,11.16777 -14.2265,0 -20.70569,-11.07924 -20.70569,-21.35583 0,-10.53389 6.99307,-21.71756 19.94352,-21.71756 7.31365,0 13.35954,3.73342 14.70061,9.07212 l 0.46512,1.79063 h 12.33213 l -0.40945,-2.73021 C 694.85488,8.31755 683.38937,0 669.33958,0 c -21.0031,0 -32.332,17.22956 -32.332,33.44727 0,16.36295 11.32891,32.91748 32.99808,32.91748 15.27879,0 26.62326,-8.7187 29.73837,-22.8093 h 6.72853 V 31.90562 h -31.63348 z"
       fill="#494949"
       id="path8" />
    <polygon
       points="883.753,1.348 870.016,1.348 857.379,26.43 841.651,1.348 827.127,1.348 850.916,39.372 837.99,65.016 851.735,65.016 "
       fill="#494949"
       id="polygon10" />
    <path
       d="M 752.24329,40.86605 A 21.25611,21.25611 0 0 0 741.54964,1.35663 H 716.958 v 63.57921 h 12.3795 V 43.885 h 10.3008 l 9.66658,21.147 h 13.9623 z m -10.7099,-8.65473 H 729.33752 V 13.00646 H 741.429 a 9.60329,9.60329 0 0 1 0.10444,19.20486"
       fill="#494949"
       id="path12" />
    <path
       d="m 805.52169,1.89507 -0.184,-0.53844 H 794.34563 L 772.33967,65.032 h 13.48784 l 4.71242,-14.2106 h 18.62735 l 4.71243,14.2106 h 13.48057 z m -12.37223,38.49756 6.69637,-20.24024 6.712,20.24024 z"
       fill="#494949"
       id="path14" />
    <path
       d="M 452.75747,28.42153 441.28468,25.756 c -4.729,-1.1239 -7.08092,-3.27522 -7.08092,-6.87205 0,-4.51289 3.998,-7.37071 9.93945,-7.37071 6.55906,0 10.15589,3.27557 11.58482,7.48241 h 13.031 C 466.7035,8.31755 458.4015,0.73036 444.03875,0.73036 c -13.23124,0 -22.64883,8.00494 -22.64883,19.38918 0,10.34887 6.96818,15.16678 15.98462,17.23026 l 11.2805,2.55281 c 5.45178,1.23663 7.68368,3.27521 7.68368,7.08091 0,5.02678 -4.19924,7.89255 -10.54943,7.89255 -6.15069,0 -10.77494,-2.56076 -12.49329,-8.10142 h -13.55216 c 2.14336,12.00325 12.09939,18.96452 26.14157,18.96452 13.335,0 23.37919,-7.37071 23.37919,-19.5901 0,-9.522 -6.25407,-15.37565 -16.50713,-17.72754"
       fill="#494949"
       id="path16" />
    <path
       d="m 17.99324,266.55853 q 0,0.56745 4.49878,-5.34067 4.49367,-5.90533 12.3707,-15.46384 7.86775,-9.55479 17.99324,-21.7892 10.12086,-12.2307 21.64827,-24.88234 c 0.56281,-0.56188 1.45014,-0.46545 2.67126,0.28187 a 10.27679,10.27679 0 0 1 3.23315,3.37315 13.16869,13.16869 0 0 1 1.82751,5.06066 6.025,6.025 0 0 1 -1.54657,5.06066 q -1.12654,1.41027 -5.90349,6.74816 -4.78434,5.34345 -11.246,12.65257 -6.47139,7.31283 -13.91727,15.60292 -7.4533,8.29752 -13.63541,15.32291 -6.18766,7.03188 -10.40318,11.66788 -4.21691,4.63971 -4.49785,4.91973 a 3.49438,3.49438 0 0 1 -1.40563,0.84375 11.2707,11.2707 0 0 1 -3.09314,0.28 11.65459,11.65459 0 0 1 -3.795,-1.12376 A 17.57529,17.57529 0 0 1 7.31,275.8361 25.82918,25.82918 0 0 1 2.24935,267.96417 Q -0.00509,262.90443 0,255.03158 a 71.36458,71.36458 0 0 1 4.0769,-22.772 151.07662,151.07662 0 0 1 10.40225,-23.75858 234.49292,234.49292 0 0 1 13.77634,-22.3511 q 7.44635,-10.68135 14.05728,-18.69606 6.60352,-8.0138 11.38694,-12.79165 4.77741,-4.77879 5.62254,-4.78065 a 11.10886,11.10886 0 0 1 6.32629,2.24939 26.76755,26.76755 0 0 1 5.76347,5.48346 36.872,36.872 0 0 1 4.21691,6.74631 14.4819,14.4819 0 0 1 1.6875,6.04534 q 0,1.68566 -4.35784,6.88724 -4.36293,5.20716 -10.96506,12.65257 -6.60909,7.45191 -14.33915,16.86948 a 234.36856,234.36856 0 0 0 -14.33822,19.39888 123.084,123.084 0 0 0 -10.96507,20.38356 51.56909,51.56909 0 0 0 -4.35784,19.96076 z M 94.74686,97.58746 q 2.24752,0 5.48253,2.39033 a 39.44239,39.44239 0 0 1 6.18535,5.76347 52.70922,52.70922 0 0 1 5.06066,6.74816 q 2.10845,3.37409 2.10845,5.06066 0,1.68566 -3.37315,6.46629 a 112.99865,112.99865 0 0 1 -7.87193,9.83945 88.54967,88.54967 0 0 1 -8.99755,8.85661 q -4.50063,3.79689 -6.74723,3.796 a 13.75924,13.75924 0 0 1 -5.06066,-1.12377 21.82934,21.82934 0 0 1 -5.06066,-2.81312 19.92366,19.92366 0 0 1 -3.79595,-3.655 6.0669,6.0669 0 0 1 -1.54565,-3.655 q 0,-3.37129 2.81127,-9.69851 a 95.21393,95.21393 0 0 1 6.74724,-12.51163 98.1123,98.1123 0 0 1 7.87285,-10.82414 q 3.93318,-4.6398 6.18443,-4.6398 z"
       fill="#14c6ff"
       id="path18" />
    <path
       d="m 276.7015,69.26521 a 7.01026,7.01026 0 0 1 5.76348,2.49232 17.83764,17.83764 0 0 1 3.11539,6.075 35.34414,35.34414 0 0 1 1.40193,7.32117 q 0.306,3.73848 0.31154,6.54233 0,2.80385 -6.6981,6.85386 -6.70225,4.05279 -14.95295,9.34617 a 99.38527,99.38527 0 0 0 -14.95295,11.68087 q -6.70367,6.38934 -6.6981,13.24041 0,2.49789 -0.93461,2.80386 a 5.07965,5.07965 0 0 1 -1.5577,0.31154 7.33927,7.33927 0 0 1 -2.95962,-1.09039 17.40775,17.40775 0 0 1 -4.05,-3.11539 21.44174,21.44174 0 0 1 -3.73847,-5.29617 16.93109,16.93109 0 0 1 -1.71254,-7.94425 32.84992,32.84992 0 0 1 0.31154,-4.67309 44.92246,44.92246 0 0 1 0.93369,-4.67123 q -9.34479,0.93462 -24.14243,8.56547 a 221.11215,221.11215 0 0 0 -31.153,19.93851 333.79255,333.79255 0 0 0 -32.86553,28.504 276.58663,276.58663 0 0 0 -29.90684,34.579 190.56522,190.56522 0 0 0 -21.651,37.852 98.008,98.008 0 0 0 -8.25578,38.47324 q 0,9.03741 6.23078,11.52509 6.228,2.49788 16.19911,0.31154 a 106.0701,106.0701 0 0 0 22.42989,-8.09816 252.682,252.682 0 0 0 24.76644,-13.552 q 12.303,-7.62993 23.36451,-16.04427 a 183.72484,183.72484 0 0 0 18.53561,-15.88664 33.494,33.494 0 0 1 9.34617,1.5577 5.56222,5.56222 0 0 1 3.1154,4.35969 q 0.306,2.80385 -5.29617,8.41156 a 252.798,252.798 0 0 1 -26.01259,22.275 304.45071,304.45071 0 0 1 -32.554,21.49435 216.31116,216.31116 0 0 1 -33.95684,15.8885 q -16.82172,6.075 -30.37322,5.45193 Q 64.55259,314.12009 56.14196,305.24679 47.7304,296.368 47.7304,276.11982 a 125.42567,125.42567 0 0 1 11.21448,-51.40211 221.78245,221.78245 0 0 1 29.28376,-47.97518 284.63885,284.63885 0 0 1 41.12136,-41.90017 373.11445,373.11445 0 0 1 46.41748,-33.17707 261.44882,261.44882 0 0 1 45.3271,-21.96351 q 21.96213,-7.94426 38.1617,-7.94425 h 3.42693 a 9.198,9.198 0 0 1 3.42693,0.62308 q 6.22796,-3.10983 10.59136,-3.1154 z"
       fill="#14c6ff"
       id="path20" />
    <path
       d="m 335.57407,210.69844 c 0.62307,-0.62308 1.60683,-0.51552 2.95962,0.31154 a 9.84338,9.84338 0 0 1 3.42693,3.89424 17.93669,17.93669 0 0 1 1.86924,5.76348 6.67922,6.67922 0 0 1 -1.71347,5.6077 q -4.36712,4.98741 -10.28079,10.90387 a 159.5787,159.5787 0 0 1 -12.4606,11.21356 92.45315,92.45315 0 0 1 -12.92888,8.87887 q -6.38795,3.58548 -11.37025,3.5827 a 15.298,15.298 0 0 1 -6.38656,-1.09039 20.72,20.72 0 0 1 -4.82793,-3.27116 q -4.98741,6.23634 -9.1904,10.59233 a 65.49676,65.49676 0 0 1 -8.7231,7.63271 51.1068,51.1068 0 0 1 -9.501,5.45194 53.82013,53.82013 0 0 1 -11.52695,3.42507 29.07514,29.07514 0 0 1 -11.99333,0 34.85007,34.85007 0 0 1 -11.52695,-4.35969 29.32234,29.32234 0 0 1 -8.5664,-7.78848 17.91083,17.91083 0 0 1 -3.42693,-10.90387 72.59166,72.59166 0 0 1 4.98463,-26.32321 113.69336,113.69336 0 0 1 12.92794,-24.3 156.10768,156.10768 0 0 1 17.601,-21.02705 188.9989,188.9989 0 0 1 18.8472,-16.66734 113.27247,113.27247 0 0 1 16.82311,-10.90387 q 7.62993,-3.89146 11.68179,-3.89424 a 17.68127,17.68127 0 0 1 9.03464,2.18077 22.316,22.316 0 0 1 6.22986,5.29617 q 2.17659,-4.04445 4.67308,-4.05 a 8.28434,8.28434 0 0 1 5.60771,2.64808 26.3293,26.3293 0 0 1 4.98463,6.69809 45.64413,45.64413 0 0 1 3.5827,8.87887 33.0357,33.0357 0 0 1 1.401,9.19041 q 0,3.42971 -2.80293,9.03278 a 122.52266,122.52266 0 0 1 -6.85386,11.83849 q -4.05279,6.23634 -8.87887,12.7731 -4.833,6.54232 -8.87794,12.15 -4.05279,5.6077 -6.69809,9.81163 -2.65086,4.20579 -2.33654,5.45194 0.30737,2.80384 5.29616,-1.09039 4.97907,-3.89145 11.99333,-10.43471 7.00964,-6.54233 14.48658,-14.175 7.47555,-7.62999 12.46062,-12.92894 z M 232.14769,273.939 q 3.10983,0 8.1,-3.27116 a 85.07322,85.07322 0 0 0 10.59141,-8.41156 q 5.6077,-5.1404 11.37118,-11.21541 5.76069,-6.075 10.43563,-11.68086 a 15.696,15.696 0 0 1 -0.31154,-3.11539 v -3.1154 q 0,-8.41155 6.38656,-21.652 a 239.32453,239.32453 0 0 1 15.10872,-26.63475 114.26059,114.26059 0 0 0 -17.44527,13.86164 245.25529,245.25529 0 0 0 -17.44525,18.38089 220.95257,220.95257 0 0 0 -15.26542,19.9385 155.68626,155.68626 0 0 0 -10.90294,18.379 q -4.05279,8.25858 -4.67309,13.39619 -0.62724,5.14031 4.05001,5.14031 z"
       fill="#14c6ff"
       id="path22" />
    <path
       d="m 382.92988,150.88663 q 8.41155,0 13.70772,2.33654 5.2934,2.33376 5.29524,6.3847 0,1.24894 -4.04908,5.60771 -4.05279,4.3671 -8.7231,9.96925 -4.67309,5.60771 -8.7231,10.90387 -4.0514,5.29895 -4.04908,8.41156 a 5.94583,5.94583 0 0 0 0.46731,1.86923 q 0.46731,1.24617 1.401,0.31154 0.30737,-0.30874 5.76347,-5.14039 5.44777,-4.82608 13.39619,-12.15 7.94286,-7.31561 17.44527,-15.73273 9.49915,-8.41156 17.91257,-15.41934 8.41156,-7.00962 14.32988,-11.83848 5.91507,-4.82608 6.85386,-4.82886 a 12.53526,12.53526 0 0 1 7.1654,2.64808 30.84493,30.84493 0 0 1 6.69717,6.54232 50.98086,50.98086 0 0 1 4.98462,7.94425 16.05793,16.05793 0 0 1 2.025,6.852 q 0,3.73847 -5.45194,11.68272 -5.45332,7.94426 -13.70679,19.00389 -8.25858,11.05965 -17.91258,24.14243 -9.6605,13.08465 -17.91258,26.6366 a 187.91214,187.91214 0 0 0 -13.70772,26.94629 q -5.45333,13.399 -5.45194,24.92128 0,2.18355 4.67309,-2.33654 4.67309,-4.51176 11.68272,-12.61549 7.00824,-8.09722 15.42026,-18.53658 8.41156,-10.43377 15.88758,-19.78088 7.47693,-9.34618 13.24041,-16.35581 5.76069,-7.00964 7.32025,-8.56733 1.242,-1.55491 3.27116,-0.15577 a 11.16983,11.16983 0 0 1 3.42693,4.05 15.74209,15.74209 0 0 1 1.71346,5.91925 7.00776,7.00776 0 0 1 -1.55769,5.45193 q -1.56327,1.86924 -7.1654,9.03464 -5.60771,7.16818 -13.39526,16.50972 -7.79127,9.34619 -16.82219,19.93851 -9.0402,10.59234 -17.29043,19.31358 a 187.13856,187.13856 0 0 1 -15.10872,14.48657 q -6.85525,5.76069 -10.27987,5.76347 a 13.24968,13.24968 0 0 1 -4.82885,-1.24615 18.8963,18.8963 0 0 1 -5.60771,-3.73847 22.96032,22.96032 0 0 1 -4.67309,-6.54233 21.3285,21.3285 0 0 1 -2.025,-9.65771 114.74731,114.74731 0 0 1 2.80385,-24.60974 234.35661,234.35661 0 0 1 6.85386,-24.76737 q 4.04445,-11.98869 8.7231,-22.58474 4.6717,-10.58676 8.41063,-18.53658 3.73848,-7.94146 6.075,-12.61548 2.33653,-4.67308 1.40192,-4.67309 -0.93461,-1e-5 -6.54232,5.1404 -5.60771,5.14039 -13.7068,13.08279 -8.10418,7.94426 -17.2895,17.602 -9.19318,9.66051 -16.97888,19.0039 a 211.92186,211.92186 0 0 0 -12.928,16.977 q -5.14039,7.63827 -5.1404,11.68272 a 3.44521,3.44521 0 0 1 -1.40192,2.49231 q -1.40193,1.24895 -4.82793,1.24616 -3.43249,0 -6.6981,-5.45194 -3.27116,-5.44637 -3.27116,-17.29042 0,-6.84831 3.27116,-16.6655 a 156.15347,156.15347 0 0 1 8.5664,-20.40581 q 5.29477,-10.58677 11.83849,-21.027 a 228.10408,228.10408 0 0 1 13.08372,-18.84813 96.07883,96.07883 0 0 1 12.46157,-13.552 q 5.91375,-5.13763 9.65687,-5.13855 z"
       fill="#14c6ff"
       id="path24" />
    <path
       d="m 542.43238,152.75586 q 7.47695,0 10.90387,3.26931 a 14.12254,14.12254 0 0 1 4.20575,8.25583 26.60115,26.60115 0 0 1 -0.62308,10.59233 67.0395,67.0395 0 0 1 -3.5827,10.59233 40.58869,40.58869 0 0 1 -4.67309,8.25579 q -2.49787,3.27117 -3.73847,3.26931 -13.399,0 -27.41545,8.56733 a 111.49857,111.49857 0 0 0 -25.54435,21.652 126.25044,126.25044 0 0 0 -19.003,28.504 q -7.47695,15.42119 -7.47694,28.81552 0,3.73848 5.1404,3.11539 5.139,-0.62029 13.551,-4.82885 a 220.18622,220.18622 0 0 0 19.626,-11.36933 q 11.21541,-7.16262 23.36451,-16.66735 12.15,-9.49916 24.61159,-20.7155 a 311.00206,311.00206 0 0 0 23.36359,-23.36544 c 0.62308,-0.62308 1.60591,-0.51552 2.95962,0.31154 a 13.53694,13.53694 0 0 1 3.73847,3.5827 10.92622,10.92622 0 0 1 2.025,5.45194 8.12767,8.12767 0 0 1 -1.86924,5.91924 q -0.93462,1.24894 -7.32117,7.63271 -6.38934,6.38656 -16.04241,15.1078 -9.66328,8.72588 -21.96352,18.53658 -12.31136,9.81348 -25.23374,18.22319 a 168.51557,168.51557 0 0 1 -25.70106,13.86349 q -12.77727,5.45472 -23.36451,5.45194 a 12.92733,12.92733 0 0 1 -6.075,-2.025 30.60224,30.60224 0 0 1 -7.00871,-5.6077 34.53735,34.53735 0 0 1 -5.91924,-8.56733 23.30206,23.30206 0 0 1 -2.49232,-10.59048 79.95078,79.95078 0 0 1 5.91925,-29.59622 155.77214,155.77214 0 0 1 15.10872,-28.81552 191.08633,191.08633 0 0 1 20.71643,-26.01167 233.59755,233.59755 0 0 1 22.74156,-21.18474 136.38717,136.38717 0 0 1 21.18374,-14.33081 q 9.96648,-5.2934 15.8885,-5.29433 z"
       fill="#14c6ff"
       id="path26" />
    <path
       d="m 676.3831,211.01 c 0.62308,-0.62308 1.60591,-0.51552 2.95963,0.31154 a 11.83153,11.83153 0 0 1 3.5827,3.5827 13.24619,13.24619 0 0 1 2.025,5.45194 7.55113,7.55113 0 0 1 -1.71346,5.91924 q -0.93462,1.24895 -7.32117,7.47694 -6.38657,6.23356 -15.88479,14.79626 -9.50751,8.57289 -20.87313,18.225 -11.37675,9.6605 -22.58659,17.86344 a 188.652,188.652 0 0 1 -20.71736,13.39618 q -9.50751,5.19046 -15.42119,5.18861 a 18.02424,18.02424 0 0 1 -10.59048,-3.27116 27.55817,27.55817 0 0 1 -7.94239,-8.87886 46.44872,46.44872 0 0 1 -4.98463,-12.927 68.70525,68.70525 0 0 1 -1.71346,-15.73273 72.55259,72.55259 0 0 1 4.98462,-26.3232 113.61471,113.61471 0 0 1 12.92888,-24.30006 155.88252,155.88252 0 0 1 17.59826,-21.027 189.00134,189.00134 0 0 1 18.84812,-16.66735 113.22669,113.22669 0 0 1 16.82311,-10.90387 q 7.62716,-3.89145 11.68272,-3.89424 a 17.54576,17.54576 0 0 1 9.19041,2.34211 24.75953,24.75953 0 0 1 6.54232,5.62254 23.07874,23.07874 0 0 1 3.89424,6.87241 18.79776,18.79776 0 0 1 1.24616,5.77274 26.82927,26.82927 0 0 0 -8.41156,1.56326 25.44422,25.44422 0 0 1 9.502,6.088 q 3.27115,3.59382 3.26745,4.52844 0,8.11671 -5.13669,16.71 a 56.22891,56.22891 0 0 1 -14.64234,15.76982 84.98587,84.98587 0 0 1 -23.36548,12.02388 106.21934,106.21934 0 0 1 -31.30969,5.4612 92.153,92.153 0 0 0 -5.91924,13.42957 101.0823,101.0823 0 0 0 -4.20578,15.14859 51.54988,51.54988 0 0 0 -1.09039,12.48938 q 0.31154,5.15432 3.11539,5.14967 4.67309,0 12.46157,-4.51732 a 164.49477,164.49477 0 0 0 16.97889,-11.52509 q 9.18483,-7.00964 19.00389,-15.8885 9.81348,-8.87886 18.84812,-17.44434 9.02907,-8.56455 16.50787,-16.04427 z m -39.8733,-22.11743 a 122.49878,122.49878 0 0 0 -19.15966,16.354 218.11717,218.11717 0 0 0 -17.29043,20.09428 q 11.21541,-1.86924 18.225,-5.76348 a 34.29666,34.29666 0 0 0 10.90388,-9.03464 31.756,31.756 0 0 0 5.45193,-10.90387 54.9156,54.9156 0 0 0 1.86928,-10.74631 z"
       fill="#14c6ff"
       id="path28" />
    <path
       d="m 785.40884,210.69844 c 0.62308,-0.82706 1.65969,-0.77884 3.11539,0.15577 a 12.29252,12.29252 0 0 1 3.73847,3.89424 14.59028,14.59028 0 0 1 2.025,5.60771 6.67918,6.67918 0 0 1 -1.71347,5.6077 q -1.56048,1.56327 -6.85386,7.94425 -5.29894,6.38656 -12.77125,15.1078 -7.47694,8.72588 -16.04427,18.53658 -8.57289,9.81348 -16.51158,18.06742 -7.94146,8.25857 -14.17318,13.70772 -6.23634,5.45472 -9.03463,5.45194 a 17.17,17.17 0 0 1 -9.65772,-3.11539 39.58945,39.58945 0 0 1 -8.25574,-7.32118 40.692,40.692 0 0 1 -5.76162,-8.7231 q -2.18355,-4.51176 -2.18077,-7.00778 0,-3.73846 4.35969,-12.61734 4.36155,-8.87886 10.7481,-20.25 6.381,-11.3684 14.01927,-23.98667 7.62993,-12.61732 14.01926,-23.677 6.381,-11.05408 10.74625,-19.002 4.35876,-7.94425 4.36155,-10.43656 -4.36434,1.24893 -11.83664,3.27116 -7.47693,2.03056 -14.64234,3.5827 -4.67308,6.23634 -10.28079,13.70772 -5.60771,7.47694 -11.21541,14.64049 -5.60771,7.171 -10.59048,13.08465 -4.98741,5.922 -7.78848,9.03463 -2.80386,3.11818 -4.98463,2.025 a 7.50442,7.50442 0 0 1 -3.42693,-4.20578 14.83468,14.83468 0 0 1 -0.93462,-6.85386 10.48074,10.48074 0 0 1 2.49232,-6.23079 169.99136,169.99136 0 0 0 14.175,-17.28857 q 6.075,-8.56454 10.12317,-14.175 a 20.77151,20.77151 0 0 1 -3.42693,0.31154 h -3.11354 q -2.18355,0 -5.1404,-3.27116 a 28.75677,28.75677 0 0 1 -4.82885,-7.32117 22.86433,22.86433 0 0 1 -2.18078,-7.32117 q -0.31433,-3.27117 3.11539,-3.27117 3.42415,0 10.27894,-2.18077 6.85109,-2.17521 15.26542,-5.29431 8.41156,-3.11262 17.4462,-7.00963 9.03185,-3.89147 16.66549,-7.00964 7.62993,-3.10981 12.92888,-5.29616 5.29338,-2.17521 6.23078,-2.18078 3.42416,0 7.78848,3.89424 a 54.11789,54.11789 0 0 1 8.25579,9.50195 68.46986,68.46986 0 0 1 6.54047,11.68086 q 2.64529,6.075 2.64808,10.125 0,2.80384 -5.29617,11.37118 -5.29895,8.57289 -13.23856,20.40581 -7.94424,11.84128 -17.13465,25.23282 -9.19318,13.399 -17.1328,25.70013 -7.94426,12.31137 -13.24042,22.27506 -5.30174,9.972 -5.29617,14.64048 0.62031,0 5.1404,-4.67123 4.51176,-4.67309 11.21541,-11.99426 6.69531,-7.31561 14.64049,-16.04427 7.94425,-8.71753 15.26542,-16.977 7.31561,-8.25023 13.08465,-14.64234 5.76068,-6.38104 8.25392,-9.19047 z"
       fill="#14c6ff"
       id="path30"
       style="display:inline" />
    <path
       d="m 891.63814,126.58657 q 10.28079,3.4325 17.1328,6.075 6.84829,2.65086 6.85386,4.51731 a 14.20543,14.20543 0 0 1 -1.24615,5.45194 4.629,4.629 0 0 1 -4.67309,2.95962 q -0.93462,0 -10.12317,-0.77885 -9.19318,-0.77606 -22.27505,-2.33654 -16.51437,18.68956 -34.42323,41.43286 A 568.94611,568.94611 0 0 0 809.707,230.637 313.81684,313.81684 0 0 0 784.6281,278.14487 q -9.81349,23.524 -9.81349,44.08094 a 2.46923,2.46923 0 0 0 0.62308,2.025 1.89138,1.89138 0 0 0 0.93462,0.46731 q 2.48954,0 10.7481,-7.47694 8.25022,-7.47695 19.31543,-19.00389 11.05416,-11.52143 23.67516,-25.23286 12.61734,-13.70495 23.83275,-26.32506 11.21263,-12.61457 19.93666,-22.429 8.71753,-9.81348 12.15,-13.552 c 0.62308,-0.62308 1.71347,-0.67129 3.27117,-0.15577 a 13.604,13.604 0 0 1 4.51731,2.64809 10.49237,10.49237 0 0 1 3.1154,4.51732 4.942,4.942 0 0 1 -1.24616,5.14039 q -0.62865,0.93462 -5.45194,6.54232 -4.83441,5.6077 -12.15,14.17318 -7.324,8.57289 -16.82312,19.31543 -9.50473,10.7481 -19.62512,21.80589 -10.12781,11.06243 -20.40581,21.49621 -10.278,10.43378 -19.31358,18.53658 a 188.90945,188.90945 0 0 1 -16.04427,13.08279 q -7.00962,4.97907 -10.7481,4.98463 a 29.08922,29.08922 0 0 1 -8.25393,-1.24616 20.86811,20.86811 0 0 1 -7.78848,-4.36155 21.6799,21.6799 0 0 1 -5.76348,-8.7231 q -2.18355,-5.60492 -2.18077,-14.32894 a 157.11821,157.11821 0 0 1 7.1654,-45.95018 284.50129,284.50129 0 0 1 18.84627,-46.41749 405.41425,405.41425 0 0 1 26.4808,-44.54818 q 14.79255,-21.64919 30.06168,-40.34247 a 154.3876,154.3876 0 0 1 -17.13466,-3.42693 q -6.85386,-1.86922 -6.852,-3.73847 a 33.47229,33.47229 0 0 1 0.62308,-5.91924 19.36243,19.36243 0 0 1 2.49231,-6.54232 17.33241,17.33241 0 0 1 4.98278,-5.29617 14.44521,14.44521 0 0 1 8.41155,-2.17892 q 3.42416,0.93462 7.47695,1.86738 3.42414,0.93462 8.1,1.86924 4.6731,0.9346 9.96926,2.49231 20.55881,-22.428 35.98092,-35.66938 15.42118,-13.23764 19.78088,-13.23857 a 10.11428,10.11428 0 0 1 7.16541,2.95777 29.03093,29.03093 0 0 1 5.29616,6.85386 30.74664,30.74664 0 0 1 3.11539,7.78848 27.636,27.636 0 0 1 0.93462,5.76348 q 0,1.24895 -9.19041,10.7481 -9.19315,9.50474 -23.20778,25.38859 z"
       fill="#14c6ff"
       id="path32"
       style="display:inline" />
    <path
       d="m 894.11933,271.44673 a 14.14046,14.14046 0 0 0 -4.98463,1.5577 40.92486,40.92486 0 0 0 -6.54047,3.73847 24.04863,24.04863 0 0 0 -4.67309,4.05 q -1.56326,1.86923 0.93462,2.17892 a 34.59909,34.59909 0 0 0 18.379,-1.24431 69.93142,69.93142 0 0 0 17.29042,-8.87886 96.95748,96.95748 0 0 0 15.26357,-13.24042 157.78718,157.78718 0 0 0 12.15,-14.48657 83.472,83.472 0 0 0 7.78848,-12.45971 q 2.64252,-5.44638 2.025,-7.32117 -0.31431,-1.55491 -6.38655,0 -6.075,1.56325 -14.48657,4.05 -8.40877,2.4951 -17.1328,4.82886 A 58.54316,58.54316 0 0 1 899.104,236.5562 c -0.62307,0 -1.66525,-1.1349 -3.11539,-3.4121 q -2.18355,-3.41859 -4.51732,-7.60489 -2.33654,-4.1891 -4.05,-8.07035 -1.71347,-3.87477 -1.71346,-5.12 0,-2.16965 4.36155,-7.2915 a 97.33678,97.33678 0 0 1 11.83849,-11.32668 190.03522,190.03522 0 0 1 17.44613,-12.71933 177.74312,177.74312 0 0 1 21.49435,-11.94975 160.90309,160.90309 0 0 1 23.83275,-9.00126 86.59745,86.59745 0 0 1 24.14243,-3.56786 q 5.60771,0 8.1,2.62954 a 11.24817,11.24817 0 0 1 2.95962,6.63875 22.19651,22.19651 0 0 1 -0.93461,8.801 51.99816,51.99816 0 0 1 -3.42694,8.80469 35.65571,35.65571 0 0 1 -4.20577,6.64061 q -2.18356,2.62861 -3.73848,2.624 a 94.98042,94.98042 0 0 0 -29.28282,4.51547 151.317,151.317 0 0 0 -24.30006,9.96925 103.20457,103.20457 0 0 0 -15.88665,9.96926 q -5.60771,4.5201 -4.05,4.51731 a 39.268,39.268 0 0 0 7.32117,-1.55769 q 5.76069,-1.55491 13.70587,-3.27116 7.94424,-1.7079 16.51157,-2.80386 a 58.21188,58.21188 0 0 1 15.8885,0 24.81743,24.81743 0 0 1 12.14818,4.98463 q 4.82607,3.89981 4.82885,11.99426 0,6.23356 -6.69809,17.60011 a 105.04117,105.04117 0 0 1 -18.53473,22.58659 119.01641,119.01641 0 0 1 -28.03852,19.46935 76.38869,76.38869 0 0 1 -35.20208,8.25578 50.40308,50.40308 0 0 1 -12.61548,-1.55769 35.40743,35.40743 0 0 1 -10.43656,-4.36155 24.9214,24.9214 0 0 1 -7.00964,-6.54232 13.71025,13.71025 0 0 1 -2.64808,-8.09817 17.11328,17.11328 0 0 1 2.49232,-8.87886 30.59828,30.59828 0 0 1 6.23078,-7.47694 34.047,34.047 0 0 1 8.1,-5.29617 18.85642,18.85642 0 0 1 7.78662,-2.025 c 0.62308,0 1.35,0.73064 2.18078,2.18078 a 37.92368,37.92368 0 0 1 2.33654,4.98463 q 1.08761,2.80385 1.86924,5.29616 a 14.23106,14.23106 0 0 1 0.77884,3.42693 0.82609,0.82609 0 0 1 -0.93457,0.93456 z"
       fill="#14c6ff"
       id="path34"
       style="display:inline" />
  </g>
</svg>
