<?xml version="1.0" encoding="UTF-8" standalone="no"?>
<!DOCTYPE svg PUBLIC "-//W3C//DTD SVG 1.1//EN" "http://www.w3.org/Graphics/SVG/1.1/DTD/svg11.dtd">
<svg version="1.1" xmlns="http://www.w3.org/2000/svg" xmlns:xlink="http://www.w3.org/1999/xlink" preserveAspectRatio="xMidYMid meet" viewBox="0 0 132 99" width="132" height="99"><defs><path d="M31.75 22.69C31.73 22.74 31.75 22.78 31.81 22.78C31.91 22.78 31.93 22.68 31.84 22.63C31.81 22.61 31.77 22.63 31.75 22.69M31.32 23.03C31.26 23.1 31.23 23.18 31.25 23.2C31.28 23.22 31.31 23.21 31.32 23.16C31.34 23.12 31.39 23.04 31.44 22.99C31.5 22.94 31.51 22.9 31.48 22.9C31.46 22.9 31.38 22.96 31.32 23.03M28.75 25.41C28.77 25.44 28.73 25.51 28.66 25.58C28.65 25.59 28.6 25.63 28.52 25.7C28.6 25.66 28.65 25.64 28.66 25.63C28.84 25.55 28.88 25.46 28.79 25.41C28.74 25.38 28.73 25.38 28.75 25.41M27.96 26.38C27.94 26.41 27.93 26.46 27.95 26.48C28 26.52 28.12 26.44 28.12 26.37C28.12 26.29 28.01 26.3 27.96 26.38M27.2 27.43C27.2 27.5 27.22 27.55 27.25 27.55C27.32 27.55 27.33 27.39 27.26 27.34C27.24 27.33 27.21 27.37 27.2 27.43M24.72 32.05C24.71 32.14 24.73 32.19 24.77 32.17C24.84 32.13 24.85 31.89 24.78 31.89C24.76 31.89 24.73 31.96 24.72 32.05M24.65 32.47C24.65 32.53 24.62 32.57 24.59 32.55C24.57 32.53 24.54 32.56 24.54 32.61C24.54 32.69 24.55 32.69 24.63 32.61C24.68 32.56 24.71 32.49 24.69 32.44C24.67 32.38 24.65 32.39 24.65 32.47M47.42 32.6C47.53 32.72 47.67 32.73 47.63 32.62C47.62 32.58 47.54 32.53 47.46 32.52C47.33 32.5 47.33 32.51 47.42 32.6M41.48 32.91C41.37 32.99 41.37 33 41.46 33.01C41.51 33.01 41.57 32.97 41.59 32.92C41.64 32.8 41.63 32.8 41.48 32.91M48.08 32.95C48.08 32.98 48.14 33.01 48.21 33.01C48.28 33.01 48.32 32.98 48.3 32.95C48.28 32.91 48.22 32.88 48.17 32.88C48.12 32.88 48.08 32.91 48.08 32.95M41.05 33.07C41.03 33.1 41.07 33.12 41.14 33.11C41.21 33.11 41.26 33.08 41.26 33.06C41.26 32.99 41.09 33 41.05 33.07M51.99 37C51.99 37.05 52.02 37.11 52.05 37.13C52.08 37.15 52.11 37.13 52.11 37.08C52.11 37.03 52.08 36.97 52.05 36.95C52.02 36.92 51.99 36.95 51.99 37M23.41 38.09C23.41 38.67 23.38 38.9 23.33 38.92C23.29 38.93 23.27 38.97 23.3 39C23.41 39.12 23.47 38.82 23.47 38.08C23.47 37.64 23.45 37.29 23.44 37.29C23.42 37.29 23.41 37.65 23.41 38.09M65.91 44.89C65.89 44.94 65.85 44.97 65.82 44.95C65.79 44.93 65.77 44.96 65.77 45.02C65.77 45.38 65.75 45.48 65.67 45.43C65.63 45.4 65.64 45.43 65.69 45.5C65.76 45.59 65.77 45.61 65.69 45.56C65.63 45.52 65.62 45.54 65.65 45.61C65.67 45.67 65.64 45.76 65.58 45.83C65.51 45.89 65.46 46.02 65.45 46.12C65.45 46.22 65.41 46.32 65.38 46.33C65.3 46.35 65.3 46.6 65.38 46.7C65.42 46.74 65.42 46.76 65.4 46.74C65.35 46.7 65.13 46.96 65.13 47.06C65.13 47.11 65.1 47.14 65.07 47.14C65.03 47.14 65.01 47.22 65.03 47.33C65.05 47.43 65.02 47.56 64.97 47.64C64.91 47.71 64.89 47.81 64.91 47.86C64.93 47.91 64.91 47.95 64.88 47.95C64.84 47.95 64.83 47.97 64.85 48C64.87 48.03 64.84 48.11 64.79 48.17C64.74 48.24 64.7 48.34 64.7 48.4C64.7 48.46 64.67 48.51 64.64 48.51C64.61 48.51 64.56 48.61 64.54 48.73C64.52 48.84 64.47 48.94 64.44 48.94C64.41 48.94 64.39 48.98 64.39 49.03C64.39 49.07 64.35 49.14 64.31 49.18C64.27 49.21 64.22 49.32 64.22 49.42C64.21 49.51 64.18 49.6 64.15 49.62C64.12 49.64 64.07 49.72 64.05 49.8C64.01 49.92 63.99 49.93 63.94 49.86C63.9 49.8 63.89 49.83 63.92 49.95C63.94 50.05 63.93 50.12 63.9 50.1C63.8 50.03 63.57 50.35 63.61 50.49C63.64 50.58 63.62 50.63 63.56 50.65C63.5 50.67 63.46 50.72 63.46 50.75C63.46 50.78 63.49 50.79 63.54 50.76C63.58 50.74 63.59 50.74 63.56 50.78C63.53 50.81 63.46 50.83 63.41 50.83C63.34 50.83 63.3 50.89 63.28 51C63.27 51.1 63.24 51.16 63.21 51.14C63.17 51.12 63.15 51.15 63.15 51.2C63.15 51.25 63.1 51.3 63.05 51.3C62.98 51.3 62.96 51.34 62.98 51.43C63 51.5 62.98 51.57 62.93 51.59C62.88 51.61 62.84 51.66 62.84 51.71C62.84 51.76 62.8 51.79 62.76 51.78C62.72 51.77 62.69 51.83 62.68 51.93C62.68 52.02 62.65 52.12 62.62 52.15C62.59 52.17 62.59 52.16 62.61 52.12C62.64 52.08 62.63 52.04 62.59 52.04C62.56 52.04 62.53 52.1 62.53 52.16C62.53 52.24 62.5 52.27 62.44 52.25C62.39 52.23 62.32 52.31 62.26 52.48C62.19 52.64 62.13 52.72 62.08 52.69C62.04 52.66 62.02 52.67 62.05 52.69C62.1 52.76 61.92 52.97 61.81 52.97C61.77 52.97 61.72 53.06 61.7 53.16C61.68 53.26 61.63 53.34 61.6 53.34C61.56 53.34 61.47 53.4 61.4 53.47C61.32 53.54 61.29 53.59 61.31 53.59C61.34 53.59 61.24 53.7 61.1 53.83C60.96 53.97 60.86 54.11 60.88 54.14C60.9 54.18 60.89 54.21 60.86 54.21C60.82 54.21 60.79 54.24 60.79 54.28C60.79 54.37 60.55 54.58 60.44 54.58C60.4 54.58 60.36 54.65 60.36 54.72C60.36 54.84 60.34 54.85 60.3 54.77C60.24 54.68 60.2 54.75 60.23 54.91C60.23 54.93 60.19 54.94 60.14 54.92C60.08 54.89 60.05 54.92 60.04 55.03C60.04 55.11 60.02 55.14 60.01 55.09C59.97 55.01 59.74 55.26 59.74 55.38C59.74 55.42 59.7 55.45 59.65 55.45C59.59 55.45 59.55 55.49 59.55 55.55C59.55 55.64 59.48 55.66 59.31 55.64C59.27 55.63 59.25 55.66 59.27 55.7C59.29 55.73 59.27 55.76 59.22 55.76C59.17 55.76 59.12 55.8 59.1 55.86C59.08 55.91 59.02 55.95 58.98 55.95C58.89 55.95 58.68 56.16 58.68 56.26C58.68 56.29 58.65 56.31 58.61 56.3C58.57 56.3 58.53 56.32 58.53 56.35C58.52 56.52 58.33 56.69 58.17 56.69C58.08 56.69 58 56.72 58 56.76C58 56.84 57.84 57 57.76 57C57.72 57 57.69 57.04 57.69 57.1C57.69 57.15 57.66 57.19 57.61 57.19C57.57 57.19 57.46 57.26 57.36 57.34C57.26 57.43 57.15 57.5 57.11 57.5C57.08 57.5 57.07 57.52 57.09 57.54C57.15 57.59 56.95 57.81 56.85 57.81C56.8 57.81 56.76 57.85 56.76 57.89C56.76 57.95 56.7 57.97 56.61 57.96C56.52 57.95 56.46 57.96 56.47 57.99C56.5 58.08 55.97 58.55 55.84 58.55C55.76 58.55 55.71 58.59 55.71 58.65C55.71 58.7 55.66 58.74 55.61 58.74C55.55 58.74 55.52 58.77 55.54 58.82C55.58 58.93 55.47 59.05 55.32 59.05C55.16 59.05 54.89 59.24 54.92 59.33C54.96 59.42 54.64 59.67 54.48 59.67C54.35 59.67 54.14 59.87 54.2 59.94C54.22 59.96 54.2 59.98 54.15 59.98C54.11 59.98 54 60.05 53.91 60.13C53.54 60.5 53.27 60.72 53.19 60.72C53.14 60.72 53.08 60.76 53.06 60.82C53.04 60.87 52.99 60.91 52.94 60.91C52.9 60.91 52.82 60.99 52.76 61.09C52.71 61.2 52.65 61.27 52.62 61.27C52.5 61.24 52.14 61.43 52.16 61.51C52.16 61.55 52.09 61.64 52 61.72C51.87 61.84 51.86 61.84 51.93 61.75C51.98 61.67 51.94 61.69 51.83 61.79C51.72 61.89 51.61 61.96 51.57 61.96C51.53 61.96 51.49 61.99 51.49 62.03C51.49 62.11 51.33 62.27 51.25 62.27C51.21 62.27 51.18 62.3 51.18 62.34C51.18 62.43 51.02 62.58 50.93 62.58C50.79 62.58 50.47 62.82 50.36 63.01C50.28 63.14 50.2 63.2 50.09 63.2C50.01 63.2 49.94 63.23 49.94 63.26C49.94 63.37 49.74 63.57 49.67 63.53C49.64 63.51 49.63 63.52 49.65 63.55C49.69 63.62 49.51 63.79 49.33 63.85C49.26 63.87 49.2 63.94 49.2 63.99C49.2 64.05 49.16 64.07 49.11 64.05C49.05 64.03 49.01 64.05 49.01 64.1C49.01 64.15 48.98 64.19 48.95 64.19C48.91 64.19 48.9 64.22 48.92 64.26C48.94 64.29 48.89 64.32 48.8 64.32C48.72 64.32 48.62 64.36 48.6 64.41C48.57 64.46 48.52 64.5 48.49 64.52C48.45 64.53 48.43 64.56 48.44 64.58C48.45 64.61 48.43 64.63 48.4 64.63C48.36 64.63 48.24 64.73 48.13 64.85C48.01 64.96 47.85 65.06 47.78 65.06C47.69 65.06 47.65 65.1 47.65 65.19C47.65 65.29 47.62 65.31 47.55 65.29C47.5 65.27 47.47 65.27 47.48 65.3C47.5 65.32 47.49 65.4 47.46 65.47C47.46 65.47 47.44 65.51 47.41 65.59C47.4 65.51 47.4 65.47 47.4 65.47C47.39 65.36 47.38 65.36 47.35 65.49C47.32 65.6 47.25 65.64 47.12 65.66C47.01 65.67 46.89 65.74 46.82 65.83C46.76 65.92 46.65 65.99 46.57 65.99C46.45 65.99 46.43 66.03 46.42 66.26C46.41 66.45 46.42 66.49 46.47 66.43C46.51 66.36 46.53 66.36 46.53 66.41C46.53 66.47 54.66 66.49 87.27 66.49C89.98 66.49 103.56 66.49 128 66.49L128 55.64L128 44.79C109.39 44.79 99.04 44.79 96.98 44.79C68.9 44.79 65.95 44.8 65.91 44.89M48.89 46.4C48.89 46.43 48.85 46.46 48.8 46.46C48.74 46.46 48.7 46.51 48.7 46.56C48.7 46.64 48.72 46.64 48.86 46.54C49.01 46.43 49.06 46.34 48.95 46.34C48.92 46.34 48.89 46.37 48.89 46.4M48.02 47.07C47.91 47.11 47.75 47.27 47.81 47.27C47.84 47.27 47.95 47.21 48.05 47.14C48.23 47.03 48.22 46.99 48.02 47.07M73.38 48.97C73.38 49.08 73.52 49.13 73.85 49.13C74 49.13 74.12 49.16 74.12 49.19C74.12 49.22 74.26 49.25 74.42 49.25C74.62 49.25 74.75 49.29 74.81 49.35C74.86 49.41 74.94 49.43 75.03 49.41C75.15 49.38 75.16 49.39 75.13 49.48C75.1 49.56 75.12 49.57 75.22 49.55C75.3 49.53 75.37 49.56 75.41 49.63C75.46 49.7 75.54 49.74 75.63 49.73C75.71 49.72 75.76 49.75 75.75 49.79C75.74 49.84 75.79 49.87 75.85 49.87C75.92 49.87 75.99 49.92 76.01 49.97C76.03 50.03 76.08 50.06 76.14 50.04C76.19 50.02 76.25 50.03 76.27 50.07C76.29 50.11 76.28 50.12 76.24 50.09C76.11 50.01 76.16 50.13 76.33 50.28C76.47 50.42 76.49 50.61 76.35 50.52C76.32 50.5 76.29 50.51 76.29 50.54C76.29 50.63 75.52 51.42 75.44 51.42C75.4 51.42 75.36 51.45 75.36 51.49C75.36 51.52 75.31 51.61 75.24 51.68C75.17 51.76 75.11 51.8 75.11 51.77C75.11 51.75 75.05 51.8 74.96 51.9C74.83 52.05 74.8 52.06 74.68 51.99C74.61 51.95 74.53 51.93 74.5 51.95C74.47 51.96 74.43 51.94 74.41 51.9C74.4 51.85 74.26 51.8 74.11 51.78C73.97 51.76 73.84 51.71 73.82 51.67C73.79 51.59 71.39 51.58 71.39 51.67C71.39 51.7 71.31 51.73 71.2 51.73C71.09 51.73 71.02 51.75 71.04 51.77C71.06 51.79 71.03 51.85 70.97 51.9C70.92 51.95 70.91 51.97 70.95 51.94C71.01 51.91 71.03 51.92 71 51.97C70.97 52.01 70.93 52.03 70.9 52.01C70.79 51.94 70.58 52.18 70.61 52.36C70.63 52.46 70.61 52.54 70.58 52.54C70.49 52.54 70.39 52.79 70.43 52.95C70.45 53.03 70.51 53.1 70.55 53.1C70.61 53.1 70.63 53.15 70.61 53.29C70.57 53.51 70.76 53.71 70.99 53.72C71.09 53.72 71.1 53.73 71.02 53.78C70.97 53.81 70.95 53.84 70.98 53.85C71 53.85 71.05 53.86 71.08 53.87C71.12 53.88 71.34 53.89 71.58 53.89C71.88 53.9 72.01 53.92 72 53.98C71.99 54.03 72.14 54.06 72.51 54.07C72.8 54.09 73.05 54.12 73.06 54.16C73.07 54.19 73.26 54.21 73.48 54.21C73.76 54.21 73.87 54.23 73.86 54.29C73.85 54.34 73.93 54.36 74.14 54.36C74.35 54.35 74.43 54.37 74.43 54.44C74.43 54.49 74.5 54.52 74.59 54.52C74.68 54.52 74.79 54.57 74.85 54.62C74.9 54.67 74.98 54.7 75.03 54.68C75.07 54.67 75.13 54.68 75.15 54.72C75.18 54.77 75.17 54.77 75.11 54.74C75.06 54.71 75.05 54.71 75.08 54.76C75.1 54.8 75.16 54.83 75.21 54.83C75.26 54.83 75.37 54.9 75.45 54.99C75.54 55.08 75.63 55.14 75.67 55.11C75.7 55.09 75.73 55.1 75.73 55.14C75.73 55.2 75.93 55.45 76.21 55.73C76.25 55.77 76.29 55.86 76.3 55.92C76.32 55.99 76.36 56.03 76.4 56.03C76.44 56.02 76.48 56.07 76.48 56.13C76.48 56.2 76.51 56.26 76.54 56.26C76.57 56.26 76.6 56.36 76.6 56.48C76.6 56.63 76.63 56.69 76.69 56.69C76.75 56.69 76.79 56.72 76.79 56.76C76.79 56.79 76.82 56.8 76.86 56.78C76.91 56.75 76.91 56.77 76.86 56.87C76.77 57.03 76.77 57.62 76.85 57.62C76.89 57.62 76.91 57.8 76.91 58.03C76.91 58.25 76.89 58.43 76.85 58.43C76.82 58.43 76.79 58.57 76.78 58.75C76.76 58.97 76.73 59.07 76.68 59.06C76.64 59.05 76.61 59.07 76.61 59.09C76.64 59.27 76.59 59.55 76.54 59.51C76.5 59.49 76.48 59.55 76.48 59.66C76.48 59.78 76.45 59.85 76.4 59.84C76.36 59.83 76.33 59.86 76.33 59.9C76.32 59.94 76.29 60.01 76.25 60.05C76.2 60.09 76.17 60.18 76.17 60.24C76.17 60.3 76.1 60.38 76.01 60.42C75.93 60.46 75.86 60.52 75.86 60.55C75.86 60.57 75.83 60.6 75.79 60.6C75.71 60.6 75.55 60.76 75.55 60.84C75.55 60.88 75.52 60.91 75.48 60.91C75.38 60.91 75.23 61.09 75.27 61.16C75.29 61.19 75.22 61.22 75.08 61.22C74.96 61.22 74.82 61.26 74.76 61.31C74.71 61.36 74.64 61.39 74.6 61.36C74.57 61.34 74.51 61.37 74.47 61.42C74.43 61.47 74.34 61.53 74.28 61.54C74.21 61.55 74.16 61.59 74.16 61.63C74.17 61.66 74.09 61.68 73.98 61.66C73.85 61.64 73.77 61.67 73.71 61.74C73.66 61.82 73.55 61.85 73.38 61.85C73.25 61.85 73.12 61.87 73.1 61.9C73.05 61.99 70.36 61.98 70.31 61.9C70.29 61.86 70.21 61.84 70.13 61.85C69.84 61.87 69.6 61.83 69.61 61.77C69.62 61.73 69.56 61.69 69.47 61.67C69.39 61.66 69.31 61.63 69.29 61.6C69.27 61.58 69.17 61.55 69.07 61.54C68.97 61.53 68.87 61.5 68.85 61.46C68.82 61.42 68.77 61.41 68.72 61.44C68.67 61.46 68.66 61.46 68.68 61.44C68.74 61.37 68.44 61.22 68.26 61.22C68.17 61.22 68.11 61.19 68.11 61.16C68.11 61.12 67.98 61.04 67.83 60.97C67.67 60.9 67.56 60.82 67.57 60.8C67.6 60.75 67.45 60.59 67.38 60.6C67.21 60.61 67.33 60.32 67.6 60.06C67.77 59.89 67.92 59.7 67.93 59.64C67.94 59.58 68.05 59.48 68.16 59.42C68.28 59.35 68.4 59.24 68.44 59.16C68.48 59.08 68.56 59.02 68.61 59.01C68.66 59.01 68.69 58.98 68.68 58.94C68.67 58.9 68.71 58.86 68.76 58.86C68.81 58.86 68.85 58.84 68.85 58.81C68.85 58.7 69.03 58.68 69.13 58.77C69.18 58.82 69.29 58.87 69.37 58.88C69.46 58.88 69.51 58.91 69.49 58.94C69.48 58.96 69.51 58.99 69.55 58.99C69.6 58.99 69.66 59.03 69.69 59.09C69.72 59.18 69.73 59.19 69.78 59.11C69.82 59.06 69.84 59.05 69.84 59.09C69.84 59.19 70.23 59.36 70.46 59.36C70.57 59.36 70.65 59.33 70.65 59.28C70.65 59.23 70.67 59.23 70.72 59.28C70.97 59.53 73.5 59.34 73.5 59.08C73.5 59.03 73.54 58.99 73.58 59C73.62 59.01 73.65 58.98 73.64 58.94C73.63 58.9 73.66 58.86 73.7 58.86C73.83 58.86 73.95 58.55 73.86 58.45C73.81 58.38 73.81 58.37 73.89 58.4C74.02 58.45 74.03 57.97 73.9 57.85C73.85 57.79 73.83 57.74 73.87 57.72C74.01 57.63 73.93 57.43 73.69 57.27C73.55 57.18 73.46 57.08 73.48 57.05C73.51 57.01 73.48 57 73.42 57.02C73.37 57.04 73.28 57.02 73.23 56.97C73.17 56.91 73 56.88 72.7 56.88C72.37 56.88 72.26 56.86 72.26 56.79C72.26 56.73 72.14 56.71 71.81 56.7C71.57 56.69 71.35 56.66 71.33 56.63C71.32 56.6 71.15 56.58 70.97 56.58C70.73 56.58 70.62 56.55 70.56 56.47C70.51 56.4 70.43 56.37 70.29 56.39C70.15 56.41 70.09 56.4 70.09 56.34C70.09 56.28 70.03 56.26 69.9 56.27C69.77 56.28 69.69 56.25 69.65 56.18C69.62 56.12 69.54 56.07 69.47 56.07C69.4 56.07 69.35 56.05 69.35 56.02C69.35 56 69.26 55.93 69.16 55.86C69.06 55.8 68.98 55.78 68.98 55.8C68.98 55.83 68.92 55.79 68.85 55.71C68.78 55.64 68.73 55.55 68.73 55.52C68.73 55.48 68.69 55.45 68.64 55.45C68.58 55.45 68.54 55.42 68.54 55.39C68.54 55.36 68.5 55.33 68.44 55.33C68.38 55.33 68.36 55.29 68.38 55.24C68.4 55.18 68.38 55.16 68.32 55.18C68.26 55.21 68.23 55.17 68.23 55.03C68.23 54.93 68.19 54.81 68.14 54.77C68.09 54.73 68.06 54.67 68.06 54.63C68.07 54.59 68.04 54.56 67.98 54.56C67.91 54.55 67.89 54.48 67.9 54.23C67.91 54.05 67.89 53.91 67.86 53.92C67.79 53.93 67.76 52.12 67.83 52.06C67.85 52.03 67.85 52.07 67.82 52.13C67.79 52.21 67.8 52.23 67.85 52.2C67.89 52.18 67.92 52.04 67.92 51.89C67.92 51.7 67.95 51.61 68.02 51.58C68.08 51.56 68.11 51.51 68.09 51.46C68.07 51.41 68.09 51.34 68.14 51.29C68.19 51.25 68.23 51.17 68.23 51.1C68.23 51.03 68.27 50.94 68.31 50.89C68.49 50.69 68.54 50.62 68.54 50.56C68.54 50.52 68.57 50.49 68.6 50.49C68.64 50.49 68.67 50.46 68.67 50.41C68.67 50.32 69.19 49.87 69.32 49.85C69.38 49.84 69.44 49.81 69.46 49.77C69.48 49.74 69.56 49.71 69.63 49.71C69.7 49.71 69.74 49.68 69.74 49.64C69.73 49.6 69.77 49.56 69.84 49.56C69.9 49.56 70.03 49.49 70.12 49.4C70.22 49.3 70.27 49.27 70.24 49.33C70.22 49.39 70.23 49.44 70.26 49.44C70.3 49.44 70.34 49.4 70.36 49.35C70.38 49.3 70.49 49.25 70.6 49.24C70.71 49.23 70.8 49.19 70.79 49.16C70.79 49.12 70.9 49.11 71.06 49.12C71.25 49.13 71.37 49.11 71.45 49.04C71.53 48.97 71.73 48.94 72.33 48.93C72.75 48.92 73.16 48.9 73.24 48.89C73.32 48.89 73.38 48.91 73.38 48.97M120.19 49.16C120.19 49.22 120.28 49.25 120.51 49.26C120.75 49.28 120.83 49.31 120.82 49.37C120.81 49.43 120.87 49.44 121.05 49.42C121.24 49.4 121.29 49.41 121.26 49.48C121.24 49.52 121.26 49.56 121.3 49.56C121.34 49.56 121.42 49.61 121.47 49.66C121.52 49.71 121.6 49.74 121.65 49.72C121.69 49.71 121.74 49.73 121.76 49.78C121.78 49.83 121.87 49.87 121.96 49.87C122.13 49.87 122.23 49.95 122.35 50.17C122.39 50.25 122.46 50.29 122.49 50.27C122.54 50.24 122.55 50.25 122.52 50.3C122.49 50.34 122.51 50.37 122.54 50.37C122.58 50.37 122.6 50.39 122.58 50.42C122.56 50.45 122.6 50.49 122.67 50.51C122.75 50.53 122.79 50.57 122.76 50.61C122.74 50.65 122.78 50.71 122.85 50.75C122.92 50.8 122.98 50.88 122.98 50.93C122.98 50.99 123.05 51.08 123.13 51.14C123.22 51.19 123.29 51.28 123.29 51.33C123.29 51.38 123.32 51.42 123.35 51.42C123.38 51.42 123.41 51.53 123.41 51.67C123.41 51.81 123.44 51.92 123.47 51.92C123.51 51.92 123.52 51.96 123.5 52C123.48 52.05 123.5 52.11 123.53 52.13C123.57 52.16 123.6 52.47 123.6 52.98C123.6 53.5 123.62 53.77 123.66 53.75C123.69 53.73 123.72 53.74 123.72 53.77C123.72 53.81 123.69 53.84 123.65 53.84C123.61 53.84 123.6 53.86 123.62 53.88C123.64 53.9 123.61 53.98 123.55 54.04C123.47 54.13 123.46 54.18 123.52 54.27C123.58 54.36 123.57 54.39 123.5 54.42C123.45 54.44 123.41 54.53 123.41 54.61C123.41 54.73 123.37 54.79 123.26 54.83C123.16 54.87 123.1 54.94 123.1 55.02C123.1 55.09 123.07 55.14 123.04 55.14C123.01 55.14 122.98 55.18 122.98 55.24C122.98 55.29 122.95 55.33 122.91 55.33C122.79 55.33 122.67 55.49 122.67 55.64C122.67 55.67 122.63 55.68 122.58 55.66C122.49 55.63 122.45 55.7 122.48 55.88C122.49 55.92 122.46 55.94 122.43 55.92C122.4 55.9 122.28 55.97 122.18 56.07C122.08 56.17 121.94 56.26 121.87 56.26C121.79 56.26 121.74 56.3 121.74 56.35C121.74 56.4 121.71 56.44 121.67 56.43C121.63 56.42 121.59 56.52 121.57 56.65C121.55 56.82 121.57 56.88 121.64 56.88C121.7 56.88 121.74 56.93 121.74 57C121.74 57.07 121.77 57.13 121.8 57.13C121.83 57.13 121.86 57.2 121.86 57.28C121.86 57.37 121.9 57.46 121.96 57.48C122.01 57.5 122.05 57.55 122.05 57.6C122.05 57.65 122.07 57.73 122.11 57.79C122.14 57.85 122.18 57.98 122.2 58.07C122.22 58.17 122.28 58.24 122.33 58.24C122.38 58.24 122.41 58.27 122.39 58.3C122.37 58.34 122.38 58.37 122.42 58.37C122.45 58.37 122.48 58.45 122.48 58.55C122.48 58.69 122.51 58.74 122.59 58.74C122.67 58.75 122.67 58.76 122.61 58.78C122.55 58.81 122.55 58.83 122.6 58.86C122.64 58.88 122.68 58.94 122.69 58.99C122.7 59.04 122.73 59.08 122.75 59.09C122.85 59.11 123.1 59.53 123.1 59.66C123.1 59.73 123.14 59.79 123.18 59.79C123.27 59.79 123.49 60.27 123.44 60.35C123.42 60.39 123.45 60.39 123.52 60.37C123.58 60.35 123.61 60.35 123.58 60.38C123.56 60.41 123.58 60.5 123.63 60.58C123.68 60.66 123.7 60.72 123.66 60.72C123.63 60.72 123.6 60.75 123.6 60.78C123.6 60.82 123.64 60.85 123.7 60.85C123.76 60.85 123.78 60.88 123.75 60.96C123.73 61.03 123.75 61.1 123.79 61.13C123.82 61.15 123.91 61.3 123.98 61.46C124.05 61.61 124.13 61.76 124.18 61.79C124.22 61.82 123.5 61.84 122.59 61.84C121.66 61.84 120.93 61.81 120.93 61.78C120.93 61.75 120.86 61.66 120.78 61.58C120.69 61.5 120.62 61.39 120.62 61.33C120.62 61.28 120.58 61.22 120.53 61.2C120.48 61.18 120.45 61.12 120.47 61.07C120.5 61.01 120.47 60.96 120.41 60.93C120.35 60.91 120.31 60.82 120.31 60.68C120.31 60.56 120.27 60.42 120.22 60.37C120.17 60.33 120.15 60.24 120.17 60.19C120.19 60.13 120.16 60.1 120.09 60.1C119.99 60.1 119.99 60.09 120.06 60.04C120.16 59.98 120.08 59.95 119.92 59.97C119.9 59.97 119.91 59.92 119.95 59.85C120.02 59.74 120.02 59.71 119.93 59.66C119.87 59.63 119.84 59.57 119.85 59.52C119.87 59.47 119.84 59.42 119.79 59.4C119.74 59.38 119.69 59.29 119.69 59.21C119.69 59.13 119.65 59.04 119.59 59.02C119.54 59 119.51 58.96 119.53 58.93C119.55 58.9 119.53 58.83 119.49 58.79C119.33 58.63 119.19 58.37 119.22 58.31C119.25 58.27 119.23 58.26 119.17 58.28C119.09 58.31 119.07 58.27 119.07 58.12C119.07 58.01 119.05 57.94 119.01 57.96C118.98 57.98 118.94 57.96 118.94 57.9C118.92 57.69 118.91 57.65 118.84 57.67C118.8 57.68 118.76 57.64 118.76 57.59C118.76 57.54 118.73 57.5 118.7 57.5C118.67 57.5 118.64 57.47 118.64 57.43C118.64 57.4 118.67 57.38 118.7 57.41C118.81 57.47 118.77 57.25 118.65 57.13C118.52 56.98 117.25 56.97 117.24 57.11C117.23 57.15 117.22 58.23 117.22 59.51C117.22 59.67 117.22 60.44 117.21 61.84L115.76 61.84L114.3 61.84C114.3 61.75 114.29 61.71 114.29 61.7C114.27 61.04 114.27 49.2 114.3 49.2C114.32 49.21 114.37 49.19 114.42 49.17C114.47 49.15 115.77 49.12 117.31 49.11C118.84 49.1 120.12 49.09 120.14 49.08C120.17 49.07 120.19 49.11 120.19 49.16M82.07 53.42C82.07 55.78 82.07 57.76 82.06 57.82C82.06 57.88 82.08 57.93 82.12 57.93C82.15 57.93 82.18 58.01 82.18 58.1C82.18 58.37 82.25 58.55 82.34 58.55C82.39 58.55 82.41 58.59 82.39 58.66C82.36 58.72 82.37 58.74 82.42 58.72C82.46 58.69 82.49 58.74 82.5 58.85C82.52 58.97 82.56 59.02 82.66 59.04C82.74 59.05 82.8 59.09 82.8 59.12C82.8 59.16 82.84 59.17 82.89 59.15C82.93 59.14 83.01 59.15 83.06 59.18C83.13 59.22 83.13 59.23 83.05 59.23C82.97 59.24 82.97 59.24 83.04 59.29C83.23 59.41 84.79 59.37 84.89 59.25C84.94 59.19 84.96 59.18 84.94 59.22C84.92 59.26 84.94 59.3 85 59.3C85.05 59.3 85.1 59.27 85.1 59.23C85.1 59.2 85.13 59.17 85.16 59.17C85.25 59.17 85.46 58.92 85.47 58.82C85.47 58.77 85.5 58.74 85.53 58.74C85.56 58.74 85.59 58.7 85.59 58.64C85.59 58.59 85.63 58.53 85.69 58.51C85.75 58.49 85.77 58.43 85.74 58.36C85.72 58.28 85.74 58.24 85.81 58.24C85.9 58.24 85.92 57.99 85.84 57.91C85.82 57.89 85.82 55.92 85.84 53.52C85.84 53.23 85.85 51.78 85.87 49.16L87.37 49.14L88.88 49.13C88.88 51.67 88.88 53.08 88.88 53.37C88.88 57.08 88.87 57.61 88.79 57.64C88.73 57.66 88.69 57.72 88.69 57.78C88.69 57.84 88.72 57.86 88.77 57.83C88.83 57.8 88.83 57.81 88.77 57.87C88.73 57.92 88.71 58.06 88.74 58.25C88.76 58.49 88.75 58.55 88.68 58.55C88.63 58.55 88.59 58.62 88.58 58.71C88.57 58.8 88.52 58.91 88.47 58.97C88.41 59.03 88.38 59.13 88.4 59.21C88.42 59.31 88.4 59.36 88.34 59.36C88.28 59.36 88.25 59.4 88.28 59.48C88.29 59.55 88.26 59.64 88.19 59.71C88.12 59.76 88.07 59.88 88.07 59.96C88.07 60.05 88.04 60.1 87.96 60.1C87.81 60.1 87.64 60.32 87.64 60.5C87.64 60.61 87.61 60.65 87.55 60.62C87.49 60.6 87.45 60.62 87.45 60.65C87.45 60.69 87.4 60.72 87.34 60.72C87.21 60.72 87 60.95 87.05 61.03C87.09 61.09 86.98 61.18 86.83 61.2C86.7 61.22 86.44 61.36 86.37 61.45C86.33 61.5 86.23 61.54 86.15 61.54C86.06 61.55 85.98 61.57 85.96 61.6C85.94 61.63 85.86 61.66 85.78 61.67C85.69 61.69 85.63 61.73 85.64 61.77C85.65 61.81 85.53 61.84 85.31 61.84C85.1 61.84 84.98 61.86 85 61.9C85.03 61.94 84.68 61.96 84.02 61.96C83.4 61.96 82.98 61.94 82.96 61.9C82.94 61.87 82.81 61.84 82.68 61.84C82.51 61.84 82.44 61.81 82.46 61.76C82.49 61.7 82.42 61.68 82.24 61.68C82.08 61.69 82 61.66 82.02 61.62C82.04 61.58 81.97 61.55 81.87 61.55C81.76 61.55 81.63 61.49 81.52 61.38C81.43 61.29 81.33 61.22 81.29 61.22C81.08 61.25 80.94 61.21 80.94 61.12C80.94 61.07 80.91 61.04 80.88 61.06C80.85 61.08 80.82 61.06 80.82 61C80.82 60.95 80.78 60.91 80.72 60.91C80.67 60.91 80.63 60.87 80.63 60.82C80.63 60.76 80.6 60.72 80.57 60.72C80.47 60.72 80.31 60.55 80.29 60.43C80.28 60.37 80.24 60.33 80.21 60.33C80.17 60.34 80.14 60.31 80.14 60.26C80.14 60.21 80.11 60.16 80.09 60.16C80.06 60.16 80.01 60.08 79.96 59.98C79.91 59.86 79.85 59.81 79.79 59.83C79.73 59.86 79.7 59.82 79.7 59.68C79.7 59.57 79.66 59.48 79.6 59.46C79.55 59.44 79.52 59.4 79.54 59.37C79.56 59.34 79.54 59.28 79.48 59.23C79.43 59.19 79.39 59.05 79.39 58.86C79.39 58.69 79.36 58.54 79.33 58.52C79.29 58.5 79.27 56.86 79.27 53.81C79.27 53.49 79.27 51.93 79.27 49.13L80.66 49.13L82.06 49.13L82.07 53.42M97.56 49.19C97.56 49.22 97.66 49.25 97.78 49.25C97.9 49.25 98.04 49.29 98.09 49.35C98.15 49.4 98.21 49.42 98.24 49.41C98.27 49.39 98.31 49.42 98.32 49.47C98.34 49.52 98.41 49.56 98.48 49.56C98.54 49.56 98.63 49.6 98.67 49.66C98.78 49.78 98.87 49.77 98.82 49.64C98.78 49.54 98.79 49.54 98.88 49.62C98.94 49.66 98.98 49.74 98.98 49.79C98.98 49.83 99.01 49.87 99.05 49.87C99.08 49.87 99.11 49.85 99.11 49.81C99.11 49.78 99.15 49.77 99.2 49.79C99.25 49.81 99.29 49.87 99.28 49.93C99.27 49.98 99.3 50.02 99.34 50.01C99.38 50 99.42 50.03 99.42 50.06C99.42 50.16 99.62 50.35 99.77 50.4C99.85 50.42 99.91 50.48 99.91 50.53C99.91 50.58 99.94 50.62 99.98 50.62C100.01 50.62 100.04 50.66 100.04 50.7C100.04 50.75 100.1 50.8 100.18 50.81C100.27 50.83 100.32 50.88 100.34 50.97C100.35 51.05 100.39 51.11 100.43 51.11C100.48 51.11 100.47 51.13 100.42 51.17C100.34 51.21 100.34 51.25 100.41 51.41C100.46 51.51 100.52 51.59 100.55 51.57C100.57 51.55 100.58 51.58 100.56 51.64C100.53 51.71 100.56 51.73 100.67 51.73C100.76 51.73 100.79 51.75 100.74 51.78C100.66 51.83 100.65 52.11 100.73 52.17C100.75 52.18 100.78 52.31 100.79 52.45C100.8 52.58 100.86 52.76 100.92 52.84C101.04 53.01 101.02 53.37 100.87 53.51C100.83 53.56 100.8 53.73 100.8 53.92C100.81 54.17 100.79 54.25 100.74 54.23C100.68 54.21 100.66 54.27 100.66 54.41C100.66 54.53 100.62 54.66 100.58 54.7C100.54 54.74 100.5 54.8 100.5 54.82C100.49 54.84 100.46 54.94 100.42 55.04C100.38 55.13 100.35 55.24 100.35 55.27C100.35 55.3 100.3 55.33 100.25 55.33C100.19 55.33 100.16 55.36 100.18 55.42C100.22 55.51 100.03 55.76 99.93 55.76C99.89 55.76 99.84 55.82 99.82 55.89C99.8 55.96 99.76 56 99.74 55.98C99.69 55.93 99.42 56.2 99.46 56.27C99.47 56.3 99.4 56.35 99.3 56.39C99.19 56.43 99.12 56.48 99.14 56.51C99.17 56.56 99.13 56.58 99.01 56.56C98.98 56.56 98.94 56.6 98.91 56.65C98.88 56.7 98.81 56.73 98.74 56.71C98.65 56.69 98.61 56.71 98.61 56.78C98.61 56.84 98.56 56.88 98.46 56.88C98.37 56.88 98.3 56.91 98.3 56.94C98.3 56.97 98.22 57 98.11 57C98 57 97.91 57.04 97.89 57.1C97.86 57.17 97.62 57.19 96.3 57.2C96.19 57.2 95.67 57.21 94.74 57.21L96.01 57.25L97.28 57.29C96.51 57.29 96.08 57.3 96 57.3C95.06 57.31 94.71 57.29 94.69 57.24C94.68 57.2 94.62 57.18 94.56 57.21C94.47 57.24 94.46 57.44 94.46 59.54C94.46 59.7 94.46 60.46 94.46 61.84C93.56 61.84 93.05 61.83 92.95 61.83C92.13 61.83 91.49 61.81 91.53 61.8C91.59 61.77 91.61 60.44 91.61 55.45C91.61 55.03 91.61 52.92 91.61 49.13C93.39 49.13 94.38 49.13 94.58 49.13C96.52 49.13 97.56 49.15 97.56 49.19M111.65 50.43L111.63 51.73C109.98 51.73 109.07 51.73 108.88 51.73C106.77 51.73 106.12 51.75 106.06 51.81C105.99 51.87 105.98 51.87 106.02 51.79C106.06 51.72 106.05 51.72 105.99 51.77C105.94 51.82 105.93 51.87 105.98 51.97C106.07 52.12 106.08 53.76 106 53.81C105.92 53.85 105.98 54.07 106.07 54.07C106.11 54.07 107.21 54.07 108.52 54.08C108.67 54.08 109.47 54.08 110.89 54.09L110.89 55.39L110.89 56.69C109.48 56.69 108.7 56.7 108.55 56.7C105.77 56.7 105.82 56.7 105.98 56.94C106.03 57.03 106.05 57.35 106.04 58.01C106.04 58.07 106.03 58.39 106.03 58.96L105.99 57.96L105.95 56.97C105.95 57.55 105.94 57.87 105.94 57.94C105.93 58.49 105.95 58.92 105.99 58.96C106.02 58.99 106.06 59.09 106.07 59.17C106.1 59.36 105.83 59.34 109.07 59.35C109.24 59.35 110.09 59.35 111.63 59.36L111.65 60.6L111.66 61.84L107.4 61.84L103.14 61.84L103.14 55.48L103.14 49.13L107.4 49.13L111.66 49.13L111.65 50.43M42.94 51.06C42.75 51.21 42.8 51.26 43 51.11C43.08 51.05 43.14 50.98 43.12 50.97C43.1 50.95 43.02 50.99 42.94 51.06M94.5 51.78C94.41 51.92 94.46 54.52 94.55 54.52C94.6 54.52 94.64 54.56 94.63 54.6C94.62 54.66 94.89 54.68 95.78 54.7C96.79 54.71 96.94 54.7 96.94 54.62C96.94 54.55 97 54.52 97.11 54.52C97.35 54.52 97.9 54.02 97.85 53.84C97.83 53.77 97.85 53.74 97.9 53.75C97.97 53.78 97.97 53.14 97.9 52.92C97.88 52.88 97.9 52.86 97.94 52.88C98.04 52.95 97.94 52.67 97.79 52.45C97.67 52.28 97.67 52.27 97.78 52.31C97.89 52.36 97.89 52.35 97.77 52.24C97.71 52.17 97.63 52.13 97.6 52.15C97.58 52.16 97.53 52.11 97.5 52.03C97.47 51.95 97.44 51.92 97.43 51.98C97.43 52.04 97.41 52.03 97.37 51.94C97.34 51.86 97.24 51.8 97.12 51.77C96.83 51.71 94.53 51.72 94.5 51.78M117.25 51.79C117.23 51.82 117.22 52.48 117.23 53.26C117.23 53.35 117.23 53.83 117.24 54.68C117.96 54.69 118.36 54.7 118.44 54.7C119.23 54.71 119.63 54.69 119.63 54.65C119.63 54.62 119.67 54.6 119.72 54.62C119.77 54.64 119.82 54.63 119.82 54.59C119.82 54.55 119.86 54.52 119.91 54.52C119.96 54.52 120 54.48 120 54.43C120 54.38 120.04 54.35 120.09 54.37C120.13 54.39 120.22 54.36 120.27 54.31C120.32 54.26 120.4 54.21 120.43 54.21C120.47 54.21 120.5 54.15 120.5 54.09C120.5 54.02 120.56 53.89 120.64 53.8C120.83 53.6 120.88 52.9 120.72 52.73C120.67 52.67 120.62 52.54 120.61 52.43C120.6 52.32 120.57 52.25 120.55 52.27C120.52 52.28 120.5 52.26 120.5 52.21C120.5 52.14 120.29 51.92 120.21 51.92C120.19 51.92 120.14 51.88 120.09 51.83C119.99 51.73 117.31 51.69 117.25 51.79M41.57 52.21C41.49 52.29 41.44 52.35 41.47 52.35C41.53 52.35 41.79 52.11 41.75 52.08C41.74 52.07 41.66 52.12 41.57 52.21M105.95 52.91C105.95 53.4 105.96 53.61 105.97 53.36C105.99 53.11 105.99 52.71 105.97 52.46C105.96 52.21 105.95 52.42 105.95 52.91M39.43 53.81C39.33 53.88 39.32 53.9 39.41 53.9C39.47 53.9 39.53 53.86 39.55 53.81C39.59 53.69 39.58 53.69 39.43 53.81M32.92 58.93C32.9 58.96 32.89 59.01 32.91 59.03C32.96 59.07 33.08 58.99 33.08 58.92C33.08 58.84 32.97 58.85 32.92 58.93M31.17 60.31C31.15 60.36 31.08 60.41 31.04 60.42C30.98 60.44 30.97 60.47 31.01 60.49C31.05 60.51 31.14 60.46 31.21 60.38C31.28 60.29 31.31 60.23 31.28 60.23C31.25 60.23 31.2 60.26 31.17 60.31M29.74 61.47C29.63 61.65 29.65 61.69 29.79 61.54C29.92 61.4 29.95 61.34 29.87 61.34C29.84 61.34 29.79 61.4 29.74 61.47M28.86 62.02C28.86 62.06 28.9 62.09 28.95 62.09C29 62.09 29.06 62.06 29.08 62.02C29.1 61.99 29.06 61.96 28.99 61.96C28.92 61.96 28.86 61.99 28.86 62.02M28.59 62.31C28.42 62.48 28.38 62.58 28.49 62.58C28.52 62.58 28.55 62.54 28.55 62.49C28.55 62.44 28.57 62.4 28.6 62.4C28.62 62.4 28.68 62.34 28.72 62.27C28.83 62.1 28.79 62.12 28.59 62.31M27.35 63.33C27.25 63.43 27.19 63.51 27.22 63.51C27.27 63.51 27.56 63.22 27.56 63.17C27.56 63.12 27.53 63.14 27.35 63.33M23.41 73.44C23.41 78.1 23.39 80.3 23.34 80.4C23.28 80.53 23.28 80.53 23.37 80.41C23.47 80.29 23.53 66.61 23.44 66.61C23.42 66.61 23.41 69.68 23.41 73.44" id="a1RDke7OqT"></path><path d="M4 49.5L4 80.5C9.78 80.5 12.99 80.5 13.64 80.5C21.28 80.5 23.29 80.48 23.32 80.42C23.42 80.28 23.45 66.55 23.36 66.55C23.32 66.55 23.38 66.45 23.5 66.34C23.63 66.21 23.76 66.14 23.81 66.16C23.87 66.18 23.9 66.15 23.9 66.1C23.9 66.04 23.96 65.99 24.04 65.98C24.13 65.97 24.19 65.91 24.2 65.82C24.22 65.72 24.26 65.68 24.37 65.68C24.45 65.68 24.52 65.65 24.52 65.62C24.52 65.59 24.56 65.56 24.62 65.56C24.67 65.56 24.71 65.53 24.71 65.49C24.71 65.41 24.87 65.25 24.95 65.25C24.99 65.25 25.02 65.21 25.02 65.16C25.02 65.1 25.07 65.06 25.15 65.06C25.27 65.06 25.45 64.93 25.45 64.83C25.45 64.81 25.54 64.74 25.65 64.7C25.76 64.65 25.96 64.5 26.09 64.37C26.21 64.24 26.35 64.13 26.38 64.13C26.42 64.13 26.59 63.99 26.77 63.82C26.94 63.65 27.1 63.51 27.12 63.51C27.15 63.51 27.25 63.43 27.35 63.33C27.44 63.23 27.56 63.17 27.61 63.19C27.7 63.22 27.88 63.02 27.82 62.93C27.8 62.9 27.82 62.89 27.86 62.92C27.9 62.94 27.93 62.93 27.93 62.9C27.93 62.86 27.97 62.85 28.03 62.87C28.1 62.9 28.11 62.88 28.08 62.8C28.04 62.71 28.06 62.69 28.14 62.72C28.21 62.75 28.24 62.73 28.24 62.67C28.24 62.62 28.28 62.58 28.32 62.58C28.37 62.58 28.44 62.52 28.49 62.43C28.53 62.35 28.63 62.25 28.71 62.21C28.8 62.16 28.86 62.09 28.86 62.04C28.86 62 28.93 61.96 29.02 61.96C29.1 61.96 29.17 61.93 29.17 61.9C29.17 61.86 29.2 61.85 29.23 61.87C29.27 61.89 29.3 61.88 29.3 61.84C29.3 61.8 29.33 61.79 29.37 61.81C29.42 61.84 29.43 61.82 29.4 61.76C29.37 61.68 29.4 61.65 29.5 61.65C29.59 61.65 29.68 61.59 29.73 61.5C29.78 61.41 29.84 61.34 29.87 61.34C29.95 61.34 30.1 61.18 30.1 61.1C30.1 61.06 30.16 61.03 30.23 61.03C30.31 61.03 30.46 60.93 30.57 60.81C30.69 60.69 30.84 60.59 30.91 60.58C30.98 60.58 31.02 60.54 31 60.49C30.99 60.45 31 60.41 31.04 60.41C31.07 60.41 31.16 60.34 31.24 60.26C31.32 60.17 31.42 60.1 31.46 60.1C31.5 60.1 31.53 60.07 31.53 60.04C31.53 60.01 31.6 59.98 31.68 59.98C31.77 59.98 31.84 59.95 31.84 59.91C31.84 59.83 32 59.67 32.08 59.67C32.12 59.67 32.15 59.64 32.15 59.6C32.15 59.52 32.31 59.36 32.39 59.36C32.43 59.36 32.51 59.31 32.58 59.25C32.93 58.92 33.01 58.86 33.08 58.86C33.12 58.86 33.25 58.76 33.36 58.65C33.47 58.53 33.61 58.43 33.66 58.43C33.72 58.43 33.78 58.39 33.8 58.34C33.82 58.28 33.88 58.24 33.93 58.24C33.99 58.24 34.01 58.21 33.98 58.14C33.96 58.07 33.97 58.05 34.04 58.08C34.1 58.1 34.13 58.08 34.13 58.02C34.13 57.97 34.19 57.93 34.26 57.93C34.33 57.93 34.41 57.87 34.44 57.78C34.47 57.69 34.55 57.62 34.6 57.62C34.65 57.62 34.74 57.59 34.78 57.54C34.83 57.5 34.98 57.38 35.12 57.28C35.26 57.18 35.37 57.06 35.37 57.02C35.37 56.97 35.4 56.95 35.43 56.97C35.47 56.99 35.5 56.98 35.5 56.94C35.5 56.91 35.54 56.88 35.59 56.88C35.64 56.88 35.68 56.84 35.68 56.79C35.68 56.73 35.72 56.69 35.78 56.69C35.83 56.69 35.87 56.66 35.87 56.63C35.87 56.6 35.91 56.57 35.96 56.57C36.01 56.57 36.05 56.54 36.05 56.51C36.05 56.48 36.11 56.43 36.19 56.41C36.26 56.39 36.4 56.27 36.51 56.16C36.62 56.04 36.74 55.95 36.78 55.95C36.83 55.95 36.88 55.91 36.9 55.86C36.92 55.8 36.96 55.76 37 55.76C37.08 55.76 37.23 55.6 37.23 55.52C37.23 55.48 37.27 55.45 37.33 55.45C37.38 55.45 37.42 55.42 37.42 55.39C37.42 55.36 37.46 55.33 37.52 55.33C37.58 55.33 37.72 55.22 37.85 55.09C37.97 54.96 38.16 54.82 38.27 54.78C38.38 54.73 38.47 54.65 38.47 54.61C38.47 54.56 38.5 54.52 38.54 54.52C38.57 54.52 38.65 54.48 38.7 54.43C38.74 54.38 38.83 54.36 38.89 54.38C38.96 54.41 38.98 54.39 38.95 54.32C38.93 54.26 38.94 54.21 38.97 54.21C39 54.21 39.12 54.11 39.23 53.99C39.34 53.87 39.48 53.76 39.54 53.76C39.6 53.75 39.74 53.64 39.87 53.51C39.99 53.39 40.14 53.28 40.2 53.28C40.25 53.28 40.42 53.14 40.57 52.97C40.72 52.8 40.9 52.66 40.96 52.66C41.03 52.66 41.07 52.63 41.05 52.6C41.02 52.57 41.05 52.54 41.1 52.54C41.16 52.54 41.2 52.5 41.2 52.45C41.2 52.36 41.27 52.33 41.39 52.34C41.42 52.34 41.58 52.21 41.75 52.04C41.93 51.87 42.1 51.73 42.13 51.73C42.17 51.73 42.19 51.7 42.19 51.67C42.19 51.64 42.24 51.61 42.29 51.61C42.35 51.61 42.38 51.57 42.36 51.52C42.33 51.46 42.36 51.42 42.41 51.42C42.46 51.42 42.5 51.39 42.5 51.36C42.5 51.33 42.57 51.3 42.66 51.3C42.74 51.3 42.81 51.26 42.81 51.22C42.81 51.14 43.06 50.95 43.13 50.97C43.15 50.98 43.35 50.8 43.58 50.58C43.81 50.36 44.04 50.18 44.09 50.18C44.2 50.18 44.36 50.04 44.36 49.94C44.36 49.9 44.4 49.87 44.46 49.87C44.51 49.87 44.55 49.84 44.55 49.81C44.55 49.78 44.58 49.75 44.63 49.75C44.67 49.75 44.77 49.68 44.85 49.59C44.93 49.51 45.03 49.44 45.08 49.44C45.13 49.44 45.17 49.41 45.17 49.37C45.17 49.26 45.34 49.13 45.47 49.13C45.55 49.13 45.6 49.09 45.6 49.04C45.6 48.98 45.63 48.94 45.67 48.94C45.75 48.94 45.91 48.78 45.91 48.7C45.91 48.66 45.97 48.63 46.03 48.63C46.1 48.63 46.25 48.53 46.36 48.42C46.48 48.3 46.61 48.2 46.66 48.2C46.71 48.2 46.85 48.09 46.97 47.95C47.09 47.81 47.22 47.7 47.26 47.7C47.3 47.7 47.34 47.67 47.34 47.64C47.34 47.61 47.38 47.58 47.42 47.58C47.47 47.58 47.6 47.47 47.72 47.34C47.83 47.21 48 47.08 48.08 47.05C48.17 47.02 48.32 46.91 48.41 46.79C48.51 46.68 48.62 46.6 48.65 46.62C48.68 46.64 48.7 46.61 48.7 46.56C48.7 46.51 48.73 46.46 48.77 46.46C48.85 46.46 49.01 46.3 49.01 46.22C49.01 46.18 49.05 46.15 49.11 46.15C49.16 46.15 49.2 46.12 49.2 46.09C49.2 46.06 49.24 46.03 49.3 46.03C49.35 46.03 49.47 45.97 49.56 45.89C49.85 45.63 50.44 45.04 50.44 45.01C50.44 44.99 50.58 44.83 50.76 44.65C51.17 44.24 51.37 43.98 51.37 43.87C51.37 43.83 51.4 43.81 51.43 43.83C51.46 43.85 51.49 43.82 51.49 43.77C51.49 43.72 51.54 43.67 51.6 43.67C51.68 43.67 51.69 43.66 51.63 43.62C51.57 43.58 51.58 43.54 51.68 43.44C51.75 43.37 51.8 43.25 51.8 43.18C51.8 43.11 51.83 43.05 51.86 43.05C51.9 43.05 51.93 43.01 51.93 42.96C51.93 42.9 51.97 42.77 52.02 42.67C52.08 42.57 52.09 42.5 52.06 42.52C52.02 42.54 51.99 42.53 51.99 42.5C51.99 42.46 52.02 42.43 52.05 42.43C52.08 42.43 52.11 42.32 52.11 42.18C52.11 42.02 52.14 41.94 52.19 41.95C52.27 41.97 52.28 41.93 52.29 41.53C52.29 41.36 52.32 41.26 52.36 41.29C52.4 41.31 52.42 40.8 52.42 39.8C52.42 38.83 52.4 38.28 52.36 38.28C52.33 38.28 52.3 38.14 52.3 37.97C52.3 37.73 52.28 37.66 52.21 37.66C52.14 37.66 52.11 37.59 52.11 37.42C52.11 37.29 52.08 37.16 52.05 37.13C52.02 37.09 51.98 36.98 51.97 36.88C51.96 36.78 51.9 36.63 51.85 36.54C51.79 36.46 51.73 36.31 51.71 36.21C51.68 36.1 51.63 36.05 51.58 36.07C51.53 36.09 51.51 36.07 51.53 36.02C51.55 35.97 51.48 35.85 51.37 35.74C51.27 35.63 51.18 35.5 51.18 35.45C51.18 35.4 51.15 35.36 51.12 35.36C51.09 35.36 51.06 35.32 51.06 35.27C51.06 35.22 51.02 35.18 50.97 35.18C50.91 35.18 50.87 35.12 50.87 35.06C50.87 34.94 49.93 33.94 49.82 33.94C49.79 33.94 49.78 33.89 49.8 33.83C49.83 33.76 49.81 33.74 49.74 33.77C49.68 33.79 49.59 33.77 49.55 33.72C49.5 33.67 49.43 33.63 49.4 33.63C49.36 33.63 49.32 33.59 49.3 33.53C49.28 33.48 49.21 33.44 49.14 33.44C49.08 33.44 49.01 33.42 49 33.4C48.99 33.37 48.89 33.27 48.77 33.16C48.65 33.06 48.58 33.02 48.61 33.07C48.65 33.15 48.64 33.15 48.57 33.09C48.53 33.04 48.4 33.01 48.29 33.01C48.15 33.01 48.08 32.98 48.08 32.92C48.08 32.86 48.02 32.82 47.93 32.82C47.84 32.82 47.77 32.79 47.77 32.76C47.77 32.73 47.71 32.7 47.64 32.7C47.57 32.7 47.47 32.66 47.42 32.61C47.37 32.55 47.26 32.51 47.18 32.51C47.1 32.51 47.03 32.48 47.03 32.45C47.03 32.42 46.89 32.39 46.72 32.39C46.51 32.39 46.41 32.36 46.39 32.3C46.36 32.22 46.23 32.2 45.82 32.2C45.51 32.2 45.29 32.18 45.29 32.14C45.29 32.06 44.44 32.06 44.39 32.14C44.37 32.17 44.16 32.2 43.91 32.2C43.62 32.2 43.44 32.23 43.37 32.29C43.32 32.34 43.14 32.39 42.98 32.4C42.83 32.4 42.71 32.43 42.73 32.46C42.74 32.49 42.67 32.51 42.56 32.51C42.46 32.51 42.33 32.55 42.28 32.61C42.22 32.66 42.12 32.7 42.03 32.7C41.95 32.7 41.88 32.73 41.88 32.76C41.88 32.79 41.83 32.82 41.76 32.82C41.69 32.82 41.61 32.86 41.59 32.92C41.57 32.97 41.49 33.01 41.41 33.01C41.33 33.01 41.26 33.03 41.26 33.06C41.26 33.08 41.19 33.11 41.09 33.12C41 33.13 40.89 33.17 40.85 33.23C40.81 33.28 40.75 33.32 40.72 33.32C40.68 33.32 40.64 33.36 40.62 33.42C40.6 33.47 40.56 33.5 40.53 33.48C40.5 33.46 40.4 33.52 40.31 33.6C40.23 33.68 40.12 33.75 40.09 33.75C40.05 33.75 40.02 33.78 40.02 33.82C40.02 33.9 39.86 34.07 39.76 34.08C39.68 34.1 39.15 34.62 39.15 34.69C39.15 34.76 38.92 34.99 38.85 34.99C38.81 34.99 38.78 35.02 38.78 35.05C38.78 35.09 38.73 35.18 38.66 35.26C38.59 35.34 38.48 35.5 38.41 35.62C38.35 35.73 38.27 35.82 38.23 35.81C38.19 35.81 38.16 35.84 38.16 35.89C38.16 36.03 38.15 36.07 38.05 36.16C38.01 36.21 37.98 36.28 38 36.33C38.02 36.38 38 36.4 37.94 36.38C37.88 36.35 37.86 36.37 37.89 36.44C37.91 36.49 37.89 36.55 37.86 36.57C37.82 36.59 37.8 36.64 37.82 36.67C37.84 36.7 37.84 36.73 37.81 36.73C37.78 36.73 37.75 36.83 37.74 36.96C37.73 37.09 37.68 37.21 37.63 37.24C37.57 37.27 37.54 37.39 37.54 37.56C37.54 37.71 37.51 37.85 37.48 37.88C37.45 37.9 37.42 38.07 37.42 38.25C37.42 38.51 37.4 38.59 37.33 38.59C37.25 38.59 37.23 38.68 37.23 39.05C37.23 39.08 37.23 39.24 37.23 39.52L30.26 39.52L23.28 39.52C23.28 39.33 23.28 39.23 23.28 39.21C23.28 39.04 23.31 38.9 23.34 38.9C23.38 38.9 23.41 38.67 23.41 38.32C23.41 37.44 23.48 36.36 23.54 36.39C23.57 36.41 23.59 36.24 23.59 36.02C23.59 35.7 23.61 35.61 23.69 35.61C23.76 35.61 23.78 35.54 23.78 35.3C23.78 35.13 23.81 34.99 23.84 34.99C23.87 34.99 23.9 34.88 23.9 34.75C23.9 34.62 23.93 34.5 23.96 34.49C24 34.47 24.04 34.34 24.06 34.19C24.08 34.03 24.13 33.88 24.16 33.85C24.19 33.82 24.21 33.71 24.21 33.62C24.21 33.52 24.25 33.44 24.29 33.44C24.34 33.44 24.37 33.35 24.37 33.22C24.37 33.1 24.42 32.97 24.46 32.94C24.51 32.91 24.53 32.87 24.51 32.85C24.49 32.83 24.52 32.71 24.59 32.58C24.65 32.46 24.71 32.25 24.72 32.12C24.73 32 24.76 31.89 24.78 31.89C24.81 31.89 24.83 31.83 24.83 31.76C24.83 31.69 24.87 31.59 24.93 31.54C24.98 31.49 25.02 31.38 25.02 31.3C25.02 31.22 25.05 31.15 25.08 31.15C25.11 31.15 25.14 31.08 25.14 30.99C25.14 30.9 25.17 30.85 25.2 30.87C25.27 30.91 25.45 30.56 25.45 30.39C25.45 30.33 25.49 30.28 25.55 30.28C25.6 30.28 25.64 30.23 25.64 30.17C25.64 30 25.78 29.72 25.87 29.72C25.91 29.72 25.93 29.68 25.91 29.64C25.89 29.59 25.92 29.51 25.98 29.46C26.03 29.4 26.07 29.3 26.07 29.23C26.07 29.16 26.11 29.1 26.17 29.1C26.22 29.1 26.26 29.04 26.26 28.95C26.26 28.86 26.29 28.79 26.32 28.79C26.35 28.79 26.38 28.75 26.38 28.7C26.38 28.65 26.42 28.61 26.46 28.62C26.5 28.63 26.53 28.59 26.52 28.53C26.51 28.47 26.54 28.4 26.6 28.38C26.65 28.36 26.69 28.28 26.69 28.19C26.69 28.11 26.72 28.06 26.75 28.08C26.79 28.1 26.82 28.09 26.82 28.05C26.82 28.01 26.84 28 26.88 28.02C26.91 28.04 26.94 28.02 26.94 27.97C26.94 27.92 27 27.81 27.07 27.72C27.14 27.63 27.2 27.5 27.2 27.43C27.21 27.37 27.24 27.33 27.26 27.34C27.29 27.36 27.31 27.33 27.31 27.27C27.31 27.22 27.35 27.16 27.41 27.14C27.46 27.12 27.5 27.07 27.5 27.02C27.5 26.97 27.52 26.93 27.56 26.93C27.59 26.93 27.62 26.87 27.63 26.79C27.65 26.7 27.7 26.65 27.79 26.63C27.88 26.62 27.93 26.57 27.93 26.49C27.93 26.42 27.99 26.35 28.09 26.31C28.18 26.28 28.24 26.2 28.24 26.13C28.24 26.06 28.27 26 28.31 26C28.4 26 28.55 25.84 28.55 25.74C28.55 25.63 28.89 25.34 28.99 25.37C29.03 25.39 29.05 25.37 29.03 25.33C29 25.3 29.03 25.25 29.08 25.24C29.13 25.22 29.17 25.15 29.17 25.09C29.17 25.04 29.19 25.01 29.21 25.03C29.25 25.07 29.48 24.85 29.48 24.76C29.48 24.72 29.51 24.71 29.54 24.73C29.58 24.75 29.61 24.73 29.61 24.67C29.61 24.62 29.64 24.58 29.68 24.59C29.73 24.6 29.75 24.57 29.75 24.53C29.74 24.49 29.79 24.44 29.86 24.42C29.92 24.4 29.98 24.35 29.98 24.32C29.98 24.29 30.01 24.28 30.04 24.3C30.07 24.32 30.1 24.28 30.1 24.21C30.1 24.12 30.13 24.1 30.2 24.12C30.27 24.15 30.28 24.13 30.25 24.05C30.21 23.96 30.23 23.94 30.32 23.98C30.4 24.01 30.42 24 30.39 23.93C30.37 23.87 30.39 23.83 30.43 23.83C30.47 23.83 30.64 23.69 30.8 23.52C30.96 23.35 31.11 23.21 31.14 23.21C31.17 23.21 31.24 23.14 31.31 23.06C31.37 22.97 31.46 22.9 31.5 22.9C31.55 22.9 31.63 22.83 31.7 22.75C31.78 22.64 31.84 22.62 31.88 22.66C31.93 22.71 31.96 22.69 31.99 22.6C32.03 22.48 32.1 22.44 32.23 22.46C32.25 22.46 32.27 22.43 32.27 22.39C32.27 22.32 32.62 22.05 32.8 21.98C32.83 21.96 32.92 21.89 33 21.81C33.07 21.73 33.17 21.66 33.21 21.66C33.26 21.66 33.35 21.62 33.41 21.57C33.48 21.52 33.55 21.49 33.58 21.51C33.6 21.52 33.64 21.5 33.66 21.44C33.68 21.39 33.75 21.35 33.82 21.35C33.96 21.35 34.13 21.22 34.13 21.11C34.13 21.07 34.2 21.04 34.29 21.04C34.37 21.04 34.44 21.01 34.44 20.98C34.44 20.95 34.49 20.92 34.56 20.92C34.62 20.92 34.69 20.88 34.71 20.83C34.73 20.77 34.82 20.73 34.91 20.73C34.99 20.73 35.06 20.7 35.06 20.67C35.06 20.64 35.1 20.61 35.16 20.61C35.21 20.61 35.25 20.57 35.25 20.52C35.25 20.46 35.31 20.42 35.4 20.42C35.48 20.42 35.57 20.39 35.59 20.36C35.61 20.33 35.68 20.3 35.75 20.3C35.82 20.3 35.89 20.26 35.91 20.2C35.93 20.15 36.01 20.11 36.1 20.11C36.28 20.11 36.74 19.93 36.74 19.85C36.74 19.82 36.8 19.8 36.88 19.8C36.96 19.8 37.05 19.78 37.08 19.74C37.11 19.71 37.22 19.67 37.32 19.65C37.43 19.63 37.52 19.59 37.53 19.56C37.54 19.52 37.62 19.49 37.7 19.49C37.78 19.49 37.85 19.46 37.85 19.43C37.85 19.4 37.93 19.37 38.03 19.37C38.13 19.37 38.24 19.33 38.29 19.27C38.33 19.22 38.46 19.18 38.57 19.18C38.69 19.18 38.78 19.15 38.78 19.12C38.78 19.09 38.86 19.06 38.95 19.06C39.2 19.06 39.41 18.99 39.37 18.93C39.35 18.9 39.45 18.87 39.59 18.87C39.85 18.87 40.02 18.77 40.02 18.6C40.02 18.51 38.34 18.5 22.01 18.5C20.81 18.5 14.81 18.5 4 18.5L4 49.5M85.83 53.54C85.82 55.93 85.83 57.89 85.86 57.91C85.88 57.93 85.9 55.97 85.9 53.56C85.9 51.16 85.89 49.19 85.87 49.19C85.86 49.19 85.83 51.15 85.83 53.54M69.01 50.06C68.95 50.13 68.91 50.18 68.94 50.18C69.01 50.18 69.18 50 69.15 49.96C69.13 49.95 69.07 49.99 69.01 50.06M68.71 50.29C68.68 50.31 68.67 50.37 68.67 50.41C68.67 50.49 68.68 50.48 68.76 50.41C68.81 50.36 68.85 50.3 68.85 50.28C68.85 50.23 68.76 50.23 68.71 50.29M99.73 50.4C99.73 50.48 99.98 50.7 100.02 50.66C100.04 50.63 100.03 50.62 99.99 50.62C99.95 50.62 99.91 50.58 99.91 50.53C99.91 50.48 99.87 50.43 99.82 50.41C99.77 50.39 99.73 50.39 99.73 50.4M114.26 51.36C114.26 51.72 114.27 51.86 114.28 51.69C114.29 51.51 114.29 51.21 114.28 51.03C114.27 50.86 114.26 51 114.26 51.36M105.96 52.88C105.96 53.4 105.98 53.82 106.01 53.8C106.07 53.76 106.06 52.1 106 52C105.98 51.96 105.96 52.36 105.96 52.88M97.93 53.18L97.96 53.5C97.97 53.34 97.98 53.25 97.98 53.23C97.99 53.08 97.98 52.93 97.95 52.9C97.92 52.88 97.91 53 97.93 53.18M114.26 56.32C114.26 56.68 114.27 56.82 114.28 56.65C114.29 56.47 114.29 56.17 114.28 55.99C114.27 55.82 114.26 55.96 114.26 56.32M105.97 58.04C105.97 58.83 106 59.14 106.05 59.19C106.11 59.25 106.12 59.25 106.09 59.19C106.06 59.14 106.04 58.63 106.05 58.06C106.05 57.48 106.03 57 106.01 56.98C105.98 56.97 105.96 57.44 105.97 58.04M94.71 57.27C94.71 57.29 95.29 57.31 95.99 57.3C97.29 57.29 97.14 57.26 95.56 57.24C95.09 57.23 94.71 57.24 94.71 57.27M88.71 58.34C88.71 58.47 88.72 58.52 88.74 58.44C88.75 58.37 88.75 58.25 88.73 58.19C88.72 58.14 88.71 58.2 88.71 58.34M54.72 59.48C54.63 59.54 54.58 59.61 54.59 59.63C54.61 59.64 54.71 59.59 54.81 59.51C55.03 59.33 54.94 59.31 54.72 59.48M68.05 59.48C67.96 59.54 67.91 59.61 67.93 59.63C67.95 59.65 68.03 59.6 68.11 59.51C68.28 59.33 68.26 59.32 68.05 59.48M53.51 60.41C53.49 60.48 53.42 60.55 53.35 60.57C53.28 60.59 53.23 60.64 53.23 60.67C53.23 60.74 53.37 60.65 53.58 60.43C53.67 60.33 53.69 60.29 53.63 60.29C53.59 60.29 53.53 60.34 53.51 60.41M75.93 60.38C75.83 60.5 75.92 60.5 76.08 60.38C76.17 60.31 76.18 60.29 76.11 60.29C76.05 60.29 75.98 60.33 75.93 60.38M114.26 61.13C114.26 61.4 114.27 61.5 114.28 61.36C114.29 61.21 114.29 60.99 114.28 60.86C114.27 60.73 114.26 60.85 114.26 61.13M51.96 61.7L51.85 61.87C51.94 61.78 52 61.73 52.01 61.72C52.19 61.56 52.2 61.53 52.12 61.53C52.09 61.53 52.02 61.6 51.96 61.7M47.46 65.34C47.42 65.39 47.4 65.47 47.42 65.51C47.44 65.56 47.45 65.55 47.46 65.48C47.46 65.43 47.51 65.35 47.57 65.31C47.63 65.28 47.65 65.25 47.61 65.25C47.57 65.25 47.51 65.29 47.46 65.34M47.03 65.61C47.03 65.64 47.08 65.66 47.15 65.65C47.33 65.64 47.35 65.59 47.18 65.57C47.1 65.57 47.03 65.58 47.03 65.61" id="g5DgnJulM"></path></defs><g><g><g><use xlink:href="#a1RDke7OqT" opacity="1" fill="#ffcc39" fill-opacity="1"></use><g><use xlink:href="#a1RDke7OqT" opacity="1" fill-opacity="0" stroke="#000000" stroke-width="1" stroke-opacity="0"></use></g></g><g><use xlink:href="#g5DgnJulM" opacity="1" fill="#f69217" fill-opacity="1"></use><g><use xlink:href="#g5DgnJulM" opacity="1" fill-opacity="0" stroke="#000000" stroke-width="1" stroke-opacity="0"></use></g></g></g></g></svg>