<?xml version="1.0" encoding="UTF-8" standalone="no"?>
<svg
   xmlns:dc="http://purl.org/dc/elements/1.1/"
   xmlns:cc="http://creativecommons.org/ns#"
   xmlns:rdf="http://www.w3.org/1999/02/22-rdf-syntax-ns#"
   xmlns:svg="http://www.w3.org/2000/svg"
   xmlns="http://www.w3.org/2000/svg"
   xmlns:sodipodi="http://sodipodi.sourceforge.net/DTD/sodipodi-0.dtd"
   xmlns:inkscape="http://www.inkscape.org/namespaces/inkscape"
   width="132"
   height="99"
   viewBox="0 0 34.924999 26.193751"
   version="1.1"
   id="svg8"
   inkscape:version="1.0.2 (e86c870879, 2021-01-15, custom)"
   sodipodi:docname="SuperOne.svg">
  <defs
     id="defs2" />
  <sodipodi:namedview
     id="base"
     pagecolor="#ffffff"
     bordercolor="#666666"
     borderopacity="1.0"
     inkscape:pageopacity="0.0"
     inkscape:pageshadow="2"
     inkscape:zoom="0.24748737"
     inkscape:cx="1561.8909"
     inkscape:cy="1123.9832"
     inkscape:document-units="px"
     inkscape:current-layer="svg8"
     inkscape:document-rotation="0"
     showgrid="false"
     units="px"
     inkscape:window-width="1920"
     inkscape:window-height="1001"
     inkscape:window-x="-9"
     inkscape:window-y="-9"
     inkscape:window-maximized="1" />
  <metadata
     id="metadata5">
    <rdf:RDF>
      <cc:Work
         rdf:about="">
        <dc:format>image/svg+xml</dc:format>
        <dc:type
           rdf:resource="http://purl.org/dc/dcmitype/StillImage" />
        <dc:title></dc:title>
      </cc:Work>
    </rdf:RDF>
  </metadata>
  <g
     id="g24"
     transform="matrix(0.19439568,0,0,0.19439568,-26.773852,-30.390765)">
    <path
       style="display:inline;fill:#4ec2b6;stroke-width:0.264583"
       d="m 292.62918,216.08899 h -5.82084 v -4.7625 h 10.58334 v 24.87083 h -4.7625 z m 6.08541,15.61041 h 13.22917 v 4.23334 h -13.22917 z"
       id="path30"
       sodipodi:nodetypes="cccccccccccc" />
    <path
       style="display:inline;fill:#595959;stroke-width:0.264583"
       d="m 298.71459,221.38058 h 10.31875 v 3.96875 h -10.31875 z"
       id="path28"
       sodipodi:nodetypes="ccccc" />
    <path
       style="display:inline;fill:#3e3e3e;stroke-width:0.264583"
       d="m 151.73855,236.4381 c -4.89433,-0.70728 -7.74614,-3.23392 -8.40959,-7.45068 l -0.1561,-0.99218 h 2.48671 2.48671 l 0.29716,1.12448 c 0.35967,1.36098 1.60248,2.72487 2.86165,3.14044 2.34431,0.77369 6.44356,0.0222 7.15771,-1.31223 0.36366,-0.67951 0.37119,-2.3014 0.0138,-2.96922 -0.42445,-0.79308 -2.06875,-1.50044 -5.79244,-2.49181 -4.05873,-1.08057 -5.62099,-1.77018 -6.8939,-3.0431 -2.31271,-2.3127 -2.03266,-6.93378 0.55269,-9.1199 2.52114,-2.13183 4.92339,-2.57087 13.51807,-2.47056 l 6.53495,0.0763 -1.57679,1.89626 -1.57678,1.89626 -5.88421,0.0891 c -4.99966,0.0757 -6.01229,0.159 -6.73626,0.55388 -1.05727,0.57668 -1.3969,1.18877 -1.3969,2.51753 0,1.6947 0.82917,2.17099 6.09316,3.49994 1.80012,0.45446 3.90085,1.12334 4.6683,1.4864 2.66246,1.25955 3.99776,3.65238 3.72385,6.67311 -0.31317,3.45367 -2.74183,5.8564 -6.70418,6.63259 -2.20304,0.43155 -3.61525,0.50217 -5.26759,0.26339 z m 104.90729,-0.0136 c -3.60779,-0.49333 -6.99926,-2.89112 -8.62386,-6.09711 -1.88971,-3.72917 -1.89094,-8.94371 -0.003,-13.04773 3.11494,-6.77153 12.96128,-8.49476 18.56828,-3.24968 2.72637,2.55038 3.94384,5.71817 3.8928,10.12885 -0.0452,3.90309 -1.27658,6.92618 -3.81472,9.36504 -2.36957,2.2769 -6.28702,3.41101 -10.01943,2.90063 z m 4.63021,-4.69299 c 1.44233,-0.66164 2.46157,-1.74027 3.28047,-3.47164 0.61943,-1.30964 0.68739,-1.75958 0.67934,-4.49792 -0.01,-3.24896 -0.24897,-4.15641 -1.62072,-6.1428 -1.89141,-2.73891 -6.94058,-3.16058 -9.44137,-0.78847 -2.34809,2.22727 -3.17506,7.15117 -1.8528,11.0318 0.53324,1.56498 2.53891,3.69013 3.83463,4.06308 1.49855,0.43133 3.96056,0.33802 5.12045,-0.19405 z m -88.50484,4.23344 c -1.9683,-0.64263 -3.7149,-2.19511 -4.79888,-4.2655 -0.60142,-1.1487 -0.62626,-1.43516 -0.70553,-8.13593 l -0.0822,-6.94532 h 2.11565 2.11565 l 0.0832,6.41615 c 0.0759,5.8531 0.12962,6.49498 0.61235,7.31453 0.83071,1.41033 1.78404,1.9815 3.30729,1.9815 1.52325,0 2.47657,-0.57117 3.30729,-1.9815 0.48273,-0.81955 0.53647,-1.46143 0.61235,-7.31453 l 0.0832,-6.41615 h 2.11911 2.11911 l -0.0856,6.94532 c -0.0826,6.69728 -0.10788,6.98783 -0.70898,8.13593 -0.80505,1.53764 -2.27416,3.07414 -3.60997,3.77557 -0.80004,0.42009 -1.63951,0.57411 -3.43959,0.63109 -1.30969,0.0414 -2.67967,-0.0221 -3.04442,-0.14116 z m 14.5538,-9.68945 v -9.6573 h 4.59409 c 7.05919,0 8.59744,0.48858 10.086,3.20352 0.67244,1.22645 0.78151,1.70521 0.77709,3.41107 -0.006,2.20071 -0.40224,3.24425 -1.7874,4.7036 -1.14386,1.20513 -2.83492,1.6464 -6.30947,1.6464 h -2.8624 v 3.175 3.175 h -2.24895 -2.24896 z m 9.95883,-0.78322 c 1.34133,-0.9395 1.44699,-3.23008 0.20296,-4.39999 -0.61478,-0.57815 -0.90438,-0.63763 -3.1048,-0.63763 h -2.42678 l -0.0754,2.71198 -0.0754,2.71198 h 2.46393 c 1.73207,0 2.62776,-0.11475 3.0155,-0.38634 z m 9.88492,0.78322 v -9.6573 h 7.54062 7.54063 v 1.85209 1.85208 h -5.29167 -5.29167 v 1.98438 1.98437 h 4.63021 4.63021 v 1.71979 1.71979 h -4.63021 -4.63021 v 2.24896 2.24896 h 5.42396 5.42396 v 1.85208 1.85209 h -7.67292 -7.67291 z m 19.05,-0.0283 v -9.68559 l 6.01927,0.1096 c 6.721,0.12237 7.22752,0.23242 8.87436,1.92811 1.76104,1.81329 2.22897,4.83056 1.0959,7.06665 -0.62724,1.23785 -1.15831,1.78152 -2.31878,2.3738 -0.967,0.49353 -0.99517,0.54396 -0.6123,1.09632 0.35862,0.51738 3.8001,6.10425 4.06449,6.59827 0.0584,0.10914 -1.12121,0.19802 -2.62139,0.19752 l -2.72759,-9.3e-4 -1.94661,-3.43866 -1.9466,-3.43866 h -1.55913 -1.55912 v 3.43958 3.43959 h -2.38125 -2.38125 z m 10.95551,-1.13849 c 1.39943,-1.316 1.10322,-3.73477 -0.54155,-4.422 -0.52207,-0.21813 -1.83092,-0.36433 -3.26171,-0.36433 h -2.38975 v 2.80221 2.80221 l 2.75748,-0.0902 c 2.48339,-0.0813 2.82488,-0.15361 3.43553,-0.72786 z m 35.08199,-1.34675 v -12.17083 h 2.35544 2.35544 l 4.72217,8.19688 c 2.59719,4.50828 4.81145,8.19922 4.9206,8.20208 0.10914,0.003 0.19843,-2.43557 0.19843,-5.41875 v -5.42396 h 2.24896 2.24896 v 9.39271 9.39271 l -2.4474,-0.005 -2.44739,-0.005 -4.71751,-8.19702 c -2.59463,-4.50836 -4.82705,-8.19702 -4.96093,-8.19702 -0.14296,0 -0.24344,3.38554 -0.24344,8.20208 v 8.20209 h -2.11666 -2.11667 z m 26.45833,-10.05416 v -2.11667 h 6.35 6.35 v 2.11667 2.11666 h -6.35 -6.35 z"
       id="path26" />
  </g>
</svg>
