<?xml version="1.0" encoding="UTF-8" standalone="no"?>
<svg
	xmlns="http://www.w3.org/2000/svg"
	width="1000"
	height="284.371">
<g>
	<path style="fill:#ff0000"
		d="M138.59 15.5C123.94 17.9 109.25 20 95 23.85C78.64 27.33 63.1 33.93 49.25 43.3C35.35 53.75 21.9 72.54 29.25 90.49C33.44 99.17 39.9 106.55 47.95 111.84C57.07 118.39 66.74 124.15 76.85 129.04C97.42 139.3 118.68 148.09 140.49 155.34C151.69 159.04 162.94 162.54 173.99 166.49C184.15 169.79 193.99 173.99 203.39 179.04C212.66 183.6 218.93 192.61 219.99 202.89C219.99 212.89 212.74 220.59 204.99 225.84C195.89 231.57 186.1 236.11 175.84 239.34C165.24 243.29 154.49 246.69 143.64 249.89C121.05 256.49 98.25 262.39 75.3 267.44C53.15 272.44 30.8 276.49 8.75 281.84C5.79 282.5 2.87 283.32 0 284.29C4.72 284.54 9.45 284.23 14.1 283.39C23.2 282.49 32.3 281.49 41.4 280.29C71.4 276.64 101.4 272.19 130.69 266.59C158.01 261.44 184.91 254.32 211.19 245.29C220.2 242.36 229.03 238.92 237.64 234.99C247.37 231.12 256.05 225.03 262.99 217.19C270.79 207.31 273.31 194.26 269.74 182.19C265.59 168.84 254.14 159.09 242.84 151.59C217.84 134.99 188.34 128.09 160.39 118.59C147.01 114.69 134.27 108.88 122.55 101.34C118.6 98.49 114.7 93.74 118.65 89.09C122.6 84.44 130.49 83.19 135.84 81.79C150.59 77.99 165.84 75.39 180.54 72.09C191.54 69.69 206.49 67.09 213.74 57.1C221.84 46.25 214.94 30.6 208.74 20.9C204.43 14.42 199.74 8.21 194.69 2.3C193.43 0.15 190.69 -0.63 188.49 0.55C185.94 1.8 183.49 3.3 180.89 4.4C173.49 7.29 165.86 9.6 158.09 11.3C151.64 12.9 145.14 14.25 138.59 15.5"/>
	<path style="fill:#000000"
		d="M361.44 2.9L372.28 2.9L372.28 266.54L361.44 266.54L361.44 2.9Z"
       id="path4" />
	<path style="fill:#000000"
		d="M473.03 2.9L473.03 17.15L507.53 17.15L507.53 107.99L525.43 107.99L525.43 17.15L559.98 17.15L559.98 2.9L473.03 2.9ZM638.07 3L638.07 107.99L654.97 107.99L654.97 3L638.07 3ZM828.86 6.95L828.86 21.95L845.82 21.95L845.82 6.95L828.86 6.95ZM573.92 34.29C569.65 36.08 565.83 38.79 562.73 42.24C559.59 45.82 557.19 49.98 555.68 54.5C553.98 59.59 553.14 64.93 553.18 70.3C553.13 75.78 553.98 81.23 555.68 86.44C557.17 91.01 559.57 95.23 562.73 98.84C565.77 102.29 569.57 104.99 573.82 106.74C578.47 108.65 583.45 109.58 588.47 109.49C592.53 109.53 596.57 108.9 600.42 107.64C604.05 106.48 607.43 104.69 610.42 102.35C613.23 100.14 615.59 97.43 617.38 94.34C619.19 91.16 620.32 87.64 620.68 84C619.01 84 605.69 84 604.03 84C603.74 87.58 601.91 90.86 599.03 92.99C595.96 95.18 592.24 96.29 588.47 96.15C583.32 96.52 578.3 94.4 574.98 90.44C571.57 85.44 569.83 79.49 569.98 73.44C575.14 73.44 616.42 73.44 621.58 73.44C621.88 68.09 621.42 62.72 620.23 57.5C619.13 52.71 617.14 48.16 614.38 44.1C611.66 40.28 608.1 37.13 603.98 34.9C599.34 32.54 594.19 31.35 588.98 31.44C588.85 31.44 588.72 31.44 588.59 31.44C583.56 31.41 578.57 32.38 573.92 34.29ZM691.48 34.29C687.22 36.11 683.4 38.82 680.28 42.24C677.13 45.82 674.74 49.98 673.22 54.5C671.52 59.59 670.68 64.93 670.72 70.3C670.68 75.78 671.52 81.23 673.22 86.44C674.71 91.01 677.11 95.23 680.28 98.84C683.32 102.29 687.11 104.99 691.37 106.74C696.02 108.65 701 109.59 706.03 109.49C710.08 109.53 714.12 108.9 717.97 107.64C721.59 106.48 724.98 104.69 727.97 102.35C730.77 100.14 733.13 97.43 734.92 94.34C736.74 91.16 737.86 87.64 738.22 84C736.56 84 723.24 84 721.57 84C721.26 87.57 719.44 90.84 716.57 92.99C713.48 95.19 709.75 96.3 705.97 96.15C700.81 96.52 695.79 94.4 692.47 90.44C689.11 85.42 687.37 79.49 687.47 73.44C692.66 73.44 734.13 73.44 739.32 73.44C739.62 68.09 739.16 62.72 737.97 57.5C736.82 52.71 734.82 48.18 732.07 44.1C729.35 40.28 725.79 37.13 721.67 34.9C717.03 32.54 711.88 31.35 706.67 31.44C706.48 31.44 706.29 31.44 706.1 31.44C701.09 31.41 696.11 32.38 691.48 34.29ZM951.76 34.29C947.52 36.11 943.72 38.82 940.62 42.24C937.47 45.82 935.08 49.98 933.57 54.5C931.87 59.59 931.02 64.93 931.07 70.3C931.02 75.78 931.86 81.23 933.57 86.44C935.01 91.02 937.42 95.25 940.62 98.84C943.66 102.29 947.46 104.99 951.71 106.74C960.19 110.08 969.57 110.4 978.26 107.64C981.88 106.48 985.27 104.69 988.26 102.35C991.07 100.14 993.43 97.43 995.21 94.34C997.03 91.16 998.16 87.64 998.51 84C996.85 84 983.53 84 981.86 84C981.55 87.57 979.74 90.84 976.86 92.99C973.79 95.18 970.08 96.29 966.31 96.15C961.14 96.52 956.11 94.4 952.76 90.44C949.41 85.42 947.66 79.49 947.76 73.44C952.98 73.44 994.74 73.44 999.96 73.44C1000.16 68.08 999.61 62.71 998.31 57.5C997.21 52.71 995.22 48.16 992.46 44.1C989.75 40.25 986.17 37.1 982.01 34.9C977.37 32.54 972.22 31.35 967.01 31.44C966.82 31.44 966.63 31.44 966.45 31.44C961.41 31.41 956.42 32.38 951.76 34.29ZM744.97 32.95L771.02 107.94L791.02 107.94L817.61 32.95L801.12 32.95C790.92 62.32 785.25 78.63 784.12 81.9C783.52 83.8 782.97 85.9 782.47 88.2C781.97 90.5 781.57 92.49 781.27 94.19C781.07 92.49 780.77 90.44 780.32 88.09C779.91 86 779.37 83.93 778.72 81.9C777.63 78.63 772.18 62.32 762.37 32.95L744.97 32.95ZM829.17 32.95L829.17 107.94L845.82 107.94L845.82 32.95L829.17 32.95ZM862.61 32.95L862.61 45.59L900.72 45.59L860.72 94.99L860.72 107.99L921.76 107.99L921.76 95.09L880.46 95.09L920.46 45.7L920.46 32.95L862.61 32.95ZM589.39 43.85C593.78 43.81 597.96 45.73 600.78 49.1C603.62 52.87 605.16 57.47 605.17 62.19C601.67 62.19 573.67 62.19 570.17 62.19C571.97 49.99 578.08 43.89 588.37 43.89C588.62 43.87 588.86 43.86 589.1 43.85C589.19 43.85 589.29 43.85 589.39 43.85ZM706.83 43.86C711.21 43.81 715.37 45.73 718.18 49.1C721.02 52.87 722.56 57.47 722.57 62.19C719.1 62.19 691.39 62.19 687.92 62.19C689.72 49.99 695.78 43.89 706.08 43.89C706.31 43.88 706.55 43.87 706.79 43.86C706.8 43.86 706.81 43.86 706.83 43.86ZM966.41 44.1C970.99 43.76 975.46 45.62 978.46 49.1C981.32 52.87 982.88 57.46 982.91 62.19C979.44 62.19 951.68 62.19 948.21 62.19C950.01 49.99 956.07 43.89 966.41 43.89C966.41 43.93 966.41 44.08 966.41 44.1ZM497.38 162.3C492.73 163.72 488.39 166.01 484.58 169.04C481.29 171.75 478.65 175.17 476.89 179.04C473.49 186.89 473.49 195.79 476.89 203.64C478.57 207.08 481.12 210.02 484.28 212.19C487.94 214.63 491.98 216.45 496.23 217.59C501.48 219.07 506.85 220.11 512.28 220.69C515.79 221.12 519.28 221.72 522.73 222.49C525.43 223.09 528.04 224.05 530.48 225.34C532.52 226.42 534.25 228.03 535.48 229.99C536.62 232.16 537.17 234.59 537.08 237.04C537.08 239.2 536.67 241.33 535.88 243.34C535.03 245.38 533.69 247.18 531.98 248.59C529.95 250.22 527.62 251.44 525.13 252.18C521.89 253.18 518.51 253.64 515.13 253.54C509 254.1 502.87 252.43 497.88 248.84C494.37 245.86 492.16 241.62 491.73 237.04C489.85 237.04 474.85 237.04 472.98 237.04C473.33 241.33 474.57 245.5 476.63 249.28C478.7 253.15 481.54 256.56 484.98 259.28C488.76 262.37 493.08 264.72 497.73 266.19C503.18 267.84 508.84 268.64 514.53 268.54C520.66 268.65 526.77 267.78 532.62 265.98C537.48 264.52 542 262.13 545.93 258.93C549.42 256.06 552.23 252.44 554.13 248.34C555.99 244.15 556.93 239.62 556.88 235.04C557.01 230.6 555.98 226.2 553.87 222.29C551.83 218.75 548.99 215.74 545.57 213.48C541.63 211 537.31 209.16 532.78 208.04C527.43 206.69 521.98 205.73 516.48 205.18C513.3 204.86 510.14 204.33 507.03 203.59C504.54 203.07 502.14 202.16 499.93 200.89C498.09 199.88 496.56 198.39 495.48 196.59C494.39 194.57 493.87 192.29 493.98 189.99C493.96 187.99 494.32 186.01 495.03 184.14C495.77 182.2 496.99 180.48 498.58 179.14C500.5 177.63 502.69 176.49 505.03 175.79C508.27 174.83 511.65 174.4 515.03 174.49C518.4 174.44 521.76 174.85 525.03 175.69C527.48 176.37 529.77 177.52 531.78 179.09C533.47 180.44 534.84 182.15 535.78 184.09C536.72 186.15 537.32 188.34 537.58 190.59C539.45 190.59 554.45 190.59 556.33 190.59C555.96 186.32 554.74 182.17 552.73 178.39C550.73 174.6 547.93 171.29 544.53 168.69C540.77 165.85 536.54 163.68 532.03 162.3C526.61 160.68 520.98 159.9 515.33 159.99C514.56 159.97 513.79 159.96 513.03 159.97C507.73 160.04 502.47 160.82 497.38 162.3ZM816.12 196.43C810.56 200.82 807.2 207.42 806.92 214.49C808.48 214.49 820.96 214.49 822.52 214.49C822.53 211.01 824.18 207.73 826.97 205.64C830.44 203.34 834.56 202.24 838.72 202.49C842.47 202.04 846.24 203.14 849.16 205.54C851.11 207.87 852.11 210.85 851.97 213.89C851.97 214.34 851.97 216.61 851.97 220.69C847.53 220.69 845.06 220.69 844.57 220.69C830.57 220.69 820.43 222.99 814.17 227.59C807.93 232.14 804.42 239.53 804.82 247.23C804.56 252.87 806.76 258.35 810.87 262.23C815.52 266.17 821.52 268.16 827.61 267.79C832.95 268.04 838.25 266.79 842.92 264.19C846.92 261.66 850.08 257.99 851.97 253.64C851.97 254.5 851.97 258.82 851.97 266.59L868.62 266.59C868.62 234.94 868.62 217.35 868.62 213.84C868.63 210.63 868.14 207.44 867.16 204.39C866.24 201.51 864.63 198.9 862.47 196.79C859.9 194.46 856.84 192.75 853.52 191.79C849 190.49 844.31 189.88 839.61 189.99C838.66 189.93 837.7 189.91 836.74 189.92C829.38 190.03 822.21 192.3 816.12 196.43ZM763.82 189.99C758.68 189.76 753.61 191.16 749.32 193.99C745.67 196.66 742.74 200.2 740.82 204.29C740.82 203.43 740.82 199.17 740.82 191.49L724.07 191.39L724.07 266.38L740.72 266.38C740.72 241.87 740.72 228.26 740.72 225.54C740.68 222.28 741.17 219.04 742.17 215.94C742.96 213.48 744.28 211.23 746.02 209.33C747.59 207.68 749.48 206.38 751.57 205.49C753.72 204.65 756.01 204.23 758.32 204.24C762.13 203.77 765.91 205.3 768.32 208.29C770.32 211.85 771.26 215.91 771.02 219.99C771.02 223.1 771.02 238.69 771.02 266.73L787.82 266.73C787.82 236.92 787.82 220.35 787.82 217.04C788.29 209.84 786.08 202.71 781.62 197.04C777.24 192.4 771.1 189.83 764.72 189.95C764.42 189.96 764.12 189.97 763.82 189.99ZM974.96 189.99C969.9 190.09 964.97 191.59 960.71 194.34C955.95 197.54 952.28 202.13 950.22 207.49C949.31 202.73 946.95 198.36 943.46 194.99C939.78 191.63 934.94 189.83 929.96 189.99C924.8 189.85 919.73 191.33 915.46 194.24C911.61 196.94 908.58 200.67 906.71 204.99C906.71 204.09 906.71 199.59 906.71 191.49L889.96 191.59L889.96 266.59L907.01 266.59C907.01 242.35 907.01 228.88 907.01 226.19C906.94 222.8 907.43 219.42 908.46 216.19C909.26 213.72 910.53 211.43 912.21 209.44C913.68 207.78 915.51 206.49 917.56 205.64C919.51 204.85 921.6 204.44 923.71 204.44C927.35 204.09 930.9 205.69 933.06 208.64C935.12 212.24 936.09 216.35 935.86 220.49C935.86 223.56 935.86 238.93 935.86 266.59L952.51 266.59C952.51 241.9 952.51 228.18 952.51 225.44C952.54 222.17 953.08 218.94 954.11 215.84C954.9 213.42 956.18 211.19 957.86 209.29C959.26 207.74 960.96 206.5 962.86 205.64C964.8 204.85 966.87 204.44 968.96 204.44C972.64 204.09 976.24 205.68 978.46 208.64C980.52 212.24 981.49 216.35 981.26 220.49C981.26 223.57 981.26 238.99 981.26 266.73L997.91 266.73C997.91 236.92 997.91 220.35 997.91 217.04C998.38 209.88 996.27 202.78 991.96 197.04C987.89 192.42 981.98 189.82 975.82 189.95C975.53 189.96 975.25 189.97 974.96 189.99ZM590.73 192.79C586.45 194.6 582.62 197.33 579.53 200.79C576.37 204.34 573.98 208.49 572.48 212.99C570.78 218.1 569.93 223.45 569.98 228.84C569.93 234.32 570.77 239.78 572.48 244.99C573.87 249.56 576.18 253.8 579.27 257.44C582.32 260.89 586.12 263.59 590.38 265.34C598.87 268.73 608.28 269.05 616.98 266.24C620.58 265.18 623.97 263.49 626.98 261.24C629.8 259.02 632.17 256.29 633.98 253.19C635.8 250.01 636.92 246.48 637.28 242.84C635.61 242.84 622.24 242.84 620.57 242.84C620.26 246.41 618.44 249.68 615.57 251.83C612.49 254.03 608.76 255.14 604.98 254.99C599.79 255.28 594.78 253.05 591.53 248.99C588.17 243.98 586.43 238.07 586.53 232.04C591.71 232.04 633.19 232.04 638.37 232.04C638.67 226.67 638.22 221.29 637.03 216.04C635.94 211.26 633.95 206.73 631.18 202.68C628.46 198.83 624.88 195.67 620.73 193.44C616.08 191.08 610.93 189.9 605.73 189.99C605.6 189.99 605.47 189.98 605.34 189.98C600.33 189.93 595.36 190.89 590.73 192.79ZM650.47 191.49L650.47 204.29L688.37 204.29L648.37 253.64L648.37 266.59L709.42 266.59L709.42 253.64L668.13 253.64L708.13 204.29L708.13 191.49L650.47 191.49ZM604.98 202.64C609.62 202.27 614.16 204.12 617.22 207.64C620.08 211.43 621.62 216.04 621.63 220.79C618.16 220.79 590.44 220.79 586.98 220.79C588.78 208.59 594.82 202.49 605.12 202.49C605.09 202.52 604.99 202.62 604.98 202.64ZM844.97 231.59C845.2 231.6 846.39 231.67 848.52 231.78L851.92 231.78C851.92 234.78 851.92 236.45 851.92 236.78C851.96 239.42 851.43 242.03 850.37 244.44C849.41 246.59 848.03 248.52 846.31 250.13C844.61 251.77 842.56 253 840.32 253.74C837.96 254.58 835.47 254.99 832.96 254.94C830 255.14 827.07 254.17 824.82 252.23C822.79 250.22 821.72 247.44 821.87 244.59C821.63 240.38 823.93 236.44 827.72 234.59C832.44 232.61 837.5 231.57 842.61 231.53C843.4 231.53 844.18 231.55 844.97 231.59Z"/>
</g>
</svg>
