<?xml version="1.0" encoding="UTF-8" standalone="no"?>
<svg
   xmlns:dc="http://purl.org/dc/elements/1.1/"
   xmlns:cc="http://creativecommons.org/ns#"
   xmlns:rdf="http://www.w3.org/1999/02/22-rdf-syntax-ns#"
   xmlns:svg="http://www.w3.org/2000/svg"
   xmlns="http://www.w3.org/2000/svg"
   xmlns:sodipodi="http://sodipodi.sourceforge.net/DTD/sodipodi-0.dtd"
   xmlns:inkscape="http://www.inkscape.org/namespaces/inkscape"
   version="1.0"
   id="Layer_1"
   x="0px"
   y="0px"
   width="132"
   height="99"
   viewBox="0 0 132 98.999998"
   enable-background="new 0 0 200 97.333"
   xml:space="preserve"
   inkscape:version="1.0.2 (e86c870879, 2021-01-15, custom)"
   sodipodi:docname="TLC.svg"><metadata
   id="metadata66"><rdf:RDF><cc:Work
       rdf:about=""><dc:format>image/svg+xml</dc:format><dc:type
         rdf:resource="http://purl.org/dc/dcmitype/StillImage" /><dc:title></dc:title></cc:Work></rdf:RDF></metadata><defs
   id="defs64">
	
</defs><sodipodi:namedview
   pagecolor="#ffffff"
   bordercolor="#666666"
   borderopacity="1"
   objecttolerance="10"
   gridtolerance="10"
   guidetolerance="10"
   inkscape:pageopacity="0"
   inkscape:pageshadow="2"
   inkscape:window-width="1920"
   inkscape:window-height="1001"
   id="namedview62"
   showgrid="false"
   fit-margin-top="0"
   fit-margin-left="0"
   fit-margin-right="0"
   fit-margin-bottom="0"
   inkscape:zoom="1.0742188"
   inkscape:cx="479.83003"
   inkscape:cy="303.63077"
   inkscape:window-x="-9"
   inkscape:window-y="-9"
   inkscape:window-maximized="1"
   inkscape:current-layer="Layer_1"
   inkscape:document-rotation="0" />

				
			





<g
   id="g76"
   transform="matrix(0.12399933,0,0,0.12399933,3.9993779,19.783188)"><rect
     x="67.128998"
     y="3.934"
     clip-path="none"
     width="57.848"
     height="88.454002"
     id="rect35"
     style="fill:#ff0000"
     transform="matrix(5.4187035,0,0,5.4187035,-20.482566,-21.31718)"
     rx="6.0900178"
     ry="6.0900178" /><rect
     x="0.0050004497"
     y="-3.5091705e-07"
     clip-path="url(#SVGID_2_)"
     width="313.43405"
     height="479.306"
     id="rect18"
     style="display:inline;fill:#ff0000;stroke-width:5.4187"
     ry="32.999962"
     rx="32.999962" /><rect
     x="686.53302"
     y="0"
     clip-path="url(#SVGID_7_)"
     width="313.47742"
     height="479.306"
     id="rect52"
     style="fill:#ff0000;stroke-width:5.4187"
     ry="33"
     rx="33" /><path
     d="M 243.81455,132.17848 H 60.944153 c -2.107875,0 -3.868955,1.72315 -3.868955,3.83103 v 36.13733 c 0,2.12954 1.76108,3.86353 3.868955,3.86353 h 54.181617 c 9.11967,0 16.44033,7.35318 16.44033,16.44034 v 163.23843 c 0,2.14039 1.72316,3.86354 3.86355,3.86354 h 36.13733 c 2.14581,0 3.85812,-1.72315 3.85812,-3.86354 V 192.44529 c 0,-9.08715 7.35318,-16.44033 16.44575,-16.44033 h 51.93828 c 2.14038,0 3.9123,-1.734 3.9123,-3.86354 v -36.13734 c 0.0109,-2.10245 -1.76651,-3.8256 -3.90688,-3.8256"
     id="path56"
     inkscape:connector-curvature="0"
     style="fill:#ffffff" /><path
     d="m 566.04315,315.68828 h -66.65548 c -11.63937,0 -21.02998,-9.40145 -21.02998,-21.01373 V 136.00408 c 0,-2.10245 -1.71774,-3.83103 -3.85811,-3.83103 h -36.09942 c -2.13496,0 -3.87435,1.72317 -3.87435,3.83103 v 172.59654 c 0,28.79498 14.96644,50.95748 49.55944,50.95748 h 81.9579 c 2.1729,0 3.85267,-1.74483 3.85267,-3.89063 v -36.0723 c 0,-2.11872 -1.67437,-3.90689 -3.85267,-3.90689"
     id="path58"
     inkscape:connector-curvature="0"
     style="fill:#ffffff" /><path
     d="m 930.32629,324.14687 -25.5546,-25.52751 c -1.50099,-1.47931 -4.09654,-1.47931 -5.6246,0 l 0.038,-0.065 c -12.47928,11.16794 -29.01716,18.00093 -47.07771,18.00093 -39.04174,0 -70.73574,-31.69941 -70.73574,-70.67072 0,-39.05801 31.694,-70.66532 70.73574,-70.66532 18.06055,0 34.58218,6.81132 47.07771,17.95758 l -0.038,-0.038 c 1.52806,1.52266 4.12361,1.52266 5.6246,0.038 l 25.5546,-25.56543 c 1.34383,-1.39804 1.40343,-3.57093 0.19507,-5.10983 -20.50979,-19.3231 -48.06389,-31.17923 -78.4249,-31.17923 -63.27961,0 -114.56762,51.2826 -114.56762,114.56223 0,63.18207 51.28801,114.49177 114.56762,114.49177 30.36101,0 57.97472,-11.8778 78.4249,-31.14129 1.20836,-1.47931 1.14876,-3.70098 -0.19507,-5.08817"
     id="path60"
     inkscape:connector-curvature="0"
     style="fill:#ffffff" /></g>
</svg>
