<?xml version="1.0" encoding="UTF-8" standalone="no"?>
<svg
   xmlns:dc="http://purl.org/dc/elements/1.1/"
   xmlns:cc="http://creativecommons.org/ns#"
   xmlns:rdf="http://www.w3.org/1999/02/22-rdf-syntax-ns#"
   xmlns:svg="http://www.w3.org/2000/svg"
   xmlns="http://www.w3.org/2000/svg"
   xmlns:sodipodi="http://sodipodi.sourceforge.net/DTD/sodipodi-0.dtd"
   xmlns:inkscape="http://www.inkscape.org/namespaces/inkscape"
   width="132"
   height="99"
   id="svg2"
   version="1.1"
   inkscape:version="1.0.2 (e86c870879, 2021-01-15, custom)"
   sodipodi:docname="Travel_Channel.svg">
  <defs
     id="defs4" />
  <sodipodi:namedview
     id="base"
     pagecolor="#ffffff"
     bordercolor="#666666"
     borderopacity="1.0"
     inkscape:pageopacity="0.0"
     inkscape:pageshadow="2"
     inkscape:zoom="2"
     inkscape:cx="192.42372"
     inkscape:cy="-44.701194"
     inkscape:document-units="px"
     inkscape:current-layer="svg2"
     showgrid="false"
     showguides="true"
     inkscape:guide-bbox="true"
     fit-margin-top="0"
     fit-margin-left="0"
     fit-margin-right="0"
     fit-margin-bottom="0"
     inkscape:window-width="1920"
     inkscape:window-height="1001"
     inkscape:window-x="-9"
     inkscape:window-y="-9"
     inkscape:window-maximized="1"
     inkscape:document-rotation="0">
    <inkscape:grid
       type="xygrid"
       id="grid2996"
       empspacing="5"
       visible="true"
       enabled="true"
       snapvisiblegridlinesonly="true"
       originx="199"
       originy="-114.01164"
       spacingx="1"
       spacingy="1" />
  </sodipodi:namedview>
  <metadata
     id="metadata7">
    <rdf:RDF>
      <cc:Work
         rdf:about="">
        <dc:format>image/svg+xml</dc:format>
        <dc:type
           rdf:resource="http://purl.org/dc/dcmitype/StillImage" />
        <dc:title></dc:title>
      </cc:Work>
    </rdf:RDF>
  </metadata>
  <g
     inkscape:label="Layer 1"
     id="layer1"
     transform="matrix(0.124,0,0,0.124,28.676,-36.625869)">
    <path
       style="fill:#e6be29;fill-opacity:1;fill-rule:evenodd;stroke:none"
       d="M -89.763052,820.2876 V 519.08278 H -199 V 450.80969 H 99.795181 v 68.27309 H -9.4417671 V 820.2876 Z"
       id="path2998"
       inkscape:connector-curvature="0" />
    <path
       style="fill:#e6be29;fill-opacity:1;stroke:none"
       d="M 114.25301,820.2876 H 41.963855 V 684.54463 c 0,-74.85755 61.842455,-132.53012 131.726905,-132.53012 v 73.09237 c -31.08481,0 -59.43775,26.34145 -59.43775,59.43775 z"
       id="path3000"
       inkscape:connector-curvature="0"
       sodipodi:nodetypes="ccccccc" />
    <path
       style="fill:#e6be29;fill-opacity:1;stroke:none"
       d="m 194.5743,552.81772 h 75.77549 l 65.58997,197.59036 c 0,0 1.43063,4.04276 5.64285,4.04276 4.1401,0 5.60213,-4.04276 5.60213,-4.04276 l 65.06024,-197.59036 h 76.30522 l -73.89558,223.29317 c -7.6511,21.25196 -30.53222,50.83719 -73.1691,50.83719 -34.47641,0 -62.31392,-22.09884 -73.01564,-50.83719 z"
       id="path3002"
       inkscape:connector-curvature="0"
       sodipodi:nodetypes="ccccccccccc" />
    <path
       style="fill:#e6be29;fill-opacity:1;stroke:none"
       d="m 508.63052,820.2876 h 73.09237 V 450.80969 h -73.09237 z"
       id="path3004"
       inkscape:connector-curvature="0" />
    <path
       style="fill:#852980;fill-opacity:1;stroke:none"
       d="M 633.12851,809.04262 V 462.85788 c 0,-7.12558 4.0895,-12.08149 11.31405,-12.08149 4.22023,0 6.88885,2.38014 9.56949,5.65579 l 143.7751,171.88755 c 0,0 3.21285,3.26215 3.21285,7.22891 0,3.87611 -3.21285,7.22892 -3.21285,7.22892 L 653.20884,816.27153 c -1.81951,2.14496 -3.88019,4.29457 -8.47034,4.29457 -5.76085,0 -11.60999,-4.68021 -11.60999,-11.52348 z"
       id="path3006"
       inkscape:connector-curvature="0"
       sodipodi:nodetypes="cccccccccc" />
    <path
       style="fill:#e6be29;fill-opacity:1;stroke:none"
       d="m 67.20796,938.35053 c -16.47841,0 -26.047317,-8.66924 -26.047317,-21.67739 v -23.29317 c 0,-10.66899 9.356891,-21.68675 26.506024,-21.68675 11.144755,0 19.139124,5.89705 24.423542,14.31152 l -9.899848,5.26124 c -2.535967,-3.73584 -6.249325,-9.13099 -15.326907,-9.13099 -9.22098,0 -14.457832,4.08217 -14.457832,11.24498 v 22.48996 c 0,6.40825 5.055374,11.24498 15.261045,11.24498 7.868674,0 12.258586,-5.38772 14.492562,-9.23141 l 10.031936,5.42003 c -4.275197,6.91339 -11.685374,15.047 -24.983205,15.047 z"
       id="path3008"
       inkscape:connector-curvature="0"
       sodipodi:nodetypes="ccccccccccccc" />
    <path
       style="fill:#e6be29;fill-opacity:1;stroke:none"
       d="m 124.69478,937.55667 v -64.25702 h 11.24498 v 27.30923 h 29.71887 v -27.30923 h 11.24498 v 64.25702 h -11.24498 v -27.30923 h -29.71887 v 27.30923 z"
       id="path3010"
       inkscape:connector-curvature="0" />
    <path
       style="fill:#e6be29;fill-opacity:1;stroke:none"
       d="m 228.13353,872.50673 -23.92068,64.25703 h 12.04819 l 5.62249,-16.86747 h 24.09639 l 6.4257,16.86747 h 11.24498 l -23.94578,-64.25703 z m 5.81647,10.44177 8.63551,26.50602 h -17.06242 z"
       id="path3012"
       inkscape:connector-curvature="0"
       sodipodi:nodetypes="ccccccccccccc" />
    <path
       style="fill:#e6be29;fill-opacity:1;stroke:none"
       d="m 290.95984,936.75346 v -64.25703 l 11.53051,9e-5 28.63013,48.37353 v -48.37388 h 11.24498 v 64.25694 h -12.30524 l -27.8554,-47.33107 v 47.33142 z"
       id="path3020"
       inkscape:connector-curvature="0"
       sodipodi:nodetypes="ccccccccccc" />
    <path
       style="fill:#e6be29;fill-opacity:1;stroke:none"
       d="M 501.40161,937.55667 H 457.2249 v -64.25702 h 44.17671 v 9.63855 h -32.93173 v 16.86747 h 30.52209 v 10.44177 h -30.52209 v 16.86747 h 32.93173 z"
       id="path3024"
       inkscape:connector-curvature="0" />
    <path
       style="fill:#e6be29;fill-opacity:1;stroke:none"
       d="m 552.00402,926.31169 h 30.52208 v 10.44177 h -41.76706 v -64.25703 h 11.24498 z"
       id="path3026"
       inkscape:connector-curvature="0" />
    <path
       sodipodi:nodetypes="ccccccccccc"
       inkscape:connector-curvature="0"
       id="path2995"
       d="m 373.6825,936.75346 v -64.25703 l 11.53051,9e-5 28.63013,48.37353 v -48.37388 h 11.24498 v 64.25694 h -12.30524 l -27.8554,-47.33107 v 47.33142 z"
       style="fill:#e6be29;fill-opacity:1;stroke:none" />
  </g>
</svg>
