<svg
  xmlns="http://www.w3.org/2000/svg"
  viewBox="0 0 1195 1072">
  <g fill="#C25627">
    <path d="m 632.12089,456.24798 c 5.00701,19.71501 9.07496,35.36174 13.45625,51.32149 20.02803,76.04383 32.23252,86.05784 109.52778,85.4318 39.43001,-0.31269 78.54733,1.56477 115.78686,15.64706 55.07674,20.65374 84.49273,65.71679 78.54703,120.16782 -7.51058,68.533 -73.54003,113.90875 -154.59086,106.39824 -57.89327,-5.3197 -109.8408,-25.66074 -158.03307,-58.20596 -39.74303,-26.91282 -85.11878,-27.85155 -116.09955,0 -37.23953,33.48395 -72.60127,73.54 -107.96333,110.15349 21.27977,25.03508 40.05605,40.05604 60.08407,56.95456 148.01906,123.92182 382.72167,154.59112 537.31233,70.72422 218.7417,-118.91652 235.9545,-439.36363 30.6692,-567.35498 -26.9135,-16.89849 -57.58153,-24.09598 -92.00457,-38.49128 77.92187,-70.7238 152.40097,-138.31806 227.50607,-206.85106 0,-36.61381 0.6261,-73.2273 0,-109.840992 C 1175.0671,31.905586 1152.8492,10 1092.4495,10 c -190.88997,0 -572.67291,0.312924 -614.91944,0 0,30.980738 -0.93873,71.975486 0.31302,105.45983 2.5035,71.66253 38.17826,106.08554 109.84079,106.39856 79.79876,0.62571 289.77936,0.31269 289.77936,0.31269 z"/>
    <circle cx="150.82173" cy="332.63831" r="140.82173"/>
    <circle cx="150.82173" cy="765.11609" r="140.82173"/>
  </g>
</svg>
