<?xml version="1.0" encoding="UTF-8" standalone="no"?>
<svg
   xmlns:dc="http://purl.org/dc/elements/1.1/"
   xmlns:cc="http://creativecommons.org/ns#"
   xmlns:rdf="http://www.w3.org/1999/02/22-rdf-syntax-ns#"
   xmlns:svg="http://www.w3.org/2000/svg"
   xmlns="http://www.w3.org/2000/svg"
   xmlns:sodipodi="http://sodipodi.sourceforge.net/DTD/sodipodi-0.dtd"
   xmlns:inkscape="http://www.inkscape.org/namespaces/inkscape"
   version="1.1"
   id="Слой_1"
   x="0px"
   y="0px"
   viewBox="0 0 132 98.999996"
   xml:space="preserve"
   sodipodi:docname="TV2_Kids_Hungary.svg"
   width="132"
   height="99"
   inkscape:version="1.0.2 (e86c870879, 2021-01-15, custom)"><metadata
   id="metadata42"><rdf:RDF><cc:Work
       rdf:about=""><dc:format>image/svg+xml</dc:format><dc:type
         rdf:resource="http://purl.org/dc/dcmitype/StillImage" /><dc:title></dc:title></cc:Work></rdf:RDF></metadata><defs
   id="defs40" /><sodipodi:namedview
   pagecolor="#ffffff"
   bordercolor="#666666"
   borderopacity="1"
   objecttolerance="10"
   gridtolerance="10"
   guidetolerance="10"
   inkscape:pageopacity="0"
   inkscape:pageshadow="2"
   inkscape:window-width="1920"
   inkscape:window-height="1001"
   id="namedview38"
   showgrid="false"
   inkscape:zoom="3.21875"
   inkscape:cx="256"
   inkscape:cy="69.550003"
   inkscape:window-x="-9"
   inkscape:window-y="-9"
   inkscape:window-maximized="1"
   inkscape:current-layer="Слой_1" />
<style
   type="text/css"
   id="style2">
	.st0{fill:#ED4E9A;}
	.st1{fill:#FFFFFF;}
	.st2{fill:#91278F;}
	.st3{fill:#00AEEE;}
	.st4{fill:#F6931E;}
	.st5{fill:#8BC53F;}
</style>
<g
   id="g35"
   transform="matrix(0.2421875,0,0,0.2421875,4,32.657429)">
	<g
   id="g14">
		<rect
   y="11.4"
   class="st0"
   width="117.8"
   height="63.299999"
   id="rect4"
   x="0" />
		<g
   id="g12">
			<path
   class="st1"
   d="M 34.8,33.4 V 61 H 26.1 V 33.4 h -8.7 v -7.7 h 26 v 7.7 z"
   id="path6" />
			<path
   class="st1"
   d="M 63.2,61 H 56.8 L 45.1,25.6 h 9 L 60,45.4 65.8,25.7 h 9 z"
   id="path8" />
			<path
   class="st1"
   d="M 77.4,61 V 53.7 L 90.3,39.8 c 0.7,-0.7 1.1,-1.3 1.4,-1.8 0.3,-0.5 0.4,-1.2 0.4,-2 0,-1 -0.3,-1.7 -0.8,-2.3 -0.5,-0.6 -1.3,-0.9 -2.4,-0.9 -0.4,0 -0.8,0 -1.2,0.1 -0.4,0.1 -0.8,0.3 -1.1,0.5 -0.3,0.2 -0.6,0.6 -0.8,1 -0.2,0.4 -0.3,1 -0.3,1.7 h -8.2 c 0,-1.7 0.3,-3.3 0.9,-4.6 0.6,-1.3 1.5,-2.5 2.5,-3.4 1.1,-0.9 2.3,-1.6 3.6,-2.1 1.4,-0.5 2.8,-0.7 4.4,-0.7 1.6,0 3.2,0.3 4.6,0.8 1.4,0.5 2.6,1.2 3.6,2.1 1,0.9 1.8,2 2.4,3.4 0.6,1.3 0.8,2.8 0.8,4.5 0,0.9 -0.1,1.8 -0.3,2.5 -0.2,0.8 -0.5,1.4 -0.8,2.1 -0.4,0.7 -0.8,1.3 -1.4,2 -0.5,0.7 -1.2,1.4 -1.9,2.1 l -8.5,8.9 h 12.9 V 61 Z"
   id="path10" />
		</g>
	</g>
	<g
   id="g33">
		<g
   id="_x23_91278fff">
			<path
   class="st2"
   d="m 273.3,14 c 1.1,-4.6 1,-9.4 2.4,-14 0.3,3.3 -1,6.5 -1,9.8 1.1,1.2 1.2,2.8 1.7,4.3 0.6,0.8 1.8,1 2.7,1.4 1.1,-1.3 2.4,-2.4 3.9,-3.1 -0.2,1.6 -0.6,3.1 -0.7,4.6 0.8,0.5 2,1.8 2.8,0.6 0.3,-0.3 0.9,-1 1.2,-1.3 0,0.4 -0.1,1.2 -0.1,1.5 0.8,-0.6 1.5,-1.9 2.8,-1.4 0.6,1.2 0.3,2.7 0.5,4 1.3,0.8 2.5,1.8 3.3,3.1 2.9,-1.3 5,-3.8 8.1,-4.6 -2.5,2.5 -5.9,3.8 -8.7,5.8 0.6,0.7 1.2,1.4 1.8,2.1 0.3,-0.2 0.8,-0.7 1.1,-0.9 1.2,0.2 2.3,0.4 3.5,0.7 -0.6,0.7 -1.1,1.4 -1.7,2.2 -0.1,0.6 -0.2,1.2 -0.2,1.8 0.7,0.4 1.4,0.8 2.1,1.3 -0.7,1.3 -1.8,2.4 -2.6,3.6 0.3,0.7 0.6,1.4 1,2.1 1.1,0.3 2.2,0.5 3.3,0.7 -1.3,0.8 -1.7,2.1 -1.8,3.6 1.6,0.2 3.3,0.3 4.9,0.7 -1.2,0.1 -2.3,0.2 -3.5,0.2 -1.3,0.8 -2.9,1.3 -3.8,2.7 0.8,1.3 2,2.6 1.5,4.2 -1.1,0.1 -2.1,0.2 -3.2,0.3 -0.3,0.7 -0.6,1.4 -0.9,2.1 0.5,1 0.9,2.1 1.3,3.2 -1.2,0.3 -2.4,0.5 -3.7,0.7 0.2,1.7 0.8,3.3 1.5,4.9 -2.1,0 -4.2,-2 -6.1,-0.7 -1.6,0.9 -1.2,3.2 -2.5,4.4 -1.5,0 -3,-1.4 -4.5,-0.7 -2.1,0.9 -1.6,3.8 -3.4,5 -1,-0.9 -1.9,-1.7 -2.9,-2.5 -0.5,0 -1.4,0 -1.9,0 -0.9,1.1 -1.6,3.9 -3.4,2.5 -0.5,-1.3 0.4,-3.5 -1.5,-3.7 -1.4,0.9 -2.7,2 -4,3 -0.7,-1.4 -0.9,-3 -1.9,-4.3 -0.8,0.3 -1.5,0.9 -2.2,1.5 -2,-0.2 -3.8,0.5 -5.4,1.5 1,-2.1 2,-4.5 0.6,-6.7 -2.2,-0.6 -4.4,-1.2 -6.8,-1.2 -0.5,-1.6 0,-3.1 1.4,-4.1 -0.4,-1 -0.8,-2 -1.2,-3.1 -1.1,0.2 -2.3,0.4 -3.4,0.6 -0.6,-0.3 -1.1,-0.6 -1.7,-0.9 1.1,-1 2.3,-1.9 3.4,-2.8 -0.7,-1.7 -1.4,-3.4 -2.1,-5.2 -1.4,-0.4 -2.8,-0.8 -4.1,-1.4 0.3,-1.4 1.6,-2.2 2.5,-3.3 -0.1,-0.6 -0.3,-1.7 -0.4,-2.3 -1.7,0.2 -3.5,0.5 -5.1,-0.5 2.1,-0.4 4.2,-0.3 6.2,0.4 0.5,-0.2 1.4,-0.5 1.9,-0.7 -0.1,-1 -0.1,-2 -0.2,-3 -0.4,-0.2 -1.1,-0.6 -1.5,-0.8 0.2,-1.1 -0.6,-2.8 1,-3.2 -2.8,-2.9 -7.3,-3 -10.4,-5.6 3.6,0.9 6.8,2.7 10.2,4.1 1.3,0.5 2.7,0.3 4.1,-0.1 0.2,-1.8 0,-3.6 -0.1,-5.4 1.5,0.1 3.2,0.2 4.2,-1.2 0.2,-1.3 0,-2.6 0,-3.9 0.5,0 1.4,-0.1 1.8,-0.2 -0.9,-0.9 -1.7,-1.9 -2.6,-2.8 -0.1,0.4 -0.3,1.3 -0.5,1.7 -1.6,-0.9 -2.4,-2.9 -3,-4.6 1,-1.6 1.4,1.6 2.1,2.2 l 0.2,-2 c 1.9,2.2 3.6,4.6 5.5,6.8 1.1,1 1.9,-0.9 2.7,-1.4 -0.1,-1.2 -0.1,-2.3 -0.1,-3.5 1.5,0.2 3.3,0 4.2,1.6 1.2,0 2.3,0 3.5,0 0.6,-1.2 1.2,-2.4 1.8,-3.6 1.3,0.9 1.9,2.4 3.1,3.4 1.1,0.2 2.1,0 3,-0.2 z"
   id="path16" />
			<path
   class="st2"
   d="m 287.8,14.6 c 0.7,-2.1 2.4,-3.7 4,-5 -1,1.9 -2.3,3.6 -4,5 z"
   id="path18" />
			<path
   class="st2"
   d="m 293.8,25.1 c 0.2,-0.8 1.7,-1.1 2,-0.2 -0.2,0.8 -1.7,1 -2,0.2 z"
   id="path20" />
			<path
   class="st2"
   d="m 233.9,48.6 c 1.3,-0.5 2.7,-0.8 4.1,-0.9 -1,1.1 -2,2.1 -3,3 -0.7,-0.1 -1.3,-0.3 -2,-0.4 0.3,-0.5 0.6,-1.1 0.9,-1.7 z"
   id="path22" />
		</g>
		<path
   class="st0"
   d="m 441,16.5 c 12.5,-6.9 27.6,-7.1 41.4,-4.9 10.4,1.6 20.3,6.3 27.6,13.8 -6.4,6.5 -13,12.9 -19.4,19.5 -7.3,-7.1 -18.2,-8.4 -27.8,-7.2 -4.8,0.7 -9.7,3.7 -11.1,8.6 -1.2,3.6 0.2,7.8 3.4,9.8 3.1,2.5 7.2,2.6 11,3.2 6.2,0.9 12.5,1.5 18.6,2.9 7.4,1.8 14.7,5.2 19.7,11.1 5.6,6.3 7.2,15 7.6,23.2 v 3.6 c -0.1,6.4 -1.7,12.8 -5.1,18.3 -4.9,8.3 -13.2,14.1 -22.2,17.2 -12.3,4.3 -25.7,4.1 -38.5,2.2 -11.6,-1.7 -23,-6.8 -31.1,-15.5 6.6,-6.6 13.3,-13.2 19.8,-19.9 3.2,2.9 7,5.3 11.3,6.4 7.7,2.2 15.8,3 23.7,2 4.5,-0.7 9.5,-2.7 11,-7.4 0.9,-3.8 0.7,-8.3 -2.2,-11.2 -3.1,-2.8 -7.4,-3 -11.3,-3.6 -8.6,-1.3 -17.5,-1.8 -25.7,-5.2 -6.8,-2.7 -13.1,-7.5 -16.5,-14.1 -4.1,-8.1 -4.8,-17.5 -3.4,-26.4 1.9,-11.1 9.2,-21.1 19.2,-26.4 z"
   id="path25" />
		<path
   class="st3"
   d="m 197.5,62.5 c 14.5,-16.9 28.7,-34.1 43.2,-51.1 -38.1,0 0,0 -38.1,0 -12.2,14.8 -24.2,29.8 -36.5,44.6 0,-2.5 0,-44.6 0,-44.6 H 135.3 V 138 c 10.3,0 20.5,0 30.8,0 0,0 0,-36.4 0,-39.7 3.6,-4 7,-8.2 10.7,-12.1 9.6,17.2 19.4,34.6 29.1,51.8 36.2,0 0,0 36.2,0 -14.9,-25.1 -29.9,-50.2 -44.6,-75.5 z"
   id="path27" />
		<rect
   x="254.8"
   y="74.699997"
   class="st4"
   width="31.299999"
   height="63.299999"
   id="rect29" />
		<path
   class="st5"
   d="m 405.5,74.2 c -0.2,-10.2 0.8,-20.5 -1.7,-30.5 -2.5,-10.4 -9.1,-19.6 -18.1,-25.3 -7.7,-4.8 -16.9,-6.7 -25.9,-7 -8,0 -16.1,0 -24.1,0 -0.1,0 -0.1,0 -0.2,0 h -23.7 c -0.1,0 -0.1,0 -0.2,0 0,0 0,0 0,0 v 0 126.6 0 0 c 5.3,0 10.5,0 15.8,0 h 15.4 v 0 h 15.8 c 9.5,0 19.3,-1.9 27.4,-7 8.1,-5.3 14.5,-13.4 17.2,-22.8 3.4,-11 2.1,-22.6 2.3,-34 z M 374.6,93 c 0,4.8 -1.9,9.1 -5.1,12.3 0,0 -0.1,0.1 -0.1,0.1 -2.3,2.4 -5.2,4 -8.4,4.6 -0.4,0.1 -0.8,0.1 -1.2,0.1 -2.4,0.2 -4.8,0.3 -7.2,0.3 -3.3,0 -6.6,-0.1 -9.9,0 0,-23.7 0,-47.4 0,-71 3.3,0 6.6,0 9.9,0 2.2,0 4.4,0 6.5,0.1 0.1,0 0.2,0 0.3,0 4.3,0.3 8.4,2.5 11,5.9 2.6,3 4.2,6.9 4.2,11.2 z"
   id="path31" />
	</g>
</g>
</svg>
