<svg
  xmlns="http://www.w3.org/2000/svg"
  viewBox="0 0 598.94232 200">
  <path
     d="M 45.953275,197.32841 C 17.230072,189.34166 0.01585559,166.96928 9.5867421e-6,137.60547 -0.01824561,102.89743 26.036863,76.909842 60.854694,76.909842 c 53.052566,0 80.449896,61.230518 45.759826,102.268778 -12.850225,15.20183 -40.987069,23.62034 -60.661245,18.14979 z M 81.03965,157.31595 c 6.235797,-6.23565 7.117686,-8.65729 7.117686,-19.54381 0,-11.0008 -0.853282,-13.27949 -7.438224,-19.86438 -6.584904,-6.58507 -8.863748,-7.43835 -19.864418,-7.43835 -11.00067,0 -13.279514,0.85255 -19.864418,7.43835 -6.56428,6.56426 -7.438224,8.88166 -7.438224,19.72472 0,9.95693 1.078556,13.44727 5.688049,18.40684 7.714802,8.30094 13.008616,10.28298 24.735375,9.26101 7.414436,-0.64625 11.758383,-2.6785 17.064174,-7.98438 z m 91.30084,39.93524 c -24.64069,-6.32529 -32.9907,-14.30931 -32.9907,-31.54521 v -10.86972 h 15.92654 c 14.06352,0 15.92655,0.50021 15.92655,4.27187 0,6.99638 5.58169,9.68017 18.58587,8.93588 11.10471,-0.63531 12.12961,-1.15743 12.12961,-6.17121 0,-4.71257 -2.06487,-6.17414 -14.78894,-10.46828 -32.87848,-11.09591 -43.20429,-20.49512 -43.22068,-39.34156 -0.017,-19.630892 11.19274,-30.349452 35.90231,-34.328683 16.00091,-2.576999 34.80583,-0.354179 46.00463,5.436412 8.30311,4.293778 14.22822,16.393759 13.20194,26.960801 l -0.69572,7.1636 -16.32451,0.66452 c -15.37356,0.62617 -16.36756,0.37058 -17.06415,-4.3973 -1.28247,-8.77778 -22.35424,-9.8808 -22.35424,-1.17019 0,5.07147 4.58277,7.68078 24.59146,14.00151 29.14544,9.20698 39.82667,23.1205 33.98668,44.27119 -5.8463,21.17351 -39.40095,34.13645 -68.81663,26.58564 z m 128.9737,-0.4637 c -19.13917,-5.15071 -30.85105,-14.60706 -39.26899,-31.70623 -6.6448,-13.49765 -7.16913,-16.1495 -6.18196,-31.26736 1.67442,-25.64236 14.27422,-44.497559 35.724,-53.459907 11.33294,-4.735204 38.32768,-4.430151 48.17485,0.544025 9.77216,4.936751 19.7516,14.1231 23.83832,21.944272 4.84689,9.2758 8.25813,27.28758 6.72299,35.49815 l -1.38251,7.39454 h -36.30043 c -38.59279,0 -40.34349,0.57141 -32.2682,10.54094 9.03947,11.15944 25.42423,13.05093 43.96365,5.07549 6.2141,-2.67321 11.65591,-4.46484 12.09299,-3.9816 1.35076,1.49332 12.71819,24.54664 12.71819,25.79224 0,2.84244 -22.98961,12.441 -35.20647,14.69943 -16.3776,3.02756 -17.52472,2.98976 -32.62639,-1.07527 z m 27.92562,-78.92373 c -3.94165,-13.14458 -18.45389,-15.97187 -27.57184,-5.3716 -2.93039,3.40672 -5.32799,7.16086 -5.32799,8.34256 0,1.18115 7.74786,2.14817 17.21749,2.14817 16.7932,0 17.17963,-0.12779 15.68234,-5.11913 z m 58.109,64.41908 c 0,-13.41002 0.051,-13.51225 6.99674,-14.22021 l 6.99673,-0.71381 -0.093,-27.8714 c -0.051,-15.32926 -0.12775,-28.89537 -0.17159,-30.14663 -0.0438,-1.25235 -3.66195,-2.27523 -8.04174,-2.27523 h -7.96328 V 93.404198 79.752829 h 23.5372 c 25.70619,0 30.9899,2.346788 31.14017,13.830459 l 0.0711,5.50907 4.57765,-6.13288 c 15.59701,-20.895104 48.0161,-21.711323 59.94973,-1.509756 l 3.85738,6.530116 5.8229,-6.920243 c 8.44202,-10.032691 17.79061,-14.04825 33.04017,-14.191925 14.48054,-0.127786 21.24605,3.261777 30.11826,15.128084 4.11198,5.499764 4.83145,10.537466 5.8286,40.813536 l 1.13753,34.53917 7.39449,0.7138 7.39446,0.7138 v 13.50715 13.50714 H 571.63957 544.3369 v -37.69068 c 0,-21.63027 -1.00369,-39.5661 -2.35529,-42.09162 -5.4116,-10.11155 -23.02363,-1.45499 -27.13152,13.33573 -1.28742,4.6357 -2.3466,15.33948 -2.35359,23.78628 l -0.0113,15.35775 h 7.96328 7.96327 v 13.65118 13.65136 h -27.30036 -27.30266 v -36.2554 c 0,-39.96098 -1.60834,-47.92765 -9.67593,-47.92765 -14.18861,0 -22.17717,14.31606 -22.17717,39.74318 v 17.13733 h 6.82567 6.82568 v 13.65118 13.65136 h -34.1283 -34.12831 z M 9.6622517,45.62569 C 6.4855133,42.44899 5.1117964,38.04166 5.1117964,31.026298 c 0,-5.906865 -1.1722088,-10.524503 -2.8440257,-11.20289 -2.12720921,-0.863501 -2.17894641,-1.63025 -0.2051959,-3.041061 1.4513409,-1.036932 2.9870786,-4.731005 3.4128416,-8.2071046 1.0250665,-8.36939837 5.0299826,-8.73378527 6.4621366,-0.587838 0.637677,3.6267066 3.137507,7.2614486 5.688051,8.2704496 4.40397,1.74161 4.38566,1.849319 -0.56867,3.335528 -4.317894,1.294341 -5.119254,3.12997 -5.119254,11.721539 0,8.272827 0.85474,10.409859 4.550438,11.37614 5.274099,1.378318 6.202099,7.484901 1.137705,7.484901 -1.877049,0 -5.460528,-2.047759 -7.9632613,-4.550457 z M 72.127377,44.590584 C 68.607079,41.070305 66.542743,36.4063 66.542743,31.973413 c 0,-8.691798 8.861616,-18.201823 16.960736,-18.201823 6.920885,0 14.892344,7.307275 14.892344,13.651367 0,3.998944 -1.51688,4.550456 -12.513699,4.550456 -9.112138,0 -12.513713,0.852548 -12.513713,3.134166 0,5.59268 6.462501,8.896259 14.766486,7.548612 9.037693,-1.465942 12.556073,1.580958 5.923789,5.129715 -7.411986,3.966633 -16.023987,2.711905 -21.931309,-3.195322 z m 19.4428,-19.164272 c 0,-7.255242 -14.08058,-8.370856 -16.782557,-1.329026 -0.987644,2.573892 0.766197,3.326219 7.753081,3.326219 4.966197,0 9.029476,-0.89819 9.029476,-1.996645 z M 152.43231,47.71781 c -3.27282,-1.906276 -3.98164,-5.595965 -3.98164,-20.725874 0,-14.896233 -0.75944,-18.9658296 -3.98162,-21.3390916 -3.79203,-2.792598 -3.79203,-3.005827 0,-4.4757884 9.04614,-3.5069507 10.80728,0.018255 10.80728,21.624064 0,12.182135 0.9263,20.548429 2.27523,20.548429 1.25144,0 2.27521,1.53532 2.27521,3.412751 0,3.956043 -1.83563,4.193186 -7.39446,0.954781 z m 58.48352,-3.127226 c -3.52031,-3.520279 -5.58465,-8.184284 -5.58465,-12.617171 0,-12.214265 15.07182,-22.5008946 24.11802,-16.460579 2.98215,1.99135 7.73508,10.615782 7.73508,14.035835 0,1.42213 -5.17345,2.424744 -12.51372,2.424744 -9.11215,0 -12.51371,0.852548 -12.51371,3.134166 0,5.59268 6.46252,8.896259 14.76649,7.548612 9.62951,-1.562698 12.82019,2.108187 4.56166,5.24801 -9.35195,3.555697 -14.53486,2.720674 -20.56917,-3.313617 z m 19.44279,-19.362713 c 0,-3.280577 -8.27904,-7.078344 -12.17299,-5.5841 -1.87096,0.717456 -3.96069,2.762108 -4.64385,4.542421 -0.94548,2.46381 0.91407,3.236765 7.78734,3.236765 4.96622,0 9.0295,-0.987644 9.0295,-2.195086 z m 66.64261,22.179043 c -1.26331,-1.606515 -4.18994,-8.038965 -6.5036,-14.295799 -2.31362,-6.257011 -5.785,-12.623376 -7.71419,-14.147743 -2.92532,-2.311555 -2.09125,-2.783833 5.02448,-2.844079 4.69263,-0.03666 8.53206,0.951129 8.53206,2.202754 0,1.25235 -0.97486,2.275227 -2.16627,2.275227 -1.19138,0 -0.46297,4.595731 1.61874,10.21251 4.09894,11.0594 5.3859,10.938179 9.33698,-0.879935 1.91153,-5.717552 1.91986,-8.532604 0.031,-10.807283 -2.06501,-2.488275 -0.97796,-3.075931 5.68909,-3.075931 7.7553,0 11.31287,3.147493 5.67982,5.025109 -1.40917,0.469175 -4.8163,6.895419 -7.57154,14.279184 -5.23914,14.040582 -8.11497,16.939974 -11.95741,12.055619 z m 67.59537,-0.644432 c 0,-1.877069 1.02378,-3.412933 2.27522,-3.412933 4.1376,0 2.66583,-20.816424 -1.70637,-24.135341 -3.57271,-2.71209 -3.2222,-3.029922 3.41282,-3.094915 l 7.39447,-0.07302 v 13.46169 c 0,8.302035 1.02655,13.803802 2.67806,14.354396 4.89437,1.632076 -0.56538,6.312148 -7.36277,6.312148 -4.43108,0 -6.69138,-1.153773 -6.69138,-3.412751 z m 62.57539,1.148292 c -0.84268,-1.36371 3.24144,-8.06708 9.07605,-14.896596 l 10.60834,-12.417086 h -7.00158 c -3.85088,0 -7.00157,1.024154 -7.00157,2.275227 0,1.250524 -1.53589,2.275226 -3.41288,2.275226 -1.896,0 -3.4128,-2.022384 -3.4128,-4.550453 0,-4.083836 1.51688,-4.550457 14.78891,-4.550457 8.13393,0 14.78896,0.657211 14.78896,1.46047 0,0.803256 -4.68651,6.946538 -10.41442,13.651181 l -10.41445,12.190171 h 7.00162 c 3.85084,0 7.00157,-1.024154 7.00157,-2.27523 0,-1.250525 1.60706,-2.275227 3.57109,-2.275227 2.40192,0 3.33301,1.675888 2.84402,5.119306 -0.64241,4.523618 -2.22577,5.197992 -13.60884,5.795686 -7.56604,0.397981 -13.51404,-0.346847 -14.41402,-1.803677 z m 76.21304,-1.148292 c 0,-1.877069 1.0238,-3.412933 2.27524,-3.412933 4.1376,0 2.66581,-20.816424 -1.70638,-24.135341 -3.57275,-2.71209 -3.2222,-3.029922 3.4128,-3.094915 l 7.39449,-0.07302 v 13.651184 c 0,7.584031 1.01118,13.651367 2.2752,13.651367 1.25144,0 2.27524,1.535319 2.27524,3.412932 0,2.383483 -2.40166,3.412751 -7.96328,3.412751 -5.56165,0 -7.96327,-1.02963 -7.96327,-3.412751 z m 65.00629,-0.164296 c -7.27556,-7.275689 -2.05149,-15.700948 11.28673,-18.203097 8.50389,-1.595562 9.6856,-3.47701 4.75407,-7.569793 -2.18211,-1.810979 -4.92604,-1.922158 -9.02037,-0.365102 -7.13575,2.713005 -10.43429,-0.848897 -3.98339,-4.300532 12.38502,-6.6283386 22.9655,1.119084 22.9655,16.815655 0,5.557447 1.11304,10.792131 2.47344,11.632996 4.49325,2.776899 -1.50573,6.243504 -6.33343,3.659751 -2.6857,-1.436734 -5.60663,-1.531665 -7.63873,-0.246463 -4.93704,3.123575 -10.5027,2.577177 -14.50382,-1.42396 z m 15.01606,-4.740681 c 8.34486,-7.5519 2.96107,-13.056771 -7.36486,-7.530538 -6.63693,3.552041 -5.39819,9.683818 2.24564,11.116354 0.52721,0.09128 2.83079,-1.515236 5.11922,-3.585816 z M 373.12867,4.2263324 c 2.74606,-2.7460468 5.67909,-4.30655777 6.51788,-3.46770067 2.21363,2.21352267 -3.59792,8.46049567 -7.87087,8.46049567 -2.92529,0 -2.65965,-0.98034 1.35294,-4.992795 z m 134.8068,-0.695549 c 0,-1.877067 1.53585,-3.41274987 3.41284,-3.41274987 1.87706,0 3.41283,1.53531777 3.41283,3.41274987 0,1.877068 -1.53588,3.412933 -3.41283,3.412933 -1.87707,0 -3.41284,-1.535318 -3.41284,-3.412933 z"/>
</svg>
