<svg
  viewBox="0 0 190.28 200"
  xmlns="http://www.w3.org/2000/svg">
 <path fill="#029833" d="m20.676 189.12-10.886-10.881v20.727l-0.37645 0.26368c-0.31074 0.21764-0.97734 0.26367-3.8188 0.26367-3.429 0-3.444-2e-3 -3.8581-0.41575l-0.41576-0.41576v-18.47c0-18.244 0.0042-18.474 0.33876-18.809 0.24655-0.24656 0.5646-0.33877 1.1685-0.33877h0.8297l10.731 10.331c5.9018 5.6823 10.788 10.332 10.858 10.332 0.06987 0 0.12703-4.4107 0.12703-9.8026 0-8.9058 0.0256-9.8247 0.27965-10.036 0.21229-0.17646 1.1221-0.24488 3.7765-0.28402 3.3507-0.0494 3.516-0.0365 3.9549 0.30871l0.45801 0.36027v18.535c0 18.309-0.0042 18.539-0.33876 18.874-0.24331 0.2433-0.5646 0.33877-1.1402 0.33877h-0.80149zm36.364 10.695c-3.9934-0.51648-8.4266-2.7858-11.265-5.7665-7.275-7.6394-7.104-19.949 0.37999-27.352 6.0277-5.9625 15.235-7.3279 22.704-3.3669 11.615 6.1593 13.914 21.856 4.5576 31.12-4.1801 4.1389-10.317 6.1498-16.377 5.3662zm6.057-9.0371c4.1772-1.3282 7.1785-5.1794 7.4455-9.5539 0.30839-5.0537-3.0048-9.664-8.0001-11.132-1.232-0.36208-3.8459-0.40983-5.156-0.0942-3.5579 0.85722-6.5265 3.6154-7.8136 7.2597-0.49267 1.395-0.61012 4.1598-0.24305 5.7209 0.71639 3.0468 2.9119 5.8189 5.6853 7.1787 0.79186 0.38823 1.9352 0.81739 2.5407 0.95371 1.575 0.35451 3.7998 0.22091 5.5412-0.3328zm23.122 8.4515-0.37645-0.26368v-18.432c0-16.937 0.0227-18.451 0.28003-18.665 0.23013-0.19103 2.3656-0.24099 11.984-0.28033 6.437-0.0263 11.87-7e-3 12.073 0.0426 0.86276 0.21137 0.90111 0.38037 0.90111 3.9716 0 3.0223-0.0301 3.3765-0.30793 3.6279-0.27527 0.24913-1.1685 0.28333-8.4267 0.32268l-8.1188 0.044v6.6059l6.7641 0.0443c5.9972 0.0393 6.799 0.0759 7.0717 0.32268 0.27793 0.25153 0.30758 0.60962 0.30758 3.7148 0 3.3591-9e-3 3.4424-0.37646 3.7002-0.3254 0.22792-1.2901 0.26367-7.114 0.26367h-6.7376v7.2834h8.1888c7.718 0 8.2049 0.0178 8.4691 0.30975 0.24085 0.26613 0.28033 0.77901 0.28033 3.6417 0 3.1061-0.023 3.3549-0.33877 3.6707-0.33234 0.33235-0.5646 0.33877-12.242 0.33877-10.5 0-11.948-0.0311-12.28-0.26368zm36.342-2.3194c2.6068-3.3802 3.3419-4.5473 5.0409-8.0033 2.7773-5.6492 4.3519-10.841 5.2802-17.411 0.3719-2.6319 0.4159-9.9418 0.0736-12.231-1.3434-8.9847-4.5566-15.805-10.219-21.691-5.6299-5.8516-13.192-10.204-22.623-13.021l-2.0742-0.6195-0.36234 0.33757c-0.97511 0.90845-2.3864 0.39973-2.8975-1.0445-0.0513-0.14492-4.2744-1.0009-6.8372-1.3858-1.4419-0.21658-1.7983-0.21979-2.455-0.0222-0.4225 0.12714-1.5254 0.37244-2.4508 0.54508-1.481 0.27628-2.5385 0.31171-8.8242 0.29564l-7.1415-0.0182-0.31128 0.69401c-1.0256 2.2866-4.3058 5.2875-9.9798 9.1301-9.0256 6.1124-13.919 7.5483-15.442 4.531-0.47328-0.93767-0.47943-1.5865-0.0278-2.9329 1.0228-3.0493 4.5757-6.7528 9.1637-9.5522 3.1406-1.9163 7.9616-3.8836 10.948-4.4677 0.70715-0.13828 0.99502-0.25847 0.84691-0.35358-0.59262-0.38051-2.4951-0.9559-6.9997-2.117-9.3532-2.4108-12.446-3.7262-15.472-6.5806l-1.2038-1.1356-1.4236-0.0594c-3.0949-0.12926-6.7355-1.4993-11.497-4.3265l-1.7211-1.022-2.7194 0.11523c-4.3483 0.18426-8.4918-0.31946-11.966-1.4547-5.3424-1.7458-9.0084-4.9959-9.2552-8.2052-0.15925-2.0705 1.2905-3.6542 3.6149-3.9488 4.2496-0.53869 10.468 2.1989 18.926 8.3321 2.2934 1.6629 2.1889 1.6393 4.9225 1.1118 1.596-0.308 1.8416-0.31828 2.3663-0.099 0.70498 0.29456 0.95152 0.70761 0.95152 1.5941 0 0.49328-0.1156 0.78116-0.44655 1.1121-0.2456 0.24561-0.55049 0.44655-0.67752 0.44655-0.5707 0-0.1029 0.35524 1.5052 1.143 1.7865 0.87521 4.3302 1.8243 4.4822 1.6723 0.04716-0.0472-0.06503-0.29975-0.24933-0.5613-0.71579-1.0159-2.307-3.9194-3.0389-5.5455-2.1374-4.748-3.0861-9.9554-2.3999-13.173 0.48499-2.2738 1.8823-4.1314 3.7321-4.9616 0.94286-0.42313 1.0954-0.44619 1.7179-0.2597 0.41688 0.1249 1.0642 0.56816 1.6609 1.1373 3.551 3.387 6.7682 11.462 7.0416 17.675 0.15127 3.4372-0.30737 5.425-1.6399 7.1074l-0.51312 0.64786 0.86832 0.75959c1.1528 1.0084 3.6746 2.3048 6.1171 3.1446 1.0913 0.37521 3.9617 1.1815 6.3786 1.7917 7.2116 1.8207 9.0681 2.5438 10.724 4.1766l0.96322 0.94967 5.4733 0.11982c4.9984 0.10943 9.4089-0.0391 10.202-0.34354 0.18129-0.0696-0.11627-0.53315-1.1119-1.7322-4.6499-5.6-7.4352-12.392-7.4781-18.237-0.02237-3.05 0.46231-4.8356 1.6779-6.1811 1.4506-1.6056 2.976-1.7664 4.618-0.48674 0.71362 0.55613 2.0072 2.3004 2.9795 4.0178 3.5916 6.3433 6.4484 16.39 5.9226 20.829l-0.16393 1.384 0.5958 0.10255c0.3277 0.0564 1.8344 0.34701 3.3483 0.6458 2.1584 0.42601 2.7524 0.49381 2.7524 0.31415 0-0.126-0.12327-1.2359-0.27392-2.4664-0.31565-2.578-0.24209-4.0374 0.27284-5.4137 0.70744-1.8908 2.0289-3.1553 4.8425-4.6339 6.7339-3.5388 10.755-8.3132 12.301-14.604 0.46246-1.8824 0.48722-4.6688 0.0567-6.381-0.53802-2.1396-1.8719-4.6499-3.5552-6.6906-1.216-1.4742-3.952-4.1543-8.7318-8.5534-9.6042-8.8394-11.498-11.17-15.487-19.056-4.8977-9.6827-8.3744-20.429-9.6994-29.981-0.41482-2.9903-0.41441-9.6068 6.9e-4 -11.857 0.63327-3.432 1.7457-6.1954 3.364-8.3564 1.0106-1.3494 1.6093-1.7165 2.5535-1.5656 1.1683 0.18681 1.8479 0.68615 4.4476 3.268 3.4543 3.4307 4.5236 4.2177 13.296 9.786 16.623 10.551 24.095 16.151 30.997 23.232 6.4582 6.6254 10.172 12.867 11.625 19.539 0.44829 2.0578 0.44829 7.597 0 9.6548-0.47765 2.1925-1.3427 4.6858-2.3906 6.8905l-0.94673 1.9917 0.387 0.30755c0.21285 0.16916 1.2361 0.72916 2.2738 1.2445 3.396 1.6863 5.9175 1.8204 8.6939 0.46207 1.627-0.79598 3.7682-2.893 5.2455-5.1373 1.2998-1.9747 3.5402-6.505 5.6123-11.349 2.6443-6.1811 3.7608-8.1867 5.4055-9.7094 1.5742-1.4574 3.1838-1.8141 5.1434-1.14 5.1655 1.7772 10.744 7.8612 14.839 16.185 1.9122 3.8863 2.9502 6.8264 3.7619 10.655 0.73881 3.485 0.43943 8.318-0.60277 9.7306-1.8627 2.5247-8.7926 5.1455-17.736 6.7076l-1.627 0.28416 1.0594 2.0637c3.3661 6.5568 4.9997 12.899 8.7333 33.907 2.0468 11.517 2.5396 14.037 3.5605 18.209 1.2268 5.0123 2.5922 8.5633 4.0335 10.49 0.90134 1.2048 0.94081 1.726 0.23817 3.1453-0.83496 1.6866-2.3531 2.8533-4.4102 3.389-6.3605 1.6567-19.672-5.353-32.997-17.376-2.4221-2.1855-7.8076-7.5993-9.6753-9.7263-7.4865-8.5255-12.059-16.231-13.242-22.315-0.27555-1.417-0.30762-1.4816-0.73702-1.4821-0.24691-3.4e-4 -1.1235 0.31204-1.9479 0.69412-5.8703 2.7206-10.547 4.2083-17.251 5.488-3.6699 0.70047-4.8188 0.97553-6.1413 1.4704l-0.93584 0.35015 2.9457 0.9762c14.074 4.6639 23.862 12.526 29.207 23.457 2.2835 4.6706 3.5898 9.3434 4.1363 14.797 0.22728 2.2677 0.22441 7.3627-5e-3 9.8485-0.95954 10.373-5.0893 21.344-10.696 28.414l-0.83948 1.0586h-4.3713l1.992-2.5831zm59.659-36.388c0.87989-0.20119 1.8205-0.78466 1.9598-1.2158 0.0571-0.1766-0.14616-0.69641-0.50088-1.2802-1.7924-2.9507-3.5742-8.753-5.1851-16.885-0.36908-1.8632-1.4683-7.8847-2.4427-13.381-1.91-10.774-2.7341-14.885-3.9385-19.648-1.6217-6.4134-3.6344-11.521-5.6115-14.242l-0.50232-0.69112-1.0784 0.13194c-2.7844 0.34065-7.5626 0.51084-9.2178 0.32832-3.3238-0.36652-4.6177-1.6358-3.6337-3.5645 0.70414-1.3802 4.1079-3.0888 7.0526-3.5402 2.5723-0.3943 5.4404 0.47474 7.4621 2.2611l0.8784 0.77612 2.3398-0.35527c8.4411-1.2816 14.772-3.2015 16.216-4.9179 0.66244-0.78727 0.84943-1.7101 0.83774-4.1348-0.0198-4.113-1.4041-8.6909-4.3495-14.384-3.4563-6.6806-8.1144-11.883-11.911-13.304-1.2167-0.45522-1.6377-0.36013-2.5304 0.57148-0.86658 0.9044-2.0086 3.1221-4.0353 7.836-4.0338 9.382-5.8168 12.587-8.7183 15.671-4.8731 5.1801-10.443 5.7341-17.175 1.7081-1.8685-1.1174-2.2523-1.4472-2.6997-2.3198-0.58442-1.1399-0.38963-2.3719 0.74023-4.6818 1.7835-3.6462 2.5218-6.6683 2.5219-10.322 7e-5 -2.7688-0.30868-4.6658-1.1881-7.3002-2.7089-8.1147-9.586-16.117-21.603-25.138-4.4326-3.3274-8.3403-5.9844-15.99-10.873-11.842-7.5669-12.764-8.2332-16.221-11.724-2.4092-2.4325-2.1454-2.4032-3.1791-0.35325-0.69941 1.387-1.1834 2.8804-1.5647 4.8274-0.4124 2.1062-0.41261 7.9536-3.4e-4 10.925 1.2825 9.2451 4.6331 19.615 9.3587 28.964 3.8119 7.5417 5.4919 9.5797 15.232 18.479 7.5744 6.9199 9.8695 9.5087 11.624 13.111 1.2644 2.596 1.5543 3.892 1.5724 7.0293 0.0117 2.0109-0.059 2.9426-0.30159 3.9805-1.73 7.4008-6.3102 13.025-13.996 17.185-1.7871 0.96744-2.5602 1.6227-3.1061 2.6323-0.31824 0.58868-0.36627 0.94775-0.36627 2.7384 0 1.1335 0.0464 2.1072 0.10306 2.1639 0.0567 0.0567 0.44436-0.0433 0.8615-0.22208 1.0379-0.44488 3.0202-0.92252 6.8259-1.6447 6.0872-1.1551 9.8335-2.3165 15.245-4.7262 3.1065-1.3832 3.4204-1.4758 5.0526-1.4902 2.247-0.02 3.0556 0.61467 3.2521 2.5524 0.41249 4.0659 2.1468 8.1681 5.7331 13.561 9.6857 14.564 30.408 31.671 41.858 34.554 2.1765 0.54804 3.1211 0.62475 4.3193 0.35079zm-134.94-26.4c2.4617-1.1045 7.3242-4.1712 11.089-6.9938 2.2246-1.6677 4.5125-3.6637 4.3666-3.8096-0.13088-0.13087-3.2988 0.79672-5.1095 1.4961-5.7093 2.2053-10.992 6.1547-12.707 9.4989l-0.40741 0.79481 0.84138-0.24986c0.46276-0.13743 1.3295-0.46886 1.926-0.73652zm38.65-19.046c-0.49219-5.784-3.7676-14.962-6.8192-19.107l-0.77114-1.0475-0.35326 0.66642c-0.53745 1.0139-0.59897 4.3021-0.12384 6.6198 0.67191 3.2776 2.0694 6.6544 3.9757 9.6063 1.5028 2.3272 3.7296 4.933 4.0475 4.7365 0.0965-0.0597 0.11426-0.65187 0.0442-1.4747zm-45.858-9.9712c1.3531-2.2295 0.74914-7.4028-1.6041-13.739-0.83735-2.2548-2.6184-6.0931-2.9113-6.2741-0.26939-0.16651-1.1318 0.32833-1.5177 0.87089-1.6778 2.3583-0.90257 7.8629 1.9384 13.765 1.0237 2.1266 3.3561 5.9286 3.637 5.9286 0.06802 0 0.27401-0.24772 0.45776-0.55049zm-20.895-3.9954c-0.43996-0.3883-3.0722-2.1333-4.6495-3.0824-3.7109-2.2328-6.9853-3.5225-9.3199-3.6711-1.1957-0.07607-1.4825-0.0451-1.6695 0.18026-0.19209 0.23146-0.15925 0.3857 0.21996 1.0328 1.6924 2.8879 7.5157 5.2353 13.818 5.5702 0.51238 0.0272 1.1183 0.0636 1.3466 0.0808 0.23615 0.0178 0.34564-0.0299 0.25407-0.11068zm141.48-10.991c-0.34935-0.03655-0.92101-0.03655-1.2704 0-0.34936 0.03655-0.0635 0.06644 0.63518 0.06644 0.6987 0 0.98453-0.02989 0.63518-0.06644z"/>
</svg>
