<?xml version="1.0" encoding="UTF-8" standalone="no"?>
<svg
   xmlns:dc="http://purl.org/dc/elements/1.1/"
   xmlns:cc="http://creativecommons.org/ns#"
   xmlns:rdf="http://www.w3.org/1999/02/22-rdf-syntax-ns#"
   xmlns:svg="http://www.w3.org/2000/svg"
   xmlns="http://www.w3.org/2000/svg"
   xmlns:sodipodi="http://sodipodi.sourceforge.net/DTD/sodipodi-0.dtd"
   xmlns:inkscape="http://www.inkscape.org/namespaces/inkscape"
   width="132"
   height="99"
   viewBox="0 0 34.924999 26.193751"
   version="1.1"
   id="svg8"
   inkscape:version="1.0.2 (e86c870879, 2021-01-15, custom)"
   sodipodi:docname="TV_Sud_Est_Romania.svg">
  <defs
     id="defs2" />
  <sodipodi:namedview
     id="base"
     pagecolor="#ffffff"
     bordercolor="#666666"
     borderopacity="1.0"
     inkscape:pageopacity="0.0"
     inkscape:pageshadow="2"
     inkscape:zoom="2.8284271"
     inkscape:cx="72.057696"
     inkscape:cy="36.976278"
     inkscape:document-units="px"
     inkscape:current-layer="svg8"
     inkscape:document-rotation="0"
     showgrid="false"
     units="px"
     inkscape:window-width="1920"
     inkscape:window-height="1001"
     inkscape:window-x="-9"
     inkscape:window-y="-9"
     inkscape:window-maximized="1" />
  <metadata
     id="metadata5">
    <rdf:RDF>
      <cc:Work
         rdf:about="">
        <dc:format>image/svg+xml</dc:format>
        <dc:type
           rdf:resource="http://purl.org/dc/dcmitype/StillImage" />
        <dc:title></dc:title>
      </cc:Work>
    </rdf:RDF>
  </metadata>
  <g
     id="g66"
     style="display:inline"
     transform="matrix(0.44426573,0,0,0.44426573,-105.94144,-30.008205)">
    <path
       id="path92"
       style="display:inline;fill:#1692fd;stroke-width:0.999999"
       d="m 1160.8496,323.89258 c -21.0551,0 -28.0619,0.30391 -28.8184,1.25 -0.5496,0.6875 -1.531,4.3579 -2.1796,8.15625 -0.9545,5.58849 -0.9303,7.06386 0.1269,7.73437 2.2414,1.42154 54.177,1.05917 55.9824,-0.39062 1.5615,-1.25392 4.2075,-14.32256 3.2227,-15.91602 -0.2836,-0.45894 -13.0338,-0.83398 -28.334,-0.83398 z m -65.4219,0.002 c -12.3952,0 -21.3059,2.59598 -26.9843,7.86328 -4.9052,4.55002 -6.7822,9.5241 -7.3809,19.5586 -0.8594,14.40401 0.6057,16.25131 18.6758,23.55859 6.7523,2.73057 12.9001,5.48284 13.6621,6.11523 0.7619,0.63236 1.3767,2.33221 1.3691,3.77735 -0.037,6.28932 -2.7161,7.12695 -22.7949,7.12695 -19.5618,0 -19.3962,-0.0741 -19.5742,8.68359 -0.1147,5.63789 -0.1058,5.6567 3.3437,6.56836 1.9025,0.50279 7.0775,1.28821 11.5,1.7461 15.6608,1.62142 29.9484,-0.41572 37.2813,-5.31641 6.3267,-4.22819 9.8483,-11.11026 10.7812,-21.0664 1.1607,-12.38579 -2.2069,-16.6349 -18.0214,-22.74219 -14.1585,-5.4677 -16.5,-7.09925 -16.5,-11.5 0,-0.80502 1.105,-2.56797 2.455,-3.91797 2.3857,-2.38576 2.8707,-2.45508 17.3086,-2.45508 10.353,0 15.3458,-0.37879 16.4746,-1.25 2.2198,-1.71306 3.4438,-11.95766 1.6036,-13.42187 -1.7531,-1.39485 -15.2312,-3.32813 -23.1993,-3.32813 z m 69.6426,34.00977 c -2.9242,-0.005 -6.2879,0.004 -10.1562,0.006 -14.6452,0.008 -27.2036,0.38026 -27.9063,0.82617 -1.4014,0.88937 -3.627,12.66127 -2.8008,14.81445 0.7267,1.89371 54.8145,1.9837 56.3477,0.0937 0.5577,-0.6875 1.5489,-3.86096 2.2031,-7.05078 1.6312,-7.95251 2.7819,-8.65094 -17.6875,-8.68945 z m -33.3379,33.08593 c -12.9767,0.15239 -11.6738,1.77497 -12.5429,10.25782 l -0.6797,6.64648 h 28.6015 c 32.8414,0 30.3553,0.81251 30.8711,-10.08398 l 0.3028,-6.41602 -28.2051,-0.26562 c -8.1081,-0.0763 -14.0221,-0.18947 -18.3477,-0.13868 z"
       transform="scale(0.26458333)" />
    <path
       id="path90"
       style="display:inline;fill:#13109c;fill-opacity:1;stroke-width:0.999999"
       d="m 1038.4616,323.61832 c -8.3555,-0.41777 -8.7776,0.70529 -9.4401,1.52621 -4.9582,19.94192 -11.7162,40.98719 -15.6854,60.45313 -0.8188,4.84671 -2.1509,7.12183 -3.3886,5.78906 -0.5066,-0.54539 -2.1721,-6.28163 -3.7032,-12.7461 l -13.64254,-53.00976 c -0.83845,-1.64461 -3.59312,-1.74389 -41.60742,-1.5 l -40.70898,0.26172 v 8.5 8.5 l 11,0.5 11,0.5 0.5,32.78711 c 0.42209,27.68003 0.73363,32.93466 2,33.73437 v 0.002 c 1.65872,1.04738 14.91887,1.32812 17.41796,0.36914 1.39696,-0.53609 1.58204,-4.36551 1.58204,-32.79883 0,-23.70567 0.31755,-32.50895 1.20117,-33.39258 1.68049,-1.68051 20.19362,-1.63879 21.58203,0.0488 0.56561,0.6875 4.23162,13.77378 8.14453,29.08008 3.91287,15.30629 7.9876,29.54318 9.05664,31.63867 2.49011,4.88099 5.78132,6.03125 17.26367,6.03125 10.6921,0 14.6824,-1.53253 17.0801,-6.56055 4.1453,-15.31829 9.2015,-34.99993 12.7383,-47.93945 1.6871,-7.99203 3.3664,-15.49165 5.5546,-22.74805 2.7735,-7.54346 3.8912,-8.81348 0.5981,-8.89174 -3.3379,0.0125 -5.9295,-0.21563 -8.5429,-0.13448 z"
       transform="scale(0.26458333)"
       sodipodi:nodetypes="cccsccccccccsccsssssssccccc" />
  </g>
</svg>
