<svg
  xmlns="http://www.w3.org/2000/svg"
  viewBox="0 0 1000 687.35">
<defs>
  <radialGradient
     id="gradientb2InsUf2cU"
     gradientUnits="userSpaceOnUse"
     cx="343.75"
     cy="343.5"
     dx="3297.85"
     dy="2361.05"
     r="3577.32"
     gradientTransform="matrix(0.09602107,9.3956504e-4,-9.3952529e-4,0.096017,311.06548,310.19518)"
     fx="343.75"
     fy="343.5">
    <stop style="stop-color:#999999;stop-opacity:1" offset="0"/>
    <stop style="stop-color:#f4f4f4;stop-opacity:1" offset="0.88000005"/>
    <stop style="stop-color:#999999;stop-opacity:1" offset="1"/>
  </radialGradient>
  <radialGradient
     id="gradientg5nv5aRuja"
     gradientUnits="userSpaceOnUse"
     cx="227.22"
     cy="138.63"
     dx="-4298.15"
     dy="2955.65"
     r="5330.53"
     gradientTransform="matrix(-0.02058087,0.05990801,-0.0618588,-0.02125105,240.47187,127.96374)"
     fx="227.22"
     fy="138.63">
     <stop style="stop-color:#ebc5b2;stop-opacity:1" offset="0"/>
     <stop style="stop-color:#a82228;stop-opacity:1" offset="1"/>
  </radialGradient>
  <radialGradient
    id="gradientc29AfciPGU"
    gradientUnits="userSpaceOnUse"
    cx="336.12"
    cy="341.29001"
    dx="-4393.03"
    dy="-1408.18"
    r="5042.38"
    gradientTransform="matrix(-0.03048733,0.03213981,-0.03345022,-0.03173034,357.78361,341.31644)"
    fx="336.12"
    fy="341.29001">
    <stop style="stop-color:#fcffff;stop-opacity:1" offset="0"/>
    <stop style="stop-color:#ffffff;stop-opacity:1" offset="0.60520351"/>
    <stop style="stop-color:#b3b3b3;stop-opacity:1" offset="1"/>
  </radialGradient>
</defs>
<g>
  <path opacity="1" fill="#dc0000" fill-opacity="1"
    d="m 799.51,473.75 c -9.12,-0.88 -15.81,-1.96 -18.38,-2.97 -1.3,-0.51 -2.81,-0.93 -3.37,-0.93 -0.56,0 -2.03,-0.33 -3.27,-0.73 -1.24,-0.4 -4.45,-1.3 -7.12,-2.01 -8.37,-2.21 -12.94,-5 -23.38,-14.28 -0.53,-0.48 -1.85,-2.14 -2.92,-3.69 -1.07,-1.55 -3.23,-4.25 -4.79,-6 -4.45,-4.99 -5.81,-8.14 -9.4,-21.74 -0.85,-3.22 -0.91,-7.06 -1.06,-68.17 -0.09,-35.62 -0.01,-81.7 0.18,-102.39 0.02,-2.5 0.13,-15.04 0.34,-37.61 h 16.98 16.99 c 0,21.89 0,34.05 0,36.48 0,32.52 0.08,36.57 0.76,37.26 0.69,0.68 5.68,0.76 47.62,0.76 3.13,0 18.75,0 46.86,0 0.9,2.12 1.4,3.3 1.5,3.53 2.57,6.06 5.85,13.98 8.6,20.82 1.46,3.61 3.33,8.11 4.15,9.98 0.83,1.88 2.94,7.13 4.7,11.69 1.77,4.55 3.42,8.66 3.67,9.13 0.26,0.47 0.67,1.23 0.93,1.7 0.25,0.47 1.6,3.81 2.99,7.43 1.4,3.61 3.41,8.65 4.47,11.2 1.06,2.54 4.1,9.99 6.75,16.55 2.65,6.57 5.25,12.81 5.77,13.88 0.85,1.73 4.99,12.22 8.35,21.18 1.01,2.7 1.37,3.17 2.37,3.17 1.32,0 1.17,0.32 6.77,-14.12 1.88,-4.82 4.26,-10.74 5.31,-13.15 1.05,-2.41 3.06,-7.45 4.47,-11.2 1.4,-3.75 3.33,-8.46 4.27,-10.47 1.56,-3.32 5.56,-13.42 8.77,-22.15 0.69,-1.88 1.55,-3.76 1.9,-4.18 0.36,-0.43 0.65,-0.93 0.65,-1.12 0,-0.54 6.17,-16.17 11.09,-28.06 3.44,-8.34 7.9,-19.79 7.9,-20.31 0,-0.28 0.29,-0.75 0.65,-1.05 0.36,-0.3 0.92,-1.42 1.24,-2.5 0.04,-0.13 0.23,-0.78 0.58,-1.95 10.63,0 16.54,0 17.72,0 13.73,0 17.76,-0.14 17.93,-0.61 0.43,-1.22 0.92,0.1 0.58,1.61 -0.2,0.96 -0.48,1.34 -0.7,0.99 -0.2,-0.34 -1.24,1.85 -2.45,5.17 -1.15,3.16 -2.85,7.5 -3.78,9.64 -1.84,4.26 -6.3,15.69 -9.65,24.77 -1.17,3.18 -2.32,6.02 -2.55,6.33 -0.47,0.61 -3.47,8.16 -6.21,15.65 -0.98,2.68 -2.51,6.42 -3.39,8.32 -0.89,1.9 -2.27,5.3 -3.07,7.55 -2.61,7.31 -7.38,19.57 -7.83,20.12 -0.24,0.29 -1.87,4.36 -3.63,9.05 -1.76,4.69 -3.99,10.38 -4.95,12.66 -2.09,4.93 -6.03,15.05 -8.27,21.26 -0.88,2.45 -2.47,6.4 -3.53,8.77 -1.05,2.36 -2.53,5.94 -3.27,7.95 -1.23,3.33 -3.51,9.11 -7.49,18.99 -0.81,2.01 -1.88,4.75 -2.39,6.09 -0.06,0.16 -0.37,0.98 -0.92,2.44 -5.82,0.09 -9.05,0.14 -9.7,0.15 -5.34,0.08 -12.38,0.01 -15.64,-0.17 -0.4,-0.02 -2.38,-0.13 -5.95,-0.32 -0.49,-1.51 -0.77,-2.34 -0.82,-2.51 -0.46,-1.38 -1.59,-4.15 -2.51,-6.16 -0.92,-2.01 -3.53,-8.37 -5.8,-14.12 -2.27,-5.76 -4.45,-11.13 -4.85,-11.93 -1.37,-2.74 -8.46,-20.7 -8.46,-21.42 0,-0.14 -0.57,-1.41 -1.26,-2.81 -0.69,-1.41 -3.31,-7.71 -5.82,-14 -2.5,-6.29 -5.47,-13.53 -6.58,-16.07 -1.11,-2.54 -2.64,-6.27 -3.39,-8.28 -3.29,-8.81 -5.2,-13.6 -5.66,-14.2 -0.27,-0.36 -2.53,-5.91 -5.03,-12.34 -2.5,-6.42 -4.72,-11.91 -4.94,-12.2 -0.22,-0.28 -1.84,-4.22 -3.61,-8.76 -5.16,-13.25 -6.04,-15.42 -7.31,-17.99 -0.66,-1.34 -2.31,-5.4 -3.65,-9.01 -4.86,-13.03 -5.41,-14.1 -6.67,-13.06 -0.48,0.4 -0.62,4.14 -0.62,16.77 0,1.08 0,6.5 0,16.25 -16.63,0 -25.87,0 -27.72,0 -24.7,0 -27.81,0.09 -28.5,0.78 -0.7,0.7 -0.76,5.19 -0.64,46.14 0.01,3.02 0.05,18.14 0.13,45.36 0.96,2.33 1.5,3.62 1.61,3.88 2.91,7 10.56,15.29 16.16,17.51 6.21,2.45 15.7,3.69 28.33,3.69 0.7,0 4.25,0 10.63,0 0,10.35 0,16.1 0,17.25 0,16.01 -0.06,17.28 -0.85,17.51 -0.82,0.25 -8.08,0.25 -10.11,0.01 -0.53,-0.07 -3.6,-0.37 -6.81,-0.68 z"/>
  <path opacity="1" fill="url(#gradientb2InsUf2cU)"
    d="M 0.25,343.5 C 0.25,533.21 154.04,687 343.75,687 533.46,687 687.25,533.21 687.25,343.5 687.25,153.79 533.46,0 343.75,0 c 0,0 0,0 0,0 -0.11,0 -0.23,0 -0.34,0 C 153.83,0.19 0.25,153.93 0.25,343.5 Z m 645.78,0 c 0,0 0,0 0,0 0,166.94 -135.33,302.28 -302.28,302.28 0,0 0,0 0,0 -166.94,0 -302.28,-135.34 -302.28,-302.28 0,0 0,0 0,0 0,-166.94 135.34,-302.28 302.28,-302.28 0,0 0,0 0,0 166.95,0 302.28,135.34 302.28,302.28 z"/>
  <path opacity="1" fill="url(#gradientg5nv5aRuja)"
     d="m 343.76,41.23 c -166.94,0 -302.28,135.33 -302.28,302.28 0,166.94 135.34,302.28 302.28,302.28 166.95,0 302.28,-135.34 302.28,-302.28 0,-166.95 -135.33,-302.28 -302.28,-302.28 z"/>
  <path opacity="1" fill="url(#gradientc29AfciPGU)"
     d="m 484.41,287.25 c 21.85,269.31 -305.59,271.78 -283.9,0 -7.52,0 -67.68,0 -75.2,0 -46.7,376.37 489.67,372.37 434.88,0 -15.15,0 -68.2,0 -75.78,0 z"/>
</g>
</svg>
