<svg
  xmlns="http://www.w3.org/2000/svg"
  viewBox="0 0 47.049529 52.916669">
  <g transform="matrix(1.1622517,0,0,1.1622517,-0.4857073,-1.1894698)">
    <circle
       cx="20.658527"
       cy="21.264044"
       r="20.240625"/>
    <path fill="#ffffff" d="m 26.951022,30.492909 c 0,-1.650969 0.01598,-3.001767 0.03555,-3.001767 0.01957,0 0.295417,0.13168 0.613035,0.292631 2.56729,1.300902 5.88221,0.16975 7.176471,-2.448834 0.854482,-1.728827 0.845953,-3.765845 -0.02317,-5.533582 -0.448538,-0.912286 -1.515434,-1.982418 -2.390219,-2.39748 -0.690554,-0.327645 -1.689818,-0.566914 -2.367599,-0.566914 -0.506533,0 -1.551807,0.204075 -1.996121,0.389724 l -0.313433,0.13096 1.07948,1.081887 c 1.029194,1.031482 1.098445,1.084133 1.486411,1.130084 0.549767,0.06512 1.205407,0.411896 1.68109,0.889176 1.525201,1.530355 1.067275,4.093331 -0.904347,5.061515 -0.4321,0.212195 -0.573416,0.237412 -1.330335,0.237412 -0.786409,0 -0.887199,-0.01987 -1.411878,-0.27792 -0.999873,-0.491822 -1.638155,-1.428037 -1.731334,-2.539485 -0.06132,-0.731631 0.07021,-1.299984 0.445042,-1.922407 l 0.287148,-0.476851 -1.622555,-1.682937 c -0.892403,-0.92561 -1.652856,-1.682937 -1.689908,-1.682937 -0.03705,0 -0.06741,3.671887 -0.06741,8.159755 v 8.159746 h 1.522026 1.522026 z M 16.212281,28.089107 c 1.151826,-0.332798 1.994104,-0.811867 2.756405,-1.567797 0.774625,-0.768163 1.178411,-1.430524 1.499595,-2.459899 0.307671,-0.986081 0.394638,-2.013568 0.394638,-4.662432 v -2.348963 l -1.598137,1.596479 -1.598137,1.596479 -0.03555,1.362183 c -0.04254,1.630855 -0.173845,2.069007 -0.837384,2.795025 -0.745213,0.815382 -1.812848,1.205237 -3.07585,1.123183 -1.493543,-0.09697 -2.573492,-0.849508 -3.104713,-2.163274 l -0.193009,-0.477311 -0.02397,-5.601893 -0.02397,-5.601904 H 8.7684867 7.164777 l 0.002,4.756331 c 0.002,5.105487 0.062619,6.426983 0.3396894,7.417558 0.6388113,2.283538 2.3137088,3.798802 4.8163736,4.357328 0.842986,0.188136 3.058033,0.119175 3.889614,-0.121093 z m 4.650638,-15.500304 v -0.90982 h -1.606586 -1.606586 v 2.514738 2.514728 l 1.606586,-1.604908 1.606586,-1.604918 z"/>
    <path transform="matrix(0.50032349,0,0,0.50032349,-12.362823,-0.97787533)" d="m 76.197266,89 c -0.926993,0 -1.656207,0.266906 -2.185547,0.798828 -0.526759,0.531924 -0.789063,1.265805 -0.789063,2.203125 0,0.934739 0.262304,1.667296 0.789063,2.199219 C 74.541059,94.733094 75.270273,95 76.197266,95 c 0.929574,0 1.656834,-0.266906 2.183593,-0.798828 0.52676,-0.531923 0.791016,-1.26448 0.791016,-2.199219 0,-0.93732 -0.264256,-1.671201 -0.791016,-2.203125 C 77.8541,89.266906 77.12684,89 76.197266,89 Z M 32.53125,89.105469 v 5.78125 h 1.414062 v -3.964844 l 2.101563,3.964844 h 1.666016 v -5.78125 h -1.414063 v 3.964843 l -2.103516,-3.964843 z m 10.339844,0 v 5.78125 h 4.109375 v -1.126953 h -2.617188 v -1.324219 h 2.38086 v -1.126953 h -2.38086 v -1.076172 h 2.53125 v -1.126953 z m 8.43164,0 v 1.126953 h 1.919922 v 4.654297 h 1.492188 v -4.654297 h 1.916015 v -1.126953 z m 9.310547,0 1.375,5.78125 h 1.71875 l 1.03711,-4.394531 1.050781,4.394531 h 1.71875 l 1.363281,-5.78125 h -1.416015 l -1,4.201172 -0.992188,-4.201172 h -1.435547 l -0.992187,4.201172 -1,-4.201172 z m 23.386719,0 v 5.78125 h 1.492188 v -2.1875 h 0.421874 c 0.242722,0 0.435478,0.05234 0.580079,0.158203 0.147182,0.105869 0.293528,0.304549 0.435547,0.59375 l 0.703124,1.435547 h 1.589844 L 88.412109,93.246094 C 88.246851,92.912996 88.082597,92.664628 87.919922,92.501953 87.759828,92.336693 87.578991,92.23007 87.375,92.183594 c 0.37183,-0.116197 0.648698,-0.295711 0.832031,-0.541016 0.185915,-0.245304 0.279297,-0.559248 0.279297,-0.941406 0,-0.55258 -0.17882,-0.957257 -0.535156,-1.212891 -0.353755,-0.255633 -0.912093,-0.382812 -1.673828,-0.382812 z m 9.810547,0 v 5.78125 h 1.490234 v -2.277344 l 2.300781,2.277344 h 1.867188 l -3.070312,-3.042969 2.785156,-2.738281 h -1.732422 l -2.150391,2.111328 v -2.111328 z m -17.613281,0.974609 c 0.457041,0 0.810078,0.168226 1.060546,0.503906 0.250469,0.335681 0.376954,0.808582 0.376954,1.417969 0,0.606806 -0.126485,1.078384 -0.376954,1.414063 -0.250468,0.33568 -0.603505,0.503906 -1.060546,0.503906 -0.454458,0 -0.806172,-0.168226 -1.056641,-0.503906 -0.250469,-0.335679 -0.376953,-0.807257 -0.376953,-1.414063 0,-0.609387 0.126484,-1.082288 0.376953,-1.417969 0.250469,-0.33568 0.602183,-0.503906 1.056641,-0.503906 z m 9.294922,0.105469 h 0.626953 c 0.31244,0 0.53565,0.0563 0.669921,0.169922 0.136855,0.113614 0.205079,0.303027 0.205079,0.566406 0,0.265968 -0.06822,0.456074 -0.205079,0.572266 -0.134271,0.116191 -0.357481,0.175781 -0.669921,0.175781 h -0.626953 z"/>
  </g>
</svg>
