<?xml version="1.0" encoding="UTF-8" standalone="no"?>
<svg
   xmlns:dc="http://purl.org/dc/elements/1.1/"
   xmlns:cc="http://creativecommons.org/ns#"
   xmlns:rdf="http://www.w3.org/1999/02/22-rdf-syntax-ns#"
   xmlns:svg="http://www.w3.org/2000/svg"
   xmlns="http://www.w3.org/2000/svg"
   xmlns:sodipodi="http://sodipodi.sourceforge.net/DTD/sodipodi-0.dtd"
   xmlns:inkscape="http://www.inkscape.org/namespaces/inkscape"
   width="132"
   height="99"
   viewBox="0 0 34.924999 26.193751"
   version="1.1"
   id="svg8"
   inkscape:version="1.0.2 (e86c870879, 2021-01-15, custom)"
   sodipodi:docname="Viasat_6_Hungary.svg">
  <defs
     id="defs2" />
  <sodipodi:namedview
     id="base"
     pagecolor="#ffffff"
     bordercolor="#666666"
     borderopacity="1.0"
     inkscape:pageopacity="0.0"
     inkscape:pageshadow="2"
     inkscape:zoom="0.24748737"
     inkscape:cx="-806.43873"
     inkscape:cy="204.19454"
     inkscape:document-units="px"
     inkscape:current-layer="svg8"
     inkscape:document-rotation="0"
     showgrid="false"
     units="px"
     inkscape:window-width="1920"
     inkscape:window-height="1001"
     inkscape:window-x="-9"
     inkscape:window-y="-9"
     inkscape:window-maximized="1" />
  <metadata
     id="metadata5">
    <rdf:RDF>
      <cc:Work
         rdf:about="">
        <dc:format>image/svg+xml</dc:format>
        <dc:type
           rdf:resource="http://purl.org/dc/dcmitype/StillImage" />
        <dc:title />
      </cc:Work>
    </rdf:RDF>
  </metadata>
  <g
     id="g845"
     transform="matrix(0.09127242,0,0,0.09127242,14.571017,13.858457)">
    <path
       style="display:inline;fill:#9e2c16;stroke-width:0.264583"
       d="M 26.986059,66.959256 C 9.1678285,65.822114 -8.1944161,57.855105 -21.13225,44.879226 -44.740366,21.201687 -49.66514,-15.498997 -33.149271,-44.674657 c 2.340716,-4.134927 1.345758,-2.748182 37.1336208,-51.755957 l 31.9923852,-43.810256 3.594074,0.1718 c 8.364604,0.39983 16.168619,1.50293 23.654293,3.34353 5.175882,1.27266 13.942963,4.14698 13.92785,4.5663 -0.006,0.16623 -8.147921,11.43459 -18.093175,25.04079 -9.945254,13.606196 -18.054455,24.770295 -18.020446,24.809109 0.03401,0.03881 1.478669,0.305023 3.210359,0.591574 12.704274,2.102239 24.388906,7.298905 34.501655,15.34439 3.604773,2.867882 9.134615,8.393755 11.915561,11.907009 14.434144,18.235095 19.638934,41.685836 14.240364,64.1614601 C 99.20732,33.425416 82.086756,53.004004 59.127727,62.047269 c -6.711683,2.643645 -14.807864,4.409276 -22.577425,4.923727 -4.35595,0.288424 -4.870786,0.287792 -9.564243,-0.01175 z M 38.991625,28.226803 c 10.753366,-2.103681 20.398286,-9.275829 25.440842,-18.9182989 2.808793,-5.3710233 3.950317,-9.67088883 4.182087,-15.7529957 0.116271,-3.0511936 0.04614,-4.6416254 -0.303321,-6.8791664 -1.966974,-12.594014 -10.159149,-23.170691 -21.851158,-28.211392 -5.148739,-2.219743 -9.534769,-3.000563 -15.783621,-2.809875 -3.814895,0.116416 -4.883285,0.24937 -7.537831,0.938027 -12.403374,3.217757 -22.1127409,12.3239 -25.9880402,24.373454 -4.1124374,12.7868978 -0.9052957,26.7181155 8.3889588,36.440077 5.9086224,6.180526 13.4809894,10.076508 21.7503434,11.190544 2.574581,0.346845 9.089615,0.140634 11.70174,-0.370374 z"
       id="path849"
       sodipodi:nodetypes="sssscsssssssssssssssscsssssss" />
    <path
       style="display:inline;fill:#040403;stroke-width:0.264583"
       d="M 22.92426,123.30363 C -10.162509,120.91111 -40.151369,107.02311 -63.065326,83.481406 -84.49375,61.465934 -97.076636,34.103061 -100.15955,2.8159253 c -0.51588,-5.2353899 -0.4351,-18.8190693 0.14475,-24.3416673 2.59203,-24.687113 11.3211,-46.985376 26.101166,-66.675002 7.277015,-9.694257 16.621908,-18.978256 26.576338,-26.403166 17.044115,-12.71304 36.91444,-21.162 57.72307,-24.54413 1.835846,-0.29839 3.396057,-0.48437 3.467135,-0.41329 0.218548,0.21855 -31.142586,43.006516 -31.758253,43.329783 -3.157776,1.658054 -10.327934,6.599106 -14.468314,9.970308 -3.766918,3.067121 -10.957434,10.324695 -14.068873,14.200079 -12.655029,15.762187 -19.942808,33.360766 -22.054783,53.258047 -0.540737,5.09438 -0.543523,15.080885 -0.0056,20.1638299 2.108546,19.9250281 9.334113,37.4766741 21.941346,53.2978031 2.733116,3.429855 11.435276,12.132014 14.86513,14.865131 19.837583,15.807788 43.621361,23.581307 68.241245,22.304052 C 61.387119,90.538907 83.871197,80.737537 101.73895,63.407955 117.0313,48.57618 127.37983,28.915418 130.84654,8.1075921 131.8991,1.7899055 132.0649,-0.49637767 132.0649,-8.69345 c 0,-8.197072 -0.1658,-10.483355 -1.21836,-16.801042 -4.02495,-24.158502 -17.183,-46.351308 -36.749353,-61.982674 -3.660071,-2.923996 -10.492915,-7.441664 -14.500244,-9.58712 -1.766742,-0.945885 -3.215542,-1.819126 -3.21955,-1.940536 -0.0078,-0.236209 17.475782,-24.308888 18.268209,-25.153008 0.461238,-0.49133 0.538094,-0.46451 3.335288,1.16349 32.93026,19.1658 56.15104,51.76221 63.42476,89.033181 4.00596,20.526656 3.10611,41.3908701 -2.65874,61.647918 -7.76747,27.293994 -24.82218,52.09089 -47.5841,69.185451 -20.935308,15.72275 -44.829149,24.58041 -71.354788,26.45184 -4.436216,0.31298 -12.40631,0.30335 -16.883753,-0.0204 z"
       id="path847"
       sodipodi:nodetypes="sssssssscssscssssssssssssssssss" />
    <path
       style="display:inline;fill:#fefefe;stroke-width:0.264583"
       d="m 36.292762,117.49944 c -3.181337,-0.4971 -5.404009,-2.16678 -5.849483,-4.39415 -0.19,-0.94999 -0.485026,-0.87396 5.55085,-1.43047 l 3.147994,-0.29024 0.589703,0.73956 c 0.515946,0.64705 0.767522,0.73864 2.011382,0.73226 2.231189,-0.0114 3.359875,-0.31882 3.83536,-1.0445 0.387667,-0.59166 0.388429,-0.70537 0.0086,-1.28507 -0.377682,-0.57642 -0.659262,-0.65204 -3.006992,-0.80757 -8.221806,-0.54466 -8.778733,-0.61175 -10.00455,-1.20516 -1.633112,-0.79058 -2.513169,-2.15085 -2.695998,-4.16712 -0.410052,-4.522123 3.376612,-6.849975 11.980481,-7.365 5.101202,-0.305356 8.984142,0.740696 10.367095,2.79286 0.664345,0.98582 1.017307,2.05799 0.761659,2.31364 -0.136573,0.13658 -6.759067,0.83639 -8.170328,0.86338 -0.254662,0.005 -0.463021,-0.16668 -0.463021,-0.38122 0,-0.21455 -0.379169,-0.58616 -0.8426,-0.82581 -1.060593,-0.54845 -4.105045,-0.3933 -5.102135,0.26002 -0.718852,0.47101 -0.876245,1.25389 -0.339119,1.6868 0.181901,0.14661 2.77151,0.40761 5.754687,0.58002 2.983177,0.17241 5.900209,0.43395 6.482292,0.58121 2.913036,0.73697 4.365625,2.47716 4.365625,5.22997 0,2.11504 -0.440282,3.1051 -1.985864,4.46557 -2.055747,1.80954 -5.897994,2.79974 -11.904761,3.06799 -1.600729,0.0715 -3.621622,0.0188 -4.490874,-0.11697 z m -19.321627,-0.39299 c -1.455209,-0.18547 -2.735131,-0.34851 -2.844271,-0.36231 -0.109141,-0.0138 -0.198438,-0.55312 -0.198438,-1.19849 0,-2.32311 -0.0236,-2.34024 -4.1381414,-3.00395 -2.0168871,-0.32534 -3.7476246,-0.59009 -3.8460866,-0.58834 -0.098459,0.002 -0.553683,0.65804 -1.0116053,1.4584 -0.4579224,0.80037 -0.9131459,1.45759 -1.0116053,1.4605 -0.098462,0.003 -1.7593655,-0.38026 -3.69090059,-0.85148 -2.83287791,-0.69113 -3.48201201,-0.93462 -3.35739591,-1.25937 0.2909068,-0.75809 11.0202189,-18.002774 11.2009823,-18.002774 0.466045,0 8.8229468,1.821667 8.9528548,1.951575 0.113244,0.113244 3.525242,14.612209 4.693055,19.942699 l 0.188388,0.85989 -1.1455,-0.0346 c -0.630028,-0.019 -2.336128,-0.18632 -3.791336,-0.37179 z m -4.732653,-12.16136 c -0.293886,-1.81901 -0.599421,-3.30665 -0.678968,-3.30588 -0.148416,10e-4 -2.9926363,5.18914 -3.1331645,5.71471 -0.068625,0.25666 2.0918015,0.74655 3.7997955,0.86163 l 0.546676,0.0368 z m 51.571656,5.91136 c 0.0997,-1.65052 0.376865,-6.51328 0.615926,-10.80615 l 0.434655,-7.805206 4.101042,-1.644809 c 2.255573,-0.904642 4.228092,-1.648782 4.383373,-1.653645 0.44494,-0.01392 14.747759,15.62916 14.495545,15.85388 -0.124185,0.11064 -1.714074,0.87799 -3.533084,1.70521 -3.272206,1.48809 -3.311893,1.49838 -3.741076,0.97068 -0.238583,-0.29334 -0.74177,-0.89937 -1.118198,-1.34673 l -0.684414,-0.81338 -3.644302,1.30285 -3.644302,1.30284 -0.07817,1.74982 c -0.05912,1.32348 -0.188055,1.80851 -0.529167,1.99068 -0.248049,0.13247 -1.760685,0.61685 -3.361414,1.0764 -1.60073,0.45954 -3.128053,0.8992 -3.394052,0.97702 -0.45566,0.13329 -0.473151,-0.0321 -0.302363,-2.85946 z m 10.260968,-8.79729 1.53747,-0.56963 -2.045002,-2.5717 c -1.124751,-1.41443 -2.161505,-2.571694 -2.303899,-2.571694 -0.161155,0 -0.194294,0.76422 -0.08778,2.024295 0.09412,1.113362 0.171117,2.609669 0.171117,3.325119 0,1.47488 -0.199485,1.44829 2.728094,0.36361 z m -90.040597,6.65581 c -1.819011,-0.73862 -3.350858,-1.37695 -3.404106,-1.4185 -0.05325,-0.0416 1.456966,-4.04043 3.356034,-8.886386 1.899065,-4.845952 3.572198,-9.126156 3.718073,-9.511564 l 0.265226,-0.700741 3.456345,1.342101 c 1.9009889,0.738159 3.4593345,1.470211 3.4629884,1.626786 0.0099,0.423418 -7.2406534,18.941664 -7.4056954,18.914524 -0.07786,-0.0128 -1.629855,-0.6276 -3.448865,-1.36622 z M -40.360154,95.589732 c -1.700437,-1.257467 -3.16035,-2.357155 -3.244252,-2.44375 -0.164391,-0.169672 3.439747,-22.963707 3.666882,-23.190844 0.103163,-0.103163 4.046127,3.025953 6.583791,5.224863 0.115803,0.100345 -0.573461,3.31162 -1.5317,7.136167 -0.958238,3.824544 -1.689436,7.006534 -1.624883,7.071087 0.06455,0.06455 2.584683,-1.807532 5.600288,-4.160189 4.27913,-3.338412 5.583597,-4.228417 5.941481,-4.053726 0.978209,0.477491 6.6007,3.935166 6.602404,4.060296 0.0016,0.109453 -15.927393,10.791677 -18.204326,12.208179 -0.694248,0.431901 -0.71452,0.421992 -3.789685,-1.852083 z M 96.459844,91.782073 c -2.074871,-3.237838 -3.926327,-6.056119 -4.11435,-6.262843 -0.291656,-0.320667 -0.560798,-0.2305 -1.832684,0.613986 -0.819955,0.544418 -2.128947,1.398053 -2.908872,1.896965 l -1.418045,0.907113 -1.604113,-2.299067 -1.604111,-2.299068 0.863399,-0.526751 c 5.372111,-3.277463 12.78572,-8.385609 15.457684,-10.650697 0.750818,-0.636484 1.432358,-1.157242 1.514528,-1.157242 0.20219,0 3.33807,4.679741 3.33807,4.981469 0,0.131598 -1.2488,1.0589 -2.77511,2.06067 -1.593555,1.045904 -2.724656,1.959489 -2.6566,2.145724 0.06518,0.178376 1.85684,2.965016 3.98146,6.192533 3.14735,4.781145 3.79877,5.929156 3.51649,6.197214 -0.43502,0.413107 -5.71044,4.086974 -5.86862,4.086974 -0.0641,0 -1.814258,-2.649141 -3.889126,-5.88698 z"
       id="path851"
       sodipodi:nodetypes="ssscscsssssssscssssssssssscssscscsssssccccscsscssscsssssscccssssssscsssssscsscsssssssssssscsssssscccssssssssss" />
  </g>
</svg>
