<svg
  xmlns="http://www.w3.org/2000/svg"
  viewBox="0 0 1000 386.95">
<g>
  <path opacity="1" fill="#086bb3" fill-opacity="1"
    d="M0 346.17L327.58 207.54L47.34 167.8L143.29 367.31L297.14 0L0 346.17Z"/>
  <path opacity="1" fill="#8aacda" fill-opacity="1"
    d="M208.46 124.66L52 307.54L247 218.95L104.61 198.24L144.56 256.14L208.46 124.66Z"/>
  <path opacity="1" fill="#1d376e" fill-opacity="1"
    d="M104.68 183.66L153.29 290.22L250.92 73.06L143.75 239.09L104.68 183.66Z"/>
  <path opacity="1" fill="#fefefe" fill-opacity="1"
    d="M271.62 29.72C259.34 44.05 252.52 52.01 251.15 53.6C246.35 62.26 226.86 94.54 176.58 177.21C157.46 208.66 141.81 234.71 141.8 235.11C141.79 235.5 140.87 237 139.77 238.43C139.64 238.6 138.97 239.47 137.77 241.04C136.77 239.47 136.22 238.6 136.11 238.43C131.95 231.92 100.52 176.78 100.1 175.28C98.17 175 88.52 173.63 71.17 171.17C76.83 184.24 79.98 191.51 80.61 192.96C122.9 290.62 140.99 331.7 141.5 331.2C141.73 330.96 146.53 314.34 152.15 294.27C152.84 291.84 156.25 279.67 162.38 257.78L217.73 142.23L271.62 29.72Z"/>
  <path opacity="1" fill="#1d376e" fill-opacity="1"
    d="M745.01 383.82C745.37 382.17 750.66 361.59 756.77 338.08C757.51 335.23 761.2 320.98 767.86 295.34C757.23 295.16 751.32 295.06 750.14 295.04C734.21 294.77 732.48 294.56 733.1 292.97C733.47 291.99 734.8 287.13 736.04 282.17C736.19 281.57 736.95 278.57 738.3 273.16C772.35 273.16 791.27 273.16 795.05 273.16C848.59 273.16 851.77 273.26 851.25 275.05C850.95 276.09 849.62 280.96 848.3 285.87C848.14 286.47 847.34 289.44 845.9 294.8L828.39 294.8L810.87 294.8C804.87 318.01 801.53 330.9 800.87 333.48C795.37 354.76 790.01 375.33 788.96 379.2C788.83 379.67 788.19 382.01 787.05 386.23L765.7 386.53L744.35 386.82C744.7 385.22 744.92 384.22 745.01 383.82ZM864.76 328.88C860.69 299.13 857.57 274.41 857.82 273.97C858.46 272.83 905.76 272.95 905.76 274.09C905.76 276.91 913.43 346.11 913.78 346.46C914.01 346.69 926.26 330.49 941.01 310.45C955.75 290.42 968.36 273.81 969.03 273.56C969.7 273.3 976.94 273.23 985.12 273.4C986.11 273.42 991.07 273.52 1000 273.7L958.56 330.19L917.12 386.67C903.65 386.7 896.16 386.72 894.67 386.72C874 386.77 872.21 386.62 872.18 384.88C872.16 383.84 868.82 358.64 864.76 328.88Z"/>
  <path opacity="1" fill="#3188c7" fill-opacity="1"
    d="M224.94 329.52C212.55 300.11 202.42 275.4 202.42 274.61C202.42 273.44 207.04 273.16 226.11 273.16C247.67 273.16 249.86 273.33 250.51 275.05C258.69 296.66 280.84 352.92 281.43 353.59C281.87 354.08 286.11 344.59 290.85 332.49C295.6 320.39 302.77 302.09 306.78 291.82C307.27 290.58 309.71 284.36 314.09 273.16C322.79 273.16 327.62 273.16 328.59 273.16C340.17 273.16 343.09 273.46 343.09 274.64C343.09 275.46 331.95 300.91 318.34 331.18C316.69 334.85 308.44 353.2 293.59 386.23C280.18 386.41 272.73 386.51 271.24 386.52C250.7 386.79 248.84 386.66 248.18 384.9C247.78 383.85 237.32 358.93 224.94 329.52ZM350.66 329.96L350.66 273.16L372.3 273.16L393.94 273.16L393.94 329.96L393.94 386.77L372.3 386.77L350.66 386.77L350.66 329.96ZM425.61 331.83C412.98 301.64 402.33 276.08 401.95 275.03C401.31 273.23 402.71 273.13 425.47 273.41C427.08 273.43 435.14 273.52 449.66 273.7C459.08 297.88 464.31 311.32 465.36 314C473.99 336.17 481.29 354.3 481.59 354.29C481.89 354.29 489.21 336.15 497.85 313.99C498.9 311.3 504.14 297.87 513.58 273.7C522.56 273.52 527.56 273.42 528.56 273.4C542.47 273.12 543.5 273.23 543.02 275.02C542.73 276.08 531.38 301.66 517.79 331.86C516.14 335.52 507.91 353.82 493.09 386.77L470.84 386.74L448.59 386.71C436.33 357.44 428.68 339.15 425.61 331.83ZM549.76 329.96L549.76 273.16L570.86 273.16L591.96 273.16L591.96 329.96L591.96 386.77L570.86 386.77L549.76 386.77L549.76 329.96ZM607.11 273.16C625.45 273.16 635.64 273.16 637.68 273.17C680.06 273.18 691.72 274.74 707.74 282.56C717.72 287.43 726.67 296.07 731.08 305.08C734.11 311.29 734.25 312.21 734.25 326.26C734.25 327.24 734.25 332.13 734.25 340.95C731.5 346.49 729.98 349.57 729.67 350.18C723.67 362.3 713.88 371.8 701 378.03C685.55 385.5 682.38 385.96 642.55 386.48C640.18 386.51 628.37 386.67 607.11 386.95L607.11 330.05L607.11 273.16ZM689.83 327.26C689.86 316.48 689.52 314.06 687.32 309.17C682.01 297.37 670.71 290.47 656.69 290.47C656.27 290.47 654.17 290.47 650.39 290.47L650.39 330.1L650.39 369.74C655.5 369.44 658.33 369.28 658.9 369.25C665.81 368.85 668.5 368.14 673.21 365.48C684.77 358.94 689.77 347.45 689.83 327.26Z"/>
</g>
</svg>
