<svg
  xmlns="http://www.w3.org/2000/svg"
  viewBox="0 0 245.45396 52.916669">
  <path d="M 27.333223,52.534522 C 27.078853,51.883486 14.024292,19.942989 10.030774,10.200744 L 6.4373498,1.4345269 3.2186786,1.3436871 C 0.26243444,1.2601941 0,1.2017714 0,0.62645506 0,0.01421027 0.28818561,5.536276e-5 12.750859,5.536276e-5 c 12.538348,0 12.750859,0.01084810724 12.750859,0.63754706724 0,0.60212237 -0.212473,0.63754707 -3.825252,0.63754707 -2.168747,0 -3.82526,0.1294666 -3.82526,0.2989739 0,0.7970988 14.770477,37.3361616 14.999155,37.1047676 0.321852,-0.325667 15.28414,-36.6249663 15.28414,-37.0801537 0,-0.1962235 -1.191916,-0.3235878 -3.028328,-0.3235878 -2.815818,0 -3.028336,-0.044664 -3.028336,-0.63754707 0,-0.61944943 0.212548,-0.63754706724 7.491128,-0.63754706724 7.235658,0 7.491135,0.02132214724 7.491135,0.62676628724 0,0.57857075 -0.262824,0.63371655 -3.418082,0.71723205 C 49.728462,1.4476643 50.320985,0.95331231 48.334682,5.7719552 33.662974,41.364606 28.777996,52.762407 28.156086,52.853299 c -0.3633,0.05312 -0.733632,-0.09038 -0.822863,-0.318785 z m 31.639503,-0.255941 c 0,-0.597095 0.212548,-0.637569 3.347113,-0.637569 h 3.34709 V 26.458093 1.2751428 h -3.34709 c -3.134595,0 -3.347113,-0.040475 -3.347113,-0.6375471 0,-0.62677378 0.212548,-0.637547070549 12.591477,-0.637547070549 12.306735,0 12.591471,0.01421476055 12.591471,0.626766290549 0,0.57868298 -0.262823,0.63370158 -3.426798,0.71723208 l -3.42679,0.090481 v 25.023565 25.023564 l 3.42679,0.09045 c 3.163952,0.08349 3.426798,0.138557 3.426798,0.717247 0,0.612582 -0.284744,0.626797 -12.591471,0.626797 -12.378959,0 -12.591477,-0.01047 -12.591477,-0.63757 z m 27.095574,0 c 0,-0.59096 0.215466,-0.638168 2.948643,-0.646323 l 2.948636,-0.0082 5.419109,-6.415931 c 2.980522,-3.528755 6.977542,-8.260333 8.882272,-10.514592 l 3.46316,-4.098879 -3.85943,-6.132436 C 103.748,21.089335 99.604884,14.528399 96.663745,9.8823035 L 91.316226,1.4348524 88.692256,1.3423217 C 86.330368,1.2589484 86.0683,1.1873434 86.0683,0.6250897 c 0,-0.60994799 0.300231,-0.62465652381 12.750867,-0.62465652381 12.538343,0 12.750863,0.0108481038 12.750863,0.63754706381 0,0.59548636 -0.21255,0.63753206 -3.22182,0.63753206 -2.5091,0 -3.18672,0.091446 -3.06314,0.4135374 0.13482,0.3513815 11.92697,19.3387353 12.17367,19.6017003 0.12935,0.137883 16.42528,-19.4687623 16.42528,-19.7622171 0,-0.13917 -1.29102,-0.2530228 -2.86894,-0.2530228 -2.65642,0 -2.86894,-0.047208 -2.86894,-0.6375321 0,-0.61822247 0.21255,-0.63754706825 7.01298,-0.63754706825 6.80045,0 7.01297,0.0193021483 7.01297,0.63754706825 0,0.5900772 -0.21255,0.6375321 -2.85473,0.6375321 h -2.85473 L 127.60251,11.83708 c -4.87307,5.808863 -8.85226,10.793651 -8.84267,11.07731 0.01,0.283622 2.38125,4.245366 5.27033,8.803809 2.88908,4.558427 6.89774,10.90273 8.90815,14.098441 l 3.65526,5.810389 2.78926,0.0072 c 2.57434,0.006 2.78925,0.05611 2.78925,0.644752 0,0.62717 -0.21255,0.63757 -13.06964,0.63757 -12.78457,0 -13.06962,-0.01347 -13.06962,-0.627096 0,-0.579887 0.26237,-0.633903 3.48349,-0.717247 l 3.4835,-0.09015 -6.11336,-9.63734 c -3.36235,-5.300528 -6.20351,-9.60395 -6.31367,-9.563146 -0.26492,0.09808 -16.21643,18.956089 -16.21643,19.171151 0,0.09157 1.468647,0.207311 3.263679,0.257287 2.812241,0.07833 3.278441,0.168034 3.370461,0.648717 0.0993,0.51854 -0.42285,0.557817 -7.407692,0.557817 -7.301989,0 -7.514508,-0.01795 -7.514508,-0.637569 z m 58.07652,0.0796 c 0.0925,-0.483152 0.56574,-0.570012 3.53179,-0.648343 l 3.42495,-0.09045 -0.0815,-25.092452 -0.0816,-25.092459 -3.42679,-0.090481 C 144.34773,1.260503 144.08487,1.2054395 144.08487,0.62676399 144.08487,0.00913486 144.43545,0 168.15213,0 h 24.06725 v 6.5348167 c 0,6.2131303 -0.0299,6.5348253 -0.60712,6.5348253 -0.40736,0 -0.94558,-0.603155 -1.63565,-1.832948 -1.35329,-2.4116546 -5.38532,-6.3514706 -7.79854,-7.6201831 -3.58906,-1.8868788 -4.7616,-2.0988284 -12.51179,-2.2616218 L 162.57363,1.2059109 V 12.600645 23.995386 l 3.74876,-0.154418 c 4.37988,-0.180377 6.01848,-0.745452 7.69332,-2.653005 1.29544,-1.475455 2.036,-3.076404 2.75995,-5.966647 0.42621,-1.701485 0.66427,-2.151696 1.13775,-2.151696 0.57495,0 0.59881,0.463551 0.59881,11.635157 0,10.977021 -0.0322,11.635157 -0.57181,11.635157 -0.43452,0 -0.77751,-0.631509 -1.42834,-2.630052 -1.54212,-4.735282 -3.71075,-7.35712 -6.76603,-8.179983 -0.70131,-0.188906 -2.60197,-0.344221 -4.22373,-0.345194 l -2.94862,-0.0012 v 13.229022 13.229006 h 6.51912 c 7.12944,0 8.92198,-0.244868 11.83229,-1.616136 4.2332,-1.994608 7.81104,-6.486384 9.37527,-11.770101 0.40378,-1.363996 0.67573,-1.778124 1.21938,-1.857263 l 0.69966,-0.101823 v 8.310227 8.310235 h -24.09063 c -22.77163,0 -24.08476,-0.03067 -23.98378,-0.557817 z m 50.3058,-0.0796 c 0,-0.595075 0.21255,-0.637569 3.18965,-0.637569 h 3.18964 l -0.0815,-25.103249 -0.0817,-25.103266 -3.10801,-0.091206 c -2.84544,-0.083493 -3.10803,-0.1441302 -3.10803,-0.71723205 0,-0.60748659 0.26828,-0.62600318724 9.07062,-0.62600318724 h 9.07062 L 224.79925,17.511539 c 6.71406,9.631324 12.31623,17.520922 12.44928,17.532443 0.13302,0.01197 0.20476,-7.545892 0.15935,-16.794248 l -0.0825,-16.8152131 -3.74557,-0.089755 c -3.4825,-0.083493 -3.74556,-0.1338656 -3.74556,-0.71723201 0,-0.60697785 0.25452,-0.62742466077 7.8099,-0.62742466077 7.59739,0 7.8099,0.0173569708 7.8099,0.63754707077 0,0.5950449 -0.21255,0.6375471 -3.18771,0.6375471 h -3.18771 V 27.0957 52.916196 l -1.67356,-0.01571 -1.67355,-0.01571 -5.25972,-7.536704 c -2.89285,-4.145182 -9.04452,-12.92416 -13.67037,-19.508827 -4.62586,-6.584674 -9.69028,-13.80109 -11.25428,-16.0364739 -1.56401,-2.2353836 -2.90745,-4.0643447 -2.98544,-4.0643447 -0.0779,0 -0.14177,10.3281996 -0.14177,22.9515526 v 22.951552 h 3.66587 c 3.45337,0 3.66588,0.03666 3.66588,0.637569 0,0.619839 -0.21255,0.63757 -7.65051,0.63757 -7.43801,0 -7.65052,-0.01796 -7.65052,-0.63757 z"/>
</svg>
