<svg
	xmlns="http://www.w3.org/2000/svg"
	viewBox="0 0 512 180.1">
<g>
	<g fill="#00B8B6">
		<path d="M251.4,110.5v-7.2h-14.7l14.4-18.2v-5.9h-25.4v7.2H240l-14.1,18v6.2L251.4,110.5z"/>
		<path d="M272.1,111.3c4.9,0,9.8-1.5,12.9-4.3l-3.7-5.5c-2,1.9-5.6,3-8.3,3c-5.3,0-8.4-3.2-9-7h23.3v-1.9 c0-10.2-6.3-17.2-15.7-17.2c-9.5,0-16.2,7.3-16.2,16.4C255.3,104.9,262.5,111.3,272.1,111.3L272.1,111.3z M279.3,91.8h-15.4 c0.3-3.1,2.5-6.7,7.7-6.7C277,85.2,279.1,88.8,279.3,91.8L279.3,91.8z"/>
		<path d="M323.1,110.5V88.4c0-6.1-3.3-10-10.3-10c-5.1,0-9,2.5-11,4.8v-4h-8.2v31.3h8.2V89.4c1.4-1.8,3.9-3.6,7.1-3.6 c3.5,0,5.8,1.5,5.8,5.8v18.9L323.1,110.5z"/>
		<path d="M345,111.3c4.9,0,9.8-1.5,12.9-4.3l-3.7-5.5c-2,1.9-5.6,3-8.3,3c-5.3,0-8.4-3.2-9-7h23.3v-1.9 c0-10.2-6.3-17.2-15.7-17.2c-9.5,0-16.2,7.3-16.2,16.4C328.3,104.9,335.5,111.3,345,111.3L345,111.3z M352.3,91.8h-15.4 c0.3-3.1,2.5-6.7,7.7-6.7C349.9,85.2,352,88.8,352.3,91.8L352.3,91.8z"/>
		<path d="M374.7,100.5V89.4c1.4-2.1,4.4-3.6,7.1-3.6c4.7,0,7.9,3.7,7.9,9.1c0,5.5-3.2,9.1-7.9,9.1 C379.1,104,376.1,102.5,374.7,100.5z M374.7,110.5v-4c2.5,3.1,5.9,4.8,9.7,4.8c7.9,0,13.9-6,13.9-16.5c0-10.2-5.9-16.4-13.9-16.4 c-3.7,0-7.2,1.6-9.7,4.8v-16h-8.2v43.3L374.7,110.5z"/>
		<path d="M432.8,110.5V79.2h-8.2v21.2c-1.4,1.8-4,3.6-7.1,3.6c-3.5,0-5.8-1.4-5.8-5.8v-19h-8.2v22.3 c0,6.1,3.2,9.9,10.1,9.9c5.1,0,8.9-2.4,11-4.7v4L432.8,110.5z"/>
		<path d="M452,111.3c3.4,0,5.6-0.9,6.9-2l-1.8-6.3c-0.5,0.5-1.6,1-2.9,1c-1.8,0-2.9-1.5-2.9-3.5V86.4h6.4v-7.2h-6.4 v-8.6h-8.2v8.6H438v7.2h5.2v16.3C443.2,108.3,446.2,111.3,452,111.3L452,111.3z"/>
		<path d="M469,75.8c2.7,0,4.9-2.2,4.9-4.9c0-2.7-2.2-4.9-4.9-4.9c-2.7,0-4.9,2.1-4.9,4.9S466.3,75.8,469,75.8z M473.1,110.5V79.2h-8.2v31.3H473.1z"/>
		<path d="M512,110.5l-12.8-17.1l12.4-14.2h-10.1l-11.9,13.9V67.2h-8.2v43.3h8.2v-8l3.8-4l8.3,12.1L512,110.5z"/>
	</g>
	<g>
		<path fill="#99E3E2" d="M90.1,0C40.3,0,0,40.3,0,90.1c0,49.7,40.3,90.1,90.1,90.1s90.1-40.3,90.1-90.1c0-16.3-4.5-32.2-12.9-46.2 L151.1,60c4.4,9.1,6.7,19.2,6.7,29.3c0,37.4-30.3,67.7-67.7,67.7l0,0c-37.4,0-67.7-30.3-67.7-67.7c0-37.4,30.3-67.7,67.7-67.7 c0,0,0,0,0,0c21.4,0,41.5,10.2,54.3,27.4L160,33.4C142.9,12.3,117.2,0,90.1,0L90.1,0z"/>
		<path fill="#4DCDCC" d="M90.2,21.6c-37.4,0-67.7,30.3-67.7,67.7c0,0,0,0,0,0c0,37.4,30.3,67.7,67.7,67.7s67.7-30.3,67.7-67.7l0,0 c0-10.2-2.3-20.2-6.7-29.3l-17.6,17.6c1,3.8,1.6,7.7,1.6,11.7c0,24.8-20.1,44.9-44.9,44.9l0,0c-24.8,0-44.9-20.1-44.9-44.9l0,0 c0-24.8,20.1-44.9,44.9-44.9l0,0c15.4,0,29.7,7.9,37.9,20.9L144.5,49C131.7,31.8,111.6,21.7,90.2,21.6L90.2,21.6z"/>
		<path fill="#00B8B6" d="M90.2,44.4c-24.8,0-44.9,20.1-44.9,44.9c0,24.8,20.1,44.9,44.9,44.9l0,0c24.8,0,44.9-20.1,44.9-44.9l0,0 c0-3.9-0.5-7.9-1.6-11.7l-29,29c-4,3.5-9.2,5.4-14.5,5.5c-12.2,0-22.1-9.9-22.1-22.1C68,77.9,77.9,68,90.1,68 c10.6,0.1,15.2,6,22.3,13.3l15.8-15.9C119.9,52.4,105.6,44.5,90.2,44.4L90.2,44.4z"/>
	</g>
</g>
</svg>
