<svg
  xmlns="http://www.w3.org/2000/svg"
  viewBox="0 0 272.7 89.8">
<g fill="#EB1C24">
  <path d="M37.6,14.7C16.8,14.7,0,31.5,0,52.3c0,20.8,16.8,37.6,37.6,37.6c20.7,0,37.5-16.8,37.5-37.6 C75.1,31.5,58.3,14.7,37.6,14.7 M38.2,72.9c-10.7,0-19.4-9.2-19.4-20.6c0-11.4,8.7-20.6,19.4-20.6c10.7,0,19.4,9.2,19.4,20.6 C57.5,63.7,48.9,72.9,38.2,72.9"/>
	<path d="M235.1,14.7c-20.7,0-37.6,16.8-37.6,37.6c0,20.8,16.8,37.6,37.6,37.6c20.8,0,37.6-16.8,37.6-37.6 C272.7,31.5,255.9,14.7,235.1,14.7 M235.7,72.9c-10.7,0-19.4-9.2-19.4-20.6c0-11.4,8.7-20.6,19.4-20.6c10.7,0,19.4,9.2,19.4,20.6 C255.1,63.7,246.4,72.9,235.7,72.9"/>
	<polygon points="45.8,13.3 29.9,13.3 37.7,0 53.6,0 	"/>
	<path d="M131.6,67.2c-3.5,3.5-8.1,5.7-13.3,5.7c-10.7,0-19.4-9.2-19.4-20.6c0-11.4,8.7-20.6,19.4-20.6 c5,0,9.6,2,13,5.3l10.9-13.2c-6.6-5.7-15.1-9.1-24.5-9.1c-20.7,0-37.6,16.8-37.6,37.6c0,20.8,16.8,37.6,37.6,37.6 c9.8,0,18.7-3.7,25.4-9.9L131.6,67.2z"/>
	<polygon points="112.3,13.3 122.7,13.3 128.2,13.3 135.9,0 120.1,0 116.8,5.5 112.7,0 99,0 106.8,13.3"/>
	<polygon points="203.2,16.6 183.6,16.6 164.3,43 164.3,16.6 146.8,16.6 146.8,87.5 164.3,87.5 164.3,58.3 183.2,87.5 202.7,87.5 178.6,50.4"/>
</g>
</svg>
