<svg
  xmlns="http://www.w3.org/2000/svg"
  viewBox="0 0 512 89.8">
<g fill="#F3A421">
	<path d="M37.6,14.7C16.8,14.7,0,31.5,0,52.3c0,20.8,16.8,37.6,37.6,37.6c20.7,0,37.5-16.8,37.5-37.6 C75.1,31.5,58.3,14.7,37.6,14.7 M38.2,72.9c-10.7,0-19.4-9.2-19.4-20.6c0-11.4,8.7-20.6,19.4-20.6c10.7,0,19.4,9.2,19.4,20.6 C57.5,63.7,48.9,72.9,38.2,72.9"/>
	<path d="M235.1,14.7c-20.7,0-37.6,16.8-37.6,37.6c0,20.8,16.8,37.6,37.6,37.6c20.8,0,37.6-16.8,37.6-37.6 C272.7,31.5,255.9,14.7,235.1,14.7 M235.7,72.9c-10.7,0-19.4-9.2-19.4-20.6c0-11.4,8.7-20.6,19.4-20.6c10.7,0,19.4,9.2,19.4,20.6 C255.1,63.7,246.4,72.9,235.7,72.9"/>
	<polygon points="45.8,13.3 29.9,13.3 37.7,0 53.6,0 	"/>
	<path d="M131.6,67.2c-3.5,3.5-8.1,5.7-13.3,5.7c-10.7,0-19.4-9.2-19.4-20.6c0-11.4,8.7-20.6,19.4-20.6 c5,0,9.6,2,13,5.3l10.9-13.2c-6.6-5.7-15.1-9.1-24.5-9.1c-20.7,0-37.6,16.8-37.6,37.6c0,20.8,16.8,37.6,37.6,37.6 c9.8,0,18.7-3.7,25.4-9.9L131.6,67.2z"/>
	<polygon points="112.3,13.3 122.7,13.3 128.2,13.3 135.9,0 120.1,0 116.8,5.5 112.7,0 99,0 106.8,13.3"/>
	<polygon points="203.2,16.6 183.6,16.6 164.3,43 164.3,16.6 146.8,16.6 146.8,87.5 164.3,87.5 164.3,58.3 183.2,87.5 202.7,87.5 178.6,50.4"/>
	<path d="M512,87.4l-15.9-32c9-5.6,8.5-17.2,8.5-17.2v-0.7c0,0,1-21.1-20.4-21.1h-9h-10.4h-6.5v71h16.9v-29h3.7l14.4,29 H512z M475.2,32.3h6.2c0,0,5.7-0.1,5.7,5.2v0.7c0,4.2-3.5,5-5,5.2h-6.9V32.3z"/>
	<path d="M340.7,37.1c0-12.1-9.8-21.9-21.9-21.9c-12.1,0-21.9,9.8-21.9,21.9c0,8.1,4.6,15.6,10.8,18.9 c6.3,3.3,9.4,3.9,12.6,5.3c3.1,1.4,5.7,3.2,5.7,6.5c0,3.3-2.7,6-5.9,6c-3.3,0-5.9-2.7-5.9-6v-2h-17.2v0.9 c0,12.8,10.3,23.1,23.1,23.1c12.8,0,23.1-10.4,23.1-23.1c0-8.5-5.4-16.4-11.4-19.3c-6-2.9-9.6-3.7-12-4.8c-2.4-1.1-5.7-3.1-5.7-6.4 s2.6-5.9,5.9-5.9c3.3,0,5.9,2.6,5.9,5.9v1.5h14.8V37.1z"/>
	<polygon points="388.2,16.6 347.9,16.6 347.9,32.6 359.6,32.6 359.6,87.3 376.5,87.3 376.5,32.6 388.2,32.6 	"/>
	<path d="M436.2,87.3h16.9l-24.5-70.8h-1.3h-15.6h-1.3l-24.5,70.8h16.8l5.7-16.4h22.1L436.2,87.3z M413.2,57.2l6.3-18.2 l6.3,18.2H413.2z"/>
</g>
</svg>
