<svg
  viewBox="0 0 270.35126 85.239998"
  xmlns="http://www.w3.org/2000/svg">
<defs>
  <linearGradient
    x1="0" y1="0" x2="1" y2="0"
    gradientUnits="userSpaceOnUse"
    gradientTransform="matrix(0,-56,-56,0,231.8894,256.12634)"
    spreadMethod="pad"
    id="linearGradient64-5">
    <stop style="stop-opacity:1;stop-color:#00c3ff" offset="0"/>
    <stop style="stop-opacity:1;stop-color:#0028e0" offset="1"/>
  </linearGradient>
</defs>
<g transform="matrix(1.25,0,0,-1.25,-35.3325,326.085)" fill="url(#linearGradient64-5)">
    <path
       d="m 147.524,250.748 4.134,-10.631 c 4.81,2.7 9.957,4.641 14.85,4.641 v 0 c 4.64,0 8.521,-1.772 8.521,-5.485 v 0 c 0,-11.896 -27.082,-11.643 -27.082,-34.255 v 0 c 0,-1.518 0.083,-3.122 0.337,-4.808 v 0 h 42.776 v 11.389 h -26.409 c 2.11,7.172 26.578,11.137 26.578,29.024 v 0 c 0,11.813 -10.462,16.706 -22.274,16.706 v 0 c -8.015,0 -15.356,-2.615 -21.431,-6.581 m 72.559,5.315 -25.48,-32.821 v -11.389 h 27.674 V 200.21 h 15.609 v 11.643 h 6.581 v 11.389 h -6.581 v 32.821 z m -10.04,-32.483 11.897,17.381 h 0.337 v -17.719 h -12.234 z"/>
    <path
       d="m 83.687,252.059 c 2.792,-0.1 5.911,-0.288 8.835,-0.599 v 0 c 10.296,-1.101 12.216,-3.332 13.461,-13.222 v 0 c 0.519,-4.122 0.675,-8.492 0.675,-11.472 v 0 c 0,-2.968 -0.156,-7.348 -0.675,-11.456 v 0 c -1.245,-9.887 -3.165,-12.119 -13.461,-13.22 v 0 c -2.924,-0.314 -6.043,-0.501 -8.835,-0.601 v 0 -8.733 c 5.892,0.094 13.156,0.358 19.864,0.892 v 0 c 18.467,1.476 21.912,4.478 24.152,17.736 v 0 c 0.932,5.523 1.207,11.399 1.207,15.389 v 0 c 0,3.991 -0.275,9.866 -1.207,15.389 v 0 c -2.24,13.26 -5.685,16.257 -24.152,17.737 v 0 c -6.708,0.532 -13.972,0.794 -19.864,0.889 v 0 z"/>
    <path
       d="M 53.705,259.899 C 35.24,258.419 31.794,255.422 29.553,242.162 v 0 c -0.932,-5.523 -1.207,-11.398 -1.207,-15.389 v 0 c 0,-3.99 0.275,-9.866 1.207,-15.389 v 0 c 2.241,-13.258 5.687,-16.26 24.152,-17.736 v 0 c 6.71,-0.534 13.975,-0.798 19.867,-0.892 v 0 8.733 c -2.794,0.1 -5.912,0.287 -8.839,0.601 v 0 c -10.293,1.101 -12.215,3.333 -13.461,13.22 v 0 c -0.52,4.108 -0.674,8.488 -0.674,11.456 v 0 c 0,2.98 0.154,7.35 0.674,11.472 v 0 c 1.246,9.89 3.168,12.121 13.461,13.222 v 0 c 2.927,0.311 6.045,0.499 8.839,0.599 v 0 8.729 c -5.892,-0.095 -13.157,-0.357 -19.867,-0.889"/>
  </g>
</svg>
