<svg
  xmlns="http://www.w3.org/2000/svg"
  viewBox="0 0 108.02 45.12">
<g fill="#ff9f00">
  <path d="M108.02 13.37C108.02 5.54 101.08 2.29 93.25 2.29C87.93 2.29 83.07 4.03 79.04 6.66C79.31 7.36 81.51 13 81.78 13.71C84.97 11.92 88.38 10.63 91.63 10.63C94.71 10.63 97.28 11.81 97.28 14.27C97.28 22.16 79.32 21.99 79.32 36.99C79.32 37.99 79.37 39.06 79.54 40.17C81.43 40.17 90.89 40.17 107.91 40.17L107.91 32.62L90.4 32.62C102.15 27.7 108.02 21.28 108.02 13.37Z"/>
  <path d="M16.82 0.59C21.27 0.24 26.09 0.06 29.99 0C29.99 0.58 29.99 5.21 29.99 5.79C28.14 5.86 26.07 5.98 24.13 6.19C17.3 6.92 16.03 8.4 15.2 14.95C14.86 17.69 14.76 20.59 14.76 22.56C14.76 24.53 14.86 27.43 15.2 30.16C16.03 36.72 17.3 38.2 24.13 38.93C26.07 39.14 28.14 39.26 29.99 39.33C29.99 39.91 29.99 44.54 29.99 45.12C26.09 45.06 21.27 44.88 16.82 44.53C4.57 43.55 2.29 41.56 0.8 32.76C0.18 29.1 0 25.2 0 22.56C0 19.91 0.18 16.02 0.8 12.35C2.29 3.56 4.57 1.57 16.82 0.59"/>
  <path d="M66.69 22.56C66.69 25.2 66.51 29.1 65.89 32.76C64.41 41.56 62.12 43.55 49.88 44.53C45.43 44.88 40.61 45.06 36.7 45.12C36.7 44.54 36.7 39.91 36.7 39.33C38.55 39.26 40.62 39.14 42.56 38.93C49.39 38.2 50.66 36.72 51.49 30.16C51.83 27.43 51.94 24.53 51.94 22.56C51.94 20.59 51.83 17.69 51.49 14.95C50.66 8.4 49.39 6.92 42.56 6.19C40.62 5.98 38.55 5.86 36.7 5.79C36.7 5.21 36.7 0.58 36.7 0C40.61 0.06 45.43 0.24 49.88 0.59C62.12 1.57 64.41 3.56 65.89 12.35C66.51 16.02 66.69 19.91 66.69 22.56"/>
</g>
</svg>
