<svg
  xmlns="http://www.w3.org/2000/svg"
  viewBox="0 0 103.78 45">
<g fill="#3cccbf">
  <path d="M87.44 17.93C90.58 17.93 93.27 16.45 93.27 13.7C93.27 10.9 90.58 9.7 86.81 9.7C83.43 9.7 79.95 10.39 77.03 11.53C76.95 10.88 76.26 5.62 76.18 4.96C79.15 3.07 83.83 1.93 88.52 1.93C96.01 1.93 102.81 5.42 102.81 12.5C102.81 15.88 101.27 19.02 97.5 20.79C97.5 20.82 97.5 21 97.5 21.02C101.95 22.68 103.78 26.34 103.78 30.05C103.78 37.6 96.52 41.48 88.41 41.48C83.84 41.48 78.75 40.06 75.66 38.51C75.75 37.85 76.43 32.54 76.52 31.88C78.92 32.68 82.63 33.71 86.92 33.71C90.81 33.71 94.18 32.22 94.18 28.85C94.18 26.22 91.44 24.51 87.55 24.51C87.35 24.51 86.38 24.51 84.63 24.51L84.63 17.93C86.31 17.93 87.25 17.93 87.44 17.93ZM66.52 22.5C66.52 19.86 66.34 15.97 65.72 12.32C64.24 3.55 61.96 1.57 49.74 0.59C45.31 0.24 40.5 0.06 36.6 0C36.6 0.58 36.6 5.2 36.6 5.78C38.45 5.84 40.51 5.96 42.45 6.17C49.26 6.9 50.53 8.38 51.35 14.92C51.69 17.64 51.8 20.54 51.8 22.51C51.8 24.47 51.69 27.37 51.35 30.08C50.53 36.62 49.26 38.1 42.45 38.83C40.51 39.04 38.45 39.16 36.6 39.23C36.6 39.8 36.6 44.43 36.6 45C40.5 44.94 45.31 44.77 49.74 44.41C61.96 43.44 64.24 41.45 65.72 32.68C66.34 29.03 66.52 25.14 66.52 22.5M16.77 0.59C4.56 1.57 2.28 3.55 0.8 12.32C0.18 15.97 0 19.86 0 22.5C0 25.14 0.18 29.03 0.8 32.68C2.28 41.45 4.56 43.43 16.77 44.41C21.21 44.76 26.02 44.94 29.91 45C29.91 44.42 29.91 39.8 29.91 39.22C28.07 39.16 26 39.03 24.07 38.83C17.26 38.1 15.99 36.62 15.16 30.08C14.82 27.37 14.72 24.47 14.72 22.51C14.72 20.53 14.82 17.64 15.16 14.92C15.99 8.37 17.26 6.9 24.07 6.17C26 5.96 28.07 5.84 29.91 5.77C29.91 5.2 29.91 0.58 29.91 0C26.02 0.06 21.21 0.24 16.77 0.59M87.44 17.93C90.58 17.93 93.27 16.45 93.27 13.7C93.27 10.9 90.58 9.7 86.81 9.7C83.43 9.7 79.95 10.39 77.03 11.53C76.95 10.88 76.26 5.62 76.18 4.96C79.15 3.07 83.83 1.93 88.52 1.93C96.01 1.93 102.81 5.42 102.81 12.5C102.81 15.88 101.27 19.02 97.5 20.79C97.5 20.82 97.5 21 97.5 21.02C101.95 22.68 103.78 26.34 103.78 30.05C103.78 37.6 96.52 41.48 88.41 41.48C83.84 41.48 78.75 40.06 75.66 38.51C75.75 37.85 76.43 32.54 76.52 31.88C78.92 32.68 82.63 33.71 86.92 33.71C90.81 33.71 94.18 32.22 94.18 28.85C94.18 26.22 91.44 24.51 87.55 24.51C87.35 24.51 86.38 24.51 84.63 24.51L84.63 17.93C86.31 17.93 87.25 17.93 87.44 17.93Z"/>
</g>
</svg>
