<svg
  xmlns="http://www.w3.org/2000/svg"
  viewBox="0 0 999 307.19">
<g fill="#979797">
  <path d="M114.51 4.01C144.8 1.61 177.6 0.42 204.21 0C204.21 3.94 204.21 35.47 204.21 39.41C191.6 39.87 177.52 40.71 164.3 42.12C117.82 47.09 109.14 57.16 103.52 101.82C101.17 120.43 100.48 140.16 100.48 153.62C100.48 167.02 101.17 186.79 103.52 205.35C109.14 249.99 117.82 260.07 164.3 265.04C177.52 266.46 191.6 267.3 204.21 267.75C204.21 271.7 204.21 303.24 204.21 307.19C177.6 306.76 144.8 305.57 114.51 303.16C31.12 296.49 15.57 282.94 5.45 223.07C1.24 198.14 0 171.6 0 153.59C0 135.57 1.24 109.04 5.45 84.1C15.57 24.23 31.12 10.69 114.51 4.01"/>
  <path d="M454.08 153.59C454.08 171.6 452.85 198.14 448.63 223.07C438.52 282.94 422.96 296.5 339.58 303.16C309.28 305.57 276.49 306.76 249.88 307.19C249.88 303.24 249.88 271.7 249.88 267.75C262.5 267.3 276.58 266.46 289.78 265.04C336.27 260.07 344.94 249.99 350.56 205.35C352.91 186.79 353.61 167.02 353.61 153.62C353.61 140.16 352.91 120.43 350.56 101.82C344.94 57.16 336.27 47.09 289.78 42.12C276.58 40.71 262.5 39.87 249.88 39.42C249.88 35.47 249.88 3.94 249.88 0C276.49 0.42 309.28 1.61 339.58 4.01C422.96 10.69 438.52 24.23 448.63 84.1C452.85 109.04 454.08 135.57 454.08 153.59"/>
  <path d="M550.36 113.54C550.78 117.33 554.12 147.68 554.54 151.47C554.54 151.47 582.42 139.62 616.67 139.62C642.44 139.62 649.12 151.72 649.12 160.21C649.12 161.06 649.12 167.81 649.12 168.65C649.12 168.65 636.91 165.16 614.37 165.16C580.55 165.16 538.43 177.79 538.43 227.18C538.43 253.49 559.93 278.46 595.85 278.46C622.5 278.46 639.56 267.23 649.08 258.67C649.31 259.67 650.43 264.7 652.46 273.74L701.7 273.74C701.7 202.29 701.7 162.59 701.7 154.65C701.7 113.21 665.59 96.66 624.46 96.66C590.13 96.66 573.16 103.95 550.36 113.54ZM649.12 203.4C649.12 205.53 649.12 222.52 649.12 224.65C642.07 231.66 630.84 239.88 616.44 239.88C603.35 239.88 593.31 233.41 593.31 221.81C593.31 208.81 604.98 199.8 623.04 199.8C636.54 199.8 643.9 202.68 649.12 203.4Z"/>
  <path d="M741.14 273.77L741.14 101.83L789.96 101.83C792.66 116.55 794.17 124.73 794.47 126.37C812.54 99.79 837.95 97.72 864.11 97.72C863.72 102.58 860.55 141.45 860.16 146.3C839.02 144.44 817.17 142.61 793.91 172.49C793.91 179.25 793.91 213 793.91 273.77L741.14 273.77Z"/>
  <path d="M999 270.9C999 270.9 978.08 278.47 957.14 278.47C917.1 278.47 903.77 253.57 903.77 222.8C903.77 217.31 903.77 189.88 903.77 140.5L877.91 140.5L877.91 105.11L903.55 102.04L909.69 60.18L956.7 60.18L956.7 101.93L995.77 101.93L995.77 140.5L956.7 140.5C956.7 185.8 956.7 210.97 956.7 216C956.7 228 960.16 235.51 977.41 235.51C984.05 235.51 994.73 233.21 994.73 233.21C994.73 233.21 998.57 267.14 999 270.9Z"/>
</g>
</svg>
