<svg
  xmlns="http://www.w3.org/2000/svg"
  viewBox="0 0 754 257.14">
<g>
  <g fill="#0178ff">
    <path d="M556.46 51.37L556.46 18.01C603.44 18.01 629.54 18.01 634.76 18.01C680.79 18.01 707.49 31.21 728.19 51.37C705.3 51.37 648.05 51.37 556.46 51.37Z"/>
    <path d="M96.19 51.37C103.15 41.45 115.05 37.64 137.43 35.24C148.48 34.06 160.26 33.36 170.81 32.98C170.81 29.68 170.81 3.3 170.81 0C148.55 0.35 121.12 1.35 95.78 3.36C35.89 8.16 17.84 17.19 8.57 51.37"/>
    <path d="M453.52 51.37C455.69 38.59 464.09 30.39 485.93 30.39C508.65 30.39 515.96 38.96 518.96 51.37C505.87 51.37 466.61 51.37 453.52 51.37Z"/>
    <path d="M283.29 51.37C276.32 41.45 264.42 37.64 242.05 35.24C230.99 34.06 219.22 33.36 208.67 32.98C208.67 29.68 208.67 3.3 208.67 0C230.92 0.35 258.35 1.35 283.69 3.36C343.59 8.16 361.63 17.19 370.9 51.37"/>
  </g>
  <g fill="#33cc00">
    <path d="M616.97 102.98L556.46 102.98L556.46 51.37C659.5 51.37 716.75 51.37 728.19 51.37C744.25 69.37 749.56 87.12 752.22 102.98C745.95 102.98 695.76 102.98 689.48 102.98C683.63 78.95 668.67 62.5 636.27 62.5C634.99 62.5 628.55 62.5 616.97 62.5L616.97 102.98Z"/>
    <path d="M84.91 102.98C85.3 97.13 85.85 91.07 86.59 85.17C88.59 69.33 91.05 58.68 96.19 51.37C87.42 51.37 17.34 51.37 8.57 51.37C7.06 56.98 5.77 63.28 4.57 70.35C2.73 81.26 1.57 92.55 0.88 102.98C17.68 102.98 68.1 102.98 84.91 102.98Z"/>
    <path d="M294.57 102.98C294.17 97.13 293.63 91.07 292.88 85.17C290.89 69.33 288.42 58.68 283.29 51.37C292.05 51.37 362.14 51.37 370.9 51.37C372.42 56.98 373.71 63.28 374.9 70.35C376.74 81.26 377.91 92.55 378.59 102.98C361.79 102.98 311.37 102.98 294.57 102.98Z"/>
    <path d="M453.52 51.37C460.07 51.37 512.42 51.37 518.96 51.37C518.96 51.37 519.83 54.91 519.83 60.67C519.83 79.21 513.15 90.09 486.32 90.09C458.6 90.09 452.74 77.79 452.74 61.37C452.74 56.26 453.37 53.37 453.52 51.37Z"/>
  </g>
  <g fill="#fea401">
    <path d="M556.46 154.15L556.46 102.98L616.97 102.98L616.97 154.15L587.15 174.62L556.46 154.15Z"/>
    <path d="M84.91 102.98C84.26 112.6 84.03 121.68 84.03 128.71C84.03 135.65 84.25 144.63 84.89 154.15C76.49 154.15 9.26 154.15 0.86 154.15C0.23 144.65 0 135.86 0 128.68C0 121.45 0.24 112.57 0.88 102.98"/>
    <path d="M294.57 102.98C295.21 112.6 295.44 121.68 295.44 128.71C295.44 135.65 295.22 144.63 294.58 154.15C302.98 154.15 370.21 154.15 378.62 154.15C379.24 144.65 379.48 135.86 379.48 128.68C379.48 121.45 379.23 112.57 378.6 102.98"/>
    <path d="M686.37 154.15C690.25 144.28 691.71 135.02 691.71 124.23C691.71 114.55 690.37 106.45 689.48 102.98C695.76 102.98 745.95 102.98 752.22 102.98C752.22 102.98 754 111.84 754 122.56C754 139.79 750.44 154.15 750.44 154.15C737.62 154.15 699.19 154.15 686.37 154.15Z"/>
  </g>
  <g fill="#ff6400">
    <path d="M84.89 154.15C85.28 160.01 85.83 166.06 86.58 171.97C88.57 187.81 91.04 198.45 96.17 205.77C87.41 205.77 17.32 205.77 8.56 205.77C7.03 200.15 5.75 193.86 4.56 186.79C2.72 175.88 1.55 164.59 0.86 154.15"/>
    <path d="M294.58 154.15C294.19 160.01 293.64 166.06 292.9 171.97C290.91 187.81 288.44 198.45 283.3 205.77C292.07 205.77 362.16 205.77 370.92 205.77C372.43 200.15 373.72 193.86 374.92 186.79C376.76 175.88 377.92 164.59 378.61 154.15"/>
    <path d="M457.24 205.77C454.28 200.91 452.74 196.17 452.74 186.67C452.74 168.04 460.98 156.78 485.53 156.78C511.32 156.78 520.06 167.21 520.06 186.51C520.06 196.32 518.09 201.34 515.25 205.77C503.65 205.77 468.84 205.77 457.24 205.77Z"/>
    <path d="M556.46 205.77L556.46 154.15L616.97 154.15L616.97 184.85C626.84 184.85 632.33 184.85 633.43 184.85C660.77 184.85 678.22 175.21 686.37 154.15C692.78 154.15 744.03 154.15 750.44 154.15C744.47 178.13 733.35 192.01 717.13 205.77C695.71 205.77 642.15 205.77 556.46 205.77Z"/>
  </g>
  <g fill="#ed1d24">
    <path d="M96.17 205.77C103.14 215.69 115.04 219.5 137.41 221.89C148.47 223.08 160.24 223.78 170.79 224.16C170.79 227.46 170.79 253.84 170.79 257.14C148.54 256.79 121.11 255.79 95.76 253.77C35.87 248.98 17.82 239.95 8.56 205.77"/>
    <path d="M283.3 205.77C276.34 215.69 264.44 219.5 242.06 221.89C231.01 223.08 219.23 223.78 208.68 224.16C208.68 227.46 208.68 253.84 208.68 257.14C230.94 256.79 258.37 255.79 283.71 253.77C343.6 248.98 361.65 239.95 370.92 205.77"/>
    <path d="M486.21 216.6C469.65 216.6 462.14 212.76 457.24 205.77C468.84 205.77 509.44 205.77 515.25 205.77C511.22 211.54 504.25 216.6 486.21 216.6Z"/>
    <path d="M556.46 205.77C652.86 205.77 706.41 205.77 717.13 205.77C697.88 220.02 671.55 228.9 639.65 228.9C628.56 228.9 600.83 228.9 556.46 228.9C556.46 224.27 556.46 208.09 556.46 205.77Z"/>
  </g>
</g>
</svg>
