<svg
  xmlns="http://www.w3.org/2000/svg"
  viewBox="0 0 977 459">
<g transform="matrix(1 0 0 1 488.59 229.4)" id="bmL_p-kd8VJ_Bx0YhD6-3"  >
<linearGradient id="SVGID_12" gradientUnits="userSpaceOnUse" gradientTransform="matrix(1 0 0 1 0 0)"  x1="0.09" y1="229.24" x2="977" y2="229.24">
<stop offset="0%" style="stop-color:rgb(0,78,145);stop-opacity: 1"/>
<stop offset="100%" style="stop-color:rgb(29,33,93);stop-opacity: 1"/>
</linearGradient>
<path style="stroke: none; stroke-width: 1; stroke-dasharray: none; stroke-linecap: butt; stroke-dashoffset: 0; stroke-linejoin: miter; stroke-miterlimit: 4; fill: url(#SVGID_12); fill-rule: nonzero; opacity: 1;" vector-effect="non-scaling-stroke"  transform=" translate(-488.54, -229.25)" d="M 957.02 0 C 970.34 0 977 6.67 977 20 C 977 271.09000000000003 977 410.59 977 438.49 C 977 451.82 970.34 458.49 957.02 458.49 C 394.85 458.49 82.52999999999997 458.49 20.069999999999936 458.49 C 6.749999999999936 458.49 0.08999999999993591 451.82 0.08999999999993591 438.49 C 0.09 187.4 0.09 47.9 0.09 20 C 0.09 6.67 6.75 0 20.07 0 C 582.24 0 894.56 0 957.02 0 Z" stroke-linecap="round" />
</g>
<g transform="matrix(1 0 0 1 487.73 212.1)" id="IKGI2_bNKdjRYwHT2GxRv"  >
<linearGradient id="SVGID_13" gradientUnits="userSpaceOnUse" gradientTransform="matrix(1 0 0 1 0 0)"  x1="67.71093" y1="211.94931" x2="351.38586" y2="208.51553">
<stop offset="0%" style="stop-color:rgb(246,203,90);stop-opacity: 1"/>
<stop offset="100%" style="stop-color:rgb(244,225,139);stop-opacity: 1"/>
</linearGradient>
<path style="stroke: none; stroke-width: 1; stroke-dasharray: none; stroke-linecap: butt; stroke-dashoffset: 0; stroke-linejoin: miter; stroke-miterlimit: 4; fill: url(#SVGID_13); fill-rule: nonzero; opacity: 1;" vector-effect="non-scaling-stroke"  transform=" translate(-487.68, -211.95)" d="M 195.30078 28.449219 C 189.88078000000002 28.449219 186.16094 35.449688 189.46094 39.429688 C 193.83094 44.689687 181.51922 53.249766 172.44922 51.259766 C 169.23922 50.549766 168.05906 49.390625 168.53906 47.390625 C 170.03906 41.110625 161.30969000000002 36.559219 156.67969 41.199219 C 152.86969 45.009219 153.30061999999998 49.25 157.89061999999998 53.25 C 160.06061999999997 55.13 162.84007999999997 60.410703 164.08007999999998 64.970703 C 165.31007999999997 69.54070300000001 167.06094 74.220625 167.96094 75.390625 C 169.14094 76.910625 176.57999999999998 77.5 194.5 77.5 C 216.13 77.5 219.73039 77.109063 221.90039000000002 74.539062 C 223.28039 72.909063 225.37078000000002 68.160703 226.55078 63.970703 C 227.73078 59.780703 230.63 54.299297 233 51.779297 C 237.15 47.379297 237.21 47.040391 234.5 42.900391 C 232.95 40.540391 230.43063 38.599609 228.89062 38.599609 C 225.11062 38.599609 219.91992000000002 43.540625 219.91992000000002 47.140625 C 219.91992000000002 52.450625 214.54094 52.840703 204.96094000000002 48.220703 C 201.61094000000003 46.610703 201.13969000000003 45.409297 201.92969000000002 40.529297 C 203.14969000000002 33.049296999999996 200.62078000000002 28.449219 195.30078000000003 28.449219 z M 195.40038 80.880859 C 172.21038000000001 80.880859 170.86913 81.059687 170.86913 84.179688 C 170.86913 85.989688 172.02944000000002 88.129922 173.43944000000002 88.919922 C 176.59944000000002 90.679922 214.93007000000003 90.530234 217.83007000000003 88.740234 C 218.98007000000004 88.03023400000001 219.91991000000004 85.970156 219.91991000000004 84.160156 C 219.91991000000004 81.070156 218.54038000000006 80.880859 195.40038000000004 80.880859 z M 191.43554 99.636719 C 165.95054 100.39171999999999 139.71436 108.89008 122.85937 124.83008 C 110.28936999999999 136.72008 103.56069 149.99 101.22068999999999 167.5 C 98.76069299999999 185.92000000000002 101.86983 197.73031 112.08982999999999 208.82031 C 120.90983 218.38031 129.47037999999998 223.42055 147.40037999999998 229.56055 C 167.05038 236.30055000000002 166.9603 236.26000000000002 170.07029999999997 241 C 175.24029999999996 248.89 167.71935999999997 258.46094 156.35936999999998 258.46094 C 149.37936 258.46094 141.89920999999998 254.3707 128.94921 243.4707 C 122.15920999999999 237.76069999999999 115.58054 233.08983999999998 114.31053999999999 233.08983999999998 C 110.02053999999998 233.08983999999998 67.710928 270.99008 67.710928 274.83007999999995 C 67.710928 285.03007999999994 100.86061 308.60999999999996 123.14061 314.24999999999994 C 126.60061999999999 315.12999999999994 138.19062 315.5702299999999 148.89060999999998 315.24022999999994 C 172.11060999999998 314.53022999999996 190.09967999999998 309.4803099999999 205.67968 299.32030999999995 C 231.55968 282.43030999999996 243.92976 261.19983999999994 244.25976 233.08983999999995 C 244.39976 221.30983999999995 243.75921 217.46022999999997 240.69921 211.74022999999994 C 233.86920999999998 198.93022999999994 220.01976 190.35085999999995 190.50976 180.63085999999993 C 172.05976 174.55085999999991 166.71038 170.75968999999992 168.40037999999998 164.92968999999994 C 172.41037999999998 151.11968999999993 191.72967999999997 152.06069999999994 210.42968 166.97069999999994 C 214.03968 169.85069999999993 218.28913 172.21093999999994 219.86912999999998 172.21093999999994 C 223.76913 172.21093999999994 262.28046 134.90015999999994 262.23046 131.16015999999993 C 262.22046 129.51015999999993 259.18976 124.89038999999994 255.50976 120.90038999999993 C 241.65476 105.87038999999993 216.92054000000002 98.88171899999993 191.43554 99.63671899999993 z M 314.53905 104.56055 C 292.49904999999995 104.56055 287.35038 105.03070000000001 285.15038 107.22070000000001 C 283.69038 108.6807 282.49998999999997 110.08031000000001 282.49998999999997 110.32031 C 282.49998999999997 110.57031 280.19084999999995 121.74039 277.38084999999995 135.15039000000002 C 274.57084999999995 148.56039 271.20061999999996 164.84938000000002 269.8906099999999 171.35938000000002 C 268.5906099999999 177.86937 261.36959999999993 211.64969000000002 253.84959999999992 246.42969000000002 C 243.41959999999992 294.65969 240.6298299999999 310.20094 242.08982999999992 311.96094000000005 C 244.89982999999992 315.35094000000004 296.4498299999999 315.30016000000006 299.8398299999999 311.91014000000007 C 301.1398299999999 310.60014000000007 304.2106099999999 300.1403700000001 306.64060999999987 288.65037000000007 C 309.08060999999987 277.16037000000006 317.6095999999999 236.93951000000007 325.5995999999999 199.26951000000008 C 333.5895999999999 161.59951000000007 341.1997599999999 125.85959000000008 342.5097599999999 119.84959000000008 C 344.2197599999999 112.01959000000008 344.3798299999999 108.31021000000008 343.0898299999999 106.74021000000008 C 341.7498299999999 105.13021000000008 334.3190499999999 104.56053000000007 314.5390499999999 104.56053000000007 z M 443.49021999999997 104.56055 C 431.46022 104.56055 424.25920999999994 105.27992 422.44921 106.66992 C 418.85921 109.42992000000001 397.49998999999997 143.32953 397.49998999999997 146.26953 C 397.49998999999997 149.31953000000001 432.61046 149.40938 436.48046 146.35933 C 440.37046 143.30933 461.76952 110.11081 461.76952 107.13081 C 461.76952 104.99081 458.71022 104.56049999999999 443.49022 104.56049999999999 z M 405.87694 173.3418 C 402.04787999999996 173.17258 398.04093 173.4031 393.96092999999996 174.06055 C 377.36092999999994 176.73055 363.01912999999996 184.54047 349.11913 198.48047 C 309.31913 238.42047 313.71038 301.51953000000003 357.15038 314.01953000000003 C 373.04037999999997 318.59953 393.64991 314.88039000000003 406.41990999999996 305.15039 C 406.81990999999994 304.85039 408.78936999999996 303.33914000000004 412.35936999999996 300.61914 L 413.8691299999999 307.01953000000003 L 415.38084999999995 313.42969000000005 C 427.03084999999993 313.70969 433.50076999999993 313.87039000000004 434.80076999999994 313.9003900000001 C 449.1307699999999 314.2503900000001 455.03912999999994 313.77031000000005 457.3691299999999 312.07031000000006 C 460.4591299999999 309.8103100000001 463.0300699999999 298.97906000000006 482.8300699999999 205.03906000000006 C 485.3900699999999 192.86906000000008 487.2091299999999 181.45969000000005 486.8691299999999 179.67969000000005 C 486.29912999999993 176.72969000000006 484.3993699999999 176.39094000000006 465.6093699999999 175.96094000000005 C 464.2293699999999 175.93094000000005 457.3506899999999 175.77023000000005 444.9706899999999 175.49023000000005 L 440.4804599999999 182.26953000000006 L 435.9902199999999 189.06055000000006 C 433.9902199999999 186.52055000000007 432.8801499999999 185.11008000000007 432.66014999999993 184.83008000000007 C 427.2451499999999 177.94508000000008 417.36412999999993 173.84945000000008 405.87693999999993 173.34180000000006 z M 565.34179 173.34980000000002 C 561.5403799999999 173.18167000000003 557.5218699999999 173.4085 553.3593699999999 174.05097 C 499.1593699999999 182.42097 462.1195199999999 253.3105 490.2695199999999 294.82050000000004 C 495.7395199999999 302.89050000000003 508.4101499999999 311.79964000000007 518.1601499999999 314.43964000000005 C 528.9701499999999 317.35964000000007 549.7105399999999 315.59933000000007 557.31054 311.11933000000005 C 557.7305399999999 310.86933000000005 559.84062 309.63082 563.6406099999999 307.39081000000004 C 562.97061 311.23082000000005 562.5995199999999 313.35925000000003 562.5195199999999 313.78925000000004 C 560.59952 324.78925000000004 555.9495199999999 336.16003000000006 551.7695199999999 340.09003 C 548.1695199999999 343.48003 545.69921 343.92988 527.69921 344.42988 C 526.35921 344.46988000000005 519.68061 344.66042000000004 507.64061 344.99042000000003 C 505.48060999999996 354.80042000000003 504.26928999999996 360.25003000000004 504.02929 361.34003 C 502.03929 370.34003 499.44976 381.69050000000004 498.25976 386.57050000000004 C 497.97976000000006 387.76050000000004 497.25936 390.71941000000004 496.10937 395.44941000000006 L 519.99022 395.44941000000006 C 538.77022 395.44941000000006 546.50022 394.71972000000005 556.24022 392.01972000000006 C 587.34022 383.39972000000006 600.96983 370.2099600000001 613.83983 336.2599600000001 C 618.34983 324.3299600000001 618.26952 321.4410500000001 613.01952 306.8810500000001 C 601.2095200000001 274.1310500000001 607.9798300000001 243.0896400000001 631.58983 221.68964000000005 C 640.13983 213.93964000000005 640.57921 213.11105000000006 643.44921 199.13105000000004 C 645.07921 191.15105000000005 646.1598299999999 182.77949000000004 645.83983 180.52949000000004 C 645.26983 176.48949000000005 645.0196 176.43113000000005 624.5996 175.96113000000003 C 623.2296 175.93113000000002 616.33944 175.77042000000003 603.93944 175.49042000000003 L 599.5703 182.42011000000002 L 595.18944 189.34003 C 593.12944 186.72003 591.97999 185.26089000000002 591.74999 184.97089000000003 C 586.1999900000001 177.91339000000002 576.7460100000001 173.85417 565.3417900000001 173.34980000000002 z M 871.9394399999999 174.18769 C 861.8208899999998 174.28129 853.6820999999999 178.26949 842.8495999999999 188.06074 C 833.4395999999999 196.56074 833.9802999999999 196.71058000000002 831.3202999999999 184.90058000000002 C 829.3602999999998 176.16058 828.0207699999999 175.59003 809.3007699999998 175.59003 C 785.9807699999998 175.59003 785.8093699999998 175.75074 780.3593699999998 201.81074 C 774.4393599999997 230.16074 759.3807699999998 300.82050000000004 758.3007699999998 305.32050000000004 C 758.1807699999998 305.82050000000004 757.8803799999998 307.06074 757.4003799999998 309.06074 C 764.3503799999999 307.02074 768.2104599999998 305.89035 768.9804599999998 305.66035 C 784.5204599999997 301.11035 803.9094399999998 297.35957 811.9394399999998 297.35957 C 819.5294399999998 297.35957 818.9495999999998 298.73089000000004 826.0995999999998 263.97089 C 828.4495999999998 252.58089 831.5101499999997 241.0405 832.9101499999998 238.32049999999998 C 839.1401499999998 226.2805 853.2203799999999 222.38073999999997 860.9003799999998 230.56073999999998 C 867.7903799999998 237.89074 871.0198299999998 236.33034999999998 889.0898299999998 216.91035 C 898.2298299999998 207.08034999999998 906.4097599999998 197.55042 907.2597599999998 195.74042 C 910.6097599999998 188.58042 892.1701499999998 175.81105 876.4101499999998 174.38105000000002 C 874.8701499999999 174.24105000000003 873.3849499999998 174.17431000000002 871.9394399999998 174.18769 z M 403.9394399999999 228.01972 C 419.9194399999999 228.01972 422.7307699999999 248.65019 408.3007699999999 260.00019000000003 C 402.4807699999999 264.58019 390.72951999999987 264.81964000000005 386.7695199999999 260.43964000000005 C 384.97951999999987 258.46964 383.9706899999999 254.41019000000006 383.9706899999999 249.25019000000006 C 383.9706899999999 242.10019000000005 384.73904999999985 240.38003000000006 390.53904999999986 234.59003000000007 C 395.99904999999984 229.12003000000007 398.2494399999999 228.01972000000006 403.9394399999999 228.01972000000006 z M 563.4706899999999 228.01972 C 573.4306899999999 228.01972 577.3898299999998 232.85996 576.3398299999999 243.75996 C 575.6498299999998 250.91996 574.5103799999999 253.25988 569.4003799999999 257.92988 C 564.4003799999999 262.51988 561.92999 263.53925000000004 555.7499899999999 263.53925000000004 C 546.9099899999999 263.53925000000004 542.9492099999999 259.46081000000004 542.9492099999999 250.39081000000004 C 542.9492099999999 238.37081000000003 552.4406899999999 228.01972000000004 563.4706899999999 228.01972000000004 z" stroke-linecap="round" />
</g>
<g transform="matrix(1 0 0 1 750.3 245.42)" id="ZFxFs9S0UqLB6uE-plP74"  >
<linearGradient id="SVGID_14" gradientUnits="userSpaceOnUse" gradientTransform="matrix(1 0 0 1 0 0)"  x1="607.59" y1="245.26" x2="892.92" y2="245.26">
<stop offset="0%" style="stop-color:rgb(217,35,42);stop-opacity: 1"/>
<stop offset="100%" style="stop-color:rgb(109,21,23);stop-opacity: 1"/>
</linearGradient>
<path style="stroke: none; stroke-width: 1; stroke-dasharray: none; stroke-linecap: butt; stroke-dashoffset: 0; stroke-linejoin: miter; stroke-miterlimit: 4; fill: url(#SVGID_14); fill-rule: nonzero; opacity: 1;" vector-effect="non-scaling-stroke"  transform=" translate(-750.25, -245.27)" d="M 619.81 321.89 C 604.8 296.28 603.4499999999999 260.84 616.67 239.46999999999997 C 631.0899999999999 216.14999999999998 652.56 204.33999999999997 680.51 204.33999999999997 C 693.38 204.33999999999997 693.87 204.20999999999998 691.24 201.29999999999998 C 686.8100000000001 196.41 683.32 184.38 683.32 174.01999999999998 C 683.32 154.40999999999997 696.1800000000001 139.17999999999998 716.2700000000001 135.01 C 743.82 129.29 782.9100000000001 150.53 787.5500000000001 173.73 C 788.97 180.82999999999998 785.69 181.54 778.4300000000001 175.70999999999998 C 767.2500000000001 166.73 748.1500000000001 165.64999999999998 737.74 173.42 C 730.91 178.51999999999998 726.98 187.26999999999998 727.83 195.48999999999998 C 728.57 202.70999999999998 732.5200000000001 209.61999999999998 742.8000000000001 221.7 C 749.72 229.82999999999998 748.2900000000001 231.32 731.8000000000001 233.17 C 707.23 235.92 695.2600000000001 241.45 688.8700000000001 253 C 678.0000000000001 272.61 685.0200000000001 297.78 704.2000000000002 307.95 C 710.2600000000001 311.17 713.8900000000002 311.68 730.6700000000002 311.69 C 747.7000000000002 311.7 752.3300000000002 311.03 767.8800000000002 306.32 C 792.8800000000002 298.75 806.5100000000002 296.71999999999997 824.5000000000002 297.9 C 856.5200000000002 300.01 878.7700000000002 311.67999999999995 889.4800000000002 332.01 C 894.6600000000002 341.83 893.8600000000002 344.8 887.9800000000002 337.65999999999997 C 875.6400000000002 322.68999999999994 857.4100000000002 315.49999999999994 832.1500000000002 315.61999999999995 C 810.0100000000002 315.72999999999996 793.1100000000002 320.99999999999994 758.9700000000003 338.4599999999999 C 743.8700000000002 346.17999999999995 727.4700000000003 353.4099999999999 722.5100000000002 354.5299999999999 C 709.0100000000002 357.56999999999994 676.1200000000002 356.9099999999999 663.7000000000003 353.3599999999999 C 645.3200000000003 348.0999999999999 627.8200000000003 335.5499999999999 619.8100000000003 321.8899999999999 z" stroke-linecap="round" />
</g>
<g transform="matrix(1 0 0 1 363.52 379.35)" id="lhr-fY0OKqDOyhQi28re6"  >
<path style="stroke: none; stroke-width: 0.46; stroke-dasharray: none; stroke-linecap: butt; stroke-dashoffset: 0; stroke-linejoin: miter; stroke-miterlimit: 4; fill: rgb(255,255,255); fill-rule: nonzero; opacity: 1;" vector-effect="non-scaling-stroke"  transform=" translate(-363.47, -379.2)" d="M 330.53027 412.55984 C 327.65191 411.53922 325.70811999999995 410.19812 325.48875 409.0815 C 325.29308 408.08547 330.24352999999996 400.56881 331.09519 400.56881 C 331.43997 400.56881 332.70354 401.00297 333.90314 401.53361 C 335.63204 402.29838 336.77031 402.46375 339.39366 402.33128 C 343.51146 402.12334 346.12827 400.61217999999997 347.4636 397.67100999999997 C 348.79571 394.73695999999995 348.58866 394.39982999999995 346.38554 395.91562 C 343.73807 397.73712 340.92759 398.43925 337.64558 398.09906 C 326.47944 396.94167 322.18698 386.4391 327.99139 374.4777 C 329.66168000000005 371.03566 334.93899000000005 365.77346 338.30551 364.19313000000005 C 341.20526 362.83191000000005 346.34588 361.86059000000006 348.24039000000005 362.31593000000004 C 350.44933000000003 362.84684000000004 352.75775000000004 364.22125000000005 354.20061000000004 365.86457 L 355.60056000000003 367.45903000000004 L 356.35589000000004 365.48123000000004 C 357.22406000000007 363.20796 357.78457000000003 362.96314000000007 362.1419700000001 362.95406 C 365.26036000000005 362.94706 366.2481700000001 363.41342000000003 366.2481700000001 364.8906 C 366.2481700000001 365.35353 364.69331000000005 373.10599 362.7929200000001 382.11827 C 359.96557000000007 395.52652 359.0505500000001 399.09526999999997 357.7576800000001 401.75655 C 355.6563900000001 406.08192 352.4852200000001 409.24048 348.0347700000001 411.44079 C 344.5813100000001 413.14819 344.3820600000001 413.18824 338.74565000000007 413.30806 C 334.0365300000001 413.40816 332.5377200000001 413.27166 330.5302700000001 412.55984 z M 347.03679999999997 385.94932 C 351.79810999999995 382.92979 352.15804999999995 375.89978 347.62789 374.40469 C 343.15763 372.92937 338.29935 377.1831 338.27187999999995 382.59648000000004 C 338.26388 384.18655000000007 338.52870999999993 384.84855000000005 339.60288999999995 385.92273000000006 C 341.44930999999997 387.7691500000001 344.1519799999999 387.77882000000005 347.03679999999997 385.94933000000003 z M 250.13706999999997 398.2701 C 245.69602999999998 397.51845000000003 241.82742999999996 394.71501 239.69725999999997 390.70477 C 238.62426999999997 388.68476 238.47848999999997 387.88743999999997 238.47654999999997 384.02848 C 238.47454999999997 379.88652 238.56874999999997 379.45507 240.19600999999997 376.16259 C 244.39559999999997 367.6653 252.26601999999997 362.48900000000003 260.98630999999995 362.48900000000003 C 267.04651999999993 362.48900000000003 271.60380999999995 365.03296000000006 274.25258999999994 369.89447 C 276.06976999999995 373.22968000000003 276.39744999999994 378.83108 275.00696999999997 382.79 C 272.27086999999995 390.58015 264.69793 396.93757 256.59666 398.24532 C 253.29963999999998 398.77754 253.13878999999997 398.77815 250.13707 398.27012 z M 260.01874999999995 385.70353 C 262.94962 383.46805 264.11806999999993 379.5323 262.68640999999997 376.71796 C 261.63473999999997 374.65064 260.08108 373.85488 257.75901999999996 374.19426 C 254.05204999999995 374.73604 251.12235999999996 378.43334999999996 251.10121999999996 382.59648 C 251.09321999999995 384.20462 251.35654999999994 384.84704999999997 252.48858999999996 385.97908 C 253.75351999999995 387.24402000000003 254.09969999999996 387.35599 256.13958999999994 387.15998 C 257.63843999999995 387.01596 258.93756999999994 386.52819 260.01874999999995 385.70353 z M 435.91765 398.12135 C 429.47754 396.68169 425.89124999999996 391.90471 425.89124999999996 384.76604000000003 C 425.89124999999996 374.24963 433.36774999999994 365.00097000000005 443.53631999999993 362.93856000000005 C 448.78917999999993 361.8731700000001 452.53917999999993 363.11109000000005 454.2681999999999 366.48129000000006 L 455.1015999999999 368.10577000000006 L 456.39976999999993 365.87088000000006 C 457.1137499999999 364.64169000000004 457.9222499999999 363.4843000000001 458.1964299999999 363.29891000000003 C 459.0972599999999 362.68982000000005 465.1160699999999 362.90685 466.03899999999993 363.58172 C 466.87794999999994 364.19517 466.7974899999999 364.73205 463.54646999999994 380.21296 C 461.53231999999997 389.80405 459.90021999999993 396.53785 459.47087999999997 397.02828 C 458.85707999999994 397.72941 458.09695999999997 397.82774 454.15067999999997 397.71647 L 449.54659999999996 397.58666 L 449.05668999999995 395.8372 L 448.56677999999994 394.08773 L 447.6671099999999 395.08186 C 445.04083999999995 397.98385 440.52658999999994 399.15166 435.9176499999999 398.12135 z M 445.93357 386.77584 C 450.55742999999995 385.02882 452.67839999999995 378.92278 449.78551 375.68654000000004 C 448.60094 374.36137 448.18196 374.19198000000006 446.15999 374.22078000000005 C 442.07103 374.27898000000005 439.14937 377.29158000000007 438.82438 381.78465000000006 C 438.64316 384.28989000000007 438.72538000000003 384.56955000000005 440.02473000000003 385.86893000000003 C 441.53937 387.38356000000005 443.52036000000004 387.68761 445.93357000000003 386.77584 z M 276.02505999999994 397.11011 C 275.8760699999999 396.72183 277.2417899999999 389.23777 279.0599899999999 380.47886 C 281.72410999999994 367.6449 282.54635999999994 364.39772 283.2958599999999 363.75068 C 283.9974499999999 363.14501 285.04480999999987 362.94779 287.5598399999999 362.94779 C 291.3439799999999 362.94779 291.7348799999999 363.21108 292.1916299999999 366.06741 C 292.3611199999999 367.12732 292.5505299999999 367.99452 292.6125599999999 367.99452 C 292.67455999999993 367.99452 293.6288699999999 367.16807 294.7331899999999 366.15798 C 295.8375099999999 365.14789 297.46363999999994 363.97431 298.3468199999999 363.55004 C 300.2747299999999 362.62388000000004 304.0024899999999 362.61411000000004 306.1872699999999 363.52944 C 308.3923399999999 364.45333 310.7342299999999 366.53891000000004 310.7342299999999 367.57874000000004 C 310.7342299999999 368.36733000000004 305.6952199999999 374.70127 303.9248199999999 376.13804000000005 C 302.9307599999999 376.94477000000006 302.7040699999999 376.88379000000003 300.9402699999999 375.33515000000006 C 298.33972999999986 373.0518400000001 294.4613699999999 373.70418000000006 292.6768999999999 376.72504000000004 C 292.2657399999999 377.42108 291.0722299999999 382.08999000000006 290.02465999999987 387.10040000000004 C 288.97708999999986 392.11080000000004 287.8083099999999 396.57153000000005 287.42737999999986 397.01311000000004 C 286.45718999999985 398.13779000000005 276.45207999999985 398.22285000000005 276.0250599999999 397.11001000000005 z M 306.41887999999994 397.42714 C 306.28667999999993 397.21324 307.71969999999993 389.74256 309.60335999999995 380.82563 C 311.48700999999994 371.9087 313.02818999999994 364.56279 313.02818999999994 364.50137 C 313.02818999999994 364.43997 313.35261999999994 364.06528000000003 313.74914999999993 363.66876 C 314.3116599999999 363.10624 315.5133899999999 362.94779 319.2171399999999 362.94779 C 324.7918199999999 362.94779 325.4155999999999 363.12076 325.4155999999999 364.66654 C 325.4155999999999 366.42126 318.9327599999999 396.58333 318.4139199999999 397.24256 C 317.8914299999999 397.90643 306.8203899999999 398.07679 306.4188799999999 397.42714 z M 365.6765199999999 397.24256 C 365.5604599999999 396.92714 366.77266999999995 390.47537 368.37031999999994 382.90529000000004 C 369.96797999999995 375.33520000000004 371.5006599999999 368.05774 371.77627999999993 366.73314000000005 C 372.5227699999999 363.14560000000006 372.8689599999999 362.94779000000005 378.40142999999995 362.94779000000005 C 384.006 362.94779000000005 384.59988999999996 363.11623000000003 384.59988999999996 364.70577000000003 C 384.59988999999996 366.50838000000005 378.13552 396.58024 377.60564999999997 397.24256 C 377.28346999999997 397.64527000000004 375.47035999999997 397.81606000000005 371.51718999999997 397.81606000000005 C 367.43188999999995 397.81606000000005 365.82966 397.65874 365.67652 397.24256 z M 384.1410899999999 396.56596 C 384.1410899999999 395.87841000000003 385.6044999999999 388.39435000000003 387.3931099999999 379.93472 C 389.9922399999999 367.64153000000005 390.8314199999999 364.39238 391.5730699999999 363.75068000000005 C 392.25022999999993 363.16479000000004 393.3014099999999 362.94779000000005 395.4625099999999 362.94779000000005 C 399.1718799999999 362.94779000000005 400.0413599999999 363.4118700000001 400.6639499999999 365.72400000000005 L 401.1602299999999 367.56702000000007 L 402.4854699999999 366.62336000000005 C 403.2143599999999 366.10435000000007 405.2174599999999 365.01851000000005 406.9368099999999 364.21038000000004 C 409.5804499999999 362.96781000000004 410.59392999999994 362.74042000000003 413.5038399999999 362.73694000000006 C 422.5173499999999 362.72614000000004 425.8241599999999 367.34164000000004 424.0309999999999 377.43021000000005 C 422.7064499999999 384.88233 420.2121199999999 395.86865000000006 419.6369799999999 396.78377000000006 C 419.0228299999999 397.76096000000007 418.6941599999999 397.81606000000005 413.4788599999999 397.81606000000005 C 409.3266599999999 397.81606000000005 407.9120299999999 397.66622000000007 407.7361099999999 397.20779000000005 C 407.60773999999986 396.87325000000004 408.3368199999999 392.72132000000005 409.3562899999999 387.98128 C 411.57783999999987 377.65216000000004 411.6612299999999 376.11089000000004 410.0554299999999 375.05873 C 407.6484999999999 373.48164 402.2073499999999 375.19230000000005 400.7056599999999 377.99822 C 400.4729599999999 378.43302 399.4321199999999 382.79765 398.3926899999999 387.6974 C 397.3532499999999 392.59714 396.2768399999999 396.87828 396.0006799999999 397.21104 C 395.6345199999999 397.65223000000003 393.9609199999999 397.81606000000005 389.81982999999985 397.81606000000005 L 384.14108999999985 397.81606000000005 z M 466.0061999999999 397.21662000000003 C 465.7942599999999 396.66431000000006 475.8980899999999 348.11522 476.5967099999999 346.32903000000005 C 477.0041599999999 345.28728000000007 478.91937999999993 344.97596000000004 483.88006999999993 345.14512 C 487.07884999999993 345.25419 488.0641499999999 345.44875 488.43927999999994 346.04535000000004 C 489.04236999999995 347.00447 478.5707699999999 396.83522000000005 477.64237999999995 397.42412 C 477.31472999999994 397.63196 474.61430999999993 397.80517000000003 471.64143999999993 397.80903 C 467.61054999999993 397.81403 466.1777399999999 397.66364 466.0061999999999 397.21662000000003 z M 317.32264 357.68995 C 314.88795999999996 355.98463000000004 314.75667 351.62996 317.05419 348.78575 C 319.80562000000003 345.37962 324.4379 344.66109 327.01716 347.24035000000003 C 328.13988 348.36307000000005 328.24422 348.74228000000005 328.07482999999996 351.08409000000006 C 327.85470999999995 354.12719000000004 326.37971 356.4214400000001 323.88107999999994 357.60711000000003 C 321.91473999999994 358.5402 318.59638999999993 358.58211000000006 317.3226399999999 357.68991000000005 z M 376.19777 357.25199000000003 C 372.90118 354.19682000000006 374.75849 348.29677000000004 379.65959 346.25494000000003 C 383.86771999999996 344.50182 387.35264 346.49284000000006 387.35264 350.65016 C 387.35264 353.50607 386.43697000000003 355.26762 384.05580000000003 356.99253000000004 C 381.53483000000006 358.81871000000007 378.01373 358.93497 376.19777000000005 357.25199000000003 z M 444.70176 355.59374 C 444.70176 354.71816 450.58385 346.04874 451.51664 345.54953 C 452.02499 345.27747 454.21585 345.05487 456.38521 345.05487 C 459.45574999999997 345.05487 460.38761 345.20626 460.59175999999997 345.73827 C 460.84912999999995 346.40898 456.98402999999996 352.96389 455.11075999999997 355.03362 C 454.25678 355.97715999999997 453.76923 356.0659 449.43910999999997 356.0659 C 446.49735 356.0659 444.70176 355.88694 444.70176 355.59374 z" stroke-linecap="round" />
</g>
</svg>
