<svg
  xmlns="http://www.w3.org/2000/svg"
  viewBox="0 0 976.91 458.69">
<defs>
  <linearGradient id="gradienta5Ab0YTjsq" gradientUnits="userSpaceOnUse" x1="0.09" y1="229.24" x2="977" y2="229.24">
    <stop style="stop-color: #004e91;stop-opacity: 1" offset="0%"/>
    <stop style="stop-color: #1d215d;stop-opacity: 1" offset="100%"/>
  </linearGradient>
  <linearGradient id="gradientg2B7agSsJ" gradientUnits="userSpaceOnUse" x1="607.59" y1="245.26" x2="892.92" y2="245.26">
    <stop style="stop-color: #d9232a;stop-opacity: 1" offset="0%"/>
    <stop style="stop-color: #6d1517;stop-opacity: 1" offset="100%"/>
  </linearGradient>
</defs>
<g>
  <path fill="url(#gradienta5Ab0YTjsq)" d="M957.02 0C970.34 0 977 6.67 977 20C977 271.09 977 410.59 977 438.49C977 451.82 970.34 458.49 957.02 458.49C394.85 458.49 82.53 458.49 20.07 458.49C6.75 458.49 0.09 451.82 0.09 438.49C0.09 187.4 0.09 47.9 0.09 20C0.09 6.67 6.75 0 20.07 0C582.24 0 894.56 0 957.02 0Z"/>
  <path fill="#fcfcfc" d="M188.86 347.68C190.01 343.64 201.32 343.43 201.32 347.45C201.32 349.9 201.77 349.88 205.84 347.22C212.16 343.08 222.69 343.35 227.12 347.78C227.35 348.01 228.53 349.19 230.64 351.3C233.77 349.07 235.5 347.84 235.85 347.59C243.68 342 254.52 342.47 259.81 348.61C262.32 351.53 263.88 355.44 263.85 358.76C263.8 364.71 258.28 390.53 256.41 393.55C255.77 394.6 252.52 395.45 249.2 395.45C242.37 395.45 242.61 398.31 247.22 372.1C249.09 361.45 249.05 359.52 246.92 358.18C243.89 356.28 238.66 357.66 234.77 361.38C233.17 362.91 230.61 370.25 229.09 377.69C227.56 385.14 225.54 392.18 224.6 393.34C223.66 394.5 220.32 395.45 217.18 395.45C210.64 395.45 210.57 395.15 213.97 381.08C217.63 365.89 217.33 358.72 212.95 357.34C206.15 355.18 200.79 361.45 197.58 375.34C195.98 382.22 194.26 389.55 193.74 391.65C192.99 394.67 191.6 395.45 187.01 395.45C183.83 395.45 180.75 394.69 180.17 393.75C179.32 392.37 185.6 359.05 188.86 347.68ZM269.48 362.47C269.73 361.35 270.99 355.71 273.24 345.56C277.54 345.25 279.93 345.08 280.41 345.04C284.35 344.75 287.56 345.14 287.54 345.89C287.53 346.64 286.41 351.82 285.07 357.4C280.23 377.42 282.02 383.68 291.84 381.22C299.15 379.38 301.99 374.74 305.21 359.43C305.41 358.44 306.44 353.54 308.3 344.72C312.23 344.72 314.41 344.72 314.84 344.72C320.12 344.72 321.39 345.33 321.39 347.89C321.39 351.57 312.97 392.29 311.82 394.18C310.37 396.56 301.28 395.47 299.75 392.74C298.36 390.25 297.8 390.25 292.98 392.74C285.82 396.44 277.08 396.16 271.86 392.05C265.68 387.19 265.23 381.62 269.48 362.47ZM318.01 390.45C318.01 386.24 320.57 383.2 333.99 371.42C335.06 370.48 340.39 365.81 349.98 357.4C342.92 357.1 339.01 356.94 338.22 356.9C326.05 356.39 325.53 355.98 327.53 348.52C328.52 344.83 329.21 344.72 349.5 344.72C350.89 344.72 357.87 344.72 370.44 344.72C370.44 347.35 370.44 348.82 370.44 349.11C370.44 353.66 367.87 356.61 349.59 373.06C348.93 373.65 345.64 376.6 339.73 381.92C346.91 381.92 350.9 381.92 351.7 381.92C364.6 381.92 365.29 382.54 362.03 391.11C360.38 395.45 360.38 395.45 339.19 395.45C337.78 395.45 330.72 395.45 318.01 395.45C318.01 392.78 318.01 391.11 318.01 390.45ZM374.68 348.52C375.43 345.36 376.72 344.72 382.31 344.72C386.01 344.72 389.04 345.07 389.04 345.51C389.04 347.85 378.85 392.46 378.01 393.83C376.42 396.4 365.37 395.83 365.37 393.17C365.37 391.29 371.28 362.92 374.68 348.52ZM401.33 326.96C403.34 318.85 403.69 318.48 409.77 317.98C417.5 317.34 417.64 318.47 412.76 340.57C410.92 348.9 409.4 356.72 409.38 357.95C409.36 359.19 413.32 356.72 418.19 352.46C426.23 345.42 427.81 344.72 435.52 344.8C436.09 344.8 438.92 344.83 444.01 344.88C437.67 350.71 434.14 353.95 433.44 354.59C427.63 359.94 422.87 364.96 422.87 365.76C422.87 366.56 425.91 372.49 429.63 378.94C438.57 394.44 438.47 395.77 428.37 395.12C420.64 394.63 420.15 394.28 415.72 386.15C413.19 381.5 410.84 376.93 410.5 376C409.31 372.72 404.35 378.9 403.24 385.05C402.63 388.45 401.38 392.18 400.45 393.34C398.5 395.8 389.7 396.19 388.27 393.88C387.4 392.47 395.96 348.61 401.33 326.96ZM438.04 369.47C441.34 354.84 453.47 344.19 467.06 343.99C474.03 343.89 476.01 344.56 478.52 347.89C481.54 351.89 481.56 351.9 482.5 348.31C483.2 345.62 484.75 344.72 488.67 344.72C492 344.72 493.9 345.57 493.9 347.06C493.9 352.05 484.93 391.34 483.33 393.34C480.97 396.3 473.7 395.98 472.5 392.86C471.61 390.52 471.11 390.52 467.54 392.86C465.36 394.28 460.18 395.45 456.04 395.45C449.95 395.45 447.54 394.5 443.53 390.48C437.72 384.67 436.05 378.29 438.04 369.47ZM466.11 356.55C458.67 356.55 451.62 364.38 451.62 372.63C451.62 383.6 460.88 386.99 469.97 379.34C480.25 370.69 477.85 356.55 466.11 356.55ZM498.26 386.57C499.45 381.69 502.04 370.34 504.03 361.34C504.27 360.25 505.48 354.8 507.64 344.99C519.68 344.66 526.36 344.47 527.7 344.43C545.7 343.93 548.17 343.48 551.77 340.09C555.95 336.16 560.6 324.79 562.52 313.79C562.6 313.36 562.97 311.23 563.64 307.39C559.84 309.63 557.73 310.87 557.31 311.12C549.71 315.6 528.97 317.36 518.16 314.44C508.41 311.8 495.74 302.89 490.27 294.82C462.12 253.31 499.16 182.42 553.36 174.05C570.01 171.48 584.35 175.56 591.75 184.97C591.98 185.26 593.13 186.72 595.19 189.34L599.57 182.42L603.94 175.49C616.34 175.77 623.23 175.93 624.6 175.96C645.02 176.43 645.27 176.49 645.84 180.53C646.16 182.78 645.08 191.15 643.45 199.13C640.58 213.11 640.14 213.94 631.59 221.69C607.98 243.09 601.21 274.13 613.02 306.88C618.27 321.44 618.35 324.33 613.84 336.26C600.97 370.21 587.34 383.4 556.24 392.02C546.5 394.72 538.77 395.45 519.99 395.45C518.4 395.45 510.44 395.45 496.11 395.45C497.26 390.72 497.98 387.76 498.26 386.57ZM576.34 243.76C577.39 232.86 573.43 228.02 563.47 228.02C552.44 228.02 542.95 238.37 542.95 250.39C542.95 259.46 546.91 263.54 555.75 263.54C561.93 263.54 564.4 262.52 569.4 257.93C574.51 253.26 575.65 250.92 576.34 243.76ZM377.21 330.22C377.21 326.7 383.43 321.04 387.29 321.04C394.98 321.04 395.08 332.13 387.42 336.22C383.24 338.46 383 338.43 379.86 335.29C378.4 333.83 377.21 331.55 377.21 330.22ZM67.71 274.83C67.71 270.99 110.02 233.09 114.31 233.09C115.58 233.09 122.16 237.76 128.95 243.47C141.9 254.37 149.38 258.46 156.36 258.46C167.72 258.46 175.24 248.89 170.07 241C166.96 236.26 167.05 236.3 147.4 229.56C129.47 223.42 120.91 218.38 112.09 208.82C101.87 197.73 98.76 185.92 101.22 167.5C103.56 149.99 110.29 136.72 122.86 124.83C156.57 92.95 227.8 90.84 255.51 120.9C259.19 124.89 262.22 129.51 262.23 131.16C262.28 134.9 223.77 172.21 219.87 172.21C218.29 172.21 214.04 169.85 210.43 166.97C191.73 152.06 172.41 151.12 168.4 164.93C166.71 170.76 172.06 174.55 190.51 180.63C220.02 190.35 233.87 198.93 240.7 211.74C243.76 217.46 244.4 221.31 244.26 233.09C243.93 261.2 231.56 282.43 205.68 299.32C190.1 309.48 172.11 314.53 148.89 315.24C138.19 315.57 126.6 315.13 123.14 314.25C100.86 308.61 67.71 285.03 67.71 274.83ZM349.12 198.48C363.02 184.54 377.36 176.73 393.96 174.06C410.28 171.43 425.44 175.65 432.66 184.83C432.88 185.11 433.99 186.52 435.99 189.06L440.48 182.27L444.97 175.49C457.35 175.77 464.23 175.93 465.61 175.96C484.4 176.39 486.3 176.73 486.87 179.68C487.21 181.46 485.39 192.87 482.83 205.04C463.03 298.98 460.46 309.81 457.37 312.07C455.04 313.77 449.13 314.25 434.8 313.9C433.5 313.87 427.03 313.71 415.38 313.43L413.87 307.02L412.36 300.62C408.79 303.34 406.82 304.85 406.42 305.15C393.65 314.88 373.04 318.6 357.15 314.02C313.71 301.52 309.32 238.42 349.12 198.48ZM403.94 228.02C398.25 228.02 396 229.12 390.54 234.59C384.74 240.38 383.97 242.1 383.97 249.25C383.97 254.41 384.98 258.47 386.77 260.44C390.73 264.82 402.48 264.58 408.3 260C422.73 248.65 419.92 228.02 403.94 228.02ZM253.85 246.43C261.37 211.65 268.59 177.87 269.89 171.36C271.2 164.85 274.57 148.56 277.38 135.15C280.19 121.74 282.5 110.57 282.5 110.32C282.5 110.08 283.69 108.68 285.15 107.22C287.35 105.03 292.5 104.56 314.54 104.56C334.32 104.56 341.75 105.13 343.09 106.74C344.38 108.31 344.22 112.02 342.51 119.85C341.2 125.86 333.59 161.6 325.6 199.27C317.61 236.94 309.08 277.16 306.64 288.65C304.21 300.14 301.14 310.6 299.84 311.91C296.45 315.3 244.9 315.35 242.09 311.96C240.63 310.2 243.42 294.66 253.85 246.43ZM758.3 305.32C759.38 300.82 774.44 230.16 780.36 201.81C785.81 175.75 785.98 175.59 809.3 175.59C828.02 175.59 829.36 176.16 831.32 184.9C833.98 196.71 833.44 196.56 842.85 188.06C855.23 176.87 864.09 173.26 876.41 174.38C892.17 175.81 910.61 188.58 907.26 195.74C906.41 197.55 898.23 207.08 889.09 216.91C871.02 236.33 867.79 237.89 860.9 230.56C853.22 222.38 839.14 226.28 832.91 238.32C831.51 241.04 828.45 252.58 826.1 263.97C818.95 298.73 819.53 297.36 811.94 297.36C803.91 297.36 784.52 301.11 768.98 305.66C768.21 305.89 764.35 307.02 757.4 309.06C757.88 307.06 758.18 305.82 758.3 305.32ZM422.45 106.67C424.26 105.28 431.46 104.56 443.49 104.56C458.71 104.56 461.77 104.99 461.77 107.13C461.77 110.11 440.37 143.31 436.48 146.36C432.61 149.41 397.5 149.32 397.5 146.27C397.5 143.33 418.86 109.43 422.45 106.67Z"/>
  <path fill="url(#gradientg2B7agSsJ)" d="M619.81 321.89C604.8 296.28 603.45 260.84 616.67 239.47C631.09 216.15 652.56 204.34 680.51 204.34C693.38 204.34 693.87 204.21 691.24 201.3C686.81 196.41 683.32 184.38 683.32 174.02C683.32 154.41 696.18 139.18 716.27 135.01C743.82 129.29 782.91 150.53 787.55 173.73C788.97 180.83 785.69 181.54 778.43 175.71C767.25 166.73 748.15 165.65 737.74 173.42C730.91 178.52 726.98 187.27 727.83 195.49C728.57 202.71 732.52 209.62 742.8 221.7C749.72 229.83 748.29 231.32 731.8 233.17C707.23 235.92 695.26 241.45 688.87 253C678 272.61 685.02 297.78 704.2 307.95C710.26 311.17 713.89 311.68 730.67 311.69C747.7 311.7 752.33 311.03 767.88 306.32C792.88 298.75 806.51 296.72 824.5 297.9C856.52 300.01 878.77 311.68 889.48 332.01C894.66 341.83 893.86 344.8 887.98 337.66C875.64 322.69 857.41 315.5 832.15 315.62C810.01 315.73 793.11 321 758.97 338.46C743.87 346.18 727.47 353.41 722.51 354.53C709.01 357.57 676.12 356.91 663.7 353.36C645.32 348.1 627.82 335.55 619.81 321.89Z"/>
  <path fill="#ffff00" d="M189.46 39.43C193.83 44.69 181.52 53.25 172.45 51.26C169.24 50.55 168.06 49.39 168.54 47.39C170.04 41.11 161.31 36.56 156.68 41.2C152.87 45.01 153.3 49.25 157.89 53.25C160.06 55.13 162.84 60.41 164.08 64.97C165.31 69.54 167.06 74.22 167.96 75.39C169.14 76.91 176.58 77.5 194.5 77.5C216.13 77.5 219.73 77.11 221.9 74.54C223.28 72.91 225.37 68.16 226.55 63.97C227.73 59.78 230.63 54.3 233 51.78C237.15 47.38 237.21 47.04 234.5 42.9C232.95 40.54 230.43 38.6 228.89 38.6C225.11 38.6 219.92 43.54 219.92 47.14C219.92 52.45 214.54 52.84 204.96 48.22C201.61 46.61 201.14 45.41 201.93 40.53C203.15 33.05 200.62 28.45 195.3 28.45C189.88 28.45 186.16 35.45 189.46 39.43ZM170.87 84.18C170.87 85.99 172.03 88.13 173.44 88.92C176.6 90.68 214.93 90.53 217.83 88.74C218.98 88.03 219.92 85.97 219.92 84.16C219.92 81.07 218.54 80.88 195.4 80.88C172.21 80.88 170.87 81.06 170.87 84.18Z"/>
</g>
</svg>
