<svg
	version="1.1"
	xmlns="http://www.w3.org/2000/svg"
	viewBox="0 0 709.75 332.18"
	width="709.75"
	height="332.18">
<defs>
	<linearGradient id="gradientcRLmxulL5" gradientUnits="userSpaceOnUse" x1="442.93" y1="329.88" x2="703.26" y2="14.88">
		<stop style="stop-color: #06913f;stop-opacity: 1" offset="0%"/>
		<stop style="stop-color: #0e3c25;stop-opacity: 1" offset="100%"/>
	</linearGradient>
	<linearGradient id="gradientcTzp9Qf3" gradientUnits="userSpaceOnUse" x1="76.43" y1="216.44" x2="216.33" y2="123.35" spreadMethod="reflect">
		<stop style="stop-color: #e0a951;stop-opacity: 1" offset="0%"/>
		<stop style="stop-color: #f3e3a3;stop-opacity: 1" offset="100%"/>
	</linearGradient>
	<radialGradient id="gradientghnYX7p5E" gradientUnits="userSpaceOnUse" cx="479.36" cy="123.13" dx="-43.61" dy="-121.11" r="577.19">
		<stop style="stop-color: #800000;stop-opacity: 1" offset="0%"/>
		<stop style="stop-color: #f02b3e;stop-opacity: 1" offset="100%"/>
	</radialGradient>
</defs>
<g>
	<path style="fill:url(#gradientcRLmxulL5);opacity:1"
		d="M549.02 16.38C538.28 21.39 529.03 31.85 525.4 43.1C525.28 43.45 524.72 45.2 523.7 48.35L523.37 48.35L539.97 118.21C539.99 118.27 540 118.3 540 118.31C541.89 120.34 544.1 124.06 545.77 128.35C549.16 137.08 551.55 147.07 552.52 156.6C552.9 160.4 552.82 163.31 552.32 163.25C541.8 168.43 527.58 174.95 522.93 176.9C504.12 184.55 477.22 198.04 465.97 205.47C451.98 214.72 441.74 224.93 437.16 234.2C433.64 241.32 433.43 242.28 433.43 251.3C433.43 262.16 435.15 266.7 441.27 272.07C448.85 278.73 462.5 280.39 471.43 275.73C471.7 275.59 473.03 274.89 475.43 273.64C475.22 279.66 475.1 283.01 475.08 283.68C474.83 290.95 475.2 295.46 476.45 300.06C480.51 315.08 493.06 327.24 508.32 330.94C508.32 330.94 508.32 330.94 508.32 330.94C515.28 332.63 524.07 332.6 532.26 330.87C557.98 325.42 571.93 305.24 571.93 273.51C571.93 261.87 570.17 255.21 561.59 234.35C555.74 220.11 552.91 208.92 552.95 200.14C552.96 199.79 552.96 198.03 552.98 194.85C556.3 203.25 558.14 207.92 558.51 208.85C569.17 235.84 582.28 259.86 593.6 273.1C603.99 285.26 617.98 292.17 630.02 291.08C641.92 290 650.47 283.51 653.91 272.94C655.46 268.2 654.68 257.71 652.47 253.43C651.62 251.79 650.93 250.31 650.93 250.15C650.93 249.98 656.44 249.83 663.18 249.81C672.48 249.78 676.63 249.33 680.43 247.94C692.22 243.63 702.8 233.47 707.07 222.35C708.46 218.71 709.34 213.63 709.66 207.35C710.49 190.72 706.22 178.48 696.06 168.33C685.46 157.75 671.63 153.03 650.93 152.92C637.41 152.85 636.9 152.98 610.47 163.22C599.21 167.58 576.93 171.68 576.93 169.39C576.93 168.82 577.29 168.35 577.73 168.35C579.04 168.35 600.26 155.94 611.19 148.78C640.75 129.41 657.25 112.61 662.46 96.57C665.1 88.44 664.19 76.44 660.4 69.47C654.33 58.33 641.81 53.71 629.22 57.97C626.58 58.86 623.26 60.42 621.82 61.43C621.65 61.56 620.78 62.17 619.22 63.28C618.84 58.31 618.62 55.55 618.58 54.99C617.07 35.33 608.32 22.11 591.67 14.31C586.39 11.85 580.43 10.61 574.13 10.57C566.04 10.53 557.4 12.47 549.02 16.38ZM587.91 61.34C595.34 65.13 598.91 72.11 601.44 87.74C602.24 92.67 603.27 97.09 603.74 97.56C604.2 98.02 608.11 95.47 612.42 91.89C617.31 87.83 621.54 85.14 623.69 84.74C631.57 83.26 640.76 89.3 642.94 97.4C643.85 100.76 643.7 102.09 641.95 106.03C639.01 112.69 634.21 118.15 623.27 127.28C611.52 137.09 598.45 145.82 578.13 157.46C569.59 162.35 562.2 166.35 561.7 166.35C561.19 166.35 561.14 164.31 561.58 161.6C563.1 152.27 562.36 136.36 559.97 126.92C559.82 126.32 559.07 123.35 557.71 117.99C554.12 79.41 552.12 57.98 551.72 53.69C568.61 56.59 572.37 56.88 582.77 59.37C583.8 59.31 585.41 60.06 587.91 61.34ZM562.5 178.17C571.82 180.15 566.96 179.54 574.93 181.9C574.93 181.79 580.44 181.68 587.18 181.65C595.06 181.61 603.66 180.84 611.28 179.47C617.8 178.31 625.91 177.35 629.32 177.35C647.64 177.35 660.75 186.66 661.74 200.37C662.57 211.86 657.91 221.23 649.27 225.45C645.23 227.42 642.35 227.89 631.94 228.33C616.97 228.95 616.81 229.15 623.3 238.82C628.63 246.76 629.72 251.52 627.46 256.94C625.32 262.06 623.22 264.27 618.43 266.47C613.51 268.73 610.41 268.78 606.15 266.69C596.76 262.06 582.17 239.63 569.94 210.98C565.52 200.64 556.93 178.39 556.93 177.28C556.93 177.19 557.09 177.14 557.37 177.14C558.22 177.14 560.2 177.53 562.5 178.17ZM545.58 178.33C544.4 182.68 543.74 185.1 543.61 185.59C540.6 196.72 540.73 217.29 543.91 232.35C547.12 247.54 547.13 259.54 543.95 267.76C541.16 274.98 535.03 281.41 529.31 283.12C521.32 285.51 511.4 283.97 505.2 279.39C503.5 278.14 500.89 274.85 499.38 272.07C497.06 267.81 496.57 265.56 496.24 257.44C495.72 244.93 495.12 241.35 493.55 241.35C492.84 241.35 489.71 243.17 486.61 245.39C480.3 249.91 475.1 252.35 471.78 252.35C468.22 252.35 461.12 248.43 458.81 245.19C455.16 240.05 454.53 234.8 456.98 229.75C462.56 218.21 488.58 201.72 525.93 186.05C534.45 182.47 542.36 179.27 543.51 178.94C543.78 178.86 544.48 178.65 545.58 178.33Z"/>
	<path style="fill:#000000;opacity:1"
		d="M103.51 1.6C102.09 6.55 99.56 12.23 97.86 14.26C97.73 14.42 97.06 15.22 95.85 16.67C93.93 14.81 92.85 13.77 92.64 13.56C84.87 6.06 70.63 3.95 60.29 8.76C50.2 13.46 42.97 21.91 38.56 34.16C37.11 38.18 35.93 41.62 35.93 41.8C35.93 41.98 38.97 42.3 42.68 42.52C47.19 42.79 51.02 43.72 54.23 45.34C59.77 48.13 70.38 56.4 70.2 57.79C70.13 58.31 67.01 59.93 63.25 61.38C31.12 73.83 7.2 97.13 1.43 121.6C-3.55 142.71 4.56 159.66 24.64 170.14C25.14 170.4 27.63 171.7 32.1 174.04C29.16 176.15 27.53 177.32 27.21 177.56C17.21 184.74 10.73 198.57 10.6 212.97C10.54 220.17 10.9 221.84 13.73 227.6C19.21 238.72 29.63 246.22 44.65 249.86C55.01 252.37 75.61 251.5 89.62 247.97C102.12 244.83 115.04 239.7 124.23 234.24C132.27 229.46 144.65 218.08 148.61 211.82C148.79 211.53 149.7 210.09 151.35 207.49C153.7 209.62 155.01 210.8 155.27 211.04C161.66 216.81 169.1 219.68 178.97 220.16C193.98 220.89 206.07 216.22 215.68 205.96C219.87 201.5 220.45 201.19 222.35 202.4C228.54 206.33 230.58 206.85 239.43 206.78C251.92 206.69 260.69 202.63 266.51 194.23C266.69 193.97 267.61 192.65 269.25 190.28C270.8 191.73 271.67 192.54 271.84 192.7C276.68 197.23 280.92 198.74 288.43 198.62C292.28 198.56 297.41 197.8 299.84 196.92C302.26 196.05 304.38 195.47 304.55 195.64C304.72 195.8 304.2 198.13 303.39 200.81C298.82 216.01 306.02 231.18 320.05 235.92C332.35 240.07 352.8 237.02 370.43 228.41C385.12 221.25 396.31 210.41 403.32 196.56C404.78 193.69 406.1 191.35 406.26 191.35C418.58 167.86 415.26 151.84 415.93 97.14C415.94 96.47 416.02 91.16 416.03 90.49C416.08 86.84 416.42 81.37 416.78 78.35C417.4 73.09 417.31 72.77 414.6 71.06C404.28 64.56 368.34 67.7 348.45 76.83C340.1 80.67 330.52 87.71 324.87 94.17C324.6 94.49 323.23 96.04 320.78 98.85C321.15 96.45 321.36 95.12 321.4 94.85C321.98 91.09 321.82 90.75 318.72 89.12C314.08 86.69 307.54 85.4 299.68 85.38C295.97 85.36 292.93 85.08 292.93 84.75C292.93 84.43 294.63 82.22 296.72 79.86C304.35 71.19 308.36 60.18 306.53 52.91C306.17 51.47 304.28 48.53 302.33 46.37C297.47 40.99 290.14 38.35 280.14 38.36C268.58 38.38 268.29 38.54 267.62 45.1C266.87 52.35 262.35 61.41 256.03 68.35C251.33 73.51 251.02 73.69 250.97 71.22C250.87 65.05 249.46 61.79 244.98 57.31C241.71 54.04 239.02 52.36 235.71 51.52C224.66 48.74 210.89 51.05 196.93 58.04C188.89 62.06 185.96 64.27 177.87 72.39C177.24 73.03 174.05 76.23 168.32 81.99C167.63 79.1 167.25 77.49 167.17 77.17C163.33 60.98 145.1 51.35 118.31 51.35C117.67 51.35 114.43 51.35 108.61 51.35C112.18 47.6 114.16 45.52 114.55 45.1C126.35 32.68 132.9 21.35 132.92 13.32C132.93 7.92 131.09 4.98 126.11 2.44C123.08 0.89 116.53 0.02 111.26 0C107.16 -0.01 103.83 0.49 103.51 1.6ZM114.24 6.21C119.68 7.23 123.93 10.62 123.93 13.92C123.93 15.14 122.27 19.38 120.24 23.32C113.76 35.92 96.3 52.65 83.63 58.4C81.32 59.45 78.75 60.3 77.93 60.28C77.1 60.27 73.73 57.51 70.43 54.15C61.19 44.75 48.79 37.35 42.28 37.35C40.99 37.35 39.93 36.89 39.93 36.34C39.93 33.56 44.9 25.31 49.15 21.05C55.55 14.62 60.7 12.4 69.22 12.37C77.59 12.34 82.16 14.46 87.66 20.9C87.93 21.21 89.24 22.75 91.61 25.52C94.13 22.66 95.52 21.08 95.8 20.76C98.11 18.14 100.98 13.84 102.19 11.2C104.09 7.06 105.74 5.54 109.58 5.63C110.86 5.65 112.38 5.86 114.24 6.21ZM537.93 54.28C536 57.02 534.15 59.28 533.8 59.3C533.46 59.33 532.91 57.99 532.57 56.32C532.24 54.65 530.72 52.13 529.2 50.71C526.57 48.25 526.03 48.15 518.43 48.68C502.53 49.8 483.37 58.23 476.05 67.35C475.84 67.62 474.76 68.95 472.83 71.36C474.36 72.71 475.22 73.45 475.39 73.6C479.8 77.47 480.43 83.95 480.43 125.14C480.43 166.7 479.74 162.63 486.93 163.64C492.5 164.43 507.47 162.46 521.27 159.13C528.49 157.38 530.28 156.57 530.98 154.72C531.45 153.48 532.54 146.02 533.4 138.15C535.02 123.36 535.89 117.38 536.61 116.11C536.84 115.71 538.14 116.09 539.48 116.98C540.83 117.86 544.85 118.81 548.41 119.1C552.85 119.46 554.34 119.39 558.66 116.85C564.3 113.46 570.35 106.36 573.96 98.9C582.76 80.69 583.09 54.58 574.63 45.52C571.28 41.92 566.67 40.27 561.7 40.36C553.42 40.51 544.13 45.47 537.93 54.28ZM296.93 58.6C296.93 67.24 284.88 82.18 273.41 87.75C262.82 92.9 253.06 92.32 246.29 86.15C246.14 86.02 245.43 85.37 244.14 84.2C248.22 80.13 250.49 77.86 250.94 77.41C254.68 73.67 259.35 68.18 261.33 65.19C265.03 59.62 268.93 49.97 268.93 46.38C268.93 44.53 269.57 44.35 276.23 44.35C288.81 44.35 296.93 49.94 296.93 58.6ZM566.74 50.13C570.36 55.29 571.23 60.05 570.66 71.77C569.45 96.84 558.87 113.35 544.01 113.35C537.68 113.35 534.47 111.36 533.31 106.72C532.81 104.72 533.26 103.6 535.36 101.65C539.72 97.61 541.01 91.35 537.48 91.35C532.29 91.35 527.4 108.33 524.39 136.83C523.52 145.07 522.7 151.91 522.56 152.05C521.98 152.63 509.7 155.42 501.55 156.82C496.66 157.66 489.98 158.37 486.69 158.35C486.35 158.35 484.69 158.34 481.69 158.32C481.52 155.51 481.43 153.95 481.41 153.64C482.5 146.34 482.13 98.02 480.89 86.85C480.27 81.35 479.07 75.37 478.22 73.56C476.73 70.41 476.76 70.16 479.05 67.72C483.55 62.93 501.87 55.43 512.93 53.85C522.32 52.51 524.05 54.87 525.79 71.4C526.48 77.89 526.87 79.27 527.49 77.35C529.8 70.18 536.77 58.39 541.47 53.68C546.4 48.75 552.26 46.07 557.3 45.89C561.21 45.75 564.64 47.12 566.74 50.13ZM238.96 63.54C242.32 68.9 241.39 78.01 236.48 87.94C233.31 94.37 230.63 97.78 222.01 106.38C216.19 112.17 207.49 119.77 202.68 123.25C202.1 123.67 199.18 125.79 193.93 129.58C193.86 133.27 193.82 135.31 193.81 135.72C193.32 162.18 197.22 174.36 206.18 174.35C206.4 174.35 207.48 174.34 209.43 174.34C209.5 166.09 209.54 161.51 209.55 160.59C209.65 148.69 210.01 145.78 212.27 138.85C221.39 110.87 244.68 94.43 279.42 91.45C289.06 90.62 305.55 91.41 309.18 92.86C311.51 93.8 311.43 95.26 307.93 116.51C305.04 134.06 304.23 147.7 305.84 151.82C306.31 153.02 306.84 149.54 307.2 142.82C307.58 135.95 308.61 129.23 309.96 124.85C318.19 98.23 339.07 80.37 367.93 75.27C375.97 73.85 399.78 73.38 403.98 74.57C404.15 74.62 405 74.86 406.52 75.29C406.3 82.96 406.17 87.22 406.14 88.07C405.31 115.34 407.25 157.59 398.04 185.34C397.61 186.16 394.22 192.77 393.8 193.59C388 204.91 375.6 217.35 364.93 222.57C346.96 231.37 325.69 234.36 315.72 229.51C313.13 228.25 309.67 225.68 308.02 223.8C299.61 214.22 302.54 197.11 314.38 186.67C314.74 186.35 316.51 184.8 319.69 181.99L316.07 178.58L312.46 175.17C311.58 176.57 311.09 177.35 311 177.51C310.19 178.8 307.39 181.97 304.78 184.56C301 188.3 298.57 189.7 292.89 191.43C278.48 195.81 270.02 191.59 266.58 178.29C266.48 177.93 266.01 176.12 265.17 172.85C264.18 176.21 263.63 178.07 263.52 178.45C259.14 193.35 248.94 201.35 234.34 201.35C227.52 201.35 224.91 200.29 219.58 195.38C219.29 195.11 217.83 193.77 215.21 191.35C213.01 194.66 211.79 196.5 211.55 196.87C207.06 203.63 198.12 210.39 190.49 212.79C182.57 215.28 168.2 214.64 162.21 211.53C156.18 208.4 151.43 203.94 149.1 199.22C148.96 198.95 148.29 197.59 147.07 195.13C145.46 198.32 144.56 200.1 144.38 200.45C133.34 222.24 111.06 236.68 78.27 243.3C67.71 245.43 51.23 245.91 43.43 244.31C21.63 239.84 9.52 225.02 12.67 206.65C15.86 188.05 29.88 174.91 45.14 176.21C46.62 176.33 46.78 177.2 46.33 182.6C45.66 190.48 47.88 194.56 54.43 197.45C67.04 203.03 94.19 200.41 96.41 193.4C98.03 188.3 92.06 185.53 64.9 178.8C33.81 171.09 22.68 166.54 12.81 157.52C4.6 150.02 2.43 144.97 2.43 133.35C2.43 118.01 7.35 107.17 20.61 93.29C41.39 71.54 72.07 58.96 107.53 57.65C124.91 57.01 133.22 58.1 142.32 62.23C155.86 68.37 161.18 78.95 157.61 92.63C152.76 111.2 132.64 124.42 109.43 124.28C100.73 124.23 95.94 122.64 94 119.17C92.57 116.61 92.67 116.24 96.33 110.94C98.43 107.88 99.9 104.72 99.6 103.92C97.04 97.25 75.99 95.71 64.88 101.38C60.48 103.62 58.93 105.91 58.93 110.15C58.93 117.52 65.11 120.61 92.14 126.76C120.73 133.25 130.94 137.18 139.99 145.16C140.29 145.43 141.81 146.77 144.55 149.19C145.24 145.19 145.62 142.96 145.7 142.52C147.41 132.55 151.57 118.96 155.99 108.85C170.19 76.4 195.38 56.36 221.93 56.39C229.99 56.4 236.09 58.96 238.96 63.54ZM203.43 89.92C202.04 91.73 196.89 106.82 196.96 108.9C197.02 110.79 203.78 97.96 204.98 93.68C205.93 90.29 205.89 88.42 205.05 88.52C204.67 88.56 204.12 89.02 203.43 89.92ZM248.95 91.87C250.41 93.63 250.45 93.58 246.23 95.72C241.84 97.96 241.71 97.84 244.06 93.85C245.36 91.66 246.16 90.6 246.94 90.5C247.55 90.41 248.14 90.9 248.95 91.87ZM96.49 104.58C96.9 104.98 96.04 107.03 94.58 109.14C93.09 111.28 91.93 114.33 91.93 116.09C91.93 117.82 91.59 119.44 91.18 119.69C89.88 120.48 73.77 115.37 70.73 113.21C67.1 110.62 67.44 108.54 71.93 105.9C74.84 104.2 77.14 103.85 85.59 103.85C91.18 103.85 96.09 104.18 96.49 104.58ZM355.24 108.3C349.22 111.03 346.57 116.5 346.49 126.35C346.46 130.59 347.03 135.26 347.8 137.1C349.52 141.18 351.97 141.28 355.25 137.38C358.43 133.61 360.66 126.87 361.89 117.35C363.01 108.77 363.27 105.97 360.69 106.26C359.52 106.38 357.77 107.15 355.24 108.3ZM360.43 113.85C360.62 115.51 360.73 116.43 360.75 116.61C360.92 118.13 360.35 121.84 359.47 124.86C358.59 127.88 357.37 130.35 356.76 130.35C355.11 130.35 356.63 119.43 358.72 116.37C358.94 116.03 359.52 115.19 360.43 113.85ZM147.35 128.04C146.02 132.89 144.81 137.2 144.67 137.64C144.52 138.07 143.92 137.94 143.33 137.35C142.74 136.76 138.81 134.57 134.59 132.49C134.08 132.24 131.53 130.98 126.94 128.71C130.38 127.63 132.3 127.03 132.68 126.91C135.84 125.92 140.68 123.93 143.43 122.48C146.18 121.04 148.73 119.72 149.1 119.55C149.47 119.38 148.68 123.2 147.35 128.04ZM214.33 128.99C212.95 132.09 211.14 137.15 210.3 140.24C209.46 143.32 208.47 150.35 208.09 155.85C207.5 164.48 207.24 165.55 206.18 163.68C203.53 159.02 201.87 137.19 203.88 133.44C204.75 131.82 215.2 123.35 216.33 123.35C216.6 123.35 215.7 125.89 214.33 128.99ZM248.3 137.83C246.83 142.52 246.76 144.02 247.83 148.8C248.61 152.27 249.85 154.88 251.15 155.8C253.95 157.76 256.2 156.45 259.4 150.99C262.31 146.03 265.93 132.83 265.93 127.19C265.93 123.74 265.67 123.35 263.38 123.35C257.15 123.35 251.01 129.24 248.3 137.83ZM263.93 132.12C263.93 133.23 263.03 137 261.93 140.49C259.69 147.64 258.61 149.69 257.61 148.7C255.33 146.42 258.54 134.56 262.27 131.48C263 130.88 263.41 130.6 263.64 130.69C263.88 130.78 263.93 131.24 263.93 132.12ZM363.93 151.82C363.93 154.14 359.37 163.85 355.93 168.85C351.6 175.14 343.81 181.04 337.34 182.92C333.15 184.14 331.93 184.94 331.93 186.47C331.93 189.18 334.55 194.03 336.68 195.27C345.71 200.53 360.65 185.61 364.49 167.48C366.13 159.75 366.37 150.35 364.93 150.35C364.38 150.35 363.93 151.01 363.93 151.82ZM356.93 182.23C356.93 183.28 350.82 188.91 348.25 190.23C345.74 191.51 344.54 191.63 343.6 190.68C342.5 189.59 342.84 188.35 344.24 188.35C344.96 188.35 348.11 186.81 351.24 184.92C353.98 183.27 356.28 182.14 356.81 182.15C356.89 182.15 356.93 182.18 356.93 182.23ZM70.21 184.98C78.03 186.83 86.66 189.18 89.4 190.2C94.34 192.04 94.35 192.05 91.9 193.38C90.4 194.19 85.09 194.85 78.43 195.05C67.38 195.39 62.09 194.39 58.32 191.26C56.2 189.5 54.74 185.51 55.43 183.35C55.62 182.75 55.9 182.4 56.87 182.35C58.49 182.27 62.02 183.05 70.21 184.98Z"/>
	<path style="fill:url(#gradientcTzp9Qf3);opacity:1"
		d="M114.24 6.21C119.68 7.23 123.93 10.62 123.93 13.92C123.93 15.14 122.27 19.38 120.24 23.32C113.76 35.92 96.3 52.65 83.63 58.4C81.32 59.45 78.75 60.3 77.93 60.28C77.1 60.27 73.73 57.51 70.43 54.15C61.19 44.75 48.79 37.35 42.28 37.35C40.99 37.35 39.93 36.89 39.93 36.34C39.93 33.56 44.9 25.31 49.15 21.05C55.55 14.62 60.7 12.4 69.22 12.37C77.59 12.34 82.16 14.46 87.66 20.9C87.93 21.21 89.24 22.75 91.61 25.52C94.13 22.66 95.52 21.08 95.8 20.76C98.11 18.14 100.98 13.84 102.19 11.2C104.09 7.06 105.74 5.54 109.58 5.63C110.86 5.65 112.38 5.86 114.24 6.21ZM296.93 58.6C296.93 67.24 284.88 82.18 273.41 87.75C262.82 92.9 253.06 92.32 246.29 86.15C246.14 86.02 245.43 85.37 244.14 84.2C248.22 80.13 250.49 77.86 250.94 77.41C254.68 73.67 259.35 68.18 261.33 65.19C265.03 59.62 268.93 49.97 268.93 46.38C268.93 44.53 269.57 44.35 276.23 44.35C288.81 44.35 296.93 49.94 296.93 58.6ZM566.74 50.13C570.36 55.29 571.23 60.05 570.66 71.77C569.45 96.84 558.87 113.35 544.01 113.35C537.68 113.35 534.47 111.36 533.31 106.72C532.81 104.72 533.26 103.6 535.36 101.65C539.72 97.61 541.01 91.35 537.48 91.35C532.29 91.35 527.4 108.33 524.39 136.83C523.52 145.07 522.7 151.91 522.56 152.05C521.98 152.63 509.7 155.42 501.55 156.82C496.66 157.66 489.98 158.37 486.69 158.35C486.35 158.35 484.69 158.34 481.69 158.32C481.52 155.51 481.43 153.95 481.41 153.64C482.5 146.34 482.13 98.02 480.89 86.85C480.27 81.35 479.07 75.37 478.22 73.56C476.73 70.41 476.76 70.16 479.05 67.72C483.55 62.93 501.87 55.43 512.93 53.85C522.32 52.51 524.05 54.87 525.79 71.4C526.48 77.89 526.87 79.27 527.49 77.35C529.8 70.18 536.77 58.39 541.47 53.68C546.4 48.75 552.26 46.07 557.3 45.89C561.21 45.75 564.64 47.12 566.74 50.13ZM238.96 63.54C242.32 68.9 241.39 78.01 236.48 87.94C233.31 94.37 230.63 97.78 222.01 106.38C216.19 112.17 207.49 119.77 202.68 123.25C202.1 123.67 199.18 125.79 193.93 129.58C193.86 133.27 193.82 135.31 193.81 135.72C193.32 162.18 197.22 174.36 206.18 174.35C206.4 174.35 207.48 174.34 209.43 174.34C209.5 166.09 209.54 161.51 209.55 160.59C209.65 148.69 210.01 145.78 212.27 138.85C221.39 110.87 244.68 94.43 279.42 91.45C289.06 90.62 305.55 91.41 309.18 92.86C311.51 93.8 311.43 95.26 307.93 116.51C305.04 134.06 304.23 147.7 305.84 151.82C306.31 153.02 306.84 149.54 307.2 142.82C307.58 135.95 308.61 129.23 309.96 124.85C318.19 98.23 339.07 80.37 367.93 75.27C375.97 73.85 399.78 73.38 403.98 74.57C404.15 74.62 405 74.86 406.52 75.29C406.3 82.96 406.17 87.22 406.14 88.07C405.31 115.34 407.25 157.59 398.04 185.34C397.61 186.16 394.22 192.77 393.8 193.59C388 204.91 375.6 217.35 364.93 222.57C346.96 231.37 325.69 234.36 315.72 229.51C313.13 228.25 309.67 225.68 308.02 223.8C299.61 214.22 302.54 197.11 314.38 186.67C314.74 186.35 316.51 184.8 319.69 181.99L316.07 178.58L312.46 175.17C311.58 176.57 311.09 177.35 311 177.51C310.19 178.8 307.39 181.97 304.78 184.56C301 188.3 298.57 189.7 292.89 191.43C278.48 195.81 270.02 191.59 266.58 178.29C266.48 177.93 266.01 176.12 265.17 172.85C264.18 176.21 263.63 178.07 263.52 178.45C259.14 193.35 248.94 201.35 234.34 201.35C227.52 201.35 224.91 200.29 219.58 195.38C219.29 195.11 217.83 193.77 215.21 191.35C213.01 194.66 211.79 196.5 211.55 196.87C207.06 203.63 198.12 210.39 190.49 212.79C182.57 215.28 168.2 214.64 162.21 211.53C156.18 208.4 151.43 203.94 149.1 199.22C148.96 198.95 148.29 197.59 147.07 195.13C145.46 198.32 144.56 200.1 144.38 200.45C133.34 222.24 111.06 236.68 78.27 243.3C67.71 245.43 51.23 245.91 43.43 244.31C21.63 239.84 9.52 225.02 12.67 206.65C15.86 188.05 29.88 174.91 45.14 176.21C46.62 176.33 46.78 177.2 46.33 182.6C45.66 190.48 47.88 194.56 54.43 197.45C67.04 203.03 94.19 200.41 96.41 193.4C98.03 188.3 92.06 185.53 64.9 178.8C33.81 171.09 22.68 166.54 12.81 157.52C4.6 150.02 2.43 144.97 2.43 133.35C2.43 118.01 7.35 107.17 20.61 93.29C41.39 71.54 72.07 58.96 107.53 57.65C124.91 57.01 133.22 58.1 142.32 62.23C155.86 68.37 161.18 78.95 157.61 92.63C152.76 111.2 132.64 124.42 109.43 124.28C100.73 124.23 95.94 122.64 94 119.17C92.57 116.61 92.67 116.24 96.33 110.94C98.43 107.88 99.9 104.72 99.6 103.92C97.04 97.25 75.99 95.71 64.88 101.38C60.48 103.62 58.93 105.91 58.93 110.15C58.93 117.52 65.11 120.61 92.14 126.76C120.73 133.25 130.94 137.18 139.99 145.16C140.29 145.43 141.81 146.77 144.55 149.19C145.24 145.19 145.62 142.96 145.7 142.52C147.41 132.55 151.57 118.96 155.99 108.85C170.19 76.4 195.38 56.36 221.93 56.39C229.99 56.4 236.09 58.96 238.96 63.54ZM203.43 89.92C202.04 91.73 196.89 106.82 196.96 108.9C197.02 110.79 203.78 97.96 204.98 93.68C205.93 90.29 205.89 88.42 205.05 88.52C204.67 88.56 204.12 89.02 203.43 89.92ZM355.24 108.3C349.22 111.03 346.57 116.5 346.49 126.35C346.46 130.59 347.03 135.26 347.8 137.1C349.52 141.18 351.97 141.28 355.25 137.38C358.43 133.61 360.66 126.87 361.89 117.35C363.01 108.77 363.27 105.97 360.69 106.26C359.52 106.38 357.77 107.15 355.24 108.3ZM248.3 137.83C246.83 142.52 246.76 144.02 247.83 148.8C248.61 152.27 249.85 154.88 251.15 155.8C253.95 157.76 256.2 156.45 259.4 150.99C262.31 146.03 265.93 132.83 265.93 127.19C265.93 123.74 265.67 123.35 263.38 123.35C257.15 123.35 251.01 129.24 248.3 137.83ZM363.93 151.82C363.93 154.14 359.37 163.85 355.93 168.85C351.6 175.14 343.81 181.04 337.34 182.92C333.15 184.14 331.93 184.94 331.93 186.47C331.93 189.18 334.55 194.03 336.68 195.27C345.71 200.53 360.65 185.61 364.49 167.48C366.13 159.75 366.37 150.35 364.93 150.35C364.38 150.35 363.93 151.01 363.93 151.82Z"/>
	<path style="fill:url(#gradientghnYX7p5E);opacity:1"
		d="M458.05 47.34C446.83 49.3 440.52 53.74 436.4 62.59C432.26 71.48 433.35 84.51 438.88 92.29C439.02 92.47 439.68 93.41 440.88 95.09C437.15 95.02 435.07 94.98 434.66 94.97C431.23 94.9 425.56 95.22 422.05 95.66C389.34 99.84 354.13 154.32 411.47 194.02C426.22 198.79 429.74 199.64 445.28 199.11C462.15 198.53 466.34 197.23 488.34 185.78C507.49 175.81 521.26 171.29 532.25 171.38C533.58 171.4 539.67 171.56 545.55 173.3C546.32 173.55 550.21 174.81 557.21 177.07C557.27 177.12 557.31 177.14 557.32 177.15C558.12 177.13 560.14 177.51 562.5 178.17C567.03 179.43 568.98 180.72 573 185.11C578.38 191 578.67 191.05 576.43 185.7C575.61 183.72 575.07 182.3 574.93 181.9C566.83 167.59 562.34 165.81 552.32 163.25C551.83 163.2 549.41 162.5 546.93 161.71C546.89 161.7 546.82 161.68 546.77 161.67C538.35 160.46 537.35 158.73 521.27 159.13C515.66 160.49 509.87 161.6 504.58 162.41C503.83 162.57 500.09 163.39 493.36 164.85C487.98 166.18 484.99 166.92 484.39 167.07C472.73 169.96 462.86 170.64 455.93 169.02C440.5 165.42 433.58 156.78 433.82 141.41C433.99 129.89 439.83 121.44 450.17 117.75C453.46 116.57 471.79 113.48 476.18 113.37C478.25 113.32 476.38 109.23 471.88 103.97C465.34 96.33 463.93 93.45 463.93 87.74C463.93 82.46 467.54 75.16 471.09 73.27C471.94 72.45 472.41 72.01 472.96 71.47C472.95 71.47 472.91 71.43 472.83 71.36C474.76 68.95 475.84 67.62 476.05 67.35C479.39 63.2 485.19 59.2 492.01 55.95C483.78 50.25 471.85 47.23 463.37 47.02C461.37 46.97 459.57 47.08 458.05 47.34Z"/>
	<path style="fill:#e21a21;opacity:1"
		d="M76.49 308.69C79.28 296.91 83.92 268.79 83.93 263.67C83.93 259.93 84.36 259.74 95.29 258.78C95.82 258.74 98.44 258.51 103.16 258.09L102.44 265.47L101.72 272.85C103.58 270.31 104.61 268.9 104.82 268.62C111.1 260.04 120.95 256.22 126.18 260.33C127.69 261.52 128.96 263.25 128.99 264.17C129.04 265.4 129.3 265.26 129.94 263.65C130.96 261.12 136.98 259.09 143.93 258.94C144.23 258.94 145.73 258.91 148.43 258.85L148.72 266.76L149.02 274.67C150.54 271.72 151.38 270.08 151.55 269.76C154.57 263.91 159.79 258.67 163.55 257.73C167.38 256.77 170.23 260.37 169.74 265.57C169.54 267.65 169.55 269.35 169.77 269.35C169.99 269.35 171.78 267.93 173.75 266.21C179.49 261.16 185.42 259.01 193.76 258.92C200.6 258.85 201.26 259.04 203.51 261.66C206.96 265.65 206.73 270.37 202.88 274.75C199.58 278.51 193.84 280.85 185.18 281.94C179.5 282.66 179.2 282.97 181.35 285.91C183.4 288.7 191.13 288.45 194.3 285.48C199.07 280.99 202.82 286.8 199.34 293.27C196.42 298.69 190.24 301.63 181.54 301.73C169.88 301.86 163.94 296.93 163.93 287.1C163.93 282 163.5 281.6 160.49 283.88C157.96 285.8 155.47 285.74 153.45 283.72C151.95 282.22 151.98 281.95 153.88 280.19C156.17 278.05 156.53 275.84 154.77 274.75C152 273.04 148.05 281.21 143.95 297.1C143.88 297.38 143.51 298.8 142.85 301.35L134.55 301.35L126.24 301.35C126.99 297.3 127.4 295.05 127.49 294.6C128.17 290.89 129.02 284.92 129.38 281.35C129.42 280.92 129.63 278.75 130.02 274.85C128.53 278.37 127.7 280.33 127.54 280.72C123 291.44 113.49 299.28 102.95 300.96C100.66 301.33 98.23 302.19 97.54 302.88C96.85 303.57 95.7 307.44 94.98 311.49C94.26 315.54 93.17 319.18 92.55 319.58C91.4 320.34 73.93 320.67 73.93 319.94C73.93 319.71 75.08 314.65 76.49 308.69ZM110.42 276.31C109.55 273.58 106.45 273.87 104.06 276.91C101.62 280.01 98.54 288.91 99.42 290.33C99.76 290.89 101.58 291.35 103.46 291.35C106.18 291.35 107.16 290.79 108.27 288.6C110.11 284.97 111.19 278.75 110.42 276.31ZM187.38 270.35C185.34 270.35 180.93 275.17 180.93 277.4C180.93 279.6 183.84 279.01 186.84 276.22C189.29 273.94 189.62 270.35 187.38 270.35ZM252.93 293.17C252.93 290.4 253.62 285.47 254.47 282.21C255.96 276.46 255.8 274.35 253.89 274.35C252.2 274.35 248.6 282.76 246.39 291.85C246.24 292.45 245.52 295.45 244.21 300.85C239.02 301.02 236.14 301.12 235.57 301.14C230.71 301.3 226.93 301.02 226.93 300.5C226.93 299.99 227.83 295.2 228.93 289.85C231.44 277.67 231.49 275.1 229.24 275.53C226.98 275.96 223.23 283.45 220.47 293.04C220.32 293.56 219.57 296.16 218.22 300.85L209.95 301.14L201.68 301.43C202.05 299.76 202.25 298.83 202.29 298.64C203.75 291.93 206.78 273.29 207.39 267.22C207.44 266.78 207.66 264.57 208.06 260.59C210.27 260.22 211.5 260.02 211.75 259.98C217.25 259.07 227.93 259.23 227.93 260.21C227.93 260.69 227.48 263.46 226.93 266.38C226.37 269.29 226.1 271.85 226.32 272.07C226.54 272.29 228.18 270.44 229.97 267.95C234.25 261.98 239.59 258.35 244.08 258.35C249.51 258.35 251.29 260.96 250.7 268.06C250.67 268.45 250.51 270.37 250.23 273.84C251.49 272.08 252.19 271.1 252.33 270.91C256.31 265.36 261.29 260.22 264.06 258.79C267.7 256.9 272.4 256.96 274.36 258.92C276.35 260.91 276.39 267.83 274.45 275.85C272.69 283.15 272.55 288.76 274.06 291.19C275.68 293.78 272.86 297.72 267.53 300.3C262.16 302.9 258.89 302.89 255.56 300.28C253.34 298.53 252.93 297.42 252.93 293.17ZM276.83 284.02C278.36 272.9 281.9 260.58 283.78 259.86C284.64 259.53 288.85 258.99 293.13 258.65C299.43 258.17 300.93 258.32 300.92 259.45C300.91 260.22 299.79 264.86 298.44 269.77C295.92 278.87 295.01 288.06 296.41 290.31C297.58 292.2 298.9 289.59 298.92 285.35C298.94 280.9 303.35 262.53 304.73 261.15C306.88 259 322.21 257.37 323.32 259.17C323.6 259.62 322.95 263.33 321.87 267.42C319.92 274.86 319.15 282.9 320.28 284.03C322.28 286.03 327.55 276.63 330.47 265.83C330.58 265.42 331.15 263.34 332.16 259.59C334.88 259.22 336.38 259.01 336.69 258.97C342.36 258.19 347.32 258.18 349.28 258.93C350.59 259.43 350.61 260.01 349.43 263.35C348.68 265.47 347.13 271.56 345.97 276.89C343.97 286.12 344.02 290.09 346.16 291.47C347.61 292.4 344.47 297.77 341.24 299.88C337.47 302.36 329.61 302.45 327.22 300.06C325.83 298.67 325.47 296.82 325.59 291.81C325.67 288.26 325.63 285.35 325.5 285.35C325.37 285.35 323.59 287.78 321.54 290.75C316.76 297.7 310.92 301.8 305.82 301.8C301.78 301.8 299.02 299.51 298.96 296.1C298.92 293.71 297.24 293.9 295.88 296.43C294.76 298.53 287.74 302.3 284.93 302.31C284.1 302.32 282.3 301.75 280.93 301.06C276.91 299.02 275.54 293.36 276.83 284.02ZM398.4 284.85C399.43 279.63 399.98 275.07 399.62 274.71C397.49 272.58 393.04 281.73 390.43 293.6C390.32 294.12 389.75 296.7 388.73 301.35L379.97 301.35L371.21 301.35C372.67 294.08 373.49 290.04 373.65 289.24C375.5 280.09 375.82 276.84 374.95 275.99C372.87 273.94 369.34 279.64 365.8 290.76C365.57 291.47 364.45 294.99 362.43 301.33C357.42 301.34 354.63 301.34 354.07 301.34C347.6 301.35 345.83 301.05 346.22 300.04C347.43 296.9 350.26 280.99 351.32 271.39C352.67 259.27 352.27 259.62 364.8 259.45C365.29 259.44 367.74 259.41 372.16 259.35L371.44 266.07L370.72 272.79C373.23 269.62 374.62 267.87 374.89 267.51C379.94 261.13 384.22 258.36 389.06 258.35C394.08 258.35 395.47 260.4 395.26 267.51C395.16 270.72 395.23 273.35 395.4 273.35C395.58 273.35 397.18 271.07 398.97 268.29C403.21 261.69 407.85 258.23 413.3 257.61C417.04 257.19 417.89 257.45 419.29 259.46C421.41 262.47 421.33 265.84 418.91 276.8C416.53 287.58 416.49 288.77 418.48 290.75C423.33 295.6 407.86 304.74 400.95 301.11C396.85 298.96 396.31 295.51 398.4 284.85ZM292.19 239.55C295.82 237.66 297.04 237.44 299.04 238.35C301.44 239.45 305.93 245.06 305.93 246.97C305.93 248.55 299.69 254.13 296.61 255.29C292.95 256.67 292.97 256.67 289.21 254.38C282.75 250.44 284.09 243.77 292.19 239.55Z"/>
</g>
</svg>
