<?xml version="1.0" encoding="UTF-8" standalone="no"?>
<svg
   xmlns:dc="http://purl.org/dc/elements/1.1/"
   xmlns:cc="http://creativecommons.org/ns#"
   xmlns:rdf="http://www.w3.org/1999/02/22-rdf-syntax-ns#"
   xmlns:svg="http://www.w3.org/2000/svg"
   xmlns="http://www.w3.org/2000/svg"
   xmlns:sodipodi="http://sodipodi.sourceforge.net/DTD/sodipodi-0.dtd"
   xmlns:inkscape="http://www.inkscape.org/namespaces/inkscape"
   width="132"
   height="99"
   viewBox="0 0 34.924999 26.193751"
   version="1.1"
   id="svg8"
   inkscape:version="1.0.2 (e86c870879, 2021-01-15, custom)"
   sodipodi:docname="Ťuki_TV.svg">
  <defs
     id="defs2" />
  <sodipodi:namedview
     id="base"
     pagecolor="#ffffff"
     bordercolor="#666666"
     borderopacity="1.0"
     inkscape:pageopacity="0.0"
     inkscape:pageshadow="2"
     inkscape:zoom="1.979899"
     inkscape:cx="26.654759"
     inkscape:cy="157.28687"
     inkscape:document-units="px"
     inkscape:current-layer="svg8"
     inkscape:document-rotation="0"
     showgrid="false"
     units="px"
     inkscape:window-width="1920"
     inkscape:window-height="1001"
     inkscape:window-x="-9"
     inkscape:window-y="-9"
     inkscape:window-maximized="1" />
  <metadata
     id="metadata5">
    <rdf:RDF>
      <cc:Work
         rdf:about="">
        <dc:format>image/svg+xml</dc:format>
        <dc:type
           rdf:resource="http://purl.org/dc/dcmitype/StillImage" />
        <dc:title></dc:title>
      </cc:Work>
    </rdf:RDF>
  </metadata>
  <g
     id="g24"
     style="display:inline"
     transform="matrix(0.51719519,0,0,0.51719519,-3.9373105,-14.463881)">
    <path
       style="fill:#ffffff;fill-opacity:1;stroke:none;stroke-width:0.264583px;stroke-linecap:butt;stroke-linejoin:miter;stroke-opacity:1"
       d="m 29.767143,35.880934 c -3.095872,-7.405594 12.183037,-9.699657 14.866869,4.543581 1.425437,0.233861 6.492421,-0.100226 7.283093,5.913339 3.300094,2.43555 -0.919981,5.259449 -2.472243,6.982415 2.026794,2.973374 -1.057941,3.674957 -2.739512,4.209497 0.584651,0.414824 0.902033,0.754479 1.202711,1.369756 1.475551,-1.792933 3.034624,-2.316336 4.977897,-0.7684 l 8.786485,-0.100227 c 0.7684,0.200452 1.286235,0.567948 1.603618,1.603618 l 0.133633,4.209495 c -0.261701,0.968852 -1.007828,1.50339 -1.737251,1.703842 l -3.841999,-0.06682 0.167042,7.015827 c -0.361927,1.035669 -0.82408,1.5368 -1.637025,1.804069 l -1.603618,0.03341 c -0.673741,0.606924 -3.017917,4.721761 -6.58151,-0.03341 -0.417425,1.199027 -1.413626,1.972831 -2.138156,2.03793 l -4.109271,0.100226 c -1.149078,-0.244958 -2.286345,-1.493915 -2.171565,-3.073601 -1.235346,0.630752 -5.541749,2.135575 -9.588293,-0.233859 -0.416422,0.552604 -1.027738,0.922126 -1.603618,1.00226 l -3.541321,-0.06682 c -0.896466,-0.01949 -1.684355,-0.406472 -2.238382,-1.937703 l -0.06682,-6.648331 c -1.364188,0.01114 -2.444402,-0.261701 -3.240642,-2.171565 L 19.34363,58.8327 c 0.250565,-0.840785 0.7684,-1.547936 1.703843,-1.870887 0.17818,-0.439881 0.373063,-1.06351 1.035669,-1.369756 0.07824,-1.648202 0.794318,-2.753063 3.140417,-2.605878 0.473781,-0.565593 0.947562,-1.09575 2.27179,-1.23612 -0.824081,-0.545675 -9.900108,-2.828603 -2.672694,-8.251947 -5.267436,-8.38558 3.42996,-7.650588 4.944488,-7.617178 z"
       id="path63"
       sodipodi:nodetypes="cccccccccccccccccccccccccccccccc"
       inkscape:label="bílé pozadí" />
    <path
       style="display:inline;fill:#ea048c;stroke-width:0.264583"
       d="m 51.966347,70.948363 -0.191058,-1.211761 -0.184602,-4.233333 c -0.156927,-3.598659 -0.324081,-4.446304 0.02164,-4.896135 0.223684,-0.291042 0.610937,-0.595324 0.615568,-0.839513 0.01103,-0.58233 2.856711,-1.010674 3.185038,-0.47943 0.221139,0.357809 0.649147,10.526278 0.489908,11.639036 -0.08357,0.583999 -0.234085,0.667531 -1.285283,0.713317 -1.075578,0.04685 -2.47113,0.449985 -2.651215,-0.692181 z"
       id="path30"
       inkscape:label="i"
       sodipodi:nodetypes="scsssssss" />
    <path
       style="fill:#a0cb39;stroke-width:0.264583"
       d="m 48.966629,71.479484 c -1.34846,-1.322388 -2.528827,-2.40434 -2.62304,-2.40434 -0.09421,0 -0.205872,0.982265 -0.248139,2.182812 l -0.05419,1.539138 c -0.01213,0.353108 -0.0943,0.631147 -0.572033,0.643675 h -1.567296 -1.497729 c -0.630534,0.004 -0.618937,-0.139514 -0.618937,-0.822093 v -6.586241 l -0.02362,-7.05398 c 0.04135,-0.195152 0.28802,-0.634822 0.73068,-0.637673 1.215163,-0.0078 3.114628,-0.0026 3.404902,0.295856 0.126212,0.152419 0.264687,1.205058 0.307718,2.339203 l 0.07824,2.062077 1.949821,-2.273054 c 1.363398,-1.589415 2.126924,-2.273053 2.53868,-2.273053 0.64711,0 1.465918,0.752393 1.462365,1.34375 -0.0013,0.206822 -1.013272,1.55943 -2.248959,3.005793 -1.235683,1.446363 -2.246698,2.698647 -2.246698,2.782853 0,0.0842 1.250156,1.399 2.778125,2.92177 2.947747,2.937714 3.216801,3.481594 2.182812,4.412435 -1.145373,1.031116 -1.192016,1.012635 -3.732704,-1.478928 z"
       id="path32"
       sodipodi:nodetypes="ssscccccccscscsscsssss"
       inkscape:label="k" />
    <path
       style="display:inline;fill:#e7b12e;stroke-width:0.264583"
       d="m 32.129868,71.034918 c -2.006308,-0.870048 -2.118556,-1.13053 -2.118556,-4.91631 v -3.393464 c 0.103896,-1.943616 1.863544,-2.100874 2.613436,-2.116667 0.885011,0 1.071419,0.624639 1.14805,3.847026 0.236043,1.421122 -0.240323,3.333216 0.802575,3.408037 0.467669,0.164174 0.987539,0.164174 1.455208,0 1.352636,-0.09784 0.775082,-2.251945 0.802574,-3.408037 0.04207,-1.769091 0.201429,-3.304987 0.363126,-3.499821 0.294545,-0.354904 2.226058,-0.475861 2.979846,-0.186605 0.357455,0.137168 0.418514,0.77706 0.418514,4.385976 -0.145938,1.933748 0.658129,3.567251 -0.748454,4.973834 -0.41165,0.411649 -1.215321,0.878078 -1.785937,1.036505 -1.503723,0.417499 -4.835821,0.344188 -5.930386,-0.130474 z"
       id="path34"
       inkscape:label="u"
       sodipodi:nodetypes="ssccccccssccsss" />
    <path
       style="display:inline;fill:#ea048c;stroke-width:0.264583"
       d="m 23.314046,57.350795 c -0.652219,-0.563438 -0.457158,-1.085851 0.37925,-1.186397 0.577362,-0.06941 0.640331,-0.183843 0.545962,-0.992188 -0.09532,-0.816508 -0.03948,-0.913733 0.52486,-0.913733 0.347344,0 0.888504,0.179989 1.202578,0.399975 0.547478,0.383468 0.574474,0.364361 0.654184,-0.463021 0.199013,-2.065752 2.600679,-0.4567 2.59263,1.736992 -0.0022,0.6073 -0.123639,1.227786 -0.201443,1.414506 -0.328029,0.78723 -1.170778,0.479516 -2.713834,0.53271 -2.14449,0.07393 -1.812693,0.483185 -2.984187,-0.528844 z"
       id="path50"
       inkscape:label="háček"
       sodipodi:nodetypes="sssssscsss" />
    <path
       style="display:inline;fill:#1f65af;stroke-width:0.264583"
       d="m 25.037145,71.138894 c -0.219275,-0.219276 -0.3175,-1.56986 -0.3175,-4.365625 v -4.048125 h -1.439593 c -0.791777,0 -1.506797,-0.108739 -1.588935,-0.241639 -0.08214,-0.132903 -0.224266,-1.127995 -0.315841,-2.211316 -0.122868,-1.453536 -0.07863,-2.02398 0.16881,-2.176907 0.184419,-0.11398 2.519564,-0.266528 5.189209,-0.339002 5.614069,-0.152406 5.225221,-0.353621 5.248385,2.715863 0.0461,2.112324 0.373582,1.838998 -1.639636,1.934896 l -1.653646,0.07877 v 4.167793 c 0,2.888837 -0.09743,4.265221 -0.3175,4.485291 -0.174625,0.174625 -0.924719,0.3175 -1.666875,0.3175 -0.742156,0 -1.49225,-0.142875 -1.666875,-0.3175 z"
       id="path28"
       inkscape:label="t"
       sodipodi:nodetypes="sscssssscccsssss" />
    <path
       style="display:inline;fill:#1f65af;stroke-width:0.264583"
       d="m 37.259917,57.587412 c -3.408375,-1.066776 -7.239257,-5.594986 -7.24602,-8.564996 -0.0023,-1.026791 0.329805,-3.160732 0.836972,-3.474206 1.632798,-2.844771 1.216964,1.679687 1.28292,2.662689 0.0086,0.927137 0.916072,2.757039 1.711985,3.452339 0.384593,0.335975 1.077037,0.740173 1.538765,0.898216 2.773088,0.989032 5.539609,1.569446 8.37789,2.374047 0.0048,0.339813 -2.423711,2.312958 -3.386178,2.656695 -1.200852,0.428871 -1.733411,0.428053 -3.116334,-0.0048 z"
       id="path60"
       inkscape:label="čelist"
       sodipodi:nodetypes="ccccsccscc" />
    <path
       style="display:inline;fill:#e7b12e;stroke-width:0.264583"
       d="m 37.81652,54.661384 -1.569305,-0.527969 c 4.241873,0.154202 7.225339,-0.3917 10.598715,-2.38441 l 0.72136,1.323201 0.646189,1.156159 -1.811126,0.411931 c -2.170346,0.493635 -6.704108,0.504771 -8.585833,0.02109 z"
       id="path46"
       inkscape:label="zobák zadek"
       sodipodi:nodetypes="cccccssc" />
    <path
       style="display:inline;fill:#f4eb28;stroke-width:0.264583"
       d="m 36.096729,54.084335 c -0.218282,-0.0728 -0.566266,-0.186618 -0.773298,-0.252925 -0.706772,-0.226364 0.741208,-0.943373 2.047194,-1.013728 2.342431,-0.12619 4.230816,-1.749899 4.851446,-4.171471 0.181847,-0.709531 0.489907,-1.422244 0.684578,-1.583806 0.976677,-0.81057 7.910478,-0.387969 8.201705,0.499878 0.05688,0.173395 -0.719357,1.152853 -1.724967,2.176573 -2.140379,2.178932 -4.568581,3.460383 -7.7854,4.108644 -1.963341,0.395657 -4.675033,0.512398 -5.501258,0.236835 z"
       id="path36"
       inkscape:label="zobák předek" />
    <path
       style="display:inline;fill:#8fbde4;stroke-width:0.264583"
       d="m 31.337352,46.537036 c 1.285509,-7.076747 6.833111,-4.453015 10.820818,-3.213968 -1.194188,-0.128108 1.660865,-1.500007 3.417668,-1.500007 1.388987,0 1.73602,0.109773 2.718437,0.859896 0.6194,0.472942 1.271915,1.217617 1.45003,1.654832 l 0.323847,0.794937 -3.977552,-0.09701 c -3.809515,-0.09291 -4.11861,-0.06008 -7.316442,0.777196 -2.865085,0.74871 -4.9323,1.282485 -7.504471,2.066596 z"
       id="path38"
       sodipodi:nodetypes="ccssscsccc"
       inkscape:label="víčka" />
    <path
       style="display:inline;fill:#ea048c;stroke-width:0.264583"
       d="m 27.441445,48.857598 c -2.065624,-0.767539 -2.930582,-1.330918 -3.304995,-2.152665 -0.242911,-0.533132 -0.206031,-0.744229 0.210486,-1.204785 0.757132,-0.837186 2.346732,-1.560421 3.429651,-1.560421 h 0.961356 l -1.74874,-1.888801 c -1.765591,-1.907001 -2.121266,-2.578178 -1.960757,-3.70006 0.124559,-0.87061 1.134731,-1.281888 3.159643,-1.286405 1.389039,-0.0031 2.046985,0.146582 3.199324,0.727834 l 1.450671,0.731733 -0.518299,-1.459337 c -0.285065,-0.802636 -0.57899,-2.188389 -0.653169,-3.079452 -0.118948,-1.428857 -0.06448,-1.690499 0.461363,-2.216345 0.525807,-0.525808 0.789504,-0.580717 2.232538,-0.464884 4.537942,0.364262 7.678184,3.698863 8.377629,8.896145 0.248994,1.85017 0.231651,2.195969 -0.128185,2.555805 -0.228877,0.228876 -0.528067,0.616143 -0.664868,0.860592 -0.232615,0.415661 -0.280438,0.415757 -0.7382,0.0015 -1.703788,-1.541902 -4.915942,-1.972821 -6.970283,-0.935077 -1.81991,0.919322 -4.354686,3.991467 -4.175185,6.902412 l -2.61998,-0.727771 z"
       id="path52"
       inkscape:label="kohout"
       sodipodi:nodetypes="cssscsssscssssssscsccc" />
    <rect
       style="fill:#1f66b1;fill-opacity:1;stroke:none;stroke-width:0.0687917"
       id="rect905"
       width="5.1028566"
       height="3.7755065"
       x="56.393867"
       y="58.949635"
       ry="0.5291667"
       inkscape:label="pozadí TV" />
    <path
       id="path894"
       style="font-style:normal;font-variant:normal;font-weight:bold;font-stretch:normal;font-size:2.91042px;font-family:sans-serif;-inkscape-font-specification:'sans-serif Bold';fill:#ffffff;stroke-width:0.264583"
       d="m 56.840774,59.776471 v 0.413411 h 0.704866 v 1.708423 h 0.547253 v -1.708423 h 0.703318 v -0.413411 z m 1.985409,0 0.785482,2.121834 h 0.652674 l 0.785479,-2.121834 h -0.549836 l -0.561205,1.565793 -0.562758,-1.565793 z"
       inkscape:label="TV" />
    <path
       style="display:inline;fill:#2d2a2b;stroke-width:0.264583"
       d="m 33.57186,49.049978 c -0.418277,-0.418277 -0.40866,-0.459812 0.154717,-0.668219 0.582752,-0.215574 0.585634,-0.233295 0.09637,-0.592568 -0.482509,-0.354315 -0.472094,-0.382661 0.240583,-0.654736 1.466076,-0.559695 2.431518,0.885839 1.28476,1.92364 -0.617533,0.55886 -1.212171,0.556143 -1.776431,-0.0081 z m 9.408993,-2.590735 c -0.276025,-0.33259 -0.259468,-0.402849 0.09494,-0.402849 0.2361,0 0.429272,-0.119062 0.429272,-0.264583 0,-0.145521 -0.142875,-0.264584 -0.3175,-0.264584 -0.230793,0 -0.238066,-0.07943 -0.02663,-0.290866 0.346618,-0.346618 1.298942,-0.09596 1.485838,0.391078 0.311656,0.812164 -1.098046,1.516041 -1.665913,0.831804 z"
       id="path26"
       inkscape:label="oči" />
  </g>
</svg>
