<svg
	xmlns="http://www.w3.org/2000/svg"
	viewBox="0 0 260 260">
<g>
	<circle cx="130" cy="130" r="130"/>
	<path fill="white" d="M151.67 213.29C151.67 218.19 147.69 222.17 142.79 222.17C140.35 222.17 120.86 222.17 118.43 222.17C113.52 222.17 109.55 218.19 109.55 213.29C109.55 203.41 109.55 124.33 109.55 114.44C109.55 109.54 113.52 105.56 118.43 105.56C120.86 105.56 140.35 105.56 142.79 105.56C147.69 105.56 151.67 109.54 151.67 114.44C151.67 134.21 151.67 193.52 151.67 213.29ZM107.96 66.7C107.96 54.52 117.83 44.65 130 44.65C142.17 44.65 152.04 54.52 152.04 66.7C152.04 78.87 142.17 88.74 130 88.74C117.83 88.74 107.96 78.87 107.96 66.7Z"/>
</g>
</svg>
