<?xml version="1.0" standalone="no"?>
<!DOCTYPE svg PUBLIC "-//W3C//DTD SVG 20010904//EN"
 "http://www.w3.org/TR/2001/REC-SVG-20010904/DTD/svg10.dtd">
<svg version="1.0" xmlns="http://www.w3.org/2000/svg"
 width="686.000000pt" height="46.000000pt" viewBox="0 0 686.000000 46.000000"
 preserveAspectRatio="xMidYMid meet">

<g transform="translate(0.000000,46.000000) scale(0.100000,-0.100000)"
fill="#000000" stroke="none">
<path d="M2562 438 c-9 -9 -12 -64 -12 -200 l0 -188 80 0 c78 0 80 1 80 24 0
37 10 56 30 56 20 0 30 -19 30 -56 0 -24 2 -25 68 -22 l67 3 15 48 c16 49 16
49 29 24 23 -43 106 -81 176 -81 91 1 143 35 160 106 l7 28 22 -32 c30 -45 77
-70 136 -71 40 -2 50 -5 50 -19 0 -15 10 -18 55 -20 30 -1 63 -2 72 -2 14 -1
21 25 44 159 15 88 28 143 28 123 1 -26 6 -38 19 -42 13 -4 20 -24 29 -75 19
-124 79 -194 164 -193 72 1 131 51 176 149 26 55 24 73 -6 73 -10 0 -37 7 -60
15 l-41 14 -6 -27 c-7 -37 -17 -54 -38 -66 -25 -16 -58 27 -54 68 3 28 7 31
39 34 34 3 37 6 43 40 10 64 8 72 -19 72 -21 0 -25 5 -25 30 0 35 -20 43 -95
38 -43 -3 -50 -6 -55 -28 -4 -17 -12 -24 -25 -22 -11 2 -26 -6 -37 -20 -9 -12
-18 -18 -18 -11 0 6 -22 16 -50 22 -49 10 -80 7 -80 -9 0 -5 -15 -4 -32 1
-110 31 -214 -35 -237 -152 -5 -24 -9 -35 -10 -23 -1 28 -46 68 -106 95 -33
14 -44 24 -33 26 9 2 27 -1 38 -7 19 -10 26 -8 51 16 16 15 29 33 29 39 0 20
-75 47 -128 47 -93 -1 -156 -45 -156 -108 0 -43 30 -70 86 -79 44 -8 84 -37
74 -53 -12 -19 -65 -14 -96 10 l-30 21 -37 -26 -38 -27 -13 52 c-25 97 -87
152 -165 146 l-42 -3 -5 45 -5 45 -65 3 c-42 2 -70 -2 -78 -10z m958 -128 c50
-27 44 -80 -9 -80 -31 0 -44 8 -59 35 -22 41 21 70 68 45z"/>
<path d="M4997 421 c-5 -24 -10 -28 -28 -24 -28 8 -39 -11 -39 -69 0 -38 4
-48 20 -53 15 -5 20 -15 20 -44 0 -101 72 -220 136 -222 103 -4 146 27 208
150 15 29 26 55 24 57 -2 2 -32 12 -67 23 -44 14 -63 16 -65 8 -13 -49 -23
-71 -39 -81 -25 -15 -57 24 -57 70 0 33 1 34 40 34 l40 0 0 55 c0 53 -1 55
-26 55 -23 0 -26 3 -21 25 6 34 -16 45 -86 45 -52 0 -55 -1 -60 -29z"/>
<path d="M1225 431 c-104 -25 -170 -130 -145 -230 31 -122 119 -178 227 -146
53 16 94 50 118 95 15 29 15 30 -17 50 -49 30 -73 34 -102 15 -51 -33 -94 1
-84 66 4 33 51 49 76 26 10 -9 28 -17 39 -17 27 0 90 26 99 42 11 17 -66 82
-114 96 -43 13 -53 13 -97 3z"/>
<path d="M2324 430 c-62 -14 -102 -48 -132 -112 l-29 -60 -8 48 c-12 81 -87
128 -174 109 -79 -17 -151 -109 -151 -194 0 -133 158 -213 277 -140 62 38 52
72 -32 113 -28 14 -31 14 -54 -10 -13 -15 -29 -23 -38 -20 -8 3 -17 6 -19 6
-2 0 -4 11 -4 25 0 19 5 25 23 26 12 0 59 4 104 7 l82 7 7 -30 c10 -49 51
-112 89 -135 69 -43 170 -25 229 41 49 53 47 74 -9 101 -44 21 -45 21 -79 3
-42 -23 -81 -11 -88 28 -11 57 42 98 81 63 10 -9 27 -16 38 -16 26 0 89 26 98
41 11 16 -34 59 -90 85 -52 25 -69 27 -121 14z m-283 -86 c25 -31 -50 -71 -78
-43 -15 15 -5 39 21 49 31 13 42 12 57 -6z"/>
<path d="M4477 433 c-3 -5 -6 -91 -8 -193 l-4 -185 105 0 105 0 8 48 c4 26 6
107 5 180 l-3 132 -55 7 c-30 3 -76 9 -102 12 -25 4 -49 3 -51 -1z"/>
<path d="M4743 428 c-55 -27 -4 -82 76 -82 88 0 122 47 57 78 -39 18 -100 20
-133 4z"/>
<path d="M1499 414 c-20 -6 -33 -114 -15 -127 6 -4 30 -6 53 -4 49 5 51 12
-29 -100 -51 -71 -59 -88 -56 -120 l3 -38 169 -3 c93 -1 173 1 178 6 4 4 11
36 14 70 l7 62 -54 2 c-30 1 -66 2 -81 2 -16 1 -28 2 -28 4 0 2 13 21 28 41
16 20 48 64 71 99 53 78 50 102 -12 102 -23 0 -85 2 -137 5 -52 2 -102 2 -111
-1z"/>
<path d="M4235 402 c-72 -34 -115 -103 -115 -182 0 -108 108 -188 217 -161 48
12 103 54 103 78 0 7 -24 26 -52 42 l-53 30 -25 -24 c-15 -14 -32 -25 -38 -25
-15 0 -33 42 -23 53 4 4 51 10 105 14 l98 6 -5 47 c-11 92 -43 127 -125 136
-34 3 -58 -1 -87 -14z m94 -56 c10 -12 8 -19 -8 -35 -32 -32 -91 -22 -78 13
12 31 68 44 86 22z"/>
<path d="M4716 322 c-15 -3 -16 -18 -14 -135 l3 -132 97 0 c53 0 100 4 105 8
11 11 16 229 6 243 -8 11 -159 23 -197 16z"/>
<path d="M6126 273 c-17 -5 -18 -12 -12 -97 9 -132 16 -152 52 -148 16 1 47 2
70 2 55 1 89 35 89 92 0 32 -6 45 -29 65 -27 23 -38 25 -85 12 -9 -3 -17 8
-22 30 -6 30 -24 53 -39 50 -3 -1 -14 -3 -24 -6z m128 -109 c9 -3 16 -15 16
-25 0 -14 -7 -19 -25 -19 -29 0 -45 28 -24 41 17 11 14 10 33 3z"/>
<path d="M6493 234 c-46 -23 -69 -76 -54 -125 23 -77 101 -103 160 -53 17 14
31 32 31 40 0 21 -34 34 -72 28 -27 -5 -37 -2 -41 10 -14 36 23 62 50 35 8 -8
20 -6 43 6 26 14 29 19 19 31 -17 20 -64 44 -86 44 -10 0 -32 -8 -50 -16z"/>
<path d="M5446 219 c-43 -34 -33 -66 28 -86 17 -5 32 -15 34 -21 5 -15 -40
-16 -55 -1 -14 14 -53 -5 -53 -26 0 -24 61 -55 105 -55 56 0 85 22 85 65 0 35
-30 75 -56 75 -7 0 -16 5 -19 10 -4 7 2 9 18 5 19 -5 28 -2 36 14 9 16 8 22
-8 31 -32 17 -86 12 -115 -11z"/>
<path d="M5985 231 c-29 -12 -54 -44 -64 -78 -26 -92 93 -159 160 -92 l21 21
-31 20 c-29 19 -33 19 -50 4 -18 -17 -31 -12 -31 11 0 9 16 13 55 13 54 0 55
1 55 29 0 55 -63 94 -115 72z m53 -43 c-7 -20 -48 -23 -48 -4 0 11 9 16 26 16
16 0 24 -5 22 -12z"/>
<path d="M6667 233 c-4 -3 -7 -21 -7 -39 0 -28 4 -33 25 -36 l26 -3 -37 -52
c-20 -29 -34 -59 -31 -67 8 -21 59 -29 138 -21 l69 7 0 33 c0 30 -3 33 -40 39
-22 3 -40 8 -40 11 0 3 16 27 35 54 19 26 35 53 35 58 0 15 -159 30 -173 16z"/>
<path d="M38 194 c-35 -19 -35 -31 2 -104 28 -56 33 -60 64 -60 23 0 36 6 41
18 6 16 7 16 19 0 9 -12 27 -18 50 -18 36 0 38 2 70 72 l34 71 33 -69 c30 -59
38 -69 64 -72 19 -3 33 2 43 15 12 17 14 17 23 1 7 -12 22 -18 48 -18 36 0 38
2 71 70 37 76 35 89 -17 105 -18 5 -25 1 -35 -19 -13 -30 -21 -32 -38 -11 -17
20 -57 19 -69 -2 -10 -16 -13 -16 -32 9 -20 27 -21 27 -51 12 -28 -15 -34 -14
-71 2 -27 12 -42 15 -44 8 -2 -6 -10 -20 -18 -30 -14 -18 -16 -18 -26 -1 -15
25 -66 23 -74 -4 -7 -20 -8 -20 -33 10 -26 29 -28 30 -54 15z"/>
<path d="M673 195 c-18 -8 -33 -20 -33 -27 0 -7 15 -40 33 -73 28 -52 36 -60
65 -63 22 -2 34 2 38 13 6 15 8 15 24 0 11 -10 31 -15 51 -13 31 3 37 9 67 72
36 73 34 86 -15 100 -17 5 -25 0 -39 -23 -17 -29 -18 -29 -31 -11 -19 27 -59
26 -74 -1 -11 -21 -11 -20 -30 10 -10 17 -20 31 -21 31 -2 -1 -18 -7 -35 -15z"/>
<path d="M5633 195 c-18 -8 -33 -20 -33 -27 0 -7 15 -40 33 -73 28 -52 36 -60
65 -63 22 -2 34 2 38 13 6 15 8 15 24 0 11 -10 31 -15 52 -13 30 3 36 9 67 72
36 73 34 86 -16 100 -18 6 -25 1 -38 -25 -16 -31 -17 -31 -31 -10 -20 27 -60
27 -75 0 -11 -21 -11 -20 -30 10 -10 17 -20 31 -21 31 -2 -1 -18 -7 -35 -15z"/>
<path d="M967 52 c-21 -23 -6 -42 33 -42 34 0 53 14 48 36 -5 27 -59 31 -81 6z"/>
<path d="M5307 52 c-21 -23 -6 -42 33 -42 34 0 53 14 48 36 -5 27 -59 31 -81
6z"/>
<path d="M6346 54 c-20 -20 -20 -30 0 -38 45 -17 93 6 80 39 -7 20 -60 19 -80
-1z"/>
</g>
</svg>
