<?xml version="1.0" encoding="UTF-8" standalone="no"?>
<!DOCTYPE svg PUBLIC "-//W3C//DTD SVG 1.1//EN" "http://www.w3.org/Graphics/SVG/1.1/DTD/svg11.dtd">
<svg version="1.1" xmlns="http://www.w3.org/2000/svg" xmlns:xlink="http://www.w3.org/1999/xlink" preserveAspectRatio="xMidYMid meet" viewBox="0 0 150 50" width="150" height="50"><defs><path d="M2.15 4.43C2.08 4.54 2 10.62 2 17.92C2 30.06 2.02 31.24 2.32 31.47C2.57 31.7 6.03 31.73 23.16 31.73C46.23 31.73 44.8 31.81 47.85 30.3C51.44 28.53 54.02 25.41 55.1 21.53C55.62 19.67 55.66 16.55 55.19 14.61C53.98 9.64 49.94 5.65 44.88 4.45C43.86 4.2 40.66 4.14 23.27 4.07C12.03 4.01 2.72 4.03 2.57 4.11C2.42 4.16 2.23 4.31 2.15 4.43ZM41.41 15.19C41.75 16.51 41.81 19.09 41.51 20.35C41.17 21.87 40.04 23.87 38.82 25.13C37.4 26.58 36.22 27.35 34.6 27.91C33.36 28.35 33.23 28.35 24.59 28.35C24 28.35 21.09 28.35 15.84 28.35C15.8 22.19 15.78 18.77 15.78 18.09C15.76 12.44 15.78 7.72 15.84 7.59C15.97 7.23 31.74 7.27 33.49 7.64C37.22 8.44 40.49 11.54 41.41 15.19Z" id="d1Zr2uzxj6"></path><path d="M142.66 41.76C142.59 41.97 142.24 42.98 141.62 44.81C141.99 44.81 142.2 44.81 142.24 44.81C142.81 44.81 142.88 44.74 143.13 43.91C143.15 43.85 143.24 43.56 143.41 43.03L144.61 43.03L145.82 43.03C145.99 43.57 146.08 43.87 146.1 43.93C146.35 44.76 146.42 44.81 147 44.81C147.34 44.81 147.63 44.76 147.63 44.68C147.63 44.59 147.16 43.12 146.57 41.39C146.5 41.18 146.15 40.12 145.52 38.23C145.02 38.23 144.75 38.23 144.69 38.23C144.18 38.23 143.81 38.32 143.77 38.45C143.71 38.58 143.22 40.07 142.66 41.76ZM144.67 42.1C144.05 42.12 143.86 42.05 143.86 41.84C143.86 41.35 144.46 39.36 144.61 39.36C144.69 39.36 144.9 39.88 145.09 40.52C145.56 42.12 145.56 42.08 144.67 42.1Z" id="b3Eo9d8Tyw"></path><path d="M59.32 4.43C59.24 4.54 59.17 10.56 59.17 17.83C59.17 28.91 59.21 31.06 59.43 31.38C59.7 31.71 59.98 31.73 66.11 31.73C71.12 31.73 72.57 31.68 72.76 31.49C72.95 31.28 72.98 28.67 72.95 17.84C72.89 9.73 72.8 4.37 72.7 4.26C72.49 4.05 60.22 3.92 59.73 4.11C59.58 4.16 59.4 4.31 59.32 4.43Z" id="e2ffIpn0W"></path><path d="M124.85 44.81L125.51 44.81L126.17 44.81L126.17 41.52L126.17 38.23L125.51 38.23L124.85 38.23L124.85 41.52L124.85 44.81Z" id="f3r55qCO02"></path><path d="M78.01 11.78C76.92 14.04 76.62 15.4 76.62 17.81C76.62 20.07 76.8 21.1 77.56 22.98C79.18 27.07 82.64 30.13 86.91 31.24C88.38 31.64 88.76 31.64 109.36 31.64C130.01 31.64 130.29 31.64 130.5 31.26C130.63 31.02 130.69 28.5 130.69 23.96C130.67 18.09 130.63 16.96 130.39 16.62C130.1 16.21 130.05 16.21 123.72 16.21C123.3 16.21 121.16 16.21 117.33 16.21C117.17 16.46 117.08 16.59 117.06 16.62C116.85 16.98 116.82 18.11 116.84 22.49C116.87 27.03 116.84 27.97 116.61 28.2C116.37 28.42 115.07 28.46 107.75 28.4C98.24 28.31 98.39 28.33 95.87 27.01C94.21 26.14 93.05 25.09 92.05 23.58C90.86 21.82 90.56 20.8 90.45 18.45C90.36 16.04 90.6 14.76 91.47 13.01C92.67 10.62 94.5 9.06 97.34 7.95C97.42 7.91 97.84 7.75 98.6 7.46L107.8 7.36L117.02 7.27C117.4 6.65 117.6 6.3 117.64 6.23C118.36 5.05 118.44 4.45 117.91 4.16C117.46 3.94 90.11 3.94 88.44 4.18C83.82 4.86 79.97 7.66 78.01 11.78Z" id="a4wSZX0gyK"></path><path d="M105.81 41.46C105.83 41.54 106.33 42.35 106.92 43.21C107.93 44.76 107.99 44.81 108.71 44.81C108.75 44.81 109 44.81 109.44 44.81C108.76 43.83 108.39 43.28 108.31 43.18C107.67 42.29 107.16 41.46 107.16 41.37C107.16 41.27 107.59 40.63 108.14 39.94C108.67 39.26 109.19 38.58 109.29 38.45C109.42 38.28 109.31 38.23 108.8 38.23C108.18 38.23 108.03 38.34 106.94 39.75C106.28 40.6 105.77 41.37 105.81 41.46Z" id="d2o352OByM"></path><path d="M134.45 31.53C134.79 31.87 147.29 31.81 147.68 31.47C147.98 31.24 148 30.06 148 18.05C148 9.34 147.95 4.77 147.81 4.52C147.63 4.18 147.34 4.16 141.04 4.16C140.6 4.16 138.41 4.16 134.47 4.16L134.24 4.58C134.18 22.34 134.25 31.33 134.45 31.53Z" id="b1rvFPf1"></path><path d="M104.34 44.81L104.9 44.81L105.47 44.81L105.47 41.52L105.47 38.23L104.9 38.23L104.34 38.23L104.34 41.52L104.34 44.81Z" id="aNH9MAGq2"></path><path d="M2.75 39.22C2.33 40.09 2.71 40.82 4.12 41.8C5.12 42.5 5.34 42.74 5.34 43.18C5.34 43.8 4.82 44.06 3.54 44.06C2.82 44.06 2.69 44.12 2.75 44.38C2.8 44.66 3.05 44.74 4.14 44.78C5.36 44.83 5.53 44.78 6.08 44.34C6.55 43.95 6.66 43.7 6.66 43.12C6.66 42.27 6.32 41.82 5.08 40.99C3.93 40.24 3.67 39.88 4.01 39.47C4.18 39.26 4.57 39.17 5.27 39.17C6.13 39.17 6.28 39.11 6.28 38.81C6.28 38.62 6.15 38.4 5.98 38.34C5.47 38.15 3.95 38.23 3.46 38.47C3.2 38.6 2.88 38.94 2.75 39.22Z" id="ahYWXZuw1"></path><path d="M83.75 41.76C83.68 41.97 83.34 42.98 82.71 44.81C83.1 44.81 83.31 44.81 83.35 44.81C83.96 44.81 84.01 44.76 84.24 43.91C84.26 43.85 84.34 43.56 84.5 43.03L85.71 43.03L86.91 43.03C87.08 43.57 87.17 43.87 87.19 43.93C87.46 44.76 87.51 44.81 88.1 44.81C88.68 44.81 88.74 44.78 88.6 44.38C88.53 44.15 88.06 42.67 87.55 41.09C87.49 40.9 87.18 39.94 86.63 38.23C86.12 38.23 85.84 38.23 85.78 38.23C85.27 38.23 84.9 38.32 84.86 38.45C84.8 38.58 84.31 40.07 83.75 41.76ZM86.52 42.03C86.48 42.12 86.1 42.18 85.69 42.18C85.07 42.18 84.95 42.12 84.95 41.78C84.95 41.22 85.52 39.36 85.69 39.36C85.78 39.36 86.01 39.92 86.21 40.62C86.42 41.33 86.57 41.95 86.52 42.03Z" id="b18v3T2z3F"></path><path d="M22.47 44.81C23.66 44.81 24.31 44.81 24.45 44.81C26.29 44.81 26.42 44.79 26.42 44.44C26.42 44.12 26.27 44.08 25.16 44.02C25.08 44.02 24.65 44 23.88 43.97L23.82 41.09L23.77 38.23L23.13 38.23L22.47 38.23L22.47 41.52L22.47 44.81Z" id="c72b0DF8KN"></path><path d="M63.46 41.65C63.53 41.86 63.89 42.92 64.53 44.81L65.29 44.81L66.04 44.81C66.65 42.98 66.99 41.97 67.06 41.76C67.62 40.07 68.11 38.58 68.17 38.45C68.22 38.26 68.09 38.21 67.62 38.26C66.92 38.32 66.98 38.21 65.74 42.37C65.71 42.46 65.57 42.93 65.32 43.78C65.01 42.76 64.83 42.2 64.8 42.08C64.51 41.14 64.14 39.9 63.97 39.3C63.67 38.26 63.63 38.23 63.01 38.23C62.65 38.23 62.37 38.28 62.37 38.36C62.37 38.43 62.86 39.92 63.46 41.65Z" id="e9LqHeiSPU"></path><path d="M41.65 42.57C41.78 43.14 42.02 43.78 42.19 44.02C42.87 44.91 44.79 45.15 46 44.53C46.77 44.14 47.2 43.06 47.2 41.52C47.2 40.13 46.92 39.37 46.18 38.7C45.73 38.3 43.76 38.09 43.08 38.4C41.89 38.92 41.27 40.75 41.65 42.57ZM45.41 43.7C44.92 44.19 43.85 44.17 43.38 43.66C42.63 42.84 42.63 40.22 43.4 39.41C43.96 38.81 44.9 38.83 45.39 39.45C46.13 40.39 46.15 42.97 45.41 43.7Z" id="b2g580pa22"></path></defs><g><g><g><use xlink:href="#d1Zr2uzxj6" opacity="1" fill="#009eff" fill-opacity="1"></use><g><use xlink:href="#d1Zr2uzxj6" opacity="1" fill-opacity="0" stroke="#000000" stroke-width="1" stroke-opacity="0"></use></g></g><g><use xlink:href="#b3Eo9d8Tyw" opacity="1" fill="#009eff" fill-opacity="1"></use><g><use xlink:href="#b3Eo9d8Tyw" opacity="1" fill-opacity="0" stroke="#000000" stroke-width="1" stroke-opacity="0"></use></g></g><g><use xlink:href="#e2ffIpn0W" opacity="1" fill="#009eff" fill-opacity="1"></use><g><use xlink:href="#e2ffIpn0W" opacity="1" fill-opacity="0" stroke="#000000" stroke-width="1" stroke-opacity="0"></use></g></g><g><use xlink:href="#f3r55qCO02" opacity="1" fill="#009eff" fill-opacity="1"></use><g><use xlink:href="#f3r55qCO02" opacity="1" fill-opacity="0" stroke="#000000" stroke-width="1" stroke-opacity="0"></use></g></g><g><use xlink:href="#a4wSZX0gyK" opacity="1" fill="#009eff" fill-opacity="1"></use><g><use xlink:href="#a4wSZX0gyK" opacity="1" fill-opacity="0" stroke="#000000" stroke-width="1" stroke-opacity="0"></use></g></g><g><use xlink:href="#d2o352OByM" opacity="1" fill="#009eff" fill-opacity="1"></use><g><use xlink:href="#d2o352OByM" opacity="1" fill-opacity="0" stroke="#000000" stroke-width="1" stroke-opacity="0"></use></g></g><g><use xlink:href="#b1rvFPf1" opacity="1" fill="#009eff" fill-opacity="1"></use><g><use xlink:href="#b1rvFPf1" opacity="1" fill-opacity="0" stroke="#000000" stroke-width="1" stroke-opacity="0"></use></g></g><g><use xlink:href="#aNH9MAGq2" opacity="1" fill="#009eff" fill-opacity="1"></use><g><use xlink:href="#aNH9MAGq2" opacity="1" fill-opacity="0" stroke="#000000" stroke-width="1" stroke-opacity="0"></use></g></g><g><use xlink:href="#ahYWXZuw1" opacity="1" fill="#009eff" fill-opacity="1"></use><g><use xlink:href="#ahYWXZuw1" opacity="1" fill-opacity="0" stroke="#000000" stroke-width="1" stroke-opacity="0"></use></g></g><g><use xlink:href="#b18v3T2z3F" opacity="1" fill="#009eff" fill-opacity="1"></use><g><use xlink:href="#b18v3T2z3F" opacity="1" fill-opacity="0" stroke="#000000" stroke-width="1" stroke-opacity="0"></use></g></g><g><use xlink:href="#c72b0DF8KN" opacity="1" fill="#009eff" fill-opacity="1"></use><g><use xlink:href="#c72b0DF8KN" opacity="1" fill-opacity="0" stroke="#000000" stroke-width="1" stroke-opacity="0"></use></g></g><g><use xlink:href="#e9LqHeiSPU" opacity="1" fill="#009eff" fill-opacity="1"></use><g><use xlink:href="#e9LqHeiSPU" opacity="1" fill-opacity="0" stroke="#000000" stroke-width="1" stroke-opacity="0"></use></g></g><g><use xlink:href="#b2g580pa22" opacity="1" fill="#009eff" fill-opacity="1"></use><g><use xlink:href="#b2g580pa22" opacity="1" fill-opacity="0" stroke="#000000" stroke-width="1" stroke-opacity="0"></use></g></g></g></g></svg>