<?xml version="1.0" encoding="UTF-8" standalone="no"?>
<!DOCTYPE svg PUBLIC "-//W3C//DTD SVG 1.1//EN" "http://www.w3.org/Graphics/SVG/1.1/DTD/svg11.dtd">
<svg version="1.1" xmlns="http://www.w3.org/2000/svg" xmlns:xlink="http://www.w3.org/1999/xlink" preserveAspectRatio="xMidYMid meet" viewBox="0 0 150 50" width="150" height="50"><defs><path d="M13.39 40.2L14.1 40.2C14.1 41.5 14.1 42.22 14.1 42.37C14.26 42.16 14.45 42 14.68 41.89C14.9 41.78 15.14 41.73 15.4 41.73C15.95 41.73 16.39 41.91 16.73 42.29C17.07 42.66 17.23 43.21 17.23 43.94C17.23 44.63 17.07 45.21 16.73 45.66C16.4 46.12 15.93 46.35 15.34 46.35C15.01 46.35 14.73 46.27 14.5 46.11C14.36 46.01 14.22 45.86 14.06 45.65C14.06 45.69 14.06 45.87 14.06 46.21L13.39 46.21L13.39 40.2ZM16.19 45.23C16.39 44.91 16.48 44.49 16.48 43.98C16.48 43.52 16.39 43.14 16.19 42.83C15.99 42.53 15.7 42.38 15.32 42.38C14.98 42.38 14.69 42.51 14.44 42.75C14.19 43 14.06 43.41 14.06 43.98C14.06 44.39 14.11 44.72 14.22 44.98C14.41 45.46 14.77 45.7 15.3 45.7C15.69 45.7 15.99 45.54 16.19 45.23Z" id="g2Vg1O5EXW"></path><path d="M13.39 40.2L14.1 40.2C14.1 41.5 14.1 42.22 14.1 42.37C14.26 42.16 14.45 42 14.68 41.89C14.9 41.78 15.14 41.73 15.4 41.73C15.95 41.73 16.39 41.91 16.73 42.29C17.07 42.66 17.23 43.21 17.23 43.94C17.23 44.63 17.07 45.21 16.73 45.66C16.4 46.12 15.93 46.35 15.34 46.35C15.01 46.35 14.73 46.27 14.5 46.11C14.36 46.01 14.22 45.86 14.06 45.65C14.06 45.69 14.06 45.87 14.06 46.21L13.39 46.21L13.39 40.2ZM16.19 45.23C16.39 44.91 16.48 44.49 16.48 43.98C16.48 43.52 16.39 43.14 16.19 42.83C15.99 42.53 15.7 42.38 15.32 42.38C14.98 42.38 14.69 42.51 14.44 42.75C14.19 43 14.06 43.41 14.06 43.98C14.06 44.39 14.11 44.72 14.22 44.98C14.41 45.46 14.77 45.7 15.3 45.7C15.69 45.7 15.99 45.54 16.19 45.23Z" id="a6KWp8sDlG"></path><path d="M20.61 41.84C21.1 41.84 21.37 41.84 21.42 41.84C21.32 42.12 21.09 42.76 20.73 43.76C20.47 44.51 20.24 45.12 20.06 45.59C19.64 46.71 19.34 47.39 19.17 47.63C18.99 47.88 18.69 48 18.27 48C18.16 48 18.08 48 18.03 47.99C17.97 47.98 17.9 47.96 17.82 47.94C17.82 47.88 17.82 47.34 17.82 47.27C17.95 47.31 18.04 47.33 18.1 47.34C18.16 47.35 18.21 47.35 18.25 47.35C18.39 47.35 18.49 47.33 18.55 47.28C18.62 47.24 18.67 47.18 18.71 47.12C18.73 47.1 18.78 46.99 18.86 46.78C18.94 46.58 19 46.43 19.04 46.34C18.94 46.04 18.4 44.54 17.43 41.84L18.26 41.84L19.43 45.4L20.61 41.84Z" id="b1MY2BbcT6"></path><path d="M20.61 41.84C21.1 41.84 21.37 41.84 21.42 41.84C21.32 42.12 21.09 42.76 20.73 43.76C20.47 44.51 20.24 45.12 20.06 45.59C19.64 46.71 19.34 47.39 19.17 47.63C18.99 47.88 18.69 48 18.27 48C18.16 48 18.08 48 18.03 47.99C17.97 47.98 17.9 47.96 17.82 47.94C17.82 47.88 17.82 47.34 17.82 47.27C17.95 47.31 18.04 47.33 18.1 47.34C18.16 47.35 18.21 47.35 18.25 47.35C18.39 47.35 18.49 47.33 18.55 47.28C18.62 47.24 18.67 47.18 18.71 47.12C18.73 47.1 18.78 46.99 18.86 46.78C18.94 46.58 19 46.43 19.04 46.34C18.94 46.04 18.4 44.54 17.43 41.84L18.26 41.84L19.43 45.4L20.61 41.84Z" id="b3w8vPuJ0J"></path><path d="M23.53 45.84C23.58 45.71 23.97 44.62 24.02 44.49C24.7 44.78 25.2 44.93 25.66 44.93C26.13 44.93 26.36 44.76 26.36 44.5C26.36 44.15 26.03 44.05 25.47 43.88C24.44 43.55 23.73 43.15 23.73 41.98C23.73 40.78 24.48 40.16 25.89 40.16C26.61 40.16 27.27 40.31 27.83 40.6C27.76 40.73 27.24 41.71 27.17 41.83C26.61 41.59 26.27 41.5 25.87 41.5C25.46 41.5 25.23 41.64 25.23 41.86C25.23 42.18 25.42 42.27 26.31 42.6C27.34 42.97 27.96 43.46 27.96 44.44C27.96 45.69 27.14 46.33 25.63 46.33C24.87 46.33 24.2 46.17 23.53 45.84Z" id="e49jPWd12W"></path><path d="M23.53 45.84C23.58 45.71 23.97 44.62 24.02 44.49C24.7 44.78 25.2 44.93 25.66 44.93C26.13 44.93 26.36 44.76 26.36 44.5C26.36 44.15 26.03 44.05 25.47 43.88C24.44 43.55 23.73 43.15 23.73 41.98C23.73 40.78 24.48 40.16 25.89 40.16C26.61 40.16 27.27 40.31 27.83 40.6C27.76 40.73 27.24 41.71 27.17 41.83C26.61 41.59 26.27 41.5 25.87 41.5C25.46 41.5 25.23 41.64 25.23 41.86C25.23 42.18 25.42 42.27 26.31 42.6C27.34 42.97 27.96 43.46 27.96 44.44C27.96 45.69 27.14 46.33 25.63 46.33C24.87 46.33 24.2 46.17 23.53 45.84Z" id="mxqVNJmCn"></path><path d="M34.24 46.21L32.34 46.21L30.36 43.59C30.36 44.72 30.36 45.35 30.36 45.47C30.36 45.97 30.13 46.21 29.63 46.21C29.57 46.21 29.29 46.21 28.77 46.21L28.77 40.28L30.36 40.28L30.36 42.84C31.2 41.66 31.66 41.01 31.76 40.88C32.05 40.47 32.42 40.28 32.92 40.28C33 40.28 33.4 40.28 34.11 40.28L31.86 43.12L34.24 46.21Z" id="aGEF86Cdc"></path><path d="M34.24 46.21L32.34 46.21L30.36 43.59C30.36 44.72 30.36 45.35 30.36 45.47C30.36 45.97 30.13 46.21 29.63 46.21C29.57 46.21 29.29 46.21 28.77 46.21L28.77 40.28L30.36 40.28L30.36 42.84C31.2 41.66 31.66 41.01 31.76 40.88C32.05 40.47 32.42 40.28 32.92 40.28C33 40.28 33.4 40.28 34.11 40.28L31.86 43.12L34.24 46.21Z" id="b72dlh8nc"></path><path d="M38.22 46.21L36.65 46.21L36.65 43.95L37.31 42.71L35.85 42.71L34.45 40.28L36.29 40.28L37.43 42.48L38.6 40.28L40.36 40.28L38.22 44.02L38.22 46.21Z" id="b18TMzc0oi"></path><path d="M38.22 46.21L36.65 46.21L36.65 43.95L37.31 42.71L35.85 42.71L34.45 40.28L36.29 40.28L37.43 42.48L38.6 40.28L40.36 40.28L38.22 44.02L38.22 46.21Z" id="a3jETjE8L6"></path><path d="M42.49 44.81L45.1 44.81L45.1 46.21L40.9 46.21L40.9 40.28C41.42 40.28 41.7 40.28 41.76 40.28C42.26 40.28 42.49 40.51 42.49 41.01C42.49 41.52 42.49 42.79 42.49 44.81Z" id="g330Nxw4iq"></path><path d="M42.49 44.81L45.1 44.81L45.1 46.21L40.9 46.21L40.9 40.28C41.42 40.28 41.7 40.28 41.76 40.28C42.26 40.28 42.49 40.51 42.49 41.01C42.49 41.52 42.49 42.79 42.49 44.81Z" id="d2unNh4zOZ"></path><path d="M45.79 46.21C45.79 43.09 45.79 41.36 45.79 41.01C45.79 40.51 46.02 40.28 46.52 40.28C46.58 40.28 46.86 40.28 47.37 40.28L47.37 46.21L45.79 46.21Z" id="b2ka99tTJE"></path><path d="M45.79 46.21C45.79 43.09 45.79 41.36 45.79 41.01C45.79 40.51 46.02 40.28 46.52 40.28C46.58 40.28 46.86 40.28 47.37 40.28L47.37 46.21L45.79 46.21Z" id="h6Cjv8IBp"></path><path d="M53.91 40.28L53.91 46.21L52.37 46.21L50.01 42.74L50.01 46.21L48.54 46.21L48.54 40.28L50.06 40.28L52.45 43.78C52.45 42.13 52.45 41.21 52.45 41.03C52.45 40.53 52.68 40.29 53.18 40.28C53.28 40.28 53.52 40.28 53.91 40.28Z" id="d3EgXgXkzi"></path><path d="M53.91 40.28L53.91 46.21L52.37 46.21L50.01 42.74L50.01 46.21L48.54 46.21L48.54 40.28L50.06 40.28L52.45 43.78C52.45 42.13 52.45 41.21 52.45 41.03C52.45 40.53 52.68 40.29 53.18 40.28C53.28 40.28 53.52 40.28 53.91 40.28Z" id="a1TAEnQ4eb"></path><path d="M60.56 46.21L58.66 46.21L56.68 43.59C56.68 44.72 56.68 45.35 56.68 45.47C56.68 45.97 56.44 46.21 55.94 46.21C55.89 46.21 55.6 46.21 55.09 46.21L55.09 40.28L56.68 40.28L56.68 42.84C57.52 41.66 57.98 41.01 58.07 40.88C58.37 40.47 58.73 40.28 59.24 40.28C59.32 40.28 59.71 40.28 60.43 40.28L58.17 43.12L60.56 46.21Z" id="aLbT87SF"></path><path d="M60.56 46.21L58.66 46.21L56.68 43.59C56.68 44.72 56.68 45.35 56.68 45.47C56.68 45.97 56.44 46.21 55.94 46.21C55.89 46.21 55.6 46.21 55.09 46.21L55.09 40.28L56.68 40.28L56.68 42.84C57.52 41.66 57.98 41.01 58.07 40.88C58.37 40.47 58.73 40.28 59.24 40.28C59.32 40.28 59.71 40.28 60.43 40.28L58.17 43.12L60.56 46.21Z" id="d1pdDOQFKw"></path><path d="M108.59 26.06C108.59 26.06 110.71 17 104.36 11.94C101.39 9.56 105.25 6.84 107.34 6.32C109.43 5.8 113.99 4.3 115.28 8.4C116.9 13.58 114.32 18.52 112.48 22.45C110.55 26.58 108.33 28.54 108.61 26.06" id="bibHYACw2"></path><path d="M112.24 30.52C115.08 31.14 123.13 32.11 132.49 23.23C134.83 21.03 135.92 20.21 136.15 22C136.59 25.37 129.23 35.64 122.51 35.06C114.76 34.4 109.41 29.89 112.24 30.52" id="a1DxedpVtZ"></path><path d="M111.47 26.01C111.47 26.01 119.18 16.79 116.91 9.1C115.73 5.08 119.91 4.64 121.71 4.81C124.22 5.05 133.44 4.81 126.17 17.42C124.56 20.2 121.78 22.89 118.07 24.92C113.07 27.66 108.59 29.68 111.45 26.02" id="b4ILl1fX3S"></path><path d="M112.28 28.76C121.18 25.67 127.49 21.44 129.99 12.83C130.75 10.18 131.22 8.21 132.74 9.2C134.85 10.57 138.48 18.6 126.96 26.08C119.32 31.03 109.11 29.86 112.28 28.76" id="bwXndI2BR"></path><path d="M111.34 35.4C111.34 35.4 110.62 31.49 111.6 32.5C112.74 33.68 118.88 37.74 124.62 36.91C128.6 36.33 121.09 40.5 116.64 42.56C112.43 44.52 111.71 38.07 111.35 35.41" id="b1UWODEndk"></path><path d="M108.44 32.65C108.44 32.65 109.01 31.7 109.29 32.65C109.57 33.6 109.7 42.14 112.1 43.6C114.5 45.05 103.12 47.79 99.68 47.57C96.23 47.34 96.59 46.39 98.56 45.49C100.54 44.58 104.91 41.84 108.44 32.65" id="b1gFjTG6LJ"></path><path d="M105.35 32.57C107.26 30.42 107.83 30.77 107.05 32.1C106.27 33.43 102.77 45.15 90 46.17C77.23 47.2 71.39 40.26 83.7 40.36C91.49 40.42 100.22 38.39 105.35 32.57" id="b2D5ha4TPw"></path><path d="M112.11 43.61C111.56 43.21 111.15 42.65 110.93 42.02C107.6 44.23 104.05 46.1 100.33 47.6C104.36 47.5 114.37 44.98 112.11 43.63" id="b17sl6pWsL"></path><path d="M115.73 10.84C115.68 10.01 115.53 9.19 115.29 8.4C114.01 4.3 109.44 5.8 107.35 6.32C106.16 6.66 105.08 7.29 104.21 8.16C108.6 8.46 112.53 9.37 115.74 10.84" id="a2HncyduIU"></path><path d="M117.31 11.66C120.64 13.53 123 16.1 123.99 19.3C124.08 19.56 124.14 19.83 124.21 20.1C124.94 19.27 125.6 18.37 126.17 17.42C133.44 4.79 124.22 5.06 121.71 4.81C119.91 4.64 115.73 5.08 116.91 9.1C117.15 9.93 117.29 10.79 117.31 11.66" id="e2XDqsf5RQ"></path><path d="M124.48 22.02C124.58 24.01 124.24 26.01 123.5 27.86C124.71 27.38 125.87 26.79 126.96 26.09C138.5 18.61 134.85 10.59 132.74 9.22C131.22 8.23 130.75 10.22 129.99 12.85C129.02 16.36 127.12 19.53 124.48 22.04" id="c5cKge8xMf"></path><path d="M136.15 22C135.92 20.21 134.82 21.02 132.49 23.23C128.99 26.55 125.68 28.49 122.74 29.59C121.83 31.38 120.7 33.05 119.39 34.58C120.42 34.81 121.46 34.97 122.51 35.06C129.23 35.64 136.57 25.35 136.15 22" id="b1mezTYWf"></path><path d="M124.62 36.9C122.39 37.16 120.13 36.89 118.03 36.11C116.36 37.83 114.55 39.41 112.6 40.81C113.36 42.45 114.58 43.51 116.64 42.55C121.06 40.49 128.6 36.32 124.62 36.9" id="be6oSfyVS"></path><path d="M15.64 33.71L13.93 33.71L13.93 17.82L12 17.82L12 16.24L13.93 16.24C13.93 11.54 13.93 8.92 13.93 8.4C13.93 7.11 13.97 5.26 14.62 4.12C15.43 2.76 16.93 1.95 18.51 2C19.03 1.99 19.54 2.08 20.03 2.27C20.03 2.42 20.03 3.67 20.03 3.82C19.57 3.7 19.1 3.63 18.63 3.59C15.67 3.59 15.64 6.54 15.64 8.74C15.64 9.24 15.64 11.74 15.64 16.24L20.03 16.24L20.03 17.83L15.64 17.83L15.64 33.71Z" id="aWNUKkQZZ"></path><path d="M22.45 18.5C22.49 18.5 22.52 18.5 22.52 18.5C23.2 16.91 24.45 15.85 26.31 15.85C26.95 15.86 27.58 16 28.16 16.27C28.07 16.42 27.35 17.63 27.26 17.78C26.89 17.56 26.47 17.44 26.04 17.44C22.22 17.44 22.45 22.21 22.45 24.78C22.45 25.37 22.45 28.35 22.45 33.71L20.75 33.71L20.75 16.24L22.45 16.24L22.45 18.5Z" id="c1lMaKBvhu"></path><path d="M28.99 25.12C28.87 29.54 31.94 32.5 35.99 32.5C38.71 32.5 40.9 30.87 42.17 28.53C42.31 28.61 43.46 29.28 43.61 29.36C42.13 32.32 39.08 34.16 35.77 34.09C30.59 34.09 27.3 29.89 27.3 24.93C27.3 20.05 30.66 15.85 35.77 15.85C41.07 15.85 44.21 20.09 44.16 25.12C41.12 25.12 32.02 25.12 28.99 25.12ZM42.46 23.53C42.02 20.32 39.37 17.44 35.8 17.44C32.31 17.46 29.39 20.07 28.99 23.53C31.68 23.53 39.76 23.53 42.46 23.53Z" id="a4CTytdYMt"></path><path d="M46.03 25.12C45.91 29.54 48.97 32.5 53.02 32.5C55.75 32.5 57.94 30.87 59.2 28.53C59.35 28.61 60.49 29.28 60.64 29.36C59.16 32.32 56.11 34.16 52.81 34.09C47.62 34.09 44.33 29.89 44.33 24.93C44.33 20.05 47.7 15.85 52.81 15.85C58.1 15.85 61.25 20.09 61.19 25.12C58.16 25.12 49.06 25.12 46.03 25.12ZM59.49 23.53C59.08 20.32 56.43 17.44 52.84 17.44C49.35 17.46 46.43 20.07 46.03 23.53C48.72 23.53 56.8 23.53 59.49 23.53Z" id="c4FgXzEcj"></path><path d="M73.21 20.59C72.33 19.83 71.21 19.4 70.05 19.37C69.17 19.37 68.01 19.88 68.01 20.9C68.01 21.92 69.3 22.38 70.12 22.66C70.24 22.7 71.22 22.99 71.34 23.03C73.89 23.78 75.86 25.07 75.86 28.03C75.86 29.85 75.42 31.73 73.96 32.97C72.48 34.13 70.64 34.74 68.76 34.69C66.45 34.66 64.2 33.92 62.32 32.57C62.53 32.19 64.16 29.12 64.37 28.73C65.56 29.78 66.97 30.63 68.6 30.63C69.71 30.63 70.9 30.07 70.9 28.78C70.9 27.49 69.03 26.99 68.01 26.69C65.02 25.84 63.06 25.07 63.06 21.52C63.06 17.8 65.7 15.37 69.37 15.37C71.38 15.41 73.35 15.92 75.11 16.88C74.73 17.62 73.59 19.84 73.21 20.59Z" id="aI7DCz2S6"></path><path d="M80.84 31.01L79.57 34.19L74.52 34.19L81.58 15.87L86.77 15.87L93.67 34.19L88.58 34.19L87.39 31.01L80.84 31.01ZM84.16 21.54L84.12 21.54L82.15 27.37L86.12 27.37L84.16 21.54Z" id="a222Mi1uO"></path><path d="M99.04 19.9L99.04 34.19L94.27 34.19L94.27 19.9L90.34 19.9L90.34 15.87L102.97 15.87L102.97 19.9L99.04 19.9Z" id="a2Q9Un283J"></path></defs><g><g><g><use xlink:href="#g2Vg1O5EXW" opacity="1" fill="#000000" fill-opacity="1"></use><g><use xlink:href="#g2Vg1O5EXW" opacity="1" fill-opacity="0" stroke="#000000" stroke-width="1" stroke-opacity="0"></use></g></g><g><use xlink:href="#a6KWp8sDlG" opacity="1" fill="#1d1d1b" fill-opacity="1"></use><g><use xlink:href="#a6KWp8sDlG" opacity="1" fill-opacity="0" stroke="#000000" stroke-width="1" stroke-opacity="0"></use></g></g><g><use xlink:href="#b1MY2BbcT6" opacity="1" fill="#000000" fill-opacity="1"></use><g><use xlink:href="#b1MY2BbcT6" opacity="1" fill-opacity="0" stroke="#000000" stroke-width="1" stroke-opacity="0"></use></g></g><g><use xlink:href="#b3w8vPuJ0J" opacity="1" fill="#1d1d1b" fill-opacity="1"></use><g><use xlink:href="#b3w8vPuJ0J" opacity="1" fill-opacity="0" stroke="#000000" stroke-width="1" stroke-opacity="0"></use></g></g><g><use xlink:href="#e49jPWd12W" opacity="1" fill="#000000" fill-opacity="1"></use><g><use xlink:href="#e49jPWd12W" opacity="1" fill-opacity="0" stroke="#000000" stroke-width="1" stroke-opacity="0"></use></g></g><g><use xlink:href="#mxqVNJmCn" opacity="1" fill="#1d1d1b" fill-opacity="1"></use><g><use xlink:href="#mxqVNJmCn" opacity="1" fill-opacity="0" stroke="#000000" stroke-width="1" stroke-opacity="0"></use></g></g><g><use xlink:href="#aGEF86Cdc" opacity="1" fill="#000000" fill-opacity="1"></use><g><use xlink:href="#aGEF86Cdc" opacity="1" fill-opacity="0" stroke="#000000" stroke-width="1" stroke-opacity="0"></use></g></g><g><use xlink:href="#b72dlh8nc" opacity="1" fill="#1d1d1b" fill-opacity="1"></use><g><use xlink:href="#b72dlh8nc" opacity="1" fill-opacity="0" stroke="#000000" stroke-width="1" stroke-opacity="0"></use></g></g><g><use xlink:href="#b18TMzc0oi" opacity="1" fill="#000000" fill-opacity="1"></use><g><use xlink:href="#b18TMzc0oi" opacity="1" fill-opacity="0" stroke="#000000" stroke-width="1" stroke-opacity="0"></use></g></g><g><use xlink:href="#a3jETjE8L6" opacity="1" fill="#1d1d1b" fill-opacity="1"></use><g><use xlink:href="#a3jETjE8L6" opacity="1" fill-opacity="0" stroke="#000000" stroke-width="1" stroke-opacity="0"></use></g></g><g><use xlink:href="#g330Nxw4iq" opacity="1" fill="#000000" fill-opacity="1"></use><g><use xlink:href="#g330Nxw4iq" opacity="1" fill-opacity="0" stroke="#000000" stroke-width="1" stroke-opacity="0"></use></g></g><g><use xlink:href="#d2unNh4zOZ" opacity="1" fill="#1d1d1b" fill-opacity="1"></use><g><use xlink:href="#d2unNh4zOZ" opacity="1" fill-opacity="0" stroke="#000000" stroke-width="1" stroke-opacity="0"></use></g></g><g><use xlink:href="#b2ka99tTJE" opacity="1" fill="#000000" fill-opacity="1"></use><g><use xlink:href="#b2ka99tTJE" opacity="1" fill-opacity="0" stroke="#000000" stroke-width="1" stroke-opacity="0"></use></g></g><g><use xlink:href="#h6Cjv8IBp" opacity="1" fill="#1d1d1b" fill-opacity="1"></use><g><use xlink:href="#h6Cjv8IBp" opacity="1" fill-opacity="0" stroke="#000000" stroke-width="1" stroke-opacity="0"></use></g></g><g><use xlink:href="#d3EgXgXkzi" opacity="1" fill="#000000" fill-opacity="1"></use><g><use xlink:href="#d3EgXgXkzi" opacity="1" fill-opacity="0" stroke="#000000" stroke-width="1" stroke-opacity="0"></use></g></g><g><use xlink:href="#a1TAEnQ4eb" opacity="1" fill="#1d1d1b" fill-opacity="1"></use><g><use xlink:href="#a1TAEnQ4eb" opacity="1" fill-opacity="0" stroke="#000000" stroke-width="1" stroke-opacity="0"></use></g></g><g><use xlink:href="#aLbT87SF" opacity="1" fill="#000000" fill-opacity="1"></use><g><use xlink:href="#aLbT87SF" opacity="1" fill-opacity="0" stroke="#000000" stroke-width="1" stroke-opacity="0"></use></g></g><g><use xlink:href="#d1pdDOQFKw" opacity="1" fill="#1d1d1b" fill-opacity="1"></use><g><use xlink:href="#d1pdDOQFKw" opacity="1" fill-opacity="0" stroke="#000000" stroke-width="1" stroke-opacity="0"></use></g></g><g><use xlink:href="#bibHYACw2" opacity="1" fill="#009ee2" fill-opacity="1"></use><g><use xlink:href="#bibHYACw2" opacity="1" fill-opacity="0" stroke="#000000" stroke-width="1" stroke-opacity="0"></use></g></g><g><use xlink:href="#a1DxedpVtZ" opacity="1" fill="#f8af00" fill-opacity="1"></use><g><use xlink:href="#a1DxedpVtZ" opacity="1" fill-opacity="0" stroke="#000000" stroke-width="1" stroke-opacity="0"></use></g></g><g><use xlink:href="#b4ILl1fX3S" opacity="1" fill="#f8af00" fill-opacity="1"></use><g><use xlink:href="#b4ILl1fX3S" opacity="1" fill-opacity="0" stroke="#000000" stroke-width="1" stroke-opacity="0"></use></g></g><g><use xlink:href="#bwXndI2BR" opacity="1" fill="#009ee2" fill-opacity="1"></use><g><use xlink:href="#bwXndI2BR" opacity="1" fill-opacity="0" stroke="#000000" stroke-width="1" stroke-opacity="0"></use></g></g><g><use xlink:href="#b1UWODEndk" opacity="1" fill="#009ee2" fill-opacity="1"></use><g><use xlink:href="#b1UWODEndk" opacity="1" fill-opacity="0" stroke="#000000" stroke-width="1" stroke-opacity="0"></use></g></g><g><use xlink:href="#b1gFjTG6LJ" opacity="1" fill="#f8af00" fill-opacity="1"></use><g><use xlink:href="#b1gFjTG6LJ" opacity="1" fill-opacity="0" stroke="#000000" stroke-width="1" stroke-opacity="0"></use></g></g><g><use xlink:href="#b2D5ha4TPw" opacity="1" fill="#009ee2" fill-opacity="1"></use><g><use xlink:href="#b2D5ha4TPw" opacity="1" fill-opacity="0" stroke="#000000" stroke-width="1" stroke-opacity="0"></use></g></g><g><use xlink:href="#b17sl6pWsL" opacity="1" fill="#ed7203" fill-opacity="1"></use><g><use xlink:href="#b17sl6pWsL" opacity="1" fill-opacity="0" stroke="#000000" stroke-width="1" stroke-opacity="0"></use></g></g><g><use xlink:href="#a2HncyduIU" opacity="1" fill="#0061ac" fill-opacity="1"></use><g><use xlink:href="#a2HncyduIU" opacity="1" fill-opacity="0" stroke="#000000" stroke-width="1" stroke-opacity="0"></use></g></g><g><use xlink:href="#e2XDqsf5RQ" opacity="1" fill="#ed7203" fill-opacity="1"></use><g><use xlink:href="#e2XDqsf5RQ" opacity="1" fill-opacity="0" stroke="#000000" stroke-width="1" stroke-opacity="0"></use></g></g><g><use xlink:href="#c5cKge8xMf" opacity="1" fill="#0061ac" fill-opacity="1"></use><g><use xlink:href="#c5cKge8xMf" opacity="1" fill-opacity="0" stroke="#000000" stroke-width="1" stroke-opacity="0"></use></g></g><g><use xlink:href="#b1mezTYWf" opacity="1" fill="#ed7203" fill-opacity="1"></use><g><use xlink:href="#b1mezTYWf" opacity="1" fill-opacity="0" stroke="#000000" stroke-width="1" stroke-opacity="0"></use></g></g><g><use xlink:href="#be6oSfyVS" opacity="1" fill="#0061ac" fill-opacity="1"></use><g><use xlink:href="#be6oSfyVS" opacity="1" fill-opacity="0" stroke="#000000" stroke-width="1" stroke-opacity="0"></use></g></g><g><use xlink:href="#aWNUKkQZZ" opacity="1" fill="#1d1d1b" fill-opacity="1"></use><g><use xlink:href="#aWNUKkQZZ" opacity="1" fill-opacity="0" stroke="#000000" stroke-width="1" stroke-opacity="0"></use></g></g><g><use xlink:href="#c1lMaKBvhu" opacity="1" fill="#1d1d1b" fill-opacity="1"></use><g><use xlink:href="#c1lMaKBvhu" opacity="1" fill-opacity="0" stroke="#000000" stroke-width="1" stroke-opacity="0"></use></g></g><g><use xlink:href="#a4CTytdYMt" opacity="1" fill="#1d1d1b" fill-opacity="1"></use><g><use xlink:href="#a4CTytdYMt" opacity="1" fill-opacity="0" stroke="#000000" stroke-width="1" stroke-opacity="0"></use></g></g><g><use xlink:href="#c4FgXzEcj" opacity="1" fill="#1d1d1b" fill-opacity="1"></use><g><use xlink:href="#c4FgXzEcj" opacity="1" fill-opacity="0" stroke="#000000" stroke-width="1" stroke-opacity="0"></use></g></g><g><use xlink:href="#aI7DCz2S6" opacity="1" fill="#1d1d1b" fill-opacity="1"></use><g><use xlink:href="#aI7DCz2S6" opacity="1" fill-opacity="0" stroke="#000000" stroke-width="1" stroke-opacity="0"></use></g></g><g><use xlink:href="#a222Mi1uO" opacity="1" fill="#1d1d1b" fill-opacity="1"></use><g><use xlink:href="#a222Mi1uO" opacity="1" fill-opacity="0" stroke="#000000" stroke-width="1" stroke-opacity="0"></use></g></g><g><use xlink:href="#a2Q9Un283J" opacity="1" fill="#1d1d1b" fill-opacity="1"></use><g><use xlink:href="#a2Q9Un283J" opacity="1" fill-opacity="0" stroke="#000000" stroke-width="1" stroke-opacity="0"></use></g></g></g></g></svg>