<?xml version="1.0" encoding="UTF-8" standalone="no"?>
<!DOCTYPE svg PUBLIC "-//W3C//DTD SVG 1.1//EN" "http://www.w3.org/Graphics/SVG/1.1/DTD/svg11.dtd">
<svg version="1.1" xmlns="http://www.w3.org/2000/svg" xmlns:xlink="http://www.w3.org/1999/xlink" preserveAspectRatio="xMidYMid meet" viewBox="0 0 150 50" width="150" height="50"><defs><path d="M37.63 37.17C38.54 34.68 39.04 33.3 39.14 33.02C41.22 33.92 42.76 34.38 44.17 34.38C45.63 34.38 46.32 33.86 46.32 33.07C46.32 31.99 45.3 31.69 43.6 31.15C40.43 30.15 38.25 28.92 38.25 25.33C38.25 21.64 40.55 19.74 44.89 19.74C47.09 19.74 49.12 20.2 50.83 21.1C50.63 21.48 49.01 24.49 48.81 24.87C47.09 24.12 46.04 23.84 44.81 23.84C43.55 23.84 42.86 24.28 42.86 24.97C42.86 25.94 43.45 26.23 46.17 27.23C49.32 28.35 51.24 29.87 51.24 32.87C51.24 36.71 48.7 38.66 44.09 38.66C41.76 38.66 39.71 38.17 37.63 37.17" id="h3wdrLGuct"></path><path d="M64.31 38.3L58.24 30.25C58.24 33.73 58.24 35.66 58.24 36.04C58.24 37.58 57.52 38.3 55.98 38.3C55.81 38.3 54.94 38.3 53.37 38.3L53.37 20.1L58.24 20.1L58.24 27.97C60.81 24.36 62.24 22.35 62.52 21.95C63.42 20.69 64.55 20.1 66.08 20.1C66.33 20.1 67.55 20.1 69.75 20.1L62.83 28.82L70.13 38.3L64.31 38.3Z" id="c1mpD23zcC"></path><path d="M88.41 20.1L81.85 31.58L81.85 38.3L77.03 38.3L77.03 31.38L79.05 27.56C77.71 27.56 76.97 27.56 76.82 27.56C75.29 27.56 74.21 26.94 73.44 25.61C73.23 25.24 72.18 23.41 70.29 20.1L75.93 20.1L79.41 26.87L83 20.1L88.41 20.1Z" id="a8szoZgbuu"></path><path d="M102.71 34.02L102.71 38.3L89.84 38.3L89.84 20.1C91.41 20.1 92.28 20.1 92.46 20.1C94 20.1 94.71 20.82 94.71 22.36C94.71 23.13 94.71 27.02 94.71 34.02L102.71 34.02Z" id="b11YM3sN8X"></path><path d="M104.53 22.36C104.53 20.82 105.25 20.1 106.79 20.1C106.96 20.1 107.83 20.1 109.4 20.1L109.4 38.3L104.53 38.3C104.53 29.8 104.53 24.48 104.53 22.36Z" id="atr4XucXa"></path><path d="M128.55 20.1L128.55 38.3L123.83 38.3L116.58 27.66L116.58 38.3L112.07 38.3L112.07 20.1L116.73 20.1L124.06 30.84C124.06 25.78 124.06 22.97 124.06 22.41C124.06 20.87 124.78 20.15 126.32 20.13C126.61 20.12 127.36 20.11 128.55 20.1Z" id="c3EF3PyBcX"></path><path d="M142.18 38.3L136.11 30.25C136.11 33.73 136.11 35.66 136.11 36.04C136.11 37.58 135.39 38.3 133.85 38.3C133.68 38.3 132.81 38.3 131.24 38.3L131.24 20.1L136.11 20.1L136.11 27.97C138.68 24.36 140.1 22.35 140.39 21.95C141.29 20.69 142.41 20.1 143.95 20.1C144.2 20.1 145.42 20.1 147.62 20.1L140.7 28.82L148 38.3L142.18 38.3Z" id="a3wNPn77rg"></path><path d="M6.56 33.76C4.22 36.09 2.93 37.39 2.67 37.65C3.08 38.06 3.65 38.31 4.28 38.31C4.28 38.31 4.28 38.31 4.28 38.31L20.21 38.31L24.77 33.76L6.56 33.76Z" id="c2VogEx0nT"></path><linearGradient id="gradientb8ArNYeln1" gradientUnits="userSpaceOnUse" x1="2.88" y1="36.04" x2="24.73" y2="36.04"><stop style="stop-color: #ed192e;stop-opacity: 1" offset="0%"></stop><stop style="stop-color: #ed192e;stop-opacity: 1" offset="0.255346%"></stop><stop style="stop-color: #f25a2d;stop-opacity: 1" offset="100%"></stop></linearGradient><path d="M2 36.04C2 36.67 2.26 37.24 2.67 37.65C2.67 37.65 2.67 37.65 2.67 37.65L6.56 33.76L11.11 29.21L2 20.1C2 28.6 2 33.91 2 36.04Z" id="a5MZ26KFG"></path><linearGradient id="gradientb8eyeV5kp" gradientUnits="userSpaceOnUse" x1="6.56" y1="19.64" x2="6.56" y2="38.58"><stop style="stop-color: #d71d24;stop-opacity: 1" offset="0%"></stop><stop style="stop-color: #d71d24;stop-opacity: 1" offset="0.255346%"></stop><stop style="stop-color: #ed192e;stop-opacity: 1" offset="100%"></stop></linearGradient><path d="M11.11 29.21L6.56 33.76L24.77 33.76L29.32 29.21L11.11 29.21Z" id="b10F9i8JYg"></path><linearGradient id="gradientc2Q8PzhIM" gradientUnits="userSpaceOnUse" x1="6.52" y1="31.48" x2="29.15" y2="31.48"><stop style="stop-color: #d71d24;stop-opacity: 1" offset="0%"></stop><stop style="stop-color: #d71d24;stop-opacity: 1" offset="0.255346%"></stop><stop style="stop-color: #ed192e;stop-opacity: 1" offset="100%"></stop></linearGradient><path d="M2 20.1L11.11 29.21L11.11 20.1L2 20.1Z" id="bgL2kv8uX"></path><linearGradient id="gradientc1WPzTJ5F2" gradientUnits="userSpaceOnUse" x1="1.93" y1="24.66" x2="10.98" y2="24.66"><stop style="stop-color: #ed192e;stop-opacity: 1" offset="0%"></stop><stop style="stop-color: #ed192e;stop-opacity: 1" offset="0.255346%"></stop><stop style="stop-color: #f25a2d;stop-opacity: 1" offset="100%"></stop></linearGradient><path d="M2 20.1L20.21 20.1L11.11 11L2 20.1Z" id="d5xZf3I9BG"></path><linearGradient id="gradientbTWfWMWhi" gradientUnits="userSpaceOnUse" x1="1.76" y1="15.55" x2="20.19" y2="15.55"><stop style="stop-color: #d71d24;stop-opacity: 1" offset="0%"></stop><stop style="stop-color: #d71d24;stop-opacity: 1" offset="0.255346%"></stop><stop style="stop-color: #ed192e;stop-opacity: 1" offset="100%"></stop></linearGradient><path d="M11.11 11L20.21 20.1C25.28 15.04 28.09 12.23 28.65 11.67C28.24 11.25 27.67 11 27.04 11C27.04 11 27.04 11 27.04 11L11.11 11Z" id="djmfpLeOh"></path><linearGradient id="gradientaaEcoLpg2" gradientUnits="userSpaceOnUse" x1="11.23" y1="15.55" x2="28.48" y2="15.55"><stop style="stop-color: #ed192e;stop-opacity: 1" offset="0%"></stop><stop style="stop-color: #ed192e;stop-opacity: 1" offset="0.255346%"></stop><stop style="stop-color: #f25a2d;stop-opacity: 1" offset="100%"></stop></linearGradient><path d="M20.21 29.21L29.32 29.21L29.32 20.1L20.21 29.21Z" id="a4dGwDwW72"></path><linearGradient id="gradienta3PkowRLuZ" gradientUnits="userSpaceOnUse" x1="29.6" y1="24.66" x2="20.11" y2="24.66"><stop style="stop-color: #ed192e;stop-opacity: 1" offset="0%"></stop><stop style="stop-color: #ed192e;stop-opacity: 1" offset="0.255346%"></stop><stop style="stop-color: #f25a2d;stop-opacity: 1" offset="100%"></stop></linearGradient><path d="M20.21 20.1L20.21 29.21L29.32 20.1C29.32 16.01 29.32 13.73 29.32 13.27C29.32 12.65 29.06 12.08 28.65 11.67C28.65 11.67 28.65 11.67 28.65 11.67L20.21 20.1Z" id="akrps80CW"></path><linearGradient id="gradientg8DACZ4hz" gradientUnits="userSpaceOnUse" x1="29.26" y1="20.44" x2="20.19" y2="20.44"><stop style="stop-color: #d71d24;stop-opacity: 1" offset="0%"></stop><stop style="stop-color: #d71d24;stop-opacity: 1" offset="0.255346%"></stop><stop style="stop-color: #ed192e;stop-opacity: 1" offset="100%"></stop></linearGradient></defs><g><g><g><use xlink:href="#h3wdrLGuct" opacity="1" fill="#243d88" fill-opacity="1"></use><g><use xlink:href="#h3wdrLGuct" opacity="1" fill-opacity="0" stroke="#000000" stroke-width="1" stroke-opacity="0"></use></g></g><g><use xlink:href="#c1mpD23zcC" opacity="1" fill="#243d88" fill-opacity="1"></use><g><use xlink:href="#c1mpD23zcC" opacity="1" fill-opacity="0" stroke="#000000" stroke-width="1" stroke-opacity="0"></use></g></g><g><use xlink:href="#a8szoZgbuu" opacity="1" fill="#243d88" fill-opacity="1"></use><g><use xlink:href="#a8szoZgbuu" opacity="1" fill-opacity="0" stroke="#000000" stroke-width="1" stroke-opacity="0"></use></g></g><g><use xlink:href="#b11YM3sN8X" opacity="1" fill="#243d88" fill-opacity="1"></use><g><use xlink:href="#b11YM3sN8X" opacity="1" fill-opacity="0" stroke="#000000" stroke-width="1" stroke-opacity="0"></use></g></g><g><use xlink:href="#atr4XucXa" opacity="1" fill="#243d88" fill-opacity="1"></use><g><use xlink:href="#atr4XucXa" opacity="1" fill-opacity="0" stroke="#000000" stroke-width="1" stroke-opacity="0"></use></g></g><g><use xlink:href="#c3EF3PyBcX" opacity="1" fill="#243d88" fill-opacity="1"></use><g><use xlink:href="#c3EF3PyBcX" opacity="1" fill-opacity="0" stroke="#000000" stroke-width="1" stroke-opacity="0"></use></g></g><g><use xlink:href="#a3wNPn77rg" opacity="1" fill="#243d88" fill-opacity="1"></use><g><use xlink:href="#a3wNPn77rg" opacity="1" fill-opacity="0" stroke="#000000" stroke-width="1" stroke-opacity="0"></use></g></g><g><use xlink:href="#c2VogEx0nT" opacity="1" fill="url(#gradientb8ArNYeln1)"></use><g><use xlink:href="#c2VogEx0nT" opacity="1" fill-opacity="0" stroke="#000000" stroke-width="1" stroke-opacity="0"></use></g></g><g><use xlink:href="#a5MZ26KFG" opacity="1" fill="url(#gradientb8eyeV5kp)"></use><g><use xlink:href="#a5MZ26KFG" opacity="1" fill-opacity="0" stroke="#000000" stroke-width="1" stroke-opacity="0"></use></g></g><g><use xlink:href="#b10F9i8JYg" opacity="1" fill="url(#gradientc2Q8PzhIM)"></use><g><use xlink:href="#b10F9i8JYg" opacity="1" fill-opacity="0" stroke="#000000" stroke-width="1" stroke-opacity="0"></use></g></g><g><use xlink:href="#bgL2kv8uX" opacity="1" fill="url(#gradientc1WPzTJ5F2)"></use><g><use xlink:href="#bgL2kv8uX" opacity="1" fill-opacity="0" stroke="#000000" stroke-width="1" stroke-opacity="0"></use></g></g><g><use xlink:href="#d5xZf3I9BG" opacity="1" fill="url(#gradientbTWfWMWhi)"></use><g><use xlink:href="#d5xZf3I9BG" opacity="1" fill-opacity="0" stroke="#000000" stroke-width="1" stroke-opacity="0"></use></g></g><g><use xlink:href="#djmfpLeOh" opacity="1" fill="url(#gradientaaEcoLpg2)"></use><g><use xlink:href="#djmfpLeOh" opacity="1" fill-opacity="0" stroke="#000000" stroke-width="1" stroke-opacity="0"></use></g></g><g><use xlink:href="#a4dGwDwW72" opacity="1" fill="url(#gradienta3PkowRLuZ)"></use><g><use xlink:href="#a4dGwDwW72" opacity="1" fill-opacity="0" stroke="#000000" stroke-width="1" stroke-opacity="0"></use></g></g><g><use xlink:href="#akrps80CW" opacity="1" fill="url(#gradientg8DACZ4hz)"></use><g><use xlink:href="#akrps80CW" opacity="1" fill-opacity="0" stroke="#000000" stroke-width="1" stroke-opacity="0"></use></g></g></g></g></svg>