<?xml version="1.0" encoding="UTF-8" standalone="no"?>
<!DOCTYPE svg PUBLIC "-//W3C//DTD SVG 1.1//EN" "http://www.w3.org/Graphics/SVG/1.1/DTD/svg11.dtd">
<svg version="1.1" xmlns="http://www.w3.org/2000/svg" xmlns:xlink="http://www.w3.org/1999/xlink" preserveAspectRatio="xMidYMid meet" viewBox="0 0 150 50" width="150" height="50"><defs><path d="M111.74 11.49L120.84 11.49L104.87 48L95.78 48L111.74 11.49Z" id="a1BKMat0PR"></path><path d="M99.78 36.85L99.78 2L91.09 2L91.09 36.85L99.78 36.85Z" id="cF8vP4h2R"></path><path d="M46.21 36.91L46.21 9.53L55.64 9.53L55.64 2L28 2L28 9.53L37.5 9.53L37.5 36.91L46.21 36.91Z" id="aOzudfO5s"></path><path d="M86.87 36.85L86.87 2L78.19 2L78.19 36.85L86.87 36.85Z" id="c1F7MNYwQs"></path><path d="M62.18 10.67C54.45 10.67 48.84 16.26 48.84 23.95C48.84 31.74 54.47 37.18 62.53 37.18C65.79 37.18 68.26 36.53 70.55 35.07C72.91 33.57 74.58 31.52 75.2 29.42C74.33 29.42 67.41 29.42 66.54 29.42C65.78 30.66 64.51 31.32 62.84 31.32C59.99 31.32 58.17 29.6 57.56 26.35C57.56 26.33 57.54 26.22 57.51 26.03C68.47 26.03 74.57 26.03 75.78 26.03C75.83 20.94 74.28 16.69 71.41 14.05C68.96 11.81 65.85 10.67 62.18 10.67M57.51 21.57C57.54 21.38 57.56 21.28 57.56 21.26C58.12 18.13 59.79 16.48 62.38 16.48C64.8 16.48 66.49 18.27 66.91 21.27C66.91 21.31 66.93 21.41 66.95 21.57C65.06 21.57 58.45 21.57 57.51 21.57Z" id="dg5BvV61h"></path></defs><g><g><g><use xlink:href="#a1BKMat0PR" opacity="1" fill="#244a9a" fill-opacity="1"></use><g><use xlink:href="#a1BKMat0PR" opacity="1" fill-opacity="0" stroke="#000000" stroke-width="1" stroke-opacity="0"></use></g></g><g><use xlink:href="#cF8vP4h2R" opacity="1" fill="#244a9a" fill-opacity="1"></use><g><use xlink:href="#cF8vP4h2R" opacity="1" fill-opacity="0" stroke="#000000" stroke-width="1" stroke-opacity="0"></use></g></g><g><use xlink:href="#aOzudfO5s" opacity="1" fill="#244a9a" fill-opacity="1"></use><g><use xlink:href="#aOzudfO5s" opacity="1" fill-opacity="0" stroke="#000000" stroke-width="1" stroke-opacity="0"></use></g></g><g><use xlink:href="#c1F7MNYwQs" opacity="1" fill="#244a9a" fill-opacity="1"></use><g><use xlink:href="#c1F7MNYwQs" opacity="1" fill-opacity="0" stroke="#000000" stroke-width="1" stroke-opacity="0"></use></g></g><g><use xlink:href="#dg5BvV61h" opacity="1" fill="#244a9a" fill-opacity="1"></use><g><use xlink:href="#dg5BvV61h" opacity="1" fill-opacity="0" stroke="#000000" stroke-width="1" stroke-opacity="0"></use></g></g></g></g></svg>